M48
;Layer_Color=6321
;FILE_FORMAT=4:4
METRIC,LZ
;TYPE=PLATED
T1F00S00C0.3000
T2F00S00C0.8000
T3F00S00C1.0000
%
T01
X003505Y00379
X003735Y00381
X004225Y00392
X004225Y0035
X004735Y0037
X004695Y00383
X005075Y00375
X005165Y0037
X005349Y003506
X005655Y00339
X005955Y00327
X00586312Y00361812
X00621499Y00362
X006515Y00393
X00697Y003925
X007055Y00372
X00715538Y00375038
X007455Y00373
X007415Y00394
X007825Y00392
X00783688Y00367
X007895Y00343
Y003335
X007447Y00333799
X00732Y003325
X007165Y00332
X007Y003325
X006856Y003329
X006715Y00339
Y0035
X007545Y00353
X005345Y00396
X00522Y0026846
X005075Y002685
X00509Y00278
X004465Y00289
X008015Y00357
X008455Y003755
X008555Y003475
X008875Y003425
X009105Y00336999
X009305Y003375
X009495
X009685
X009895Y00337
X009885Y003585
X009765Y003695
X00970499Y00383
X00959998Y00377
X00951999Y00369
X009405Y003595
X009285Y003695
X009165Y003595
X00906Y00360165
X009045Y003695
X008765Y003875
X00904Y003125
X00914Y00291
Y00273
X00904Y00274
X009645Y003595
X009865Y00387
X00980499Y003935
X01005Y00395
X010495Y00379
X0104849Y00335
X010085Y003285
X01005Y00428
X01005Y00449
X00986
X00980499Y00456499
X00970499Y00466999
X00980499Y00477499
X010055Y00471
X01029Y00449
X010465Y00461
X010775Y00448
X011263Y00444
X011245Y00454
X011205Y00481
X011435Y00478
X011525
X011485Y0049
X011045Y00495
X011Y005255
X010985Y005335
X01074Y005345
X01056498Y00509999
X009885Y005075
X0095425Y005005
X0093425
X0091862Y004905
X009125Y004845
X009035
X008845Y004835
X008885Y004605
X00859Y00463334
Y00450168
Y00437002
X00858499Y00423999
X00864776Y00414197
X008575Y004045
X008885Y004145
X00911Y004368
X009335Y004145
X00946002Y00402002
X00970499Y00404
X00980499Y004145
X00970499Y00425
X00980499Y004355
X00970499Y00445999
X00946598Y00471598
X009335Y004605
X00916Y005255
X0088384Y0053484
X008575Y00546
X008385Y005135
X008227Y005197
X008395Y004715
X00839Y00452
X00859Y004765
X008535Y00483
X008625Y004885
X00797525Y00470474
X008005Y004155
X010465Y00406
X010705Y004
X010995
X011263Y004218
X007475Y00413
X007465Y004475
X0073Y004635
X007355Y00473
X00763Y004895
X007745Y00464
X007555Y005275
X007335Y00521
X006875Y00496
X006745
X006635Y00507
X0064125Y0050625
X00622124Y00476
X005865
X005855Y00458
Y00419
Y004
X006215Y00419
X006335Y00439
X00646999Y00447
X006685Y004445
Y00418
X006865Y00414
X005555Y0043
X00542Y004405
X00526Y004515
X005425Y004968
X004855Y00489
X004745Y0043
X00449Y004285
X004395Y0041
X004195Y00409
X004225Y0046
X004895Y00398
X0051715Y0039735
X005865Y00525
X003915Y00409
X003545Y00418
T02
X004095Y00525
X004295
X003895
X003695
T03
X0035755Y0030505
X0038295
X0040835
X0043375
X0045915
X0048455
X0050995
X0053535
X0056075
X0058615
X0061155
X0063695
X0066235
X0068775
X0071315
X0073855
X0076395
X0078935
X0081475
X0084015
X0086555
X0089095
X0091635
X0094175
X0096715
X0099255
X0101795
X0104335
X0106875
X0109415
X0111955
X0114495
X0112605Y0054825
X0110065
X0107525
X0104985
X0102445
X0099905
X0097365
X0094825
X0091015
X0088475
M30
