M48
;Layer_Color=6321
;FILE_FORMAT=4:4
METRIC,LZ
;TYPE=PLATED
T1F00S00C0.3000
T2F00S00C0.6500
T3F00S00C1.0000
T4F00S00C1.0160
T5F00S00C1.2000
T6F00S00C2.6000
%
T01
X0046645Y00366
X0050145Y0035454
X0061195Y00366873
Y0033104
X0065795Y0034154
Y0037904
X0067645Y003675
X0069295
X0070445Y00366848
X00714449Y003585
X0074895Y00353348
X0078345Y00350348
X0079295Y00364848
X0078595Y00318
X0072545Y00324348
X0065795Y0030404
X0075595Y00385348
X0080745Y003545
X0104245Y00340373
Y0030254
Y00378207
X0122745Y0065454
X0120995Y0070854
X0130195Y0069554
X0130845Y0067554
Y0061654
X0138145Y0062904
X0140245Y0055854
X0113645Y0062354
X0112845Y0063754
X0098795
X0099245Y0061104
X0100845Y0057904
X01039449Y0056054
X01017814Y0051472
X0094845Y0052904
X0090495Y0052604
X0091395Y0058004
X0094445Y0058054
X0083795Y0056604
X0082795Y0056554
X0080295Y00515
X0087045Y0048604
X0088845Y0044954
X0104245Y0041604
X0096795Y0070854
X0095345Y0069504
X0094395Y0073504
X0085645Y0073804
X0086845Y0075354
X0088195Y0076854
X01009461
X0118945Y0072104
X0073995Y0056954
X0065795Y0041654
X0061195Y00402707
Y0043854
X0052795Y0043054
X0046295Y0044904
X0046345Y0048554
X0042045Y0051404
X0089345Y0081054
T02
X0069745Y004645
Y005145
T03
X012569Y0049895
X013069
Y0064395
X012819
X012569
X0094361Y0078867
X0091821
X0086741
X0084201
X0081661
X0079121
X0076581
X0074041
X0071501
X0068961
X0032051Y0053428
Y0050888
Y0048348
Y0045808
T04
X0121565Y007925
X0143795Y0066674
X0143795Y0064134
X0119025Y007925
T05
X0143811Y0054199
Y0060599
X013139Y00743
X012499
T06
X012249Y0056895
X013389
M30
