G04*
G04 #@! TF.GenerationSoftware,Altium Limited,CircuitStudio,1.5.2 (1.5.2.30)*
G04*
G04 Layer_Physical_Order=1*
G04 Layer_Color=11767835*
%FSLAX44Y44*%
%MOMM*%
G71*
G01*
G75*
%ADD10R,1.3000X1.6000*%
%ADD11O,2.2000X0.6000*%
%ADD12R,0.9144X0.8128*%
%ADD13R,1.3000X0.7000*%
%ADD14R,1.0000X1.5240*%
%ADD15R,1.6000X1.3000*%
%ADD16C,1.2700*%
%ADD17R,1.5240X1.0000*%
%ADD18R,0.7000X1.3000*%
%ADD19R,1.0000X0.6000*%
%ADD20R,0.6000X1.0000*%
%ADD21R,0.8128X0.9144*%
%ADD22R,2.0000X2.0000*%
%ADD23R,2.0000X0.8000*%
%ADD24R,5.5880X5.5880*%
%ADD25R,0.8128X0.3048*%
%ADD26R,0.3048X0.8128*%
%ADD27R,0.6500X0.9000*%
G04:AMPARAMS|DCode=28|XSize=1.4mm|YSize=1.2mm|CornerRadius=0mm|HoleSize=0mm|Usage=FLASHONLY|Rotation=315.000|XOffset=0mm|YOffset=0mm|HoleType=Round|Shape=Rectangle|*
%AMROTATEDRECTD28*
4,1,4,-0.9192,0.0707,-0.0707,0.9192,0.9192,-0.0707,0.0707,-0.9192,-0.9192,0.0707,0.0*
%
%ADD28ROTATEDRECTD28*%

%ADD29C,0.2500*%
%ADD30C,0.2611*%
%ADD31C,0.5000*%
%ADD32C,0.2540*%
%ADD33C,0.2610*%
%ADD34C,0.1524*%
%ADD35C,0.2030*%
%ADD36C,1.5240*%
%ADD37R,1.5240X1.5240*%
%ADD38C,3.0000*%
%ADD39C,0.6000*%
G36*
X819332Y555679D02*
X819546Y554940D01*
X818728Y553716D01*
X818396Y552050D01*
X818728Y550384D01*
X819672Y548971D01*
X819910Y548812D01*
Y528430D01*
X813819D01*
Y531998D01*
X814078Y532171D01*
X815022Y533584D01*
X815353Y535250D01*
X815022Y536916D01*
X814078Y538328D01*
X812666Y539272D01*
X811000Y539604D01*
X809334Y539272D01*
X807921Y538328D01*
X806977Y536916D01*
X806646Y535250D01*
X806977Y533584D01*
X807921Y532171D01*
X808680Y531664D01*
Y528430D01*
X802360D01*
Y515890D01*
X819910D01*
Y508110D01*
X802360D01*
Y503990D01*
X798423D01*
Y506170D01*
X782883D01*
Y496630D01*
X798423D01*
Y498811D01*
X802360D01*
Y495570D01*
X809160D01*
Y493455D01*
X808672Y493129D01*
X807728Y491716D01*
X807396Y490050D01*
X807728Y488384D01*
X808672Y486972D01*
X810084Y486028D01*
X811750Y485696D01*
X813416Y486028D01*
X814828Y486972D01*
X815772Y488384D01*
X816104Y490050D01*
X815772Y491716D01*
X814828Y493129D01*
X814340Y493455D01*
Y495570D01*
X819910D01*
Y488500D01*
X820107Y487509D01*
X820668Y486669D01*
X828120Y479217D01*
Y475370D01*
X819830D01*
Y459830D01*
X822010D01*
Y455590D01*
X818690D01*
Y446640D01*
X817000D01*
X816009Y446443D01*
X815169Y445881D01*
X812083Y442796D01*
X810910Y443282D01*
Y455590D01*
X798370D01*
Y451640D01*
X795655D01*
X795329Y452128D01*
X793916Y453072D01*
X792250Y453404D01*
X790584Y453072D01*
X789172Y452128D01*
X788228Y450716D01*
X787896Y449050D01*
X788228Y447384D01*
X789172Y445971D01*
X790584Y445028D01*
X792250Y444696D01*
X793916Y445028D01*
X795329Y445971D01*
X795655Y446460D01*
X798370D01*
Y437810D01*
X809590D01*
Y427784D01*
X801320D01*
Y420244D01*
X798780D01*
Y427784D01*
X794797D01*
X793755Y429054D01*
X793854Y429550D01*
X793522Y431216D01*
X792579Y432629D01*
X791166Y433572D01*
X789500Y433904D01*
X787834Y433572D01*
X786422Y432629D01*
X785478Y431216D01*
X785146Y429550D01*
X784711Y429020D01*
X781590D01*
Y430428D01*
X782328Y430921D01*
X783272Y432334D01*
X783603Y434000D01*
X783272Y435666D01*
X782328Y437078D01*
X780916Y438022D01*
X779250Y438354D01*
X777584Y438022D01*
X776171Y437078D01*
X775228Y435666D01*
X774896Y434000D01*
X775228Y432334D01*
X776171Y430921D01*
X776410Y430762D01*
Y429020D01*
X770480D01*
Y419480D01*
X772212D01*
X772760Y418657D01*
X772786Y418210D01*
X772669Y418131D01*
X769013Y414476D01*
X767840Y414962D01*
Y480477D01*
X770167Y482805D01*
X771230Y483330D01*
Y483330D01*
X771230Y483330D01*
X786770D01*
Y492870D01*
X781590D01*
Y495500D01*
X781392Y496491D01*
X780831Y497331D01*
X772758Y505404D01*
X772830Y507129D01*
X773205Y507492D01*
X773210Y507504D01*
X773222Y507508D01*
X773419Y507985D01*
X773624Y508458D01*
X773620Y508469D01*
X773624Y508480D01*
Y530460D01*
X778750D01*
X779741Y530657D01*
X780581Y531219D01*
X805573Y556210D01*
X819005D01*
X819332Y555679D01*
D02*
G37*
G36*
X1032314Y376050D02*
X1033665Y374699D01*
X1033675Y374650D01*
X1032988Y373380D01*
X1024840D01*
Y367110D01*
X1035000D01*
X1045160D01*
Y372206D01*
X1049959D01*
X1050210Y371040D01*
X1050210Y371040D01*
X1050210Y371040D01*
Y365270D01*
X1056000D01*
Y364000D01*
X1057270D01*
Y356960D01*
X1064230D01*
Y364000D01*
X1066770D01*
Y356960D01*
X1071290D01*
Y358230D01*
X1079520D01*
Y359555D01*
X1080790Y360069D01*
X1081045Y359963D01*
X1081557Y359451D01*
X1081750Y358985D01*
X1081750Y291171D01*
X1081670Y290978D01*
X1081477Y290898D01*
X1062176D01*
X1061709Y291091D01*
X1052410Y300390D01*
X1052410Y300390D01*
X1051443Y301357D01*
X1052011Y302729D01*
X1052317Y305050D01*
X1052011Y307371D01*
X1051115Y309533D01*
X1049690Y311390D01*
X1047833Y312815D01*
X1045671Y313711D01*
X1043350Y314017D01*
X1041029Y313711D01*
X1039657Y313143D01*
X1038690Y314110D01*
X1030797Y322003D01*
X1030780Y322020D01*
X1030700Y322100D01*
X1030728Y322360D01*
X1031454Y323314D01*
X1031511Y323370D01*
X1043890D01*
Y325796D01*
X1049872D01*
X1049921Y325722D01*
X1051334Y324778D01*
X1053000Y324446D01*
X1054666Y324778D01*
X1056078Y325722D01*
X1057022Y327134D01*
X1057354Y328800D01*
X1057022Y330466D01*
X1056078Y331879D01*
X1054666Y332822D01*
X1053979Y332959D01*
X1053631Y333191D01*
X1053387Y333240D01*
X1052160Y333484D01*
X1052160Y333484D01*
X1043890D01*
Y335910D01*
X1026110D01*
Y328771D01*
X1026054Y328714D01*
X1025100Y327988D01*
X1024840Y327960D01*
X1024743Y328057D01*
X1020832Y331968D01*
X1020832Y331968D01*
X1019000Y333800D01*
X1019000Y376050D01*
X1032314D01*
D02*
G37*
G36*
X909202Y586800D02*
X909634Y585530D01*
X908409Y584590D01*
X906984Y582733D01*
X906089Y580571D01*
X905783Y578250D01*
X906089Y575929D01*
X906984Y573767D01*
X908409Y571909D01*
X910266Y570485D01*
X912429Y569589D01*
X914750Y569283D01*
X917070Y569589D01*
X919233Y570485D01*
X921090Y571909D01*
X922515Y573767D01*
X923411Y575929D01*
X923717Y578250D01*
X923411Y580571D01*
X922515Y582733D01*
X921090Y584590D01*
X919866Y585530D01*
X920297Y586800D01*
X932627D01*
X933035Y585597D01*
X932904Y585496D01*
X931275Y583374D01*
X930251Y580902D01*
X930069Y579520D01*
X940150D01*
X950230D01*
X950048Y580902D01*
X949025Y583374D01*
X947396Y585496D01*
X947264Y585597D01*
X947673Y586800D01*
X972702D01*
X973134Y585530D01*
X971909Y584590D01*
X970484Y582733D01*
X969589Y580571D01*
X969283Y578250D01*
X969589Y575929D01*
X970484Y573767D01*
X971909Y571909D01*
X973766Y570485D01*
X975929Y569589D01*
X978250Y569283D01*
X980571Y569589D01*
X982733Y570485D01*
X984590Y571909D01*
X986015Y573767D01*
X986911Y575929D01*
X987216Y578250D01*
X986911Y580571D01*
X986015Y582733D01*
X984590Y584590D01*
X983366Y585530D01*
X983797Y586800D01*
X998102D01*
X998533Y585530D01*
X997309Y584590D01*
X995884Y582733D01*
X994989Y580571D01*
X994683Y578250D01*
X994989Y575929D01*
X995884Y573767D01*
X997309Y571909D01*
X999166Y570485D01*
X1001329Y569589D01*
X1003650Y569283D01*
X1005971Y569589D01*
X1008133Y570485D01*
X1009990Y571909D01*
X1011415Y573767D01*
X1012311Y575929D01*
X1012617Y578250D01*
X1012311Y580571D01*
X1011415Y582733D01*
X1009990Y584590D01*
X1008766Y585530D01*
X1009197Y586800D01*
X1023502Y586800D01*
X1023933Y585530D01*
X1022709Y584590D01*
X1021284Y582733D01*
X1020389Y580571D01*
X1020083Y578250D01*
X1020389Y575929D01*
X1021284Y573767D01*
X1022709Y571909D01*
X1024566Y570485D01*
X1026729Y569589D01*
X1029050Y569283D01*
X1031370Y569589D01*
X1033533Y570485D01*
X1035390Y571909D01*
X1036815Y573767D01*
X1037711Y575929D01*
X1038017Y578250D01*
X1037711Y580571D01*
X1036815Y582733D01*
X1035390Y584590D01*
X1034166Y585530D01*
X1034597Y586800D01*
X1048902D01*
X1049333Y585530D01*
X1048109Y584590D01*
X1046684Y582733D01*
X1045789Y580571D01*
X1045483Y578250D01*
X1045789Y575929D01*
X1046684Y573767D01*
X1048109Y571909D01*
X1049966Y570485D01*
X1052129Y569589D01*
X1054450Y569283D01*
X1056770Y569589D01*
X1058933Y570485D01*
X1060790Y571909D01*
X1062215Y573767D01*
X1063111Y575929D01*
X1063417Y578250D01*
X1063111Y580571D01*
X1062215Y582733D01*
X1060790Y584590D01*
X1059566Y585530D01*
X1059997Y586800D01*
X1074302D01*
X1074734Y585530D01*
X1073509Y584590D01*
X1072084Y582733D01*
X1071189Y580571D01*
X1070883Y578250D01*
X1071189Y575929D01*
X1072084Y573767D01*
X1073509Y571909D01*
X1075366Y570485D01*
X1077529Y569589D01*
X1079850Y569283D01*
X1082170Y569589D01*
X1084333Y570485D01*
X1086190Y571909D01*
X1087615Y573767D01*
X1088511Y575929D01*
X1088817Y578250D01*
X1088511Y580571D01*
X1087615Y582733D01*
X1086190Y584590D01*
X1084966Y585530D01*
X1085397Y586800D01*
X1099702Y586800D01*
X1100134Y585530D01*
X1098909Y584590D01*
X1097484Y582733D01*
X1096589Y580571D01*
X1096283Y578250D01*
X1096589Y575929D01*
X1097358Y574072D01*
X1081962Y558676D01*
X911414D01*
X910410Y558476D01*
X909558Y557907D01*
X900450Y548799D01*
X899348Y549142D01*
X899180Y549269D01*
Y553960D01*
X895907D01*
Y566412D01*
X895712Y567395D01*
X895155Y568228D01*
X888052Y575331D01*
X887218Y575888D01*
X886235Y576084D01*
X859492D01*
Y582404D01*
X846952D01*
Y564624D01*
X850652D01*
Y559820D01*
X847980D01*
Y550914D01*
X843183Y546117D01*
X842626Y545283D01*
X842431Y544300D01*
Y528970D01*
X836369D01*
Y531381D01*
X836879Y531722D01*
X837822Y533134D01*
X838154Y534800D01*
X837822Y536466D01*
X836879Y537879D01*
X835466Y538822D01*
X833800Y539154D01*
X832134Y538822D01*
X830722Y537879D01*
X829778Y536466D01*
X829446Y534800D01*
X829778Y533134D01*
X830722Y531722D01*
X831231Y531381D01*
Y528970D01*
X825089D01*
Y548478D01*
X825828Y548971D01*
X826772Y550384D01*
X827104Y552050D01*
X827047Y552336D01*
X828007Y553619D01*
X828980Y552710D01*
Y544280D01*
X838520D01*
Y559820D01*
X829642D01*
X828831Y560631D01*
X827991Y561193D01*
X827000Y561390D01*
X804500D01*
X803509Y561193D01*
X802669Y560631D01*
X777677Y535640D01*
X774628D01*
X774626Y535641D01*
X773624Y536538D01*
Y584706D01*
Y584706D01*
Y584706D01*
X773624Y585530D01*
X774446Y586692D01*
X774639Y586800D01*
X909202Y586800D01*
D02*
G37*
G36*
X771739Y587050D02*
X772250Y585902D01*
X772250Y585902D01*
X772250Y584706D01*
Y536538D01*
X772249Y536537D01*
X771352Y535640D01*
X691250D01*
X690259Y535443D01*
X689419Y534881D01*
X672068Y517531D01*
X671507Y516691D01*
X671310Y515700D01*
Y501692D01*
X665948Y496330D01*
X653448D01*
X652457Y496133D01*
X651617Y495571D01*
X648190Y492145D01*
X646990Y492110D01*
Y492110D01*
X646990Y492110D01*
X629210D01*
Y479570D01*
X633669D01*
X634318Y478300D01*
X633728Y477416D01*
X633396Y475750D01*
X633728Y474084D01*
X634671Y472671D01*
X634808Y472580D01*
X634423Y471310D01*
X633670D01*
Y468869D01*
X629470D01*
Y471068D01*
X613930D01*
Y468869D01*
X609670D01*
Y471070D01*
X594640D01*
Y483606D01*
X595491Y483775D01*
X595618Y483860D01*
X598808D01*
Y492090D01*
X598808Y492400D01*
Y492880D01*
Y493360D01*
X598808Y493670D01*
Y495040D01*
X600187D01*
X600228Y494834D01*
X601171Y493421D01*
X602584Y492478D01*
X604250Y492146D01*
X605916Y492478D01*
X607328Y493421D01*
X608272Y494834D01*
X608593Y496448D01*
X608816Y496598D01*
X609789Y497048D01*
X613264Y493574D01*
X612777Y492400D01*
X612272D01*
Y483860D01*
X624812D01*
Y492400D01*
X621044D01*
X620935Y492948D01*
X620373Y493789D01*
X613746Y500416D01*
X614232Y501590D01*
X617272D01*
Y505859D01*
X610883D01*
X609732Y505269D01*
X609380Y505522D01*
Y508210D01*
X609182Y509201D01*
X608621Y510041D01*
X603396Y515266D01*
X603882Y516440D01*
X605620D01*
Y522740D01*
X609920D01*
Y517560D01*
X619460D01*
Y522740D01*
X620580D01*
X621571Y522937D01*
X622411Y523499D01*
X625331Y526419D01*
X625892Y527259D01*
X626090Y528250D01*
Y540927D01*
X627747Y542584D01*
X628920Y542098D01*
Y539560D01*
X638460D01*
Y555100D01*
X628920D01*
Y549920D01*
X628830D01*
X627839Y549723D01*
X626998Y549161D01*
X621669Y543831D01*
X621107Y542991D01*
X620910Y542000D01*
Y530443D01*
X620730Y530322D01*
X619460Y531001D01*
Y533100D01*
X609920D01*
Y527920D01*
X605620D01*
Y534220D01*
X593080D01*
Y516440D01*
X596760D01*
Y515650D01*
X596957Y514659D01*
X597519Y513818D01*
X598668Y512669D01*
X598142Y511399D01*
X586513D01*
X582742Y515170D01*
X583268Y516440D01*
X585300D01*
Y534220D01*
X581530D01*
Y539210D01*
X585210D01*
Y556990D01*
X572670D01*
Y539210D01*
X576350D01*
Y534220D01*
X572760D01*
Y532790D01*
X566470D01*
Y534970D01*
X560602D01*
X560416Y536228D01*
X561828Y537171D01*
X562772Y538584D01*
X563103Y540250D01*
X562772Y541916D01*
X561941Y543160D01*
X562133Y543854D01*
X562466Y544430D01*
X566470D01*
Y553970D01*
X550930D01*
Y544430D01*
X555034D01*
X555367Y543854D01*
X555559Y543160D01*
X554728Y541916D01*
X554396Y540250D01*
X554728Y538584D01*
X555671Y537171D01*
X557084Y536228D01*
X556897Y534970D01*
X550930D01*
Y532790D01*
X545700D01*
X544709Y532593D01*
X543868Y532031D01*
X543275Y531437D01*
X542938Y531436D01*
X541802Y532512D01*
X541710Y585780D01*
X542605Y587048D01*
X542607Y587050D01*
X771739Y587050D01*
D02*
G37*
G36*
X755922Y401222D02*
X757334Y400278D01*
X759000Y399946D01*
X760666Y400278D01*
X761390Y400762D01*
X762660Y400083D01*
Y389370D01*
X753730D01*
Y384189D01*
X752481D01*
X752154Y384678D01*
X750742Y385622D01*
X749076Y385953D01*
X747410Y385622D01*
X746810Y385221D01*
X745540Y385900D01*
Y388585D01*
X746244Y389056D01*
X747469Y390888D01*
X747646Y391780D01*
X742250D01*
Y394320D01*
X747646D01*
X747469Y395212D01*
X746341Y396900D01*
X746672Y398170D01*
X754410D01*
Y401198D01*
X755680Y401583D01*
X755922Y401222D01*
D02*
G37*
G36*
X818690Y440281D02*
Y437810D01*
X830649D01*
X830766Y437746D01*
X831626Y436704D01*
X831396Y435550D01*
X831728Y433884D01*
X832672Y432472D01*
X834084Y431528D01*
X834488Y431448D01*
Y430153D01*
X834084Y430073D01*
X832672Y429129D01*
X832312Y428590D01*
X824020D01*
Y419550D01*
X821480D01*
Y428590D01*
X814770D01*
Y438157D01*
X817420Y440807D01*
X818690Y440281D01*
D02*
G37*
G36*
X772250Y508480D02*
X771115Y507382D01*
X770778Y507384D01*
X768731Y509431D01*
X767891Y509992D01*
X766900Y510190D01*
X763270D01*
Y515370D01*
X753730D01*
Y510066D01*
X753359Y509992D01*
X752518Y509431D01*
X747244Y504157D01*
X746810Y503506D01*
X746004Y503555D01*
X745540Y503718D01*
Y506330D01*
X740770D01*
Y498560D01*
X745216D01*
X745540Y498560D01*
X746486Y497778D01*
Y473854D01*
X743742D01*
Y462170D01*
X754410D01*
Y463200D01*
X755680Y463832D01*
X756584Y463228D01*
X758250Y462896D01*
X759916Y463228D01*
X761329Y464171D01*
X761390Y464264D01*
X762660Y463879D01*
Y455370D01*
X753730D01*
Y450190D01*
X752100D01*
X751108Y449992D01*
X750268Y449431D01*
X747244Y446407D01*
X746810Y445756D01*
X746004Y445805D01*
X745540Y445968D01*
Y446330D01*
X740770D01*
Y438560D01*
X745216D01*
X745540Y438560D01*
X745679Y438444D01*
X745921Y437078D01*
X744977Y435666D01*
X744646Y434000D01*
X744843Y433011D01*
X744868Y431831D01*
X744710Y431600D01*
X744703Y431589D01*
X744642Y431500D01*
X744615Y431460D01*
X744386Y431125D01*
X744369Y431099D01*
X744345Y431065D01*
X744345Y431064D01*
X744321Y431030D01*
X744321D01*
X744224D01*
X744156Y431030D01*
X743765Y431030D01*
X743765Y431030D01*
X743758Y431030D01*
X734090D01*
Y419346D01*
X736854D01*
Y418035D01*
X736171Y417578D01*
X735228Y416166D01*
X734896Y414500D01*
X735228Y412834D01*
X736171Y411421D01*
X737584Y410478D01*
X739250Y410146D01*
X740916Y410478D01*
X742328Y411421D01*
X743272Y412834D01*
X743603Y414500D01*
X743272Y416166D01*
X742328Y417578D01*
X741993Y417802D01*
Y419346D01*
X744758D01*
Y429427D01*
X745636Y430155D01*
X746028Y430199D01*
X746486Y429734D01*
Y409854D01*
X743742D01*
Y406601D01*
X742712D01*
X741721Y406404D01*
X740881Y405843D01*
X729596Y394558D01*
X728731Y394913D01*
X728381Y395139D01*
X727969Y397212D01*
X726744Y399044D01*
X724912Y400269D01*
X724020Y400446D01*
Y395050D01*
X722750D01*
Y393780D01*
X717354D01*
X717532Y392888D01*
X718186Y391910D01*
X717507Y390640D01*
X716460D01*
Y382870D01*
X722500D01*
Y381600D01*
X723770D01*
Y372560D01*
X728410D01*
Y366092D01*
X727910Y365030D01*
X727140Y365030D01*
X717242D01*
Y353346D01*
X719986D01*
Y351539D01*
X719671Y351328D01*
X718727Y349916D01*
X718396Y348250D01*
X718727Y346584D01*
X719671Y345171D01*
X721084Y344228D01*
X722750Y343896D01*
X724416Y344228D01*
X725828Y345171D01*
X726772Y346584D01*
X727103Y348250D01*
X726772Y349916D01*
X725828Y351328D01*
X725714Y351405D01*
X725599Y352881D01*
X726064Y353346D01*
X727140D01*
X727910Y353346D01*
X728410Y352283D01*
Y352283D01*
Y321898D01*
X727512Y321000D01*
X725753D01*
X725753D01*
X712773D01*
X712306Y321193D01*
X704193Y329307D01*
X704000Y329773D01*
Y331374D01*
X704000Y331374D01*
X704000Y331374D01*
Y331374D01*
Y344996D01*
X705166Y345228D01*
X706578Y346171D01*
X707522Y347584D01*
X707853Y349250D01*
X707522Y350916D01*
X706747Y352076D01*
X707046Y352980D01*
X707310Y353346D01*
X708758D01*
Y365030D01*
X704000D01*
Y372560D01*
X704897Y373829D01*
X704898Y373830D01*
X707594D01*
X708270Y373830D01*
X708984Y372856D01*
X709053Y372508D01*
X709997Y371095D01*
X710486Y370769D01*
Y343854D01*
X707742D01*
Y332170D01*
X718410D01*
Y343854D01*
X715666D01*
Y370769D01*
X716154Y371095D01*
X717098Y372508D01*
X717108Y372560D01*
X721230D01*
Y380330D01*
X716460D01*
Y378576D01*
X715190Y377897D01*
X714742Y378196D01*
X713076Y378527D01*
X712499Y378413D01*
X708270Y382642D01*
Y389370D01*
X704000D01*
Y397713D01*
X704000Y398925D01*
Y398925D01*
Y398925D01*
Y399049D01*
Y399750D01*
X703978Y399772D01*
X703934Y399816D01*
X703912Y400114D01*
X704011Y401127D01*
X704078Y401171D01*
X704259Y401442D01*
X707742D01*
Y398170D01*
X716760D01*
X717469Y396900D01*
X717354Y396320D01*
X721480D01*
Y400446D01*
X720588Y400269D01*
X719680Y399661D01*
X718410Y400340D01*
Y409854D01*
X707742D01*
Y406581D01*
X704577D01*
X704078Y407328D01*
X702666Y408272D01*
X701000Y408604D01*
X700501Y409479D01*
X701486Y410022D01*
X701730Y410046D01*
X703250Y409744D01*
X704916Y410076D01*
X706328Y411019D01*
X707272Y412432D01*
X707603Y414098D01*
X707272Y415764D01*
X706328Y417176D01*
X705993Y417400D01*
Y419346D01*
X708758D01*
Y431030D01*
X699389D01*
Y436505D01*
X702713Y439830D01*
X708270D01*
Y455370D01*
X698730D01*
Y443114D01*
X696110Y440494D01*
X694840Y441020D01*
Y447811D01*
X695828Y448472D01*
X696772Y449884D01*
X697104Y451550D01*
X696772Y453216D01*
X695828Y454628D01*
X694416Y455572D01*
X692750Y455904D01*
X691084Y455572D01*
X689671Y454628D01*
X688728Y453216D01*
X688396Y451550D01*
X688728Y449884D01*
X689660Y448488D01*
Y446748D01*
X688390Y446623D01*
X688272Y447216D01*
X687328Y448629D01*
X686840Y448955D01*
Y464330D01*
X690770D01*
Y471473D01*
X692040Y471598D01*
X692107Y471259D01*
X692669Y470419D01*
X697669Y465419D01*
X698509Y464857D01*
X699500Y464660D01*
X699845D01*
X700171Y464171D01*
X701584Y463228D01*
X703250Y462896D01*
X704916Y463228D01*
X706328Y464171D01*
X706472Y464386D01*
X707742Y464001D01*
Y462170D01*
X718410D01*
Y473854D01*
X707742D01*
Y470581D01*
X705950D01*
X704916Y471272D01*
X703250Y471604D01*
X701584Y471272D01*
X700171Y470328D01*
X700092Y470321D01*
X697089Y473323D01*
Y481593D01*
X698360Y482613D01*
X698925Y482489D01*
X699160Y482076D01*
X698896Y480750D01*
X699228Y479084D01*
X700171Y477671D01*
X701584Y476728D01*
X703250Y476396D01*
X704916Y476728D01*
X706328Y477671D01*
X707272Y479084D01*
X707603Y480750D01*
X707340Y482076D01*
X708062Y483346D01*
X708758D01*
Y495030D01*
X698360D01*
X698090Y495030D01*
X697089Y495681D01*
Y497677D01*
X699242Y499830D01*
X708270D01*
Y515370D01*
X698730D01*
Y506642D01*
X692669Y500581D01*
X692107Y499741D01*
X691910Y498750D01*
Y493183D01*
X691910D01*
X690770Y492870D01*
X690640Y492870D01*
X685590D01*
Y495428D01*
X686328Y495921D01*
X687272Y497334D01*
X687603Y499000D01*
X687272Y500666D01*
X686328Y502078D01*
X684916Y503022D01*
X683250Y503354D01*
X681584Y503022D01*
X681420Y502912D01*
X680300Y503511D01*
Y506187D01*
X681174Y507061D01*
X681750Y506946D01*
X683416Y507278D01*
X684828Y508222D01*
X685772Y509634D01*
X686104Y511300D01*
X685772Y512966D01*
X684828Y514379D01*
X683416Y515322D01*
X681750Y515654D01*
X680084Y515322D01*
X678672Y514379D01*
X677759Y513014D01*
X677664Y512994D01*
X676489Y513277D01*
Y514627D01*
X692323Y530460D01*
X772250D01*
Y508480D01*
D02*
G37*
G36*
X1165193Y394807D02*
X1170000Y390000D01*
Y351000D01*
X1154000Y335000D01*
X1085273D01*
X1084921Y335146D01*
X1084883D01*
X1084855Y335171D01*
X1084830Y335170D01*
X1083125Y336875D01*
Y358985D01*
X1083020Y359237D01*
Y359511D01*
X1082827Y359977D01*
X1082633Y360171D01*
X1082529Y360423D01*
X1082017Y360935D01*
X1081765Y361040D01*
X1081571Y361233D01*
X1081316Y361339D01*
X1080795D01*
X1080275Y361343D01*
X1079520Y361852D01*
Y369770D01*
X1070480D01*
X1070000Y370841D01*
Y376000D01*
X1087730D01*
Y374730D01*
X1106270D01*
Y376000D01*
X1142000D01*
X1143267Y377267D01*
X1143733Y377460D01*
X1153730D01*
Y384000D01*
Y390540D01*
X1144256D01*
X1144083Y390614D01*
X1144076Y390630D01*
X1144076Y390631D01*
Y390631D01*
X1144000Y390813D01*
Y391727D01*
X1144193Y392193D01*
X1146807Y394807D01*
X1147273Y395000D01*
X1164727D01*
X1165193Y394807D01*
D02*
G37*
G36*
X539336Y586800D02*
X539589Y586662D01*
X540336Y585778D01*
X540427Y532510D01*
X540434Y532492D01*
X540428Y532475D01*
X540635Y532010D01*
X540831Y531539D01*
X540849Y531531D01*
X540856Y531514D01*
X541215Y531174D01*
X541288Y529451D01*
X537169Y525331D01*
X536607Y524491D01*
X536410Y523500D01*
Y496185D01*
X535140Y495506D01*
X534666Y495822D01*
X533000Y496154D01*
X531334Y495822D01*
X530670Y495378D01*
X529399Y496057D01*
Y527440D01*
X529202Y528431D01*
X528641Y529271D01*
X523931Y533981D01*
X523091Y534543D01*
X522100Y534740D01*
X518405D01*
X518078Y535228D01*
X516666Y536172D01*
X515000Y536503D01*
X499000D01*
X497334Y536172D01*
X495921Y535228D01*
X494977Y533816D01*
X494646Y532150D01*
X494977Y530484D01*
X495921Y529071D01*
X497334Y528128D01*
X499000Y527796D01*
X515000D01*
X516666Y528128D01*
X518078Y529071D01*
X518405Y529560D01*
X521027D01*
X524220Y526367D01*
Y502102D01*
X523047Y501615D01*
X510836Y513826D01*
X511362Y515096D01*
X515000D01*
X516666Y515428D01*
X518078Y516371D01*
X519022Y517784D01*
X519353Y519450D01*
X519022Y521116D01*
X518078Y522528D01*
X516666Y523472D01*
X515000Y523803D01*
X499000D01*
X497334Y523472D01*
X495921Y522528D01*
X494977Y521116D01*
X494646Y519450D01*
X494977Y517784D01*
X495921Y516371D01*
X497334Y515428D01*
X499000Y515096D01*
X504410D01*
Y514000D01*
X504607Y513009D01*
X505168Y512169D01*
X520410Y496927D01*
Y477724D01*
X520607Y476732D01*
X521169Y475892D01*
X530160Y466901D01*
Y424023D01*
X529612Y422980D01*
X528890Y422980D01*
X514072D01*
Y421300D01*
X511273D01*
Y425980D01*
X492733D01*
Y421300D01*
X488273D01*
Y423480D01*
X485203D01*
X484727Y424427D01*
X485080Y425021D01*
X485919Y425188D01*
X487331Y426132D01*
X488275Y427544D01*
X488606Y429210D01*
X488275Y430876D01*
X487331Y432289D01*
X485919Y433232D01*
X484253Y433564D01*
X482587Y433232D01*
X481174Y432289D01*
X480230Y430876D01*
X479899Y429210D01*
X480014Y428633D01*
X478671Y427291D01*
X478110Y426451D01*
X477913Y425460D01*
Y423480D01*
X472733D01*
Y421300D01*
X470272D01*
Y425482D01*
X461732D01*
Y425482D01*
X460773D01*
Y425482D01*
X459092D01*
Y428305D01*
X459581Y428632D01*
X460462Y429951D01*
X460555Y429962D01*
X461732Y429190D01*
Y429190D01*
X471273D01*
Y434370D01*
X473515D01*
X473674Y434132D01*
X475087Y433188D01*
X476753Y432856D01*
X478419Y433188D01*
X479831Y434132D01*
X480775Y435544D01*
X481106Y437210D01*
X480775Y438876D01*
X479831Y440289D01*
X478419Y441232D01*
X476753Y441564D01*
X475087Y441232D01*
X473674Y440289D01*
X473181Y439550D01*
X471273D01*
Y444730D01*
X461732D01*
Y434232D01*
X460555Y433458D01*
X460462Y433469D01*
X459581Y434789D01*
X458169Y435732D01*
X456502Y436064D01*
X454837Y435732D01*
X453543Y434868D01*
X452983Y435004D01*
X452272Y435351D01*
Y444730D01*
X442733D01*
Y429190D01*
X444413D01*
Y425482D01*
X442733D01*
Y421802D01*
X427772D01*
Y431230D01*
X425590D01*
Y441690D01*
X437523D01*
Y457230D01*
X418983D01*
Y450712D01*
X403662D01*
Y453964D01*
X392995D01*
X392840Y455170D01*
Y463456D01*
X394011D01*
Y475140D01*
X383343D01*
Y471710D01*
X377643D01*
Y475390D01*
X371342D01*
Y496763D01*
X371416Y496778D01*
X372828Y497722D01*
X373772Y499134D01*
X374104Y500800D01*
X373772Y502466D01*
X372828Y503879D01*
X371416Y504822D01*
X369750Y505154D01*
X368084Y504822D01*
X366672Y503879D01*
X365728Y502466D01*
X365396Y500800D01*
X365728Y499134D01*
X366163Y498483D01*
Y475390D01*
X359863D01*
Y462850D01*
X377643D01*
Y466530D01*
X383343D01*
Y463456D01*
X387660D01*
Y451087D01*
X386390Y450701D01*
X385831Y451539D01*
X384419Y452482D01*
X382752Y452814D01*
X381087Y452482D01*
X379674Y451539D01*
X379575Y451390D01*
X377643D01*
Y455070D01*
X359863D01*
Y442530D01*
X377643D01*
Y446210D01*
X379120D01*
X379674Y445382D01*
X381087Y444438D01*
X382752Y444106D01*
X384419Y444438D01*
X385831Y445382D01*
X386390Y446218D01*
X387660Y445833D01*
Y443050D01*
X387857Y442059D01*
X388419Y441219D01*
X392669Y436969D01*
X393509Y436407D01*
X394500Y436210D01*
X395454D01*
X395503Y434960D01*
X395503Y434960D01*
X395503Y434960D01*
Y432704D01*
X394232Y432178D01*
X390601Y435809D01*
X389035Y437011D01*
X388452Y437253D01*
Y438960D01*
X365452D01*
Y438923D01*
X364660Y438025D01*
X362702Y437767D01*
X360878Y437011D01*
X359311Y435809D01*
X359311Y435809D01*
X352201Y428699D01*
X350999Y427132D01*
X350778Y426598D01*
X350243Y425308D01*
X349985Y423350D01*
Y317670D01*
X344930D01*
Y292430D01*
X370170D01*
Y317670D01*
X365115D01*
Y370101D01*
X365503Y371210D01*
X369438D01*
Y340048D01*
X369696Y338090D01*
X370451Y336265D01*
X371653Y334698D01*
X396627Y309725D01*
X396055Y308344D01*
X395621Y305050D01*
X396055Y301756D01*
X397327Y298686D01*
X399349Y296049D01*
X401986Y294027D01*
X405056Y292755D01*
X408350Y292321D01*
X411645Y292755D01*
X414715Y294027D01*
X417351Y296049D01*
X419374Y298686D01*
X420645Y301756D01*
X421079Y305050D01*
X420645Y308344D01*
X419374Y311415D01*
X417351Y314051D01*
X414715Y316074D01*
X411645Y317345D01*
X410215Y317533D01*
X384567Y343181D01*
Y371210D01*
X388503D01*
Y372835D01*
X388750Y372937D01*
X389285Y373159D01*
X390852Y374361D01*
X394329Y377839D01*
X395503Y377352D01*
Y375210D01*
X411910D01*
Y355246D01*
X412107Y354255D01*
X412669Y353415D01*
X426245Y339840D01*
Y333030D01*
X436912D01*
Y344714D01*
X428695D01*
X420376Y353033D01*
X420862Y354206D01*
X427261D01*
Y365890D01*
X424592D01*
Y378940D01*
X427772D01*
Y384120D01*
X432753D01*
X433744Y384317D01*
X434584Y384879D01*
X440323Y390618D01*
X442733D01*
Y386938D01*
X451273D01*
Y399478D01*
X450462D01*
X449953Y400748D01*
X454325Y405120D01*
X471728D01*
X472733Y404480D01*
Y400940D01*
X471542Y400748D01*
X471463Y400748D01*
X467272D01*
Y394478D01*
X471542D01*
Y394748D01*
X471542D01*
X472733Y394940D01*
X472812Y394940D01*
X488273D01*
Y396620D01*
X492733D01*
Y391440D01*
X509953D01*
Y348551D01*
X509228Y347466D01*
X508896Y345800D01*
X509228Y344134D01*
X510172Y342722D01*
X511584Y341778D01*
X513250Y341446D01*
X514916Y341778D01*
X516329Y342722D01*
X517272Y344134D01*
X517604Y345800D01*
X517272Y347466D01*
X516329Y348879D01*
X515132Y349678D01*
Y394440D01*
X519502D01*
Y391948D01*
X519264Y391788D01*
X518320Y390376D01*
X517989Y388710D01*
X518320Y387044D01*
X519264Y385631D01*
X520676Y384688D01*
X522342Y384356D01*
X524008Y384688D01*
X525421Y385631D01*
X526365Y387044D01*
X526696Y388710D01*
X526365Y390376D01*
X525421Y391788D01*
X524682Y392282D01*
Y393542D01*
X525580Y394440D01*
X528890D01*
X529612Y394440D01*
X530160Y393397D01*
Y393397D01*
Y350073D01*
X496918Y316831D01*
X496357Y315991D01*
X496160Y315000D01*
Y278905D01*
X495671Y278578D01*
X494728Y277166D01*
X494396Y275500D01*
X494728Y273834D01*
X495671Y272421D01*
X497084Y271478D01*
X498750Y271146D01*
X500416Y271478D01*
X501828Y272421D01*
X502772Y273834D01*
X503103Y275500D01*
X502772Y277166D01*
X501828Y278578D01*
X501339Y278905D01*
Y299582D01*
X502609Y300013D01*
X503610Y298710D01*
X505467Y297285D01*
X507629Y296389D01*
X509950Y296083D01*
X512271Y296389D01*
X514433Y297285D01*
X516291Y298710D01*
X517715Y300567D01*
X518611Y302729D01*
X518917Y305050D01*
X518611Y307371D01*
X517715Y309533D01*
X516291Y311390D01*
X514433Y312815D01*
X512271Y313711D01*
X509950Y314017D01*
X507629Y313711D01*
X505467Y312815D01*
X503610Y311390D01*
X502609Y310087D01*
X501339Y310518D01*
Y313927D01*
X521427Y334015D01*
X522600Y333529D01*
Y282810D01*
X522797Y281819D01*
X523037Y281460D01*
X522896Y280750D01*
X523228Y279084D01*
X524171Y277671D01*
X525584Y276728D01*
X527250Y276396D01*
X528916Y276728D01*
X530328Y277671D01*
X531272Y279084D01*
X531603Y280750D01*
X531272Y282416D01*
X530328Y283828D01*
X528916Y284772D01*
X527780Y284998D01*
Y298337D01*
X528588Y298611D01*
X529050Y298679D01*
X530867Y297285D01*
X533029Y296389D01*
X535350Y296083D01*
X537671Y296389D01*
X539833Y297285D01*
X541690Y298710D01*
X543115Y300567D01*
X544011Y302729D01*
X544317Y305050D01*
X544011Y307371D01*
X543115Y309533D01*
X542907Y309805D01*
X542960Y310070D01*
Y469218D01*
X544133Y469704D01*
X549169Y464669D01*
X550009Y464107D01*
X551000Y463910D01*
X554830D01*
Y461730D01*
X570370D01*
Y463910D01*
X574030D01*
Y461530D01*
X589460D01*
Y460155D01*
X588972Y459828D01*
X588028Y458416D01*
X587697Y456750D01*
X588028Y455084D01*
X588972Y453671D01*
X589468Y453340D01*
X589083Y452070D01*
X574030D01*
Y443163D01*
X562643Y431776D01*
X561469Y432262D01*
Y435386D01*
X564417Y438333D01*
X564974Y439167D01*
X565169Y440150D01*
Y442730D01*
X570370D01*
Y452270D01*
X554830D01*
Y442730D01*
X560031D01*
Y441214D01*
X557083Y438267D01*
X556526Y437433D01*
X556330Y436450D01*
Y344424D01*
X553773Y341867D01*
X553216Y341033D01*
X553021Y340050D01*
Y335128D01*
X552964Y335087D01*
X551694Y335726D01*
Y395645D01*
X552183Y395971D01*
X553127Y397384D01*
X553458Y399050D01*
X553127Y400716D01*
X552183Y402128D01*
X550770Y403072D01*
X549104Y403404D01*
X547438Y403072D01*
X546026Y402128D01*
X545082Y400716D01*
X544751Y399050D01*
X545082Y397384D01*
X546026Y395971D01*
X546515Y395645D01*
Y315696D01*
X546712Y314705D01*
X547273Y313864D01*
X551860Y309278D01*
Y296160D01*
X569640D01*
Y313940D01*
X554523D01*
X551694Y316768D01*
Y327897D01*
X552964Y328282D01*
X553172Y327972D01*
X554584Y327028D01*
X556250Y326696D01*
X557916Y327028D01*
X559328Y327972D01*
X560272Y329384D01*
X560604Y331050D01*
X560272Y332716D01*
X559328Y334128D01*
X558159Y334910D01*
Y336302D01*
X559429Y336688D01*
X559672Y336325D01*
X561084Y335381D01*
X562750Y335050D01*
X564416Y335381D01*
X565829Y336325D01*
X566772Y337738D01*
X567104Y339404D01*
X566772Y341070D01*
X565829Y342482D01*
X565239Y342876D01*
Y366688D01*
X566413Y367175D01*
X567918Y365669D01*
X568759Y365107D01*
X569230Y365014D01*
Y362730D01*
X574410D01*
Y358970D01*
X569230D01*
Y349430D01*
X584770D01*
Y358970D01*
X579590D01*
Y362730D01*
X584770D01*
Y364910D01*
X591880D01*
Y362228D01*
X600410D01*
Y359020D01*
X592330D01*
Y349480D01*
X607870D01*
Y349809D01*
X609140Y350409D01*
X610084Y349778D01*
X611750Y349446D01*
X613416Y349778D01*
X614160Y350275D01*
X615430Y349596D01*
Y349430D01*
X630970D01*
Y358970D01*
X615430D01*
Y358004D01*
X614160Y357325D01*
X613416Y357822D01*
X611750Y358154D01*
X610084Y357822D01*
X609140Y357191D01*
X607870Y357791D01*
Y359020D01*
X605590D01*
Y376000D01*
X605392Y376991D01*
X604831Y377831D01*
X602110Y380552D01*
X602920Y381539D01*
X603984Y380827D01*
X605650Y380496D01*
X607316Y380827D01*
X608728Y381771D01*
X609672Y383184D01*
X610004Y384850D01*
X609672Y386516D01*
X609374Y386962D01*
X609920Y388232D01*
X610880D01*
Y388232D01*
X619420D01*
Y400772D01*
X617739D01*
Y403200D01*
Y405230D01*
X619920D01*
Y410410D01*
X622845D01*
X623171Y409921D01*
X624584Y408978D01*
X626250Y408646D01*
X627916Y408978D01*
X629328Y409921D01*
X630272Y411334D01*
X630603Y413000D01*
X630272Y414666D01*
X629328Y416078D01*
X627916Y417022D01*
X626250Y417354D01*
X624584Y417022D01*
X623171Y416078D01*
X622845Y415590D01*
X619920D01*
Y420770D01*
X610380D01*
Y415668D01*
X609110Y415283D01*
X608578Y416078D01*
X607166Y417022D01*
X605500Y417354D01*
X603834Y417022D01*
X602422Y416078D01*
X601128Y416406D01*
X600920Y416608D01*
Y420770D01*
X591380D01*
Y405790D01*
X586270D01*
Y410970D01*
X569050D01*
Y414430D01*
X586270D01*
Y419610D01*
X586950D01*
X587941Y419807D01*
X588781Y420369D01*
X593323Y424910D01*
X630763D01*
X633770Y421903D01*
Y414390D01*
X644890D01*
X645454Y414390D01*
X646160Y413413D01*
X646160Y413413D01*
Y403819D01*
X644429Y402087D01*
X643867Y401247D01*
X643670Y400256D01*
Y399086D01*
X642790Y398180D01*
X642400Y398180D01*
X637794D01*
X637494Y398616D01*
X637231Y399450D01*
X638022Y400634D01*
X638354Y402300D01*
X638022Y403966D01*
X637079Y405378D01*
X635666Y406322D01*
X634000Y406654D01*
X632334Y406322D01*
X630922Y405378D01*
X629978Y403966D01*
X629646Y402300D01*
X629978Y400634D01*
X630769Y399450D01*
X630506Y398616D01*
X630206Y398180D01*
X625010D01*
Y385640D01*
X642400D01*
X642790Y385640D01*
X643670Y384735D01*
X643670Y384735D01*
Y379130D01*
X635170D01*
Y371590D01*
Y364050D01*
X642291D01*
X642818Y362780D01*
X633419Y353381D01*
X632857Y352541D01*
X632660Y351550D01*
Y329858D01*
X632857Y328867D01*
X633419Y328026D01*
X653802Y307643D01*
X653689Y307371D01*
X653383Y305050D01*
X653689Y302729D01*
X654585Y300567D01*
X656010Y298710D01*
X657867Y297285D01*
X660029Y296389D01*
X662350Y296083D01*
X664671Y296389D01*
X666833Y297285D01*
X668690Y298710D01*
X670115Y300567D01*
X671011Y302729D01*
X671317Y305050D01*
X671011Y307371D01*
X670115Y309533D01*
X668690Y311390D01*
X666833Y312815D01*
X664671Y313711D01*
X662350Y314017D01*
X660029Y313711D01*
X657867Y312815D01*
X656785Y311985D01*
X643074Y325697D01*
X643560Y326870D01*
X649958D01*
Y338554D01*
X647724D01*
X647347Y339824D01*
X648022Y340834D01*
X648354Y342500D01*
X648022Y344166D01*
X647078Y345578D01*
X645666Y346522D01*
X644000Y346853D01*
X642334Y346522D01*
X640921Y345578D01*
X639978Y344166D01*
X639646Y342500D01*
X639978Y340834D01*
X640652Y339824D01*
X640122Y338588D01*
X640090Y338554D01*
X639290D01*
Y332472D01*
X638020Y331793D01*
X637840Y331914D01*
Y350477D01*
X647822Y360460D01*
X648790Y359631D01*
Y348046D01*
X651534D01*
Y345675D01*
X651228Y345216D01*
X650896Y343550D01*
X651228Y341884D01*
X652171Y340472D01*
X653584Y339528D01*
X655250Y339196D01*
X656916Y339528D01*
X658328Y340472D01*
X659272Y341884D01*
X659604Y343550D01*
X659272Y345216D01*
X658328Y346628D01*
X658108Y346776D01*
X658493Y348046D01*
X659458D01*
Y359730D01*
X656714D01*
Y363548D01*
X657612Y364446D01*
X666070D01*
X666610Y363400D01*
Y357773D01*
X661945Y353107D01*
X661383Y352267D01*
X661186Y351276D01*
Y338554D01*
X658442D01*
Y326870D01*
X669110D01*
Y338554D01*
X666366D01*
Y350203D01*
X671031Y354869D01*
X671593Y355709D01*
X671790Y356700D01*
Y364011D01*
X671860Y365252D01*
X689640D01*
Y366450D01*
X690047Y366734D01*
X690910Y367012D01*
X692084Y366228D01*
X693750Y365896D01*
X695416Y366228D01*
X696828Y367171D01*
X697772Y368584D01*
X698103Y370250D01*
X697772Y371916D01*
X696828Y373328D01*
X695416Y374272D01*
X693750Y374604D01*
X692084Y374272D01*
X690910Y373488D01*
X690047Y373766D01*
X689640Y374050D01*
Y377792D01*
X676131D01*
X675452Y379062D01*
X675551Y379210D01*
X677200D01*
X678191Y379407D01*
X679031Y379969D01*
X682581Y383518D01*
X683142Y384359D01*
X683339Y385350D01*
Y385572D01*
X689640D01*
Y398112D01*
X683339D01*
Y398750D01*
X683142Y399741D01*
X682581Y400582D01*
X676506Y406656D01*
X676992Y407830D01*
X690770D01*
Y410153D01*
X691041Y410207D01*
X691881Y410769D01*
X692980Y411867D01*
X694250Y411341D01*
Y408931D01*
X694445Y407947D01*
X695002Y407114D01*
X696849Y405267D01*
X696646Y404250D01*
X696977Y402584D01*
X697921Y401171D01*
X699334Y400228D01*
X701000Y399896D01*
X701286Y399953D01*
X701661Y399883D01*
X702554Y399111D01*
X702625Y398925D01*
Y398925D01*
X702625Y397713D01*
Y397713D01*
Y397713D01*
Y389370D01*
X698730D01*
Y373830D01*
X701777D01*
X702181Y373475D01*
X702625Y372560D01*
Y365030D01*
X698090D01*
Y353346D01*
X699690D01*
X699953Y352980D01*
X700252Y352076D01*
X699477Y350916D01*
X699146Y349250D01*
X699477Y347584D01*
X700421Y346171D01*
X701834Y345228D01*
X702580Y345079D01*
X702625Y344996D01*
Y336726D01*
X701355Y336340D01*
X700828Y337128D01*
X699416Y338072D01*
X697750Y338404D01*
X696084Y338072D01*
X694672Y337128D01*
X694378Y336689D01*
X690770D01*
Y338870D01*
X685292D01*
X684907Y340140D01*
X685328Y340421D01*
X686272Y341834D01*
X686603Y343500D01*
X686272Y345166D01*
X685328Y346578D01*
X684839Y346905D01*
Y348330D01*
X690770D01*
Y357870D01*
X675230D01*
Y348330D01*
X679660D01*
Y346905D01*
X679171Y346578D01*
X678227Y345166D01*
X677896Y343500D01*
X678227Y341834D01*
X679171Y340421D01*
X679593Y340140D01*
X679208Y338870D01*
X675230D01*
Y329330D01*
X683279D01*
X683957Y328060D01*
X683728Y327716D01*
X683396Y326050D01*
X683728Y324384D01*
X684672Y322972D01*
X685160Y322645D01*
Y313600D01*
X683267Y312815D01*
X681410Y311390D01*
X679985Y309533D01*
X679089Y307371D01*
X678783Y305050D01*
X679089Y302729D01*
X679985Y300567D01*
X681410Y298710D01*
X683267Y297285D01*
X685429Y296389D01*
X687750Y296083D01*
X690071Y296389D01*
X692233Y297285D01*
X694090Y298710D01*
X695515Y300567D01*
X696411Y302729D01*
X696717Y305050D01*
X696411Y307371D01*
X695515Y309533D01*
X694090Y311390D01*
X692233Y312815D01*
X690340Y313600D01*
Y322645D01*
X690828Y322972D01*
X691772Y324384D01*
X692104Y326050D01*
X691772Y327716D01*
X691375Y328311D01*
X690770Y329330D01*
X690770D01*
Y331510D01*
X694312D01*
X694672Y330972D01*
X696084Y330028D01*
X697750Y329696D01*
X699416Y330028D01*
X700828Y330972D01*
X701355Y331760D01*
X701452Y331730D01*
X702625Y331374D01*
Y329773D01*
X702730Y329521D01*
Y329247D01*
X702923Y328781D01*
X703116Y328587D01*
X703221Y328335D01*
X711334Y320221D01*
X711587Y320117D01*
X711780Y319923D01*
X712247Y319730D01*
X712521D01*
X712773Y319625D01*
X725753D01*
X726239Y318452D01*
X719314Y311526D01*
X717633Y312815D01*
X715471Y313711D01*
X713150Y314017D01*
X710829Y313711D01*
X708667Y312815D01*
X706810Y311390D01*
X705385Y309533D01*
X704489Y307371D01*
X704183Y305050D01*
X704489Y302729D01*
X705385Y300567D01*
X706810Y298710D01*
X708667Y297285D01*
X710829Y296389D01*
X713150Y296083D01*
X715471Y296389D01*
X717633Y297285D01*
X719491Y298710D01*
X720915Y300567D01*
X721811Y302729D01*
X722117Y305050D01*
X721889Y306777D01*
X732831Y317719D01*
X733393Y318559D01*
X733590Y319550D01*
Y352283D01*
X734090Y353346D01*
X734860Y353346D01*
X744758D01*
Y365030D01*
X744214D01*
X743616Y366150D01*
X743772Y366384D01*
X744104Y368050D01*
X743772Y369716D01*
X742829Y371129D01*
X741416Y372072D01*
X739750Y372404D01*
X738084Y372072D01*
X736672Y371129D01*
X735728Y369716D01*
X735396Y368050D01*
X735728Y366384D01*
X735884Y366150D01*
X735286Y365030D01*
X734860D01*
X734090Y365030D01*
X733590Y366093D01*
Y366093D01*
Y373516D01*
X734730Y373830D01*
Y373830D01*
X744270D01*
Y378821D01*
X745540Y379206D01*
X745997Y378521D01*
X746486Y378195D01*
Y343854D01*
X743742D01*
Y332170D01*
X746160D01*
Y330455D01*
X745672Y330129D01*
X744728Y328716D01*
X744396Y327050D01*
X744728Y325384D01*
X745672Y323972D01*
X747084Y323028D01*
X748750Y322696D01*
X750416Y323028D01*
X751829Y323972D01*
X752772Y325384D01*
X753104Y327050D01*
X752772Y328716D01*
X751829Y330129D01*
X751340Y330455D01*
Y332170D01*
X754410D01*
Y343854D01*
X751665D01*
Y366690D01*
X752916Y367069D01*
X752977Y367013D01*
X753171Y366722D01*
X753600Y366435D01*
X753791Y366259D01*
X753418Y365030D01*
X753242D01*
Y353346D01*
X762660D01*
Y332823D01*
X742764Y312927D01*
X740871Y313711D01*
X738550Y314017D01*
X736229Y313711D01*
X734067Y312815D01*
X732210Y311390D01*
X730785Y309533D01*
X729889Y307371D01*
X729583Y305050D01*
X729889Y302729D01*
X730785Y300567D01*
X732210Y298710D01*
X734067Y297285D01*
X736229Y296389D01*
X738550Y296083D01*
X740871Y296389D01*
X743033Y297285D01*
X744891Y298710D01*
X746315Y300567D01*
X747211Y302729D01*
X747517Y305050D01*
X747211Y307371D01*
X746427Y309264D01*
X760228Y323065D01*
X761398Y322439D01*
X761360Y322250D01*
Y313940D01*
X755060D01*
Y296160D01*
X772840D01*
Y313940D01*
X766540D01*
Y321177D01*
X771041Y325678D01*
X771602Y326519D01*
X771799Y327510D01*
Y334330D01*
X786760D01*
Y313600D01*
X784867Y312815D01*
X783010Y311390D01*
X781585Y309533D01*
X780689Y307371D01*
X780383Y305050D01*
X780689Y302729D01*
X781585Y300567D01*
X783010Y298710D01*
X784867Y297285D01*
X787029Y296389D01*
X789350Y296083D01*
X791671Y296389D01*
X793833Y297285D01*
X795691Y298710D01*
X797115Y300567D01*
X797640Y301834D01*
X798910Y301581D01*
Y293237D01*
X798084Y293072D01*
X796672Y292129D01*
X795728Y290716D01*
X795396Y289050D01*
X795728Y287384D01*
X796672Y285972D01*
X798084Y285028D01*
X799750Y284696D01*
X801416Y285028D01*
X802829Y285972D01*
X803772Y287384D01*
X804104Y289050D01*
X803913Y290010D01*
X804090Y290900D01*
Y311645D01*
X804578Y311972D01*
X805522Y313384D01*
X805854Y315050D01*
X805522Y316716D01*
X804578Y318129D01*
X804090Y318455D01*
Y334230D01*
X807020D01*
Y343770D01*
X791940D01*
Y351960D01*
X797980D01*
Y358000D01*
Y364040D01*
X791940D01*
Y393654D01*
X797930D01*
Y391418D01*
X797421Y391078D01*
X796478Y389666D01*
X796146Y388000D01*
X796478Y386334D01*
X797421Y384921D01*
X798834Y383978D01*
X800500Y383646D01*
X802166Y383978D01*
X803578Y384921D01*
X804522Y386334D01*
X804853Y388000D01*
X804522Y389666D01*
X803578Y391078D01*
X803069Y391418D01*
Y393654D01*
X808940D01*
Y404761D01*
X810210Y405804D01*
X810750Y405696D01*
X812210Y405987D01*
X813480Y405361D01*
Y392780D01*
X819181D01*
Y391469D01*
X818672Y391129D01*
X817728Y389716D01*
X817396Y388050D01*
X817728Y386384D01*
X818672Y384972D01*
X820084Y384028D01*
X821750Y383696D01*
X823416Y384028D01*
X824828Y384972D01*
X825772Y386384D01*
X826104Y388050D01*
X825772Y389716D01*
X824828Y391129D01*
X824319Y391469D01*
Y392780D01*
X832020D01*
Y405636D01*
X839508Y413125D01*
X841868D01*
Y412900D01*
Y408074D01*
X844612D01*
Y393025D01*
X836715Y385128D01*
X836154Y384287D01*
X835956Y383296D01*
Y367008D01*
X827977Y359029D01*
X839672Y347333D01*
X849953Y357614D01*
X841821Y365746D01*
X841866Y365970D01*
X843244Y366388D01*
X850986Y358647D01*
X861267Y368928D01*
X852848Y377347D01*
Y381768D01*
X853078Y381921D01*
X854022Y383334D01*
X854149Y383970D01*
X855527Y384388D01*
X863245Y376669D01*
Y363185D01*
X854847Y354786D01*
X866542Y343090D01*
X876823Y353372D01*
X868425Y361770D01*
Y375219D01*
X869598Y375705D01*
X873472Y371830D01*
X872728Y370716D01*
X872396Y369050D01*
X872728Y367384D01*
X873672Y365972D01*
X875084Y365028D01*
X876750Y364696D01*
X878416Y365028D01*
X879828Y365972D01*
X880155Y366460D01*
X883980D01*
Y364280D01*
X899520D01*
Y373820D01*
X886272D01*
X885498Y374998D01*
X885509Y375090D01*
X886829Y375972D01*
X887772Y377384D01*
X888104Y379050D01*
X887772Y380716D01*
X886829Y382128D01*
X885416Y383072D01*
X883750Y383404D01*
X882084Y383072D01*
X880671Y382128D01*
X880345Y381640D01*
X878823D01*
X877890Y382573D01*
X878516Y383743D01*
X878750Y383696D01*
X880416Y384028D01*
X881829Y384972D01*
X882772Y386384D01*
X883104Y388050D01*
X883080Y388172D01*
X883682Y388685D01*
X884209Y389003D01*
X885750Y388696D01*
X887416Y389028D01*
X888829Y389972D01*
X889772Y391384D01*
X890104Y393050D01*
X889772Y394716D01*
X888829Y396129D01*
X887677Y396898D01*
X887922Y398168D01*
X891856D01*
Y390908D01*
X891728Y390716D01*
X891396Y389050D01*
X891728Y387384D01*
X892672Y385972D01*
X894084Y385028D01*
X895750Y384696D01*
X897416Y385028D01*
X898829Y385972D01*
X899772Y387384D01*
X900104Y389050D01*
X899772Y390716D01*
X898829Y392128D01*
X897416Y393072D01*
X897114Y393132D01*
X897215Y394380D01*
X898306Y394832D01*
X908360Y384777D01*
Y373820D01*
X903180D01*
Y364280D01*
X906658D01*
X907144Y363107D01*
X905427Y361390D01*
X886750D01*
X885759Y361193D01*
X884919Y360631D01*
X880169Y355881D01*
X879607Y355041D01*
X879410Y354050D01*
Y347973D01*
X844364Y312927D01*
X842471Y313711D01*
X840150Y314017D01*
X837829Y313711D01*
X835667Y312815D01*
X833810Y311390D01*
X832385Y309533D01*
X831489Y307371D01*
X831183Y305050D01*
X831489Y302729D01*
X832385Y300567D01*
X833810Y298710D01*
X835667Y297285D01*
X837829Y296389D01*
X840150Y296083D01*
X842471Y296389D01*
X844633Y297285D01*
X846490Y298710D01*
X847915Y300567D01*
X848811Y302729D01*
X849117Y305050D01*
X848811Y307371D01*
X848027Y309264D01*
X882773Y344010D01*
X890480D01*
Y350050D01*
X893020D01*
Y344010D01*
X900790D01*
Y344010D01*
X901910D01*
Y344010D01*
X909680D01*
Y350050D01*
Y356090D01*
X909249D01*
X908723Y357360D01*
X912781Y361419D01*
X913343Y362259D01*
X913540Y363250D01*
Y364280D01*
X918720D01*
Y373820D01*
X913540D01*
Y384802D01*
X914810Y385328D01*
X925194Y374943D01*
X924708Y373770D01*
X922630D01*
Y364230D01*
X924358D01*
X924844Y363057D01*
X918919Y357131D01*
X918357Y356291D01*
X918317Y356090D01*
X912220D01*
Y350050D01*
Y344010D01*
X918160D01*
Y338623D01*
X901427Y321890D01*
X879800D01*
X878809Y321693D01*
X877969Y321131D01*
X869764Y312927D01*
X867871Y313711D01*
X865550Y314017D01*
X863229Y313711D01*
X861067Y312815D01*
X859210Y311390D01*
X857785Y309533D01*
X856889Y307371D01*
X856583Y305050D01*
X856889Y302729D01*
X857785Y300567D01*
X859210Y298710D01*
X861067Y297285D01*
X863229Y296389D01*
X865550Y296083D01*
X867871Y296389D01*
X870033Y297285D01*
X871890Y298710D01*
X873315Y300567D01*
X874211Y302729D01*
X874517Y305050D01*
X874211Y307371D01*
X873427Y309264D01*
X880873Y316710D01*
X902500D01*
X903677Y315674D01*
X903724Y315437D01*
X899008Y310721D01*
X897741Y310804D01*
X897290Y311390D01*
X895433Y312815D01*
X893271Y313711D01*
X890950Y314017D01*
X888629Y313711D01*
X886467Y312815D01*
X884610Y311390D01*
X883185Y309533D01*
X882289Y307371D01*
X881983Y305050D01*
X882289Y302729D01*
X883185Y300567D01*
X884610Y298710D01*
X886467Y297285D01*
X888629Y296389D01*
X890950Y296083D01*
X893271Y296389D01*
X895433Y297285D01*
X897290Y298710D01*
X898715Y300567D01*
X899611Y302729D01*
X899804Y304191D01*
X924073Y328460D01*
X933750D01*
X934741Y328657D01*
X935581Y329219D01*
X941581Y335219D01*
X942143Y336059D01*
X942340Y337050D01*
Y345230D01*
X944910D01*
Y332455D01*
X944422Y332128D01*
X943478Y330716D01*
X943146Y329050D01*
X943478Y327384D01*
X944422Y325972D01*
X945834Y325028D01*
X947240Y324748D01*
X947635Y323997D01*
X947740Y323452D01*
X944927Y320640D01*
X921500D01*
X920509Y320443D01*
X919669Y319881D01*
X914519Y314731D01*
X913957Y313891D01*
X913912Y313663D01*
X911867Y312815D01*
X910010Y311390D01*
X908585Y309533D01*
X907689Y307371D01*
X907383Y305050D01*
X907689Y302729D01*
X908585Y300567D01*
X910010Y298710D01*
X911867Y297285D01*
X914029Y296389D01*
X916350Y296083D01*
X918671Y296389D01*
X920833Y297285D01*
X922691Y298710D01*
X924115Y300567D01*
X925011Y302729D01*
X925317Y305050D01*
X925011Y307371D01*
X924115Y309533D01*
X922691Y311390D01*
X921337Y312429D01*
X921077Y313965D01*
X922573Y315460D01*
X946000D01*
X946991Y315657D01*
X947831Y316219D01*
X961581Y329969D01*
X962143Y330809D01*
X962340Y331800D01*
Y343070D01*
X976812D01*
X977337Y341800D01*
X947433Y311895D01*
X946233Y312815D01*
X944071Y313711D01*
X941750Y314017D01*
X939429Y313711D01*
X937267Y312815D01*
X935410Y311390D01*
X933985Y309533D01*
X933089Y307371D01*
X932783Y305050D01*
X933089Y302729D01*
X933985Y300567D01*
X935410Y298710D01*
X937267Y297285D01*
X939429Y296389D01*
X941750Y296083D01*
X944071Y296389D01*
X946233Y297285D01*
X948091Y298710D01*
X949515Y300567D01*
X950411Y302729D01*
X950717Y305050D01*
X950411Y307371D01*
X950359Y307497D01*
X957123Y314260D01*
X958260Y313601D01*
Y296160D01*
X976040D01*
Y302460D01*
X976250D01*
X977241Y302657D01*
X978081Y303219D01*
X982716Y307853D01*
X983549Y307510D01*
X983868Y307209D01*
X983583Y305050D01*
X983889Y302729D01*
X984785Y300567D01*
X986210Y298710D01*
X988067Y297285D01*
X990229Y296389D01*
X992550Y296083D01*
X994871Y296389D01*
X997033Y297285D01*
X998891Y298710D01*
X1000315Y300567D01*
X1001211Y302729D01*
X1001517Y305050D01*
X1001211Y307371D01*
X1000427Y309264D01*
X1011831Y320669D01*
X1012140Y321131D01*
X1013410Y320746D01*
Y312772D01*
X1011610Y311390D01*
X1010185Y309533D01*
X1009289Y307371D01*
X1008983Y305050D01*
X1009289Y302729D01*
X1010185Y300567D01*
X1011610Y298710D01*
X1013467Y297285D01*
X1015629Y296389D01*
X1017950Y296083D01*
X1020271Y296389D01*
X1022433Y297285D01*
X1024290Y298710D01*
X1025715Y300567D01*
X1026611Y302729D01*
X1026917Y305050D01*
X1026611Y307371D01*
X1025715Y309533D01*
X1024290Y311390D01*
X1022433Y312815D01*
X1020271Y313711D01*
X1018590Y313932D01*
Y330607D01*
X1019763Y331093D01*
X1019860Y330996D01*
X1019860Y330996D01*
X1023771Y327085D01*
X1023868Y326988D01*
X1023940Y326958D01*
X1023978Y326889D01*
X1024417Y326761D01*
X1024840Y326585D01*
X1024912Y326615D01*
X1024987Y326593D01*
X1025824Y325969D01*
X1026093Y325664D01*
X1026110Y325628D01*
Y323370D01*
X1028367D01*
X1028404Y323353D01*
X1028708Y323084D01*
X1029333Y322247D01*
X1029355Y322172D01*
X1029351Y322161D01*
X1029351D01*
X1029325Y322100D01*
X1029326Y322098D01*
X1029501Y321677D01*
X1029629Y321238D01*
X1029698Y321200D01*
X1029728Y321128D01*
X1029808Y321048D01*
X1029808Y321048D01*
X1029808Y321048D01*
X1029824Y321031D01*
X1029825Y321031D01*
X1029825Y321031D01*
X1037493Y313363D01*
X1037646Y312033D01*
X1037635Y311870D01*
X1037010Y311390D01*
X1035585Y309533D01*
X1034689Y307371D01*
X1034383Y305050D01*
X1034689Y302729D01*
X1035585Y300567D01*
X1037010Y298710D01*
X1038867Y297285D01*
X1041029Y296389D01*
X1043350Y296083D01*
X1045671Y296389D01*
X1047833Y297285D01*
X1049690Y298710D01*
X1050171Y299335D01*
X1050332Y299346D01*
X1051663Y299193D01*
X1060737Y290119D01*
X1060989Y290014D01*
X1061183Y289821D01*
X1061649Y289628D01*
X1061923D01*
X1062176Y289523D01*
X1081477D01*
X1081729Y289628D01*
X1082003D01*
X1082196Y289708D01*
X1082196Y289708D01*
X1082196D01*
X1082389Y289901D01*
X1082449Y289926D01*
X1082473Y289985D01*
X1082515Y290027D01*
X1082663Y290175D01*
X1082722Y290199D01*
X1082747Y290259D01*
X1082940Y290452D01*
Y290452D01*
X1082940Y290452D01*
X1083020Y290645D01*
Y290919D01*
X1083125Y291171D01*
X1083125Y333178D01*
X1083377Y333464D01*
X1083886Y333792D01*
X1084395Y333876D01*
X1084747Y333730D01*
X1085021D01*
X1085273Y333625D01*
X1106730D01*
X1107216Y332452D01*
X1091432Y316668D01*
X1090599Y315421D01*
X1090550Y315177D01*
X1090306Y313950D01*
X1090306Y313950D01*
Y313080D01*
X1089667Y312815D01*
X1087810Y311390D01*
X1086385Y309533D01*
X1085489Y307371D01*
X1085183Y305050D01*
X1085489Y302729D01*
X1086385Y300567D01*
X1087810Y298710D01*
X1089667Y297285D01*
X1091829Y296389D01*
X1094150Y296083D01*
X1096471Y296389D01*
X1098633Y297285D01*
X1100490Y298710D01*
X1101915Y300567D01*
X1102811Y302729D01*
X1103117Y305050D01*
X1102811Y307371D01*
X1101915Y309533D01*
X1100490Y311390D01*
X1099547Y312115D01*
X1099436Y313800D01*
X1112842Y327206D01*
X1156750D01*
X1156750Y327206D01*
X1157977Y327450D01*
X1158221Y327499D01*
X1159468Y328332D01*
X1178468Y347332D01*
X1178468Y347332D01*
X1179025Y348165D01*
X1179301Y348579D01*
X1179594Y350050D01*
X1179594Y350050D01*
Y418300D01*
X1179594Y418300D01*
X1179350Y419527D01*
X1179301Y419771D01*
X1178468Y421018D01*
X1178085Y421401D01*
X1178022Y421716D01*
X1177078Y423129D01*
X1175666Y424072D01*
X1175351Y424135D01*
X1174968Y424518D01*
X1173721Y425351D01*
X1173477Y425400D01*
X1172250Y425644D01*
X1172250Y425644D01*
X1164630D01*
Y430690D01*
X1162004D01*
Y436110D01*
X1164430D01*
Y453890D01*
X1162004D01*
Y463337D01*
X1161770Y464515D01*
Y470268D01*
X1161343D01*
Y472300D01*
X1161344Y472300D01*
X1161051Y473771D01*
X1160774Y474185D01*
X1160218Y475019D01*
X1160218Y475019D01*
X1157468Y477768D01*
X1156221Y478601D01*
X1155977Y478650D01*
X1154750Y478894D01*
X1154750Y478894D01*
X1141750D01*
X1141750Y478894D01*
X1140523Y478650D01*
X1140279Y478601D01*
X1139032Y477768D01*
X1135782Y474518D01*
X1134949Y473271D01*
X1134901Y473027D01*
X1134657Y471800D01*
X1134657Y471800D01*
Y470268D01*
X1134230D01*
Y457728D01*
X1142770D01*
Y457728D01*
X1142886D01*
X1144156Y456634D01*
Y455141D01*
X1144123Y454240D01*
X1142933Y453890D01*
X1131570D01*
Y448844D01*
X1128150D01*
X1128150Y448844D01*
X1126679Y448551D01*
X1126265Y448275D01*
X1125432Y447718D01*
X1125432Y447718D01*
X1122959Y445245D01*
X1122644Y445182D01*
X1122377Y445004D01*
X1114890D01*
Y447430D01*
X1097110D01*
Y434890D01*
X1114890D01*
Y437316D01*
X1122377D01*
X1122644Y437138D01*
X1124310Y436806D01*
X1125976Y437138D01*
X1127389Y438082D01*
X1128332Y439494D01*
X1128395Y439809D01*
X1129742Y441156D01*
X1131570D01*
Y436110D01*
X1134196D01*
Y430690D01*
X1131770D01*
Y424844D01*
X1131282Y424518D01*
X1122282Y415518D01*
X1121449Y414271D01*
X1121400Y414027D01*
X1121156Y412800D01*
X1121156Y412800D01*
Y407270D01*
X1113730D01*
Y384730D01*
X1136270D01*
Y407270D01*
X1128844D01*
Y411208D01*
X1130583Y412947D01*
X1131770Y412910D01*
Y412910D01*
X1131770Y412910D01*
X1144310D01*
Y430690D01*
X1141884D01*
Y436110D01*
X1144110D01*
Y446236D01*
X1144460Y446491D01*
X1145380Y446799D01*
X1146534Y446028D01*
X1148200Y445696D01*
X1149866Y446028D01*
X1150620Y446531D01*
X1151890Y445853D01*
Y436110D01*
X1154316D01*
Y430690D01*
X1152090D01*
Y412910D01*
X1153441D01*
X1153954Y411640D01*
X1152282Y409968D01*
X1151815Y409270D01*
X1143730D01*
Y398730D01*
X1166270D01*
Y409270D01*
X1162778D01*
X1161972Y410252D01*
X1162004Y410410D01*
Y412910D01*
X1164630D01*
Y417956D01*
X1170264D01*
X1170922Y416972D01*
X1171906Y416314D01*
Y391783D01*
X1170636Y391308D01*
X1166165Y395779D01*
X1165913Y395883D01*
X1165719Y396077D01*
X1165253Y396270D01*
X1164979D01*
X1164727Y396375D01*
X1147273D01*
X1147021Y396270D01*
X1146747D01*
X1146281Y396077D01*
X1146087Y395883D01*
X1145835Y395779D01*
X1143221Y393165D01*
X1143117Y392913D01*
X1142923Y392719D01*
X1142730Y392253D01*
Y391979D01*
X1142625Y391727D01*
Y390813D01*
Y390813D01*
X1142701Y390631D01*
X1142701Y390631D01*
X1142730Y390561D01*
X1142730Y390287D01*
X1142730Y390287D01*
X1142806Y390105D01*
X1142806Y390104D01*
Y390104D01*
Y390104D01*
X1142806Y390104D01*
X1142813Y390087D01*
X1142936Y389905D01*
X1143104Y389659D01*
X1143104Y389659D01*
X1143104Y389659D01*
Y389659D01*
X1143725Y388634D01*
X1143730Y388014D01*
Y378833D01*
X1143481Y378730D01*
X1143207D01*
X1142741Y378537D01*
X1142547Y378343D01*
X1142295Y378239D01*
X1141431Y377375D01*
X1106270D01*
Y390270D01*
X1087730D01*
Y386663D01*
X1086460Y386476D01*
X1082218Y390718D01*
X1080971Y391551D01*
X1080727Y391600D01*
X1079520Y391840D01*
Y393770D01*
X1070480D01*
Y393770D01*
X1070480Y393770D01*
X1070020D01*
Y393770D01*
X1070020Y393770D01*
X1061790D01*
X1060980Y393770D01*
X1059844Y394093D01*
Y398230D01*
X1060270D01*
Y413770D01*
X1059844D01*
Y418230D01*
X1060270D01*
Y433770D01*
X1050730D01*
Y418230D01*
X1052156D01*
Y413770D01*
X1050730D01*
Y398230D01*
X1052156D01*
Y393770D01*
X1051480D01*
Y382230D01*
X1059710D01*
X1060520Y382230D01*
X1061656Y381907D01*
Y380392D01*
X1061399Y380135D01*
X1061084Y380072D01*
X1060817Y379894D01*
X1043890D01*
Y392430D01*
X1041412D01*
X1041122Y392742D01*
X1040585Y393700D01*
X1040854Y395050D01*
X1040522Y396716D01*
X1040344Y396983D01*
Y398230D01*
X1041270D01*
Y413770D01*
X1031730D01*
Y398230D01*
X1032656D01*
Y396983D01*
X1032478Y396716D01*
X1032146Y395050D01*
X1032415Y393700D01*
X1031878Y392742D01*
X1031588Y392430D01*
X1026110D01*
X1025344Y393383D01*
Y517617D01*
X1025522Y517884D01*
X1025854Y519550D01*
X1025522Y521216D01*
X1024578Y522629D01*
X1023166Y523572D01*
X1021500Y523904D01*
X1019834Y523572D01*
X1018422Y522629D01*
X1017478Y521216D01*
X1017146Y519550D01*
X1017478Y517884D01*
X1017656Y517617D01*
Y461216D01*
X1016483Y460730D01*
X1014489Y462724D01*
X1014604Y463300D01*
X1014272Y464966D01*
X1013328Y466379D01*
X1011916Y467322D01*
X1010250Y467654D01*
X1008584Y467322D01*
X1007212Y466406D01*
X1006965Y466454D01*
X1005942Y466825D01*
Y474631D01*
X1006078Y474722D01*
X1007022Y476134D01*
X1007354Y477800D01*
X1007022Y479466D01*
X1006078Y480878D01*
X1004666Y481822D01*
X1003000Y482154D01*
X1001334Y481822D01*
X999921Y480878D01*
X998978Y479466D01*
X998646Y477800D01*
X998978Y476134D01*
X999921Y474722D01*
X1000763Y474159D01*
Y430359D01*
X999589Y429873D01*
X988739Y440724D01*
X988854Y441300D01*
X988522Y442966D01*
X987579Y444379D01*
X986166Y445322D01*
X984500Y445654D01*
X982834Y445322D01*
X982610Y445173D01*
X981340Y445851D01*
Y532645D01*
X981829Y532972D01*
X982772Y534384D01*
X983104Y536050D01*
X982772Y537716D01*
X981829Y539128D01*
X980416Y540072D01*
X978750Y540404D01*
X977084Y540072D01*
X975672Y539128D01*
X974728Y537716D01*
X974396Y536050D01*
X974728Y534384D01*
X975672Y532972D01*
X976160Y532645D01*
Y468590D01*
X974101D01*
X973422Y469860D01*
X973772Y470384D01*
X974104Y472050D01*
X973772Y473716D01*
X972829Y475129D01*
X971416Y476072D01*
X969750Y476404D01*
X968084Y476072D01*
X966672Y475129D01*
X965728Y473716D01*
X965396Y472050D01*
X965728Y470384D01*
X966078Y469860D01*
X965399Y468590D01*
X963790D01*
Y450810D01*
X976160D01*
Y440374D01*
X974989Y439861D01*
X974170Y440511D01*
Y446470D01*
X964630D01*
Y430930D01*
X974170D01*
Y431308D01*
X975343Y431794D01*
X985790Y421347D01*
Y391582D01*
X984617Y391096D01*
X978081Y397631D01*
X977241Y398193D01*
X976250Y398390D01*
X973570D01*
Y403570D01*
X967305D01*
X966262Y404840D01*
X966355Y405305D01*
X966089Y406640D01*
X966807Y407910D01*
X975730D01*
Y410853D01*
X977000Y411846D01*
X977750Y411696D01*
X979416Y412028D01*
X980828Y412972D01*
X981772Y414384D01*
X982104Y416050D01*
X981772Y417716D01*
X980828Y419128D01*
X979416Y420072D01*
X977750Y420404D01*
X977000Y420255D01*
X975730Y421247D01*
Y425690D01*
X963190D01*
Y421414D01*
X961920Y420736D01*
X961416Y421072D01*
X959750Y421404D01*
X958084Y421072D01*
X956672Y420129D01*
X955410Y420526D01*
Y425690D01*
X942870D01*
X942460Y426790D01*
Y430097D01*
X944457Y432094D01*
X945630Y431608D01*
Y430930D01*
X955170D01*
Y446470D01*
X952330D01*
Y450810D01*
X956010D01*
Y468590D01*
X947240D01*
X946302Y469860D01*
X946340Y470050D01*
Y491645D01*
X946829Y491972D01*
X947772Y493384D01*
X948104Y495050D01*
X947772Y496716D01*
X946829Y498129D01*
X945416Y499072D01*
X943750Y499404D01*
X942284Y499112D01*
X941733Y499533D01*
X941312Y500084D01*
X941604Y501550D01*
X941272Y503216D01*
X940329Y504628D01*
X938916Y505572D01*
X937250Y505904D01*
X935584Y505572D01*
X934172Y504628D01*
X933228Y503216D01*
X932896Y501550D01*
X933011Y500974D01*
X932169Y500131D01*
X931607Y499291D01*
X931410Y498300D01*
Y482373D01*
X927919Y478881D01*
X927357Y478041D01*
X927160Y477050D01*
Y473421D01*
X925890Y473036D01*
X925829Y473128D01*
X924416Y474072D01*
X922750Y474403D01*
X921084Y474072D01*
X919672Y473128D01*
X919345Y472640D01*
X918752D01*
X918750Y472640D01*
X917759Y472443D01*
X916919Y471881D01*
X914967Y469929D01*
X914766Y469629D01*
X913496Y470014D01*
Y471828D01*
X909432D01*
Y474368D01*
X913496D01*
Y477430D01*
X917250D01*
X918233Y477626D01*
X919067Y478183D01*
X927567Y486683D01*
X928123Y487517D01*
X928319Y488500D01*
Y513436D01*
X933363Y518480D01*
X940020D01*
Y537020D01*
X924480D01*
Y532887D01*
X924386Y532803D01*
X923210Y532324D01*
X922166Y533022D01*
X920500Y533354D01*
X918834Y533022D01*
X917421Y532078D01*
X916478Y530666D01*
X916146Y529000D01*
X916478Y527334D01*
X917421Y525921D01*
X918834Y524978D01*
X920500Y524646D01*
X922166Y524978D01*
X923210Y525675D01*
X924386Y525197D01*
X924480Y525113D01*
Y518480D01*
X924480Y518480D01*
X924480D01*
X924953Y517337D01*
X923933Y516317D01*
X923376Y515483D01*
X923180Y514500D01*
Y490812D01*
X923140Y490787D01*
X921870Y491496D01*
Y499170D01*
X906330D01*
Y489630D01*
X908757D01*
X909243Y488457D01*
X907412Y486626D01*
X903500D01*
X902495Y486426D01*
X901643Y485857D01*
X898342Y482555D01*
X897072Y483081D01*
Y489630D01*
X901870D01*
Y499170D01*
X886330D01*
Y489630D01*
X891821D01*
Y479702D01*
X890890D01*
Y473098D01*
X888350D01*
Y479702D01*
X887130D01*
Y482210D01*
X886938Y483171D01*
X887103Y484000D01*
X886772Y485666D01*
X885828Y487078D01*
X884416Y488022D01*
X884351Y488035D01*
X883340Y488660D01*
X883340Y489432D01*
Y497930D01*
X874300D01*
Y499200D01*
X873030D01*
Y509740D01*
X867527D01*
X867244Y511010D01*
X868664Y512430D01*
X882070D01*
Y519131D01*
X882700D01*
X883683Y519326D01*
X884517Y519883D01*
X887816Y523183D01*
X888373Y524017D01*
X888569Y525000D01*
Y542394D01*
X889467Y543292D01*
X899180D01*
X899401Y542114D01*
Y522415D01*
X895156Y518170D01*
X886330D01*
Y508630D01*
X901870D01*
Y517456D01*
X903550Y519137D01*
X903960Y519171D01*
X904749Y519058D01*
X905042Y518918D01*
X905393Y518393D01*
X906330Y517456D01*
Y508630D01*
X921870D01*
Y518170D01*
X913044D01*
X909876Y521338D01*
Y543412D01*
X914665Y548202D01*
X1085213D01*
X1086218Y548402D01*
X1087070Y548971D01*
X1095751Y557652D01*
X1112678D01*
X1113682Y557851D01*
X1114534Y558421D01*
X1126472Y570358D01*
X1128329Y569589D01*
X1130650Y569283D01*
X1132971Y569589D01*
X1135133Y570485D01*
X1136990Y571909D01*
X1138415Y573767D01*
X1139311Y575929D01*
X1139616Y578250D01*
X1139311Y580571D01*
X1138415Y582733D01*
X1136990Y584590D01*
X1135766Y585530D01*
X1136197Y586800D01*
X1147160D01*
Y569360D01*
X1153460D01*
Y564422D01*
X1145919Y556881D01*
X1145357Y556041D01*
X1145160Y555050D01*
Y500840D01*
Y497905D01*
X1144040Y497542D01*
X1144040Y497542D01*
Y497542D01*
X1144040Y497542D01*
X1139770D01*
Y490002D01*
Y482462D01*
X1144040D01*
X1144040Y482462D01*
X1144640Y482019D01*
D01*
X1144671Y481972D01*
X1146084Y481028D01*
X1147750Y480696D01*
X1149416Y481028D01*
X1150828Y481972D01*
X1151772Y483384D01*
X1151960Y484326D01*
X1153230Y484201D01*
Y483732D01*
X1161770D01*
Y496272D01*
X1153230D01*
Y485899D01*
X1151960Y485774D01*
X1151772Y486716D01*
X1150828Y488129D01*
X1150340Y488455D01*
Y553977D01*
X1157881Y561519D01*
X1158442Y562359D01*
X1158640Y563350D01*
Y569360D01*
X1164940D01*
Y585901D01*
X1165838Y586800D01*
X1181000D01*
X1181000Y260448D01*
X1180102Y259550D01*
X339950Y259550D01*
X339950Y585902D01*
X340848Y586800D01*
X539336Y586800D01*
D02*
G37*
%LPC*%
G36*
X632630Y379130D02*
X623740D01*
Y372860D01*
X632630D01*
Y379130D01*
D02*
G37*
G36*
X620690Y376038D02*
X616420D01*
Y369768D01*
X620690D01*
Y376038D01*
D02*
G37*
G36*
X613880D02*
X609610D01*
Y369768D01*
X613880D01*
Y376038D01*
D02*
G37*
G36*
X1078830Y303780D02*
X1070020D01*
Y294970D01*
X1071402Y295152D01*
X1073874Y296175D01*
X1075996Y297804D01*
X1077625Y299926D01*
X1078649Y302398D01*
X1078830Y303780D01*
D02*
G37*
G36*
X1167540Y382730D02*
X1156270D01*
Y377460D01*
X1167540D01*
Y382730D01*
D02*
G37*
G36*
X468143Y382620D02*
X461872D01*
Y373730D01*
X468143D01*
Y382620D01*
D02*
G37*
G36*
X476953D02*
X470682D01*
Y373730D01*
X476953D01*
Y382620D01*
D02*
G37*
G36*
X1107540Y372540D02*
X1098270D01*
Y364770D01*
X1107540D01*
Y372540D01*
D02*
G37*
G36*
X620690Y367228D02*
X616420D01*
Y360958D01*
X620690D01*
Y367228D01*
D02*
G37*
G36*
X613880D02*
X609610D01*
Y360958D01*
X613880D01*
Y367228D01*
D02*
G37*
G36*
X808290Y364040D02*
X800520D01*
Y359270D01*
X808290D01*
Y364040D01*
D02*
G37*
G36*
X468143Y371190D02*
X461872D01*
Y362300D01*
X468143D01*
Y371190D01*
D02*
G37*
G36*
X1095730Y372540D02*
X1086460D01*
Y364770D01*
X1095730D01*
Y372540D01*
D02*
G37*
G36*
X632630Y370320D02*
X623740D01*
Y364050D01*
X632630D01*
Y370320D01*
D02*
G37*
G36*
X476953Y371190D02*
X470682D01*
Y362300D01*
X476953D01*
Y371190D01*
D02*
G37*
G36*
X1116160Y428380D02*
X1107270D01*
Y422110D01*
X1116160D01*
Y428380D01*
D02*
G37*
G36*
X1104730D02*
X1095840D01*
Y422110D01*
X1104730D01*
Y428380D01*
D02*
G37*
G36*
X728540Y446330D02*
X722500D01*
X716460D01*
Y438560D01*
X719154D01*
X719811Y437290D01*
X719228Y436416D01*
X718896Y434750D01*
X719228Y433084D01*
X719751Y432300D01*
X719224Y431030D01*
X717242D01*
Y419346D01*
X727910D01*
Y431030D01*
X727427D01*
X726748Y432300D01*
X727272Y433084D01*
X727603Y434750D01*
X727272Y436416D01*
X726688Y437290D01*
X727346Y438560D01*
X728540D01*
Y446330D01*
D02*
G37*
G36*
X1041270Y433770D02*
X1031730D01*
Y418230D01*
X1041270D01*
Y422162D01*
X1042540Y422841D01*
X1043084Y422478D01*
X1044750Y422146D01*
X1046416Y422478D01*
X1047828Y423421D01*
X1048772Y424834D01*
X1049103Y426500D01*
X1048772Y428166D01*
X1047828Y429578D01*
X1046416Y430522D01*
X1044750Y430854D01*
X1043084Y430522D01*
X1042540Y430159D01*
X1041270Y430838D01*
Y433770D01*
D02*
G37*
G36*
X1025500Y539154D02*
X1023834Y538822D01*
X1022422Y537878D01*
X1021478Y536466D01*
X1021146Y534800D01*
X1021478Y533134D01*
X1022422Y531722D01*
X1023834Y530778D01*
X1025500Y530446D01*
X1026077Y530561D01*
X1030660Y525977D01*
Y444955D01*
X1030172Y444628D01*
X1029228Y443216D01*
X1028896Y441550D01*
X1029228Y439884D01*
X1030172Y438472D01*
X1031584Y437528D01*
X1033250Y437196D01*
X1034916Y437528D01*
X1036329Y438472D01*
X1037272Y439884D01*
X1037604Y441550D01*
X1037272Y443216D01*
X1036329Y444628D01*
X1035840Y444955D01*
Y527050D01*
X1035643Y528041D01*
X1035081Y528881D01*
X1029739Y534224D01*
X1029854Y534800D01*
X1029522Y536466D01*
X1028578Y537878D01*
X1027166Y538822D01*
X1025500Y539154D01*
D02*
G37*
G36*
X1092910Y439510D02*
X1084020D01*
Y433240D01*
X1092910D01*
Y438000D01*
Y439510D01*
D02*
G37*
G36*
X1081480D02*
X1072590D01*
Y433240D01*
X1081480D01*
Y439510D01*
D02*
G37*
G36*
X1116160Y419570D02*
X1107270D01*
Y413300D01*
X1116160D01*
Y419570D01*
D02*
G37*
G36*
X464732Y391938D02*
X460462D01*
Y385668D01*
X464732D01*
Y391938D01*
D02*
G37*
G36*
X1167540Y390540D02*
X1156270D01*
Y385270D01*
X1167540D01*
Y390540D01*
D02*
G37*
G36*
X1067480Y303780D02*
X1058670D01*
X1058851Y302398D01*
X1059875Y299926D01*
X1061504Y297804D01*
X1063626Y296175D01*
X1066098Y295152D01*
X1067480Y294970D01*
Y303780D01*
D02*
G37*
G36*
X471542Y391938D02*
X467272D01*
Y385668D01*
X471542D01*
Y391938D01*
D02*
G37*
G36*
X1104730Y419570D02*
X1095840D01*
Y413300D01*
X1104730D01*
Y419570D01*
D02*
G37*
G36*
X1091640Y426730D02*
X1073860D01*
Y414190D01*
X1078906D01*
Y408356D01*
X1078646Y407050D01*
X1078978Y405384D01*
X1079922Y403972D01*
X1081334Y403028D01*
X1083000Y402696D01*
X1084666Y403028D01*
X1086078Y403972D01*
X1087022Y405384D01*
X1087354Y407050D01*
X1087022Y408716D01*
X1086594Y409357D01*
Y414190D01*
X1091640D01*
Y426730D01*
D02*
G37*
G36*
X464732Y400748D02*
X460462D01*
Y394478D01*
X464732D01*
Y400748D01*
D02*
G37*
G36*
X1137540Y368540D02*
X1126270D01*
Y357270D01*
X1137540D01*
Y368540D01*
D02*
G37*
G36*
X382950Y314017D02*
X380629Y313711D01*
X378467Y312815D01*
X376610Y311390D01*
X375185Y309533D01*
X374289Y307371D01*
X373983Y305050D01*
X374289Y302729D01*
X375185Y300567D01*
X376610Y298710D01*
X378467Y297285D01*
X380629Y296389D01*
X382950Y296083D01*
X385271Y296389D01*
X387433Y297285D01*
X389291Y298710D01*
X390715Y300567D01*
X391611Y302729D01*
X391917Y305050D01*
X391611Y307371D01*
X390715Y309533D01*
X389291Y311390D01*
X387433Y312815D01*
X385271Y313711D01*
X382950Y314017D01*
D02*
G37*
G36*
X1070020Y315131D02*
Y306320D01*
X1078830D01*
X1078649Y307702D01*
X1077625Y310174D01*
X1075996Y312296D01*
X1073874Y313925D01*
X1071402Y314949D01*
X1070020Y315131D01*
D02*
G37*
G36*
X1067480D02*
X1066098Y314949D01*
X1063626Y313925D01*
X1061504Y312296D01*
X1059875Y310174D01*
X1058851Y307702D01*
X1058670Y306320D01*
X1067480D01*
Y315131D01*
D02*
G37*
G36*
X1118280D02*
X1116898Y314949D01*
X1114426Y313925D01*
X1112304Y312296D01*
X1110675Y310174D01*
X1109651Y307702D01*
X1109470Y306320D01*
X1118280D01*
Y315131D01*
D02*
G37*
G36*
X584770Y339970D02*
X569230D01*
Y330430D01*
X574410D01*
Y328155D01*
X573621Y327629D01*
X572678Y326216D01*
X572346Y324550D01*
X572678Y322884D01*
X573621Y321471D01*
X575034Y320528D01*
X576700Y320196D01*
X578366Y320528D01*
X579779Y321471D01*
X580722Y322884D01*
X581054Y324550D01*
X580722Y326216D01*
X579779Y327629D01*
X579590Y327755D01*
Y330430D01*
X584770D01*
Y339970D01*
D02*
G37*
G36*
X607870Y340020D02*
X592330D01*
Y330480D01*
X597510D01*
Y323638D01*
X597122Y323378D01*
X596178Y321966D01*
X595846Y320300D01*
X596178Y318634D01*
X597122Y317222D01*
X598534Y316278D01*
X600200Y315946D01*
X601866Y316278D01*
X603279Y317222D01*
X604222Y318634D01*
X604554Y320300D01*
X604222Y321966D01*
X603279Y323378D01*
X602690Y323772D01*
Y330480D01*
X607870D01*
Y340020D01*
D02*
G37*
G36*
X1120820Y315131D02*
Y306320D01*
X1129631D01*
X1129448Y307702D01*
X1128425Y310174D01*
X1126796Y312296D01*
X1124674Y313925D01*
X1122202Y314949D01*
X1120820Y315131D01*
D02*
G37*
G36*
X1144950Y314017D02*
X1142629Y313711D01*
X1140467Y312815D01*
X1138610Y311390D01*
X1137185Y309533D01*
X1136289Y307371D01*
X1135983Y305050D01*
X1136289Y302729D01*
X1137185Y300567D01*
X1138610Y298710D01*
X1140467Y297285D01*
X1142629Y296389D01*
X1144950Y296083D01*
X1147271Y296389D01*
X1149433Y297285D01*
X1151291Y298710D01*
X1152715Y300567D01*
X1153611Y302729D01*
X1153917Y305050D01*
X1153611Y307371D01*
X1152715Y309533D01*
X1151291Y311390D01*
X1149433Y312815D01*
X1147271Y313711D01*
X1144950Y314017D01*
D02*
G37*
G36*
X459150D02*
X456829Y313711D01*
X454667Y312815D01*
X452810Y311390D01*
X451385Y309533D01*
X450489Y307371D01*
X450183Y305050D01*
X450489Y302729D01*
X451385Y300567D01*
X452810Y298710D01*
X454667Y297285D01*
X456829Y296389D01*
X459150Y296083D01*
X461471Y296389D01*
X463633Y297285D01*
X465490Y298710D01*
X466915Y300567D01*
X467811Y302729D01*
X468117Y305050D01*
X467811Y307371D01*
X466915Y309533D01*
X465490Y311390D01*
X463633Y312815D01*
X461471Y313711D01*
X459150Y314017D01*
D02*
G37*
G36*
X586150D02*
X583829Y313711D01*
X581667Y312815D01*
X579810Y311390D01*
X578385Y309533D01*
X577489Y307371D01*
X577183Y305050D01*
X577489Y302729D01*
X578385Y300567D01*
X579810Y298710D01*
X581667Y297285D01*
X583829Y296389D01*
X586150Y296083D01*
X588471Y296389D01*
X590633Y297285D01*
X592491Y298710D01*
X593915Y300567D01*
X594811Y302729D01*
X595117Y305050D01*
X594811Y307371D01*
X593915Y309533D01*
X592491Y311390D01*
X590633Y312815D01*
X588471Y313711D01*
X586150Y314017D01*
D02*
G37*
G36*
X484550D02*
X482229Y313711D01*
X480067Y312815D01*
X478210Y311390D01*
X476785Y309533D01*
X475889Y307371D01*
X475583Y305050D01*
X475889Y302729D01*
X476785Y300567D01*
X478210Y298710D01*
X480067Y297285D01*
X482229Y296389D01*
X484550Y296083D01*
X486871Y296389D01*
X489033Y297285D01*
X490891Y298710D01*
X492315Y300567D01*
X493211Y302729D01*
X493517Y305050D01*
X493211Y307371D01*
X492315Y309533D01*
X490891Y311390D01*
X489033Y312815D01*
X486871Y313711D01*
X484550Y314017D01*
D02*
G37*
G36*
X611550D02*
X609229Y313711D01*
X607067Y312815D01*
X605210Y311390D01*
X603785Y309533D01*
X602889Y307371D01*
X602583Y305050D01*
X602889Y302729D01*
X603785Y300567D01*
X605210Y298710D01*
X607067Y297285D01*
X609229Y296389D01*
X611550Y296083D01*
X613871Y296389D01*
X616033Y297285D01*
X617891Y298710D01*
X619315Y300567D01*
X620211Y302729D01*
X620517Y305050D01*
X620211Y307371D01*
X619315Y309533D01*
X617891Y311390D01*
X616033Y312815D01*
X613871Y313711D01*
X611550Y314017D01*
D02*
G37*
G36*
X814750D02*
X812429Y313711D01*
X810267Y312815D01*
X808410Y311390D01*
X806985Y309533D01*
X806089Y307371D01*
X805783Y305050D01*
X806089Y302729D01*
X806985Y300567D01*
X808410Y298710D01*
X810267Y297285D01*
X812429Y296389D01*
X814750Y296083D01*
X817071Y296389D01*
X819233Y297285D01*
X821090Y298710D01*
X822515Y300567D01*
X823411Y302729D01*
X823717Y305050D01*
X823411Y307371D01*
X822515Y309533D01*
X821090Y311390D01*
X819233Y312815D01*
X817071Y313711D01*
X814750Y314017D01*
D02*
G37*
G36*
X433750D02*
X431429Y313711D01*
X429267Y312815D01*
X427410Y311390D01*
X425985Y309533D01*
X425089Y307371D01*
X424783Y305050D01*
X425089Y302729D01*
X425985Y300567D01*
X427410Y298710D01*
X429267Y297285D01*
X431429Y296389D01*
X433750Y296083D01*
X436071Y296389D01*
X438233Y297285D01*
X440090Y298710D01*
X441515Y300567D01*
X442411Y302729D01*
X442717Y305050D01*
X442411Y307371D01*
X441515Y309533D01*
X440090Y311390D01*
X438233Y312815D01*
X436071Y313711D01*
X433750Y314017D01*
D02*
G37*
G36*
X636950D02*
X634629Y313711D01*
X632467Y312815D01*
X630610Y311390D01*
X629185Y309533D01*
X628289Y307371D01*
X627983Y305050D01*
X628289Y302729D01*
X629185Y300567D01*
X630610Y298710D01*
X632467Y297285D01*
X634629Y296389D01*
X636950Y296083D01*
X639271Y296389D01*
X641433Y297285D01*
X643290Y298710D01*
X644715Y300567D01*
X645611Y302729D01*
X645917Y305050D01*
X645611Y307371D01*
X644715Y309533D01*
X643290Y311390D01*
X641433Y312815D01*
X639271Y313711D01*
X636950Y314017D01*
D02*
G37*
G36*
X630970Y339970D02*
X615430D01*
Y330430D01*
X620610D01*
Y328423D01*
X619422Y327629D01*
X618478Y326216D01*
X618146Y324550D01*
X618478Y322884D01*
X619422Y321472D01*
X620834Y320528D01*
X622500Y320196D01*
X624166Y320528D01*
X625578Y321472D01*
X626522Y322884D01*
X626854Y324550D01*
X626522Y326216D01*
X625790Y327313D01*
Y330430D01*
X630970D01*
Y339970D01*
D02*
G37*
G36*
X1095730Y362230D02*
X1086460D01*
Y354460D01*
X1095730D01*
Y362230D01*
D02*
G37*
G36*
X808290Y356730D02*
X800520D01*
Y351960D01*
X808290D01*
Y356730D01*
D02*
G37*
G36*
X455363Y381350D02*
X442822D01*
Y363570D01*
X446503D01*
Y359926D01*
X445174Y359039D01*
X444230Y357626D01*
X443899Y355960D01*
X444230Y354294D01*
X445174Y352882D01*
X446586Y351938D01*
X448252Y351606D01*
X449919Y351938D01*
X451331Y352882D01*
X452275Y354294D01*
X452606Y355960D01*
X452275Y357626D01*
X451682Y358513D01*
Y363570D01*
X455363D01*
Y381350D01*
D02*
G37*
G36*
X1118280Y303780D02*
X1109470D01*
X1109651Y302398D01*
X1110675Y299926D01*
X1112304Y297804D01*
X1114426Y296175D01*
X1116898Y295152D01*
X1118280Y294970D01*
Y303780D01*
D02*
G37*
G36*
X1123730Y368540D02*
X1112460D01*
Y357270D01*
X1123730D01*
Y368540D01*
D02*
G37*
G36*
X1054730Y362730D02*
X1050210D01*
Y356960D01*
X1054730D01*
Y362730D01*
D02*
G37*
G36*
X1107540Y362230D02*
X1098270D01*
Y354460D01*
X1107540D01*
Y362230D01*
D02*
G37*
G36*
X1045160Y364570D02*
X1035000D01*
X1024840D01*
Y358770D01*
X1024840Y358300D01*
X1024840Y357378D01*
X1024840Y357030D01*
Y351230D01*
X1035000D01*
X1045160D01*
Y357030D01*
X1045160Y357500D01*
X1045160Y358423D01*
X1045160Y358770D01*
Y364570D01*
D02*
G37*
G36*
X853814Y353753D02*
X843533Y343472D01*
X847549Y339456D01*
X845123Y337029D01*
X844084Y336822D01*
X842672Y335878D01*
X841728Y334466D01*
X841396Y332800D01*
X841728Y331134D01*
X842672Y329722D01*
X844084Y328778D01*
X845750Y328446D01*
X847416Y328778D01*
X848829Y329722D01*
X849772Y331134D01*
X850104Y332800D01*
X849825Y334199D01*
X850609Y335081D01*
X851900Y335105D01*
X855228Y331777D01*
X865510Y342058D01*
X853814Y353753D01*
D02*
G37*
G36*
X1129631Y303780D02*
X1120820D01*
Y294970D01*
X1122202Y295152D01*
X1124674Y296175D01*
X1126796Y297804D01*
X1128425Y299926D01*
X1129448Y302398D01*
X1129631Y303780D01*
D02*
G37*
G36*
X417761Y344714D02*
X407093D01*
Y333030D01*
X409837D01*
Y329481D01*
X409174Y329039D01*
X408230Y327626D01*
X407899Y325960D01*
X408230Y324294D01*
X409174Y322882D01*
X410587Y321938D01*
X412253Y321606D01*
X413919Y321938D01*
X415331Y322882D01*
X416275Y324294D01*
X416606Y325960D01*
X416275Y327626D01*
X415331Y329039D01*
X415016Y329249D01*
Y333030D01*
X417761D01*
Y344714D01*
D02*
G37*
G36*
X1033730Y348690D02*
X1024840D01*
Y342420D01*
X1033730D01*
Y348690D01*
D02*
G37*
G36*
X1137540Y354730D02*
X1126270D01*
Y343460D01*
X1137540D01*
Y354730D01*
D02*
G37*
G36*
X1123730D02*
X1112460D01*
Y343460D01*
X1123730D01*
Y354730D01*
D02*
G37*
G36*
X1045160Y348690D02*
X1036270D01*
Y342420D01*
X1045160D01*
Y348690D01*
D02*
G37*
G36*
X721980Y522280D02*
X717854D01*
X718031Y521388D01*
X719256Y519556D01*
X721088Y518331D01*
X721980Y518154D01*
Y522280D01*
D02*
G37*
G36*
X728646D02*
X724520D01*
Y518154D01*
X725412Y518331D01*
X727244Y519556D01*
X728469Y521388D01*
X728646Y522280D01*
D02*
G37*
G36*
X949980Y526480D02*
X942210D01*
Y517210D01*
X949980D01*
Y526480D01*
D02*
G37*
G36*
X960290D02*
X952520D01*
Y517210D01*
X960290D01*
Y526480D01*
D02*
G37*
G36*
X724520Y528946D02*
Y524820D01*
X728646D01*
X728469Y525712D01*
X727244Y527544D01*
X725412Y528769D01*
X724520Y528946D01*
D02*
G37*
G36*
X669270Y530696D02*
Y526570D01*
X673396D01*
X673219Y527462D01*
X671994Y529294D01*
X670162Y530519D01*
X669270Y530696D01*
D02*
G37*
G36*
X673396Y524030D02*
X669270D01*
Y519904D01*
X670162Y520081D01*
X671994Y521306D01*
X673219Y523139D01*
X673396Y524030D01*
D02*
G37*
G36*
X721980Y528946D02*
X721088Y528769D01*
X719256Y527544D01*
X718031Y525712D01*
X717854Y524820D01*
X721980D01*
Y528946D01*
D02*
G37*
G36*
X626082Y512669D02*
X619812D01*
Y508400D01*
X626082D01*
Y512669D01*
D02*
G37*
G36*
X721230Y516640D02*
X716460D01*
Y508870D01*
X721230D01*
Y516640D01*
D02*
G37*
G36*
X996000Y539904D02*
X994334Y539572D01*
X992922Y538629D01*
X991978Y537216D01*
X991646Y535550D01*
X991978Y533884D01*
X992922Y532472D01*
X993410Y532145D01*
Y514038D01*
X993171Y513879D01*
X992228Y512466D01*
X991896Y510800D01*
X992228Y509134D01*
X993171Y507722D01*
X994584Y506778D01*
X996250Y506446D01*
X997916Y506778D01*
X999329Y507722D01*
X1000272Y509134D01*
X1000604Y510800D01*
X1000272Y512466D01*
X999329Y513879D01*
X998590Y514372D01*
Y532145D01*
X999079Y532472D01*
X1000022Y533884D01*
X1000354Y535550D01*
X1000022Y537216D01*
X999079Y538629D01*
X997666Y539572D01*
X996000Y539904D01*
D02*
G37*
G36*
X617272Y512669D02*
X611002D01*
Y508400D01*
X617272D01*
Y512669D01*
D02*
G37*
G36*
X745540Y516640D02*
X740770D01*
Y508870D01*
X745540D01*
Y516640D01*
D02*
G37*
G36*
X798423Y525170D02*
X782883D01*
Y515630D01*
X798423D01*
Y525170D01*
D02*
G37*
G36*
X728540Y516640D02*
X723770D01*
Y508870D01*
X728540D01*
Y516640D01*
D02*
G37*
G36*
X738230D02*
X733460D01*
Y508870D01*
X738230D01*
Y516640D01*
D02*
G37*
G36*
X661470Y535370D02*
X642930D01*
Y527920D01*
X638460D01*
Y533100D01*
X628920D01*
Y517560D01*
X638460D01*
Y522740D01*
X642930D01*
Y519830D01*
X649610D01*
Y514800D01*
X649807Y513809D01*
X650369Y512969D01*
X651838Y511500D01*
X652030Y510270D01*
X652030D01*
X652030Y510270D01*
Y500730D01*
X667570D01*
Y510270D01*
X660392D01*
X654790Y515873D01*
Y519830D01*
X661470D01*
Y523223D01*
X662740Y523348D01*
X662782Y523139D01*
X664006Y521306D01*
X665838Y520081D01*
X666730Y519904D01*
Y525300D01*
Y530696D01*
X665838Y530519D01*
X664006Y529294D01*
X662782Y527462D01*
X662740Y527252D01*
X661470Y527378D01*
Y535370D01*
D02*
G37*
G36*
X505730Y563198D02*
X499000D01*
X496838Y562768D01*
X495006Y561544D01*
X493781Y559711D01*
X493604Y558820D01*
X505730D01*
Y563198D01*
D02*
G37*
G36*
X515000D02*
X508270D01*
Y558820D01*
X520396D01*
X520218Y559711D01*
X518994Y561544D01*
X517161Y562768D01*
X515000Y563198D01*
D02*
G37*
G36*
X520396Y556280D02*
X508270D01*
Y551901D01*
X515000D01*
X517161Y552331D01*
X518994Y553556D01*
X520218Y555388D01*
X520396Y556280D01*
D02*
G37*
G36*
X467000Y561903D02*
X451000D01*
X449334Y561572D01*
X447921Y560628D01*
X447595Y560140D01*
X441550D01*
X440559Y559943D01*
X439719Y559381D01*
X434669Y554331D01*
X434107Y553491D01*
X433910Y552500D01*
Y547687D01*
X433128Y546516D01*
X432796Y544850D01*
X433128Y543184D01*
X433910Y542013D01*
Y534987D01*
X433128Y533816D01*
X432796Y532150D01*
X433128Y530484D01*
X433910Y529313D01*
Y523500D01*
X434107Y522509D01*
X434669Y521669D01*
X438718Y517619D01*
X439559Y517057D01*
X440550Y516860D01*
X447595D01*
X447921Y516371D01*
X449334Y515428D01*
X451000Y515096D01*
X458660D01*
Y508770D01*
X453480D01*
Y490230D01*
X458660D01*
Y487405D01*
X458171Y487078D01*
X457228Y485666D01*
X456896Y484000D01*
X457228Y482334D01*
X458171Y480921D01*
X459584Y479978D01*
X461250Y479646D01*
X462916Y479978D01*
X464328Y480921D01*
X465272Y482334D01*
X465603Y484000D01*
X465272Y485666D01*
X464328Y487078D01*
X463840Y487405D01*
Y490230D01*
X469020D01*
Y508770D01*
X463840D01*
Y515096D01*
X467000D01*
X468666Y515428D01*
X470078Y516371D01*
X471022Y517784D01*
X471353Y519450D01*
X471022Y521116D01*
X470078Y522528D01*
X468666Y523472D01*
X467000Y523803D01*
X451000D01*
X449334Y523472D01*
X447921Y522528D01*
X447595Y522040D01*
X441623D01*
X439090Y524573D01*
Y528311D01*
X440228Y529071D01*
X440555Y529560D01*
X447595D01*
X447921Y529071D01*
X449334Y528128D01*
X451000Y527796D01*
X467000D01*
X468666Y528128D01*
X470078Y529071D01*
X471022Y530484D01*
X471353Y532150D01*
X471022Y533816D01*
X470078Y535228D01*
X468666Y536172D01*
X467000Y536503D01*
X451000D01*
X449334Y536172D01*
X447921Y535228D01*
X447595Y534740D01*
X440555D01*
X440228Y535228D01*
X439090Y535989D01*
Y541011D01*
X440228Y541771D01*
X440555Y542260D01*
X447595D01*
X447921Y541771D01*
X449334Y540828D01*
X451000Y540496D01*
X467000D01*
X468666Y540828D01*
X470078Y541771D01*
X471022Y543184D01*
X471353Y544850D01*
X471022Y546516D01*
X470078Y547928D01*
X468666Y548872D01*
X467000Y549203D01*
X451000D01*
X449334Y548872D01*
X447921Y547928D01*
X447595Y547440D01*
X440555D01*
X440228Y547928D01*
X439090Y548689D01*
Y551427D01*
X442622Y554960D01*
X447595D01*
X447921Y554471D01*
X449334Y553528D01*
X451000Y553196D01*
X467000D01*
X468666Y553528D01*
X470078Y554471D01*
X471022Y555884D01*
X471353Y557550D01*
X471022Y559216D01*
X470078Y560628D01*
X468666Y561572D01*
X467000Y561903D01*
D02*
G37*
G36*
X938880Y576980D02*
X930069D01*
X930251Y575598D01*
X931275Y573126D01*
X932904Y571004D01*
X935026Y569375D01*
X937497Y568351D01*
X938880Y568169D01*
Y576980D01*
D02*
G37*
G36*
X839172Y582404D02*
X826632D01*
Y576104D01*
X822012D01*
X821829Y576379D01*
X820416Y577322D01*
X818750Y577654D01*
X817084Y577322D01*
X815671Y576379D01*
X814728Y574966D01*
X814396Y573300D01*
X814728Y571634D01*
X815671Y570222D01*
X817084Y569278D01*
X818750Y568946D01*
X820416Y569278D01*
X821829Y570222D01*
X822298Y570925D01*
X826632D01*
Y564624D01*
X839172D01*
Y582404D01*
D02*
G37*
G36*
X624200Y579986D02*
X622211Y579724D01*
X620357Y578956D01*
X618765Y577735D01*
X617544Y576143D01*
X616776Y574289D01*
X616514Y572300D01*
X616776Y570311D01*
X617544Y568457D01*
X618765Y566865D01*
X620357Y565644D01*
X622211Y564876D01*
X624200Y564614D01*
X626189Y564876D01*
X628043Y565644D01*
X629635Y566865D01*
X630856Y568457D01*
X631624Y570311D01*
X631886Y572300D01*
X631624Y574289D01*
X630856Y576143D01*
X629635Y577735D01*
X628043Y578956D01*
X626189Y579724D01*
X624200Y579986D01*
D02*
G37*
G36*
X950230Y576980D02*
X941420D01*
Y568169D01*
X942802Y568351D01*
X945274Y569375D01*
X947396Y571004D01*
X949025Y573126D01*
X950048Y575598D01*
X950230Y576980D01*
D02*
G37*
G36*
X378000Y571849D02*
X374810Y571534D01*
X371743Y570604D01*
X368917Y569093D01*
X366439Y567060D01*
X364406Y564583D01*
X362896Y561756D01*
X361965Y558689D01*
X361651Y555500D01*
X361965Y552310D01*
X362896Y549244D01*
X364406Y546417D01*
X366439Y543940D01*
X368917Y541906D01*
X371743Y540396D01*
X374810Y539465D01*
X378000Y539151D01*
X381189Y539465D01*
X384256Y540396D01*
X387083Y541906D01*
X389560Y543940D01*
X391593Y546417D01*
X393104Y549244D01*
X394034Y552310D01*
X394348Y555500D01*
X394034Y558689D01*
X393104Y561756D01*
X391593Y564583D01*
X389560Y567060D01*
X387083Y569093D01*
X384256Y570604D01*
X381189Y571534D01*
X378000Y571849D01*
D02*
G37*
G36*
X605530Y556990D02*
X592990D01*
Y539210D01*
X605530D01*
Y544740D01*
X609920D01*
Y539560D01*
X619460D01*
Y555100D01*
X609920D01*
Y549920D01*
X605530D01*
Y556990D01*
D02*
G37*
G36*
X949980Y538290D02*
X942210D01*
Y529020D01*
X949980D01*
Y538290D01*
D02*
G37*
G36*
X960290D02*
X952520D01*
Y529020D01*
X960290D01*
Y538290D01*
D02*
G37*
G36*
X722250Y582399D02*
X719061Y582085D01*
X715994Y581154D01*
X713167Y579644D01*
X710690Y577610D01*
X708657Y575133D01*
X707146Y572306D01*
X706216Y569240D01*
X705901Y566050D01*
X706216Y562861D01*
X707146Y559794D01*
X708657Y556967D01*
X710690Y554490D01*
X713167Y552457D01*
X715994Y550946D01*
X719061Y550015D01*
X722250Y549701D01*
X725440Y550015D01*
X728506Y550946D01*
X731333Y552457D01*
X733810Y554490D01*
X735844Y556967D01*
X737354Y559794D01*
X738285Y562861D01*
X738599Y566050D01*
X738285Y569240D01*
X737354Y572306D01*
X735844Y575133D01*
X733810Y577610D01*
X731333Y579644D01*
X728506Y581154D01*
X725440Y582085D01*
X722250Y582399D01*
D02*
G37*
G36*
X505730Y556280D02*
X493604D01*
X493781Y555388D01*
X495006Y553556D01*
X496838Y552331D01*
X499000Y551901D01*
X505730D01*
Y556280D01*
D02*
G37*
G36*
X515000Y549203D02*
X499000D01*
X497334Y548872D01*
X495921Y547928D01*
X494977Y546516D01*
X494646Y544850D01*
X494977Y543184D01*
X495921Y541771D01*
X497334Y540828D01*
X499000Y540496D01*
X515000D01*
X516666Y540828D01*
X518078Y541771D01*
X519022Y543184D01*
X519353Y544850D01*
X519022Y546516D01*
X518078Y547928D01*
X516666Y548872D01*
X515000Y549203D01*
D02*
G37*
G36*
X661470Y554370D02*
X642930D01*
Y538830D01*
X661470D01*
Y544410D01*
X663345D01*
X663671Y543921D01*
X665084Y542978D01*
X666750Y542646D01*
X668416Y542978D01*
X669828Y543921D01*
X670772Y545334D01*
X671103Y547000D01*
X670772Y548666D01*
X669828Y550078D01*
X668416Y551022D01*
X666750Y551353D01*
X665084Y551022D01*
X663671Y550078D01*
X663345Y549590D01*
X661470D01*
Y554370D01*
D02*
G37*
G36*
X1052240Y518440D02*
X1039700D01*
Y500660D01*
X1052240D01*
Y504052D01*
X1053510Y505094D01*
X1054000Y504996D01*
X1055666Y505328D01*
X1057078Y506272D01*
X1058022Y507684D01*
X1058354Y509350D01*
X1058022Y511016D01*
X1057078Y512429D01*
X1055666Y513372D01*
X1054000Y513704D01*
X1053510Y513606D01*
X1052240Y514648D01*
Y518440D01*
D02*
G37*
G36*
X1055990Y469780D02*
X1048220D01*
Y465010D01*
X1055990D01*
Y469780D01*
D02*
G37*
G36*
X810370Y475370D02*
X800830D01*
Y470799D01*
X799560Y470481D01*
X799428Y470678D01*
X798016Y471622D01*
X796350Y471954D01*
X794684Y471622D01*
X793271Y470678D01*
X792327Y469266D01*
X791996Y467600D01*
X792327Y465934D01*
X793271Y464521D01*
X794684Y463578D01*
X796350Y463246D01*
X798016Y463578D01*
X799428Y464521D01*
X799560Y464718D01*
X800830Y464400D01*
Y459830D01*
X810370D01*
Y475370D01*
D02*
G37*
G36*
X778750Y481853D02*
X777084Y481522D01*
X775671Y480578D01*
X774727Y479166D01*
X774396Y477500D01*
X774727Y475834D01*
X775191Y475140D01*
X774512Y473870D01*
X771230D01*
Y464330D01*
X786770D01*
Y473870D01*
X782987D01*
X782308Y475140D01*
X782772Y475834D01*
X783103Y477500D01*
X782772Y479166D01*
X781828Y480578D01*
X780416Y481522D01*
X778750Y481853D01*
D02*
G37*
G36*
X1045680Y469780D02*
X1037910D01*
Y465010D01*
X1045680D01*
Y469780D01*
D02*
G37*
G36*
X1055990Y477090D02*
X1048220D01*
Y472320D01*
X1055990D01*
Y477090D01*
D02*
G37*
G36*
X727910Y495030D02*
X717242D01*
Y483346D01*
X723410D01*
Y481655D01*
X722921Y481328D01*
X721977Y479916D01*
X721646Y478250D01*
X721977Y476584D01*
X722921Y475171D01*
X724334Y474228D01*
X726000Y473896D01*
X727666Y474228D01*
X729078Y475171D01*
X730022Y476584D01*
X730353Y478250D01*
X730022Y479916D01*
X729078Y481328D01*
X728589Y481655D01*
Y485764D01*
X728392Y486755D01*
X727910Y487477D01*
Y495030D01*
D02*
G37*
G36*
X437523Y476230D02*
X418983D01*
Y471050D01*
X413162D01*
Y475140D01*
X402495D01*
Y463456D01*
X413162D01*
Y465870D01*
X418983D01*
Y460690D01*
X437523D01*
Y465870D01*
X443375D01*
X443590Y465548D01*
X445003Y464604D01*
X446669Y464273D01*
X448335Y464604D01*
X449747Y465548D01*
X450691Y466960D01*
X451022Y468626D01*
X450691Y470292D01*
X449747Y471705D01*
X448335Y472649D01*
X446669Y472980D01*
X445003Y472649D01*
X443590Y471705D01*
X443153Y471050D01*
X437523D01*
Y476230D01*
D02*
G37*
G36*
X1045680Y477090D02*
X1037910D01*
Y472320D01*
X1045680D01*
Y477090D01*
D02*
G37*
G36*
X1092910Y448320D02*
X1084020D01*
Y442050D01*
X1092910D01*
Y448320D01*
D02*
G37*
G36*
X721230Y456640D02*
X716460D01*
Y448870D01*
X721230D01*
Y456640D01*
D02*
G37*
G36*
X738230Y446330D02*
X733460D01*
Y438560D01*
X738230D01*
Y446330D01*
D02*
G37*
G36*
X1081480Y448320D02*
X1072590D01*
Y442050D01*
X1081480D01*
Y448320D01*
D02*
G37*
G36*
X745540Y456640D02*
X740770D01*
Y448870D01*
X745540D01*
Y456640D01*
D02*
G37*
G36*
X498252Y467396D02*
X496263Y467134D01*
X494410Y466366D01*
X492818Y465145D01*
X491596Y463553D01*
X490829Y461699D01*
X490567Y459710D01*
X490829Y457721D01*
X491596Y455867D01*
X492818Y454275D01*
X494410Y453054D01*
X496263Y452286D01*
X498252Y452024D01*
X500242Y452286D01*
X502095Y453054D01*
X503687Y454275D01*
X504909Y455867D01*
X505676Y457721D01*
X505938Y459710D01*
X505676Y461699D01*
X504909Y463553D01*
X503687Y465145D01*
X502095Y466366D01*
X500242Y467134D01*
X498252Y467396D01*
D02*
G37*
G36*
X728540Y456640D02*
X723770D01*
Y448870D01*
X728540D01*
Y456640D01*
D02*
G37*
G36*
X738230D02*
X733460D01*
Y448870D01*
X738230D01*
Y456640D01*
D02*
G37*
G36*
X744758Y495030D02*
X734090D01*
Y483346D01*
X735804D01*
X736141Y482737D01*
X736318Y482076D01*
X735478Y480818D01*
X735146Y479152D01*
X735478Y477486D01*
X736421Y476073D01*
X737834Y475130D01*
X739500Y474798D01*
X741166Y475130D01*
X742578Y476073D01*
X743522Y477486D01*
X743853Y479152D01*
X743522Y480818D01*
X742682Y482076D01*
X742858Y482737D01*
X743195Y483346D01*
X744758D01*
Y495030D01*
D02*
G37*
G36*
X883340Y509740D02*
X875570D01*
Y500470D01*
X883340D01*
Y509740D01*
D02*
G37*
G36*
X1066290Y532797D02*
X1064624Y532466D01*
X1063211Y531522D01*
X1062268Y530110D01*
X1061936Y528443D01*
X1062268Y526777D01*
X1062446Y526511D01*
Y518440D01*
X1060020D01*
Y500660D01*
X1062606D01*
Y494770D01*
X1058730D01*
Y494304D01*
X1054720D01*
Y494820D01*
X1039180D01*
Y485280D01*
X1054720D01*
Y486616D01*
X1058730D01*
Y485230D01*
X1074270D01*
Y486616D01*
X1077770D01*
Y484792D01*
X1089454D01*
Y495460D01*
X1077770D01*
Y494304D01*
X1074270D01*
Y494770D01*
X1070294D01*
Y500660D01*
X1072560D01*
Y505456D01*
X1077820D01*
Y500660D01*
X1090360D01*
Y518440D01*
X1077820D01*
Y513144D01*
X1072560D01*
Y518440D01*
X1070134D01*
Y526511D01*
X1070312Y526777D01*
X1070643Y528443D01*
X1070312Y530110D01*
X1069368Y531522D01*
X1067956Y532466D01*
X1066290Y532797D01*
D02*
G37*
G36*
X728540Y506330D02*
X723770D01*
Y498560D01*
X728540D01*
Y506330D01*
D02*
G37*
G36*
X646990Y512430D02*
X629210D01*
Y499890D01*
X646990D01*
Y512430D01*
D02*
G37*
G36*
X626082Y505859D02*
X619812D01*
Y501590D01*
X626082D01*
Y505859D01*
D02*
G37*
G36*
X1166250Y520236D02*
X1164261Y519974D01*
X1162407Y519206D01*
X1160815Y517985D01*
X1159594Y516393D01*
X1158826Y514539D01*
X1158564Y512550D01*
X1158826Y510561D01*
X1159594Y508707D01*
X1160815Y507115D01*
X1162407Y505894D01*
X1164261Y505126D01*
X1166250Y504864D01*
X1168239Y505126D01*
X1170093Y505894D01*
X1171685Y507115D01*
X1172906Y508707D01*
X1173674Y510561D01*
X1173936Y512550D01*
X1173674Y514539D01*
X1172906Y516393D01*
X1171685Y517985D01*
X1170093Y519206D01*
X1168239Y519974D01*
X1166250Y520236D01*
D02*
G37*
G36*
X478980Y510040D02*
X471210D01*
Y500770D01*
X478980D01*
Y510040D01*
D02*
G37*
G36*
X489290D02*
X481520D01*
Y500770D01*
X489290D01*
Y510040D01*
D02*
G37*
G36*
X478980Y498230D02*
X471210D01*
Y488960D01*
X478980D01*
Y498230D01*
D02*
G37*
G36*
X489290D02*
X481520D01*
Y488960D01*
X489290D01*
Y498230D01*
D02*
G37*
G36*
X1137230Y488732D02*
X1132960D01*
Y482462D01*
X1137230D01*
Y488732D01*
D02*
G37*
G36*
X1110680Y518440D02*
X1098140D01*
Y509921D01*
X1098066Y509550D01*
Y498590D01*
X1098315Y497340D01*
X1098066Y496090D01*
X1098359Y494619D01*
X1099192Y493372D01*
X1102070Y490494D01*
Y489606D01*
X1101237Y488359D01*
X1101188Y488115D01*
X1100944Y486888D01*
X1100153Y485960D01*
X1098946D01*
Y476114D01*
X1098946Y475292D01*
X1097862Y474844D01*
X1097862Y474844D01*
X1089454D01*
Y476308D01*
X1077770D01*
Y474844D01*
X1074270D01*
Y475770D01*
X1058730D01*
Y466230D01*
X1074270D01*
Y467156D01*
X1077770D01*
Y465640D01*
X1089454D01*
Y467156D01*
X1113230D01*
Y466230D01*
X1128770D01*
Y475770D01*
X1113230D01*
Y474844D01*
X1111714D01*
X1110630Y475292D01*
Y476106D01*
Y476114D01*
Y485960D01*
X1111798Y486206D01*
X1113230D01*
Y485230D01*
X1128770D01*
Y494770D01*
X1113230D01*
Y493894D01*
X1109883D01*
X1109616Y494072D01*
X1109301Y494135D01*
X1105603Y497833D01*
X1105754Y498590D01*
Y500660D01*
X1110680D01*
Y518440D01*
D02*
G37*
G36*
X738230Y506330D02*
X733460D01*
Y498560D01*
X738230D01*
Y506330D01*
D02*
G37*
G36*
X721230Y506330D02*
X716460D01*
Y498560D01*
X721230D01*
Y506330D01*
D02*
G37*
G36*
X1137230Y497542D02*
X1132960D01*
Y491272D01*
X1137230D01*
Y497542D01*
D02*
G37*
G36*
X506500Y506154D02*
X504834Y505822D01*
X503422Y504879D01*
X502478Y503466D01*
X502146Y501800D01*
X502478Y500134D01*
X503422Y498722D01*
X504834Y497778D01*
X506500Y497446D01*
X508166Y497778D01*
X509579Y498722D01*
X510522Y500134D01*
X510854Y501800D01*
X510522Y503466D01*
X509579Y504879D01*
X508166Y505822D01*
X506500Y506154D01*
D02*
G37*
%LPD*%
D10*
X480250Y499500D02*
D03*
X461250D02*
D03*
X874300Y521700D02*
D03*
X855300D02*
D03*
X874300Y499200D02*
D03*
X855300D02*
D03*
X951250Y527750D02*
D03*
X932250D02*
D03*
D11*
X459000Y557550D02*
D03*
Y544850D02*
D03*
Y532150D02*
D03*
Y519450D02*
D03*
X507000Y557550D02*
D03*
Y544850D02*
D03*
Y532150D02*
D03*
Y519450D02*
D03*
D12*
X1104788Y480626D02*
D03*
X1083612Y470974D02*
D03*
Y490126D02*
D03*
X639612Y419724D02*
D03*
X660788Y429376D02*
D03*
Y410224D02*
D03*
X660688Y456476D02*
D03*
X639512Y446824D02*
D03*
Y465976D02*
D03*
X872162Y558126D02*
D03*
Y538974D02*
D03*
X893338Y548626D02*
D03*
D13*
X1066500Y471000D02*
D03*
Y490000D02*
D03*
X1121000D02*
D03*
Y471000D02*
D03*
X1046950Y490050D02*
D03*
Y471050D02*
D03*
X558700Y549200D02*
D03*
Y530200D02*
D03*
X930400Y369000D02*
D03*
Y350000D02*
D03*
X521842Y399210D02*
D03*
Y418210D02*
D03*
X577000Y386500D02*
D03*
Y367500D02*
D03*
Y335200D02*
D03*
Y354200D02*
D03*
X600100Y354250D02*
D03*
Y335250D02*
D03*
X623200Y354200D02*
D03*
Y335200D02*
D03*
X779000Y339100D02*
D03*
Y358100D02*
D03*
X778250Y405250D02*
D03*
Y424250D02*
D03*
X683000Y334100D02*
D03*
Y353100D02*
D03*
Y412600D02*
D03*
Y431600D02*
D03*
X949600Y350000D02*
D03*
Y369000D02*
D03*
X894100Y513400D02*
D03*
Y494400D02*
D03*
X914100D02*
D03*
Y513400D02*
D03*
X779000Y469100D02*
D03*
Y488100D02*
D03*
X683000Y469100D02*
D03*
Y488100D02*
D03*
X621700Y447298D02*
D03*
Y466298D02*
D03*
X601900Y466300D02*
D03*
Y447300D02*
D03*
X574000Y486500D02*
D03*
Y505500D02*
D03*
X562600Y447500D02*
D03*
Y466500D02*
D03*
X581800Y447300D02*
D03*
Y466300D02*
D03*
X659800Y505500D02*
D03*
Y486500D02*
D03*
X790653Y520400D02*
D03*
Y501400D02*
D03*
X480503Y418710D02*
D03*
Y399710D02*
D03*
X799250Y358000D02*
D03*
Y339000D02*
D03*
X891750Y350050D02*
D03*
Y369050D02*
D03*
X910950Y350050D02*
D03*
Y369050D02*
D03*
X377002Y379710D02*
D03*
Y398710D02*
D03*
X376952Y430460D02*
D03*
Y411460D02*
D03*
D14*
X1104410Y509550D02*
D03*
X1084090D02*
D03*
X449092Y372460D02*
D03*
X469412D02*
D03*
X578940Y548100D02*
D03*
X599260D02*
D03*
X579030Y525330D02*
D03*
X599350D02*
D03*
X1045970Y509550D02*
D03*
X1066290D02*
D03*
X804640Y446700D02*
D03*
X824960D02*
D03*
X969460Y416800D02*
D03*
X949140D02*
D03*
X1138040Y421800D02*
D03*
X1158360D02*
D03*
X970060Y459700D02*
D03*
X949740D02*
D03*
X1137840Y445000D02*
D03*
X1158160D02*
D03*
X853222Y573514D02*
D03*
X832902D02*
D03*
D15*
X428253Y449460D02*
D03*
Y468460D02*
D03*
X656800Y372216D02*
D03*
Y391216D02*
D03*
X652200Y527600D02*
D03*
Y546600D02*
D03*
X577000Y422200D02*
D03*
Y403200D02*
D03*
X1097000Y382500D02*
D03*
Y363500D02*
D03*
X822750Y419550D02*
D03*
Y400550D02*
D03*
X833800Y502200D02*
D03*
Y521200D02*
D03*
X552400Y505500D02*
D03*
Y486500D02*
D03*
X502003Y418210D02*
D03*
Y399210D02*
D03*
D16*
X498252Y459710D02*
D03*
X1166250Y512550D02*
D03*
X624200Y572300D02*
D03*
D17*
X680750Y371522D02*
D03*
Y391842D02*
D03*
X368753Y448800D02*
D03*
Y469120D02*
D03*
X638100Y485840D02*
D03*
Y506160D02*
D03*
X633900Y391910D02*
D03*
Y371590D02*
D03*
X1035000Y329640D02*
D03*
Y349960D02*
D03*
X1035000Y386160D02*
D03*
Y365840D02*
D03*
X1082750Y420460D02*
D03*
Y440780D02*
D03*
X800050Y399924D02*
D03*
Y420244D02*
D03*
X970600Y349340D02*
D03*
Y369660D02*
D03*
X1106000Y441160D02*
D03*
Y420840D02*
D03*
X811250Y522160D02*
D03*
Y501840D02*
D03*
D18*
X805600Y467600D02*
D03*
X824600D02*
D03*
X614690Y547330D02*
D03*
X633690D02*
D03*
X633690Y525330D02*
D03*
X614690D02*
D03*
X596150Y413000D02*
D03*
X615150D02*
D03*
X1055500Y426000D02*
D03*
X1036500D02*
D03*
Y406000D02*
D03*
X1055500D02*
D03*
X758500Y381600D02*
D03*
X739500D02*
D03*
X758500Y447600D02*
D03*
X739500D02*
D03*
X703500Y381600D02*
D03*
X722500D02*
D03*
X703500Y447600D02*
D03*
X722500D02*
D03*
X968800Y395800D02*
D03*
X949800D02*
D03*
X758500Y507600D02*
D03*
X739500D02*
D03*
X703500D02*
D03*
X722500D02*
D03*
X969400Y438700D02*
D03*
X950400D02*
D03*
X447503Y436960D02*
D03*
X466502D02*
D03*
X833750Y552050D02*
D03*
X852750D02*
D03*
X423003Y423460D02*
D03*
X404002D02*
D03*
X423003Y386710D02*
D03*
X404002D02*
D03*
D19*
X592538Y507130D02*
D03*
Y497630D02*
D03*
Y488130D02*
D03*
X618542D02*
D03*
Y507130D02*
D03*
D20*
X466002Y419212D02*
D03*
X456502D02*
D03*
X447003D02*
D03*
Y393208D02*
D03*
X466002D02*
D03*
X615150Y394502D02*
D03*
X605650D02*
D03*
X596150D02*
D03*
Y368498D02*
D03*
X615150D02*
D03*
X1138500Y463998D02*
D03*
X1148000D02*
D03*
X1157500D02*
D03*
Y490002D02*
D03*
X1138500D02*
D03*
D21*
X421926Y360048D02*
D03*
X431578Y338872D02*
D03*
X412426D02*
D03*
X398329Y448122D02*
D03*
X388676Y469298D02*
D03*
X407828D02*
D03*
X654124Y353888D02*
D03*
X663776Y332712D02*
D03*
X644624D02*
D03*
X749076Y338012D02*
D03*
X739424Y359188D02*
D03*
X758576D02*
D03*
X749076Y404012D02*
D03*
X739424Y425188D02*
D03*
X758576D02*
D03*
X713076Y338012D02*
D03*
X703424Y359188D02*
D03*
X722576D02*
D03*
X749076Y468012D02*
D03*
X739424Y489188D02*
D03*
X758576D02*
D03*
X713076Y468012D02*
D03*
X703424Y489188D02*
D03*
X722576D02*
D03*
X713076Y404012D02*
D03*
X703424Y425188D02*
D03*
X722576D02*
D03*
D22*
X1125000Y356000D02*
D03*
Y396000D02*
D03*
D23*
X1155000Y404000D02*
D03*
Y384000D02*
D03*
D24*
X882000Y438300D02*
D03*
D25*
X916798Y465732D02*
D03*
Y460906D02*
D03*
Y455826D02*
D03*
Y450746D02*
D03*
Y445920D02*
D03*
Y440840D02*
D03*
Y435760D02*
D03*
Y430680D02*
D03*
Y425854D02*
D03*
Y420774D02*
D03*
Y415694D02*
D03*
Y410868D02*
D03*
X847202D02*
D03*
Y415694D02*
D03*
Y420774D02*
D03*
Y425854D02*
D03*
Y430680D02*
D03*
Y435760D02*
D03*
Y440840D02*
D03*
Y445920D02*
D03*
Y450746D02*
D03*
Y455826D02*
D03*
Y460906D02*
D03*
Y465732D02*
D03*
D26*
X909432Y403502D02*
D03*
X904606D02*
D03*
X899526D02*
D03*
X894446D02*
D03*
X889620D02*
D03*
X884540D02*
D03*
X879460D02*
D03*
X874380D02*
D03*
X869554D02*
D03*
X864474D02*
D03*
X859394D02*
D03*
X854568D02*
D03*
Y473098D02*
D03*
X859394D02*
D03*
X864474D02*
D03*
X869554D02*
D03*
X874380D02*
D03*
X879460D02*
D03*
X884540D02*
D03*
X889620D02*
D03*
X904606D02*
D03*
X909432D02*
D03*
X894446D02*
D03*
X899526D02*
D03*
D27*
X1075000Y388000D02*
D03*
X1065500D02*
D03*
X1056000D02*
D03*
Y364000D02*
D03*
X1065500D02*
D03*
X1075000D02*
D03*
D28*
X854521Y342765D02*
D03*
X838965Y358321D02*
D03*
X865835Y354079D02*
D03*
X850279Y369635D02*
D03*
D29*
X884000Y531400D02*
Y559800D01*
X874300Y521700D02*
X884000Y531400D01*
X853222Y548626D02*
Y573514D01*
X886235D01*
X893338Y566412D01*
Y548626D02*
Y566412D01*
X845000Y481050D02*
Y544300D01*
X875480Y481432D02*
X876118D01*
X601900Y466300D02*
X639188D01*
X1036500Y426000D02*
X1044250D01*
X1044750Y426500D01*
X715250Y500350D02*
X722500Y507600D01*
Y447600D02*
X739500D01*
X722500Y507600D02*
X739500D01*
X739424Y479076D02*
X739500Y479152D01*
X739424Y479076D02*
Y489188D01*
X703424Y480924D02*
Y489188D01*
X704012Y468012D02*
X713076D01*
X758576Y489188D02*
X761000Y486764D01*
X703424Y413924D02*
Y425188D01*
X722576D02*
Y434076D01*
X683000Y431600D02*
X684400Y433000D01*
X701738Y404012D02*
X713076D01*
X739424Y414674D02*
Y425188D01*
X715250Y479500D02*
Y500350D01*
X779000Y395250D02*
Y405100D01*
X703424Y349326D02*
Y359188D01*
Y349326D02*
X703500Y349250D01*
X680750Y371522D02*
X682022Y370250D01*
X693750D01*
X855300Y499200D02*
Y521700D01*
X854568Y498468D02*
X855300Y499200D01*
X864474Y511874D02*
X874300Y521700D01*
X864474Y473098D02*
Y511874D01*
X907182Y480000D02*
X917250D01*
X800050Y399390D02*
X800500Y398940D01*
Y388000D02*
Y398940D01*
X779000Y469100D02*
Y477250D01*
X850279Y369635D02*
Y384721D01*
X932250Y521000D02*
Y527750D01*
X931000Y529000D02*
X932250Y527750D01*
X920500Y529000D02*
X931000D01*
X855300Y521700D02*
Y535449D01*
X855250Y535500D02*
X855300Y535449D01*
X833800Y521200D02*
Y534800D01*
X811000Y535250D02*
X811250D01*
Y522160D02*
Y535250D01*
X859394Y473098D02*
Y479644D01*
X858038Y481000D02*
X859394Y479644D01*
X854568Y481000D02*
X858038D01*
X854568Y473098D02*
Y481000D01*
X904606Y473098D02*
Y477424D01*
X907182Y480000D01*
X722576Y434076D02*
X723250Y434750D01*
X714000Y417750D02*
X722500Y409250D01*
X703250Y414098D02*
X703424Y413924D01*
X562670Y428170D02*
X581800Y447300D01*
X715250Y479500D02*
X722500Y472250D01*
Y447600D02*
Y472250D01*
X778750Y477500D02*
X779000Y477250D01*
X854568Y481000D02*
Y498468D01*
X739424Y359188D02*
X740938D01*
X714000Y417750D02*
Y447350D01*
X714250Y447600D01*
X722500D01*
X739250Y414500D02*
X739424Y414674D01*
X850000Y385000D02*
X850279Y384721D01*
X970060Y459700D02*
X972700D01*
X972750Y459750D01*
X969750Y462750D02*
X972750Y459750D01*
X969750Y462750D02*
Y472050D01*
X824450Y406150D02*
X828900D01*
X821750Y403450D02*
X824450Y406150D01*
X821750Y388050D02*
Y403450D01*
X739750Y360375D02*
X740938Y359188D01*
X739750Y360375D02*
Y368050D01*
X684000Y433400D02*
X684400Y433000D01*
X670750Y431050D02*
X681650D01*
X684000Y433400D01*
X696819Y408931D02*
X701250Y404500D01*
X703500Y444250D02*
Y447600D01*
X696819Y408931D02*
Y437569D01*
X703500Y444250D01*
X703250Y480750D02*
X703424Y480924D01*
X703250Y467250D02*
X704012Y468012D01*
X925750Y514500D02*
X932250Y521000D01*
X917250Y480000D02*
X925750Y488500D01*
Y514500D01*
X562670Y339404D02*
Y428170D01*
X828900Y406150D02*
X838444Y415694D01*
X847202D01*
X758250Y488862D02*
X758576Y489188D01*
X758750Y425014D02*
X759000Y424763D01*
Y404300D02*
Y424763D01*
X722500Y507600D02*
X723250Y508350D01*
Y523550D01*
X970500Y349340D02*
Y359300D01*
X722500Y381600D02*
Y409250D01*
X556250Y331050D02*
Y331710D01*
X555590Y340050D02*
X558900Y343360D01*
X555590Y331710D02*
Y340050D01*
Y331710D02*
X556250Y331050D01*
X558900Y343360D02*
Y436450D01*
X562600Y440150D01*
Y447500D01*
X879460Y473098D02*
Y478090D01*
X876118Y481432D02*
X879460Y478090D01*
X845000Y544300D02*
X852750Y552050D01*
X758250Y467250D02*
Y488862D01*
D30*
X902028Y521328D02*
Y546663D01*
X907250Y520250D02*
Y544500D01*
X908500Y484000D02*
X914100Y489600D01*
Y494400D01*
X903500Y484000D02*
X908500D01*
X899526Y473098D02*
Y480026D01*
X903500Y484000D01*
X894100Y513400D02*
X902028Y521328D01*
Y546663D02*
X911414Y556050D01*
X1083050D01*
X1105250Y578250D01*
X907250Y520250D02*
X914100Y513400D01*
X907250Y544500D02*
X913578Y550828D01*
X1085213D01*
X1094663Y560278D01*
X1112678D01*
X1130650Y578250D01*
D31*
X1066500Y471000D02*
X1121000D01*
X1066290Y509550D02*
Y528443D01*
X1053890Y509460D02*
X1054000Y509350D01*
X1045970Y509460D02*
X1053890D01*
X1107950Y490050D02*
X1121950D01*
X1104788Y486888D02*
X1107950Y490050D01*
X1104788Y480626D02*
Y486888D01*
X1106000Y441160D02*
X1124310D01*
X1128150Y445000D01*
X1137840D01*
X1138040Y444800D01*
Y421800D02*
Y444800D01*
X1085000Y382500D02*
X1097000D01*
X1079500Y388000D02*
X1085000Y382500D01*
X1075000Y388000D02*
X1079500D01*
X1056000D02*
Y425500D01*
X1155000Y404000D02*
Y407250D01*
X1158160Y410410D01*
Y445000D02*
Y463337D01*
X1157500Y463998D02*
X1158160Y463337D01*
X1148000Y454250D02*
Y463998D01*
X1083278Y490460D02*
X1083612Y490126D01*
X376952Y411460D02*
X377002Y411410D01*
Y398710D02*
Y411410D01*
X1065500Y308300D02*
X1068750Y305050D01*
X1065500Y308300D02*
Y364000D01*
X1158160Y410410D02*
Y445000D01*
X1062020Y440780D02*
X1082750D01*
X1046950Y455850D02*
X1062020Y440780D01*
X1046950Y455850D02*
Y471050D01*
Y490050D02*
Y490460D01*
X1066450Y490050D02*
Y490460D01*
Y506800D01*
Y509300D02*
X1081340D01*
X1081590Y509550D01*
X1046950Y490460D02*
X1066450D01*
X1083278D01*
X1101910Y498590D02*
Y509550D01*
Y496090D02*
X1107950Y490050D01*
X1035000Y386160D02*
X1036500Y387660D01*
X1035000Y378800D02*
Y386160D01*
Y378800D02*
X1037750Y376050D01*
X1062750D01*
X1065500Y378800D01*
Y388000D01*
X1036500Y387660D02*
Y395050D01*
Y406000D01*
X1125000Y396000D02*
Y412800D01*
X1134000Y421800D01*
X1138040D01*
X1157500Y463998D02*
Y472300D01*
X1154750Y475050D02*
X1157500Y472300D01*
X1141750Y475050D02*
X1154750D01*
X1138500Y471800D02*
X1141750Y475050D01*
X1138500Y463998D02*
Y471800D01*
X1035000Y329640D02*
X1052160D01*
X1053000Y328800D01*
X376952Y430460D02*
X385252D01*
X392252Y423460D01*
X404002D01*
X377002Y379710D02*
X385503D01*
X392503Y386710D01*
X404002D01*
X1082750Y407300D02*
Y420460D01*
X1027290Y365840D02*
X1035000D01*
X1094150Y305050D02*
Y313950D01*
X1111250Y331050D01*
X1174000Y420050D02*
X1175750Y418300D01*
X1172250Y421800D02*
X1174000Y420050D01*
X1158360Y421800D02*
X1172250D01*
X1175750Y350050D02*
Y418300D01*
X1111250Y331050D02*
X1156750D01*
X1175750Y350050D01*
X408350Y305050D02*
Y308700D01*
X364660Y430460D02*
X376952D01*
X357550Y423350D02*
X364660Y430460D01*
X357550Y305050D02*
Y423350D01*
X377002Y340048D02*
X408350Y308700D01*
X377002Y340048D02*
Y379710D01*
X1021500Y371630D02*
X1027290Y365840D01*
X1021500Y371630D02*
Y519550D01*
X1096500Y364000D02*
X1097000Y363500D01*
X1075000Y364000D02*
X1096500D01*
X1097000Y363500D02*
X1105499D01*
X1113000Y356000D01*
X1125000D01*
D32*
X830710Y458058D02*
X842086Y446682D01*
X835750Y445050D02*
X839960Y440840D01*
X830710Y458058D02*
Y480290D01*
X842086Y446682D02*
X842250D01*
X838594Y460906D02*
X847202D01*
X837500Y462000D02*
X838594Y460906D01*
X837500Y462000D02*
Y464550D01*
X824600Y447060D02*
Y467600D01*
Y447060D02*
X824960Y446700D01*
X461250Y484000D02*
X461250Y484000D01*
Y499500D01*
X459000Y519450D02*
X461250Y517200D01*
Y499500D02*
Y517200D01*
X533000Y478500D02*
X540370Y471130D01*
X535350Y305050D02*
X540370Y310070D01*
X526810Y479302D02*
X536560Y469552D01*
X525190Y335940D02*
X536560Y347310D01*
Y469552D01*
X540370Y310070D02*
Y471130D01*
X523000Y477724D02*
X532750Y467974D01*
Y349000D02*
Y467974D01*
X498750Y315000D02*
X532750Y349000D01*
X551000Y466500D02*
X562600D01*
X539000Y478500D02*
X551000Y466500D01*
X539000Y478500D02*
Y523500D01*
X523000Y477724D02*
Y498000D01*
X526810Y479302D02*
Y527440D01*
X533000Y478500D02*
Y491800D01*
X525190Y282810D02*
Y335940D01*
X522100Y532150D02*
X526810Y527440D01*
X507000Y514000D02*
X523000Y498000D01*
X507000Y514000D02*
Y519450D01*
X498750Y275500D02*
Y315000D01*
X525190Y282810D02*
X527250Y280750D01*
X507000Y532150D02*
X522100D01*
X549104Y315696D02*
Y399050D01*
Y315696D02*
X559750Y305050D01*
X512543Y346507D02*
Y403593D01*
X886500Y503750D02*
X888000D01*
X869750Y483537D02*
X873185Y486972D01*
X869750Y473294D02*
Y483537D01*
X934000Y498300D02*
X937250Y501550D01*
X943750Y470050D02*
Y495050D01*
X882750Y484000D02*
X884540Y482210D01*
X683000Y498750D02*
X683250Y499000D01*
X677710Y507260D02*
X681750Y511300D01*
X552250Y518000D02*
X552400Y517850D01*
Y505500D02*
Y517850D01*
X436600Y532150D02*
X459000D01*
X437150Y544850D02*
X459000D01*
X441550Y557550D02*
X459000D01*
X436500Y552500D02*
X441550Y557550D01*
X436500Y523500D02*
Y552500D01*
X440550Y519450D02*
X459000D01*
X436500Y523500D02*
X440550Y519450D01*
X1184750Y178460D02*
Y251445D01*
X334500Y178460D02*
Y251445D01*
X793904Y181000D02*
X1184750D01*
X334500D02*
X717218D01*
X1169510Y186080D02*
X1184750Y181000D01*
X1169510Y175920D02*
X1184750Y181000D01*
X334500D02*
X349740Y175920D01*
X334500Y181000D02*
X349740Y186080D01*
X230960Y592250D02*
X330945D01*
X230960Y255000D02*
X330945D01*
X233500Y457904D02*
Y592250D01*
Y255000D02*
Y381218D01*
X228420Y577010D02*
X233500Y592250D01*
X238580Y577010D01*
X233500Y255000D02*
X238580Y270240D01*
X228420D02*
X233500Y255000D01*
X669200Y377550D02*
X673450Y381800D01*
X669200Y356700D02*
Y377550D01*
X663776Y351276D02*
X669200Y356700D01*
X673450Y381800D02*
X677200D01*
X680750Y385350D02*
Y391842D01*
X677200Y381800D02*
X680750Y385350D01*
Y391842D02*
Y398750D01*
X1082750Y434500D02*
Y440780D01*
Y434500D02*
X1087450Y429800D01*
X1097040D01*
X1106000Y420840D01*
X592538Y488130D02*
X594500Y486168D01*
X649774Y456476D02*
X660688D01*
X592250Y427500D02*
X631836D01*
X577000Y403200D02*
X615150D01*
X596500Y382500D02*
Y394153D01*
Y382500D02*
X603000Y376000D01*
Y357150D02*
Y376000D01*
X621700Y437799D02*
X621750Y437750D01*
X621700Y437799D02*
Y447298D01*
X622174Y446824D02*
X639512D01*
X638100Y476100D02*
Y485840D01*
X626250Y413000D02*
X626250Y413000D01*
X615150Y413000D02*
X626250D01*
X577000Y422200D02*
X586950D01*
X592250Y427500D01*
X631836D02*
X639612Y419724D01*
X644000Y342500D02*
X644624Y341876D01*
Y332712D02*
Y341876D01*
X654124Y353888D02*
Y369540D01*
X656800Y372216D01*
Y391216D02*
Y406236D01*
X633900Y371590D02*
Y381100D01*
X615150Y368498D02*
X630808D01*
X605650Y384850D02*
Y394502D01*
X596150D02*
X596500Y394153D01*
X600100Y354250D02*
X603000Y357150D01*
X596150Y413000D02*
X605500D01*
X615150Y403200D02*
Y413000D01*
Y394502D02*
Y403200D01*
X577000Y386500D02*
Y403200D01*
Y367500D02*
X595153D01*
X577000Y354200D02*
Y367500D01*
X558700Y530200D02*
X574160D01*
X562600Y466500D02*
X582250D01*
X592167Y507500D02*
X592538Y507130D01*
X586750Y507500D02*
X592167D01*
X579030Y515220D02*
X586750Y507500D01*
X579030Y515220D02*
Y525330D01*
X578940Y525420D02*
Y548100D01*
X574160Y530200D02*
X578940Y525420D01*
X579030Y525330D01*
X558700Y540300D02*
Y549200D01*
Y540300D02*
X558750Y540250D01*
X600030Y547330D02*
X614690D01*
X618542Y507130D02*
X637130D01*
X599350Y515650D02*
Y525330D01*
X628830Y547330D02*
X633690D01*
X623500Y542000D02*
X628830Y547330D01*
X623500Y528250D02*
Y542000D01*
X620580Y525330D02*
X623500Y528250D01*
X599350Y525330D02*
X620580D01*
X599350Y515650D02*
X606790Y508210D01*
X592538Y497630D02*
X603120D01*
X618542Y488130D02*
Y491957D01*
X799250Y358000D02*
Y367500D01*
X545700Y530200D02*
X558700D01*
X652200Y546600D02*
X652850Y547250D01*
X653100Y547000D01*
X666750D01*
X749076Y468012D02*
Y502326D01*
X754350Y507600D01*
X758500D01*
X779000Y488100D02*
Y495500D01*
X766900Y507600D02*
X779000Y495500D01*
X758500Y507600D02*
X766900D01*
X703350D02*
X703500D01*
X694500Y498750D02*
X703350Y507600D01*
X694500Y472250D02*
Y498750D01*
Y472250D02*
X699500Y467250D01*
X683000Y488100D02*
Y498750D01*
X726000Y478250D02*
Y485764D01*
X722576Y489188D02*
X726000Y485764D01*
X779000Y433750D02*
X779250Y434000D01*
X705650Y381600D02*
X713076Y374174D01*
X703500Y381600D02*
X705650D01*
X713076Y338012D02*
Y374174D01*
X722576Y348424D02*
Y359188D01*
Y348424D02*
X722750Y348250D01*
X682250Y343500D02*
Y352350D01*
X663776Y332712D02*
Y351276D01*
X790653Y501400D02*
X810810D01*
X869554Y473098D02*
X869750Y473294D01*
X833800Y488450D02*
Y502200D01*
Y488450D02*
X834000Y488250D01*
X930400Y340350D02*
Y350000D01*
X911100Y368900D02*
X913600D01*
X874300Y487550D02*
Y499200D01*
X949740Y439360D02*
Y459700D01*
X909432Y473098D02*
X916348D01*
X800050Y410300D02*
Y419710D01*
X779000Y424100D02*
Y433750D01*
X838546Y358740D02*
X838965Y358321D01*
X838546Y358740D02*
Y383296D01*
X951250Y527750D02*
X964750D01*
X951250Y521250D02*
Y527750D01*
X874300Y499200D02*
X875384D01*
X884540Y473098D02*
Y482210D01*
X539000Y523500D02*
X545700Y530200D01*
X569750Y367500D02*
X577000D01*
X570450Y422200D02*
X577000D01*
X566460Y418210D02*
X570450Y422200D01*
X847002Y446120D02*
X847202Y445920D01*
X822500Y488500D02*
X830710Y480290D01*
X749076Y444576D02*
X752100Y447600D01*
X758500D01*
X842250Y446500D02*
Y446682D01*
Y446500D02*
X842630Y446120D01*
X847002D01*
X910950Y339800D02*
Y350050D01*
Y339800D02*
X911200Y339550D01*
X838546Y383296D02*
X847202Y391952D01*
Y410868D01*
X949140Y396460D02*
Y416800D01*
X659940Y443500D02*
X663831D01*
X577000Y324850D02*
Y335200D01*
X600100Y320400D02*
Y335250D01*
X1156050Y563350D02*
Y578250D01*
X1147750Y485050D02*
Y555050D01*
X1156050Y563350D01*
X891750Y350050D02*
X910950D01*
X837040Y435760D02*
X847202D01*
X841380Y430680D02*
X847202D01*
X836750Y426050D02*
X841380Y430680D01*
X827826Y420774D02*
X828090Y420510D01*
X846938D02*
X847202Y420774D01*
X796350Y467600D02*
X805600D01*
X803990Y446050D02*
X804640Y446700D01*
X810750Y410050D02*
X811750D01*
X822310Y444050D02*
X824960Y446700D01*
X864474Y403502D02*
X865290Y402686D01*
X1138500Y490002D02*
Y499800D01*
X1138750Y500050D01*
X969400Y438700D02*
X972100D01*
X899526Y397274D02*
Y403502D01*
Y397274D02*
X910950Y385850D01*
Y369050D02*
Y385850D01*
X884750Y393050D02*
X885750D01*
X894446Y390354D02*
Y403502D01*
Y390354D02*
X895750Y389050D01*
X876750Y369050D02*
X891750D01*
X876750D02*
Y372215D01*
X879460Y398340D02*
Y403502D01*
Y398340D02*
X884750Y393050D01*
X869554Y397246D02*
Y403502D01*
X865290Y393050D02*
Y402686D01*
X874380Y403502D02*
X874560Y403322D01*
Y397628D02*
Y403322D01*
Y397628D02*
X878750Y393438D01*
Y388050D02*
Y393438D01*
X869554Y397246D02*
X871750Y395050D01*
X854568Y389009D02*
Y403502D01*
X859394Y389571D02*
Y403502D01*
X854568Y389009D02*
X865835Y377742D01*
Y354079D02*
Y377742D01*
X859394Y389571D02*
X876750Y372215D01*
X871750Y385050D02*
Y395050D01*
Y385050D02*
X877750Y379050D01*
X883750D01*
X566460Y370790D02*
X569750Y367500D01*
X566460Y370790D02*
Y418210D01*
X559750Y305050D02*
X560750D01*
X949750Y369150D02*
Y379050D01*
X949600Y369000D02*
X949750Y369150D01*
X946500Y395800D02*
X949800D01*
X939750Y385050D02*
Y389050D01*
X946500Y395800D01*
X904606Y399148D02*
Y403502D01*
Y399148D02*
X906856Y396898D01*
X906902D01*
X909432Y403502D02*
X916298D01*
X916750Y403050D01*
X916798Y410868D02*
X925568D01*
X906902Y396898D02*
X930400Y373400D01*
Y369000D02*
Y373400D01*
X970600Y369660D02*
Y379900D01*
X928750Y385050D02*
X939750Y374050D01*
X916798Y465732D02*
Y468098D01*
X918750Y470050D01*
X918750Y470050D01*
X922750D01*
X601900Y437900D02*
Y447300D01*
Y437900D02*
X602750Y437050D01*
X947400Y438700D02*
X950400D01*
X931950Y514250D02*
X944250D01*
X951250Y521250D01*
X811750Y490050D02*
Y501340D01*
X811250Y501840D02*
X811750Y501340D01*
X935750Y449662D02*
Y452050D01*
X941560Y467860D02*
X943750Y470050D01*
X941560Y449695D02*
Y467860D01*
X934020Y459320D02*
X935750Y461050D01*
X916798Y445920D02*
X924620D01*
X930210Y451510D01*
X934020Y458154D02*
Y459320D01*
X930210Y451510D02*
Y454344D01*
X934020Y458154D01*
X921224Y450746D02*
X930210Y459733D01*
X916798Y455826D02*
X920898D01*
X926400Y461328D01*
X916798Y450746D02*
X921224D01*
X930210Y459733D02*
Y463510D01*
X937750Y471050D01*
X926400Y465088D02*
X929750Y468438D01*
Y477050D01*
X926400Y461328D02*
Y465088D01*
X594500Y486168D02*
X595582Y487250D01*
X552400Y486500D02*
X590907D01*
X574000Y496300D02*
Y505500D01*
X969460Y416800D02*
X970210Y416050D01*
X977750D01*
X779000Y358100D02*
Y381550D01*
X748750Y337686D02*
X749076Y338012D01*
X748750Y327050D02*
Y337686D01*
X687750Y305050D02*
Y326050D01*
X683000Y334100D02*
X697700D01*
X697750Y334050D01*
X967150Y305050D02*
X976250D01*
X758576Y359188D02*
X759438Y360050D01*
X758576Y359188D02*
Y367474D01*
X756250Y369800D02*
X758576Y367474D01*
X749076Y338012D02*
Y381600D01*
X758500D01*
X749076Y404012D02*
Y444576D01*
X731000Y392300D02*
X742712Y404012D01*
X749076D01*
X713150Y305050D02*
X716500D01*
X731000Y319550D01*
Y392300D01*
X368753Y448800D02*
X382412D01*
X382752Y448460D01*
X368753Y469120D02*
X388499D01*
X407828Y469298D02*
X408667Y468460D01*
X446502D02*
X446669Y468626D01*
X408667Y468460D02*
X428253D01*
X446502D01*
X476753Y437210D02*
X477003Y436960D01*
X466502D02*
X477003D01*
X456502Y419212D02*
Y431710D01*
X456502Y431710D01*
X466002Y419212D02*
X466504Y418710D01*
X480503D01*
X422002Y360124D02*
Y386710D01*
X421926Y360048D02*
X422002Y360124D01*
X419839Y357960D02*
X421926Y360048D01*
X432753Y386710D02*
X439250Y393208D01*
X447003D01*
Y401460D01*
X453253Y407710D01*
X475503D01*
X480503Y402710D01*
Y399710D02*
Y402710D01*
X469412Y355300D02*
Y372460D01*
X469753Y354960D02*
X470003Y355210D01*
X469412Y355300D02*
X469753Y354960D01*
X466002Y384760D02*
Y393208D01*
Y384760D02*
X469412Y381350D01*
Y372460D02*
Y381350D01*
X449092Y356800D02*
Y372460D01*
X448252Y355960D02*
X449092Y356800D01*
X412426Y326134D02*
Y338872D01*
X412253Y325960D02*
X412426Y326134D01*
X522092Y388960D02*
Y398710D01*
Y388960D02*
X522342Y388710D01*
X521342Y418710D02*
X521842Y418210D01*
X481003Y399210D02*
X502003D01*
X480503Y399710D02*
X481003Y399210D01*
X447003Y419212D02*
Y436460D01*
X447503Y436960D01*
X684250Y445550D02*
Y467849D01*
X683000Y469100D02*
X684250Y467849D01*
X683000Y412600D02*
X690050D01*
X692250Y414800D01*
Y451050D01*
X692750Y451550D01*
X637750Y475750D02*
X638100Y476100D01*
X699500Y467250D02*
X703250D01*
X573750Y496050D02*
X574000Y496300D01*
X606790Y503710D02*
Y508210D01*
Y503710D02*
X618542Y491957D01*
X603120Y497630D02*
X604250Y496500D01*
X929540Y511840D02*
X931950Y514250D01*
X916348Y473098D02*
X929540Y486290D01*
Y511840D01*
X929750Y477050D02*
X934000Y481300D01*
Y498300D01*
X874300Y499200D02*
X881950D01*
X886500Y503750D01*
X480503Y418710D02*
Y425460D01*
X484253Y429210D01*
X600100Y320400D02*
X600200Y320300D01*
X576700Y324550D02*
X577000Y324850D01*
X992550Y305050D02*
X993750D01*
X992550D02*
X1010000Y322500D01*
X978750Y439050D02*
Y536050D01*
X1082750Y407300D02*
X1083000Y407050D01*
X890950Y305050D02*
X897000D01*
X923000Y331050D01*
X933750D01*
X865550Y305050D02*
X879800Y319300D01*
X902500D01*
X920750Y337550D01*
Y355300D01*
X930400Y364950D01*
Y369000D01*
X840150Y305050D02*
X882000Y346900D01*
Y354050D01*
X886750Y358800D01*
X906500D01*
X910950Y363250D01*
Y369050D01*
X789350Y429400D02*
X789500Y429550D01*
X828090Y420510D02*
X846938D01*
X839960Y440840D02*
X847202D01*
X928750Y385050D02*
Y394800D01*
X925005Y410305D02*
X925568Y410868D01*
X924999Y410305D02*
X925005D01*
X936060Y402110D02*
Y413378D01*
X928750Y394800D02*
X936060Y402110D01*
X934750Y392050D02*
X939870Y397170D01*
X932250Y406800D02*
Y411800D01*
X924000Y398550D02*
X932250Y406800D01*
X916798Y440840D02*
X926928D01*
X935750Y449662D01*
X916798Y430680D02*
X927880D01*
X937250Y440050D01*
X939750D01*
X916798Y435760D02*
X927572D01*
X935672Y443860D01*
X935725D01*
X941560Y449695D01*
X916798Y425854D02*
X933446D01*
X928664Y420774D02*
X936060Y413378D01*
X916798Y420774D02*
X928664D01*
X928205Y415845D02*
X932250Y411800D01*
X916949Y415845D02*
X928205D01*
X916798Y415694D02*
X916949Y415845D01*
X939870Y397170D02*
Y431170D01*
X947400Y438700D01*
X771800Y488100D02*
X779000D01*
X789350Y305050D02*
Y429400D01*
X800050Y410300D02*
X800500Y410750D01*
X769210Y411010D02*
X774500Y416300D01*
X776750D01*
X822750Y419550D02*
Y431050D01*
X976250Y305050D02*
X1003353Y332153D01*
X956940Y414240D02*
X959750Y417050D01*
X956940Y408079D02*
Y414240D01*
X956461Y407600D02*
X956940Y408079D01*
X956461Y377589D02*
X959750Y374300D01*
X956461Y377589D02*
Y407600D01*
X962001Y389007D02*
X964958Y386050D01*
X962001Y389007D02*
Y405305D01*
X968800Y395800D02*
X976250D01*
X984570Y387480D01*
X964958Y386050D02*
X975500D01*
X980760Y380790D01*
X984570Y325870D02*
Y329844D01*
X988380Y333654D01*
X969750Y321050D02*
X970388D01*
X984570Y335232D01*
Y387480D01*
X995750Y333050D02*
Y361466D01*
X988380Y333654D02*
Y422420D01*
X972100Y438700D02*
X988380Y422420D01*
X994003Y367553D02*
Y423797D01*
X978750Y439050D02*
X994003Y423797D01*
X984500Y441300D02*
X999543Y426258D01*
X1010250Y463300D02*
X1016000Y457550D01*
X1033250Y441550D02*
Y527050D01*
X1025500Y534800D02*
X1033250Y527050D01*
X995750Y361466D02*
X999543Y365258D01*
X1010000Y322500D02*
Y453550D01*
X1016000Y307000D02*
X1017950Y305050D01*
X1016000Y307000D02*
Y457550D01*
X999543Y365258D02*
Y426258D01*
X1003353Y332153D02*
Y477448D01*
X1003000Y477800D02*
X1003353Y477448D01*
X933750Y331050D02*
X939750Y337050D01*
Y374050D01*
X949000Y350600D02*
Y357050D01*
X799700Y289100D02*
X799750Y289050D01*
X799700Y289100D02*
X801500Y290900D01*
Y315050D01*
Y336750D01*
X799250Y339000D02*
X801500Y336750D01*
X845750Y333994D02*
X854521Y342765D01*
X845750Y332800D02*
Y333994D01*
X763950Y305050D02*
Y322250D01*
X769210Y327510D01*
X738550Y305050D02*
X765250Y331750D01*
X769210Y327510D02*
Y411010D01*
X779000Y339100D02*
Y349050D01*
X779000Y349050D01*
X916350Y305050D02*
X920750D01*
X916350D02*
Y312900D01*
X921500Y318050D01*
X959750Y331800D02*
Y374300D01*
X921500Y318050D02*
X946000D01*
X959750Y331800D01*
X947500Y329050D02*
Y349100D01*
X949000Y350600D01*
X739500Y381600D02*
Y390300D01*
X742250Y393050D01*
X659800Y472386D02*
Y486500D01*
X817000Y444050D02*
X822310D01*
X812180Y439230D02*
X817000Y444050D01*
X811750Y410050D02*
X812180Y410480D01*
Y439230D01*
X818964Y573514D02*
X832902D01*
X818750Y573300D02*
X818964Y573514D01*
X873185Y486972D02*
X873722D01*
X874300Y487550D01*
X937750Y471050D02*
Y474050D01*
X889620Y473098D02*
Y484964D01*
X875384Y499200D02*
X889620Y484964D01*
X964750Y526750D02*
Y527750D01*
X858724Y538974D02*
X872162D01*
X855250Y535500D02*
X858724Y538974D01*
X872162Y558126D02*
X882326D01*
X884000Y559800D01*
X996000Y511050D02*
Y535550D01*
Y511050D02*
X996250Y510800D01*
X654124Y344676D02*
Y353888D01*
Y344676D02*
X655250Y343550D01*
X600100Y354250D02*
X623150D01*
X633900Y391910D02*
X634000Y392010D01*
Y402300D01*
X623200Y325250D02*
Y335200D01*
X622500Y324550D02*
X623200Y325250D01*
X659800Y472386D02*
X667800Y464386D01*
X663831Y443500D02*
X667800Y447469D01*
Y464386D01*
X660788Y429376D02*
Y434638D01*
X660058Y305050D02*
X662350D01*
X635250Y329858D02*
X660058Y305050D01*
X635250Y329858D02*
Y351550D01*
X646260Y362560D01*
Y400256D01*
X648750Y402746D01*
X633690Y525330D02*
X649930D01*
X649774Y456476D02*
X649942Y456307D01*
X650192Y456557D01*
X650236D01*
X648750Y402746D02*
Y449814D01*
X644696Y453868D02*
X648750Y449814D01*
X644696Y453868D02*
Y458932D01*
X648750Y462986D01*
X659800Y505500D02*
Y507200D01*
X652200Y514800D02*
X659800Y507200D01*
X652200Y514800D02*
Y527600D01*
X822500Y488500D02*
Y552050D01*
X804500Y558800D02*
X827000D01*
X833750Y552050D01*
X648750Y462986D02*
Y489042D01*
X670750Y408750D02*
X680750Y398750D01*
X660788Y423262D02*
Y429376D01*
Y423262D02*
X670750Y413300D01*
Y408750D02*
Y413300D01*
X512543Y346507D02*
X513250Y345800D01*
X480503Y418710D02*
X521342D01*
X512543Y403593D02*
X521842Y412892D01*
Y418210D01*
X388499Y469120D02*
X390250Y467369D01*
X430874Y338872D02*
X431578D01*
X390250Y443050D02*
Y467369D01*
Y443050D02*
X394500Y438800D01*
X369750Y500550D02*
Y500800D01*
X368753Y469120D02*
Y499553D01*
X369750Y500550D01*
X691250Y533050D02*
X778750D01*
X804500Y558800D01*
X944250Y305050D02*
X980760Y341560D01*
Y380790D01*
X941750Y305050D02*
X944250D01*
X792250Y449050D02*
X800990D01*
X803990Y446050D01*
X765250Y331750D02*
Y481550D01*
X771800Y488100D01*
X648750Y489042D02*
X653448Y493740D01*
X660788Y434638D02*
X672650Y446500D01*
Y493982D01*
X653448Y493740D02*
X667020D01*
X668000Y525300D02*
X668840Y524460D01*
X665442Y497550D02*
X668840Y500948D01*
Y524460D01*
X667020Y493740D02*
X673900Y500620D01*
Y515700D01*
X672650Y493982D02*
X677710Y499041D01*
X673900Y515700D02*
X691250Y533050D01*
X677710Y499041D02*
Y507260D01*
X638100Y497550D02*
Y506160D01*
Y497550D02*
X665442D01*
X414500Y355246D02*
X430874Y338872D01*
X414500Y355246D02*
Y431830D01*
X394500Y438800D02*
X407530D01*
X414500Y431830D01*
X422002Y386710D02*
X432753D01*
X398329Y448122D02*
X423000D01*
Y419212D02*
Y448122D01*
Y419212D02*
X447003D01*
X592050Y487643D02*
X592538Y488130D01*
X592050Y456750D02*
Y487643D01*
D33*
X894446Y473098D02*
Y494054D01*
D34*
X721282Y184554D02*
X723821Y187093D01*
X728900D01*
X731439Y184554D01*
Y182015D01*
X728900Y179476D01*
X731439Y176937D01*
Y174398D01*
X728900Y171858D01*
X723821D01*
X721282Y174398D01*
Y176937D01*
X723821Y179476D01*
X721282Y182015D01*
Y184554D01*
X723821Y179476D02*
X728900D01*
X746674Y187093D02*
X736517D01*
Y179476D01*
X741595Y182015D01*
X744135D01*
X746674Y179476D01*
Y174398D01*
X744135Y171858D01*
X739056D01*
X736517Y174398D01*
X751752Y171858D02*
Y174398D01*
X754291D01*
Y171858D01*
X751752D01*
X764448Y184554D02*
X766987Y187093D01*
X772066D01*
X774605Y184554D01*
Y174398D01*
X772066Y171858D01*
X766987D01*
X764448Y174398D01*
Y184554D01*
X779683D02*
X782222Y187093D01*
X787301D01*
X789840Y184554D01*
Y182015D01*
X787301Y179476D01*
X784762D01*
X787301D01*
X789840Y176937D01*
Y174398D01*
X787301Y171858D01*
X782222D01*
X779683Y174398D01*
X229945Y385282D02*
X227406Y387821D01*
Y392900D01*
X229945Y395439D01*
X232484D01*
X235024Y392900D01*
Y390360D01*
Y392900D01*
X237563Y395439D01*
X240102D01*
X242641Y392900D01*
Y387821D01*
X240102Y385282D01*
X229945Y400517D02*
X227406Y403056D01*
Y408135D01*
X229945Y410674D01*
X232484D01*
X235024Y408135D01*
Y405595D01*
Y408135D01*
X237563Y410674D01*
X240102D01*
X242641Y408135D01*
Y403056D01*
X240102Y400517D01*
X242641Y415752D02*
X240102D01*
Y418291D01*
X242641D01*
Y415752D01*
X227406Y428448D02*
Y438605D01*
X229945D01*
X240102Y428448D01*
X242641D01*
X229945Y443683D02*
X227406Y446222D01*
Y451301D01*
X229945Y453840D01*
X232484D01*
X235024Y451301D01*
Y448761D01*
Y451301D01*
X237563Y453840D01*
X240102D01*
X242641Y451301D01*
Y446222D01*
X240102Y443683D01*
D35*
X334500Y255000D02*
Y592250D01*
X1184750D01*
Y255000D02*
Y592250D01*
X334500Y255000D02*
X1184750D01*
D36*
X914750Y578250D02*
D03*
X940150D02*
D03*
X1029050D02*
D03*
X1054450D02*
D03*
X1079850D02*
D03*
X1003650D02*
D03*
X978250D02*
D03*
X1130650D02*
D03*
X1105250D02*
D03*
X1094150Y305050D02*
D03*
X1068750D02*
D03*
X1043350D02*
D03*
X1017950D02*
D03*
X992550D02*
D03*
X1119550D02*
D03*
X1144950D02*
D03*
X890950D02*
D03*
X865550D02*
D03*
X840150D02*
D03*
X814750D02*
D03*
X789350D02*
D03*
X916350D02*
D03*
X941750D02*
D03*
X687750D02*
D03*
X662350D02*
D03*
X636950D02*
D03*
X611550D02*
D03*
X586150D02*
D03*
X713150D02*
D03*
X738550D02*
D03*
X484550D02*
D03*
X459150D02*
D03*
X433750D02*
D03*
X408350D02*
D03*
X382950D02*
D03*
X509950D02*
D03*
X535350D02*
D03*
D37*
X1156050Y578250D02*
D03*
X967150Y305050D02*
D03*
X763950D02*
D03*
X560750D02*
D03*
X357550D02*
D03*
D38*
X722250Y566050D02*
D03*
X378000Y555500D02*
D03*
D39*
X835750Y445050D02*
D03*
X837500Y464550D02*
D03*
X845000Y481050D02*
D03*
X461250Y484000D02*
D03*
X498750Y275500D02*
D03*
X527250Y280750D02*
D03*
X549104Y399050D02*
D03*
X888000Y503750D02*
D03*
X875480Y481432D02*
D03*
X937250Y501550D02*
D03*
X943750Y495050D02*
D03*
X882750Y484000D02*
D03*
X683250Y499000D02*
D03*
X681750Y511300D02*
D03*
X552250Y518000D02*
D03*
X437150Y532150D02*
D03*
Y544850D02*
D03*
X1066290Y528443D02*
D03*
X1094200Y429800D02*
D03*
X1054000Y509350D02*
D03*
X1107950Y490050D02*
D03*
X1124310Y441160D02*
D03*
X1148200Y450050D02*
D03*
X621750Y437750D02*
D03*
X626250Y413000D02*
D03*
X644000Y342500D02*
D03*
X656800Y401500D02*
D03*
X633900Y381100D02*
D03*
X605650Y384850D02*
D03*
X605500Y413000D02*
D03*
X558750Y540250D02*
D03*
X799250Y367500D02*
D03*
X1044750Y426500D02*
D03*
X666750Y547000D02*
D03*
X739500Y479152D02*
D03*
X726000Y478250D02*
D03*
X779250Y434000D02*
D03*
X749000D02*
D03*
X703500Y349250D02*
D03*
X722750Y348250D02*
D03*
X682250Y343500D02*
D03*
X693750Y370250D02*
D03*
X834000Y488250D02*
D03*
X930400Y340350D02*
D03*
X779000Y394250D02*
D03*
X920500Y529000D02*
D03*
X855250Y535500D02*
D03*
X833800Y534800D02*
D03*
X811000Y535250D02*
D03*
X723250Y434750D02*
D03*
X703250Y414098D02*
D03*
X701000Y404250D02*
D03*
X778750Y477500D02*
D03*
X659940Y443500D02*
D03*
X911200Y339550D02*
D03*
X739250Y414500D02*
D03*
X859500Y451050D02*
D03*
X904500Y451550D02*
D03*
X850000Y385000D02*
D03*
X969750Y472050D02*
D03*
X1147750Y485050D02*
D03*
X796350Y467600D02*
D03*
X821750Y388050D02*
D03*
X800500Y388000D02*
D03*
X810750Y410050D02*
D03*
X867750Y421050D02*
D03*
X1138750Y500050D02*
D03*
X978750Y536050D02*
D03*
X822750Y552050D02*
D03*
X885750Y393050D02*
D03*
X895750Y389050D02*
D03*
X876750Y369050D02*
D03*
X865290Y393050D02*
D03*
X878750Y388050D02*
D03*
X883750Y379050D02*
D03*
X949750D02*
D03*
X939750Y385050D02*
D03*
X934750Y392050D02*
D03*
X916750Y403050D02*
D03*
X970600Y379900D02*
D03*
X959750Y417050D02*
D03*
X969750Y321050D02*
D03*
X1036500Y395050D02*
D03*
X1062750Y376050D02*
D03*
X1037750D02*
D03*
X984570Y325870D02*
D03*
X939750Y440050D02*
D03*
X922750Y470050D02*
D03*
X602750Y437050D02*
D03*
X811750Y490050D02*
D03*
X935750Y452050D02*
D03*
X935750Y461050D02*
D03*
X592050Y456750D02*
D03*
X977750Y416050D02*
D03*
X739750Y368050D02*
D03*
X713076Y374174D02*
D03*
X748750Y327050D02*
D03*
X687750Y326050D02*
D03*
X697750Y334050D02*
D03*
X995750Y333050D02*
D03*
X1053000Y328800D02*
D03*
X756250Y369800D02*
D03*
X749076Y381600D02*
D03*
X779000Y381550D02*
D03*
X377002Y405060D02*
D03*
X382752Y448460D02*
D03*
X446669Y468626D02*
D03*
X476753Y437210D02*
D03*
X456502Y431710D02*
D03*
X470003Y355210D02*
D03*
X448252Y355960D02*
D03*
X412253Y325960D02*
D03*
X522342Y388710D02*
D03*
X670750Y431050D02*
D03*
X684250Y445550D02*
D03*
X692750Y451550D02*
D03*
X637750Y475750D02*
D03*
X703250Y480750D02*
D03*
Y467250D02*
D03*
X573750Y496050D02*
D03*
X604250Y496500D02*
D03*
X533000Y491800D02*
D03*
X506500Y501800D02*
D03*
X484253Y429210D02*
D03*
X600200Y320300D02*
D03*
X576700Y324550D02*
D03*
X562750Y339404D02*
D03*
X1003000Y477800D02*
D03*
X1010250Y463300D02*
D03*
X984500Y441300D02*
D03*
X1083000Y407050D02*
D03*
X1025500Y534800D02*
D03*
X789500Y429550D02*
D03*
X835750Y426050D02*
D03*
Y435550D02*
D03*
X924999Y410305D02*
D03*
X924000Y398550D02*
D03*
X933446Y425854D02*
D03*
X759000Y404300D02*
D03*
X800500Y410750D02*
D03*
X776750Y416300D02*
D03*
X822750Y431050D02*
D03*
X994003Y367553D02*
D03*
X962001Y405305D02*
D03*
X723250Y523550D02*
D03*
X1010000Y453550D02*
D03*
X1033250Y441550D02*
D03*
X1021500Y519550D02*
D03*
X949000Y357050D02*
D03*
X845750Y332800D02*
D03*
X801500Y315050D02*
D03*
X799750Y289050D02*
D03*
X779000Y349050D02*
D03*
X947500Y329050D02*
D03*
X970500Y359300D02*
D03*
X742250Y393050D02*
D03*
X722750Y395050D02*
D03*
X659396Y472790D02*
D03*
X1174000Y420050D02*
D03*
X556250Y331050D02*
D03*
X818750Y573300D02*
D03*
X937750Y474050D02*
D03*
X964750Y526750D02*
D03*
X884000Y559800D02*
D03*
X996000Y535550D02*
D03*
X996250Y510800D02*
D03*
X655250Y343550D02*
D03*
X611750Y353800D02*
D03*
X634000Y402300D02*
D03*
X622500Y324550D02*
D03*
X650236Y456557D02*
D03*
X513250Y345800D02*
D03*
X369750Y500800D02*
D03*
X792250Y449050D02*
D03*
X758250Y467250D02*
D03*
X668000Y525300D02*
D03*
M02*
