G04*
G04 #@! TF.GenerationSoftware,Altium Limited,CircuitStudio,1.5.2 (1.5.2.30)*
G04*
G04 Layer_Color=13948096*
%FSLAX44Y44*%
%MOMM*%
G71*
G01*
G75*
%ADD32C,0.2540*%
%ADD35C,0.2030*%
D32*
X1072483Y524684D02*
X1082480D01*
Y529682D01*
X1080814Y531348D01*
X1077482D01*
X1075815Y529682D01*
Y524684D01*
X1082480Y534680D02*
Y541345D01*
Y538013D01*
X1072483D01*
Y544677D02*
X1079148D01*
X1082480Y548009D01*
X1079148Y551342D01*
X1072483D01*
X1077482D01*
Y544677D01*
X1082480Y561339D02*
X1080814Y558006D01*
X1077482Y554674D01*
X1074149D01*
X1072483Y556340D01*
Y559672D01*
X1074149Y561339D01*
X1075815D01*
X1077482Y559672D01*
Y554674D01*
X970950Y524684D02*
X980947D01*
Y529682D01*
X979280Y531348D01*
X975948D01*
X974282Y529682D01*
Y524684D01*
Y528016D02*
X970950Y531348D01*
X979280Y541345D02*
X980947Y539679D01*
Y536347D01*
X979280Y534680D01*
X977614D01*
X975948Y536347D01*
Y539679D01*
X974282Y541345D01*
X972616D01*
X970950Y539679D01*
Y536347D01*
X972616Y534680D01*
X980947Y544677D02*
Y551342D01*
Y548009D01*
X970950D01*
X996333Y524684D02*
X1006330D01*
Y529682D01*
X1004664Y531348D01*
X1001332D01*
X999666Y529682D01*
Y524684D01*
X1006330Y534680D02*
Y541345D01*
Y538013D01*
X996333D01*
X1006330Y544677D02*
X996333D01*
Y549676D01*
X997999Y551342D01*
X999666D01*
X1001332Y549676D01*
Y544677D01*
Y549676D01*
X1002998Y551342D01*
X1004664D01*
X1006330Y549676D01*
Y544677D01*
X996333Y554674D02*
Y558006D01*
Y556340D01*
X1006330D01*
X1004664Y554674D01*
X1021717Y524684D02*
X1031713D01*
Y529682D01*
X1030047Y531348D01*
X1026715D01*
X1025049Y529682D01*
Y524684D01*
X1031713Y534680D02*
Y541345D01*
Y538013D01*
X1021717D01*
X1031713Y544677D02*
X1021717D01*
Y549676D01*
X1023383Y551342D01*
X1025049D01*
X1026715Y549676D01*
Y544677D01*
Y549676D01*
X1028381Y551342D01*
X1030047D01*
X1031713Y549676D01*
Y544677D01*
X1030047Y554674D02*
X1031713Y556340D01*
Y559672D01*
X1030047Y561339D01*
X1023383D01*
X1021717Y559672D01*
Y556340D01*
X1023383Y554674D01*
X1030047D01*
X1047100Y524684D02*
X1057097D01*
Y529682D01*
X1055431Y531348D01*
X1052098D01*
X1050432Y529682D01*
Y524684D01*
X1057097Y534680D02*
Y541345D01*
Y538013D01*
X1047100D01*
Y544677D02*
X1053764D01*
X1057097Y548009D01*
X1053764Y551342D01*
X1047100D01*
X1052098D01*
Y544677D01*
X1057097Y554674D02*
Y561339D01*
X1055431D01*
X1048766Y554674D01*
X1047100D01*
X1107863Y524684D02*
X1097867D01*
Y529682D01*
X1099533Y531348D01*
X1106197D01*
X1107863Y529682D01*
Y524684D01*
X1102865Y534680D02*
Y541345D01*
X1133247Y524684D02*
X1123250D01*
Y529682D01*
X1124916Y531348D01*
X1131580D01*
X1133247Y529682D01*
Y524684D01*
X1128248Y534680D02*
Y541345D01*
X1131580Y538013D02*
X1124916D01*
X1158547Y525750D02*
X1151882D01*
X1148550Y529082D01*
X1151882Y532414D01*
X1158547D01*
Y535747D02*
X1150216D01*
X1148550Y537413D01*
Y540745D01*
X1150216Y542411D01*
X1158547D01*
X1156880Y552408D02*
X1158547Y550742D01*
Y547410D01*
X1156880Y545743D01*
X1155214D01*
X1153548Y547410D01*
Y550742D01*
X1151882Y552408D01*
X1150216D01*
X1148550Y550742D01*
Y547410D01*
X1150216Y545743D01*
X1158547Y555740D02*
X1148550D01*
Y560739D01*
X1150216Y562405D01*
X1151882D01*
X1153548Y560739D01*
Y555740D01*
Y560739D01*
X1155214Y562405D01*
X1156880D01*
X1158547Y560739D01*
Y555740D01*
X916280Y531348D02*
X917946Y529682D01*
Y526350D01*
X916280Y524684D01*
X909616D01*
X907950Y526350D01*
Y529682D01*
X909616Y531348D01*
X912948D01*
Y528016D01*
X907950Y534680D02*
X917946D01*
X907950Y541345D01*
X917946D01*
Y544677D02*
X907950D01*
Y549676D01*
X909616Y551342D01*
X916280D01*
X917946Y549676D01*
Y544677D01*
X945780Y524684D02*
X947446Y526350D01*
Y529682D01*
X945780Y531348D01*
X944114D01*
X942448Y529682D01*
Y528016D01*
Y529682D01*
X940782Y531348D01*
X939116D01*
X937450Y529682D01*
Y526350D01*
X939116Y524684D01*
X944114Y534680D02*
X937450Y538013D01*
X944114Y541345D01*
X945780Y544677D02*
X947446Y546343D01*
Y549676D01*
X945780Y551342D01*
X944114D01*
X942448Y549676D01*
Y548009D01*
Y549676D01*
X940782Y551342D01*
X939116D01*
X937450Y549676D01*
Y546343D01*
X939116Y544677D01*
D35*
X966050Y590750D02*
X1168550D01*
X966050Y565750D02*
Y590750D01*
Y565750D02*
X1168550D01*
Y590750D01*
X956050Y565750D02*
Y590750D01*
X903550Y565750D02*
X956050D01*
X903550D02*
Y590750D01*
X956050D01*
X1205750Y565750D02*
Y623250D01*
X865750D02*
X1205750D01*
X865750Y565750D02*
Y623250D01*
Y565750D02*
X1205750D01*
X334500Y255000D02*
Y592250D01*
X1184750D01*
Y255000D02*
Y592250D01*
X334500Y255000D02*
X1184750D01*
M02*
