G04*
G04 #@! TF.GenerationSoftware,Altium Limited,CircuitStudio,1.5.2 (1.5.2.30)*
G04*
G04 Layer_Color=128*
%FSLAX44Y44*%
%MOMM*%
G71*
G01*
G75*
%ADD35C,0.2030*%
%ADD80C,0.1270*%
D35*
X334500Y255000D02*
Y592250D01*
X1184750D01*
Y255000D02*
Y592250D01*
X334500Y255000D02*
X1184750D01*
D80*
X909750Y578250D02*
X919750D01*
X914750Y573250D02*
Y583250D01*
X935150Y578250D02*
X945150D01*
X940150Y573250D02*
Y583250D01*
X1024050Y578250D02*
X1034050D01*
X1029050Y573250D02*
Y583250D01*
X1049450Y578250D02*
X1059450D01*
X1054450Y573250D02*
Y583250D01*
X1074850Y578250D02*
X1084850D01*
X1079850Y573250D02*
Y583250D01*
X1151050Y578250D02*
X1161050D01*
X1156050Y573250D02*
Y583250D01*
X998650Y578250D02*
X1008650D01*
X1003650Y573250D02*
Y583250D01*
X973250Y578250D02*
X983250D01*
X978250Y573250D02*
Y583250D01*
X1125650Y578250D02*
X1135650D01*
X1130650Y573250D02*
Y583250D01*
X1100250Y578250D02*
X1110250D01*
X1105250Y573250D02*
Y583250D01*
X707250Y566050D02*
X737250D01*
X722250Y551050D02*
Y581050D01*
X363000Y555500D02*
X393000D01*
X378000Y540500D02*
Y570500D01*
X1089150Y305050D02*
X1099150D01*
X1094150Y300050D02*
Y310050D01*
X1063750Y305050D02*
X1073750D01*
X1068750Y300050D02*
Y310050D01*
X1038350Y305050D02*
X1048350D01*
X1043350Y300050D02*
Y310050D01*
X1012950Y305050D02*
X1022950D01*
X1017950Y300050D02*
Y310050D01*
X987550Y305050D02*
X997550D01*
X992550Y300050D02*
Y310050D01*
X962150Y305050D02*
X972150D01*
X967150Y300050D02*
Y310050D01*
X1114550Y305050D02*
X1124550D01*
X1119550Y300050D02*
Y310050D01*
X1139950Y305050D02*
X1149950D01*
X1144950Y300050D02*
Y310050D01*
X885950Y305050D02*
X895950D01*
X890950Y300050D02*
Y310050D01*
X860550Y305050D02*
X870550D01*
X865550Y300050D02*
Y310050D01*
X835150Y305050D02*
X845150D01*
X840150Y300050D02*
Y310050D01*
X809750Y305050D02*
X819750D01*
X814750Y300050D02*
Y310050D01*
X784350Y305050D02*
X794350D01*
X789350Y300050D02*
Y310050D01*
X758950Y305050D02*
X768950D01*
X763950Y300050D02*
Y310050D01*
X911350Y305050D02*
X921350D01*
X916350Y300050D02*
Y310050D01*
X936750Y305050D02*
X946750D01*
X941750Y300050D02*
Y310050D01*
X682750Y305050D02*
X692750D01*
X687750Y300050D02*
Y310050D01*
X657350Y305050D02*
X667350D01*
X662350Y300050D02*
Y310050D01*
X631950Y305050D02*
X641950D01*
X636950Y300050D02*
Y310050D01*
X606550Y305050D02*
X616550D01*
X611550Y300050D02*
Y310050D01*
X581150Y305050D02*
X591150D01*
X586150Y300050D02*
Y310050D01*
X555750Y305050D02*
X565750D01*
X560750Y300050D02*
Y310050D01*
X708150Y305050D02*
X718150D01*
X713150Y300050D02*
Y310050D01*
X733550Y305050D02*
X743550D01*
X738550Y300050D02*
Y310050D01*
X479550Y305050D02*
X489550D01*
X484550Y300050D02*
Y310050D01*
X454150Y305050D02*
X464150D01*
X459150Y300050D02*
Y310050D01*
X428750Y305050D02*
X438750D01*
X433750Y300050D02*
Y310050D01*
X403350Y305050D02*
X413350D01*
X408350Y300050D02*
Y310050D01*
X377950Y305050D02*
X387950D01*
X382950Y300050D02*
Y310050D01*
X352550Y305050D02*
X362550D01*
X357550Y300050D02*
Y310050D01*
X504950Y305050D02*
X514950D01*
X509950Y300050D02*
Y310050D01*
X530350Y305050D02*
X540350D01*
X535350Y300050D02*
Y310050D01*
X834250Y445050D02*
X837250D01*
X835750Y443550D02*
Y446550D01*
X836000Y464550D02*
X839000D01*
X837500Y463050D02*
Y466050D01*
X843500Y481050D02*
X846500D01*
X845000Y479550D02*
Y482550D01*
X459750Y484000D02*
X462750D01*
X461250Y482500D02*
Y485500D01*
X497250Y275500D02*
X500250D01*
X498750Y274000D02*
Y277000D01*
X525750Y280750D02*
X528750D01*
X527250Y279250D02*
Y282250D01*
X547604Y399050D02*
X550605D01*
X549104Y397550D02*
Y400550D01*
X886500Y503750D02*
X889500D01*
X888000Y502250D02*
Y505250D01*
X873980Y481432D02*
X876980D01*
X875480Y479932D02*
Y482932D01*
X935750Y501550D02*
X938750D01*
X937250Y500050D02*
Y503050D01*
X942250Y495050D02*
X945250D01*
X943750Y493550D02*
Y496550D01*
X881250Y484000D02*
X884250D01*
X882750Y482500D02*
Y485500D01*
X681750Y499000D02*
X684750D01*
X683250Y497500D02*
Y500500D01*
X680250Y511300D02*
X683250D01*
X681750Y509800D02*
Y512800D01*
X550750Y518000D02*
X553750D01*
X552250Y516500D02*
Y519500D01*
X435650Y532150D02*
X438650D01*
X437150Y530650D02*
Y533650D01*
X435650Y544850D02*
X438650D01*
X437150Y543350D02*
Y546350D01*
X1064790Y528443D02*
X1067790D01*
X1066290Y526944D02*
Y529944D01*
X1092700Y429800D02*
X1095700D01*
X1094200Y428300D02*
Y431300D01*
X1052500Y509350D02*
X1055500D01*
X1054000Y507850D02*
Y510850D01*
X1106450Y490050D02*
X1109450D01*
X1107950Y488550D02*
Y491550D01*
X1122810Y441160D02*
X1125810D01*
X1124310Y439660D02*
Y442660D01*
X1146700Y450050D02*
X1149700D01*
X1148200Y448550D02*
Y451550D01*
X620250Y437750D02*
X623250D01*
X621750Y436250D02*
Y439250D01*
X624750Y413000D02*
X627750D01*
X626250Y411500D02*
Y414500D01*
X642500Y342500D02*
X645500D01*
X644000Y341000D02*
Y344000D01*
X655300Y401500D02*
X658300D01*
X656800Y400000D02*
Y403000D01*
X632400Y381100D02*
X635400D01*
X633900Y379600D02*
Y382600D01*
X604150Y384850D02*
X607150D01*
X605650Y383350D02*
Y386350D01*
X604000Y413000D02*
X607000D01*
X605500Y411500D02*
Y414500D01*
X557250Y540250D02*
X560250D01*
X558750Y538750D02*
Y541750D01*
X797750Y367500D02*
X800750D01*
X799250Y366000D02*
Y369000D01*
X1043250Y426500D02*
X1046250D01*
X1044750Y425000D02*
Y428000D01*
X665250Y547000D02*
X668250D01*
X666750Y545500D02*
Y548500D01*
X738000Y479152D02*
X741000D01*
X739500Y477652D02*
Y480652D01*
X724500Y478250D02*
X727500D01*
X726000Y476750D02*
Y479750D01*
X777750Y434000D02*
X780750D01*
X779250Y432500D02*
Y435500D01*
X747500Y434000D02*
X750500D01*
X749000Y432500D02*
Y435500D01*
X702000Y349250D02*
X705000D01*
X703500Y347750D02*
Y350750D01*
X721250Y348250D02*
X724250D01*
X722750Y346750D02*
Y349750D01*
X680750Y343500D02*
X683750D01*
X682250Y342000D02*
Y345000D01*
X692250Y370250D02*
X695250D01*
X693750Y368750D02*
Y371750D01*
X832500Y488250D02*
X835500D01*
X834000Y486750D02*
Y489750D01*
X928900Y340350D02*
X931900D01*
X930400Y338850D02*
Y341850D01*
X777500Y394250D02*
X780500D01*
X779000Y392750D02*
Y395750D01*
X919000Y529000D02*
X922000D01*
X920500Y527500D02*
Y530500D01*
X853750Y535500D02*
X856750D01*
X855250Y534000D02*
Y537000D01*
X832300Y534800D02*
X835300D01*
X833800Y533300D02*
Y536300D01*
X809500Y535250D02*
X812500D01*
X811000Y533750D02*
Y536750D01*
X721750Y434750D02*
X724750D01*
X723250Y433250D02*
Y436250D01*
X701750Y414098D02*
X704750D01*
X703250Y412598D02*
Y415598D01*
X699500Y404250D02*
X702500D01*
X701000Y402750D02*
Y405750D01*
X777250Y477500D02*
X780250D01*
X778750Y476000D02*
Y479000D01*
X658440Y443500D02*
X661440D01*
X659940Y442000D02*
Y445000D01*
X909700Y339550D02*
X912700D01*
X911200Y338050D02*
Y341050D01*
X737750Y414500D02*
X740750D01*
X739250Y413000D02*
Y416000D01*
X858000Y451050D02*
X861000D01*
X859500Y449550D02*
Y452550D01*
X903000Y451550D02*
X906000D01*
X904500Y450050D02*
Y453050D01*
X848500Y385000D02*
X851500D01*
X850000Y383500D02*
Y386500D01*
X968250Y472050D02*
X971250D01*
X969750Y470550D02*
Y473550D01*
X1146250Y485050D02*
X1149250D01*
X1147750Y483550D02*
Y486550D01*
X794850Y467600D02*
X797850D01*
X796350Y466100D02*
Y469100D01*
X820250Y388050D02*
X823250D01*
X821750Y386550D02*
Y389550D01*
X799000Y388000D02*
X802000D01*
X800500Y386500D02*
Y389500D01*
X809250Y410050D02*
X812250D01*
X810750Y408550D02*
Y411550D01*
X866250Y421050D02*
X869250D01*
X867750Y419550D02*
Y422550D01*
X1137250Y500050D02*
X1140250D01*
X1138750Y498550D02*
Y501550D01*
X977250Y536050D02*
X980250D01*
X978750Y534550D02*
Y537550D01*
X821250Y552050D02*
X824250D01*
X822750Y550550D02*
Y553550D01*
X884250Y393050D02*
X887250D01*
X885750Y391550D02*
Y394550D01*
X894250Y389050D02*
X897250D01*
X895750Y387550D02*
Y390550D01*
X875250Y369050D02*
X878250D01*
X876750Y367550D02*
Y370550D01*
X863790Y393050D02*
X866790D01*
X865290Y391550D02*
Y394550D01*
X877250Y388050D02*
X880250D01*
X878750Y386550D02*
Y389550D01*
X882250Y379050D02*
X885250D01*
X883750Y377550D02*
Y380550D01*
X948250Y379050D02*
X951250D01*
X949750Y377550D02*
Y380550D01*
X938250Y385050D02*
X941250D01*
X939750Y383550D02*
Y386550D01*
X933250Y392050D02*
X936250D01*
X934750Y390550D02*
Y393550D01*
X915250Y403050D02*
X918250D01*
X916750Y401550D02*
Y404550D01*
X969100Y379900D02*
X972100D01*
X970600Y378400D02*
Y381400D01*
X958250Y417050D02*
X961250D01*
X959750Y415550D02*
Y418550D01*
X968250Y321050D02*
X971250D01*
X969750Y319550D02*
Y322550D01*
X1035000Y395050D02*
X1038000D01*
X1036500Y393550D02*
Y396550D01*
X1061250Y376050D02*
X1064250D01*
X1062750Y374550D02*
Y377550D01*
X1036250Y376050D02*
X1039250D01*
X1037750Y374550D02*
Y377550D01*
X983070Y325870D02*
X986070D01*
X984570Y324370D02*
Y327370D01*
X938250Y440050D02*
X941250D01*
X939750Y438550D02*
Y441550D01*
X921250Y470050D02*
X924250D01*
X922750Y468550D02*
Y471550D01*
X601250Y437050D02*
X604250D01*
X602750Y435550D02*
Y438550D01*
X810250Y490050D02*
X813250D01*
X811750Y488550D02*
Y491550D01*
X934250Y452050D02*
X937250D01*
X935750Y450550D02*
Y453550D01*
X934250Y461050D02*
X937250D01*
X935750Y459550D02*
Y462550D01*
X590550Y456750D02*
X593550D01*
X592050Y455250D02*
Y458250D01*
X976250Y416050D02*
X979250D01*
X977750Y414550D02*
Y417550D01*
X738250Y368050D02*
X741250D01*
X739750Y366550D02*
Y369550D01*
X711576Y374174D02*
X714576D01*
X713076Y372674D02*
Y375674D01*
X747250Y327050D02*
X750250D01*
X748750Y325550D02*
Y328550D01*
X686250Y326050D02*
X689250D01*
X687750Y324550D02*
Y327550D01*
X696250Y334050D02*
X699250D01*
X697750Y332550D02*
Y335550D01*
X994250Y333050D02*
X997250D01*
X995750Y331550D02*
Y334550D01*
X1051500Y328800D02*
X1054500D01*
X1053000Y327300D02*
Y330300D01*
X754750Y369800D02*
X757750D01*
X756250Y368300D02*
Y371300D01*
X747576Y381600D02*
X750576D01*
X749076Y380100D02*
Y383100D01*
X777500Y381550D02*
X780500D01*
X779000Y380050D02*
Y383050D01*
X375503Y405060D02*
X378503D01*
X377002Y403560D02*
Y406560D01*
X381253Y448460D02*
X384253D01*
X382752Y446960D02*
Y449960D01*
X445169Y468626D02*
X448169D01*
X446669Y467126D02*
Y470126D01*
X475253Y437210D02*
X478253D01*
X476753Y435710D02*
Y438710D01*
X455003Y431710D02*
X458003D01*
X456502Y430210D02*
Y433210D01*
X468503Y355210D02*
X471502D01*
X470003Y353710D02*
Y356710D01*
X446753Y355960D02*
X449753D01*
X448252Y354460D02*
Y357460D01*
X410752Y325960D02*
X413753D01*
X412253Y324460D02*
Y327460D01*
X520842Y388710D02*
X523842D01*
X522342Y387210D02*
Y390210D01*
X669250Y431050D02*
X672250D01*
X670750Y429550D02*
Y432550D01*
X682750Y445550D02*
X685750D01*
X684250Y444050D02*
Y447050D01*
X691250Y451550D02*
X694250D01*
X692750Y450050D02*
Y453050D01*
X636250Y475750D02*
X639250D01*
X637750Y474250D02*
Y477250D01*
X701750Y480750D02*
X704750D01*
X703250Y479250D02*
Y482250D01*
X701750Y467250D02*
X704750D01*
X703250Y465750D02*
Y468750D01*
X572250Y496050D02*
X575250D01*
X573750Y494550D02*
Y497550D01*
X602750Y496500D02*
X605750D01*
X604250Y495000D02*
Y498000D01*
X531500Y491800D02*
X534500D01*
X533000Y490300D02*
Y493300D01*
X505000Y501800D02*
X508000D01*
X506500Y500300D02*
Y503300D01*
X482753Y429210D02*
X485752D01*
X484253Y427710D02*
Y430710D01*
X598700Y320300D02*
X601700D01*
X600200Y318800D02*
Y321800D01*
X575200Y324550D02*
X578200D01*
X576700Y323050D02*
Y326050D01*
X561250Y339404D02*
X564250D01*
X562750Y337904D02*
Y340904D01*
X1001500Y477800D02*
X1004500D01*
X1003000Y476300D02*
Y479300D01*
X1008750Y463300D02*
X1011750D01*
X1010250Y461800D02*
Y464800D01*
X983000Y441300D02*
X986000D01*
X984500Y439800D02*
Y442800D01*
X1081500Y407050D02*
X1084500D01*
X1083000Y405550D02*
Y408550D01*
X1024000Y534800D02*
X1027000D01*
X1025500Y533300D02*
Y536300D01*
X788000Y429550D02*
X791000D01*
X789500Y428050D02*
Y431050D01*
X834250Y426050D02*
X837250D01*
X835750Y424550D02*
Y427550D01*
X834250Y435550D02*
X837250D01*
X835750Y434050D02*
Y437050D01*
X923499Y410305D02*
X926499D01*
X924999Y408805D02*
Y411805D01*
X922500Y398550D02*
X925500D01*
X924000Y397050D02*
Y400050D01*
X931946Y425854D02*
X934946D01*
X933446Y424354D02*
Y427354D01*
X757500Y404300D02*
X760500D01*
X759000Y402800D02*
Y405800D01*
X799000Y410750D02*
X802000D01*
X800500Y409250D02*
Y412250D01*
X775250Y416300D02*
X778250D01*
X776750Y414800D02*
Y417800D01*
X821250Y431050D02*
X824250D01*
X822750Y429550D02*
Y432550D01*
X992503Y367553D02*
X995503D01*
X994003Y366053D02*
Y369053D01*
X960501Y405305D02*
X963501D01*
X962001Y403805D02*
Y406805D01*
X721750Y523550D02*
X724750D01*
X723250Y522050D02*
Y525050D01*
X1008500Y453550D02*
X1011500D01*
X1010000Y452050D02*
Y455050D01*
X1031750Y441550D02*
X1034750D01*
X1033250Y440050D02*
Y443050D01*
X1020000Y519550D02*
X1023000D01*
X1021500Y518050D02*
Y521050D01*
X947500Y357050D02*
X950500D01*
X949000Y355550D02*
Y358550D01*
X844250Y332800D02*
X847250D01*
X845750Y331300D02*
Y334300D01*
X800000Y315050D02*
X803000D01*
X801500Y313550D02*
Y316550D01*
X798250Y289050D02*
X801250D01*
X799750Y287550D02*
Y290550D01*
X777500Y349050D02*
X780500D01*
X779000Y347550D02*
Y350550D01*
X946000Y329050D02*
X949000D01*
X947500Y327550D02*
Y330550D01*
X969000Y359300D02*
X972000D01*
X970500Y357800D02*
Y360800D01*
X740750Y393050D02*
X743750D01*
X742250Y391550D02*
Y394550D01*
X721250Y395050D02*
X724250D01*
X722750Y393550D02*
Y396550D01*
X657896Y472790D02*
X660896D01*
X659396Y471290D02*
Y474290D01*
X1172500Y420050D02*
X1175500D01*
X1174000Y418550D02*
Y421550D01*
X554750Y331050D02*
X557750D01*
X556250Y329550D02*
Y332550D01*
X817250Y573300D02*
X820250D01*
X818750Y571800D02*
Y574800D01*
X936250Y474050D02*
X939250D01*
X937750Y472550D02*
Y475550D01*
X963250Y526750D02*
X966250D01*
X964750Y525250D02*
Y528250D01*
X882500Y559800D02*
X885500D01*
X884000Y558300D02*
Y561300D01*
X994500Y535550D02*
X997500D01*
X996000Y534050D02*
Y537050D01*
X994750Y510800D02*
X997750D01*
X996250Y509300D02*
Y512300D01*
X653750Y343550D02*
X656750D01*
X655250Y342050D02*
Y345050D01*
X610250Y353800D02*
X613250D01*
X611750Y352300D02*
Y355300D01*
X632500Y402300D02*
X635500D01*
X634000Y400800D02*
Y403800D01*
X621000Y324550D02*
X624000D01*
X622500Y323050D02*
Y326050D01*
X648736Y456557D02*
X651736D01*
X650236Y455057D02*
Y458057D01*
X511750Y345800D02*
X514750D01*
X513250Y344300D02*
Y347300D01*
X368250Y500800D02*
X371250D01*
X369750Y499300D02*
Y502300D01*
X790750Y449050D02*
X793750D01*
X792250Y447550D02*
Y450550D01*
X756750Y467250D02*
X759750D01*
X758250Y465750D02*
Y468750D01*
X666500Y525300D02*
X669500D01*
X668000Y523800D02*
Y526800D01*
M02*
