G04*
G04 #@! TF.GenerationSoftware,Altium Limited,CircuitStudio,1.5.2 (1.5.2.30)*
G04*
G04 Layer_Color=16764230*
%FSLAX44Y44*%
%MOMM*%
G71*
G01*
G75*
%ADD32C,0.2540*%
%ADD35C,0.2030*%
%ADD75C,0.0000*%
D32*
X1071500Y480500D02*
G03*
X1071500Y480500I-5000J0D01*
G01*
X1126000D02*
G03*
X1126000Y480500I-5000J0D01*
G01*
X1051950Y480550D02*
G03*
X1051950Y480550I-5000J0D01*
G01*
X563700Y539700D02*
G03*
X563700Y539700I-5000J0D01*
G01*
X935400Y359500D02*
G03*
X935400Y359500I-5000J0D01*
G01*
X820100Y467600D02*
G03*
X820100Y467600I-5000J0D01*
G01*
X629190Y547330D02*
G03*
X629190Y547330I-5000J0D01*
G01*
X629190Y525330D02*
G03*
X629190Y525330I-5000J0D01*
G01*
X526842Y408710D02*
G03*
X526842Y408710I-5000J0D01*
G01*
X582000Y377000D02*
G03*
X582000Y377000I-5000J0D01*
G01*
X610650Y413000D02*
G03*
X610650Y413000I-5000J0D01*
G01*
X582000Y344700D02*
G03*
X582000Y344700I-5000J0D01*
G01*
X605100Y344750D02*
G03*
X605100Y344750I-5000J0D01*
G01*
X628200Y344700D02*
G03*
X628200Y344700I-5000J0D01*
G01*
X1051000Y426000D02*
G03*
X1051000Y426000I-5000J0D01*
G01*
Y406000D02*
G03*
X1051000Y406000I-5000J0D01*
G01*
X754000Y381600D02*
G03*
X754000Y381600I-5000J0D01*
G01*
Y447600D02*
G03*
X754000Y447600I-5000J0D01*
G01*
X718000Y381600D02*
G03*
X718000Y381600I-5000J0D01*
G01*
Y447600D02*
G03*
X718000Y447600I-5000J0D01*
G01*
X784000Y348600D02*
G03*
X784000Y348600I-5000J0D01*
G01*
X783250Y414750D02*
G03*
X783250Y414750I-5000J0D01*
G01*
X688000Y343600D02*
G03*
X688000Y343600I-5000J0D01*
G01*
Y422100D02*
G03*
X688000Y422100I-5000J0D01*
G01*
X954600Y359500D02*
G03*
X954600Y359500I-5000J0D01*
G01*
X899100Y503900D02*
G03*
X899100Y503900I-5000J0D01*
G01*
X964300Y395800D02*
G03*
X964300Y395800I-5000J0D01*
G01*
X919100Y503900D02*
G03*
X919100Y503900I-5000J0D01*
G01*
X754000Y507600D02*
G03*
X754000Y507600I-5000J0D01*
G01*
X718000D02*
G03*
X718000Y507600I-5000J0D01*
G01*
X784000Y478600D02*
G03*
X784000Y478600I-5000J0D01*
G01*
X688000D02*
G03*
X688000Y478600I-5000J0D01*
G01*
X964900Y438700D02*
G03*
X964900Y438700I-5000J0D01*
G01*
X626700Y456798D02*
G03*
X626700Y456798I-5000J0D01*
G01*
X606900Y456800D02*
G03*
X606900Y456800I-5000J0D01*
G01*
X579000Y496000D02*
G03*
X579000Y496000I-5000J0D01*
G01*
X567600Y457000D02*
G03*
X567600Y457000I-5000J0D01*
G01*
X586800Y456800D02*
G03*
X586800Y456800I-5000J0D01*
G01*
X664800Y496000D02*
G03*
X664800Y496000I-5000J0D01*
G01*
X795653Y510900D02*
G03*
X795653Y510900I-5000J0D01*
G01*
X485503Y409210D02*
G03*
X485503Y409210I-5000J0D01*
G01*
X462002Y436960D02*
G03*
X462002Y436960I-5000J0D01*
G01*
X804250Y348500D02*
G03*
X804250Y348500I-5000J0D01*
G01*
X896750Y359550D02*
G03*
X896750Y359550I-5000J0D01*
G01*
X915950D02*
G03*
X915950Y359550I-5000J0D01*
G01*
X382002Y389210D02*
G03*
X382002Y389210I-5000J0D01*
G01*
X381952Y420960D02*
G03*
X381952Y420960I-5000J0D01*
G01*
X848250Y552050D02*
G03*
X848250Y552050I-5000J0D01*
G01*
X418503Y423460D02*
G03*
X418503Y423460I-5000J0D01*
G01*
Y386710D02*
G03*
X418503Y386710I-5000J0D01*
G01*
X1061500Y480500D02*
X1071500D01*
X1066500Y475500D02*
Y485500D01*
X1116000Y480500D02*
X1126000D01*
X1121000Y475500D02*
Y485500D01*
X1041950Y480550D02*
X1051950D01*
X1046950Y475550D02*
Y485550D01*
X553700Y539700D02*
X563700D01*
X558700Y534700D02*
Y544700D01*
X925400Y359500D02*
X935400D01*
X930400Y354500D02*
Y364500D01*
X815100Y462600D02*
Y472600D01*
X810100Y467600D02*
X820100D01*
X624190Y542330D02*
Y552330D01*
X619190Y547330D02*
X629190D01*
X624190Y520330D02*
Y530330D01*
X619190Y525330D02*
X629190D01*
X516842Y408710D02*
X526842D01*
X521842Y403710D02*
Y413710D01*
X572000Y377000D02*
X582000D01*
X577000Y372000D02*
Y382000D01*
X605650Y408000D02*
Y418000D01*
X600650Y413000D02*
X610650D01*
X572000Y344700D02*
X582000D01*
X577000Y339700D02*
Y349700D01*
X595100Y344750D02*
X605100D01*
X600100Y339750D02*
Y349750D01*
X618200Y344700D02*
X628200D01*
X623200Y339700D02*
Y349700D01*
X1046000Y421000D02*
Y431000D01*
X1041000Y426000D02*
X1051000D01*
X1046000Y401000D02*
Y411000D01*
X1041000Y406000D02*
X1051000D01*
X749000Y376600D02*
Y386600D01*
X744000Y381600D02*
X754000D01*
X749000Y442600D02*
Y452600D01*
X744000Y447600D02*
X754000D01*
X713000Y376600D02*
Y386600D01*
X708000Y381600D02*
X718000D01*
X713000Y442600D02*
Y452600D01*
X708000Y447600D02*
X718000D01*
X774000Y348600D02*
X784000D01*
X779000Y343600D02*
Y353600D01*
X773250Y414750D02*
X783250D01*
X778250Y409750D02*
Y419750D01*
X678000Y343600D02*
X688000D01*
X683000Y338600D02*
Y348600D01*
X678000Y422100D02*
X688000D01*
X683000Y417100D02*
Y427100D01*
X944600Y359500D02*
X954600D01*
X949600Y354500D02*
Y364500D01*
X889100Y503900D02*
X899100D01*
X894100Y498900D02*
Y508900D01*
X959300Y390800D02*
Y400800D01*
X954300Y395800D02*
X964300D01*
X909100Y503900D02*
X919100D01*
X914100Y498900D02*
Y508900D01*
X749000Y502600D02*
Y512600D01*
X744000Y507600D02*
X754000D01*
X713000Y502600D02*
Y512600D01*
X708000Y507600D02*
X718000D01*
X774000Y478600D02*
X784000D01*
X779000Y473600D02*
Y483600D01*
X678000Y478600D02*
X688000D01*
X683000Y473600D02*
Y483600D01*
X959900Y433700D02*
Y443700D01*
X954900Y438700D02*
X964900D01*
X616700Y456798D02*
X626700D01*
X621700Y451798D02*
Y461798D01*
X596900Y456800D02*
X606900D01*
X601900Y451800D02*
Y461800D01*
X569000Y496000D02*
X579000D01*
X574000Y491000D02*
Y501000D01*
X557600Y457000D02*
X567600D01*
X562600Y452000D02*
Y462000D01*
X576800Y456800D02*
X586800D01*
X581800Y451800D02*
Y461800D01*
X654800Y496000D02*
X664800D01*
X659800Y491000D02*
Y501000D01*
X785653Y510900D02*
X795653D01*
X790653Y505900D02*
Y515900D01*
X475503Y409210D02*
X485503D01*
X480503Y404210D02*
Y414210D01*
X457002Y431960D02*
Y441960D01*
X452002Y436960D02*
X462002D01*
X799250Y343500D02*
Y353500D01*
X794250Y348500D02*
X804250D01*
X891750Y354550D02*
Y364550D01*
X886750Y359550D02*
X896750D01*
X910950Y354550D02*
Y364550D01*
X905950Y359550D02*
X915950D01*
X377002Y384210D02*
Y394210D01*
X372002Y389210D02*
X382002D01*
X376952Y415960D02*
Y425960D01*
X371952Y420960D02*
X381952D01*
X838250Y552050D02*
X848250D01*
X843250Y547050D02*
Y557050D01*
X408503Y423460D02*
X418503D01*
X413503Y418460D02*
Y428460D01*
X408503Y386710D02*
X418503D01*
X413503Y381710D02*
Y391710D01*
D35*
X334500Y255000D02*
Y592250D01*
X1184750D01*
Y255000D02*
Y592250D01*
X334500Y255000D02*
X1184750D01*
D75*
X846186Y474114D02*
X917814D01*
Y402486D02*
Y474114D01*
X846186Y402486D02*
X917814D01*
X846186D02*
Y474114D01*
X907908Y402486D02*
X910956D01*
X903082D02*
X905876D01*
X898002D02*
X901050D01*
X892922D02*
X895970D01*
X888096D02*
X890890D01*
X883016D02*
X886064D01*
X877936D02*
X880984D01*
X873110D02*
X875904D01*
X868030D02*
X871078D01*
X862950D02*
X865998D01*
X858124D02*
X860918D01*
X853044D02*
X856092D01*
X846186Y409344D02*
Y412392D01*
Y414424D02*
Y417218D01*
Y419250D02*
Y422298D01*
Y424330D02*
Y427378D01*
Y429410D02*
Y432204D01*
Y434236D02*
Y437284D01*
Y439316D02*
Y442364D01*
Y444396D02*
Y447190D01*
Y449222D02*
Y452270D01*
Y454302D02*
Y457350D01*
Y459382D02*
Y462176D01*
Y464208D02*
Y467256D01*
X853044Y474114D02*
X856092D01*
X858124D02*
X860918D01*
X862950D02*
X865998D01*
X868030D02*
X871078D01*
X873110D02*
X875904D01*
X877936D02*
X880984D01*
X883016D02*
X886064D01*
X888096D02*
X890890D01*
X892922D02*
X895970D01*
X898002D02*
X901050D01*
X903082D02*
X905876D01*
X907908D02*
X910956D01*
X917814Y464208D02*
Y467256D01*
Y459382D02*
Y462176D01*
Y454302D02*
Y457350D01*
Y449222D02*
Y452270D01*
Y444396D02*
Y447190D01*
Y439316D02*
Y442364D01*
Y434236D02*
Y437284D01*
Y429410D02*
Y432204D01*
Y424330D02*
Y427378D01*
Y419250D02*
Y422298D01*
Y414424D02*
Y417218D01*
Y409344D02*
Y412392D01*
X905114Y474114D02*
X917814Y461414D01*
M02*
