G04*
G04 #@! TF.GenerationSoftware,Altium Limited,CircuitStudio,1.5.2 (1.5.2.30)*
G04*
G04 Layer_Color=7318015*
%FSLAX44Y44*%
%MOMM*%
G71*
G01*
G75*
%ADD10R,1.3000X1.6000*%
%ADD11O,2.2000X0.6000*%
%ADD12R,0.9144X0.8128*%
%ADD13R,1.3000X0.7000*%
%ADD14R,1.0000X1.5240*%
%ADD15R,1.6000X1.3000*%
%ADD16C,1.2700*%
%ADD17R,1.5240X1.0000*%
%ADD18R,0.7000X1.3000*%
%ADD19R,1.0000X0.6000*%
%ADD20R,0.6000X1.0000*%
%ADD21R,0.8128X0.9144*%
%ADD22R,2.0000X2.0000*%
%ADD23R,2.0000X0.8000*%
%ADD24R,5.5880X5.5880*%
%ADD25R,0.8128X0.3048*%
%ADD26R,0.3048X0.8128*%
%ADD27R,0.6500X0.9000*%
G04:AMPARAMS|DCode=28|XSize=1.4mm|YSize=1.2mm|CornerRadius=0mm|HoleSize=0mm|Usage=FLASHONLY|Rotation=315.000|XOffset=0mm|YOffset=0mm|HoleType=Round|Shape=Rectangle|*
%AMROTATEDRECTD28*
4,1,4,-0.9192,0.0707,-0.0707,0.9192,0.9192,-0.0707,0.0707,-0.9192,-0.9192,0.0707,0.0*
%
%ADD28ROTATEDRECTD28*%

%ADD35C,0.2030*%
D10*
X480250Y499500D02*
D03*
X461250D02*
D03*
X874300Y521700D02*
D03*
X855300D02*
D03*
X874300Y499200D02*
D03*
X855300D02*
D03*
X951250Y527750D02*
D03*
X932250D02*
D03*
D11*
X459000Y557550D02*
D03*
Y544850D02*
D03*
Y532150D02*
D03*
Y519450D02*
D03*
X507000Y557550D02*
D03*
Y544850D02*
D03*
Y532150D02*
D03*
Y519450D02*
D03*
D12*
X1104788Y480626D02*
D03*
X1083612Y470974D02*
D03*
Y490126D02*
D03*
X639612Y419724D02*
D03*
X660788Y429376D02*
D03*
Y410224D02*
D03*
X660688Y456476D02*
D03*
X639512Y446824D02*
D03*
Y465976D02*
D03*
X872162Y558126D02*
D03*
Y538974D02*
D03*
X893338Y548626D02*
D03*
D13*
X1066500Y471000D02*
D03*
Y490000D02*
D03*
X1121000D02*
D03*
Y471000D02*
D03*
X1046950Y490050D02*
D03*
Y471050D02*
D03*
X558700Y549200D02*
D03*
Y530200D02*
D03*
X930400Y369000D02*
D03*
Y350000D02*
D03*
X521842Y399210D02*
D03*
Y418210D02*
D03*
X577000Y386500D02*
D03*
Y367500D02*
D03*
Y335200D02*
D03*
Y354200D02*
D03*
X600100Y354250D02*
D03*
Y335250D02*
D03*
X623200Y354200D02*
D03*
Y335200D02*
D03*
X779000Y339100D02*
D03*
Y358100D02*
D03*
X778250Y405250D02*
D03*
Y424250D02*
D03*
X683000Y334100D02*
D03*
Y353100D02*
D03*
Y412600D02*
D03*
Y431600D02*
D03*
X949600Y350000D02*
D03*
Y369000D02*
D03*
X894100Y513400D02*
D03*
Y494400D02*
D03*
X914100D02*
D03*
Y513400D02*
D03*
X779000Y469100D02*
D03*
Y488100D02*
D03*
X683000Y469100D02*
D03*
Y488100D02*
D03*
X621700Y447298D02*
D03*
Y466298D02*
D03*
X601900Y466300D02*
D03*
Y447300D02*
D03*
X574000Y486500D02*
D03*
Y505500D02*
D03*
X562600Y447500D02*
D03*
Y466500D02*
D03*
X581800Y447300D02*
D03*
Y466300D02*
D03*
X659800Y505500D02*
D03*
Y486500D02*
D03*
X790653Y520400D02*
D03*
Y501400D02*
D03*
X480503Y418710D02*
D03*
Y399710D02*
D03*
X799250Y358000D02*
D03*
Y339000D02*
D03*
X891750Y350050D02*
D03*
Y369050D02*
D03*
X910950Y350050D02*
D03*
Y369050D02*
D03*
X377002Y379710D02*
D03*
Y398710D02*
D03*
X376952Y430460D02*
D03*
Y411460D02*
D03*
D14*
X1104410Y509550D02*
D03*
X1084090D02*
D03*
X449092Y372460D02*
D03*
X469412D02*
D03*
X578940Y548100D02*
D03*
X599260D02*
D03*
X579030Y525330D02*
D03*
X599350D02*
D03*
X1045970Y509550D02*
D03*
X1066290D02*
D03*
X804640Y446700D02*
D03*
X824960D02*
D03*
X969460Y416800D02*
D03*
X949140D02*
D03*
X1138040Y421800D02*
D03*
X1158360D02*
D03*
X970060Y459700D02*
D03*
X949740D02*
D03*
X1137840Y445000D02*
D03*
X1158160D02*
D03*
X853222Y573514D02*
D03*
X832902D02*
D03*
D15*
X428253Y449460D02*
D03*
Y468460D02*
D03*
X656800Y372216D02*
D03*
Y391216D02*
D03*
X652200Y527600D02*
D03*
Y546600D02*
D03*
X577000Y422200D02*
D03*
Y403200D02*
D03*
X1097000Y382500D02*
D03*
Y363500D02*
D03*
X822750Y419550D02*
D03*
Y400550D02*
D03*
X833800Y502200D02*
D03*
Y521200D02*
D03*
X552400Y505500D02*
D03*
Y486500D02*
D03*
X502003Y418210D02*
D03*
Y399210D02*
D03*
D16*
X498252Y459710D02*
D03*
X1166250Y512550D02*
D03*
X624200Y572300D02*
D03*
D17*
X680750Y371522D02*
D03*
Y391842D02*
D03*
X368753Y448800D02*
D03*
Y469120D02*
D03*
X638100Y485840D02*
D03*
Y506160D02*
D03*
X633900Y391910D02*
D03*
Y371590D02*
D03*
X1035000Y329640D02*
D03*
Y349960D02*
D03*
X1035000Y386160D02*
D03*
Y365840D02*
D03*
X1082750Y420460D02*
D03*
Y440780D02*
D03*
X800050Y399924D02*
D03*
Y420244D02*
D03*
X970600Y349340D02*
D03*
Y369660D02*
D03*
X1106000Y441160D02*
D03*
Y420840D02*
D03*
X811250Y522160D02*
D03*
Y501840D02*
D03*
D18*
X805600Y467600D02*
D03*
X824600D02*
D03*
X614690Y547330D02*
D03*
X633690D02*
D03*
X633690Y525330D02*
D03*
X614690D02*
D03*
X596150Y413000D02*
D03*
X615150D02*
D03*
X1055500Y426000D02*
D03*
X1036500D02*
D03*
Y406000D02*
D03*
X1055500D02*
D03*
X758500Y381600D02*
D03*
X739500D02*
D03*
X758500Y447600D02*
D03*
X739500D02*
D03*
X703500Y381600D02*
D03*
X722500D02*
D03*
X703500Y447600D02*
D03*
X722500D02*
D03*
X968800Y395800D02*
D03*
X949800D02*
D03*
X758500Y507600D02*
D03*
X739500D02*
D03*
X703500D02*
D03*
X722500D02*
D03*
X969400Y438700D02*
D03*
X950400D02*
D03*
X447503Y436960D02*
D03*
X466502D02*
D03*
X833750Y552050D02*
D03*
X852750D02*
D03*
X423003Y423460D02*
D03*
X404002D02*
D03*
X423003Y386710D02*
D03*
X404002D02*
D03*
D19*
X592538Y507130D02*
D03*
Y497630D02*
D03*
Y488130D02*
D03*
X618542D02*
D03*
Y507130D02*
D03*
D20*
X466002Y419212D02*
D03*
X456502D02*
D03*
X447003D02*
D03*
Y393208D02*
D03*
X466002D02*
D03*
X615150Y394502D02*
D03*
X605650D02*
D03*
X596150D02*
D03*
Y368498D02*
D03*
X615150D02*
D03*
X1138500Y463998D02*
D03*
X1148000D02*
D03*
X1157500D02*
D03*
Y490002D02*
D03*
X1138500D02*
D03*
D21*
X421926Y360048D02*
D03*
X431578Y338872D02*
D03*
X412426D02*
D03*
X398329Y448122D02*
D03*
X388676Y469298D02*
D03*
X407828D02*
D03*
X654124Y353888D02*
D03*
X663776Y332712D02*
D03*
X644624D02*
D03*
X749076Y338012D02*
D03*
X739424Y359188D02*
D03*
X758576D02*
D03*
X749076Y404012D02*
D03*
X739424Y425188D02*
D03*
X758576D02*
D03*
X713076Y338012D02*
D03*
X703424Y359188D02*
D03*
X722576D02*
D03*
X749076Y468012D02*
D03*
X739424Y489188D02*
D03*
X758576D02*
D03*
X713076Y468012D02*
D03*
X703424Y489188D02*
D03*
X722576D02*
D03*
X713076Y404012D02*
D03*
X703424Y425188D02*
D03*
X722576D02*
D03*
D22*
X1125000Y356000D02*
D03*
Y396000D02*
D03*
D23*
X1155000Y404000D02*
D03*
Y384000D02*
D03*
D24*
X882000Y438300D02*
D03*
D25*
X916798Y465732D02*
D03*
Y460906D02*
D03*
Y455826D02*
D03*
Y450746D02*
D03*
Y445920D02*
D03*
Y440840D02*
D03*
Y435760D02*
D03*
Y430680D02*
D03*
Y425854D02*
D03*
Y420774D02*
D03*
Y415694D02*
D03*
Y410868D02*
D03*
X847202D02*
D03*
Y415694D02*
D03*
Y420774D02*
D03*
Y425854D02*
D03*
Y430680D02*
D03*
Y435760D02*
D03*
Y440840D02*
D03*
Y445920D02*
D03*
Y450746D02*
D03*
Y455826D02*
D03*
Y460906D02*
D03*
Y465732D02*
D03*
D26*
X909432Y403502D02*
D03*
X904606D02*
D03*
X899526D02*
D03*
X894446D02*
D03*
X889620D02*
D03*
X884540D02*
D03*
X879460D02*
D03*
X874380D02*
D03*
X869554D02*
D03*
X864474D02*
D03*
X859394D02*
D03*
X854568D02*
D03*
Y473098D02*
D03*
X859394D02*
D03*
X864474D02*
D03*
X869554D02*
D03*
X874380D02*
D03*
X879460D02*
D03*
X884540D02*
D03*
X889620D02*
D03*
X904606D02*
D03*
X909432D02*
D03*
X894446D02*
D03*
X899526D02*
D03*
D27*
X1075000Y388000D02*
D03*
X1065500D02*
D03*
X1056000D02*
D03*
Y364000D02*
D03*
X1065500D02*
D03*
X1075000D02*
D03*
D28*
X854521Y342765D02*
D03*
X838965Y358321D02*
D03*
X865835Y354079D02*
D03*
X850279Y369635D02*
D03*
D35*
X334500Y255000D02*
Y592250D01*
X1184750D01*
Y255000D02*
Y592250D01*
X334500Y255000D02*
X1184750D01*
M02*
