M48
;Layer_Color=6321
;FILE_FORMAT=4:4
METRIC,LZ
;TYPE=PLATED
T1F00S00C0.3000
T2F00S00C1.0000
;TYPE=NON_PLATED
T3F00S00C3.0000
%
T01
X00412253Y0032596
X00448252Y0035596
X00470003Y0035521
X0051325Y003458
X00522342Y0038871
X0060565Y0038485
X006339Y003811
X00644Y003425
X0065525Y0034355
X0068225Y003435
X0068775Y0032605
X0069775Y0033405
X007035Y0034925
X0072275Y0034825
X00713076Y00374174
X0069375Y0037025
X0073975Y0036805
X0075625Y003698
X00749076Y003816
X0074225Y0039305
X0072275Y0039505
X00779Y0039425
Y0038155
X00779Y0034905
X0074875Y0032705
X006225Y0032455
X006002Y003203
X005767Y0032455
X0055625Y0033105
X0056275Y00339404
X0061175Y003538
X0052725Y0028075
X0049875Y002755
X0079975Y0028905
X008015Y0031505
X0079925Y003675
X008005Y00388
X0082175Y0038805
X0085Y00385
X0086529Y0039305
X0087875Y0038805
X0088575Y0039305
X0089575Y0038905
X0088375Y0037905
X0087675Y0036905
X009112Y0033955
X009304Y0034035
X009475Y0032905
X00949Y0035705
X0094975Y0037905
X0093975Y0038505
X0093475Y0039205
X009706Y003799
X009705Y003593
X00994003Y00367553
X0099575Y0033305
X0098457Y0032587
X0096975Y0032105
X01053Y003288
X0106275Y0037605
X0103775
X010365Y0039505
X0084575Y003328
X0083575Y0042605
Y0043555
Y0044505
X008375Y0046455
X00845Y0048105
X00834Y0048825
X0081175Y0049005
X0079635Y004676
X008005Y0041075
X0081075Y0041005
X0082275Y0043105
X0086775Y0042105
X008595Y0045105
X009045Y0045155
X0093575Y0045205
X0093575Y0046105
X0093775Y0047405
X0092275Y0047005
X0093725Y0050155
X0094375Y0049505
X0096975Y0047205
X01003Y004778
X0101025Y004633
X0101Y0045355
X0103325Y0044155
X0104475Y004265
X010942Y004298
X01083Y0040705
X0112431Y0044116
X011482Y0045005
X0114775Y0048505
X0113875Y0050005
X0110795Y0049005
X01054Y0050935
X0106629Y00528443
X010255Y005348
X010215Y0051955
X0099625Y005108
X00996Y0053555
X0097875Y0053605
X0096475Y0052675
X009205Y00529
X00888Y0050375
X0088275Y00484
X0087548Y00481432
X0085525Y005355
X008338Y005348
X00811Y0053525
X0082275Y0055205
X0081875Y005733
X00884Y005598
X0093975Y0044005
X00933446Y00425854
X00924999Y00410305
X00924Y0039855
X0091675Y0040305
X00962001Y00405305
X0095975Y0041705
X0097775Y0041605
X009845Y004413
X01174Y0042005
X007895Y0042955
X0077925Y00434
X0077675Y004163
X00759Y004043
X0073925Y004145
X00749Y00434
X0072325Y0043475
X0070325Y00414098
X00701Y0040425
X006568Y004015
X00634Y004023
X0062625Y00413
X006055Y00413
X0060275Y0043705
X0062175Y0043775
X0065994Y004435
X00650236Y00456557
X00659396Y0047279
X0063775Y0047575
X0060425Y004965
X0057375Y0049605
X0055225Y00518
X0055875Y0054025
X00533Y004918
X005065Y005018
X0046125Y00484
X00446669Y00468626
X00456502Y0043171
X00476753Y0043721
X00484253Y0042921
X00549104Y0039905
X0059205Y0045675
X0068425Y0044555
X0069275Y0045155
X0070325Y0046725
Y0048075
X00726Y0047825
X007395Y00479152
X0075825Y0046725
X0077875Y004775
X0079225Y0044905
X0067075Y0043105
X0068325Y00499
X0068175Y005113
X00668Y005253
X0066675Y00547
X0072325Y0052355
X0043715Y0053215
Y0054485
X0036975Y005008
X00382752Y0044846
X00377002Y0040506
T02
X0035755Y0030505
X0038295
X0040835
X0043375
X0045915
X0048455
X0050995
X0053535
X0056075
X0058615
X0061155
X0063695
X0066235
X0068775
X0071315
X0073855
X0076395
X0078935
X0081475
X0084015
X0086555
X0089095
X0091635
X0094175
X0096715
X0099255
X0101795
X0104335
X0106875
X0109415
X0111955
X0114495
X0115605Y0057825
X0113065
X0110525
X0107985
X0105445
X0102905
X0100365
X0097825
X0094015
X0091475
T03
X0072225Y0056605
X00378Y005555
M30
