G04*
G04 #@! TF.GenerationSoftware,Altium Limited,CircuitStudio,1.5.2 (1.5.2.30)*
G04*
G04 Layer_Physical_Order=4*
G04 Layer_Color=12500520*
%FSLAX44Y44*%
%MOMM*%
G71*
G01*
G75*
%ADD29C,0.2500*%
%ADD31C,0.5000*%
%ADD32C,0.2540*%
%ADD35C,0.2030*%
%ADD36C,1.5240*%
%ADD37R,1.5240X1.5240*%
%ADD38C,3.0000*%
%ADD39C,0.6000*%
G36*
X1180250Y586402D02*
Y260447D01*
X1179352Y259550D01*
X339250Y259802D01*
Y587300D01*
X473549D01*
X474448Y586402D01*
Y566240D01*
X659810D01*
Y587300D01*
X907768Y587300D01*
X908199Y586030D01*
X907504Y585496D01*
X905875Y583374D01*
X904851Y580902D01*
X904669Y579520D01*
X914750D01*
X924830D01*
X924648Y580902D01*
X923624Y583374D01*
X921996Y585496D01*
X921300Y586030D01*
X921731Y587300D01*
X935449D01*
X935702Y586030D01*
X935666Y586015D01*
X933809Y584590D01*
X932384Y582733D01*
X931489Y580571D01*
X931183Y578250D01*
X931489Y575929D01*
X932384Y573767D01*
X933809Y571909D01*
X935666Y570485D01*
X937829Y569589D01*
X940150Y569283D01*
X942470Y569589D01*
X944633Y570485D01*
X946490Y571909D01*
X947915Y573767D01*
X948811Y575929D01*
X949117Y578250D01*
X948811Y580571D01*
X947915Y582733D01*
X946490Y584590D01*
X944633Y586015D01*
X944598Y586030D01*
X944850Y587300D01*
X973549D01*
X973802Y586030D01*
X973766Y586015D01*
X971909Y584590D01*
X970484Y582733D01*
X969589Y580571D01*
X969283Y578250D01*
X969589Y575929D01*
X970484Y573767D01*
X971909Y571909D01*
X973766Y570485D01*
X975929Y569589D01*
X976160Y569558D01*
Y539455D01*
X975672Y539128D01*
X974754Y537755D01*
X974613Y537576D01*
X973393Y537319D01*
X949081Y561631D01*
X948241Y562193D01*
X947250Y562390D01*
X887405D01*
X887078Y562878D01*
X885666Y563822D01*
X884000Y564154D01*
X882334Y563822D01*
X880922Y562878D01*
X879978Y561466D01*
X879646Y559800D01*
X879978Y558134D01*
X880922Y556722D01*
X882136Y555910D01*
X882072Y555047D01*
X881925Y554640D01*
X826155D01*
X825828Y555129D01*
X824416Y556072D01*
X822750Y556404D01*
X821084Y556072D01*
X819672Y555129D01*
X818728Y553716D01*
X818396Y552050D01*
X818728Y550384D01*
X819672Y548971D01*
X821084Y548028D01*
X822750Y547696D01*
X824416Y548028D01*
X825828Y548971D01*
X826155Y549460D01*
X948539D01*
X965812Y532187D01*
X965187Y531017D01*
X964750Y531104D01*
X963084Y530772D01*
X961671Y529828D01*
X960727Y528416D01*
X960396Y526750D01*
X960727Y525084D01*
X961008Y524664D01*
X960329Y523394D01*
X728842D01*
X727335Y524901D01*
X727272Y525216D01*
X726329Y526628D01*
X724916Y527572D01*
X724601Y527635D01*
X724218Y528018D01*
X722971Y528851D01*
X722727Y528900D01*
X721500Y529144D01*
X721500Y529144D01*
X669933D01*
X669666Y529322D01*
X668000Y529654D01*
X666334Y529322D01*
X664922Y528378D01*
X663978Y526966D01*
X663646Y525300D01*
X663978Y523634D01*
X664922Y522222D01*
X666334Y521278D01*
X668000Y520946D01*
X669666Y521278D01*
X669933Y521456D01*
X719514D01*
X720172Y520472D01*
X721584Y519528D01*
X721899Y519465D01*
X724532Y516832D01*
X724532Y516832D01*
X725779Y515999D01*
X727250Y515706D01*
X992084D01*
X992723Y514436D01*
X992692Y514394D01*
X684806D01*
X683416Y515322D01*
X681750Y515654D01*
X680084Y515322D01*
X678695Y514394D01*
X544622D01*
X543151Y514101D01*
X541904Y513268D01*
X541904Y513268D01*
X533530Y504894D01*
X509556D01*
X508166Y505822D01*
X506500Y506154D01*
X504834Y505822D01*
X503445Y504894D01*
X371056D01*
X369750Y505154D01*
X368084Y504822D01*
X366672Y503879D01*
X365728Y502466D01*
X365396Y500800D01*
X365728Y499134D01*
X366672Y497722D01*
X368084Y496778D01*
X369750Y496446D01*
X371416Y496778D01*
X372057Y497206D01*
X531782D01*
X531907Y495936D01*
X531334Y495822D01*
X529921Y494879D01*
X528978Y493466D01*
X528646Y491800D01*
X528978Y490134D01*
X529921Y488722D01*
X531334Y487778D01*
X533000Y487446D01*
X534666Y487778D01*
X536078Y488722D01*
X537022Y490134D01*
X537354Y491800D01*
X537239Y492377D01*
X546813Y501950D01*
X678738D01*
X679337Y500830D01*
X679228Y500666D01*
X678896Y499000D01*
X679228Y497334D01*
X680171Y495921D01*
X681584Y494978D01*
X683250Y494646D01*
X684916Y494978D01*
X686328Y495921D01*
X686655Y496410D01*
X701227D01*
X720988Y476650D01*
X720756Y475748D01*
X720502Y475380D01*
X662801D01*
X662474Y475868D01*
X661062Y476812D01*
X659396Y477144D01*
X657730Y476812D01*
X656317Y475868D01*
X655374Y474456D01*
X655042Y472790D01*
X655374Y471124D01*
X656317Y469711D01*
X657730Y468768D01*
X659396Y468436D01*
X661062Y468768D01*
X662474Y469711D01*
X662801Y470200D01*
X698738D01*
X699337Y469080D01*
X699228Y468916D01*
X698896Y467250D01*
X699228Y465584D01*
X699778Y464760D01*
X699099Y463490D01*
X654801D01*
X653409Y464881D01*
X652569Y465443D01*
X651578Y465640D01*
X607823D01*
X577989Y495474D01*
X578104Y496050D01*
X577772Y497716D01*
X576828Y499128D01*
X575416Y500072D01*
X573750Y500404D01*
X572084Y500072D01*
X570672Y499128D01*
X569728Y497716D01*
X569396Y496050D01*
X569728Y494384D01*
X570672Y492972D01*
X572084Y492028D01*
X573750Y491696D01*
X574327Y491811D01*
X604919Y461219D01*
X605759Y460657D01*
X606750Y460460D01*
X644817D01*
X645510Y459190D01*
X645483Y459147D01*
X595584D01*
X595129Y459828D01*
X593716Y460772D01*
X592050Y461104D01*
X590384Y460772D01*
X588972Y459828D01*
X588028Y458416D01*
X587697Y456750D01*
X588028Y455084D01*
X588972Y453671D01*
X590384Y452728D01*
X592050Y452396D01*
X593716Y452728D01*
X595129Y453671D01*
X595327Y453968D01*
X614507D01*
X614892Y452698D01*
X614419Y452381D01*
X603326Y441289D01*
X602750Y441404D01*
X601084Y441072D01*
X599672Y440129D01*
X598728Y438716D01*
X598396Y437050D01*
X598728Y435384D01*
X599672Y433971D01*
X601084Y433028D01*
X602750Y432696D01*
X604416Y433028D01*
X605829Y433971D01*
X606772Y435384D01*
X607104Y437050D01*
X606989Y437626D01*
X617323Y447960D01*
X654912D01*
X655904Y448157D01*
X656744Y448719D01*
X662525Y454500D01*
X688239D01*
X688837Y453380D01*
X688728Y453216D01*
X688396Y451550D01*
X688700Y450024D01*
X688619Y449712D01*
X687985Y448710D01*
X687406Y448638D01*
X687241Y448687D01*
X685916Y449572D01*
X684250Y449904D01*
X682584Y449572D01*
X681172Y448629D01*
X680228Y447216D01*
X679896Y445550D01*
X680228Y443884D01*
X681172Y442472D01*
X682584Y441528D01*
X684250Y441196D01*
X685916Y441528D01*
X687328Y442472D01*
X687655Y442960D01*
X722427D01*
X725133Y440254D01*
X725087Y440012D01*
X723632Y439027D01*
X723250Y439104D01*
X721584Y438772D01*
X720171Y437828D01*
X719831Y437319D01*
X674450D01*
X673467Y437124D01*
X672633Y436567D01*
X671351Y435284D01*
X670750Y435404D01*
X669084Y435072D01*
X667672Y434128D01*
X666728Y432716D01*
X666396Y431050D01*
X666728Y429384D01*
X667672Y427972D01*
X669084Y427028D01*
X670750Y426696D01*
X672416Y427028D01*
X673829Y427972D01*
X674772Y429384D01*
X675104Y431050D01*
X675097Y431083D01*
X676041Y432180D01*
X719831D01*
X720171Y431671D01*
X721584Y430728D01*
X723250Y430396D01*
X724916Y430728D01*
X726328Y431671D01*
X727272Y433084D01*
X727603Y434750D01*
X727272Y436416D01*
X727223Y436489D01*
X728139Y437405D01*
X728509Y437157D01*
X729500Y436960D01*
X744495D01*
X745094Y435840D01*
X744977Y435666D01*
X744646Y434000D01*
X744977Y432334D01*
X745921Y430921D01*
X747334Y429978D01*
X749000Y429646D01*
X750666Y429978D01*
X752078Y430921D01*
X752405Y431410D01*
X775845D01*
X776171Y430921D01*
X777584Y429978D01*
X779250Y429646D01*
X780916Y429978D01*
X782328Y430921D01*
X783272Y432334D01*
X783603Y434000D01*
X783288Y435588D01*
X783745Y436448D01*
X783922Y436740D01*
X784920Y436829D01*
X786881Y434869D01*
X787215Y434646D01*
X787276Y433207D01*
X787271Y433196D01*
X786422Y432629D01*
X785478Y431216D01*
X785146Y429550D01*
X785478Y427884D01*
X786422Y426472D01*
X787834Y425528D01*
X789500Y425196D01*
X790077Y425311D01*
X791428Y423960D01*
X790902Y422690D01*
X780550D01*
X779559Y422492D01*
X778719Y421931D01*
X777327Y420539D01*
X776750Y420654D01*
X775084Y420322D01*
X773672Y419379D01*
X772728Y417966D01*
X772396Y416300D01*
X772728Y414634D01*
X772878Y414410D01*
X772199Y413140D01*
X753573D01*
X744831Y421881D01*
X743991Y422443D01*
X743000Y422640D01*
X644402D01*
X643916Y423813D01*
X659363Y439261D01*
X659940Y439146D01*
X661606Y439478D01*
X663018Y440421D01*
X663962Y441834D01*
X664294Y443500D01*
X663962Y445166D01*
X663018Y446578D01*
X661606Y447522D01*
X659940Y447854D01*
X658274Y447522D01*
X656861Y446578D01*
X655918Y445166D01*
X655586Y443500D01*
X655701Y442923D01*
X629045Y416268D01*
X627916Y417022D01*
X626250Y417354D01*
X624584Y417022D01*
X623171Y416078D01*
X622228Y414666D01*
X621896Y413000D01*
X622228Y411334D01*
X623171Y409921D01*
X623279Y409850D01*
X622893Y408580D01*
X558690D01*
X557699Y408383D01*
X556859Y407821D01*
X551573Y402536D01*
X550770Y403072D01*
X549104Y403404D01*
X547438Y403072D01*
X546026Y402128D01*
X545082Y400716D01*
X544751Y399050D01*
X545082Y397384D01*
X546026Y395971D01*
X547438Y395028D01*
X549104Y394696D01*
X550770Y395028D01*
X552183Y395971D01*
X552626Y396634D01*
X552741Y396657D01*
X553581Y397219D01*
X559763Y403400D01*
X627818D01*
X628809Y403597D01*
X629650Y404159D01*
X642951Y417460D01*
X741927D01*
X750669Y408719D01*
X751509Y408157D01*
X751852Y408089D01*
X751727Y406819D01*
X704418D01*
X704078Y407328D01*
X702666Y408272D01*
X701000Y408604D01*
X699334Y408272D01*
X697921Y407328D01*
X696977Y405916D01*
X696646Y404250D01*
X696977Y402584D01*
X697921Y401171D01*
X699334Y400228D01*
X701000Y399896D01*
X702666Y400228D01*
X704078Y401171D01*
X704418Y401680D01*
X755615D01*
X755922Y401222D01*
X757334Y400278D01*
X759000Y399946D01*
X760666Y400278D01*
X762078Y401222D01*
X763022Y402634D01*
X763354Y404300D01*
X763022Y405966D01*
X762538Y406690D01*
X763217Y407960D01*
X786750D01*
X787741Y408157D01*
X788581Y408719D01*
X793563Y413700D01*
X795988D01*
X796587Y412580D01*
X796478Y412416D01*
X796146Y410750D01*
X796478Y409084D01*
X797421Y407671D01*
X798834Y406728D01*
X800500Y406396D01*
X802166Y406728D01*
X803578Y407671D01*
X804522Y409084D01*
X804853Y410750D01*
X804522Y412416D01*
X804412Y412580D01*
X805011Y413700D01*
X806526D01*
X807205Y412430D01*
X806728Y411716D01*
X806397Y410050D01*
X806728Y408384D01*
X807672Y406971D01*
X809084Y406028D01*
X810750Y405696D01*
X812416Y406028D01*
X813829Y406971D01*
X814155Y407460D01*
X826178D01*
X832039Y401599D01*
X832879Y401037D01*
X833870Y400840D01*
X857047D01*
X862030Y395857D01*
X861268Y394716D01*
X860936Y393050D01*
X861268Y391384D01*
X862212Y389972D01*
X863624Y389028D01*
X865290Y388696D01*
X866956Y389028D01*
X868369Y389972D01*
X869312Y391384D01*
X869644Y393050D01*
X869312Y394716D01*
X868369Y396129D01*
X867835Y396485D01*
X867683Y397251D01*
X867121Y398091D01*
X861736Y403477D01*
X862222Y404650D01*
X871487D01*
X876160Y399977D01*
Y391455D01*
X875672Y391129D01*
X874728Y389716D01*
X874396Y388050D01*
X874728Y386384D01*
X875672Y384972D01*
X877084Y384028D01*
X878750Y383696D01*
X880416Y384028D01*
X881829Y384972D01*
X882251Y385603D01*
X882253Y385605D01*
X883720Y385516D01*
X883919Y385219D01*
X884610Y384528D01*
X883985Y383357D01*
X883750Y383404D01*
X882084Y383072D01*
X880671Y382128D01*
X879728Y380716D01*
X879396Y379050D01*
X879728Y377384D01*
X880671Y375972D01*
X882084Y375028D01*
X883750Y374696D01*
X885416Y375028D01*
X886829Y375972D01*
X887155Y376460D01*
X946345D01*
X946672Y375972D01*
X948084Y375028D01*
X949750Y374696D01*
X951416Y375028D01*
X952829Y375972D01*
X953155Y376460D01*
X968062D01*
X968934Y375878D01*
X970600Y375546D01*
X972266Y375878D01*
X973679Y376822D01*
X974622Y378234D01*
X974954Y379900D01*
X974622Y381566D01*
X973679Y382979D01*
X972266Y383922D01*
X970600Y384254D01*
X968934Y383922D01*
X967522Y382979D01*
X966627Y381640D01*
X953155D01*
X952829Y382128D01*
X951416Y383072D01*
X949750Y383404D01*
X948084Y383072D01*
X946672Y382128D01*
X946345Y381640D01*
X944134D01*
X943456Y382910D01*
X943772Y383384D01*
X944104Y385050D01*
X943772Y386716D01*
X942829Y388129D01*
X941416Y389072D01*
X939750Y389404D01*
X939629Y389380D01*
X939115Y389982D01*
X938797Y390509D01*
X939104Y392050D01*
X938772Y393716D01*
X938121Y394690D01*
X938696Y395960D01*
X955246D01*
X956237Y396157D01*
X957077Y396719D01*
X961424Y401066D01*
X962001Y400951D01*
X963667Y401283D01*
X965079Y402226D01*
X966023Y403639D01*
X966355Y405305D01*
X966023Y406971D01*
X965079Y408383D01*
X963667Y409327D01*
X962001Y409659D01*
X960335Y409327D01*
X958923Y408383D01*
X957979Y406971D01*
X957647Y405305D01*
X957762Y404729D01*
X954173Y401140D01*
X927405D01*
X927078Y401628D01*
X925666Y402572D01*
X924000Y402904D01*
X922334Y402572D01*
X922299Y402549D01*
X921735Y402785D01*
X921064Y403251D01*
X920772Y404716D01*
X919828Y406129D01*
X918416Y407072D01*
X916750Y407404D01*
X916174Y407289D01*
X911822Y411641D01*
X912308Y412814D01*
X920032D01*
X920373Y412510D01*
X920943Y411800D01*
X920646Y410305D01*
X920977Y408639D01*
X921921Y407227D01*
X923333Y406283D01*
X924999Y405951D01*
X926665Y406283D01*
X928078Y407227D01*
X929022Y408639D01*
X929353Y410305D01*
X929022Y411971D01*
X928078Y413384D01*
X926665Y414327D01*
X926003Y414459D01*
X923228Y417235D01*
X922387Y417796D01*
X921396Y417993D01*
X839635D01*
X836854Y420774D01*
X837223Y421990D01*
X837416Y422028D01*
X838829Y422972D01*
X839772Y424384D01*
X840104Y426050D01*
X839989Y426627D01*
X842363Y429000D01*
X928885D01*
X929564Y427730D01*
X929424Y427520D01*
X929092Y425854D01*
X929424Y424188D01*
X930368Y422776D01*
X931780Y421832D01*
X933446Y421500D01*
X935112Y421832D01*
X936525Y422776D01*
X936851Y423264D01*
X949873D01*
X955511Y417626D01*
X955396Y417050D01*
X955728Y415384D01*
X956672Y413972D01*
X958084Y413028D01*
X959750Y412696D01*
X961416Y413028D01*
X962829Y413972D01*
X963772Y415384D01*
X964104Y417050D01*
X963772Y418716D01*
X962829Y420129D01*
X961416Y421072D01*
X959750Y421404D01*
X959174Y421289D01*
X952777Y427685D01*
X952710Y427730D01*
X953095Y429000D01*
X1023290D01*
X1024281Y429197D01*
X1025121Y429759D01*
X1032674Y437311D01*
X1033250Y437196D01*
X1034916Y437528D01*
X1036329Y438472D01*
X1037272Y439884D01*
X1037604Y441550D01*
X1037272Y443216D01*
X1036329Y444628D01*
X1034916Y445572D01*
X1033250Y445904D01*
X1031584Y445572D01*
X1030172Y444628D01*
X1029228Y443216D01*
X1028896Y441550D01*
X1029011Y440974D01*
X1022217Y434180D01*
X841290D01*
X841119Y434146D01*
X840038Y435219D01*
X840104Y435550D01*
X839772Y437216D01*
X838829Y438629D01*
X837416Y439572D01*
X837013Y439653D01*
Y440947D01*
X837416Y441028D01*
X838829Y441972D01*
X839772Y443384D01*
X840104Y445050D01*
X839772Y446716D01*
X838829Y448129D01*
X837416Y449072D01*
X835750Y449404D01*
X834084Y449072D01*
X832672Y448129D01*
X831728Y446716D01*
X831396Y445050D01*
X831415Y444958D01*
X830490Y443890D01*
X790573D01*
X788831Y445631D01*
X787991Y446193D01*
X787000Y446390D01*
X733823D01*
X726982Y453230D01*
X727086Y453848D01*
X727442Y454500D01*
X852790D01*
X853781Y454697D01*
X854621Y455259D01*
X866822Y467460D01*
X919345D01*
X919672Y466971D01*
X921084Y466027D01*
X922750Y465696D01*
X924416Y466027D01*
X925829Y466971D01*
X926772Y468384D01*
X927104Y470050D01*
X926772Y471716D01*
X925829Y473128D01*
X924416Y474072D01*
X922750Y474403D01*
X921084Y474072D01*
X919672Y473128D01*
X919345Y472640D01*
X865750D01*
X864759Y472442D01*
X863919Y471881D01*
X851717Y459680D01*
X840183D01*
X839798Y460950D01*
X840579Y461472D01*
X841522Y462884D01*
X841854Y464550D01*
X841522Y466216D01*
X840579Y467629D01*
X839166Y468572D01*
X837500Y468904D01*
X835834Y468572D01*
X834421Y467629D01*
X833478Y466216D01*
X833146Y464550D01*
X833162Y464472D01*
X832356Y463490D01*
X800150D01*
X799865Y463897D01*
X799587Y464760D01*
X800372Y465934D01*
X800703Y467600D01*
X800372Y469266D01*
X799428Y470678D01*
X798016Y471622D01*
X796350Y471954D01*
X794684Y471622D01*
X793271Y470678D01*
X792945Y470190D01*
X780523D01*
X776091Y474621D01*
X775251Y475182D01*
X774260Y475380D01*
X730677D01*
X730026Y476427D01*
X730035Y476650D01*
X730353Y478250D01*
X730022Y479916D01*
X729078Y481328D01*
X727666Y482272D01*
X726000Y482603D01*
X724334Y482272D01*
X723349Y481614D01*
X710516Y494447D01*
X711002Y495620D01*
X811356D01*
X811481Y494350D01*
X810084Y494072D01*
X808672Y493129D01*
X807728Y491716D01*
X807396Y490050D01*
X807728Y488384D01*
X808672Y486972D01*
X810084Y486028D01*
X811750Y485696D01*
X813416Y486028D01*
X814828Y486972D01*
X815772Y488384D01*
X816104Y490050D01*
X815989Y490626D01*
X817173Y491810D01*
X829716D01*
X830395Y490540D01*
X829977Y489916D01*
X829646Y488250D01*
X829977Y486584D01*
X830921Y485171D01*
X832334Y484228D01*
X834000Y483896D01*
X835666Y484228D01*
X837078Y485171D01*
X837405Y485660D01*
X841928D01*
X842313Y484390D01*
X841922Y484128D01*
X840978Y482716D01*
X840646Y481050D01*
X840978Y479384D01*
X841922Y477972D01*
X843334Y477028D01*
X845000Y476696D01*
X846666Y477028D01*
X848079Y477972D01*
X848674Y478863D01*
X872061D01*
X872401Y478354D01*
X873814Y477410D01*
X875480Y477078D01*
X877146Y477410D01*
X878558Y478354D01*
X879382Y479587D01*
X879880Y479922D01*
X880674Y480251D01*
X881084Y479978D01*
X882750Y479646D01*
X884416Y479978D01*
X885828Y480921D01*
X886772Y482334D01*
X887103Y484000D01*
X887514Y484500D01*
X983657D01*
X985988Y482169D01*
X986829Y481607D01*
X987620Y481450D01*
X987495Y480180D01*
X941290D01*
X940299Y479983D01*
X939459Y479421D01*
X938326Y478289D01*
X937750Y478404D01*
X936084Y478072D01*
X934672Y477128D01*
X933728Y475716D01*
X933396Y474050D01*
X933728Y472384D01*
X934672Y470971D01*
X936084Y470028D01*
X937750Y469696D01*
X939416Y470028D01*
X940828Y470971D01*
X941772Y472384D01*
X942104Y474050D01*
X943150Y475000D01*
X999735D01*
X999921Y474722D01*
X1001334Y473778D01*
X1003000Y473446D01*
X1004666Y473778D01*
X1006078Y474722D01*
X1006756Y475735D01*
X1006791Y475759D01*
X1007353Y476599D01*
X1007550Y477590D01*
X1007353Y478581D01*
X1007133Y478910D01*
X1007022Y479466D01*
X1006538Y480190D01*
X1007217Y481460D01*
X1145437D01*
X1146084Y481028D01*
X1147750Y480696D01*
X1149416Y481028D01*
X1150828Y481972D01*
X1151772Y483384D01*
X1152104Y485050D01*
X1151772Y486716D01*
X1150828Y488129D01*
X1149416Y489072D01*
X1147750Y489404D01*
X1146084Y489072D01*
X1144671Y488129D01*
X1143728Y486716D01*
X1143713Y486640D01*
X988842D01*
X986561Y488921D01*
X985721Y489483D01*
X984730Y489680D01*
X945149D01*
X945024Y490950D01*
X945416Y491028D01*
X946829Y491972D01*
X947772Y493384D01*
X948104Y495050D01*
X947772Y496716D01*
X946829Y498129D01*
X945416Y499072D01*
X943750Y499404D01*
X942284Y499112D01*
X941733Y499533D01*
X941312Y500084D01*
X941604Y501550D01*
X941272Y503216D01*
X940329Y504628D01*
X939120Y505436D01*
X939199Y506344D01*
X939331Y506706D01*
X994944D01*
X996250Y506446D01*
X997556Y506706D01*
X1045050D01*
X1045050Y506706D01*
X1046277Y506950D01*
X1046521Y506999D01*
X1047768Y507832D01*
X1064464Y524528D01*
X1064624Y524421D01*
X1066290Y524090D01*
X1067956Y524421D01*
X1069368Y525365D01*
X1070312Y526777D01*
X1070643Y528443D01*
X1070312Y530110D01*
X1069368Y531522D01*
X1067956Y532466D01*
X1066290Y532797D01*
X1064624Y532466D01*
X1064357Y532287D01*
X1062943D01*
X1062943Y532287D01*
X1061472Y531995D01*
X1061059Y531718D01*
X1060225Y531161D01*
X1060225Y531161D01*
X1043458Y514394D01*
X1023581D01*
X1023448Y514756D01*
X1023370Y515664D01*
X1024578Y516472D01*
X1025522Y517884D01*
X1025854Y519550D01*
X1025522Y521216D01*
X1024578Y522629D01*
X1023166Y523572D01*
X1021500Y523904D01*
X1019834Y523572D01*
X1019567Y523394D01*
X1005914D01*
X1005527Y524642D01*
X1005526Y524664D01*
X1030881Y550019D01*
X1031442Y550859D01*
X1031639Y551850D01*
Y569700D01*
X1033533Y570485D01*
X1035390Y571909D01*
X1036815Y573767D01*
X1037711Y575929D01*
X1038017Y578250D01*
X1037711Y580571D01*
X1036815Y582733D01*
X1035390Y584590D01*
X1033533Y586015D01*
X1033498Y586030D01*
X1033750Y587300D01*
X1049749D01*
X1050002Y586030D01*
X1049966Y586015D01*
X1048109Y584590D01*
X1046684Y582733D01*
X1045789Y580571D01*
X1045483Y578250D01*
X1045789Y575929D01*
X1046684Y573767D01*
X1048109Y571909D01*
X1049966Y570485D01*
X1051160Y569990D01*
Y564123D01*
X1026077Y539039D01*
X1025500Y539154D01*
X1023834Y538822D01*
X1022422Y537878D01*
X1021478Y536466D01*
X1021146Y534800D01*
X1021478Y533134D01*
X1022422Y531722D01*
X1023834Y530778D01*
X1025500Y530446D01*
X1027166Y530778D01*
X1028578Y531722D01*
X1029522Y533134D01*
X1029854Y534800D01*
X1029739Y535377D01*
X1055581Y561219D01*
X1056143Y562059D01*
X1056340Y563050D01*
Y569532D01*
X1056770Y569589D01*
X1058933Y570485D01*
X1060790Y571909D01*
X1062215Y573767D01*
X1063111Y575929D01*
X1063417Y578250D01*
X1063111Y580571D01*
X1062215Y582733D01*
X1060790Y584590D01*
X1058933Y586015D01*
X1058898Y586030D01*
X1059150Y587300D01*
X1075149D01*
X1075402Y586030D01*
X1075366Y586015D01*
X1073509Y584590D01*
X1072084Y582733D01*
X1071189Y580571D01*
X1070883Y578250D01*
X1071189Y575929D01*
X1072084Y573767D01*
X1073509Y571909D01*
X1075366Y570485D01*
X1077529Y569589D01*
X1079850Y569283D01*
X1082170Y569589D01*
X1084333Y570485D01*
X1086190Y571909D01*
X1087615Y573767D01*
X1088511Y575929D01*
X1088817Y578250D01*
X1088511Y580571D01*
X1087615Y582733D01*
X1086190Y584590D01*
X1084333Y586015D01*
X1084298Y586030D01*
X1084550Y587300D01*
X1100549D01*
X1100802Y586030D01*
X1100766Y586015D01*
X1098909Y584590D01*
X1097484Y582733D01*
X1096589Y580571D01*
X1096283Y578250D01*
X1096589Y575929D01*
X1097484Y573767D01*
X1098909Y571909D01*
X1100766Y570485D01*
X1102929Y569589D01*
X1105250Y569283D01*
X1107570Y569589D01*
X1109733Y570485D01*
X1111590Y571909D01*
X1113015Y573767D01*
X1113911Y575929D01*
X1114217Y578250D01*
X1113911Y580571D01*
X1113015Y582733D01*
X1111590Y584590D01*
X1109733Y586015D01*
X1109698Y586030D01*
X1109950Y587300D01*
X1125949D01*
X1126202Y586030D01*
X1126166Y586015D01*
X1124309Y584590D01*
X1122884Y582733D01*
X1121989Y580571D01*
X1121683Y578250D01*
X1121989Y575929D01*
X1122884Y573767D01*
X1124309Y571909D01*
X1126166Y570485D01*
X1128329Y569589D01*
X1130650Y569283D01*
X1132971Y569589D01*
X1135133Y570485D01*
X1136990Y571909D01*
X1138415Y573767D01*
X1139311Y575929D01*
X1139616Y578250D01*
X1139311Y580571D01*
X1138415Y582733D01*
X1136990Y584590D01*
X1135133Y586015D01*
X1135098Y586030D01*
X1135350Y587300D01*
X1145956D01*
X1147160Y586030D01*
Y569360D01*
X1164940D01*
Y586030D01*
X1164940Y587140D01*
X1166143Y587300D01*
X1179352D01*
X1180250Y586402D01*
D02*
G37*
%LPC*%
G36*
X789350Y314017D02*
X787029Y313711D01*
X784867Y312815D01*
X783010Y311390D01*
X781585Y309533D01*
X780689Y307371D01*
X780383Y305050D01*
X780689Y302729D01*
X781585Y300567D01*
X783010Y298710D01*
X784867Y297285D01*
X787029Y296389D01*
X789350Y296083D01*
X791671Y296389D01*
X793833Y297285D01*
X795691Y298710D01*
X797115Y300567D01*
X798011Y302729D01*
X798317Y305050D01*
X798011Y307371D01*
X797115Y309533D01*
X795691Y311390D01*
X793833Y312815D01*
X791671Y313711D01*
X789350Y314017D01*
D02*
G37*
G36*
X890950D02*
X888629Y313711D01*
X886467Y312815D01*
X884610Y311390D01*
X883185Y309533D01*
X882289Y307371D01*
X881983Y305050D01*
X882289Y302729D01*
X883185Y300567D01*
X884610Y298710D01*
X886467Y297285D01*
X888629Y296389D01*
X890950Y296083D01*
X893271Y296389D01*
X895433Y297285D01*
X897290Y298710D01*
X898715Y300567D01*
X899611Y302729D01*
X899917Y305050D01*
X899611Y307371D01*
X898715Y309533D01*
X897290Y311390D01*
X895433Y312815D01*
X893271Y313711D01*
X890950Y314017D01*
D02*
G37*
G36*
X916350D02*
X914029Y313711D01*
X911867Y312815D01*
X910010Y311390D01*
X908585Y309533D01*
X907689Y307371D01*
X907383Y305050D01*
X907689Y302729D01*
X908585Y300567D01*
X910010Y298710D01*
X911867Y297285D01*
X914029Y296389D01*
X916350Y296083D01*
X918671Y296389D01*
X920833Y297285D01*
X922691Y298710D01*
X924115Y300567D01*
X925011Y302729D01*
X925317Y305050D01*
X925011Y307371D01*
X924115Y309533D01*
X922691Y311390D01*
X920833Y312815D01*
X918671Y313711D01*
X916350Y314017D01*
D02*
G37*
G36*
X738550D02*
X736229Y313711D01*
X734067Y312815D01*
X732210Y311390D01*
X730785Y309533D01*
X729889Y307371D01*
X729583Y305050D01*
X729889Y302729D01*
X730785Y300567D01*
X732210Y298710D01*
X734067Y297285D01*
X736229Y296389D01*
X738550Y296083D01*
X740871Y296389D01*
X743033Y297285D01*
X744891Y298710D01*
X746315Y300567D01*
X747211Y302729D01*
X747517Y305050D01*
X747211Y307371D01*
X746315Y309533D01*
X744891Y311390D01*
X743033Y312815D01*
X740871Y313711D01*
X738550Y314017D01*
D02*
G37*
G36*
X662350D02*
X660029Y313711D01*
X657867Y312815D01*
X656010Y311390D01*
X654585Y309533D01*
X653689Y307371D01*
X653383Y305050D01*
X653689Y302729D01*
X654585Y300567D01*
X656010Y298710D01*
X657867Y297285D01*
X660029Y296389D01*
X662350Y296083D01*
X664671Y296389D01*
X666833Y297285D01*
X668690Y298710D01*
X670115Y300567D01*
X671011Y302729D01*
X671317Y305050D01*
X671011Y307371D01*
X670115Y309533D01*
X668690Y311390D01*
X666833Y312815D01*
X664671Y313711D01*
X662350Y314017D01*
D02*
G37*
G36*
X687750D02*
X685429Y313711D01*
X683267Y312815D01*
X681410Y311390D01*
X679985Y309533D01*
X679089Y307371D01*
X678783Y305050D01*
X679089Y302729D01*
X679985Y300567D01*
X681410Y298710D01*
X683267Y297285D01*
X685429Y296389D01*
X687750Y296083D01*
X690071Y296389D01*
X692233Y297285D01*
X694090Y298710D01*
X695515Y300567D01*
X696411Y302729D01*
X696717Y305050D01*
X696411Y307371D01*
X695515Y309533D01*
X694090Y311390D01*
X692233Y312815D01*
X690071Y313711D01*
X687750Y314017D01*
D02*
G37*
G36*
X713150D02*
X710829Y313711D01*
X708667Y312815D01*
X706810Y311390D01*
X705385Y309533D01*
X704489Y307371D01*
X704183Y305050D01*
X704489Y302729D01*
X705385Y300567D01*
X706810Y298710D01*
X708667Y297285D01*
X710829Y296389D01*
X713150Y296083D01*
X715471Y296389D01*
X717633Y297285D01*
X719491Y298710D01*
X720915Y300567D01*
X721811Y302729D01*
X722117Y305050D01*
X721811Y307371D01*
X720915Y309533D01*
X719491Y311390D01*
X717633Y312815D01*
X715471Y313711D01*
X713150Y314017D01*
D02*
G37*
G36*
X1094150D02*
X1091829Y313711D01*
X1089667Y312815D01*
X1087810Y311390D01*
X1086385Y309533D01*
X1085489Y307371D01*
X1085183Y305050D01*
X1085489Y302729D01*
X1086385Y300567D01*
X1087810Y298710D01*
X1089667Y297285D01*
X1091829Y296389D01*
X1094150Y296083D01*
X1096471Y296389D01*
X1098633Y297285D01*
X1100490Y298710D01*
X1101915Y300567D01*
X1102811Y302729D01*
X1103117Y305050D01*
X1102811Y307371D01*
X1101915Y309533D01*
X1100490Y311390D01*
X1098633Y312815D01*
X1096471Y313711D01*
X1094150Y314017D01*
D02*
G37*
G36*
X1119550D02*
X1117229Y313711D01*
X1115067Y312815D01*
X1113210Y311390D01*
X1111785Y309533D01*
X1110889Y307371D01*
X1110583Y305050D01*
X1110889Y302729D01*
X1111785Y300567D01*
X1113210Y298710D01*
X1115067Y297285D01*
X1117229Y296389D01*
X1119550Y296083D01*
X1121871Y296389D01*
X1124033Y297285D01*
X1125891Y298710D01*
X1127315Y300567D01*
X1128211Y302729D01*
X1128517Y305050D01*
X1128211Y307371D01*
X1127315Y309533D01*
X1125891Y311390D01*
X1124033Y312815D01*
X1121871Y313711D01*
X1119550Y314017D01*
D02*
G37*
G36*
X569640Y313940D02*
X551860D01*
Y296160D01*
X569640D01*
Y313940D01*
D02*
G37*
G36*
X1068750Y314017D02*
X1066429Y313711D01*
X1064267Y312815D01*
X1062410Y311390D01*
X1060985Y309533D01*
X1060089Y307371D01*
X1059783Y305050D01*
X1060089Y302729D01*
X1060985Y300567D01*
X1062410Y298710D01*
X1064267Y297285D01*
X1066429Y296389D01*
X1068750Y296083D01*
X1071071Y296389D01*
X1073233Y297285D01*
X1075090Y298710D01*
X1076515Y300567D01*
X1077411Y302729D01*
X1077717Y305050D01*
X1077411Y307371D01*
X1076515Y309533D01*
X1075090Y311390D01*
X1073233Y312815D01*
X1071071Y313711D01*
X1068750Y314017D01*
D02*
G37*
G36*
X941750D02*
X939429Y313711D01*
X937267Y312815D01*
X935410Y311390D01*
X933985Y309533D01*
X933089Y307371D01*
X932783Y305050D01*
X933089Y302729D01*
X933985Y300567D01*
X935410Y298710D01*
X937267Y297285D01*
X939429Y296389D01*
X941750Y296083D01*
X944071Y296389D01*
X946233Y297285D01*
X948091Y298710D01*
X949515Y300567D01*
X950411Y302729D01*
X950717Y305050D01*
X950411Y307371D01*
X949515Y309533D01*
X948091Y311390D01*
X946233Y312815D01*
X944071Y313711D01*
X941750Y314017D01*
D02*
G37*
G36*
X992550D02*
X990229Y313711D01*
X988067Y312815D01*
X986210Y311390D01*
X984785Y309533D01*
X983889Y307371D01*
X983583Y305050D01*
X983889Y302729D01*
X984785Y300567D01*
X986210Y298710D01*
X988067Y297285D01*
X990229Y296389D01*
X992550Y296083D01*
X994871Y296389D01*
X997033Y297285D01*
X998891Y298710D01*
X1000315Y300567D01*
X1001211Y302729D01*
X1001517Y305050D01*
X1001211Y307371D01*
X1000315Y309533D01*
X998891Y311390D01*
X997033Y312815D01*
X994871Y313711D01*
X992550Y314017D01*
D02*
G37*
G36*
X1017950D02*
X1015629Y313711D01*
X1013467Y312815D01*
X1011610Y311390D01*
X1010185Y309533D01*
X1009289Y307371D01*
X1008983Y305050D01*
X1009289Y302729D01*
X1010185Y300567D01*
X1011610Y298710D01*
X1013467Y297285D01*
X1015629Y296389D01*
X1017950Y296083D01*
X1020271Y296389D01*
X1022433Y297285D01*
X1024290Y298710D01*
X1025715Y300567D01*
X1026611Y302729D01*
X1026917Y305050D01*
X1026611Y307371D01*
X1025715Y309533D01*
X1024290Y311390D01*
X1022433Y312815D01*
X1020271Y313711D01*
X1017950Y314017D01*
D02*
G37*
G36*
X535350D02*
X533029Y313711D01*
X530867Y312815D01*
X529010Y311390D01*
X527585Y309533D01*
X526689Y307371D01*
X526383Y305050D01*
X526689Y302729D01*
X527585Y300567D01*
X529010Y298710D01*
X530867Y297285D01*
X533029Y296389D01*
X535350Y296083D01*
X537671Y296389D01*
X539833Y297285D01*
X541690Y298710D01*
X543115Y300567D01*
X544011Y302729D01*
X544317Y305050D01*
X544011Y307371D01*
X543115Y309533D01*
X541690Y311390D01*
X539833Y312815D01*
X537671Y313711D01*
X535350Y314017D01*
D02*
G37*
G36*
X381680Y303780D02*
X372869D01*
X373051Y302398D01*
X374075Y299926D01*
X375704Y297804D01*
X377826Y296175D01*
X380298Y295152D01*
X381680Y294970D01*
Y303780D01*
D02*
G37*
G36*
X393031D02*
X384220D01*
Y294970D01*
X385602Y295152D01*
X388074Y296175D01*
X390196Y297804D01*
X391825Y299926D01*
X392849Y302398D01*
X393031Y303780D01*
D02*
G37*
G36*
X483280D02*
X474469D01*
X474651Y302398D01*
X475675Y299926D01*
X477304Y297804D01*
X479426Y296175D01*
X481898Y295152D01*
X483280Y294970D01*
Y303780D01*
D02*
G37*
G36*
X370170Y317670D02*
X344930D01*
Y292430D01*
X370170D01*
Y317670D01*
D02*
G37*
G36*
X865550Y314017D02*
X863229Y313711D01*
X861067Y312815D01*
X859210Y311390D01*
X857785Y309533D01*
X856889Y307371D01*
X856583Y305050D01*
X856889Y302729D01*
X857785Y300567D01*
X858705Y299367D01*
X836427Y277090D01*
X832128D01*
X831991Y278357D01*
X832831Y278919D01*
X841981Y288069D01*
X842543Y288909D01*
X842740Y289900D01*
Y296500D01*
X844633Y297285D01*
X846490Y298710D01*
X847915Y300567D01*
X848811Y302729D01*
X849117Y305050D01*
X848811Y307371D01*
X847915Y309533D01*
X846490Y311390D01*
X844633Y312815D01*
X842471Y313711D01*
X840150Y314017D01*
X837829Y313711D01*
X835667Y312815D01*
X833810Y311390D01*
X832385Y309533D01*
X831489Y307371D01*
X831183Y305050D01*
X831489Y302729D01*
X832385Y300567D01*
X833810Y298710D01*
X835667Y297285D01*
X837560Y296500D01*
Y290973D01*
X829927Y283340D01*
X530655D01*
X530328Y283828D01*
X528916Y284772D01*
X527250Y285103D01*
X525584Y284772D01*
X524171Y283828D01*
X523228Y282416D01*
X522896Y280750D01*
X523228Y279084D01*
X523711Y278360D01*
X523033Y277090D01*
X502787D01*
X502772Y277166D01*
X501828Y278578D01*
X500416Y279522D01*
X498750Y279853D01*
X497084Y279522D01*
X495671Y278578D01*
X494728Y277166D01*
X494396Y275500D01*
X494728Y273834D01*
X495671Y272421D01*
X497084Y271478D01*
X498750Y271146D01*
X500416Y271478D01*
X501063Y271910D01*
X837500D01*
X838491Y272107D01*
X839331Y272669D01*
X863103Y296441D01*
X863229Y296389D01*
X865550Y296083D01*
X867871Y296389D01*
X870033Y297285D01*
X871890Y298710D01*
X873315Y300567D01*
X874211Y302729D01*
X874517Y305050D01*
X874211Y307371D01*
X873315Y309533D01*
X871890Y311390D01*
X870033Y312815D01*
X867871Y313711D01*
X865550Y314017D01*
D02*
G37*
G36*
X509950D02*
X507629Y313711D01*
X505467Y312815D01*
X503610Y311390D01*
X502185Y309533D01*
X501289Y307371D01*
X500983Y305050D01*
X501289Y302729D01*
X502185Y300567D01*
X503610Y298710D01*
X505467Y297285D01*
X507629Y296389D01*
X509950Y296083D01*
X512271Y296389D01*
X514164Y297173D01*
X524119Y287219D01*
X524959Y286657D01*
X525950Y286460D01*
X796345D01*
X796672Y285972D01*
X798084Y285028D01*
X799750Y284696D01*
X801416Y285028D01*
X802829Y285972D01*
X803772Y287384D01*
X804104Y289050D01*
X803772Y290716D01*
X802829Y292129D01*
X801416Y293072D01*
X799750Y293404D01*
X798084Y293072D01*
X796672Y292129D01*
X796345Y291640D01*
X527023D01*
X517827Y300836D01*
X518611Y302729D01*
X518917Y305050D01*
X518611Y307371D01*
X517715Y309533D01*
X516291Y311390D01*
X514433Y312815D01*
X512271Y313711D01*
X509950Y314017D01*
D02*
G37*
G36*
X408350Y317779D02*
X405056Y317345D01*
X401986Y316074D01*
X399349Y314051D01*
X397327Y311415D01*
X396055Y308344D01*
X395621Y305050D01*
X396055Y301756D01*
X397327Y298686D01*
X399349Y296049D01*
X401986Y294027D01*
X405056Y292755D01*
X408350Y292321D01*
X411645Y292755D01*
X414715Y294027D01*
X417351Y296049D01*
X419374Y298686D01*
X420645Y301756D01*
X421079Y305050D01*
X420645Y308344D01*
X419374Y311415D01*
X417351Y314051D01*
X414715Y316074D01*
X411645Y317345D01*
X408350Y317779D01*
D02*
G37*
G36*
X824830Y303780D02*
X816020D01*
Y294970D01*
X817402Y295152D01*
X819874Y296175D01*
X821996Y297804D01*
X823625Y299926D01*
X824649Y302398D01*
X824830Y303780D01*
D02*
G37*
G36*
X1143680D02*
X1134870D01*
X1135051Y302398D01*
X1136075Y299926D01*
X1137704Y297804D01*
X1139826Y296175D01*
X1142298Y295152D01*
X1143680Y294970D01*
Y303780D01*
D02*
G37*
G36*
X1155031D02*
X1146220D01*
Y294970D01*
X1147602Y295152D01*
X1150074Y296175D01*
X1152196Y297804D01*
X1153825Y299926D01*
X1154848Y302398D01*
X1155031Y303780D01*
D02*
G37*
G36*
X813480D02*
X804669D01*
X804852Y302398D01*
X805875Y299926D01*
X807504Y297804D01*
X809626Y296175D01*
X812098Y295152D01*
X813480Y294970D01*
Y303780D01*
D02*
G37*
G36*
X494631D02*
X485820D01*
Y294970D01*
X487202Y295152D01*
X489674Y296175D01*
X491796Y297804D01*
X493425Y299926D01*
X494449Y302398D01*
X494631Y303780D01*
D02*
G37*
G36*
X584880D02*
X576069D01*
X576251Y302398D01*
X577275Y299926D01*
X578904Y297804D01*
X581026Y296175D01*
X583498Y295152D01*
X584880Y294970D01*
Y303780D01*
D02*
G37*
G36*
X596231D02*
X587420D01*
Y294970D01*
X588802Y295152D01*
X591274Y296175D01*
X593396Y297804D01*
X595025Y299926D01*
X596049Y302398D01*
X596231Y303780D01*
D02*
G37*
G36*
X1044750Y430854D02*
X1043084Y430522D01*
X1041671Y429578D01*
X1040727Y428166D01*
X1040396Y426500D01*
X1040727Y424834D01*
X1041671Y423421D01*
X1043084Y422478D01*
X1044750Y422146D01*
X1045350Y422266D01*
X1049383Y418233D01*
X1050216Y417676D01*
X1051200Y417481D01*
X1170581D01*
X1170922Y416972D01*
X1172334Y416028D01*
X1174000Y415696D01*
X1175666Y416028D01*
X1177078Y416972D01*
X1178022Y418384D01*
X1178354Y420050D01*
X1178022Y421716D01*
X1177078Y423129D01*
X1175666Y424072D01*
X1174000Y424404D01*
X1172334Y424072D01*
X1170922Y423129D01*
X1170581Y422619D01*
X1052264D01*
X1048984Y425899D01*
X1049103Y426500D01*
X1048772Y428166D01*
X1047828Y429578D01*
X1046416Y430522D01*
X1044750Y430854D01*
D02*
G37*
G36*
X484253Y433564D02*
X482587Y433232D01*
X481174Y432289D01*
X480230Y430876D01*
X479899Y429210D01*
X480230Y427544D01*
X481174Y426132D01*
X482587Y425188D01*
X484253Y424856D01*
X485919Y425188D01*
X487331Y426132D01*
X488275Y427544D01*
X488606Y429210D01*
X488275Y430876D01*
X487331Y432289D01*
X485919Y433232D01*
X484253Y433564D01*
D02*
G37*
G36*
X1094200Y434154D02*
X1092534Y433822D01*
X1091122Y432878D01*
X1090178Y431466D01*
X1089846Y429800D01*
X1090178Y428134D01*
X1091122Y426721D01*
X1092534Y425778D01*
X1094200Y425446D01*
X1095866Y425778D01*
X1097279Y426721D01*
X1098222Y428134D01*
X1098554Y429800D01*
X1098222Y431466D01*
X1097279Y432878D01*
X1095866Y433822D01*
X1094200Y434154D01*
D02*
G37*
G36*
X977750Y420404D02*
X976084Y420072D01*
X974672Y419128D01*
X973728Y417716D01*
X973396Y416050D01*
X973728Y414384D01*
X974672Y412972D01*
X976084Y412028D01*
X977750Y411696D01*
X979416Y412028D01*
X980828Y412972D01*
X981772Y414384D01*
X982104Y416050D01*
X981772Y417716D01*
X980828Y419128D01*
X979416Y420072D01*
X977750Y420404D01*
D02*
G37*
G36*
X633900Y385453D02*
X632234Y385122D01*
X630821Y384178D01*
X629878Y382766D01*
X629546Y381100D01*
X629878Y379434D01*
X630821Y378021D01*
X632234Y377077D01*
X633900Y376746D01*
X635566Y377077D01*
X636978Y378021D01*
X637922Y379434D01*
X638254Y381100D01*
X637922Y382766D01*
X636978Y384178D01*
X635566Y385122D01*
X633900Y385453D01*
D02*
G37*
G36*
X749076Y385953D02*
X747410Y385622D01*
X745997Y384678D01*
X745053Y383266D01*
X744722Y381600D01*
X745053Y379934D01*
X745738Y378910D01*
X745204Y377640D01*
X715574D01*
X714742Y378196D01*
X713076Y378527D01*
X711410Y378196D01*
X709997Y377252D01*
X709053Y375840D01*
X708722Y374174D01*
X709053Y372508D01*
X709997Y371095D01*
X711410Y370152D01*
X713076Y369820D01*
X714742Y370152D01*
X716154Y371095D01*
X717066Y372460D01*
X749927D01*
X752011Y370377D01*
X751896Y369800D01*
X752228Y368134D01*
X753171Y366722D01*
X754584Y365778D01*
X756250Y365446D01*
X757916Y365778D01*
X759329Y366722D01*
X760272Y368134D01*
X760604Y369800D01*
X760272Y371466D01*
X759329Y372878D01*
X757916Y373822D01*
X756250Y374154D01*
X755674Y374039D01*
X752831Y376881D01*
X752693Y378303D01*
X753163Y378960D01*
X775595D01*
X775921Y378472D01*
X777334Y377528D01*
X779000Y377196D01*
X780666Y377528D01*
X782078Y378472D01*
X783022Y379884D01*
X783353Y381550D01*
X783022Y383216D01*
X782078Y384628D01*
X780666Y385572D01*
X779000Y385904D01*
X777334Y385572D01*
X775921Y384628D01*
X775595Y384140D01*
X752514D01*
X752154Y384678D01*
X750742Y385622D01*
X749076Y385953D01*
D02*
G37*
G36*
X722750Y399404D02*
X721084Y399072D01*
X719672Y398129D01*
X718728Y396716D01*
X718396Y395050D01*
X718728Y393384D01*
X719672Y391972D01*
X721084Y391028D01*
X722750Y390696D01*
X724416Y391028D01*
X725828Y391972D01*
X726155Y392460D01*
X738014D01*
X738228Y391384D01*
X739172Y389972D01*
X740584Y389028D01*
X742250Y388696D01*
X743916Y389028D01*
X745329Y389972D01*
X746272Y391384D01*
X746604Y393050D01*
X746272Y394716D01*
X745329Y396129D01*
X743916Y397072D01*
X742250Y397404D01*
X741517Y397258D01*
X741241Y397443D01*
X740250Y397640D01*
X726155D01*
X725828Y398129D01*
X724416Y399072D01*
X722750Y399404D01*
D02*
G37*
G36*
X722250Y582399D02*
X719061Y582085D01*
X715994Y581154D01*
X713167Y579644D01*
X710690Y577610D01*
X708657Y575133D01*
X707146Y572306D01*
X706216Y569240D01*
X705901Y566050D01*
X706216Y562861D01*
X707146Y559794D01*
X708657Y556967D01*
X710690Y554490D01*
X713167Y552457D01*
X715994Y550946D01*
X719061Y550015D01*
X722250Y549701D01*
X725440Y550015D01*
X728506Y550946D01*
X731333Y552457D01*
X733810Y554490D01*
X735844Y556967D01*
X737354Y559794D01*
X738285Y562861D01*
X738599Y566050D01*
X738285Y569240D01*
X737354Y572306D01*
X735844Y575133D01*
X733810Y577610D01*
X731333Y579644D01*
X728506Y581154D01*
X725440Y582085D01*
X722250Y582399D01*
D02*
G37*
G36*
X924830Y576980D02*
X916020D01*
Y568169D01*
X917402Y568351D01*
X919874Y569375D01*
X921996Y571004D01*
X923624Y573126D01*
X924648Y575598D01*
X924830Y576980D01*
D02*
G37*
G36*
X913480D02*
X904669D01*
X904851Y575598D01*
X905875Y573126D01*
X907504Y571004D01*
X909626Y569375D01*
X912097Y568351D01*
X913480Y568169D01*
Y576980D01*
D02*
G37*
G36*
X378000Y571849D02*
X374810Y571534D01*
X371743Y570604D01*
X368917Y569093D01*
X366439Y567060D01*
X364406Y564583D01*
X362896Y561756D01*
X361965Y558689D01*
X361651Y555500D01*
X361965Y552310D01*
X362896Y549244D01*
X364406Y546417D01*
X366439Y543940D01*
X368917Y541906D01*
X371743Y540396D01*
X374810Y539465D01*
X378000Y539151D01*
X381189Y539465D01*
X384256Y540396D01*
X387083Y541906D01*
X389560Y543940D01*
X391593Y546417D01*
X393104Y549244D01*
X394034Y552310D01*
X394348Y555500D01*
X394034Y558689D01*
X393104Y561756D01*
X391593Y564583D01*
X389560Y567060D01*
X387083Y569093D01*
X384256Y570604D01*
X381189Y571534D01*
X378000Y571849D01*
D02*
G37*
G36*
X984500Y445654D02*
X982834Y445322D01*
X981422Y444379D01*
X981095Y443890D01*
X943568D01*
X942741Y444443D01*
X941750Y444640D01*
X940759Y444443D01*
X940483Y444258D01*
X939750Y444404D01*
X938084Y444072D01*
X936672Y443129D01*
X935728Y441716D01*
X935396Y440050D01*
X935728Y438384D01*
X936672Y436972D01*
X938084Y436028D01*
X939750Y435696D01*
X941416Y436028D01*
X942829Y436972D01*
X943772Y438384D01*
X943837Y438710D01*
X981095D01*
X981422Y438222D01*
X982834Y437278D01*
X984500Y436946D01*
X986166Y437278D01*
X987579Y438222D01*
X988522Y439634D01*
X988854Y441300D01*
X988522Y442966D01*
X987579Y444379D01*
X986166Y445322D01*
X984500Y445654D01*
D02*
G37*
G36*
X1010250Y467654D02*
X1008584Y467322D01*
X1007171Y466379D01*
X1006845Y465890D01*
X938000D01*
X937009Y465693D01*
X936387Y465277D01*
X935750Y465404D01*
X934084Y465072D01*
X932672Y464128D01*
X931728Y462716D01*
X931396Y461050D01*
X931728Y459384D01*
X932672Y457972D01*
X933743Y457256D01*
X933807Y457035D01*
Y456064D01*
X933743Y455844D01*
X932672Y455128D01*
X931728Y453716D01*
X931396Y452050D01*
X931728Y450384D01*
X932672Y448971D01*
X934084Y448027D01*
X935750Y447696D01*
X937416Y448027D01*
X938829Y448971D01*
X939772Y450384D01*
X939887Y450960D01*
X1006595D01*
X1006922Y450472D01*
X1008334Y449528D01*
X1010000Y449196D01*
X1011666Y449528D01*
X1013079Y450472D01*
X1014022Y451884D01*
X1014354Y453550D01*
X1014022Y455216D01*
X1013079Y456628D01*
X1011878Y457431D01*
X1011666Y457572D01*
X1011159Y457698D01*
X1010759Y457797D01*
Y458164D01*
Y459048D01*
X1011916Y459278D01*
X1013328Y460222D01*
X1014272Y461634D01*
X1014604Y463300D01*
X1014272Y464966D01*
X1013328Y466379D01*
X1011916Y467322D01*
X1010250Y467654D01*
D02*
G37*
G36*
X1138750Y504404D02*
X1137084Y504072D01*
X1135672Y503129D01*
X1134728Y501716D01*
X1134396Y500050D01*
X1134728Y498384D01*
X1135672Y496972D01*
X1137084Y496028D01*
X1138750Y495696D01*
X1140416Y496028D01*
X1141829Y496972D01*
X1142772Y498384D01*
X1143104Y500050D01*
X1142772Y501716D01*
X1141829Y503129D01*
X1140416Y504072D01*
X1138750Y504404D01*
D02*
G37*
G36*
X876750Y373404D02*
X875084Y373072D01*
X873672Y372128D01*
X872728Y370716D01*
X872396Y369050D01*
X872728Y367384D01*
X873672Y365972D01*
X875084Y365028D01*
X876750Y364696D01*
X878416Y365028D01*
X879828Y365972D01*
X880155Y366460D01*
X989866D01*
X989980Y365887D01*
X990924Y364475D01*
X992337Y363531D01*
X994003Y363200D01*
X995669Y363531D01*
X997081Y364475D01*
X998025Y365887D01*
X998356Y367553D01*
X998025Y369219D01*
X997081Y370632D01*
X995669Y371575D01*
X994003Y371907D01*
X992583Y371624D01*
X992506Y371640D01*
X880155D01*
X879828Y372128D01*
X878416Y373072D01*
X876750Y373404D01*
D02*
G37*
G36*
X1143680Y315131D02*
X1142298Y314949D01*
X1139826Y313925D01*
X1137704Y312296D01*
X1136075Y310174D01*
X1135051Y307702D01*
X1134870Y306320D01*
X1143680D01*
Y315131D01*
D02*
G37*
G36*
X1146220D02*
Y306320D01*
X1155031D01*
X1154848Y307702D01*
X1153825Y310174D01*
X1152196Y312296D01*
X1150074Y313925D01*
X1147602Y314949D01*
X1146220Y315131D01*
D02*
G37*
G36*
X911200Y343904D02*
X909534Y343572D01*
X908122Y342629D01*
X907178Y341216D01*
X906846Y339550D01*
X907178Y337884D01*
X908122Y336471D01*
X909534Y335528D01*
X911200Y335196D01*
X912866Y335528D01*
X914278Y336471D01*
X915222Y337884D01*
X915554Y339550D01*
X915222Y341216D01*
X914278Y342629D01*
X912866Y343572D01*
X911200Y343904D01*
D02*
G37*
G36*
X384220Y315131D02*
Y306320D01*
X393031D01*
X392849Y307702D01*
X391825Y310174D01*
X390196Y312296D01*
X388074Y313925D01*
X385602Y314949D01*
X384220Y315131D01*
D02*
G37*
G36*
X772840Y313940D02*
X755060D01*
Y296160D01*
X772840D01*
Y313940D01*
D02*
G37*
G36*
X976040D02*
X958260D01*
Y296160D01*
X976040D01*
Y313940D01*
D02*
G37*
G36*
X381680Y315131D02*
X380298Y314949D01*
X377826Y313925D01*
X375704Y312296D01*
X374075Y310174D01*
X373051Y307702D01*
X372869Y306320D01*
X381680D01*
Y315131D01*
D02*
G37*
G36*
X470003Y359564D02*
X468336Y359232D01*
X466924Y358288D01*
X465980Y356876D01*
X465649Y355210D01*
X465980Y353544D01*
X466924Y352132D01*
X468336Y351188D01*
X470003Y350856D01*
X471669Y351188D01*
X473081Y352132D01*
X474025Y353544D01*
X474356Y355210D01*
X474025Y356876D01*
X473081Y358288D01*
X471669Y359232D01*
X470003Y359564D01*
D02*
G37*
G36*
X949000Y361404D02*
X947334Y361072D01*
X945922Y360129D01*
X944978Y358716D01*
X944646Y357050D01*
X944978Y355384D01*
X945922Y353972D01*
X947334Y353028D01*
X949000Y352696D01*
X950666Y353028D01*
X952078Y353972D01*
X953022Y355384D01*
X953354Y357050D01*
X953022Y358716D01*
X952078Y360129D01*
X950666Y361072D01*
X949000Y361404D01*
D02*
G37*
G36*
X799250Y371853D02*
X797584Y371522D01*
X796171Y370578D01*
X795228Y369166D01*
X794896Y367500D01*
X795228Y365834D01*
X796171Y364421D01*
X797584Y363478D01*
X799250Y363146D01*
X800916Y363478D01*
X802328Y364421D01*
X803272Y365834D01*
X803603Y367500D01*
X803272Y369166D01*
X802328Y370578D01*
X800916Y371522D01*
X799250Y371853D01*
D02*
G37*
G36*
X722750Y352603D02*
X721084Y352272D01*
X719671Y351328D01*
X719345Y350840D01*
X714000D01*
X713009Y350643D01*
X712169Y350081D01*
X708177Y346090D01*
X685655D01*
X685328Y346578D01*
X683916Y347522D01*
X682250Y347854D01*
X680584Y347522D01*
X679171Y346578D01*
X678227Y345166D01*
X677896Y343500D01*
X678227Y341834D01*
X679171Y340421D01*
X680584Y339478D01*
X682250Y339146D01*
X683916Y339478D01*
X685328Y340421D01*
X685655Y340910D01*
X709250D01*
X710241Y341107D01*
X711081Y341669D01*
X715072Y345660D01*
X719345D01*
X719671Y345171D01*
X721084Y344228D01*
X722750Y343896D01*
X724416Y344228D01*
X725828Y345171D01*
X726772Y346584D01*
X727103Y348250D01*
X726772Y349916D01*
X725828Y351328D01*
X724416Y352272D01*
X722750Y352603D01*
D02*
G37*
G36*
X930400Y344703D02*
X928734Y344372D01*
X927321Y343428D01*
X926378Y342016D01*
X926046Y340350D01*
X926378Y338684D01*
X927321Y337271D01*
X928734Y336328D01*
X930400Y335996D01*
X932066Y336328D01*
X933478Y337271D01*
X934422Y338684D01*
X934753Y340350D01*
X934422Y342016D01*
X933478Y343428D01*
X932066Y344372D01*
X930400Y344703D01*
D02*
G37*
G36*
X611750Y358154D02*
X610084Y357822D01*
X608672Y356879D01*
X607728Y355466D01*
X607396Y353800D01*
X607728Y352134D01*
X608672Y350722D01*
X610084Y349778D01*
X610677Y349660D01*
X610552Y348390D01*
X516655D01*
X516329Y348879D01*
X514916Y349822D01*
X513250Y350154D01*
X511584Y349822D01*
X510172Y348879D01*
X509228Y347466D01*
X508896Y345800D01*
X509228Y344134D01*
X510172Y342722D01*
X511584Y341778D01*
X513250Y341446D01*
X514916Y341778D01*
X516329Y342722D01*
X516655Y343210D01*
X558649D01*
X559310Y341940D01*
X558728Y341070D01*
X558396Y339404D01*
X558728Y337738D01*
X559295Y336889D01*
X558616Y335619D01*
X558250D01*
X557267Y335424D01*
X557010Y335252D01*
X556250Y335404D01*
X554584Y335072D01*
X553172Y334128D01*
X552228Y332716D01*
X551896Y331050D01*
X552228Y329384D01*
X552879Y328410D01*
X552304Y327140D01*
X453250D01*
X452259Y326943D01*
X451419Y326381D01*
X437964Y312927D01*
X436071Y313711D01*
X433750Y314017D01*
X431429Y313711D01*
X429267Y312815D01*
X427410Y311390D01*
X425985Y309533D01*
X425089Y307371D01*
X424783Y305050D01*
X425089Y302729D01*
X425985Y300567D01*
X427410Y298710D01*
X429267Y297285D01*
X431429Y296389D01*
X433750Y296083D01*
X436071Y296389D01*
X438233Y297285D01*
X440090Y298710D01*
X441515Y300567D01*
X442411Y302729D01*
X442717Y305050D01*
X442411Y307371D01*
X441627Y309264D01*
X454323Y321960D01*
X470667D01*
X471024Y321308D01*
X471128Y320690D01*
X463364Y312927D01*
X461471Y313711D01*
X459150Y314017D01*
X456829Y313711D01*
X454667Y312815D01*
X452810Y311390D01*
X451385Y309533D01*
X450489Y307371D01*
X450183Y305050D01*
X450489Y302729D01*
X451385Y300567D01*
X452810Y298710D01*
X454667Y297285D01*
X456829Y296389D01*
X459150Y296083D01*
X461471Y296389D01*
X463633Y297285D01*
X465490Y298710D01*
X466915Y300567D01*
X467811Y302729D01*
X468117Y305050D01*
X467811Y307371D01*
X467027Y309264D01*
X474183Y316420D01*
X483347D01*
X483430Y315150D01*
X481898Y314949D01*
X479426Y313925D01*
X477304Y312296D01*
X475675Y310174D01*
X474651Y307702D01*
X474469Y306320D01*
X494631D01*
X494449Y307702D01*
X493425Y310174D01*
X491796Y312296D01*
X489674Y313925D01*
X487202Y314949D01*
X485670Y315150D01*
X485753Y316420D01*
X584947D01*
X585030Y315150D01*
X583498Y314949D01*
X581026Y313925D01*
X578904Y312296D01*
X577275Y310174D01*
X576251Y307702D01*
X576069Y306320D01*
X596231D01*
X596049Y307702D01*
X595025Y310174D01*
X593396Y312296D01*
X591274Y313925D01*
X588802Y314949D01*
X587270Y315150D01*
X587353Y316420D01*
X598321D01*
X598534Y316278D01*
X600200Y315946D01*
X601866Y316278D01*
X603279Y317222D01*
X604222Y318634D01*
X604554Y320300D01*
X604222Y321966D01*
X603279Y323378D01*
X601866Y324322D01*
X600200Y324654D01*
X598534Y324322D01*
X597122Y323378D01*
X596178Y321966D01*
X596105Y321600D01*
X581211D01*
X580613Y322720D01*
X580722Y322884D01*
X581054Y324550D01*
X580722Y326216D01*
X579779Y327629D01*
X578366Y328572D01*
X576700Y328904D01*
X575034Y328572D01*
X573621Y327629D01*
X573295Y327140D01*
X560196D01*
X559621Y328410D01*
X560272Y329384D01*
X560490Y330481D01*
X601436D01*
X608981Y322936D01*
Y313608D01*
X607067Y312815D01*
X605210Y311390D01*
X603785Y309533D01*
X602889Y307371D01*
X602583Y305050D01*
X602889Y302729D01*
X603785Y300567D01*
X605210Y298710D01*
X607067Y297285D01*
X609229Y296389D01*
X611550Y296083D01*
X613871Y296389D01*
X616033Y297285D01*
X617891Y298710D01*
X619315Y300567D01*
X620211Y302729D01*
X620517Y305050D01*
X620211Y307371D01*
X619315Y309533D01*
X617891Y311390D01*
X616033Y312815D01*
X614119Y313608D01*
Y324000D01*
X613924Y324983D01*
X613367Y325817D01*
X604317Y334867D01*
X603483Y335424D01*
X602777Y335564D01*
X602902Y336834D01*
X618332D01*
X634381Y320786D01*
Y313608D01*
X632467Y312815D01*
X630610Y311390D01*
X629185Y309533D01*
X628289Y307371D01*
X627983Y305050D01*
X628289Y302729D01*
X629185Y300567D01*
X630610Y298710D01*
X632467Y297285D01*
X634629Y296389D01*
X636950Y296083D01*
X639271Y296389D01*
X641433Y297285D01*
X643290Y298710D01*
X644715Y300567D01*
X645611Y302729D01*
X645917Y305050D01*
X645611Y307371D01*
X644715Y309533D01*
X643290Y311390D01*
X641433Y312815D01*
X639519Y313608D01*
Y320159D01*
X640693Y320645D01*
X642579Y318759D01*
X643419Y318197D01*
X644410Y318000D01*
X685053D01*
X685455Y317920D01*
X690045D01*
X690447Y318000D01*
X796989D01*
X797587Y316880D01*
X797478Y316716D01*
X797146Y315050D01*
X797478Y313384D01*
X798421Y311972D01*
X799834Y311028D01*
X801500Y310696D01*
X803166Y311028D01*
X804578Y311972D01*
X805522Y313384D01*
X805854Y315050D01*
X806158Y315420D01*
X809918D01*
X810171Y314150D01*
X809626Y313925D01*
X807504Y312296D01*
X805875Y310174D01*
X804852Y307702D01*
X804669Y306320D01*
X824830D01*
X824649Y307702D01*
X823625Y310174D01*
X821996Y312296D01*
X819874Y313925D01*
X819330Y314150D01*
X819582Y315420D01*
X966710D01*
X967701Y315617D01*
X968541Y316179D01*
X969174Y316811D01*
X969750Y316696D01*
X971416Y317028D01*
X972829Y317972D01*
X973772Y319384D01*
X974104Y321050D01*
X973772Y322716D01*
X972829Y324128D01*
X971416Y325072D01*
X969750Y325404D01*
X968084Y325072D01*
X966672Y324128D01*
X965728Y322716D01*
X965396Y321050D01*
X965027Y320600D01*
X944372D01*
X943886Y321773D01*
X946924Y324811D01*
X947500Y324696D01*
X949166Y325028D01*
X950579Y325972D01*
X951522Y327384D01*
X951854Y329050D01*
X951522Y330716D01*
X951373Y330940D01*
X952051Y332210D01*
X991563D01*
X991728Y331384D01*
X992672Y329972D01*
X992764Y329910D01*
X992379Y328640D01*
X987855D01*
X987648Y328949D01*
X986236Y329892D01*
X984570Y330224D01*
X982904Y329892D01*
X981491Y328949D01*
X980548Y327536D01*
X980216Y325870D01*
X980548Y324204D01*
X981491Y322792D01*
X982904Y321848D01*
X984570Y321516D01*
X986236Y321848D01*
X987648Y322792D01*
X988095Y323460D01*
X1021277D01*
X1035473Y309264D01*
X1034689Y307371D01*
X1034383Y305050D01*
X1034689Y302729D01*
X1035585Y300567D01*
X1037010Y298710D01*
X1038867Y297285D01*
X1041029Y296389D01*
X1043350Y296083D01*
X1045671Y296389D01*
X1047833Y297285D01*
X1049690Y298710D01*
X1051115Y300567D01*
X1052011Y302729D01*
X1052317Y305050D01*
X1052011Y307371D01*
X1051115Y309533D01*
X1049690Y311390D01*
X1047833Y312815D01*
X1045671Y313711D01*
X1043350Y314017D01*
X1041029Y313711D01*
X1039136Y312927D01*
X1024181Y327881D01*
X1023341Y328443D01*
X1022350Y328640D01*
X999121D01*
X998736Y329910D01*
X998829Y329972D01*
X999772Y331384D01*
X1000104Y333050D01*
X999772Y334716D01*
X998829Y336129D01*
X997416Y337072D01*
X995750Y337404D01*
X994840Y337223D01*
X994000Y337390D01*
X945250D01*
X944259Y337193D01*
X943419Y336631D01*
X935007Y328220D01*
X759078D01*
X752876Y334421D01*
X752036Y334983D01*
X751045Y335180D01*
X701879D01*
X701772Y335716D01*
X700828Y337128D01*
X699416Y338072D01*
X697750Y338404D01*
X696084Y338072D01*
X694672Y337128D01*
X693728Y335716D01*
X693396Y334050D01*
X693728Y332384D01*
X694672Y330972D01*
X694764Y330910D01*
X694379Y329640D01*
X690063D01*
X689416Y330072D01*
X687750Y330404D01*
X686084Y330072D01*
X684672Y329128D01*
X683728Y327716D01*
X683396Y326050D01*
X683715Y324450D01*
X683724Y324227D01*
X683073Y323180D01*
X645483D01*
X621031Y347631D01*
X620191Y348193D01*
X619200Y348390D01*
X612948D01*
X612823Y349660D01*
X613416Y349778D01*
X614828Y350722D01*
X615772Y352134D01*
X615788Y352210D01*
X642927D01*
X651011Y344127D01*
X650896Y343550D01*
X651228Y341884D01*
X652171Y340472D01*
X653584Y339528D01*
X655250Y339196D01*
X656916Y339528D01*
X658328Y340472D01*
X659272Y341884D01*
X659604Y343550D01*
X659272Y345216D01*
X658328Y346628D01*
X656916Y347572D01*
X655250Y347904D01*
X654673Y347789D01*
X645831Y356631D01*
X644991Y357193D01*
X644000Y357390D01*
X614063D01*
X613416Y357822D01*
X611750Y358154D01*
D02*
G37*
G36*
X1095335Y367845D02*
X1031853D01*
Y344990D01*
X1095335D01*
Y367845D01*
D02*
G37*
%LPD*%
D29*
X845000Y481050D02*
X845382Y481432D01*
X701000Y404250D02*
X758950D01*
X845382Y481432D02*
X875480D01*
X636950Y305050D02*
Y321850D01*
X758250Y467100D02*
X759300Y466050D01*
X758950Y404250D02*
X759000Y404300D01*
X1051200Y420050D02*
X1174000D01*
X1044750Y426500D02*
X1051200Y420050D01*
X556250Y331050D02*
X558250Y333050D01*
X602500D01*
X611550Y324000D01*
Y305050D02*
Y324000D01*
X619396Y339404D02*
X636950Y321850D01*
X562750Y339404D02*
X619396D01*
X670750Y431050D02*
X674450Y434750D01*
X723250D01*
X703250Y467250D02*
X758250D01*
Y467100D02*
Y467250D01*
D31*
X369750Y501050D02*
X535122D01*
X544622Y510550D01*
X1045050D01*
X668000Y525300D02*
X721500D01*
X723250Y523550D01*
X727250Y519550D02*
X1021500D01*
X1045050Y510550D02*
X1062943Y528443D01*
X1066290D01*
X723250Y523550D02*
X727250Y519550D01*
D32*
X832000Y441300D02*
X835750Y445050D01*
X837500Y463000D02*
Y464550D01*
X498750Y275500D02*
X499750Y274500D01*
X837500D01*
X865550Y302550D01*
Y305050D01*
X527250Y280750D02*
X831000D01*
X840150Y289900D01*
Y305050D01*
X549104Y399050D02*
X551750D01*
X558690Y405990D01*
X751000Y375050D02*
X756250Y369800D01*
X713952Y375050D02*
X751000D01*
X752500Y410550D02*
X786750D01*
X743000Y420050D02*
X752500Y410550D01*
X749000Y434000D02*
X779250D01*
X797413Y437490D02*
X833810D01*
X796623Y436700D02*
X797413Y437490D01*
X788712Y436700D02*
X796623D01*
X785862Y439550D02*
X788712Y436700D01*
X729500Y439550D02*
X785862D01*
X789500Y441300D02*
X832000D01*
X787000Y443800D02*
X789500Y441300D01*
X732750Y443800D02*
X787000D01*
X661452Y457090D02*
X852790D01*
X653728Y460900D02*
X835400D01*
X641878Y420050D02*
X743000D01*
X728374Y472790D02*
X774260D01*
X708928Y498210D02*
X934160D01*
X816100Y494400D02*
X943100D01*
X882000Y488250D02*
X884540Y485710D01*
X834000Y488250D02*
X882000D01*
X885840Y487090D02*
X984730D01*
X882750Y484000D02*
X885840Y487090D01*
X934160Y498210D02*
X937250Y501300D01*
X943100Y494400D02*
X943750Y495050D01*
X882750Y484000D02*
X882830D01*
X702598Y504540D02*
X708928Y498210D01*
X545740Y504540D02*
X702598D01*
X533000Y491800D02*
X545740Y504540D01*
X683250Y499000D02*
X702300D01*
X811750Y490050D02*
X816100Y494400D01*
X702300Y499000D02*
X723050Y478250D01*
X714000Y348250D02*
X722750D01*
X882830Y484000D02*
X884540Y485710D01*
X723705Y472710D02*
X728295D01*
X728374Y472790D01*
X682250Y343500D02*
X709250D01*
X714000Y348250D01*
X433750Y305050D02*
X453250Y324550D01*
X509950Y305050D02*
X525950Y289050D01*
X1053750Y577550D02*
X1054450Y578250D01*
X1053750Y563050D02*
Y577550D01*
X885750Y387050D02*
Y393050D01*
X883750Y379050D02*
X949750D01*
X885750Y387050D02*
X889750Y383050D01*
X937750D01*
X939750Y385050D01*
X895750Y389050D02*
X931750D01*
X934750Y392050D01*
X949750Y379050D02*
X969750D01*
X970600Y379900D01*
X984570Y326050D02*
X1022350D01*
X1043350Y305050D01*
X525950Y289050D02*
X799750D01*
X723625Y472790D02*
X723705Y472710D01*
X713076Y374174D02*
X713952Y375050D01*
X687750Y326050D02*
Y327050D01*
X749125Y381550D02*
X779000D01*
X723050Y478250D02*
X726000D01*
X598910Y319010D02*
X600200Y320300D01*
X459150Y305050D02*
X473110Y319010D01*
X598910D01*
X453250Y324550D02*
X576700D01*
X1146750Y484050D02*
X1147750Y485050D01*
X987870Y484050D02*
X1146750D01*
X1004750Y477800D02*
X1004960Y477590D01*
X1003000Y477800D02*
X1004750D01*
X935750Y452050D02*
X937500Y453800D01*
X937750Y453550D01*
X935750Y461050D02*
X938000Y463300D01*
X939750Y440050D02*
X941750Y442050D01*
X942500Y441300D01*
X984500D01*
X1025500Y534800D02*
X1053750Y563050D01*
X789500Y429550D02*
X794500Y424550D01*
X924999Y410305D02*
Y411801D01*
X933446Y425854D02*
X950946D01*
X959750Y417050D01*
X865290Y393050D02*
Y396260D01*
X878750Y388050D02*
Y401050D01*
X908500Y411300D02*
X916750Y403050D01*
X921396Y415404D02*
X924999Y411801D01*
X858120Y403430D02*
X865290Y396260D01*
X872560Y407240D02*
X878750Y401050D01*
X830210Y423755D02*
Y423866D01*
X829526Y424550D02*
X830210Y423866D01*
X794500Y424550D02*
X829526D01*
X776750Y416300D02*
X780550Y420100D01*
X828077D01*
X828277Y420300D01*
X992506Y369050D02*
X994003Y367553D01*
X876750Y369050D02*
X992506D01*
X955246Y398550D02*
X962001Y405305D01*
X924000Y398550D02*
X955246D01*
X937750Y453550D02*
X1010000D01*
X687750Y327050D02*
X748750D01*
X801500Y315050D02*
Y315174D01*
X699210Y332590D02*
X751045D01*
X697750Y334050D02*
X699210Y332590D01*
X644410Y320590D02*
X685375D01*
X685455Y320510D01*
X690045D01*
X690125Y320590D01*
X801500Y315174D02*
X804336Y318010D01*
X690125Y320590D02*
X801528D01*
X802758Y321820D01*
X751045Y332590D02*
X758005Y325630D01*
X966710Y318010D02*
X969750Y321050D01*
X758005Y325630D02*
X936080D01*
X804336Y318010D02*
X966710D01*
X802758Y321820D02*
X940270D01*
X947500Y329050D01*
X936080Y325630D02*
X945250Y334800D01*
X994000D01*
X995750Y333050D01*
X722750Y395050D02*
X740250D01*
X742250Y393050D01*
X865750Y470050D02*
X922750D01*
X602750Y437050D02*
X616250Y450550D01*
X654912D01*
X659396Y472790D02*
X723625D01*
X774260D02*
X779450Y467600D01*
X796350D01*
X830210Y423755D02*
X838562Y415404D01*
X921396D01*
X828277Y420300D02*
X837277Y411300D01*
X908500D01*
X826899Y416290D02*
X835949Y407240D01*
X872560D01*
X810750Y410050D02*
X827250D01*
X833870Y403430D01*
X858120D01*
X786750Y410550D02*
X792490Y416290D01*
X826899D01*
X1023290Y431590D02*
X1033250Y441550D01*
X835750Y426050D02*
X841290Y431590D01*
X1023290D01*
X619200Y345800D02*
X644410Y320590D01*
X513250Y345800D02*
X619200D01*
X938000Y463300D02*
X1010250D01*
X937750Y474050D02*
X941290Y477590D01*
X1004960D01*
X984730Y487090D02*
X987820Y484000D01*
X978250Y578250D02*
X978750Y577750D01*
Y536050D02*
Y577750D01*
X822750Y552050D02*
X949612D01*
X884000Y559800D02*
X947250D01*
X1029050Y551850D02*
Y578250D01*
X949612Y552050D02*
X969400Y532262D01*
Y532177D02*
Y532262D01*
Y532177D02*
X975087Y526490D01*
X1003690D01*
X1029050Y551850D01*
X947250Y559800D02*
X973210Y533840D01*
Y533755D02*
Y533840D01*
Y533755D02*
X976665Y530300D01*
X990750D01*
X996000Y535550D01*
X644000Y354800D02*
X655250Y343550D01*
X611750Y353800D02*
Y354800D01*
X644000D01*
X626250Y413000D02*
X629440D01*
X659940Y443500D01*
X627818Y405990D02*
X641878Y420050D01*
X558690Y405990D02*
X627818D01*
X592050Y456750D02*
X592243Y456557D01*
X650236D01*
X833810Y437490D02*
X835750Y435550D01*
X684250Y445550D02*
X723500D01*
X729500Y439550D01*
X692750Y451550D02*
X725000D01*
X732750Y443800D01*
X852790Y457090D02*
X865750Y470050D01*
X654912Y450550D02*
X661452Y457090D01*
X835400Y460900D02*
X837500Y463000D01*
X651578Y463050D02*
X653728Y460900D01*
X573750Y496050D02*
X606750Y463050D01*
X651578D01*
X1081368Y348800D02*
X1091525D01*
X1081368Y358957D01*
Y361496D01*
X1083907Y364035D01*
X1088986D01*
X1091525Y361496D01*
X1076290D02*
X1073750Y364035D01*
X1068672D01*
X1066133Y361496D01*
Y351339D01*
X1068672Y348800D01*
X1073750D01*
X1076290Y351339D01*
Y361496D01*
X1050898Y348800D02*
X1061055D01*
X1050898Y358957D01*
Y361496D01*
X1053437Y364035D01*
X1058515D01*
X1061055Y361496D01*
X1045819D02*
X1043280Y364035D01*
X1038202D01*
X1035663Y361496D01*
Y351339D01*
X1038202Y348800D01*
X1043280D01*
X1045819Y351339D01*
Y361496D01*
X645843Y585285D02*
X656000D01*
Y570050D01*
X645843D01*
X656000Y577668D02*
X650922D01*
X640765D02*
X630608D01*
X625530Y585285D02*
Y570050D01*
X615373D01*
X607756D02*
X602677D01*
X600138Y572589D01*
Y577668D01*
X602677Y580207D01*
X607756D01*
X610295Y577668D01*
Y572589D01*
X607756Y570050D01*
X592521Y580207D02*
X587442D01*
X584903Y577668D01*
Y570050D01*
X592521D01*
X595060Y572589D01*
X592521Y575128D01*
X584903D01*
X569668Y585285D02*
Y570050D01*
X577285D01*
X579825Y572589D01*
Y577668D01*
X577285Y580207D01*
X569668D01*
X539198Y582746D02*
X541737Y585285D01*
X546815D01*
X549355Y582746D01*
Y572589D01*
X546815Y570050D01*
X541737D01*
X539198Y572589D01*
X534119Y570050D02*
Y585285D01*
X523963Y570050D01*
Y585285D01*
X518884D02*
X508728D01*
X513806D01*
Y570050D01*
X503649D02*
Y585285D01*
X496032D01*
X493493Y582746D01*
Y577668D01*
X496032Y575128D01*
X503649D01*
X498571D02*
X493493Y570050D01*
X488414Y585285D02*
Y570050D01*
X478257D01*
D35*
X334500Y255000D02*
Y592250D01*
X1184750D01*
Y255000D02*
Y592250D01*
X334500Y255000D02*
X1184750D01*
D36*
X914750Y578250D02*
D03*
X940150D02*
D03*
X1029050D02*
D03*
X1054450D02*
D03*
X1079850D02*
D03*
X1003650D02*
D03*
X978250D02*
D03*
X1130650D02*
D03*
X1105250D02*
D03*
X1094150Y305050D02*
D03*
X1068750D02*
D03*
X1043350D02*
D03*
X1017950D02*
D03*
X992550D02*
D03*
X1119550D02*
D03*
X1144950D02*
D03*
X890950D02*
D03*
X865550D02*
D03*
X840150D02*
D03*
X814750D02*
D03*
X789350D02*
D03*
X916350D02*
D03*
X941750D02*
D03*
X687750D02*
D03*
X662350D02*
D03*
X636950D02*
D03*
X611550D02*
D03*
X586150D02*
D03*
X713150D02*
D03*
X738550D02*
D03*
X484550D02*
D03*
X459150D02*
D03*
X433750D02*
D03*
X408350D02*
D03*
X382950D02*
D03*
X509950D02*
D03*
X535350D02*
D03*
D37*
X1156050Y578250D02*
D03*
X967150Y305050D02*
D03*
X763950D02*
D03*
X560750D02*
D03*
X357550D02*
D03*
D38*
X722250Y566050D02*
D03*
X378000Y555500D02*
D03*
D39*
X835750Y445050D02*
D03*
X837500Y464550D02*
D03*
X845000Y481050D02*
D03*
X461250Y484000D02*
D03*
X498750Y275500D02*
D03*
X527250Y280750D02*
D03*
X549104Y399050D02*
D03*
X888000Y503750D02*
D03*
X875480Y481432D02*
D03*
X937250Y501550D02*
D03*
X943750Y495050D02*
D03*
X882750Y484000D02*
D03*
X683250Y499000D02*
D03*
X681750Y511300D02*
D03*
X552250Y518000D02*
D03*
X437150Y532150D02*
D03*
Y544850D02*
D03*
X1066290Y528443D02*
D03*
X1094200Y429800D02*
D03*
X1054000Y509350D02*
D03*
X1107950Y490050D02*
D03*
X1124310Y441160D02*
D03*
X1148200Y450050D02*
D03*
X621750Y437750D02*
D03*
X626250Y413000D02*
D03*
X644000Y342500D02*
D03*
X656800Y401500D02*
D03*
X633900Y381100D02*
D03*
X605650Y384850D02*
D03*
X605500Y413000D02*
D03*
X558750Y540250D02*
D03*
X799250Y367500D02*
D03*
X1044750Y426500D02*
D03*
X666750Y547000D02*
D03*
X739500Y479152D02*
D03*
X726000Y478250D02*
D03*
X779250Y434000D02*
D03*
X749000D02*
D03*
X703500Y349250D02*
D03*
X722750Y348250D02*
D03*
X682250Y343500D02*
D03*
X693750Y370250D02*
D03*
X834000Y488250D02*
D03*
X930400Y340350D02*
D03*
X779000Y394250D02*
D03*
X920500Y529000D02*
D03*
X855250Y535500D02*
D03*
X833800Y534800D02*
D03*
X811000Y535250D02*
D03*
X723250Y434750D02*
D03*
X703250Y414098D02*
D03*
X701000Y404250D02*
D03*
X778750Y477500D02*
D03*
X659940Y443500D02*
D03*
X911200Y339550D02*
D03*
X739250Y414500D02*
D03*
X859500Y451050D02*
D03*
X904500Y451550D02*
D03*
X850000Y385000D02*
D03*
X969750Y472050D02*
D03*
X1147750Y485050D02*
D03*
X796350Y467600D02*
D03*
X821750Y388050D02*
D03*
X800500Y388000D02*
D03*
X810750Y410050D02*
D03*
X867750Y421050D02*
D03*
X1138750Y500050D02*
D03*
X978750Y536050D02*
D03*
X822750Y552050D02*
D03*
X885750Y393050D02*
D03*
X895750Y389050D02*
D03*
X876750Y369050D02*
D03*
X865290Y393050D02*
D03*
X878750Y388050D02*
D03*
X883750Y379050D02*
D03*
X949750D02*
D03*
X939750Y385050D02*
D03*
X934750Y392050D02*
D03*
X916750Y403050D02*
D03*
X970600Y379900D02*
D03*
X959750Y417050D02*
D03*
X969750Y321050D02*
D03*
X1036500Y395050D02*
D03*
X1062750Y376050D02*
D03*
X1037750D02*
D03*
X984570Y325870D02*
D03*
X939750Y440050D02*
D03*
X922750Y470050D02*
D03*
X602750Y437050D02*
D03*
X811750Y490050D02*
D03*
X935750Y452050D02*
D03*
X935750Y461050D02*
D03*
X592050Y456750D02*
D03*
X977750Y416050D02*
D03*
X739750Y368050D02*
D03*
X713076Y374174D02*
D03*
X748750Y327050D02*
D03*
X687750Y326050D02*
D03*
X697750Y334050D02*
D03*
X995750Y333050D02*
D03*
X1053000Y328800D02*
D03*
X756250Y369800D02*
D03*
X749076Y381600D02*
D03*
X779000Y381550D02*
D03*
X377002Y405060D02*
D03*
X382752Y448460D02*
D03*
X446669Y468626D02*
D03*
X476753Y437210D02*
D03*
X456502Y431710D02*
D03*
X470003Y355210D02*
D03*
X448252Y355960D02*
D03*
X412253Y325960D02*
D03*
X522342Y388710D02*
D03*
X670750Y431050D02*
D03*
X684250Y445550D02*
D03*
X692750Y451550D02*
D03*
X637750Y475750D02*
D03*
X703250Y480750D02*
D03*
Y467250D02*
D03*
X573750Y496050D02*
D03*
X604250Y496500D02*
D03*
X533000Y491800D02*
D03*
X506500Y501800D02*
D03*
X484253Y429210D02*
D03*
X600200Y320300D02*
D03*
X576700Y324550D02*
D03*
X562750Y339404D02*
D03*
X1003000Y477800D02*
D03*
X1010250Y463300D02*
D03*
X984500Y441300D02*
D03*
X1083000Y407050D02*
D03*
X1025500Y534800D02*
D03*
X789500Y429550D02*
D03*
X835750Y426050D02*
D03*
Y435550D02*
D03*
X924999Y410305D02*
D03*
X924000Y398550D02*
D03*
X933446Y425854D02*
D03*
X759000Y404300D02*
D03*
X800500Y410750D02*
D03*
X776750Y416300D02*
D03*
X822750Y431050D02*
D03*
X994003Y367553D02*
D03*
X962001Y405305D02*
D03*
X723250Y523550D02*
D03*
X1010000Y453550D02*
D03*
X1033250Y441550D02*
D03*
X1021500Y519550D02*
D03*
X949000Y357050D02*
D03*
X845750Y332800D02*
D03*
X801500Y315050D02*
D03*
X799750Y289050D02*
D03*
X779000Y349050D02*
D03*
X947500Y329050D02*
D03*
X970500Y359300D02*
D03*
X742250Y393050D02*
D03*
X722750Y395050D02*
D03*
X659396Y472790D02*
D03*
X1174000Y420050D02*
D03*
X556250Y331050D02*
D03*
X818750Y573300D02*
D03*
X937750Y474050D02*
D03*
X964750Y526750D02*
D03*
X884000Y559800D02*
D03*
X996000Y535550D02*
D03*
X996250Y510800D02*
D03*
X655250Y343550D02*
D03*
X611750Y353800D02*
D03*
X634000Y402300D02*
D03*
X622500Y324550D02*
D03*
X650236Y456557D02*
D03*
X513250Y345800D02*
D03*
X369750Y500800D02*
D03*
X792250Y449050D02*
D03*
X758250Y467250D02*
D03*
X668000Y525300D02*
D03*
M02*
