G04*
G04 #@! TF.GenerationSoftware,Altium Limited,CircuitStudio,1.5.2 (1.5.2.30)*
G04*
G04 Layer_Physical_Order=3*
G04 Layer_Color=553216*
%FSLAX44Y44*%
%MOMM*%
G71*
G01*
G75*
%ADD35C,0.2030*%
%ADD40C,1.0160*%
%ADD41C,2.0160*%
%ADD42C,4.0160*%
%ADD43C,1.3160*%
D35*
X334500Y255000D02*
Y592250D01*
X1184750D01*
Y255000D02*
Y592250D01*
X334500Y255000D02*
X1184750D01*
D40*
X334500D02*
Y592250D01*
X1184750D01*
Y255000D02*
Y592250D01*
X334500Y255000D02*
X1184750D01*
D41*
X914750Y578250D02*
D03*
X1029050D02*
D03*
X1054450D02*
D03*
X1079850D02*
D03*
X1156050D02*
D03*
X1003650D02*
D03*
X978250D02*
D03*
X1130650D02*
D03*
X1105250D02*
D03*
X1094150Y305050D02*
D03*
X1068750D02*
D03*
X1043350D02*
D03*
X1017950D02*
D03*
X992550D02*
D03*
X967150D02*
D03*
X1144950D02*
D03*
X890950D02*
D03*
X865550D02*
D03*
X840150D02*
D03*
X814750D02*
D03*
X789350D02*
D03*
X763950D02*
D03*
X916350D02*
D03*
X941750D02*
D03*
X687750D02*
D03*
X662350D02*
D03*
X636950D02*
D03*
X611550D02*
D03*
X586150D02*
D03*
X560750D02*
D03*
X713150D02*
D03*
X738550D02*
D03*
X484550D02*
D03*
X459150D02*
D03*
X433750D02*
D03*
X408350D02*
D03*
X382950D02*
D03*
X357550D02*
D03*
X509950D02*
D03*
X535350D02*
D03*
D42*
X722250Y566050D02*
D03*
X378000Y555500D02*
D03*
D43*
X835750Y445050D02*
D03*
X837500Y464550D02*
D03*
X845000Y481050D02*
D03*
X461250Y484000D02*
D03*
X498750Y275500D02*
D03*
X527250Y280750D02*
D03*
X549104Y399050D02*
D03*
X875480Y481432D02*
D03*
X937250Y501550D02*
D03*
X943750Y495050D02*
D03*
X882750Y484000D02*
D03*
X683250Y499000D02*
D03*
X681750Y511300D02*
D03*
X552250Y518000D02*
D03*
X437150Y532150D02*
D03*
Y544850D02*
D03*
X1066290Y528443D02*
D03*
X1054000Y509350D02*
D03*
X1107950Y490050D02*
D03*
X1124310Y441160D02*
D03*
X1148200Y450050D02*
D03*
X621750Y437750D02*
D03*
X626250Y413000D02*
D03*
X644000Y342500D02*
D03*
X656800Y401500D02*
D03*
X605650Y384850D02*
D03*
X605500Y413000D02*
D03*
X558750Y540250D02*
D03*
X1044750Y426500D02*
D03*
X666750Y547000D02*
D03*
X739500Y479152D02*
D03*
X726000Y478250D02*
D03*
X779250Y434000D02*
D03*
X749000D02*
D03*
X703500Y349250D02*
D03*
X722750Y348250D02*
D03*
X682250Y343500D02*
D03*
X693750Y370250D02*
D03*
X834000Y488250D02*
D03*
X779000Y394250D02*
D03*
X920500Y529000D02*
D03*
X855250Y535500D02*
D03*
X833800Y534800D02*
D03*
X811000Y535250D02*
D03*
X723250Y434750D02*
D03*
X703250Y414098D02*
D03*
X701000Y404250D02*
D03*
X778750Y477500D02*
D03*
X659940Y443500D02*
D03*
X739250Y414500D02*
D03*
X859500Y451050D02*
D03*
X904500Y451550D02*
D03*
X850000Y385000D02*
D03*
X969750Y472050D02*
D03*
X1147750Y485050D02*
D03*
X796350Y467600D02*
D03*
X821750Y388050D02*
D03*
X800500Y388000D02*
D03*
X810750Y410050D02*
D03*
X867750Y421050D02*
D03*
X978750Y536050D02*
D03*
X822750Y552050D02*
D03*
X885750Y393050D02*
D03*
X895750Y389050D02*
D03*
X876750Y369050D02*
D03*
X865290Y393050D02*
D03*
X878750Y388050D02*
D03*
X883750Y379050D02*
D03*
X949750D02*
D03*
X939750Y385050D02*
D03*
X934750Y392050D02*
D03*
X916750Y403050D02*
D03*
X970600Y379900D02*
D03*
X959750Y417050D02*
D03*
X969750Y321050D02*
D03*
X1036500Y395050D02*
D03*
X1062750Y376050D02*
D03*
X1037750D02*
D03*
X984570Y325870D02*
D03*
X939750Y440050D02*
D03*
X922750Y470050D02*
D03*
X602750Y437050D02*
D03*
X811750Y490050D02*
D03*
X935750Y452050D02*
D03*
X935750Y461050D02*
D03*
X592050Y456750D02*
D03*
X977750Y416050D02*
D03*
X739750Y368050D02*
D03*
X713076Y374174D02*
D03*
X748750Y327050D02*
D03*
X687750Y326050D02*
D03*
X697750Y334050D02*
D03*
X995750Y333050D02*
D03*
X1053000Y328800D02*
D03*
X756250Y369800D02*
D03*
X749076Y381600D02*
D03*
X779000Y381550D02*
D03*
X377002Y405060D02*
D03*
X382752Y448460D02*
D03*
X446669Y468626D02*
D03*
X476753Y437210D02*
D03*
X456502Y431710D02*
D03*
X448252Y355960D02*
D03*
X412253Y325960D02*
D03*
X522342Y388710D02*
D03*
X670750Y431050D02*
D03*
X684250Y445550D02*
D03*
X692750Y451550D02*
D03*
X637750Y475750D02*
D03*
X703250Y480750D02*
D03*
Y467250D02*
D03*
X573750Y496050D02*
D03*
X604250Y496500D02*
D03*
X533000Y491800D02*
D03*
X506500Y501800D02*
D03*
X484253Y429210D02*
D03*
X600200Y320300D02*
D03*
X576700Y324550D02*
D03*
X562750Y339404D02*
D03*
X1003000Y477800D02*
D03*
X1010250Y463300D02*
D03*
X984500Y441300D02*
D03*
X1083000Y407050D02*
D03*
X1025500Y534800D02*
D03*
X789500Y429550D02*
D03*
X835750Y426050D02*
D03*
Y435550D02*
D03*
X924999Y410305D02*
D03*
X924000Y398550D02*
D03*
X933446Y425854D02*
D03*
X759000Y404300D02*
D03*
X776750Y416300D02*
D03*
X994003Y367553D02*
D03*
X962001Y405305D02*
D03*
X723250Y523550D02*
D03*
X1010000Y453550D02*
D03*
X1033250Y441550D02*
D03*
X1021500Y519550D02*
D03*
X949000Y357050D02*
D03*
X845750Y332800D02*
D03*
X801500Y315050D02*
D03*
X799750Y289050D02*
D03*
X779000Y349050D02*
D03*
X947500Y329050D02*
D03*
X970500Y359300D02*
D03*
X742250Y393050D02*
D03*
X722750Y395050D02*
D03*
X659396Y472790D02*
D03*
X1174000Y420050D02*
D03*
X556250Y331050D02*
D03*
X818750Y573300D02*
D03*
X937750Y474050D02*
D03*
X884000Y559800D02*
D03*
X996000Y535550D02*
D03*
X996250Y510800D02*
D03*
X655250Y343550D02*
D03*
X611750Y353800D02*
D03*
X634000Y402300D02*
D03*
X622500Y324550D02*
D03*
X650236Y456557D02*
D03*
X513250Y345800D02*
D03*
X369750Y500800D02*
D03*
X792250Y449050D02*
D03*
X758250Y467250D02*
D03*
X668000Y525300D02*
D03*
M02*
