G04*
G04 #@! TF.GenerationSoftware,Altium Limited,CircuitStudio,1.5.2 (1.5.2.30)*
G04*
G04 Layer_Color=2752767*
%FSLAX44Y44*%
%MOMM*%
G71*
G01*
G75*
%ADD32C,0.2540*%
%ADD35C,0.2030*%
%ADD48C,0.3810*%
%ADD78C,0.0847*%
%ADD79C,0.4064*%
D32*
X1042776Y958600D02*
Y973835D01*
X1050393D01*
X1052933Y971296D01*
Y966217D01*
X1050393Y963678D01*
X1042776D01*
X1047854D02*
X1052933Y958600D01*
X1060550D02*
X1065629D01*
X1068168Y961139D01*
Y966217D01*
X1065629Y968757D01*
X1060550D01*
X1058011Y966217D01*
Y961139D01*
X1060550Y958600D01*
X1073246Y968757D02*
Y961139D01*
X1075785Y958600D01*
X1083403D01*
Y968757D01*
X1088481Y958600D02*
Y968757D01*
X1096099D01*
X1098638Y966217D01*
Y958600D01*
X1113873Y973835D02*
Y958600D01*
X1106255D01*
X1103716Y961139D01*
Y966217D01*
X1106255Y968757D01*
X1113873D01*
X1042776Y920500D02*
Y935735D01*
X1050393D01*
X1052933Y933196D01*
Y928118D01*
X1050393Y925578D01*
X1042776D01*
X1047854D02*
X1052933Y920500D01*
X1060550D02*
X1065629D01*
X1068168Y923039D01*
Y928118D01*
X1065629Y930657D01*
X1060550D01*
X1058011Y928118D01*
Y923039D01*
X1060550Y920500D01*
X1073246Y930657D02*
Y923039D01*
X1075785Y920500D01*
X1083403D01*
Y930657D01*
X1088481Y920500D02*
Y930657D01*
X1096099D01*
X1098638Y928118D01*
Y920500D01*
X1113873Y935735D02*
Y920500D01*
X1106255D01*
X1103716Y923039D01*
Y928118D01*
X1106255Y930657D01*
X1113873D01*
X1042776Y882400D02*
Y897635D01*
X1050393D01*
X1052933Y895096D01*
Y890017D01*
X1050393Y887478D01*
X1042776D01*
X1047854D02*
X1052933Y882400D01*
X1060550D02*
X1065629D01*
X1068168Y884939D01*
Y890017D01*
X1065629Y892557D01*
X1060550D01*
X1058011Y890017D01*
Y884939D01*
X1060550Y882400D01*
X1073246Y892557D02*
Y884939D01*
X1075785Y882400D01*
X1083403D01*
Y892557D01*
X1088481Y882400D02*
Y892557D01*
X1096099D01*
X1098638Y890017D01*
Y882400D01*
X1113873Y897635D02*
Y882400D01*
X1106255D01*
X1103716Y884939D01*
Y890017D01*
X1106255Y892557D01*
X1113873D01*
X914283Y958600D02*
Y973835D01*
X924440Y958600D01*
Y973835D01*
X929519Y958600D02*
Y973835D01*
X937136D01*
X939675Y971296D01*
Y966217D01*
X937136Y963678D01*
X929519D01*
X944754Y973835D02*
X954910D01*
X949832D01*
Y958600D01*
X959989Y973835D02*
Y958600D01*
Y966217D01*
X970145D01*
Y973835D01*
Y958600D01*
X914283Y920500D02*
Y935735D01*
X921901D01*
X924440Y933196D01*
Y928118D01*
X921901Y925578D01*
X914283D01*
X929519Y935735D02*
X939675D01*
X934597D01*
Y920500D01*
X944754Y935735D02*
Y920500D01*
Y928118D01*
X954910D01*
Y935735D01*
Y920500D01*
X914283Y882400D02*
Y897635D01*
X921901D01*
X924440Y895096D01*
Y890017D01*
X921901Y887478D01*
X914283D01*
X929519Y897635D02*
X939675D01*
X934597D01*
Y882400D01*
X944754Y897635D02*
Y882400D01*
Y890017D01*
X954910D01*
Y897635D01*
Y882400D01*
X572500Y971296D02*
X575039Y973835D01*
X580117D01*
X582657Y971296D01*
Y968757D01*
X580117Y966217D01*
X577578D01*
X580117D01*
X582657Y963678D01*
Y961139D01*
X580117Y958600D01*
X575039D01*
X572500Y961139D01*
X587735Y958600D02*
Y961139D01*
X590274D01*
Y958600D01*
X587735D01*
X600431Y971296D02*
X602970Y973835D01*
X608049D01*
X610588Y971296D01*
Y961139D01*
X608049Y958600D01*
X602970D01*
X600431Y961139D01*
Y971296D01*
X615666D02*
X618205Y973835D01*
X623284D01*
X625823Y971296D01*
Y961139D01*
X623284Y958600D01*
X618205D01*
X615666Y961139D01*
Y971296D01*
X630901D02*
X633440Y973835D01*
X638519D01*
X641058Y971296D01*
Y961139D01*
X638519Y958600D01*
X633440D01*
X630901Y961139D01*
Y971296D01*
X646136Y958600D02*
Y968757D01*
X648675D01*
X651215Y966217D01*
Y958600D01*
Y966217D01*
X653754Y968757D01*
X656293Y966217D01*
Y958600D01*
X661371D02*
Y968757D01*
X663910D01*
X666450Y966217D01*
Y958600D01*
Y966217D01*
X668989Y968757D01*
X671528Y966217D01*
Y958600D01*
X696920D02*
X691841Y963678D01*
Y968757D01*
X696920Y973835D01*
X704537Y958600D02*
X709616D01*
X707076D01*
Y973835D01*
X704537Y971296D01*
X717233Y958600D02*
X722311D01*
X719772D01*
Y973835D01*
X717233Y971296D01*
X729929D02*
X732468Y973835D01*
X737547D01*
X740086Y971296D01*
Y968757D01*
X737547Y966217D01*
X740086Y963678D01*
Y961139D01*
X737547Y958600D01*
X732468D01*
X729929Y961139D01*
Y963678D01*
X732468Y966217D01*
X729929Y968757D01*
Y971296D01*
X732468Y966217D02*
X737547D01*
X745164Y958600D02*
Y961139D01*
X747703D01*
Y958600D01*
X745164D01*
X757860D02*
X762938D01*
X760399D01*
Y973835D01*
X757860Y971296D01*
X770556Y958600D02*
X775634D01*
X773095D01*
Y973835D01*
X770556Y971296D01*
X783252Y958600D02*
Y968757D01*
X785791D01*
X788330Y966217D01*
Y958600D01*
Y966217D01*
X790869Y968757D01*
X793409Y966217D01*
Y958600D01*
X798487D02*
X803565D01*
X801026D01*
Y968757D01*
X798487D01*
X811183Y958600D02*
X816261D01*
X813722D01*
Y973835D01*
X811183D01*
X823879Y958600D02*
X828957Y963678D01*
Y968757D01*
X823879Y973835D01*
X572500Y920500D02*
X577578D01*
X575039D01*
Y935735D01*
X572500Y933196D01*
X585196Y920500D02*
Y923039D01*
X587735D01*
Y920500D01*
X585196D01*
X597892Y933196D02*
X600431Y935735D01*
X605509D01*
X608049Y933196D01*
Y923039D01*
X605509Y920500D01*
X600431D01*
X597892Y923039D01*
Y933196D01*
X613127D02*
X615666Y935735D01*
X620744D01*
X623284Y933196D01*
Y923039D01*
X620744Y920500D01*
X615666D01*
X613127Y923039D01*
Y933196D01*
X628362D02*
X630901Y935735D01*
X635979D01*
X638519Y933196D01*
Y923039D01*
X635979Y920500D01*
X630901D01*
X628362Y923039D01*
Y933196D01*
X643597Y920500D02*
Y930657D01*
X646136D01*
X648675Y928118D01*
Y920500D01*
Y928118D01*
X651215Y930657D01*
X653754Y928118D01*
Y920500D01*
X658832D02*
Y930657D01*
X661371D01*
X663910Y928118D01*
Y920500D01*
Y928118D01*
X666450Y930657D01*
X668989Y928118D01*
Y920500D01*
X694381D02*
X689302Y925578D01*
Y930657D01*
X694381Y935735D01*
X701998Y933196D02*
X704537Y935735D01*
X709616D01*
X712155Y933196D01*
Y930657D01*
X709616Y928118D01*
X707076D01*
X709616D01*
X712155Y925578D01*
Y923039D01*
X709616Y920500D01*
X704537D01*
X701998Y923039D01*
X717233D02*
X719772Y920500D01*
X724851D01*
X727390Y923039D01*
Y933196D01*
X724851Y935735D01*
X719772D01*
X717233Y933196D01*
Y930657D01*
X719772Y928118D01*
X727390D01*
X732468Y920500D02*
Y923039D01*
X735007D01*
Y920500D01*
X732468D01*
X745164Y933196D02*
X747703Y935735D01*
X752782D01*
X755321Y933196D01*
Y930657D01*
X752782Y928118D01*
X750242D01*
X752782D01*
X755321Y925578D01*
Y923039D01*
X752782Y920500D01*
X747703D01*
X745164Y923039D01*
X760399Y935735D02*
X770556D01*
Y933196D01*
X760399Y923039D01*
Y920500D01*
X775634D02*
Y930657D01*
X778174D01*
X780713Y928118D01*
Y920500D01*
Y928118D01*
X783252Y930657D01*
X785791Y928118D01*
Y920500D01*
X790869D02*
X795948D01*
X793409D01*
Y930657D01*
X790869D01*
X803565Y920500D02*
X808644D01*
X806104D01*
Y935735D01*
X803565D01*
X816261Y920500D02*
X821339Y925578D01*
Y930657D01*
X816261Y935735D01*
X572500Y895096D02*
X575039Y897635D01*
X580117D01*
X582657Y895096D01*
Y884939D01*
X580117Y882400D01*
X575039D01*
X572500Y884939D01*
Y895096D01*
X587735Y882400D02*
Y884939D01*
X590274D01*
Y882400D01*
X587735D01*
X600431Y895096D02*
X602970Y897635D01*
X608049D01*
X610588Y895096D01*
Y892557D01*
X608049Y890017D01*
X605509D01*
X608049D01*
X610588Y887478D01*
Y884939D01*
X608049Y882400D01*
X602970D01*
X600431Y884939D01*
X615666Y895096D02*
X618205Y897635D01*
X623284D01*
X625823Y895096D01*
Y884939D01*
X623284Y882400D01*
X618205D01*
X615666Y884939D01*
Y895096D01*
X630901D02*
X633440Y897635D01*
X638519D01*
X641058Y895096D01*
Y884939D01*
X638519Y882400D01*
X633440D01*
X630901Y884939D01*
Y895096D01*
X646136Y882400D02*
Y892557D01*
X648675D01*
X651215Y890017D01*
Y882400D01*
Y890017D01*
X653754Y892557D01*
X656293Y890017D01*
Y882400D01*
X661371D02*
Y892557D01*
X663910D01*
X666450Y890017D01*
Y882400D01*
Y890017D01*
X668989Y892557D01*
X671528Y890017D01*
Y882400D01*
X696920D02*
X691841Y887478D01*
Y892557D01*
X696920Y897635D01*
X704537Y882400D02*
X709616D01*
X707076D01*
Y897635D01*
X704537Y895096D01*
X717233Y882400D02*
X722311D01*
X719772D01*
Y897635D01*
X717233Y895096D01*
X729929Y882400D02*
Y884939D01*
X732468D01*
Y882400D01*
X729929D01*
X742625Y895096D02*
X745164Y897635D01*
X750242D01*
X752782Y895096D01*
Y892557D01*
X750242Y890017D01*
X752782Y887478D01*
Y884939D01*
X750242Y882400D01*
X745164D01*
X742625Y884939D01*
Y887478D01*
X745164Y890017D01*
X742625Y892557D01*
Y895096D01*
X745164Y890017D02*
X750242D01*
X757860Y882400D02*
X762938D01*
X760399D01*
Y897635D01*
X757860Y895096D01*
X770556Y882400D02*
Y892557D01*
X773095D01*
X775634Y890017D01*
Y882400D01*
Y890017D01*
X778173Y892557D01*
X780713Y890017D01*
Y882400D01*
X785791D02*
X790869D01*
X788330D01*
Y892557D01*
X785791D01*
X798487Y882400D02*
X803565D01*
X801026D01*
Y897635D01*
X798487D01*
X811183Y882400D02*
X816261Y887478D01*
Y892557D01*
X811183Y897635D01*
X405412Y844300D02*
X395255D01*
X405412Y854457D01*
Y856996D01*
X402873Y859535D01*
X397794D01*
X395255Y856996D01*
X420647Y844300D02*
X410490D01*
X420647Y854457D01*
Y856996D01*
X418108Y859535D01*
X413030D01*
X410490Y856996D01*
X425726D02*
X428265Y859535D01*
X433343D01*
X435882Y856996D01*
Y846839D01*
X433343Y844300D01*
X428265D01*
X425726Y846839D01*
Y856996D01*
X456196Y859535D02*
X466352D01*
X461274D01*
Y844300D01*
X473970D02*
X479048D01*
X481587Y846839D01*
Y851917D01*
X479048Y854457D01*
X473970D01*
X471431Y851917D01*
Y846839D01*
X473970Y844300D01*
X489205Y856996D02*
Y854457D01*
X486666D01*
X491744D01*
X489205D01*
Y846839D01*
X491744Y844300D01*
X501901Y854457D02*
X506979D01*
X509518Y851917D01*
Y844300D01*
X501901D01*
X499362Y846839D01*
X501901Y849378D01*
X509518D01*
X514597Y844300D02*
X519675D01*
X517136D01*
Y859535D01*
X514597D01*
X405412Y958600D02*
X395255D01*
X405412Y968757D01*
Y971296D01*
X402873Y973835D01*
X397794D01*
X395255Y971296D01*
X402873Y920500D02*
Y935735D01*
X395255Y928118D01*
X405412D01*
X420647Y920500D02*
X410490D01*
X420647Y930657D01*
Y933196D01*
X418108Y935735D01*
X413030D01*
X410490Y933196D01*
X395255Y882400D02*
X400334D01*
X397794D01*
Y897635D01*
X395255Y895096D01*
X407951Y897635D02*
X418108D01*
Y895096D01*
X407951Y884939D01*
Y882400D01*
X433343Y897635D02*
X428265Y895096D01*
X423186Y890017D01*
Y884939D01*
X425726Y882400D01*
X430804D01*
X433343Y884939D01*
Y887478D01*
X430804Y890017D01*
X423186D01*
D35*
X334500Y255000D02*
Y592250D01*
X1184750D01*
Y255000D02*
Y592250D01*
X334500Y255000D02*
X1184750D01*
D48*
X243903Y985270D02*
X1229162D01*
X243903Y870970D02*
X1229162D01*
X243903Y832870D02*
X1229162D01*
Y1023370D01*
X243903D02*
X1229162D01*
X243903Y832870D02*
Y1023370D01*
X1031346Y832870D02*
Y1023370D01*
X902853Y832870D02*
Y1023370D01*
X561070Y832870D02*
Y1023370D01*
X383825Y832870D02*
Y1023370D01*
D78*
X261207Y958600D02*
Y961775D01*
X264382Y964950D01*
X261207Y968125D02*
X264382Y964950D01*
X261207Y968125D02*
Y971300D01*
X264382D01*
X267557Y968125D01*
X270732Y971300D01*
X273907D01*
Y968125D02*
Y971300D01*
X270732Y964950D02*
X273907Y968125D01*
X270732Y964950D02*
X273907Y961775D01*
Y958600D02*
Y961775D01*
X270732Y958600D02*
X273907D01*
X267557Y961775D02*
X270732Y958600D01*
X264382D02*
X267557Y961775D01*
X261207Y958600D02*
X264382D01*
Y923675D02*
X267557Y920500D01*
X261207Y923675D02*
X264382D01*
X261207D02*
X264382Y926850D01*
X261207Y930025D02*
X264382Y926850D01*
X261207Y930025D02*
X264382D01*
X267557Y933200D01*
X270732Y930025D01*
X273907D01*
X270732Y926850D02*
X273907Y930025D01*
X270732Y926850D02*
X273907Y923675D01*
X270732D02*
X273907D01*
X267557Y920500D02*
X270732Y923675D01*
X261207Y882400D02*
X273907D01*
Y895100D01*
X261207D02*
X273907D01*
X261207Y882400D02*
Y895100D01*
X663767Y521067D02*
X672233D01*
Y529533D01*
X663767D02*
X672233D01*
X663767Y521067D02*
Y529533D01*
X754017Y463017D02*
X762483D01*
Y471483D01*
X754017D02*
X762483D01*
X754017Y463017D02*
Y471483D01*
X788017Y444817D02*
X796483D01*
Y453283D01*
X788017D02*
X796483D01*
X788017Y444817D02*
Y453283D01*
X365517Y496567D02*
X373983D01*
Y505033D01*
X365517D02*
X373983D01*
X365517Y496567D02*
Y505033D01*
X509017Y341567D02*
X517483D01*
Y350033D01*
X509017D02*
X517483D01*
X509017Y341567D02*
Y350033D01*
X646003Y452324D02*
X654469D01*
Y460791D01*
X646003D02*
X654469D01*
X646003Y452324D02*
Y460791D01*
X618267Y320317D02*
X626733D01*
Y328783D01*
X618267D02*
X626733D01*
X618267Y320317D02*
Y328783D01*
X629767Y398067D02*
X638233D01*
Y406533D01*
X629767D02*
X638233D01*
X629767Y398067D02*
Y406533D01*
X607517Y349567D02*
X615983D01*
Y358033D01*
X607517D02*
X615983D01*
X607517Y349567D02*
Y358033D01*
X651017Y339317D02*
X659483D01*
Y347783D01*
X651017D02*
X659483D01*
X651017Y339317D02*
Y347783D01*
X992017Y506567D02*
X1000483D01*
Y515033D01*
X992017D02*
X1000483D01*
X992017Y506567D02*
Y515033D01*
X991767Y531317D02*
X1000233D01*
Y539783D01*
X991767D02*
X1000233D01*
X991767Y531317D02*
Y539783D01*
X879767Y555567D02*
X888233D01*
Y564033D01*
X879767D02*
X888233D01*
X879767Y555567D02*
Y564033D01*
X960516Y522517D02*
X968983D01*
Y530983D01*
X960516D02*
X968983D01*
X960516Y522517D02*
Y530983D01*
X933517Y469817D02*
X941983D01*
Y478283D01*
X933517D02*
X941983D01*
X933517Y469817D02*
Y478283D01*
X814517Y569067D02*
X822983D01*
Y577533D01*
X814517D02*
X822983D01*
X814517Y569067D02*
Y577533D01*
X552017Y326817D02*
X560483D01*
Y335283D01*
X552017D02*
X560483D01*
X552017Y326817D02*
Y335283D01*
X1169767Y415817D02*
X1178233D01*
Y424283D01*
X1169767D02*
X1178233D01*
X1169767Y415817D02*
Y424283D01*
X655163Y468557D02*
X663629D01*
Y477023D01*
X655163D02*
X663629D01*
X655163Y468557D02*
Y477023D01*
X718517Y390817D02*
X726983D01*
Y399283D01*
X718517D02*
X726983D01*
X718517Y390817D02*
Y399283D01*
X738017Y388817D02*
X746483D01*
Y397283D01*
X738017D02*
X746483D01*
X738017Y388817D02*
Y397283D01*
X966267Y355067D02*
X974733D01*
Y363533D01*
X966267D02*
X974733D01*
X966267Y355067D02*
Y363533D01*
X943267Y324817D02*
X951733D01*
Y333283D01*
X943267D02*
X951733D01*
X943267Y324817D02*
Y333283D01*
X774767Y344817D02*
X783233D01*
Y353283D01*
X774767D02*
X783233D01*
X774767Y344817D02*
Y353283D01*
X795517Y284817D02*
X803983D01*
Y293283D01*
X795517D02*
X803983D01*
X795517Y284817D02*
Y293283D01*
X797267Y310817D02*
X805733D01*
Y319283D01*
X797267D02*
X805733D01*
X797267Y310817D02*
Y319283D01*
X841517Y328567D02*
X849983D01*
Y337033D01*
X841517D02*
X849983D01*
X841517Y328567D02*
Y337033D01*
X944767Y352817D02*
X953233D01*
Y361283D01*
X944767D02*
X953233D01*
X944767Y352817D02*
Y361283D01*
X1017267Y515317D02*
X1025733D01*
Y523783D01*
X1017267D02*
X1025733D01*
X1017267Y515317D02*
Y523783D01*
X1029017Y437317D02*
X1037483D01*
Y445783D01*
X1029017D02*
X1037483D01*
X1029017Y437317D02*
Y445783D01*
X1005767Y449317D02*
X1014233D01*
Y457783D01*
X1005767D02*
X1014233D01*
X1005767Y449317D02*
Y457783D01*
X719017Y519317D02*
X727483D01*
Y527783D01*
X719017D02*
X727483D01*
X719017Y519317D02*
Y527783D01*
X957768Y401072D02*
X966234D01*
Y409538D01*
X957768D02*
X966234D01*
X957768Y401072D02*
Y409538D01*
X989769Y363320D02*
X998236D01*
Y371786D01*
X989769D02*
X998236D01*
X989769Y363320D02*
Y371786D01*
X818517Y426817D02*
X826983D01*
Y435283D01*
X818517D02*
X826983D01*
X818517Y426817D02*
Y435283D01*
X772517Y412067D02*
X780983D01*
Y420533D01*
X772517D02*
X780983D01*
X772517Y412067D02*
Y420533D01*
X796266Y406517D02*
X804733D01*
Y414983D01*
X796266D02*
X804733D01*
X796266Y406517D02*
Y414983D01*
X754767Y400067D02*
X763233D01*
Y408533D01*
X754767D02*
X763233D01*
X754767Y400067D02*
Y408533D01*
X929213Y421621D02*
X937679D01*
Y430087D01*
X929213D02*
X937679D01*
X929213Y421621D02*
Y430087D01*
X919767Y394317D02*
X928233D01*
Y402783D01*
X919767D02*
X928233D01*
X919767Y394317D02*
Y402783D01*
X920766Y406072D02*
X929232D01*
Y414538D01*
X920766D02*
X929232D01*
X920766Y406072D02*
Y414538D01*
X831517Y431317D02*
X839983D01*
Y439783D01*
X831517D02*
X839983D01*
X831517Y431317D02*
Y439783D01*
Y421817D02*
X839983D01*
Y430284D01*
X831517D02*
X839983D01*
X831517Y421817D02*
Y430284D01*
X785267Y425317D02*
X793733D01*
Y433783D01*
X785267D02*
X793733D01*
X785267Y425317D02*
Y433783D01*
X1021267Y530567D02*
X1029733D01*
Y539033D01*
X1021267D02*
X1029733D01*
X1021267Y530567D02*
Y539033D01*
X1078767Y402817D02*
X1087233D01*
Y411283D01*
X1078767D02*
X1087233D01*
X1078767Y402817D02*
Y411283D01*
X980267Y437067D02*
X988733D01*
Y445533D01*
X980267D02*
X988733D01*
X980267Y437067D02*
Y445533D01*
X1006017Y459067D02*
X1014483D01*
Y467533D01*
X1006017D02*
X1014483D01*
X1006017Y459067D02*
Y467533D01*
X998767Y473567D02*
X1007233D01*
Y482033D01*
X998767D02*
X1007233D01*
X998767Y473567D02*
Y482033D01*
X558517Y335170D02*
X566983D01*
Y343637D01*
X558517D02*
X566983D01*
X558517Y335170D02*
Y343637D01*
X572467Y320317D02*
X580933D01*
Y328783D01*
X572467D02*
X580933D01*
X572467Y320317D02*
Y328783D01*
X595967Y316067D02*
X604433D01*
Y324533D01*
X595967D02*
X604433D01*
X595967Y316067D02*
Y324533D01*
X480019Y424977D02*
X488486D01*
Y433443D01*
X480019D02*
X488486D01*
X480019Y424977D02*
Y433443D01*
X502267Y497567D02*
X510733D01*
Y506033D01*
X502267D02*
X510733D01*
X502267Y497567D02*
Y506033D01*
X528767Y487567D02*
X537233D01*
Y496033D01*
X528767D02*
X537233D01*
X528767Y487567D02*
Y496033D01*
X600016Y492267D02*
X608483D01*
Y500733D01*
X600016D02*
X608483D01*
X600016Y492267D02*
Y500733D01*
X569517Y491817D02*
X577983D01*
Y500283D01*
X569517D02*
X577983D01*
X569517Y491817D02*
Y500283D01*
X699016Y463017D02*
X707483D01*
Y471483D01*
X699016D02*
X707483D01*
X699016Y463017D02*
Y471483D01*
Y476517D02*
X707483D01*
Y484983D01*
X699016D02*
X707483D01*
X699016Y476517D02*
Y484983D01*
X633517Y471516D02*
X641983D01*
Y479983D01*
X633517D02*
X641983D01*
X633517Y471516D02*
Y479983D01*
X688517Y447317D02*
X696983D01*
Y455783D01*
X688517D02*
X696983D01*
X688517Y447317D02*
Y455783D01*
X680017Y441317D02*
X688483D01*
Y449783D01*
X680017D02*
X688483D01*
X680017Y441317D02*
Y449783D01*
X666517Y426817D02*
X674983D01*
Y435283D01*
X666517D02*
X674983D01*
X666517Y426817D02*
Y435283D01*
X518109Y384477D02*
X526576D01*
Y392943D01*
X518109D02*
X526576D01*
X518109Y384477D02*
Y392943D01*
X408019Y321727D02*
X416486D01*
Y330193D01*
X408019D02*
X416486D01*
X408019Y321727D02*
Y330193D01*
X444019Y351727D02*
X452486D01*
Y360193D01*
X444019D02*
X452486D01*
X444019Y351727D02*
Y360193D01*
X465769Y350977D02*
X474236D01*
Y359443D01*
X465769D02*
X474236D01*
X465769Y350977D02*
Y359443D01*
X452269Y427477D02*
X460736D01*
Y435943D01*
X452269D02*
X460736D01*
X452269Y427477D02*
Y435943D01*
X472519Y432977D02*
X480986D01*
Y441443D01*
X472519D02*
X480986D01*
X472519Y432977D02*
Y441443D01*
X442436Y464393D02*
X450902D01*
Y472860D01*
X442436D02*
X450902D01*
X442436Y464393D02*
Y472860D01*
X378519Y444227D02*
X386986D01*
Y452693D01*
X378519D02*
X386986D01*
X378519Y444227D02*
Y452693D01*
X372769Y400827D02*
X381236D01*
Y409293D01*
X372769D02*
X381236D01*
X372769Y400827D02*
Y409293D01*
X774766Y377317D02*
X783233D01*
Y385783D01*
X774766D02*
X783233D01*
X774766Y377317D02*
Y385783D01*
X744842Y377366D02*
X753309D01*
Y385833D01*
X744842D02*
X753309D01*
X744842Y377366D02*
Y385833D01*
X752017Y365567D02*
X760483D01*
Y374033D01*
X752017D02*
X760483D01*
X752017Y365567D02*
Y374033D01*
X1048767Y324567D02*
X1057233D01*
Y333033D01*
X1048767D02*
X1057233D01*
X1048767Y324567D02*
Y333033D01*
X991517Y328817D02*
X999983D01*
Y337283D01*
X991517D02*
X999983D01*
X991517Y328817D02*
Y337283D01*
X693517Y329817D02*
X701983D01*
Y338283D01*
X693517D02*
X701983D01*
X693517Y329817D02*
Y338283D01*
X683517Y321817D02*
X691983D01*
Y330283D01*
X683517D02*
X691983D01*
X683517Y321817D02*
Y330283D01*
X744517Y322817D02*
X752983D01*
Y331283D01*
X744517D02*
X752983D01*
X744517Y322817D02*
Y331283D01*
X708842Y369941D02*
X717309D01*
Y378407D01*
X708842D02*
X717309D01*
X708842Y369941D02*
Y378407D01*
X735517Y363817D02*
X743983D01*
Y372283D01*
X735517D02*
X743983D01*
X735517Y363817D02*
Y372283D01*
X973517Y411817D02*
X981983D01*
Y420283D01*
X973517D02*
X981983D01*
X973517Y411817D02*
Y420283D01*
X587817Y452517D02*
X596283D01*
Y460983D01*
X587817D02*
X596283D01*
X587817Y452517D02*
Y460983D01*
X931517Y456817D02*
X939983D01*
Y465283D01*
X931517D02*
X939983D01*
X931517Y456817D02*
Y465283D01*
X931517Y447816D02*
X939983D01*
Y456283D01*
X931517D02*
X939983D01*
X931517Y447816D02*
Y456283D01*
X807517Y485817D02*
X815983D01*
Y494283D01*
X807517D02*
X815983D01*
X807517Y485817D02*
Y494283D01*
X598517Y432817D02*
X606983D01*
Y441283D01*
X598517D02*
X606983D01*
X598517Y432817D02*
Y441283D01*
X918517Y465816D02*
X926983D01*
Y474283D01*
X918517D02*
X926983D01*
X918517Y465816D02*
Y474283D01*
X935517Y435817D02*
X943983D01*
Y444283D01*
X935517D02*
X943983D01*
X935517Y435817D02*
Y444283D01*
X980337Y321637D02*
X988803D01*
Y330103D01*
X980337D02*
X988803D01*
X980337Y321637D02*
Y330103D01*
X1033517Y371817D02*
X1041983D01*
Y380283D01*
X1033517D02*
X1041983D01*
X1033517Y371817D02*
Y380283D01*
X1058517Y371817D02*
X1066983D01*
Y380283D01*
X1058517D02*
X1066983D01*
X1058517Y371817D02*
Y380283D01*
X1032267Y390817D02*
X1040733D01*
Y399283D01*
X1032267D02*
X1040733D01*
X1032267Y390817D02*
Y399283D01*
X965517Y316817D02*
X973983D01*
Y325283D01*
X965517D02*
X973983D01*
X965517Y316817D02*
Y325283D01*
X955517Y412817D02*
X963983D01*
Y421283D01*
X955517D02*
X963983D01*
X955517Y412817D02*
Y421283D01*
X966367Y375667D02*
X974833D01*
Y384133D01*
X966367D02*
X974833D01*
X966367Y375667D02*
Y384133D01*
X912517Y398817D02*
X920983D01*
Y407283D01*
X912517D02*
X920983D01*
X912517Y398817D02*
Y407283D01*
X930517Y387817D02*
X938983D01*
Y396283D01*
X930517D02*
X938983D01*
X930517Y387817D02*
Y396283D01*
X935517Y380817D02*
X943983D01*
Y389283D01*
X935517D02*
X943983D01*
X935517Y380817D02*
Y389283D01*
X945517Y374817D02*
X953983D01*
Y383283D01*
X945517D02*
X953983D01*
X945517Y374817D02*
Y383283D01*
X879517Y374817D02*
X887983D01*
Y383283D01*
X879517D02*
X887983D01*
X879517Y374817D02*
Y383283D01*
X874517Y383817D02*
X882983D01*
Y392283D01*
X874517D02*
X882983D01*
X874517Y383817D02*
Y392283D01*
X861057Y388817D02*
X869523D01*
Y397283D01*
X861057D02*
X869523D01*
X861057Y388817D02*
Y397283D01*
X872517Y364817D02*
X880983D01*
Y373283D01*
X872517D02*
X880983D01*
X872517Y364817D02*
Y373283D01*
X891517Y384817D02*
X899983D01*
Y393283D01*
X891517D02*
X899983D01*
X891517Y384817D02*
Y393283D01*
X881517Y388817D02*
X889983D01*
Y397283D01*
X881517D02*
X889983D01*
X881517Y388817D02*
Y397283D01*
X818517Y547817D02*
X826983D01*
Y556283D01*
X818517D02*
X826983D01*
X818517Y547817D02*
Y556283D01*
X974517Y531817D02*
X982983D01*
Y540283D01*
X974517D02*
X982983D01*
X974517Y531817D02*
Y540283D01*
X1134517Y495817D02*
X1142983D01*
Y504283D01*
X1134517D02*
X1142983D01*
X1134517Y495817D02*
Y504283D01*
X863517Y416817D02*
X871983D01*
Y425283D01*
X863517D02*
X871983D01*
X863517Y416817D02*
Y425283D01*
X806517Y405816D02*
X814984D01*
Y414283D01*
X806517D02*
X814984D01*
X806517Y405816D02*
Y414283D01*
X796266Y383767D02*
X804733D01*
Y392233D01*
X796266D02*
X804733D01*
X796266Y383767D02*
Y392233D01*
X817517Y383817D02*
X825983D01*
Y392283D01*
X817517D02*
X825983D01*
X817517Y383817D02*
Y392283D01*
X792116Y463367D02*
X800583D01*
Y471833D01*
X792116D02*
X800583D01*
X792116Y463367D02*
Y471833D01*
X1143517Y480817D02*
X1151983D01*
Y489283D01*
X1143517D02*
X1151983D01*
X1143517Y480817D02*
Y489283D01*
X965517Y467817D02*
X973983D01*
Y476283D01*
X965517D02*
X973983D01*
X965517Y467817D02*
Y476283D01*
X845766Y380766D02*
X854233D01*
Y389233D01*
X845766D02*
X854233D01*
X845766Y380766D02*
Y389233D01*
X900266Y447317D02*
X908733D01*
Y455783D01*
X900266D02*
X908733D01*
X900266Y447317D02*
Y455783D01*
X855266Y446817D02*
X863733D01*
Y455283D01*
X855266D02*
X863733D01*
X855266Y446817D02*
Y455283D01*
X735016Y410267D02*
X743483D01*
Y418733D01*
X735016D02*
X743483D01*
X735016Y410267D02*
Y418733D01*
X906967Y335317D02*
X915433D01*
Y343783D01*
X906967D02*
X915433D01*
X906967Y335317D02*
Y343783D01*
X655707Y439267D02*
X664173D01*
Y447733D01*
X655707D02*
X664173D01*
X655707Y439267D02*
Y447733D01*
X774516Y473267D02*
X782983D01*
Y481733D01*
X774516D02*
X782983D01*
X774516Y473267D02*
Y481733D01*
X696766Y400017D02*
X705233D01*
Y408483D01*
X696766D02*
X705233D01*
X696766Y400017D02*
Y408483D01*
X699016Y409865D02*
X707483D01*
Y418331D01*
X699016D02*
X707483D01*
X699016Y409865D02*
Y418331D01*
X719016Y430517D02*
X727483D01*
Y438983D01*
X719016D02*
X727483D01*
X719016Y430517D02*
Y438983D01*
X806766Y531017D02*
X815233D01*
Y539483D01*
X806766D02*
X815233D01*
X806766Y531017D02*
Y539483D01*
X829567Y530567D02*
X838033D01*
Y539034D01*
X829567D02*
X838033D01*
X829567Y530567D02*
Y539034D01*
X851016Y531267D02*
X859483D01*
Y539733D01*
X851016D02*
X859483D01*
X851016Y531267D02*
Y539733D01*
X916266Y524767D02*
X924733D01*
Y533233D01*
X916266D02*
X924733D01*
X916266Y524767D02*
Y533233D01*
X774766Y390017D02*
X783233D01*
Y398483D01*
X774766D02*
X783233D01*
X774766Y390017D02*
Y398483D01*
X926167Y336116D02*
X934633D01*
Y344583D01*
X926167D02*
X934633D01*
X926167Y336116D02*
Y344583D01*
X829766Y484017D02*
X838233D01*
Y492483D01*
X829766D02*
X838233D01*
X829766Y484017D02*
Y492483D01*
X689516Y366017D02*
X697983D01*
Y374483D01*
X689516D02*
X697983D01*
X689516Y366017D02*
Y374483D01*
X678016Y339267D02*
X686483D01*
Y347733D01*
X678016D02*
X686483D01*
X678016Y339267D02*
Y347733D01*
X718516Y344017D02*
X726983D01*
Y352483D01*
X718516D02*
X726983D01*
X718516Y344017D02*
Y352483D01*
X699266Y345017D02*
X707733D01*
Y353483D01*
X699266D02*
X707733D01*
X699266Y345017D02*
Y353483D01*
X744766Y429767D02*
X753233D01*
Y438233D01*
X744766D02*
X753233D01*
X744766Y429767D02*
Y438233D01*
X775016Y429767D02*
X783483D01*
Y438233D01*
X775016D02*
X783483D01*
X775016Y429767D02*
Y438233D01*
X721766Y474017D02*
X730233D01*
Y482483D01*
X721766D02*
X730233D01*
X721766Y474017D02*
Y482483D01*
X735266Y474919D02*
X743733D01*
Y483385D01*
X735266D02*
X743733D01*
X735266Y474919D02*
Y483385D01*
X662516Y542767D02*
X670983D01*
Y551233D01*
X662516D02*
X670983D01*
X662516Y542767D02*
Y551233D01*
X1040516Y422267D02*
X1048983D01*
Y430733D01*
X1040516D02*
X1048983D01*
X1040516Y422267D02*
Y430733D01*
X795016Y363267D02*
X803483D01*
Y371733D01*
X795016D02*
X803483D01*
X795016Y363267D02*
Y371733D01*
X554516Y536017D02*
X562983D01*
Y544483D01*
X554516D02*
X562983D01*
X554516Y536017D02*
Y544483D01*
X601267Y408767D02*
X609733D01*
Y417233D01*
X601267D02*
X609733D01*
X601267Y408767D02*
Y417233D01*
X601417Y380616D02*
X609883D01*
Y389083D01*
X601417D02*
X609883D01*
X601417Y380616D02*
Y389083D01*
X629667Y376866D02*
X638133D01*
Y385333D01*
X629667D02*
X638133D01*
X629667Y376866D02*
Y385333D01*
X652567Y397267D02*
X661033D01*
Y405733D01*
X652567D02*
X661033D01*
X652567Y397267D02*
Y405733D01*
X639767Y338267D02*
X648233D01*
Y346733D01*
X639767D02*
X648233D01*
X639767Y338267D02*
Y346733D01*
X622017Y408767D02*
X630483D01*
Y417233D01*
X622017D02*
X630483D01*
X622017Y408767D02*
Y417233D01*
X617517Y433517D02*
X625983D01*
Y441983D01*
X617517D02*
X625983D01*
X617517Y433517D02*
Y441983D01*
X1143967Y445817D02*
X1152433D01*
Y454283D01*
X1143967D02*
X1152433D01*
X1143967Y445817D02*
Y454283D01*
X1120077Y436927D02*
X1128543D01*
Y445393D01*
X1120077D02*
X1128543D01*
X1120077Y436927D02*
Y445393D01*
X1103717Y485817D02*
X1112183D01*
Y494283D01*
X1103717D02*
X1112183D01*
X1103717Y485817D02*
Y494283D01*
X1049767Y505117D02*
X1058233D01*
Y513583D01*
X1049767D02*
X1058233D01*
X1049767Y505117D02*
Y513583D01*
X1089967Y425567D02*
X1098433D01*
Y434033D01*
X1089967D02*
X1098433D01*
X1089967Y425567D02*
Y434033D01*
X1062057Y524210D02*
X1070523D01*
Y532677D01*
X1062057D02*
X1070523D01*
X1062057Y524210D02*
Y532677D01*
X432916Y540616D02*
X441383D01*
Y549083D01*
X432916D02*
X441383D01*
X432916Y540616D02*
Y549083D01*
Y527916D02*
X441383D01*
Y536383D01*
X432916D02*
X441383D01*
X432916Y527916D02*
Y536383D01*
X548016Y513767D02*
X556483D01*
Y522233D01*
X548016D02*
X556483D01*
X548016Y513767D02*
Y522233D01*
X677517Y507067D02*
X685983D01*
Y515533D01*
X677517D02*
X685983D01*
X677517Y507067D02*
Y515533D01*
X679016Y494767D02*
X687483D01*
Y503233D01*
X679016D02*
X687483D01*
X679016Y494767D02*
Y503233D01*
X878516Y479767D02*
X886983D01*
Y488233D01*
X878516D02*
X886983D01*
X878516Y479767D02*
Y488233D01*
X939517Y490817D02*
X947983D01*
Y499283D01*
X939517D02*
X947983D01*
X939517Y490817D02*
Y499283D01*
X933017Y497317D02*
X941483D01*
Y505783D01*
X933017D02*
X941483D01*
X933017Y497317D02*
Y505783D01*
X871246Y477199D02*
X879713D01*
Y485665D01*
X871246D02*
X879713D01*
X871246Y477199D02*
Y485665D01*
X883766Y499517D02*
X892233D01*
Y507983D01*
X883766D02*
X892233D01*
X883766Y499517D02*
Y507983D01*
X544871Y394817D02*
X553338D01*
Y403283D01*
X544871D02*
X553338D01*
X544871Y394817D02*
Y403283D01*
X523016Y276517D02*
X531483D01*
Y284983D01*
X523016D02*
X531483D01*
X523016Y276517D02*
Y284983D01*
X494516Y271267D02*
X502983D01*
Y279733D01*
X494516D02*
X502983D01*
X494516Y271267D02*
Y279733D01*
X457016Y479767D02*
X465483D01*
Y488233D01*
X457016D02*
X465483D01*
X457016Y479767D02*
Y488233D01*
X840767Y476817D02*
X849233D01*
Y485283D01*
X840767D02*
X849233D01*
X840767Y476817D02*
Y485283D01*
X833267Y460317D02*
X841733D01*
Y468783D01*
X833267D02*
X841733D01*
X833267Y460317D02*
Y468783D01*
X831517Y440817D02*
X839983D01*
Y449283D01*
X831517D02*
X839983D01*
X831517Y440817D02*
Y449283D01*
X533233Y302933D02*
X535350Y300817D01*
X531117Y302933D02*
X533233D01*
X531117D02*
X533233Y305050D01*
X531117Y307167D02*
X533233Y305050D01*
X531117Y307167D02*
X533233D01*
X535350Y309283D01*
X537467Y307167D01*
X539583D01*
X537467Y305050D02*
X539583Y307167D01*
X537467Y305050D02*
X539583Y302933D01*
X537467D02*
X539583D01*
X535350Y300817D02*
X537467Y302933D01*
X507833D02*
X509950Y300817D01*
X505717Y302933D02*
X507833D01*
X505717D02*
X507833Y305050D01*
X505717Y307167D02*
X507833Y305050D01*
X505717Y307167D02*
X507833D01*
X509950Y309283D01*
X512067Y307167D01*
X514183D01*
X512067Y305050D02*
X514183Y307167D01*
X512067Y305050D02*
X514183Y302933D01*
X512067D02*
X514183D01*
X509950Y300817D02*
X512067Y302933D01*
X355433D02*
X357550Y300817D01*
X353317Y302933D02*
X355433D01*
X353317D02*
X355433Y305050D01*
X353317Y307167D02*
X355433Y305050D01*
X353317Y307167D02*
X355433D01*
X357550Y309283D01*
X359667Y307167D01*
X361783D01*
X359667Y305050D02*
X361783Y307167D01*
X359667Y305050D02*
X361783Y302933D01*
X359667D02*
X361783D01*
X357550Y300817D02*
X359667Y302933D01*
X380833D02*
X382950Y300817D01*
X378717Y302933D02*
X380833D01*
X378717D02*
X380833Y305050D01*
X378717Y307167D02*
X380833Y305050D01*
X378717Y307167D02*
X380833D01*
X382950Y309283D01*
X385067Y307167D01*
X387183D01*
X385067Y305050D02*
X387183Y307167D01*
X385067Y305050D02*
X387183Y302933D01*
X385067D02*
X387183D01*
X382950Y300817D02*
X385067Y302933D01*
X406233D02*
X408350Y300817D01*
X404117Y302933D02*
X406233D01*
X404117D02*
X406233Y305050D01*
X404117Y307167D02*
X406233Y305050D01*
X404117Y307167D02*
X406233D01*
X408350Y309283D01*
X410467Y307167D01*
X412583D01*
X410467Y305050D02*
X412583Y307167D01*
X410467Y305050D02*
X412583Y302933D01*
X410467D02*
X412583D01*
X408350Y300817D02*
X410467Y302933D01*
X431633D02*
X433750Y300817D01*
X429517Y302933D02*
X431633D01*
X429517D02*
X431633Y305050D01*
X429517Y307167D02*
X431633Y305050D01*
X429517Y307167D02*
X431633D01*
X433750Y309283D01*
X435867Y307167D01*
X437983D01*
X435867Y305050D02*
X437983Y307167D01*
X435867Y305050D02*
X437983Y302933D01*
X435867D02*
X437983D01*
X433750Y300817D02*
X435867Y302933D01*
X457033D02*
X459150Y300817D01*
X454917Y302933D02*
X457033D01*
X454917D02*
X457033Y305050D01*
X454917Y307167D02*
X457033Y305050D01*
X454917Y307167D02*
X457033D01*
X459150Y309283D01*
X461267Y307167D01*
X463383D01*
X461267Y305050D02*
X463383Y307167D01*
X461267Y305050D02*
X463383Y302933D01*
X461267D02*
X463383D01*
X459150Y300817D02*
X461267Y302933D01*
X482433D02*
X484550Y300817D01*
X480317Y302933D02*
X482433D01*
X480317D02*
X482433Y305050D01*
X480317Y307167D02*
X482433Y305050D01*
X480317Y307167D02*
X482433D01*
X484550Y309283D01*
X486667Y307167D01*
X488783D01*
X486667Y305050D02*
X488783Y307167D01*
X486667Y305050D02*
X488783Y302933D01*
X486667D02*
X488783D01*
X484550Y300817D02*
X486667Y302933D01*
X736433D02*
X738550Y300817D01*
X734317Y302933D02*
X736433D01*
X734317D02*
X736433Y305050D01*
X734317Y307167D02*
X736433Y305050D01*
X734317Y307167D02*
X736433D01*
X738550Y309283D01*
X740667Y307167D01*
X742783D01*
X740667Y305050D02*
X742783Y307167D01*
X740667Y305050D02*
X742783Y302933D01*
X740667D02*
X742783D01*
X738550Y300817D02*
X740667Y302933D01*
X711033D02*
X713150Y300817D01*
X708917Y302933D02*
X711033D01*
X708917D02*
X711033Y305050D01*
X708917Y307167D02*
X711033Y305050D01*
X708917Y307167D02*
X711033D01*
X713150Y309283D01*
X715267Y307167D01*
X717383D01*
X715267Y305050D02*
X717383Y307167D01*
X715267Y305050D02*
X717383Y302933D01*
X715267D02*
X717383D01*
X713150Y300817D02*
X715267Y302933D01*
X558633D02*
X560750Y300817D01*
X556517Y302933D02*
X558633D01*
X556517D02*
X558633Y305050D01*
X556517Y307167D02*
X558633Y305050D01*
X556517Y307167D02*
X558633D01*
X560750Y309283D01*
X562867Y307167D01*
X564983D01*
X562867Y305050D02*
X564983Y307167D01*
X562867Y305050D02*
X564983Y302933D01*
X562867D02*
X564983D01*
X560750Y300817D02*
X562867Y302933D01*
X584033D02*
X586150Y300817D01*
X581917Y302933D02*
X584033D01*
X581917D02*
X584033Y305050D01*
X581917Y307167D02*
X584033Y305050D01*
X581917Y307167D02*
X584033D01*
X586150Y309283D01*
X588267Y307167D01*
X590383D01*
X588267Y305050D02*
X590383Y307167D01*
X588267Y305050D02*
X590383Y302933D01*
X588267D02*
X590383D01*
X586150Y300817D02*
X588267Y302933D01*
X609433D02*
X611550Y300817D01*
X607317Y302933D02*
X609433D01*
X607317D02*
X609433Y305050D01*
X607317Y307167D02*
X609433Y305050D01*
X607317Y307167D02*
X609433D01*
X611550Y309283D01*
X613667Y307167D01*
X615783D01*
X613667Y305050D02*
X615783Y307167D01*
X613667Y305050D02*
X615783Y302933D01*
X613667D02*
X615783D01*
X611550Y300817D02*
X613667Y302933D01*
X634833D02*
X636950Y300817D01*
X632717Y302933D02*
X634833D01*
X632717D02*
X634833Y305050D01*
X632717Y307167D02*
X634833Y305050D01*
X632717Y307167D02*
X634833D01*
X636950Y309283D01*
X639067Y307167D01*
X641183D01*
X639067Y305050D02*
X641183Y307167D01*
X639067Y305050D02*
X641183Y302933D01*
X639067D02*
X641183D01*
X636950Y300817D02*
X639067Y302933D01*
X660233D02*
X662350Y300817D01*
X658117Y302933D02*
X660233D01*
X658117D02*
X660233Y305050D01*
X658117Y307167D02*
X660233Y305050D01*
X658117Y307167D02*
X660233D01*
X662350Y309283D01*
X664467Y307167D01*
X666583D01*
X664467Y305050D02*
X666583Y307167D01*
X664467Y305050D02*
X666583Y302933D01*
X664467D02*
X666583D01*
X662350Y300817D02*
X664467Y302933D01*
X685633D02*
X687750Y300817D01*
X683517Y302933D02*
X685633D01*
X683517D02*
X685633Y305050D01*
X683517Y307167D02*
X685633Y305050D01*
X683517Y307167D02*
X685633D01*
X687750Y309283D01*
X689867Y307167D01*
X691983D01*
X689867Y305050D02*
X691983Y307167D01*
X689867Y305050D02*
X691983Y302933D01*
X689867D02*
X691983D01*
X687750Y300817D02*
X689867Y302933D01*
X939633D02*
X941750Y300817D01*
X937517Y302933D02*
X939633D01*
X937517D02*
X939633Y305050D01*
X937517Y307167D02*
X939633Y305050D01*
X937517Y307167D02*
X939633D01*
X941750Y309283D01*
X943867Y307167D01*
X945983D01*
X943867Y305050D02*
X945983Y307167D01*
X943867Y305050D02*
X945983Y302933D01*
X943867D02*
X945983D01*
X941750Y300817D02*
X943867Y302933D01*
X914233D02*
X916350Y300817D01*
X912117Y302933D02*
X914233D01*
X912117D02*
X914233Y305050D01*
X912117Y307167D02*
X914233Y305050D01*
X912117Y307167D02*
X914233D01*
X916350Y309283D01*
X918467Y307167D01*
X920583D01*
X918467Y305050D02*
X920583Y307167D01*
X918467Y305050D02*
X920583Y302933D01*
X918467D02*
X920583D01*
X916350Y300817D02*
X918467Y302933D01*
X761833D02*
X763950Y300817D01*
X759717Y302933D02*
X761833D01*
X759717D02*
X761833Y305050D01*
X759717Y307167D02*
X761833Y305050D01*
X759717Y307167D02*
X761833D01*
X763950Y309283D01*
X766067Y307167D01*
X768183D01*
X766067Y305050D02*
X768183Y307167D01*
X766067Y305050D02*
X768183Y302933D01*
X766067D02*
X768183D01*
X763950Y300817D02*
X766067Y302933D01*
X787233D02*
X789350Y300817D01*
X785117Y302933D02*
X787233D01*
X785117D02*
X787233Y305050D01*
X785117Y307167D02*
X787233Y305050D01*
X785117Y307167D02*
X787233D01*
X789350Y309283D01*
X791467Y307167D01*
X793583D01*
X791467Y305050D02*
X793583Y307167D01*
X791467Y305050D02*
X793583Y302933D01*
X791467D02*
X793583D01*
X789350Y300817D02*
X791467Y302933D01*
X812633D02*
X814750Y300817D01*
X810517Y302933D02*
X812633D01*
X810517D02*
X812633Y305050D01*
X810517Y307167D02*
X812633Y305050D01*
X810517Y307167D02*
X812633D01*
X814750Y309283D01*
X816867Y307167D01*
X818983D01*
X816867Y305050D02*
X818983Y307167D01*
X816867Y305050D02*
X818983Y302933D01*
X816867D02*
X818983D01*
X814750Y300817D02*
X816867Y302933D01*
X838033D02*
X840150Y300817D01*
X835917Y302933D02*
X838033D01*
X835917D02*
X838033Y305050D01*
X835917Y307167D02*
X838033Y305050D01*
X835917Y307167D02*
X838033D01*
X840150Y309283D01*
X842267Y307167D01*
X844383D01*
X842267Y305050D02*
X844383Y307167D01*
X842267Y305050D02*
X844383Y302933D01*
X842267D02*
X844383D01*
X840150Y300817D02*
X842267Y302933D01*
X863433D02*
X865550Y300817D01*
X861317Y302933D02*
X863433D01*
X861317D02*
X863433Y305050D01*
X861317Y307167D02*
X863433Y305050D01*
X861317Y307167D02*
X863433D01*
X865550Y309283D01*
X867667Y307167D01*
X869783D01*
X867667Y305050D02*
X869783Y307167D01*
X867667Y305050D02*
X869783Y302933D01*
X867667D02*
X869783D01*
X865550Y300817D02*
X867667Y302933D01*
X888833D02*
X890950Y300817D01*
X886717Y302933D02*
X888833D01*
X886717D02*
X888833Y305050D01*
X886717Y307167D02*
X888833Y305050D01*
X886717Y307167D02*
X888833D01*
X890950Y309283D01*
X893067Y307167D01*
X895183D01*
X893067Y305050D02*
X895183Y307167D01*
X893067Y305050D02*
X895183Y302933D01*
X893067D02*
X895183D01*
X890950Y300817D02*
X893067Y302933D01*
X1142833D02*
X1144950Y300817D01*
X1140717Y302933D02*
X1142833D01*
X1140717D02*
X1142833Y305050D01*
X1140717Y307167D02*
X1142833Y305050D01*
X1140717Y307167D02*
X1142833D01*
X1144950Y309283D01*
X1147067Y307167D01*
X1149183D01*
X1147067Y305050D02*
X1149183Y307167D01*
X1147067Y305050D02*
X1149183Y302933D01*
X1147067D02*
X1149183D01*
X1144950Y300817D02*
X1147067Y302933D01*
X1117433D02*
X1119550Y300817D01*
X1115317Y302933D02*
X1117433D01*
X1115317D02*
X1117433Y305050D01*
X1115317Y307167D02*
X1117433Y305050D01*
X1115317Y307167D02*
X1117433D01*
X1119550Y309283D01*
X1121667Y307167D01*
X1123783D01*
X1121667Y305050D02*
X1123783Y307167D01*
X1121667Y305050D02*
X1123783Y302933D01*
X1121667D02*
X1123783D01*
X1119550Y300817D02*
X1121667Y302933D01*
X965033D02*
X967150Y300817D01*
X962917Y302933D02*
X965033D01*
X962917D02*
X965033Y305050D01*
X962917Y307167D02*
X965033Y305050D01*
X962917Y307167D02*
X965033D01*
X967150Y309283D01*
X969267Y307167D01*
X971383D01*
X969267Y305050D02*
X971383Y307167D01*
X969267Y305050D02*
X971383Y302933D01*
X969267D02*
X971383D01*
X967150Y300817D02*
X969267Y302933D01*
X990433D02*
X992550Y300817D01*
X988317Y302933D02*
X990433D01*
X988317D02*
X990433Y305050D01*
X988317Y307167D02*
X990433Y305050D01*
X988317Y307167D02*
X990433D01*
X992550Y309283D01*
X994667Y307167D01*
X996783D01*
X994667Y305050D02*
X996783Y307167D01*
X994667Y305050D02*
X996783Y302933D01*
X994667D02*
X996783D01*
X992550Y300817D02*
X994667Y302933D01*
X1015833D02*
X1017950Y300817D01*
X1013717Y302933D02*
X1015833D01*
X1013717D02*
X1015833Y305050D01*
X1013717Y307167D02*
X1015833Y305050D01*
X1013717Y307167D02*
X1015833D01*
X1017950Y309283D01*
X1020067Y307167D01*
X1022183D01*
X1020067Y305050D02*
X1022183Y307167D01*
X1020067Y305050D02*
X1022183Y302933D01*
X1020067D02*
X1022183D01*
X1017950Y300817D02*
X1020067Y302933D01*
X1041233D02*
X1043350Y300817D01*
X1039117Y302933D02*
X1041233D01*
X1039117D02*
X1041233Y305050D01*
X1039117Y307167D02*
X1041233Y305050D01*
X1039117Y307167D02*
X1041233D01*
X1043350Y309283D01*
X1045467Y307167D01*
X1047583D01*
X1045467Y305050D02*
X1047583Y307167D01*
X1045467Y305050D02*
X1047583Y302933D01*
X1045467D02*
X1047583D01*
X1043350Y300817D02*
X1045467Y302933D01*
X1066633D02*
X1068750Y300817D01*
X1064517Y302933D02*
X1066633D01*
X1064517D02*
X1066633Y305050D01*
X1064517Y307167D02*
X1066633Y305050D01*
X1064517Y307167D02*
X1066633D01*
X1068750Y309283D01*
X1070867Y307167D01*
X1072983D01*
X1070867Y305050D02*
X1072983Y307167D01*
X1070867Y305050D02*
X1072983Y302933D01*
X1070867D02*
X1072983D01*
X1068750Y300817D02*
X1070867Y302933D01*
X1092033D02*
X1094150Y300817D01*
X1089917Y302933D02*
X1092033D01*
X1089917D02*
X1092033Y305050D01*
X1089917Y307167D02*
X1092033Y305050D01*
X1089917Y307167D02*
X1092033D01*
X1094150Y309283D01*
X1096267Y307167D01*
X1098383D01*
X1096267Y305050D02*
X1098383Y307167D01*
X1096267Y305050D02*
X1098383Y302933D01*
X1096267D02*
X1098383D01*
X1094150Y300817D02*
X1096267Y302933D01*
X373766Y551267D02*
Y553383D01*
X375883Y555500D01*
X373766Y557617D02*
X375883Y555500D01*
X373766Y557617D02*
Y559733D01*
X375883D01*
X378000Y557617D01*
X380116Y559733D01*
X382233D01*
Y557617D02*
Y559733D01*
X380116Y555500D02*
X382233Y557617D01*
X380116Y555500D02*
X382233Y553383D01*
Y551267D02*
Y553383D01*
X380116Y551267D02*
X382233D01*
X378000Y553383D02*
X380116Y551267D01*
X375883D02*
X378000Y553383D01*
X373766Y551267D02*
X375883D01*
X718017Y561817D02*
Y563933D01*
X720133Y566050D01*
X718017Y568167D02*
X720133Y566050D01*
X718017Y568167D02*
Y570283D01*
X720133D01*
X722250Y568167D01*
X724367Y570283D01*
X726483D01*
Y568167D02*
Y570283D01*
X724367Y566050D02*
X726483Y568167D01*
X724367Y566050D02*
X726483Y563933D01*
Y561817D02*
Y563933D01*
X724367Y561817D02*
X726483D01*
X722250Y563933D02*
X724367Y561817D01*
X720133D02*
X722250Y563933D01*
X718017Y561817D02*
X720133D01*
X1103133Y576133D02*
X1105250Y574017D01*
X1101016Y576133D02*
X1103133D01*
X1101016D02*
X1103133Y578250D01*
X1101016Y580367D02*
X1103133Y578250D01*
X1101016Y580367D02*
X1103133D01*
X1105250Y582483D01*
X1107366Y580367D01*
X1109483D01*
X1107366Y578250D02*
X1109483Y580367D01*
X1107366Y578250D02*
X1109483Y576133D01*
X1107366D02*
X1109483D01*
X1105250Y574017D02*
X1107366Y576133D01*
X1128533D02*
X1130650Y574017D01*
X1126416Y576133D02*
X1128533D01*
X1126416D02*
X1128533Y578250D01*
X1126416Y580367D02*
X1128533Y578250D01*
X1126416Y580367D02*
X1128533D01*
X1130650Y582483D01*
X1132766Y580367D01*
X1134883D01*
X1132766Y578250D02*
X1134883Y580367D01*
X1132766Y578250D02*
X1134883Y576133D01*
X1132766D02*
X1134883D01*
X1130650Y574017D02*
X1132766Y576133D01*
X976133D02*
X978250Y574017D01*
X974016Y576133D02*
X976133D01*
X974016D02*
X976133Y578250D01*
X974016Y580367D02*
X976133Y578250D01*
X974016Y580367D02*
X976133D01*
X978250Y582483D01*
X980366Y580367D01*
X982483D01*
X980366Y578250D02*
X982483Y580367D01*
X980366Y578250D02*
X982483Y576133D01*
X980366D02*
X982483D01*
X978250Y574017D02*
X980366Y576133D01*
X1001533D02*
X1003650Y574017D01*
X999416Y576133D02*
X1001533D01*
X999416D02*
X1001533Y578250D01*
X999416Y580367D02*
X1001533Y578250D01*
X999416Y580367D02*
X1001533D01*
X1003650Y582483D01*
X1005766Y580367D01*
X1007883D01*
X1005766Y578250D02*
X1007883Y580367D01*
X1005766Y578250D02*
X1007883Y576133D01*
X1005766D02*
X1007883D01*
X1003650Y574017D02*
X1005766Y576133D01*
X1153933D02*
X1156050Y574017D01*
X1151816Y576133D02*
X1153933D01*
X1151816D02*
X1153933Y578250D01*
X1151816Y580367D02*
X1153933Y578250D01*
X1151816Y580367D02*
X1153933D01*
X1156050Y582483D01*
X1158166Y580367D01*
X1160283D01*
X1158166Y578250D02*
X1160283Y580367D01*
X1158166Y578250D02*
X1160283Y576133D01*
X1158166D02*
X1160283D01*
X1156050Y574017D02*
X1158166Y576133D01*
X1077733D02*
X1079850Y574017D01*
X1075616Y576133D02*
X1077733D01*
X1075616D02*
X1077733Y578250D01*
X1075616Y580367D02*
X1077733Y578250D01*
X1075616Y580367D02*
X1077733D01*
X1079850Y582483D01*
X1081966Y580367D01*
X1084083D01*
X1081966Y578250D02*
X1084083Y580367D01*
X1081966Y578250D02*
X1084083Y576133D01*
X1081966D02*
X1084083D01*
X1079850Y574017D02*
X1081966Y576133D01*
X1052333D02*
X1054450Y574017D01*
X1050216Y576133D02*
X1052333D01*
X1050216D02*
X1052333Y578250D01*
X1050216Y580367D02*
X1052333Y578250D01*
X1050216Y580367D02*
X1052333D01*
X1054450Y582483D01*
X1056566Y580367D01*
X1058683D01*
X1056566Y578250D02*
X1058683Y580367D01*
X1056566Y578250D02*
X1058683Y576133D01*
X1056566D02*
X1058683D01*
X1054450Y574017D02*
X1056566Y576133D01*
X1026933D02*
X1029050Y574017D01*
X1024816Y576133D02*
X1026933D01*
X1024816D02*
X1026933Y578250D01*
X1024816Y580367D02*
X1026933Y578250D01*
X1024816Y580367D02*
X1026933D01*
X1029050Y582483D01*
X1031166Y580367D01*
X1033283D01*
X1031166Y578250D02*
X1033283Y580367D01*
X1031166Y578250D02*
X1033283Y576133D01*
X1031166D02*
X1033283D01*
X1029050Y574017D02*
X1031166Y576133D01*
X938033D02*
X940150Y574017D01*
X935916Y576133D02*
X938033D01*
X935916D02*
X938033Y578250D01*
X935916Y580367D02*
X938033Y578250D01*
X935916Y580367D02*
X938033D01*
X940150Y582483D01*
X942266Y580367D01*
X944383D01*
X942266Y578250D02*
X944383Y580367D01*
X942266Y578250D02*
X944383Y576133D01*
X942266D02*
X944383D01*
X940150Y574017D02*
X942266Y576133D01*
X912633D02*
X914750Y574017D01*
X910516Y576133D02*
X912633D01*
X910516D02*
X912633Y578250D01*
X910516Y580367D02*
X912633Y578250D01*
X910516Y580367D02*
X912633D01*
X914750Y582483D01*
X916866Y580367D01*
X918983D01*
X916866Y578250D02*
X918983Y580367D01*
X916866Y578250D02*
X918983Y576133D01*
X916866D02*
X918983D01*
X914750Y574017D02*
X916866Y576133D01*
D79*
X1042776Y1014982D02*
Y996700D01*
Y1005841D01*
X1054964D01*
Y1014982D01*
Y996700D01*
X1064105D02*
X1070199D01*
X1073246Y999747D01*
Y1005841D01*
X1070199Y1008888D01*
X1064105D01*
X1061058Y1005841D01*
Y999747D01*
X1064105Y996700D01*
X1079340D02*
X1085434D01*
X1082387D01*
Y1014982D01*
X1079340D01*
X1103716Y996700D02*
X1097622D01*
X1094575Y999747D01*
Y1005841D01*
X1097622Y1008888D01*
X1103716D01*
X1106763Y1005841D01*
Y1002794D01*
X1094575D01*
X1131139Y1014982D02*
X1143327D01*
X1137233D01*
Y996700D01*
X1149421Y1008888D02*
Y999747D01*
X1152468Y996700D01*
X1161609D01*
Y993653D01*
X1158562Y990606D01*
X1155515D01*
X1161609Y996700D02*
Y1008888D01*
X1167703Y990606D02*
Y1008888D01*
X1176844D01*
X1179892Y1005841D01*
Y999747D01*
X1176844Y996700D01*
X1167703D01*
X1195127D02*
X1189033D01*
X1185985Y999747D01*
Y1005841D01*
X1189033Y1008888D01*
X1195127D01*
X1198174Y1005841D01*
Y1002794D01*
X1185985D01*
X914283Y996700D02*
Y1014982D01*
X923425D01*
X926471Y1011935D01*
Y1005841D01*
X923425Y1002794D01*
X914283D01*
X932566Y996700D02*
X938660D01*
X935612D01*
Y1014982D01*
X932566D01*
X950848Y1008888D02*
X956942D01*
X959989Y1005841D01*
Y996700D01*
X950848D01*
X947801Y999747D01*
X950848Y1002794D01*
X959989D01*
X969130Y1011935D02*
Y1008888D01*
X966083D01*
X972177D01*
X969130D01*
Y999747D01*
X972177Y996700D01*
X990459D02*
X984365D01*
X981318Y999747D01*
Y1005841D01*
X984365Y1008888D01*
X990459D01*
X993506Y1005841D01*
Y1002794D01*
X981318D01*
X1011788Y1014982D02*
Y996700D01*
X1002647D01*
X999600Y999747D01*
Y1005841D01*
X1002647Y1008888D01*
X1011788D01*
X584688Y1014982D02*
X572500D01*
Y1005841D01*
X578594D01*
X572500D01*
Y996700D01*
X590782D02*
X596876D01*
X593829D01*
Y1008888D01*
X590782D01*
X606017Y996700D02*
Y1008888D01*
X615158D01*
X618205Y1005841D01*
Y996700D01*
X624299D02*
X630393D01*
X627346D01*
Y1008888D01*
X624299D01*
X639534Y996700D02*
X648675D01*
X651722Y999747D01*
X648675Y1002794D01*
X642581D01*
X639534Y1005841D01*
X642581Y1008888D01*
X651722D01*
X657816Y1014982D02*
Y996700D01*
Y1005841D01*
X660863Y1008888D01*
X666957D01*
X670005Y1005841D01*
Y996700D01*
X685239D02*
X679146D01*
X676098Y999747D01*
Y1005841D01*
X679146Y1008888D01*
X685239D01*
X688287Y1005841D01*
Y1002794D01*
X676098D01*
X706569Y1014982D02*
Y996700D01*
X697428D01*
X694381Y999747D01*
Y1005841D01*
X697428Y1008888D01*
X706569D01*
X730945Y1014982D02*
Y996700D01*
Y1005841D01*
X743133D01*
Y1014982D01*
Y996700D01*
X752274D02*
X758368D01*
X761415Y999747D01*
Y1005841D01*
X758368Y1008888D01*
X752274D01*
X749227Y1005841D01*
Y999747D01*
X752274Y996700D01*
X767509D02*
X773603D01*
X770556D01*
Y1014982D01*
X767509D01*
X791885Y996700D02*
X785791D01*
X782744Y999747D01*
Y1005841D01*
X785791Y1008888D01*
X791885D01*
X794932Y1005841D01*
Y1002794D01*
X782744D01*
X831496Y1011935D02*
X828449Y1014982D01*
X822355D01*
X819308Y1011935D01*
Y1008888D01*
X822355Y1005841D01*
X828449D01*
X831496Y1002794D01*
Y999747D01*
X828449Y996700D01*
X822355D01*
X819308Y999747D01*
X837590Y996700D02*
X843684D01*
X840637D01*
Y1008888D01*
X837590D01*
X852825D02*
X865013D01*
X852825Y996700D01*
X865013D01*
X880248D02*
X874154D01*
X871107Y999747D01*
Y1005841D01*
X874154Y1008888D01*
X880248D01*
X883295Y1005841D01*
Y1002794D01*
X871107D01*
X395255Y1014982D02*
Y996700D01*
Y1005841D01*
X407443D01*
Y1014982D01*
Y996700D01*
X413537D02*
X419631D01*
X416584D01*
Y1008888D01*
X413537D01*
X431819Y1011935D02*
Y1008888D01*
X428773D01*
X434866D01*
X431819D01*
Y999747D01*
X434866Y996700D01*
X474478Y1011935D02*
X471431Y1014982D01*
X465337D01*
X462290Y1011935D01*
Y999747D01*
X465337Y996700D01*
X471431D01*
X474478Y999747D01*
X483619Y996700D02*
X489713D01*
X492760Y999747D01*
Y1005841D01*
X489713Y1008888D01*
X483619D01*
X480572Y1005841D01*
Y999747D01*
X483619Y996700D01*
X498854Y1008888D02*
Y999747D01*
X501901Y996700D01*
X511042D01*
Y1008888D01*
X517136Y996700D02*
Y1008888D01*
X526277D01*
X529324Y1005841D01*
Y996700D01*
X538465Y1011935D02*
Y1008888D01*
X535418D01*
X541512D01*
X538465D01*
Y999747D01*
X541512Y996700D01*
X278951Y1011935D02*
X275904Y1014982D01*
X269810D01*
X266763Y1011935D01*
Y1008888D01*
X269810Y1005841D01*
X275904D01*
X278951Y1002794D01*
Y999747D01*
X275904Y996700D01*
X269810D01*
X266763Y999747D01*
X285045Y1008888D02*
Y999747D01*
X288092Y996700D01*
X297233D01*
Y993653D01*
X294186Y990606D01*
X291139D01*
X297233Y996700D02*
Y1008888D01*
X303327Y996700D02*
Y1008888D01*
X306374D01*
X309421Y1005841D01*
Y996700D01*
Y1005841D01*
X312468Y1008888D01*
X315515Y1005841D01*
Y996700D01*
X321609Y1014982D02*
Y996700D01*
X330750D01*
X333797Y999747D01*
Y1002794D01*
Y1005841D01*
X330750Y1008888D01*
X321609D01*
X342938Y996700D02*
X349032D01*
X352079Y999747D01*
Y1005841D01*
X349032Y1008888D01*
X342938D01*
X339891Y1005841D01*
Y999747D01*
X342938Y996700D01*
X358173D02*
X364267D01*
X361220D01*
Y1014982D01*
X358173D01*
M02*
