G04*
G04 #@! TF.GenerationSoftware,Altium Limited,CircuitStudio,1.5.2 (1.5.2.30)*
G04*
G04 Layer_Color=20142*
%FSLAX44Y44*%
%MOMM*%
G71*
G01*
G75*
%ADD35C,0.2030*%
%ADD52R,1.5032X1.8032*%
%ADD53O,2.4032X0.8032*%
%ADD54R,1.1176X1.0160*%
%ADD55R,1.5032X0.9032*%
%ADD56R,1.2032X1.7272*%
%ADD57R,1.8032X1.5032*%
%ADD58C,1.4732*%
%ADD59R,1.7272X1.2032*%
%ADD60R,0.9032X1.5032*%
%ADD61R,1.2032X0.8032*%
%ADD62R,0.8032X1.2032*%
%ADD63R,1.0160X1.1176*%
%ADD64R,2.2032X2.2032*%
%ADD65R,2.2032X1.0032*%
%ADD66R,5.7912X5.7912*%
%ADD67R,1.0160X0.5080*%
%ADD68R,0.5080X1.0160*%
%ADD69R,0.8532X1.1032*%
G04:AMPARAMS|DCode=70|XSize=1.6032mm|YSize=1.4032mm|CornerRadius=0mm|HoleSize=0mm|Usage=FLASHONLY|Rotation=315.000|XOffset=0mm|YOffset=0mm|HoleType=Round|Shape=Rectangle|*
%AMROTATEDRECTD70*
4,1,4,-1.0629,0.0707,-0.0707,1.0629,1.0629,-0.0707,0.0707,-1.0629,-1.0629,0.0707,0.0*
%
%ADD70ROTATEDRECTD70*%

%ADD71C,1.7272*%
%ADD72R,1.7272X1.7272*%
%ADD73C,3.2032*%
%ADD74C,0.8032*%
D35*
X334500Y255000D02*
Y592250D01*
X1184750D01*
Y255000D02*
Y592250D01*
X334500Y255000D02*
X1184750D01*
D52*
X480250Y499500D02*
D03*
X461250D02*
D03*
X874300Y521700D02*
D03*
X855300D02*
D03*
X874300Y499200D02*
D03*
X855300D02*
D03*
X951250Y527750D02*
D03*
X932250D02*
D03*
D53*
X459000Y557550D02*
D03*
Y544850D02*
D03*
Y532150D02*
D03*
Y519450D02*
D03*
X507000Y557550D02*
D03*
Y544850D02*
D03*
Y532150D02*
D03*
Y519450D02*
D03*
D54*
X1104788Y480626D02*
D03*
X1083612Y470974D02*
D03*
Y490126D02*
D03*
X639612Y419724D02*
D03*
X660788Y429376D02*
D03*
Y410224D02*
D03*
X660688Y456476D02*
D03*
X639512Y446824D02*
D03*
Y465976D02*
D03*
X872162Y558126D02*
D03*
Y538974D02*
D03*
X893338Y548626D02*
D03*
D55*
X1066500Y471000D02*
D03*
Y490000D02*
D03*
X1121000D02*
D03*
Y471000D02*
D03*
X1046950Y490050D02*
D03*
Y471050D02*
D03*
X558700Y549200D02*
D03*
Y530200D02*
D03*
X930400Y369000D02*
D03*
Y350000D02*
D03*
X521842Y399210D02*
D03*
Y418210D02*
D03*
X577000Y386500D02*
D03*
Y367500D02*
D03*
Y335200D02*
D03*
Y354200D02*
D03*
X600100Y354250D02*
D03*
Y335250D02*
D03*
X623200Y354200D02*
D03*
Y335200D02*
D03*
X779000Y339100D02*
D03*
Y358100D02*
D03*
X778250Y405250D02*
D03*
Y424250D02*
D03*
X683000Y334100D02*
D03*
Y353100D02*
D03*
Y412600D02*
D03*
Y431600D02*
D03*
X949600Y350000D02*
D03*
Y369000D02*
D03*
X894100Y513400D02*
D03*
Y494400D02*
D03*
X914100D02*
D03*
Y513400D02*
D03*
X779000Y469100D02*
D03*
Y488100D02*
D03*
X683000Y469100D02*
D03*
Y488100D02*
D03*
X621700Y447298D02*
D03*
Y466298D02*
D03*
X601900Y466300D02*
D03*
Y447300D02*
D03*
X574000Y486500D02*
D03*
Y505500D02*
D03*
X562600Y447500D02*
D03*
Y466500D02*
D03*
X581800Y447300D02*
D03*
Y466300D02*
D03*
X659800Y505500D02*
D03*
Y486500D02*
D03*
X790653Y520400D02*
D03*
Y501400D02*
D03*
X480503Y418710D02*
D03*
Y399710D02*
D03*
X799250Y358000D02*
D03*
Y339000D02*
D03*
X891750Y350050D02*
D03*
Y369050D02*
D03*
X910950Y350050D02*
D03*
Y369050D02*
D03*
X377002Y379710D02*
D03*
Y398710D02*
D03*
X376952Y430460D02*
D03*
Y411460D02*
D03*
D56*
X1104410Y509550D02*
D03*
X1084090D02*
D03*
X449092Y372460D02*
D03*
X469412D02*
D03*
X578940Y548100D02*
D03*
X599260D02*
D03*
X579030Y525330D02*
D03*
X599350D02*
D03*
X1045970Y509550D02*
D03*
X1066290D02*
D03*
X804640Y446700D02*
D03*
X824960D02*
D03*
X969460Y416800D02*
D03*
X949140D02*
D03*
X1138040Y421800D02*
D03*
X1158360D02*
D03*
X970060Y459700D02*
D03*
X949740D02*
D03*
X1137840Y445000D02*
D03*
X1158160D02*
D03*
X853222Y573514D02*
D03*
X832902D02*
D03*
D57*
X428253Y449460D02*
D03*
Y468460D02*
D03*
X656800Y372216D02*
D03*
Y391216D02*
D03*
X652200Y527600D02*
D03*
Y546600D02*
D03*
X577000Y422200D02*
D03*
Y403200D02*
D03*
X1097000Y382500D02*
D03*
Y363500D02*
D03*
X822750Y419550D02*
D03*
Y400550D02*
D03*
X833800Y502200D02*
D03*
Y521200D02*
D03*
X552400Y505500D02*
D03*
Y486500D02*
D03*
X502003Y418210D02*
D03*
Y399210D02*
D03*
D58*
X498252Y459710D02*
D03*
X1166250Y512550D02*
D03*
X624200Y572300D02*
D03*
D59*
X680750Y371522D02*
D03*
Y391842D02*
D03*
X368753Y448800D02*
D03*
Y469120D02*
D03*
X638100Y485840D02*
D03*
Y506160D02*
D03*
X633900Y391910D02*
D03*
Y371590D02*
D03*
X1035000Y329640D02*
D03*
Y349960D02*
D03*
X1035000Y386160D02*
D03*
Y365840D02*
D03*
X1082750Y420460D02*
D03*
Y440780D02*
D03*
X800050Y399924D02*
D03*
Y420244D02*
D03*
X970600Y349340D02*
D03*
Y369660D02*
D03*
X1106000Y441160D02*
D03*
Y420840D02*
D03*
X811250Y522160D02*
D03*
Y501840D02*
D03*
D60*
X805600Y467600D02*
D03*
X824600D02*
D03*
X614690Y547330D02*
D03*
X633690D02*
D03*
X633690Y525330D02*
D03*
X614690D02*
D03*
X596150Y413000D02*
D03*
X615150D02*
D03*
X1055500Y426000D02*
D03*
X1036500D02*
D03*
Y406000D02*
D03*
X1055500D02*
D03*
X758500Y381600D02*
D03*
X739500D02*
D03*
X758500Y447600D02*
D03*
X739500D02*
D03*
X703500Y381600D02*
D03*
X722500D02*
D03*
X703500Y447600D02*
D03*
X722500D02*
D03*
X968800Y395800D02*
D03*
X949800D02*
D03*
X758500Y507600D02*
D03*
X739500D02*
D03*
X703500D02*
D03*
X722500D02*
D03*
X969400Y438700D02*
D03*
X950400D02*
D03*
X447503Y436960D02*
D03*
X466502D02*
D03*
X833750Y552050D02*
D03*
X852750D02*
D03*
X423003Y423460D02*
D03*
X404002D02*
D03*
X423003Y386710D02*
D03*
X404002D02*
D03*
D61*
X592538Y507130D02*
D03*
Y497630D02*
D03*
Y488130D02*
D03*
X618542D02*
D03*
Y507130D02*
D03*
D62*
X466002Y419212D02*
D03*
X456502D02*
D03*
X447003D02*
D03*
Y393208D02*
D03*
X466002D02*
D03*
X615150Y394502D02*
D03*
X605650D02*
D03*
X596150D02*
D03*
Y368498D02*
D03*
X615150D02*
D03*
X1138500Y463998D02*
D03*
X1148000D02*
D03*
X1157500D02*
D03*
Y490002D02*
D03*
X1138500D02*
D03*
D63*
X421926Y360048D02*
D03*
X431578Y338872D02*
D03*
X412426D02*
D03*
X398329Y448122D02*
D03*
X388676Y469298D02*
D03*
X407828D02*
D03*
X654124Y353888D02*
D03*
X663776Y332712D02*
D03*
X644624D02*
D03*
X749076Y338012D02*
D03*
X739424Y359188D02*
D03*
X758576D02*
D03*
X749076Y404012D02*
D03*
X739424Y425188D02*
D03*
X758576D02*
D03*
X713076Y338012D02*
D03*
X703424Y359188D02*
D03*
X722576D02*
D03*
X749076Y468012D02*
D03*
X739424Y489188D02*
D03*
X758576D02*
D03*
X713076Y468012D02*
D03*
X703424Y489188D02*
D03*
X722576D02*
D03*
X713076Y404012D02*
D03*
X703424Y425188D02*
D03*
X722576D02*
D03*
D64*
X1125000Y356000D02*
D03*
Y396000D02*
D03*
D65*
X1155000Y404000D02*
D03*
Y384000D02*
D03*
D66*
X882000Y438300D02*
D03*
D67*
X916798Y465732D02*
D03*
Y460906D02*
D03*
Y455826D02*
D03*
Y450746D02*
D03*
Y445920D02*
D03*
Y440840D02*
D03*
Y435760D02*
D03*
Y430680D02*
D03*
Y425854D02*
D03*
Y420774D02*
D03*
Y415694D02*
D03*
Y410868D02*
D03*
X847202D02*
D03*
Y415694D02*
D03*
Y420774D02*
D03*
Y425854D02*
D03*
Y430680D02*
D03*
Y435760D02*
D03*
Y440840D02*
D03*
Y445920D02*
D03*
Y450746D02*
D03*
Y455826D02*
D03*
Y460906D02*
D03*
Y465732D02*
D03*
D68*
X909432Y403502D02*
D03*
X904606D02*
D03*
X899526D02*
D03*
X894446D02*
D03*
X889620D02*
D03*
X884540D02*
D03*
X879460D02*
D03*
X874380D02*
D03*
X869554D02*
D03*
X864474D02*
D03*
X859394D02*
D03*
X854568D02*
D03*
Y473098D02*
D03*
X859394D02*
D03*
X864474D02*
D03*
X869554D02*
D03*
X874380D02*
D03*
X879460D02*
D03*
X884540D02*
D03*
X889620D02*
D03*
X904606D02*
D03*
X909432D02*
D03*
X894446D02*
D03*
X899526D02*
D03*
D69*
X1075000Y388000D02*
D03*
X1065500D02*
D03*
X1056000D02*
D03*
Y364000D02*
D03*
X1065500D02*
D03*
X1075000D02*
D03*
D70*
X854521Y342765D02*
D03*
X838965Y358321D02*
D03*
X865835Y354079D02*
D03*
X850279Y369635D02*
D03*
D71*
X914750Y578250D02*
D03*
X940150D02*
D03*
X1029050D02*
D03*
X1054450D02*
D03*
X1079850D02*
D03*
X1003650D02*
D03*
X978250D02*
D03*
X1130650D02*
D03*
X1105250D02*
D03*
X1094150Y305050D02*
D03*
X1068750D02*
D03*
X1043350D02*
D03*
X1017950D02*
D03*
X992550D02*
D03*
X1119550D02*
D03*
X1144950D02*
D03*
X890950D02*
D03*
X865550D02*
D03*
X840150D02*
D03*
X814750D02*
D03*
X789350D02*
D03*
X916350D02*
D03*
X941750D02*
D03*
X687750D02*
D03*
X662350D02*
D03*
X636950D02*
D03*
X611550D02*
D03*
X586150D02*
D03*
X713150D02*
D03*
X738550D02*
D03*
X484550D02*
D03*
X459150D02*
D03*
X433750D02*
D03*
X408350D02*
D03*
X382950D02*
D03*
X509950D02*
D03*
X535350D02*
D03*
D72*
X1156050Y578250D02*
D03*
X967150Y305050D02*
D03*
X763950D02*
D03*
X560750D02*
D03*
X357550D02*
D03*
D73*
X722250Y566050D02*
D03*
X378000Y555500D02*
D03*
D74*
X835750Y445050D02*
D03*
X837500Y464550D02*
D03*
X845000Y481050D02*
D03*
X461250Y484000D02*
D03*
X498750Y275500D02*
D03*
X527250Y280750D02*
D03*
X549104Y399050D02*
D03*
X888000Y503750D02*
D03*
X875480Y481432D02*
D03*
X937250Y501550D02*
D03*
X943750Y495050D02*
D03*
X882750Y484000D02*
D03*
X683250Y499000D02*
D03*
X681750Y511300D02*
D03*
X552250Y518000D02*
D03*
X437150Y532150D02*
D03*
Y544850D02*
D03*
X1066290Y528443D02*
D03*
X1094200Y429800D02*
D03*
X1054000Y509350D02*
D03*
X1107950Y490050D02*
D03*
X1124310Y441160D02*
D03*
X1148200Y450050D02*
D03*
X621750Y437750D02*
D03*
X626250Y413000D02*
D03*
X644000Y342500D02*
D03*
X656800Y401500D02*
D03*
X633900Y381100D02*
D03*
X605650Y384850D02*
D03*
X605500Y413000D02*
D03*
X558750Y540250D02*
D03*
X799250Y367500D02*
D03*
X1044750Y426500D02*
D03*
X666750Y547000D02*
D03*
X739500Y479152D02*
D03*
X726000Y478250D02*
D03*
X779250Y434000D02*
D03*
X749000D02*
D03*
X703500Y349250D02*
D03*
X722750Y348250D02*
D03*
X682250Y343500D02*
D03*
X693750Y370250D02*
D03*
X834000Y488250D02*
D03*
X930400Y340350D02*
D03*
X779000Y394250D02*
D03*
X920500Y529000D02*
D03*
X855250Y535500D02*
D03*
X833800Y534800D02*
D03*
X811000Y535250D02*
D03*
X723250Y434750D02*
D03*
X703250Y414098D02*
D03*
X701000Y404250D02*
D03*
X778750Y477500D02*
D03*
X659940Y443500D02*
D03*
X911200Y339550D02*
D03*
X739250Y414500D02*
D03*
X859500Y451050D02*
D03*
X904500Y451550D02*
D03*
X850000Y385000D02*
D03*
X969750Y472050D02*
D03*
X1147750Y485050D02*
D03*
X796350Y467600D02*
D03*
X821750Y388050D02*
D03*
X800500Y388000D02*
D03*
X810750Y410050D02*
D03*
X867750Y421050D02*
D03*
X1138750Y500050D02*
D03*
X978750Y536050D02*
D03*
X822750Y552050D02*
D03*
X885750Y393050D02*
D03*
X895750Y389050D02*
D03*
X876750Y369050D02*
D03*
X865290Y393050D02*
D03*
X878750Y388050D02*
D03*
X883750Y379050D02*
D03*
X949750D02*
D03*
X939750Y385050D02*
D03*
X934750Y392050D02*
D03*
X916750Y403050D02*
D03*
X970600Y379900D02*
D03*
X959750Y417050D02*
D03*
X969750Y321050D02*
D03*
X1036500Y395050D02*
D03*
X1062750Y376050D02*
D03*
X1037750D02*
D03*
X984570Y325870D02*
D03*
X939750Y440050D02*
D03*
X922750Y470050D02*
D03*
X602750Y437050D02*
D03*
X811750Y490050D02*
D03*
X935750Y452050D02*
D03*
X935750Y461050D02*
D03*
X592050Y456750D02*
D03*
X977750Y416050D02*
D03*
X739750Y368050D02*
D03*
X713076Y374174D02*
D03*
X748750Y327050D02*
D03*
X687750Y326050D02*
D03*
X697750Y334050D02*
D03*
X995750Y333050D02*
D03*
X1053000Y328800D02*
D03*
X756250Y369800D02*
D03*
X749076Y381600D02*
D03*
X779000Y381550D02*
D03*
X377002Y405060D02*
D03*
X382752Y448460D02*
D03*
X446669Y468626D02*
D03*
X476753Y437210D02*
D03*
X456502Y431710D02*
D03*
X470003Y355210D02*
D03*
X448252Y355960D02*
D03*
X412253Y325960D02*
D03*
X522342Y388710D02*
D03*
X670750Y431050D02*
D03*
X684250Y445550D02*
D03*
X692750Y451550D02*
D03*
X637750Y475750D02*
D03*
X703250Y480750D02*
D03*
Y467250D02*
D03*
X573750Y496050D02*
D03*
X604250Y496500D02*
D03*
X533000Y491800D02*
D03*
X506500Y501800D02*
D03*
X484253Y429210D02*
D03*
X600200Y320300D02*
D03*
X576700Y324550D02*
D03*
X562750Y339404D02*
D03*
X1003000Y477800D02*
D03*
X1010250Y463300D02*
D03*
X984500Y441300D02*
D03*
X1083000Y407050D02*
D03*
X1025500Y534800D02*
D03*
X789500Y429550D02*
D03*
X835750Y426050D02*
D03*
Y435550D02*
D03*
X924999Y410305D02*
D03*
X924000Y398550D02*
D03*
X933446Y425854D02*
D03*
X759000Y404300D02*
D03*
X800500Y410750D02*
D03*
X776750Y416300D02*
D03*
X822750Y431050D02*
D03*
X994003Y367553D02*
D03*
X962001Y405305D02*
D03*
X723250Y523550D02*
D03*
X1010000Y453550D02*
D03*
X1033250Y441550D02*
D03*
X1021500Y519550D02*
D03*
X949000Y357050D02*
D03*
X845750Y332800D02*
D03*
X801500Y315050D02*
D03*
X799750Y289050D02*
D03*
X779000Y349050D02*
D03*
X947500Y329050D02*
D03*
X970500Y359300D02*
D03*
X742250Y393050D02*
D03*
X722750Y395050D02*
D03*
X659396Y472790D02*
D03*
X1174000Y420050D02*
D03*
X556250Y331050D02*
D03*
X818750Y573300D02*
D03*
X937750Y474050D02*
D03*
X964750Y526750D02*
D03*
X884000Y559800D02*
D03*
X996000Y535550D02*
D03*
X996250Y510800D02*
D03*
X655250Y343550D02*
D03*
X611750Y353800D02*
D03*
X634000Y402300D02*
D03*
X622500Y324550D02*
D03*
X650236Y456557D02*
D03*
X513250Y345800D02*
D03*
X369750Y500800D02*
D03*
X792250Y449050D02*
D03*
X758250Y467250D02*
D03*
X668000Y525300D02*
D03*
M02*
