G04*
G04 #@! TF.GenerationSoftware,Altium Limited,CircuitStudio,1.5.2 (30)*
G04*
G04 Layer_Color=8150272*
%FSLAX44Y44*%
%MOMM*%
G71*
G01*
G75*
%ADD30C,0.2540*%
%ADD68C,1.7272*%
%ADD69R,1.7272X1.7272*%
%ADD70C,3.2032*%
%ADD71O,1.7032X2.7032*%
%ADD72C,0.8032*%
D30*
X339500Y255000D02*
Y565000D01*
X1174500D01*
Y255000D02*
Y565000D01*
X339500Y255000D02*
X1174500D01*
D68*
X884750Y548250D02*
D03*
X910150D02*
D03*
X999050D02*
D03*
X1024450D02*
D03*
X1049850D02*
D03*
X973650D02*
D03*
X948250D02*
D03*
X1100650D02*
D03*
X1075250D02*
D03*
X1094150Y305050D02*
D03*
X1068750D02*
D03*
X1043350D02*
D03*
X1017950D02*
D03*
X992550D02*
D03*
X1119550D02*
D03*
X1144950D02*
D03*
X890950D02*
D03*
X865550D02*
D03*
X840150D02*
D03*
X814750D02*
D03*
X789350D02*
D03*
X916350D02*
D03*
X941750D02*
D03*
X687750D02*
D03*
X662350D02*
D03*
X636950D02*
D03*
X611550D02*
D03*
X586150D02*
D03*
X713150D02*
D03*
X738550D02*
D03*
X484550D02*
D03*
X459150D02*
D03*
X433750D02*
D03*
X408350D02*
D03*
X382950D02*
D03*
X509950D02*
D03*
X535350D02*
D03*
D69*
X1126050Y548250D02*
D03*
X967150Y305050D02*
D03*
X763950D02*
D03*
X560750D02*
D03*
X357550D02*
D03*
D70*
X1084500Y422000D02*
D03*
X559500Y530000D02*
D03*
D71*
X369500Y525000D02*
D03*
X389500D02*
D03*
X409500D02*
D03*
X429500D02*
D03*
D72*
X1124500Y454000D02*
D03*
X1077500Y448000D02*
D03*
X1126300Y444000D02*
D03*
X1046500Y406000D02*
D03*
X1099500Y400000D02*
D03*
X1126300Y421800D02*
D03*
X1070500Y400000D02*
D03*
X1148500Y490000D02*
D03*
X1120500Y481000D02*
D03*
X1104500Y495000D02*
D03*
X1046500Y461000D02*
D03*
X1049500Y379000D02*
D03*
X980499Y414500D02*
D03*
X970499Y404000D02*
D03*
X910500Y336999D02*
D03*
X1005000Y449000D02*
D03*
X988500Y507500D02*
D03*
X685600Y332900D02*
D03*
X671500Y339000D02*
D03*
X838500Y513500D02*
D03*
X663500Y507000D02*
D03*
X565500Y339000D02*
D03*
X354500Y418000D02*
D03*
X350500Y379000D02*
D03*
X507500Y375000D02*
D03*
X555500Y430000D02*
D03*
X534500Y396000D02*
D03*
X534900Y350600D02*
D03*
X473500Y370000D02*
D03*
X489500Y398000D02*
D03*
X474500Y430000D02*
D03*
X439500Y410000D02*
D03*
X469500Y383000D02*
D03*
X422500Y392000D02*
D03*
X373500Y381000D02*
D03*
X422500Y350000D02*
D03*
X419500Y409000D02*
D03*
X422500Y460000D02*
D03*
X391500Y409000D02*
D03*
X916000Y525500D02*
D03*
X928500Y369500D02*
D03*
X857500Y404500D02*
D03*
X918620Y490500D02*
D03*
X954250Y500500D02*
D03*
X933500Y460500D02*
D03*
X946598Y471598D02*
D03*
X980499Y477499D02*
D03*
X916500Y359500D02*
D03*
X904500Y369500D02*
D03*
X876500Y387500D02*
D03*
X911000Y436800D02*
D03*
X933500Y414500D02*
D03*
X888500Y460500D02*
D03*
Y414500D02*
D03*
X859000Y437002D02*
D03*
X733500Y521000D02*
D03*
X745500Y373000D02*
D03*
X697000Y392500D02*
D03*
X782500Y392000D02*
D03*
X485500Y489000D02*
D03*
X735500Y473000D02*
D03*
X674500Y496000D02*
D03*
X687500D02*
D03*
X716500Y332000D02*
D03*
X671500Y350000D02*
D03*
X845500Y375500D02*
D03*
X855500Y347500D02*
D03*
X586312Y361812D02*
D03*
X621499Y362000D02*
D03*
X595500Y327000D02*
D03*
X585500Y400000D02*
D03*
Y458000D02*
D03*
X622124Y476000D02*
D03*
X586500D02*
D03*
X542500Y496800D02*
D03*
X621500Y419000D02*
D03*
X585500D02*
D03*
X686500Y414000D02*
D03*
X741500Y394000D02*
D03*
X1048490Y335000D02*
D03*
X1143500Y478000D02*
D03*
X1152500D02*
D03*
X789500Y343000D02*
D03*
X747500Y413000D02*
D03*
X783688Y367000D02*
D03*
X754500Y353000D02*
D03*
X651500Y393000D02*
D03*
X822700Y519700D02*
D03*
X1056498Y509999D02*
D03*
X449000Y428500D02*
D03*
X446500Y289000D02*
D03*
X516500Y370000D02*
D03*
X1005000Y395000D02*
D03*
X839500Y471500D02*
D03*
X968500Y337500D02*
D03*
X930500D02*
D03*
X887500Y342500D02*
D03*
X986500Y387000D02*
D03*
X883840Y534840D02*
D03*
X797525Y470474D02*
D03*
X700000Y332500D02*
D03*
X744700Y333799D02*
D03*
X732000Y332500D02*
D03*
X1029000Y449000D02*
D03*
X1005500Y471000D02*
D03*
X989500Y337000D02*
D03*
X715538Y375038D02*
D03*
X586500Y525000D02*
D03*
X755500Y527500D02*
D03*
X668500Y418000D02*
D03*
X526000Y451500D02*
D03*
X730000Y463500D02*
D03*
X1008500Y328500D02*
D03*
X949500Y337500D02*
D03*
X904000Y312500D02*
D03*
X914000Y291000D02*
D03*
X904000Y274000D02*
D03*
X914000Y273000D02*
D03*
X509000Y278000D02*
D03*
X517150Y397350D02*
D03*
X507500Y268500D02*
D03*
X522000Y268460D02*
D03*
X542000Y440500D02*
D03*
X774500Y464000D02*
D03*
X633500Y439000D02*
D03*
X641250Y506250D02*
D03*
X646999Y447000D02*
D03*
X763000Y489500D02*
D03*
X906000Y360165D02*
D03*
X1100000Y525500D02*
D03*
X934250Y500500D02*
D03*
X1074000Y534500D02*
D03*
X1098500Y533500D02*
D03*
X988500Y358500D02*
D03*
X980499Y393500D02*
D03*
X746500Y447500D02*
D03*
X839000Y452000D02*
D03*
X859000Y463334D02*
D03*
Y450168D02*
D03*
X668500Y444500D02*
D03*
X864776Y414197D02*
D03*
X858499Y423999D02*
D03*
X940500Y359500D02*
D03*
X964500D02*
D03*
X976500Y369500D02*
D03*
X951999Y369000D02*
D03*
X959998Y377000D02*
D03*
X970499Y383000D02*
D03*
Y466999D02*
D03*
X980499Y456499D02*
D03*
X1005000Y428000D02*
D03*
X980499Y435500D02*
D03*
X970499Y425000D02*
D03*
X986000Y449000D02*
D03*
X946002Y402002D02*
D03*
X970499Y445999D02*
D03*
X789500Y333500D02*
D03*
X705500Y372000D02*
D03*
X800500Y415500D02*
D03*
X801500Y357000D02*
D03*
X884500Y483500D02*
D03*
X903500Y484500D02*
D03*
X912500D02*
D03*
X853500Y483000D02*
D03*
X859000Y476500D02*
D03*
X857500Y546000D02*
D03*
X862500Y488500D02*
D03*
M02*
