G04*
G04 #@! TF.GenerationSoftware,Altium Limited,CircuitStudio,1.5.2 (30)*
G04*
G04 Layer_Physical_Order=4*
G04 Layer_Color=12500520*
%FSLAX44Y44*%
%MOMM*%
G71*
G01*
G75*
%ADD30C,0.2540*%
%ADD31C,0.5000*%
%ADD34C,1.5240*%
%ADD35R,1.5240X1.5240*%
%ADD36C,3.0000*%
%ADD37O,1.5000X2.5000*%
%ADD38C,0.6000*%
G36*
X1169500Y260898D02*
X1168602Y260000D01*
X1058765Y260033D01*
X1058239Y261303D01*
X1071468Y274532D01*
X1071468Y274532D01*
X1072301Y275779D01*
X1072594Y277250D01*
Y297020D01*
X1073233Y297285D01*
X1075090Y298710D01*
X1076515Y300567D01*
X1077411Y302729D01*
X1077717Y305050D01*
X1077411Y307371D01*
X1076515Y309533D01*
X1075090Y311390D01*
X1073233Y312815D01*
X1071071Y313711D01*
X1068750Y314017D01*
X1066429Y313711D01*
X1064267Y312815D01*
X1062410Y311390D01*
X1060985Y309533D01*
X1060089Y307371D01*
X1059783Y305050D01*
X1060089Y302729D01*
X1060985Y300567D01*
X1062410Y298710D01*
X1064267Y297285D01*
X1064906Y297020D01*
Y278842D01*
X1052907Y266844D01*
X788518D01*
X781344Y274018D01*
Y298795D01*
X782614Y299226D01*
X783010Y298710D01*
X784867Y297285D01*
X787029Y296389D01*
X789350Y296083D01*
X791671Y296389D01*
X793833Y297285D01*
X795691Y298710D01*
X797115Y300567D01*
X798011Y302729D01*
X798317Y305050D01*
X798011Y307371D01*
X797115Y309533D01*
X795691Y311390D01*
X793833Y312815D01*
X791671Y313711D01*
X789350Y314017D01*
X787029Y313711D01*
X784867Y312815D01*
X783010Y311390D01*
X782614Y310874D01*
X781344Y311306D01*
Y358000D01*
X781051Y359471D01*
X780218Y360718D01*
X780218Y360718D01*
X745585Y395351D01*
X745522Y395666D01*
X744578Y397078D01*
X743166Y398022D01*
X742851Y398085D01*
X738218Y402718D01*
X736971Y403551D01*
X736727Y403600D01*
X735500Y403844D01*
X735500Y403844D01*
X587433D01*
X587166Y404022D01*
X586851Y404085D01*
X580344Y410592D01*
Y416919D01*
X580706Y417052D01*
X581614Y417130D01*
X582421Y415921D01*
X583834Y414978D01*
X585500Y414646D01*
X587166Y414978D01*
X588578Y415921D01*
X589522Y417334D01*
X589853Y419000D01*
X589522Y420666D01*
X588578Y422078D01*
X587166Y423022D01*
X585500Y423354D01*
X583834Y423022D01*
X582421Y422078D01*
X581614Y420870D01*
X580706Y420948D01*
X580344Y421081D01*
Y441408D01*
X588218Y449282D01*
X588218Y449282D01*
X588774Y450115D01*
X589051Y450529D01*
X589344Y452000D01*
X589344Y452000D01*
Y456067D01*
X589522Y456334D01*
X589853Y458000D01*
X589522Y459666D01*
X588578Y461078D01*
X587166Y462022D01*
X585500Y462354D01*
X583834Y462022D01*
X582421Y461078D01*
X581478Y459666D01*
X581146Y458000D01*
X581478Y456334D01*
X581656Y456067D01*
Y453592D01*
X573782Y445718D01*
X572948Y444471D01*
X572900Y444227D01*
X572656Y443000D01*
X572656Y443000D01*
Y409000D01*
X572656Y409000D01*
X572900Y407773D01*
X572948Y407529D01*
X573782Y406282D01*
X581415Y398649D01*
X581478Y398334D01*
X581656Y398067D01*
Y393424D01*
X581656Y393423D01*
X581900Y392197D01*
X581949Y391953D01*
X582782Y390705D01*
X591656Y381831D01*
Y363343D01*
X590386Y363218D01*
X590334Y363478D01*
X589390Y364891D01*
X587978Y365834D01*
X586312Y366166D01*
X584646Y365834D01*
X583233Y364891D01*
X582290Y363478D01*
X581958Y361812D01*
X582290Y360146D01*
X583233Y358733D01*
X584646Y357790D01*
X586312Y357458D01*
X587978Y357790D01*
X589390Y358733D01*
X590334Y360146D01*
X590386Y360406D01*
X591656Y360281D01*
Y328933D01*
X591478Y328666D01*
X591146Y327000D01*
X591478Y325334D01*
X592421Y323921D01*
X593834Y322978D01*
X595500Y322646D01*
X597166Y322978D01*
X598578Y323921D01*
X599522Y325334D01*
X599853Y327000D01*
X599522Y328666D01*
X599344Y328933D01*
Y383423D01*
X599051Y384894D01*
X598218Y386142D01*
X598218Y386142D01*
X589473Y394886D01*
X589657Y396156D01*
X646946D01*
X647625Y394886D01*
X647477Y394666D01*
X647146Y393000D01*
X647477Y391334D01*
X648421Y389921D01*
X649834Y388978D01*
X651500Y388646D01*
X653166Y388978D01*
X654578Y389921D01*
X655522Y391334D01*
X655853Y393000D01*
X655522Y394666D01*
X655375Y394886D01*
X656054Y396156D01*
X692780D01*
X693459Y394886D01*
X692977Y394166D01*
X692646Y392500D01*
X692977Y390834D01*
X693921Y389421D01*
X695334Y388478D01*
X697000Y388146D01*
X698666Y388478D01*
X700078Y389421D01*
X701022Y390834D01*
X701353Y392500D01*
X701022Y394166D01*
X700541Y394886D01*
X701219Y396156D01*
X733907D01*
X737415Y392649D01*
X737477Y392334D01*
X738421Y390921D01*
X739834Y389978D01*
X740149Y389915D01*
X773656Y356408D01*
Y314872D01*
X772840Y313940D01*
X772386Y313940D01*
X755060D01*
Y296160D01*
X772386D01*
X772840Y296160D01*
X773656Y295228D01*
X773656Y295228D01*
Y272426D01*
X773656Y272426D01*
X773900Y271199D01*
X773949Y270955D01*
X774782Y269708D01*
X783103Y261386D01*
X782577Y260116D01*
X344500Y260248D01*
Y289930D01*
X372670D01*
Y320170D01*
X344500D01*
Y560000D01*
X1169500D01*
Y260898D01*
D02*
G37*
%LPC*%
G36*
X976500Y373853D02*
X974834Y373522D01*
X973421Y372578D01*
X972477Y371166D01*
X972146Y369500D01*
X972477Y367834D01*
X973421Y366421D01*
X974834Y365477D01*
X976500Y365146D01*
X978166Y365477D01*
X979578Y366421D01*
X980522Y367834D01*
X980853Y369500D01*
X980522Y371166D01*
X979578Y372578D01*
X978166Y373522D01*
X976500Y373853D01*
D02*
G37*
G36*
X473500Y374353D02*
X471834Y374022D01*
X470421Y373078D01*
X469478Y371666D01*
X469146Y370000D01*
X469478Y368334D01*
X470421Y366921D01*
X471834Y365978D01*
X473500Y365646D01*
X475166Y365978D01*
X476578Y366921D01*
X477522Y368334D01*
X477853Y370000D01*
X477522Y371666D01*
X476578Y373078D01*
X475166Y374022D01*
X473500Y374353D01*
D02*
G37*
G36*
X783688Y371353D02*
X782022Y371022D01*
X780609Y370078D01*
X779666Y368666D01*
X779334Y367000D01*
X779666Y365334D01*
X780609Y363921D01*
X782022Y362978D01*
X783688Y362646D01*
X785354Y362978D01*
X786766Y363921D01*
X787710Y365334D01*
X788042Y367000D01*
X787710Y368666D01*
X786766Y370078D01*
X785354Y371022D01*
X783688Y371353D01*
D02*
G37*
G36*
X951999Y373353D02*
X950332Y373022D01*
X948920Y372078D01*
X947976Y370666D01*
X947645Y369000D01*
X947976Y367334D01*
X948920Y365921D01*
X950332Y364977D01*
X951999Y364646D01*
X953665Y364977D01*
X955077Y365921D01*
X956021Y367334D01*
X956352Y369000D01*
X956021Y370666D01*
X955077Y372078D01*
X953665Y373022D01*
X951999Y373353D01*
D02*
G37*
G36*
X928500Y373853D02*
X926834Y373522D01*
X925421Y372578D01*
X924477Y371166D01*
X924146Y369500D01*
X924477Y367834D01*
X925421Y366421D01*
X926834Y365477D01*
X928500Y365146D01*
X930166Y365477D01*
X931578Y366421D01*
X932522Y367834D01*
X932853Y369500D01*
X932522Y371166D01*
X931578Y372578D01*
X930166Y373522D01*
X928500Y373853D01*
D02*
G37*
G36*
X715538Y379392D02*
X713872Y379060D01*
X712459Y378116D01*
X711516Y376704D01*
X711184Y375038D01*
X711516Y373372D01*
X712459Y371959D01*
X713872Y371016D01*
X715538Y370684D01*
X717204Y371016D01*
X718616Y371959D01*
X719560Y373372D01*
X719891Y375038D01*
X719560Y376704D01*
X718616Y378116D01*
X717204Y379060D01*
X715538Y379392D01*
D02*
G37*
G36*
X845500Y379854D02*
X843834Y379522D01*
X842421Y378578D01*
X841478Y377166D01*
X841146Y375500D01*
X841478Y373834D01*
X842421Y372421D01*
X843834Y371478D01*
X845500Y371146D01*
X847166Y371478D01*
X848578Y372421D01*
X849522Y373834D01*
X849853Y375500D01*
X849522Y377166D01*
X848578Y378578D01*
X847166Y379522D01*
X845500Y379854D01*
D02*
G37*
G36*
X959998Y381353D02*
X958332Y381022D01*
X956920Y380078D01*
X955976Y378666D01*
X955645Y377000D01*
X955976Y375334D01*
X956920Y373921D01*
X958332Y372977D01*
X959998Y372646D01*
X961665Y372977D01*
X963077Y373921D01*
X964021Y375334D01*
X964352Y377000D01*
X964021Y378666D01*
X963077Y380078D01*
X961665Y381022D01*
X959998Y381353D01*
D02*
G37*
G36*
X705500Y376353D02*
X703834Y376022D01*
X702421Y375078D01*
X701478Y373666D01*
X701146Y372000D01*
X701478Y370334D01*
X702421Y368921D01*
X703834Y367978D01*
X705500Y367646D01*
X707166Y367978D01*
X708578Y368921D01*
X709522Y370334D01*
X709853Y372000D01*
X709522Y373666D01*
X708578Y375078D01*
X707166Y376022D01*
X705500Y376353D01*
D02*
G37*
G36*
X745500Y377354D02*
X743834Y377022D01*
X742421Y376078D01*
X741478Y374666D01*
X741146Y373000D01*
X741478Y371334D01*
X742421Y369921D01*
X743834Y368978D01*
X745500Y368646D01*
X747166Y368978D01*
X748578Y369921D01*
X749522Y371334D01*
X749853Y373000D01*
X749522Y374666D01*
X748578Y376078D01*
X747166Y377022D01*
X745500Y377354D01*
D02*
G37*
G36*
X507500Y379353D02*
X505834Y379022D01*
X504421Y378078D01*
X503478Y376666D01*
X503146Y375000D01*
X503478Y373334D01*
X504421Y371921D01*
X505834Y370978D01*
X507500Y370646D01*
X509166Y370978D01*
X510578Y371921D01*
X511522Y373334D01*
X511853Y375000D01*
X511522Y376666D01*
X510578Y378078D01*
X509166Y379022D01*
X507500Y379353D01*
D02*
G37*
G36*
X754500Y357354D02*
X752834Y357022D01*
X751421Y356078D01*
X750478Y354666D01*
X750146Y353000D01*
X750478Y351334D01*
X751421Y349921D01*
X752834Y348978D01*
X754500Y348646D01*
X756166Y348978D01*
X757578Y349921D01*
X758522Y351334D01*
X758853Y353000D01*
X758522Y354666D01*
X757578Y356078D01*
X756166Y357022D01*
X754500Y357354D01*
D02*
G37*
G36*
X801500Y361353D02*
X799834Y361022D01*
X798421Y360078D01*
X797477Y358666D01*
X797146Y357000D01*
X797477Y355334D01*
X798421Y353921D01*
X799834Y352978D01*
X801500Y352646D01*
X803166Y352978D01*
X804578Y353921D01*
X805522Y355334D01*
X805853Y357000D01*
X805522Y358666D01*
X804578Y360078D01*
X803166Y361022D01*
X801500Y361353D01*
D02*
G37*
G36*
X671500Y354353D02*
X669834Y354022D01*
X668421Y353078D01*
X667477Y351666D01*
X667146Y350000D01*
X667477Y348334D01*
X668421Y346921D01*
X669834Y345978D01*
X671500Y345646D01*
X673166Y345978D01*
X674578Y346921D01*
X675522Y348334D01*
X675853Y350000D01*
X675522Y351666D01*
X674578Y353078D01*
X673166Y354022D01*
X671500Y354353D01*
D02*
G37*
G36*
X855500Y351853D02*
X853834Y351522D01*
X852421Y350578D01*
X851478Y349166D01*
X851146Y347500D01*
X851478Y345834D01*
X852421Y344421D01*
X853834Y343478D01*
X855500Y343146D01*
X857166Y343478D01*
X858578Y344421D01*
X859522Y345834D01*
X859853Y347500D01*
X859522Y349166D01*
X858578Y350578D01*
X857166Y351522D01*
X855500Y351853D01*
D02*
G37*
G36*
X422500Y354353D02*
X420834Y354022D01*
X419421Y353078D01*
X418478Y351666D01*
X418146Y350000D01*
X418478Y348334D01*
X419421Y346921D01*
X420834Y345978D01*
X422500Y345646D01*
X424166Y345978D01*
X425578Y346921D01*
X426522Y348334D01*
X426853Y350000D01*
X426522Y351666D01*
X425578Y353078D01*
X424166Y354022D01*
X422500Y354353D01*
D02*
G37*
G36*
X988500Y362854D02*
X986833Y362522D01*
X985421Y361578D01*
X984477Y360166D01*
X984146Y358500D01*
X984477Y356834D01*
X985421Y355421D01*
X986833Y354478D01*
X988500Y354146D01*
X990166Y354478D01*
X991578Y355421D01*
X992522Y356834D01*
X992853Y358500D01*
X992522Y360166D01*
X991578Y361578D01*
X990166Y362522D01*
X988500Y362854D01*
D02*
G37*
G36*
X904500Y373853D02*
X902834Y373522D01*
X901421Y372578D01*
X900478Y371166D01*
X900146Y369500D01*
X900478Y367834D01*
X901421Y366421D01*
X902834Y365477D01*
X903820Y365281D01*
X903984Y363954D01*
X902921Y363243D01*
X901977Y361831D01*
X901646Y360165D01*
X901977Y358499D01*
X902921Y357086D01*
X904334Y356143D01*
X906000Y355811D01*
X907666Y356143D01*
X909078Y357086D01*
X910022Y358499D01*
X910353Y360165D01*
X910022Y361831D01*
X909078Y363243D01*
X907666Y364187D01*
X906680Y364383D01*
X906515Y365711D01*
X907578Y366421D01*
X908522Y367834D01*
X908853Y369500D01*
X908522Y371166D01*
X907578Y372578D01*
X906166Y373522D01*
X904500Y373853D01*
D02*
G37*
G36*
X621499Y366353D02*
X619833Y366022D01*
X618421Y365078D01*
X617477Y363666D01*
X617146Y362000D01*
X617477Y360334D01*
X618421Y358921D01*
X619833Y357977D01*
X621499Y357646D01*
X623165Y357977D01*
X624578Y358921D01*
X625521Y360334D01*
X625853Y362000D01*
X625521Y363666D01*
X624578Y365078D01*
X623165Y366022D01*
X621499Y366353D01*
D02*
G37*
G36*
X964500Y363853D02*
X962834Y363522D01*
X961421Y362578D01*
X960477Y361166D01*
X960146Y359500D01*
X960477Y357834D01*
X961421Y356421D01*
X962834Y355477D01*
X964500Y355146D01*
X966166Y355477D01*
X967578Y356421D01*
X968522Y357834D01*
X968853Y359500D01*
X968522Y361166D01*
X967578Y362578D01*
X966166Y363522D01*
X964500Y363853D01*
D02*
G37*
G36*
X916500D02*
X914834Y363522D01*
X913421Y362578D01*
X912477Y361166D01*
X912146Y359500D01*
X912477Y357834D01*
X913421Y356421D01*
X914834Y355477D01*
X916500Y355146D01*
X918166Y355477D01*
X919578Y356421D01*
X920522Y357834D01*
X920853Y359500D01*
X920522Y361166D01*
X919578Y362578D01*
X918166Y363522D01*
X916500Y363853D01*
D02*
G37*
G36*
X940500D02*
X938834Y363522D01*
X937421Y362578D01*
X936477Y361166D01*
X936146Y359500D01*
X936477Y357834D01*
X937421Y356421D01*
X938834Y355477D01*
X940500Y355146D01*
X942166Y355477D01*
X943578Y356421D01*
X944522Y357834D01*
X944853Y359500D01*
X944522Y361166D01*
X943578Y362578D01*
X942166Y363522D01*
X940500Y363853D01*
D02*
G37*
G36*
X1099500Y404353D02*
X1097834Y404022D01*
X1096421Y403078D01*
X1095478Y401666D01*
X1095146Y400000D01*
X1095478Y398334D01*
X1096421Y396921D01*
X1097834Y395978D01*
X1099500Y395646D01*
X1101166Y395978D01*
X1102578Y396921D01*
X1103522Y398334D01*
X1103853Y400000D01*
X1103522Y401666D01*
X1102578Y403078D01*
X1101166Y404022D01*
X1099500Y404353D01*
D02*
G37*
G36*
X946002Y406356D02*
X944336Y406024D01*
X942923Y405081D01*
X941980Y403668D01*
X941648Y402002D01*
X941980Y400336D01*
X942923Y398924D01*
X944336Y397980D01*
X946002Y397649D01*
X947668Y397980D01*
X949080Y398924D01*
X950024Y400336D01*
X950356Y402002D01*
X950024Y403668D01*
X949080Y405081D01*
X947668Y406024D01*
X946002Y406356D01*
D02*
G37*
G36*
X1070500Y404353D02*
X1068834Y404022D01*
X1067421Y403078D01*
X1066478Y401666D01*
X1066146Y400000D01*
X1066478Y398334D01*
X1067421Y396921D01*
X1068834Y395978D01*
X1070500Y395646D01*
X1072166Y395978D01*
X1073578Y396921D01*
X1074522Y398334D01*
X1074853Y400000D01*
X1074522Y401666D01*
X1073578Y403078D01*
X1072166Y404022D01*
X1070500Y404353D01*
D02*
G37*
G36*
X517150Y401704D02*
X515484Y401372D01*
X514071Y400429D01*
X513127Y399016D01*
X512796Y397350D01*
X513127Y395684D01*
X514071Y394272D01*
X515484Y393328D01*
X517150Y392996D01*
X518816Y393328D01*
X520228Y394272D01*
X521172Y395684D01*
X521503Y397350D01*
X521172Y399016D01*
X520228Y400429D01*
X518816Y401372D01*
X517150Y401704D01*
D02*
G37*
G36*
X489500Y402354D02*
X487834Y402022D01*
X486421Y401078D01*
X485477Y399666D01*
X485146Y398000D01*
X485477Y396334D01*
X486421Y394921D01*
X487834Y393978D01*
X489500Y393646D01*
X491166Y393978D01*
X492578Y394921D01*
X493522Y396334D01*
X493853Y398000D01*
X493522Y399666D01*
X492578Y401078D01*
X491166Y402022D01*
X489500Y402354D01*
D02*
G37*
G36*
X970499Y408353D02*
X968832Y408022D01*
X967420Y407078D01*
X966476Y405666D01*
X966145Y404000D01*
X966476Y402334D01*
X967420Y400921D01*
X968832Y399978D01*
X970499Y399646D01*
X972165Y399978D01*
X973577Y400921D01*
X974521Y402334D01*
X974852Y404000D01*
X974521Y405666D01*
X973577Y407078D01*
X972165Y408022D01*
X970499Y408353D01*
D02*
G37*
G36*
X419500Y413354D02*
X417834Y413022D01*
X416421Y412078D01*
X415477Y410666D01*
X415146Y409000D01*
X415477Y407334D01*
X416421Y405921D01*
X417834Y404978D01*
X419500Y404646D01*
X421166Y404978D01*
X422578Y405921D01*
X423522Y407334D01*
X423853Y409000D01*
X423522Y410666D01*
X422578Y412078D01*
X421166Y413022D01*
X419500Y413354D01*
D02*
G37*
G36*
X1084500Y438349D02*
X1081310Y438034D01*
X1078243Y437104D01*
X1075417Y435593D01*
X1072940Y433560D01*
X1070906Y431083D01*
X1069396Y428256D01*
X1068465Y425189D01*
X1068151Y422000D01*
X1068465Y418810D01*
X1069396Y415743D01*
X1070906Y412917D01*
X1072940Y410440D01*
X1075417Y408406D01*
X1078243Y406896D01*
X1081310Y405965D01*
X1084500Y405651D01*
X1087689Y405965D01*
X1090756Y406896D01*
X1093583Y408406D01*
X1096060Y410440D01*
X1098093Y412917D01*
X1099604Y415743D01*
X1100534Y418810D01*
X1100848Y422000D01*
X1100534Y425189D01*
X1099604Y428256D01*
X1098093Y431083D01*
X1096060Y433560D01*
X1093583Y435593D01*
X1090756Y437104D01*
X1087689Y438034D01*
X1084500Y438349D01*
D02*
G37*
G36*
X391500Y413354D02*
X389834Y413022D01*
X388421Y412078D01*
X387477Y410666D01*
X387146Y409000D01*
X387477Y407334D01*
X388421Y405921D01*
X389834Y404978D01*
X391500Y404646D01*
X393166Y404978D01*
X394578Y405921D01*
X395522Y407334D01*
X395853Y409000D01*
X395522Y410666D01*
X394578Y412078D01*
X393166Y413022D01*
X391500Y413354D01*
D02*
G37*
G36*
X857500Y408854D02*
X855834Y408522D01*
X854421Y407578D01*
X853477Y406166D01*
X853146Y404500D01*
X853477Y402834D01*
X854421Y401421D01*
X855834Y400478D01*
X857500Y400146D01*
X859166Y400478D01*
X860578Y401421D01*
X861522Y402834D01*
X861853Y404500D01*
X861522Y406166D01*
X860578Y407578D01*
X859166Y408522D01*
X857500Y408854D01*
D02*
G37*
G36*
X1046500Y410354D02*
X1044834Y410022D01*
X1043421Y409078D01*
X1042477Y407666D01*
X1042146Y406000D01*
X1042477Y404334D01*
X1043421Y402921D01*
X1044834Y401978D01*
X1046500Y401646D01*
X1048166Y401978D01*
X1049578Y402921D01*
X1050522Y404334D01*
X1050853Y406000D01*
X1050522Y407666D01*
X1049578Y409078D01*
X1048166Y410022D01*
X1046500Y410354D01*
D02*
G37*
G36*
X469500Y387354D02*
X467834Y387022D01*
X466421Y386078D01*
X465477Y384666D01*
X465146Y383000D01*
X465477Y381334D01*
X466421Y379921D01*
X467834Y378978D01*
X469500Y378646D01*
X471166Y378978D01*
X472578Y379921D01*
X473522Y381334D01*
X473853Y383000D01*
X473522Y384666D01*
X472578Y386078D01*
X471166Y387022D01*
X469500Y387354D01*
D02*
G37*
G36*
X970499Y387354D02*
X968832Y387022D01*
X967420Y386078D01*
X966476Y384666D01*
X966145Y383000D01*
X966476Y381334D01*
X967420Y379921D01*
X968832Y378978D01*
X970499Y378646D01*
X972165Y378978D01*
X973577Y379921D01*
X974521Y381334D01*
X974852Y383000D01*
X974521Y384666D01*
X973577Y386078D01*
X972165Y387022D01*
X970499Y387354D01*
D02*
G37*
G36*
X373500Y385354D02*
X371834Y385022D01*
X370421Y384078D01*
X369478Y382666D01*
X369146Y381000D01*
X369478Y379334D01*
X370421Y377921D01*
X371834Y376978D01*
X373500Y376646D01*
X375166Y376978D01*
X376578Y377921D01*
X377522Y379334D01*
X377853Y381000D01*
X377522Y382666D01*
X376578Y384078D01*
X375166Y385022D01*
X373500Y385354D01*
D02*
G37*
G36*
X350500Y383354D02*
X348834Y383022D01*
X347421Y382078D01*
X346478Y380666D01*
X346146Y379000D01*
X346478Y377334D01*
X347421Y375921D01*
X348834Y374978D01*
X350500Y374646D01*
X352166Y374978D01*
X353578Y375921D01*
X354522Y377334D01*
X354853Y379000D01*
X354522Y380666D01*
X353578Y382078D01*
X352166Y383022D01*
X350500Y383354D01*
D02*
G37*
G36*
X1049500D02*
X1047834Y383022D01*
X1046421Y382078D01*
X1045478Y380666D01*
X1045146Y379000D01*
X1045478Y377334D01*
X1046421Y375921D01*
X1047834Y374978D01*
X1049500Y374646D01*
X1051166Y374978D01*
X1052578Y375921D01*
X1053522Y377334D01*
X1053853Y379000D01*
X1053522Y380666D01*
X1052578Y382078D01*
X1051166Y383022D01*
X1049500Y383354D01*
D02*
G37*
G36*
X876500Y391854D02*
X874834Y391522D01*
X873421Y390578D01*
X872477Y389166D01*
X872146Y387500D01*
X872477Y385834D01*
X873421Y384422D01*
X874834Y383478D01*
X876500Y383146D01*
X878166Y383478D01*
X879578Y384422D01*
X880522Y385834D01*
X880853Y387500D01*
X880522Y389166D01*
X879578Y390578D01*
X878166Y391522D01*
X876500Y391854D01*
D02*
G37*
G36*
X1005000Y399353D02*
X1003334Y399022D01*
X1001921Y398078D01*
X1000977Y396666D01*
X1000646Y395000D01*
X1000977Y393334D01*
X1001921Y391921D01*
X1003334Y390978D01*
X1005000Y390646D01*
X1006666Y390978D01*
X1008078Y391921D01*
X1009022Y393334D01*
X1009353Y395000D01*
X1009022Y396666D01*
X1008078Y398078D01*
X1006666Y399022D01*
X1005000Y399353D01*
D02*
G37*
G36*
X534500Y400354D02*
X532834Y400022D01*
X531421Y399078D01*
X530477Y397666D01*
X530146Y396000D01*
X530477Y394334D01*
X531421Y392921D01*
X532834Y391978D01*
X534500Y391646D01*
X536166Y391978D01*
X537578Y392921D01*
X538522Y394334D01*
X538853Y396000D01*
X538522Y397666D01*
X537578Y399078D01*
X536166Y400022D01*
X534500Y400354D01*
D02*
G37*
G36*
X980499Y397854D02*
X978832Y397522D01*
X977420Y396578D01*
X976476Y395166D01*
X976145Y393500D01*
X976476Y391834D01*
X977420Y390421D01*
X978832Y389478D01*
X980499Y389146D01*
X982165Y389478D01*
X983577Y390421D01*
X984521Y391834D01*
X984852Y393500D01*
X984521Y395166D01*
X983577Y396578D01*
X982165Y397522D01*
X980499Y397854D01*
D02*
G37*
G36*
X422500Y396353D02*
X420834Y396022D01*
X419421Y395078D01*
X418478Y393666D01*
X418146Y392000D01*
X418478Y390334D01*
X419421Y388921D01*
X420834Y387978D01*
X422500Y387646D01*
X424166Y387978D01*
X425578Y388921D01*
X426522Y390334D01*
X426853Y392000D01*
X426522Y393666D01*
X425578Y395078D01*
X424166Y396022D01*
X422500Y396353D01*
D02*
G37*
G36*
X782500D02*
X780834Y396022D01*
X779421Y395078D01*
X778477Y393666D01*
X778146Y392000D01*
X778477Y390334D01*
X779421Y388921D01*
X780834Y387978D01*
X782500Y387646D01*
X784166Y387978D01*
X785578Y388921D01*
X786522Y390334D01*
X786853Y392000D01*
X786522Y393666D01*
X785578Y395078D01*
X784166Y396022D01*
X782500Y396353D01*
D02*
G37*
G36*
X713150Y314017D02*
X710829Y313711D01*
X708667Y312815D01*
X706810Y311390D01*
X705385Y309533D01*
X704489Y307371D01*
X704183Y305050D01*
X704489Y302729D01*
X705385Y300567D01*
X706810Y298710D01*
X708667Y297285D01*
X710829Y296389D01*
X713150Y296083D01*
X715471Y296389D01*
X717633Y297285D01*
X719491Y298710D01*
X720915Y300567D01*
X721811Y302729D01*
X722117Y305050D01*
X721811Y307371D01*
X720915Y309533D01*
X719491Y311390D01*
X717633Y312815D01*
X715471Y313711D01*
X713150Y314017D01*
D02*
G37*
G36*
X738550D02*
X736229Y313711D01*
X734067Y312815D01*
X732210Y311390D01*
X730785Y309533D01*
X729889Y307371D01*
X729583Y305050D01*
X729889Y302729D01*
X730785Y300567D01*
X732210Y298710D01*
X734067Y297285D01*
X736229Y296389D01*
X738550Y296083D01*
X740871Y296389D01*
X743033Y297285D01*
X744891Y298710D01*
X746315Y300567D01*
X747211Y302729D01*
X747517Y305050D01*
X747211Y307371D01*
X746315Y309533D01*
X744891Y311390D01*
X743033Y312815D01*
X740871Y313711D01*
X738550Y314017D01*
D02*
G37*
G36*
X687750D02*
X685429Y313711D01*
X683267Y312815D01*
X681410Y311390D01*
X679985Y309533D01*
X679089Y307371D01*
X678783Y305050D01*
X679089Y302729D01*
X679985Y300567D01*
X681410Y298710D01*
X683267Y297285D01*
X685429Y296389D01*
X687750Y296083D01*
X690071Y296389D01*
X692233Y297285D01*
X694090Y298710D01*
X695515Y300567D01*
X696411Y302729D01*
X696717Y305050D01*
X696411Y307371D01*
X695515Y309533D01*
X694090Y311390D01*
X692233Y312815D01*
X690071Y313711D01*
X687750Y314017D01*
D02*
G37*
G36*
X636950D02*
X634629Y313711D01*
X632467Y312815D01*
X630610Y311390D01*
X629185Y309533D01*
X628289Y307371D01*
X627983Y305050D01*
X628289Y302729D01*
X629185Y300567D01*
X630610Y298710D01*
X632467Y297285D01*
X634629Y296389D01*
X636950Y296083D01*
X639271Y296389D01*
X641433Y297285D01*
X643290Y298710D01*
X644715Y300567D01*
X645611Y302729D01*
X645917Y305050D01*
X645611Y307371D01*
X644715Y309533D01*
X643290Y311390D01*
X641433Y312815D01*
X639271Y313711D01*
X636950Y314017D01*
D02*
G37*
G36*
X662350D02*
X660029Y313711D01*
X657867Y312815D01*
X656010Y311390D01*
X654585Y309533D01*
X653689Y307371D01*
X653383Y305050D01*
X653689Y302729D01*
X654585Y300567D01*
X656010Y298710D01*
X657867Y297285D01*
X660029Y296389D01*
X662350Y296083D01*
X664671Y296389D01*
X666833Y297285D01*
X668690Y298710D01*
X670115Y300567D01*
X671011Y302729D01*
X671317Y305050D01*
X671011Y307371D01*
X670115Y309533D01*
X668690Y311390D01*
X666833Y312815D01*
X664671Y313711D01*
X662350Y314017D01*
D02*
G37*
G36*
X814750D02*
X812429Y313711D01*
X810267Y312815D01*
X808410Y311390D01*
X806985Y309533D01*
X806089Y307371D01*
X805783Y305050D01*
X806089Y302729D01*
X806985Y300567D01*
X808410Y298710D01*
X810267Y297285D01*
X812429Y296389D01*
X814750Y296083D01*
X817071Y296389D01*
X819233Y297285D01*
X821090Y298710D01*
X822515Y300567D01*
X823411Y302729D01*
X823717Y305050D01*
X823411Y307371D01*
X822515Y309533D01*
X821090Y311390D01*
X819233Y312815D01*
X817071Y313711D01*
X814750Y314017D01*
D02*
G37*
G36*
X904000Y316854D02*
X902334Y316522D01*
X900921Y315578D01*
X899977Y314166D01*
X899646Y312500D01*
X899977Y310834D01*
X900921Y309421D01*
X902334Y308478D01*
X904000Y308146D01*
X905666Y308478D01*
X906577Y309086D01*
X907712Y309539D01*
X908428Y309156D01*
D01*
X908426Y309151D01*
X908413Y309119D01*
X907689Y307371D01*
X907383Y305050D01*
X907689Y302729D01*
X908585Y300567D01*
X910010Y298710D01*
X911867Y297285D01*
X913596Y296568D01*
X913466Y295247D01*
X912334Y295022D01*
X910921Y294078D01*
X909977Y292666D01*
X909646Y291000D01*
X909977Y289334D01*
X910921Y287921D01*
X911410Y287595D01*
Y276405D01*
X910921Y276078D01*
X909977Y274666D01*
X909646Y273000D01*
X909977Y271334D01*
X910921Y269921D01*
X912334Y268978D01*
X914000Y268646D01*
X915666Y268978D01*
X917078Y269921D01*
X918022Y271334D01*
X918353Y273000D01*
X918022Y274666D01*
X917078Y276078D01*
X916590Y276405D01*
Y287595D01*
X917078Y287921D01*
X918022Y289334D01*
X918353Y291000D01*
X918022Y292666D01*
X917078Y294078D01*
X915908Y294861D01*
X916335Y296085D01*
X916350Y296083D01*
X918671Y296389D01*
X920833Y297285D01*
X922691Y298710D01*
X924115Y300567D01*
X925011Y302729D01*
X925317Y305050D01*
X925011Y307371D01*
X924115Y309533D01*
X922691Y311390D01*
X920833Y312815D01*
X918671Y313711D01*
X916350Y314017D01*
X914029Y313711D01*
X911867Y312815D01*
X910010Y311390D01*
X909093Y310196D01*
X909093Y310196D01*
X909091Y310193D01*
X909019Y310236D01*
X908990Y310253D01*
X908338Y310644D01*
X908222Y311841D01*
X908353Y312500D01*
X908022Y314166D01*
X907078Y315578D01*
X905666Y316522D01*
X904000Y316854D01*
D02*
G37*
G36*
X941750Y314017D02*
X939429Y313711D01*
X937267Y312815D01*
X935410Y311390D01*
X933985Y309533D01*
X933089Y307371D01*
X932783Y305050D01*
X933089Y302729D01*
X933985Y300567D01*
X935410Y298710D01*
X937267Y297285D01*
X939429Y296389D01*
X941750Y296083D01*
X944071Y296389D01*
X946233Y297285D01*
X948091Y298710D01*
X949515Y300567D01*
X950411Y302729D01*
X950717Y305050D01*
X950411Y307371D01*
X949515Y309533D01*
X948091Y311390D01*
X946233Y312815D01*
X944071Y313711D01*
X941750Y314017D01*
D02*
G37*
G36*
X890950D02*
X888629Y313711D01*
X886467Y312815D01*
X884610Y311390D01*
X883185Y309533D01*
X882289Y307371D01*
X881983Y305050D01*
X882289Y302729D01*
X883185Y300567D01*
X884610Y298710D01*
X886467Y297285D01*
X888629Y296389D01*
X890950Y296083D01*
X893271Y296389D01*
X895433Y297285D01*
X897290Y298710D01*
X898715Y300567D01*
X899611Y302729D01*
X899917Y305050D01*
X899611Y307371D01*
X898715Y309533D01*
X897290Y311390D01*
X895433Y312815D01*
X893271Y313711D01*
X890950Y314017D01*
D02*
G37*
G36*
X840150D02*
X837829Y313711D01*
X835667Y312815D01*
X833810Y311390D01*
X832385Y309533D01*
X831489Y307371D01*
X831183Y305050D01*
X831489Y302729D01*
X832385Y300567D01*
X833810Y298710D01*
X835667Y297285D01*
X837829Y296389D01*
X840150Y296083D01*
X842471Y296389D01*
X844633Y297285D01*
X846490Y298710D01*
X847915Y300567D01*
X848811Y302729D01*
X849117Y305050D01*
X848811Y307371D01*
X847915Y309533D01*
X846490Y311390D01*
X844633Y312815D01*
X842471Y313711D01*
X840150Y314017D01*
D02*
G37*
G36*
X865550D02*
X863229Y313711D01*
X861067Y312815D01*
X859210Y311390D01*
X857785Y309533D01*
X856889Y307371D01*
X856583Y305050D01*
X856889Y302729D01*
X857785Y300567D01*
X859210Y298710D01*
X861067Y297285D01*
X863229Y296389D01*
X865550Y296083D01*
X867871Y296389D01*
X870033Y297285D01*
X871890Y298710D01*
X873315Y300567D01*
X874211Y302729D01*
X874517Y305050D01*
X874211Y307371D01*
X873315Y309533D01*
X871890Y311390D01*
X870033Y312815D01*
X867871Y313711D01*
X865550Y314017D01*
D02*
G37*
G36*
X446500Y293354D02*
X444834Y293022D01*
X443421Y292078D01*
X442477Y290666D01*
X442146Y289000D01*
X442477Y287334D01*
X443421Y285921D01*
X444834Y284978D01*
X446500Y284646D01*
X448166Y284978D01*
X449578Y285921D01*
X450522Y287334D01*
X450853Y289000D01*
X450522Y290666D01*
X449578Y292078D01*
X448166Y293022D01*
X446500Y293354D01*
D02*
G37*
G36*
X1118280Y303780D02*
X1109470D01*
X1109651Y302398D01*
X1110675Y299926D01*
X1112304Y297804D01*
X1114426Y296175D01*
X1116898Y295152D01*
X1118280Y294970D01*
Y303780D01*
D02*
G37*
G36*
X904000Y278354D02*
X902334Y278022D01*
X900921Y277078D01*
X899977Y275666D01*
X899646Y274000D01*
X899977Y272334D01*
X900921Y270921D01*
X902334Y269978D01*
X904000Y269646D01*
X905666Y269978D01*
X907078Y270921D01*
X908022Y272334D01*
X908353Y274000D01*
X908022Y275666D01*
X907078Y277078D01*
X905666Y278022D01*
X904000Y278354D01*
D02*
G37*
G36*
X522000Y272813D02*
X520334Y272482D01*
X518921Y271538D01*
X517977Y270126D01*
X517646Y268460D01*
X517977Y266794D01*
X518921Y265381D01*
X520334Y264438D01*
X522000Y264106D01*
X523666Y264438D01*
X525078Y265381D01*
X526022Y266794D01*
X526353Y268460D01*
X526022Y270126D01*
X525078Y271538D01*
X523666Y272482D01*
X522000Y272813D01*
D02*
G37*
G36*
X509950Y314017D02*
X507629Y313711D01*
X505467Y312815D01*
X503610Y311390D01*
X502185Y309533D01*
X501289Y307371D01*
X500983Y305050D01*
X501289Y302729D01*
X502185Y300567D01*
X503610Y298710D01*
X505467Y297285D01*
X506410Y296894D01*
Y281405D01*
X505921Y281078D01*
X504977Y279666D01*
X504646Y278000D01*
X504977Y276334D01*
X505921Y274921D01*
X507175Y274084D01*
X507205Y273444D01*
X507041Y272762D01*
X505834Y272522D01*
X504421Y271578D01*
X503478Y270166D01*
X503146Y268500D01*
X503478Y266834D01*
X504421Y265421D01*
X505834Y264478D01*
X507500Y264146D01*
X509166Y264478D01*
X510578Y265421D01*
X511522Y266834D01*
X511853Y268500D01*
X511522Y270166D01*
X510578Y271578D01*
X509325Y272416D01*
X509295Y273056D01*
X509459Y273738D01*
X510666Y273978D01*
X512078Y274921D01*
X513022Y276334D01*
X513353Y278000D01*
X513022Y279666D01*
X512078Y281078D01*
X511590Y281405D01*
Y296299D01*
X512271Y296389D01*
X514433Y297285D01*
X516291Y298710D01*
X517715Y300567D01*
X518611Y302729D01*
X518917Y305050D01*
X518611Y307371D01*
X517715Y309533D01*
X516291Y311390D01*
X514433Y312815D01*
X512271Y313711D01*
X509950Y314017D01*
D02*
G37*
G36*
X1129631Y303780D02*
X1120820D01*
Y294970D01*
X1122202Y295152D01*
X1124674Y296175D01*
X1126796Y297804D01*
X1128425Y299926D01*
X1129448Y302398D01*
X1129631Y303780D01*
D02*
G37*
G36*
X586150Y314017D02*
X583829Y313711D01*
X581667Y312815D01*
X579810Y311390D01*
X578385Y309533D01*
X577489Y307371D01*
X577183Y305050D01*
X577489Y302729D01*
X578385Y300567D01*
X579810Y298710D01*
X581667Y297285D01*
X583829Y296389D01*
X586150Y296083D01*
X588471Y296389D01*
X590633Y297285D01*
X592491Y298710D01*
X593915Y300567D01*
X594811Y302729D01*
X595117Y305050D01*
X594811Y307371D01*
X593915Y309533D01*
X592491Y311390D01*
X590633Y312815D01*
X588471Y313711D01*
X586150Y314017D01*
D02*
G37*
G36*
X611550D02*
X609229Y313711D01*
X607067Y312815D01*
X605210Y311390D01*
X603785Y309533D01*
X602889Y307371D01*
X602583Y305050D01*
X602889Y302729D01*
X603785Y300567D01*
X605210Y298710D01*
X607067Y297285D01*
X609229Y296389D01*
X611550Y296083D01*
X613871Y296389D01*
X616033Y297285D01*
X617891Y298710D01*
X619315Y300567D01*
X620211Y302729D01*
X620517Y305050D01*
X620211Y307371D01*
X619315Y309533D01*
X617891Y311390D01*
X616033Y312815D01*
X613871Y313711D01*
X611550Y314017D01*
D02*
G37*
G36*
X535350D02*
X533029Y313711D01*
X530867Y312815D01*
X529010Y311390D01*
X527585Y309533D01*
X526689Y307371D01*
X526383Y305050D01*
X526689Y302729D01*
X527585Y300567D01*
X529010Y298710D01*
X530867Y297285D01*
X533029Y296389D01*
X535350Y296083D01*
X537671Y296389D01*
X539833Y297285D01*
X541690Y298710D01*
X543115Y300567D01*
X544011Y302729D01*
X544317Y305050D01*
X544011Y307371D01*
X543115Y309533D01*
X541690Y311390D01*
X539833Y312815D01*
X537671Y313711D01*
X535350Y314017D01*
D02*
G37*
G36*
X459150D02*
X456829Y313711D01*
X454667Y312815D01*
X452810Y311390D01*
X451385Y309533D01*
X450489Y307371D01*
X450183Y305050D01*
X450489Y302729D01*
X451385Y300567D01*
X452810Y298710D01*
X454667Y297285D01*
X456829Y296389D01*
X459150Y296083D01*
X461471Y296389D01*
X463633Y297285D01*
X465490Y298710D01*
X466915Y300567D01*
X467811Y302729D01*
X468117Y305050D01*
X467811Y307371D01*
X466915Y309533D01*
X465490Y311390D01*
X463633Y312815D01*
X461471Y313711D01*
X459150Y314017D01*
D02*
G37*
G36*
X484550D02*
X482229Y313711D01*
X480067Y312815D01*
X478210Y311390D01*
X476785Y309533D01*
X475889Y307371D01*
X475583Y305050D01*
X475889Y302729D01*
X476785Y300567D01*
X478210Y298710D01*
X480067Y297285D01*
X482229Y296389D01*
X484550Y296083D01*
X486871Y296389D01*
X489033Y297285D01*
X490891Y298710D01*
X492315Y300567D01*
X493211Y302729D01*
X493517Y305050D01*
X493211Y307371D01*
X492315Y309533D01*
X490891Y311390D01*
X489033Y312815D01*
X486871Y313711D01*
X484550Y314017D01*
D02*
G37*
G36*
X992550D02*
X990229Y313711D01*
X988067Y312815D01*
X986210Y311390D01*
X984785Y309533D01*
X983889Y307371D01*
X983583Y305050D01*
X983889Y302729D01*
X984785Y300567D01*
X986210Y298710D01*
X988067Y297285D01*
X990229Y296389D01*
X992550Y296083D01*
X994871Y296389D01*
X997033Y297285D01*
X998891Y298710D01*
X1000315Y300567D01*
X1001211Y302729D01*
X1001517Y305050D01*
X1001211Y307371D01*
X1000315Y309533D01*
X998891Y311390D01*
X997033Y312815D01*
X994871Y313711D01*
X992550Y314017D01*
D02*
G37*
G36*
X1048490Y339353D02*
X1046824Y339022D01*
X1045411Y338078D01*
X1044467Y336666D01*
X1044136Y335000D01*
X1044467Y333334D01*
X1045411Y331921D01*
X1046824Y330978D01*
X1048490Y330646D01*
X1050156Y330978D01*
X1051568Y331921D01*
X1052512Y333334D01*
X1052843Y335000D01*
X1052512Y336666D01*
X1051568Y338078D01*
X1050156Y339022D01*
X1048490Y339353D01*
D02*
G37*
G36*
X989500Y341353D02*
X987834Y341022D01*
X986421Y340078D01*
X985478Y338666D01*
X985146Y337000D01*
X985478Y335334D01*
X986421Y333921D01*
X987834Y332978D01*
X989500Y332646D01*
X991166Y332978D01*
X992578Y333921D01*
X993522Y335334D01*
X993853Y337000D01*
X993522Y338666D01*
X992578Y340078D01*
X991166Y341022D01*
X989500Y341353D01*
D02*
G37*
G36*
X744700Y338153D02*
X743034Y337822D01*
X741622Y336878D01*
X740678Y335465D01*
X740347Y333799D01*
X740678Y332133D01*
X741622Y330721D01*
X743034Y329777D01*
X744700Y329446D01*
X746366Y329777D01*
X747779Y330721D01*
X748723Y332133D01*
X749054Y333799D01*
X748723Y335465D01*
X747779Y336878D01*
X746366Y337822D01*
X744700Y338153D01*
D02*
G37*
G36*
X685600Y337253D02*
X683934Y336922D01*
X682521Y335978D01*
X681578Y334566D01*
X681246Y332900D01*
X681578Y331234D01*
X682521Y329821D01*
X683934Y328877D01*
X685600Y328546D01*
X687266Y328877D01*
X688678Y329821D01*
X689622Y331234D01*
X689954Y332900D01*
X689622Y334566D01*
X688678Y335978D01*
X687266Y336922D01*
X685600Y337253D01*
D02*
G37*
G36*
X789500Y347354D02*
X787834Y347022D01*
X786421Y346078D01*
X785478Y344666D01*
X785146Y343000D01*
X785478Y341334D01*
X786421Y339921D01*
X787834Y338978D01*
X788238Y338897D01*
Y337602D01*
X787834Y337522D01*
X786421Y336578D01*
X785478Y335166D01*
X785146Y333500D01*
X785478Y331834D01*
X786421Y330421D01*
X787834Y329478D01*
X789500Y329146D01*
X791166Y329478D01*
X792578Y330421D01*
X793522Y331834D01*
X793853Y333500D01*
X793522Y335166D01*
X792578Y336578D01*
X791166Y337522D01*
X790762Y337602D01*
Y338897D01*
X791166Y338978D01*
X792578Y339921D01*
X793522Y341334D01*
X793853Y343000D01*
X793522Y344666D01*
X792578Y346078D01*
X791166Y347022D01*
X789500Y347354D01*
D02*
G37*
G36*
X930500Y341853D02*
X928834Y341522D01*
X927421Y340578D01*
X926478Y339166D01*
X926146Y337500D01*
X926478Y335834D01*
X927421Y334421D01*
X928834Y333478D01*
X930500Y333146D01*
X932166Y333478D01*
X933578Y334421D01*
X934522Y335834D01*
X934853Y337500D01*
X934522Y339166D01*
X933578Y340578D01*
X932166Y341522D01*
X930500Y341853D01*
D02*
G37*
G36*
X671500Y343354D02*
X669834Y343022D01*
X668421Y342078D01*
X667477Y340666D01*
X667146Y339000D01*
X667477Y337334D01*
X668421Y335921D01*
X669834Y334978D01*
X671500Y334646D01*
X673166Y334978D01*
X674578Y335921D01*
X675522Y337334D01*
X675853Y339000D01*
X675522Y340666D01*
X674578Y342078D01*
X673166Y343022D01*
X671500Y343354D01*
D02*
G37*
G36*
X887500Y346853D02*
X885834Y346522D01*
X884421Y345578D01*
X883477Y344166D01*
X883146Y342500D01*
X883477Y340834D01*
X884421Y339421D01*
X885834Y338478D01*
X887500Y338146D01*
X889166Y338478D01*
X890578Y339421D01*
X891522Y340834D01*
X891853Y342500D01*
X891522Y344166D01*
X890578Y345578D01*
X889166Y346522D01*
X887500Y346853D01*
D02*
G37*
G36*
X565500Y343354D02*
X563834Y343022D01*
X562421Y342078D01*
X561478Y340666D01*
X561146Y339000D01*
X561478Y337334D01*
X562421Y335921D01*
X563834Y334978D01*
X565500Y334646D01*
X567166Y334978D01*
X568578Y335921D01*
X569522Y337334D01*
X569853Y339000D01*
X569522Y340666D01*
X568578Y342078D01*
X567166Y343022D01*
X565500Y343354D01*
D02*
G37*
G36*
X949500Y341853D02*
X947834Y341522D01*
X946421Y340578D01*
X945478Y339166D01*
X945146Y337500D01*
X945478Y335834D01*
X946421Y334421D01*
X947834Y333478D01*
X949500Y333146D01*
X951166Y333478D01*
X952578Y334421D01*
X953522Y335834D01*
X953853Y337500D01*
X953522Y339166D01*
X952578Y340578D01*
X951166Y341522D01*
X949500Y341853D01*
D02*
G37*
G36*
X968500D02*
X966834Y341522D01*
X965421Y340578D01*
X964477Y339166D01*
X964146Y337500D01*
X964477Y335834D01*
X965421Y334421D01*
X966834Y333478D01*
X968500Y333146D01*
X970166Y333478D01*
X971578Y334421D01*
X972522Y335834D01*
X972853Y337500D01*
X972522Y339166D01*
X971578Y340578D01*
X970166Y341522D01*
X968500Y341853D01*
D02*
G37*
G36*
X976040Y313940D02*
X958260D01*
Y296160D01*
X976040D01*
Y313940D01*
D02*
G37*
G36*
X408350Y320243D02*
X405386Y319951D01*
X402536Y319087D01*
X399909Y317683D01*
X397607Y315793D01*
X395717Y313491D01*
X394313Y310864D01*
X393449Y308014D01*
X393262Y306114D01*
Y306114D01*
X393260Y306095D01*
X393166Y305227D01*
X393127Y305227D01*
X393127D01*
X393041Y305225D01*
X392075Y305210D01*
X391958Y305208D01*
Y305208D01*
X391912Y305207D01*
X391781Y306084D01*
X391777Y306108D01*
Y306108D01*
X391611Y307371D01*
X390715Y309533D01*
X389291Y311390D01*
X387433Y312815D01*
X385271Y313711D01*
X382950Y314017D01*
X380629Y313711D01*
X378467Y312815D01*
X376610Y311390D01*
X375185Y309533D01*
X374289Y307371D01*
X373983Y305050D01*
X374289Y302729D01*
X375185Y300567D01*
X376610Y298710D01*
X378467Y297285D01*
X380629Y296389D01*
X382950Y296083D01*
X385271Y296389D01*
X387433Y297285D01*
X389291Y298710D01*
X390715Y300567D01*
X391611Y302729D01*
X391777Y303992D01*
D01*
X391781Y304016D01*
X391912Y304893D01*
X391959Y304893D01*
X391959Y304893D01*
X392075Y304891D01*
X393041Y304875D01*
X393127Y304873D01*
D01*
X393166Y304873D01*
X393260Y304006D01*
X393262Y303986D01*
Y303986D01*
X393449Y302086D01*
X394313Y299236D01*
X395717Y296609D01*
X397607Y294307D01*
X399909Y292417D01*
X402536Y291013D01*
X405386Y290149D01*
X408350Y289857D01*
X411314Y290149D01*
X414164Y291013D01*
X416791Y292417D01*
X419093Y294307D01*
X420983Y296609D01*
X422387Y299236D01*
X423251Y302086D01*
X423438Y303986D01*
Y303986D01*
X423440Y304006D01*
X423535Y304873D01*
X423573Y304873D01*
X423573D01*
X423659Y304875D01*
X424625Y304891D01*
X424742Y304893D01*
Y304893D01*
X424789Y304893D01*
X424919Y304016D01*
X424923Y303992D01*
Y303992D01*
X425089Y302729D01*
X425985Y300567D01*
X427410Y298710D01*
X429267Y297285D01*
X431429Y296389D01*
X433750Y296083D01*
X436071Y296389D01*
X438233Y297285D01*
X440090Y298710D01*
X441515Y300567D01*
X442411Y302729D01*
X442717Y305050D01*
X442411Y307371D01*
X441515Y309533D01*
X440090Y311390D01*
X438233Y312815D01*
X436071Y313711D01*
X433750Y314017D01*
X431429Y313711D01*
X429267Y312815D01*
X427410Y311390D01*
X425985Y309533D01*
X425089Y307371D01*
X424923Y306108D01*
D01*
X424919Y306084D01*
X424789Y305207D01*
X424742Y305208D01*
X424742Y305208D01*
X424625Y305210D01*
X423659Y305225D01*
X423573Y305227D01*
D01*
X423535Y305227D01*
X423440Y306094D01*
X423438Y306114D01*
Y306114D01*
X423251Y308014D01*
X422387Y310864D01*
X420983Y313491D01*
X419093Y315793D01*
X416791Y317683D01*
X414164Y319087D01*
X411314Y319951D01*
X408350Y320243D01*
D02*
G37*
G36*
X569640Y313940D02*
X551860D01*
Y296160D01*
X569640D01*
Y313940D01*
D02*
G37*
G36*
X1017950Y314017D02*
X1015629Y313711D01*
X1013467Y312815D01*
X1011610Y311390D01*
X1010185Y309533D01*
X1009289Y307371D01*
X1008983Y305050D01*
X1009289Y302729D01*
X1010185Y300567D01*
X1011610Y298710D01*
X1013467Y297285D01*
X1015629Y296389D01*
X1017950Y296083D01*
X1020271Y296389D01*
X1022433Y297285D01*
X1024290Y298710D01*
X1025715Y300567D01*
X1026611Y302729D01*
X1026917Y305050D01*
X1026611Y307371D01*
X1025715Y309533D01*
X1024290Y311390D01*
X1022433Y312815D01*
X1020271Y313711D01*
X1017950Y314017D01*
D02*
G37*
G36*
X1043350D02*
X1041029Y313711D01*
X1038867Y312815D01*
X1037010Y311390D01*
X1035585Y309533D01*
X1034689Y307371D01*
X1034383Y305050D01*
X1034689Y302729D01*
X1035585Y300567D01*
X1037010Y298710D01*
X1038867Y297285D01*
X1041029Y296389D01*
X1043350Y296083D01*
X1045671Y296389D01*
X1047833Y297285D01*
X1049690Y298710D01*
X1051115Y300567D01*
X1052011Y302729D01*
X1052317Y305050D01*
X1052011Y307371D01*
X1051115Y309533D01*
X1049690Y311390D01*
X1047833Y312815D01*
X1045671Y313711D01*
X1043350Y314017D01*
D02*
G37*
G36*
X1118280Y315131D02*
X1116898Y314949D01*
X1114426Y313925D01*
X1112304Y312296D01*
X1110675Y310174D01*
X1109651Y307702D01*
X1109470Y306320D01*
X1118280D01*
Y315131D01*
D02*
G37*
G36*
X700000Y336853D02*
X698334Y336522D01*
X696921Y335578D01*
X695977Y334166D01*
X695646Y332500D01*
X695977Y330834D01*
X696921Y329421D01*
X698334Y328478D01*
X700000Y328146D01*
X701666Y328478D01*
X703078Y329421D01*
X704022Y330834D01*
X704353Y332500D01*
X704022Y334166D01*
X703078Y335578D01*
X701666Y336522D01*
X700000Y336853D01*
D02*
G37*
G36*
X732000D02*
X730334Y336522D01*
X728921Y335578D01*
X727978Y334166D01*
X727646Y332500D01*
X727978Y330834D01*
X728921Y329421D01*
X730334Y328478D01*
X732000Y328146D01*
X733666Y328478D01*
X735078Y329421D01*
X736022Y330834D01*
X736353Y332500D01*
X736022Y334166D01*
X735078Y335578D01*
X733666Y336522D01*
X732000Y336853D01*
D02*
G37*
G36*
X716500Y336353D02*
X714834Y336022D01*
X713421Y335078D01*
X712477Y333666D01*
X712146Y332000D01*
X712477Y330334D01*
X713421Y328921D01*
X714834Y327978D01*
X716500Y327646D01*
X718166Y327978D01*
X719578Y328921D01*
X720522Y330334D01*
X720853Y332000D01*
X720522Y333666D01*
X719578Y335078D01*
X718166Y336022D01*
X716500Y336353D01*
D02*
G37*
G36*
X1120820Y315131D02*
Y306320D01*
X1129631D01*
X1129448Y307702D01*
X1128425Y310174D01*
X1126796Y312296D01*
X1124674Y313925D01*
X1122202Y314949D01*
X1120820Y315131D01*
D02*
G37*
G36*
X1008500Y332854D02*
X1006834Y332522D01*
X1005421Y331578D01*
X1004477Y330166D01*
X1004146Y328500D01*
X1004477Y326834D01*
X1005421Y325421D01*
X1006834Y324478D01*
X1008500Y324146D01*
X1010166Y324478D01*
X1011578Y325421D01*
X1012522Y326834D01*
X1012853Y328500D01*
X1012522Y330166D01*
X1011578Y331578D01*
X1010166Y332522D01*
X1008500Y332854D01*
D02*
G37*
G36*
X747500Y417354D02*
X745834Y417022D01*
X744421Y416078D01*
X743477Y414666D01*
X743146Y413000D01*
X743477Y411334D01*
X744421Y409921D01*
X745834Y408978D01*
X747500Y408646D01*
X749166Y408978D01*
X750578Y409921D01*
X751522Y411334D01*
X751853Y413000D01*
X751522Y414666D01*
X750578Y416078D01*
X749166Y417022D01*
X747500Y417354D01*
D02*
G37*
G36*
X663500Y511353D02*
X661834Y511022D01*
X660421Y510078D01*
X659477Y508666D01*
X659146Y507000D01*
X659477Y505334D01*
X660421Y503921D01*
X661834Y502978D01*
X663500Y502646D01*
X665166Y502978D01*
X666578Y503921D01*
X667522Y505334D01*
X667853Y507000D01*
X667522Y508666D01*
X666578Y510078D01*
X665166Y511022D01*
X663500Y511353D01*
D02*
G37*
G36*
X988500Y511853D02*
X986834Y511522D01*
X985421Y510578D01*
X984477Y509166D01*
X984146Y507500D01*
X984477Y505834D01*
X985421Y504421D01*
X986834Y503478D01*
X988500Y503146D01*
X990166Y503478D01*
X991578Y504421D01*
X992522Y505834D01*
X992853Y507500D01*
X992522Y509166D01*
X991578Y510578D01*
X990166Y511522D01*
X988500Y511853D01*
D02*
G37*
G36*
X641250Y510603D02*
X639584Y510272D01*
X638171Y509328D01*
X637228Y507916D01*
X636896Y506250D01*
X637228Y504584D01*
X638171Y503171D01*
X639584Y502228D01*
X641250Y501896D01*
X642916Y502228D01*
X644328Y503171D01*
X645272Y504584D01*
X645603Y506250D01*
X645272Y507916D01*
X644328Y509328D01*
X642916Y510272D01*
X641250Y510603D01*
D02*
G37*
G36*
X934250Y504854D02*
X932584Y504522D01*
X931171Y503578D01*
X930228Y502166D01*
X929896Y500500D01*
X930228Y498834D01*
X931171Y497421D01*
X932584Y496478D01*
X934250Y496146D01*
X935916Y496478D01*
X937328Y497421D01*
X938272Y498834D01*
X938603Y500500D01*
X938272Y502166D01*
X937328Y503578D01*
X935916Y504522D01*
X934250Y504854D01*
D02*
G37*
G36*
X954250D02*
X952584Y504522D01*
X951171Y503578D01*
X950228Y502166D01*
X949896Y500500D01*
X950228Y498834D01*
X951171Y497421D01*
X952584Y496478D01*
X954250Y496146D01*
X955916Y496478D01*
X957328Y497421D01*
X958272Y498834D01*
X958603Y500500D01*
X958272Y502166D01*
X957328Y503578D01*
X955916Y504522D01*
X954250Y504854D01*
D02*
G37*
G36*
X1056498Y514353D02*
X1054832Y514022D01*
X1053420Y513078D01*
X1052476Y511665D01*
X1052145Y509999D01*
X1052476Y508333D01*
X1053420Y506921D01*
X1054832Y505977D01*
X1056498Y505646D01*
X1058164Y505977D01*
X1059577Y506921D01*
X1060520Y508333D01*
X1060852Y509999D01*
X1060520Y511665D01*
X1059577Y513078D01*
X1058164Y514022D01*
X1056498Y514353D01*
D02*
G37*
G36*
X389500Y538845D02*
X387210Y538544D01*
X385077Y537660D01*
X383245Y536255D01*
X381839Y534423D01*
X380956Y532289D01*
X380654Y530000D01*
Y520000D01*
X380956Y517710D01*
X381839Y515577D01*
X383245Y513745D01*
X385077Y512339D01*
X387210Y511456D01*
X389500Y511154D01*
X391789Y511456D01*
X393923Y512339D01*
X395755Y513745D01*
X397160Y515577D01*
X398044Y517710D01*
X398345Y520000D01*
Y530000D01*
X398044Y532289D01*
X397160Y534423D01*
X395755Y536255D01*
X393923Y537660D01*
X391789Y538544D01*
X389500Y538845D01*
D02*
G37*
G36*
X559500Y546349D02*
X556310Y546034D01*
X553243Y545104D01*
X550417Y543593D01*
X547939Y541560D01*
X545906Y539083D01*
X544395Y536256D01*
X543465Y533189D01*
X543151Y530000D01*
X543465Y526810D01*
X544395Y523744D01*
X545906Y520917D01*
X547939Y518440D01*
X550417Y516406D01*
X553243Y514896D01*
X556310Y513965D01*
X559500Y513651D01*
X562689Y513965D01*
X565756Y514896D01*
X568583Y516406D01*
X571060Y518440D01*
X573093Y520917D01*
X574604Y523744D01*
X575534Y526810D01*
X575849Y530000D01*
X575534Y533189D01*
X574604Y536256D01*
X573093Y539083D01*
X571060Y541560D01*
X568583Y543593D01*
X565756Y545104D01*
X562689Y546034D01*
X559500Y546349D01*
D02*
G37*
G36*
X369500Y538845D02*
X367210Y538544D01*
X365077Y537660D01*
X363245Y536255D01*
X361839Y534423D01*
X360956Y532289D01*
X360654Y530000D01*
Y520000D01*
X360956Y517710D01*
X361839Y515577D01*
X363245Y513745D01*
X365077Y512339D01*
X367210Y511456D01*
X369500Y511154D01*
X371789Y511456D01*
X373923Y512339D01*
X375755Y513745D01*
X377160Y515577D01*
X378044Y517710D01*
X378345Y520000D01*
Y530000D01*
X378044Y532289D01*
X377160Y534423D01*
X375755Y536255D01*
X373923Y537660D01*
X371789Y538544D01*
X369500Y538845D01*
D02*
G37*
G36*
X838500Y517854D02*
X836834Y517522D01*
X835421Y516578D01*
X834477Y515166D01*
X834146Y513500D01*
X834477Y511834D01*
X835421Y510421D01*
X836834Y509478D01*
X838500Y509146D01*
X840166Y509478D01*
X841578Y510421D01*
X842522Y511834D01*
X842853Y513500D01*
X842522Y515166D01*
X841578Y516578D01*
X840166Y517522D01*
X838500Y517854D01*
D02*
G37*
G36*
X439626Y523730D02*
X430770D01*
Y510040D01*
X432121Y510218D01*
X434563Y511230D01*
X436660Y512839D01*
X438270Y514936D01*
X439281Y517379D01*
X439626Y520000D01*
Y523730D01*
D02*
G37*
G36*
X862500Y492854D02*
X860834Y492522D01*
X859421Y491578D01*
X858477Y490166D01*
X858146Y488500D01*
X858477Y486834D01*
X859421Y485421D01*
X860834Y484478D01*
X862500Y484146D01*
X864166Y484478D01*
X865578Y485421D01*
X866522Y486834D01*
X866853Y488500D01*
X866522Y490166D01*
X865578Y491578D01*
X864166Y492522D01*
X862500Y492854D01*
D02*
G37*
G36*
X485500Y493354D02*
X483834Y493022D01*
X482421Y492078D01*
X481478Y490666D01*
X481146Y489000D01*
X481478Y487334D01*
X482421Y485921D01*
X483834Y484978D01*
X485500Y484646D01*
X487166Y484978D01*
X488578Y485921D01*
X489522Y487334D01*
X489853Y489000D01*
X489522Y490666D01*
X488578Y492078D01*
X487166Y493022D01*
X485500Y493354D01*
D02*
G37*
G36*
X1152500Y482354D02*
X1150834Y482022D01*
X1150567Y481844D01*
X1145433D01*
X1145166Y482022D01*
X1143500Y482354D01*
X1141834Y482022D01*
X1140421Y481078D01*
X1139477Y479666D01*
X1139146Y478000D01*
X1139477Y476334D01*
X1140421Y474921D01*
X1141834Y473978D01*
X1143500Y473646D01*
X1145166Y473978D01*
X1145433Y474156D01*
X1150567D01*
X1150834Y473978D01*
X1151149Y473915D01*
X1154656Y470408D01*
Y308167D01*
X1153386Y307915D01*
X1152715Y309533D01*
X1151291Y311390D01*
X1149433Y312815D01*
X1147271Y313711D01*
X1144950Y314017D01*
X1142629Y313711D01*
X1140467Y312815D01*
X1138610Y311390D01*
X1137185Y309533D01*
X1136289Y307371D01*
X1135983Y305050D01*
X1136289Y302729D01*
X1137185Y300567D01*
X1138610Y298710D01*
X1140467Y297285D01*
X1142629Y296389D01*
X1144950Y296083D01*
X1147271Y296389D01*
X1149433Y297285D01*
X1151291Y298710D01*
X1152715Y300567D01*
X1153386Y302185D01*
X1154656Y301933D01*
Y293592D01*
X1146908Y285844D01*
X1106092D01*
X1097994Y293942D01*
Y297020D01*
X1098633Y297285D01*
X1100490Y298710D01*
X1101915Y300567D01*
X1102811Y302729D01*
X1103117Y305050D01*
X1102811Y307371D01*
X1101915Y309533D01*
X1100490Y311390D01*
X1098633Y312815D01*
X1096471Y313711D01*
X1094150Y314017D01*
X1091829Y313711D01*
X1089667Y312815D01*
X1087810Y311390D01*
X1086385Y309533D01*
X1085489Y307371D01*
X1085183Y305050D01*
X1085489Y302729D01*
X1086385Y300567D01*
X1087810Y298710D01*
X1089667Y297285D01*
X1090306Y297020D01*
Y292350D01*
X1090306Y292350D01*
X1090550Y291123D01*
X1090599Y290879D01*
X1091432Y289632D01*
X1101782Y279282D01*
X1101782Y279282D01*
X1103029Y278449D01*
X1104500Y278156D01*
X1148500D01*
X1148500Y278156D01*
X1149727Y278400D01*
X1149971Y278449D01*
X1151218Y279282D01*
X1161218Y289282D01*
X1161218Y289282D01*
X1162051Y290529D01*
X1162344Y292000D01*
Y472000D01*
X1162344Y472000D01*
X1162100Y473227D01*
X1162051Y473471D01*
X1161218Y474718D01*
X1156585Y479351D01*
X1156522Y479666D01*
X1155578Y481078D01*
X1154166Y482022D01*
X1152500Y482354D01*
D02*
G37*
G36*
X1120500Y485354D02*
X1118834Y485022D01*
X1117421Y484078D01*
X1116478Y482666D01*
X1116146Y481000D01*
X1116478Y479334D01*
X1117421Y477921D01*
X1118834Y476978D01*
X1120500Y476646D01*
X1122166Y476978D01*
X1123578Y477921D01*
X1124522Y479334D01*
X1124853Y481000D01*
X1124522Y482666D01*
X1123578Y484078D01*
X1122166Y485022D01*
X1120500Y485354D01*
D02*
G37*
G36*
X884500Y487854D02*
X882834Y487522D01*
X881421Y486578D01*
X880478Y485166D01*
X880146Y483500D01*
X880478Y481834D01*
X881421Y480421D01*
X882834Y479478D01*
X884500Y479146D01*
X886166Y479478D01*
X887578Y480421D01*
X888522Y481834D01*
X888853Y483500D01*
X888522Y485166D01*
X887578Y486578D01*
X886166Y487522D01*
X884500Y487854D01*
D02*
G37*
G36*
X763000Y493853D02*
X761334Y493522D01*
X759921Y492578D01*
X758978Y491166D01*
X758646Y489500D01*
X758978Y487834D01*
X759921Y486421D01*
X761334Y485478D01*
X763000Y485146D01*
X764666Y485478D01*
X766078Y486421D01*
X767022Y487834D01*
X767353Y489500D01*
X767022Y491166D01*
X766078Y492578D01*
X764666Y493522D01*
X763000Y493853D01*
D02*
G37*
G36*
X687500Y500354D02*
X685834Y500022D01*
X684421Y499078D01*
X683477Y497666D01*
X683146Y496000D01*
X683477Y494334D01*
X684421Y492921D01*
X685834Y491978D01*
X687500Y491646D01*
X689166Y491978D01*
X690578Y492921D01*
X691522Y494334D01*
X691853Y496000D01*
X691522Y497666D01*
X690578Y499078D01*
X689166Y500022D01*
X687500Y500354D01*
D02*
G37*
G36*
X542500Y501154D02*
X540834Y500822D01*
X539421Y499879D01*
X538478Y498466D01*
X538146Y496800D01*
X538478Y495134D01*
X539421Y493722D01*
X540834Y492778D01*
X542500Y492447D01*
X544166Y492778D01*
X545578Y493722D01*
X546522Y495134D01*
X546853Y496800D01*
X546522Y498466D01*
X545578Y499879D01*
X544166Y500822D01*
X542500Y501154D01*
D02*
G37*
G36*
X674500Y500354D02*
X672834Y500022D01*
X671421Y499078D01*
X670478Y497666D01*
X670146Y496000D01*
X670478Y494334D01*
X671421Y492921D01*
X672834Y491978D01*
X674500Y491646D01*
X676166Y491978D01*
X677578Y492921D01*
X678522Y494334D01*
X678853Y496000D01*
X678522Y497666D01*
X677578Y499078D01*
X676166Y500022D01*
X674500Y500354D01*
D02*
G37*
G36*
X912500Y488854D02*
X910834Y488522D01*
X909421Y487578D01*
X908705Y486507D01*
X908486Y486444D01*
X907514D01*
X907294Y486507D01*
X906578Y487578D01*
X905166Y488522D01*
X903500Y488854D01*
X901834Y488522D01*
X900421Y487578D01*
X899477Y486166D01*
X899146Y484500D01*
X899477Y482834D01*
X900421Y481421D01*
X901834Y480478D01*
X903500Y480146D01*
X905166Y480478D01*
X906578Y481421D01*
X907294Y482493D01*
X907514Y482556D01*
X908486D01*
X908705Y482493D01*
X909421Y481421D01*
X910834Y480478D01*
X912500Y480146D01*
X914166Y480478D01*
X915578Y481421D01*
X916522Y482834D01*
X916853Y484500D01*
X916522Y486166D01*
X915578Y487578D01*
X914166Y488522D01*
X912500Y488854D01*
D02*
G37*
G36*
X1104500Y499353D02*
X1102834Y499022D01*
X1101421Y498078D01*
X1100478Y496666D01*
X1100146Y495000D01*
X1100478Y493334D01*
X1101421Y491921D01*
X1102834Y490978D01*
X1104500Y490646D01*
X1106166Y490978D01*
X1107578Y491921D01*
X1108522Y493334D01*
X1108853Y495000D01*
X1108522Y496666D01*
X1107578Y498078D01*
X1106166Y499022D01*
X1104500Y499353D01*
D02*
G37*
G36*
X999050Y557217D02*
X996729Y556911D01*
X994566Y556015D01*
X992709Y554590D01*
X991284Y552733D01*
X990389Y550571D01*
X990083Y548250D01*
X990389Y545929D01*
X991284Y543767D01*
X992709Y541909D01*
X994566Y540485D01*
X996729Y539589D01*
X999050Y539283D01*
X1001370Y539589D01*
X1003533Y540485D01*
X1005390Y541909D01*
X1006815Y543767D01*
X1007711Y545929D01*
X1008016Y548250D01*
X1007711Y550571D01*
X1006815Y552733D01*
X1005390Y554590D01*
X1003533Y556015D01*
X1001370Y556911D01*
X999050Y557217D01*
D02*
G37*
G36*
X1024450D02*
X1022129Y556911D01*
X1019966Y556015D01*
X1018109Y554590D01*
X1016684Y552733D01*
X1015789Y550571D01*
X1015483Y548250D01*
X1015789Y545929D01*
X1016684Y543767D01*
X1018109Y541909D01*
X1019966Y540485D01*
X1022129Y539589D01*
X1024450Y539283D01*
X1026770Y539589D01*
X1028933Y540485D01*
X1030790Y541909D01*
X1032215Y543767D01*
X1033111Y545929D01*
X1033416Y548250D01*
X1033111Y550571D01*
X1032215Y552733D01*
X1030790Y554590D01*
X1028933Y556015D01*
X1026770Y556911D01*
X1024450Y557217D01*
D02*
G37*
G36*
X973650D02*
X971329Y556911D01*
X969166Y556015D01*
X967309Y554590D01*
X965884Y552733D01*
X964989Y550571D01*
X964683Y548250D01*
X964989Y545929D01*
X965884Y543767D01*
X967309Y541909D01*
X969166Y540485D01*
X971329Y539589D01*
X973650Y539283D01*
X975971Y539589D01*
X978133Y540485D01*
X979990Y541909D01*
X981415Y543767D01*
X982311Y545929D01*
X982616Y548250D01*
X982311Y550571D01*
X981415Y552733D01*
X979990Y554590D01*
X978133Y556015D01*
X975971Y556911D01*
X973650Y557217D01*
D02*
G37*
G36*
X920230Y546980D02*
X911420D01*
Y538169D01*
X912802Y538351D01*
X915274Y539375D01*
X917396Y541004D01*
X919025Y543126D01*
X920048Y545598D01*
X920230Y546980D01*
D02*
G37*
G36*
X948250Y557217D02*
X945929Y556911D01*
X943766Y556015D01*
X941909Y554590D01*
X940484Y552733D01*
X939589Y550571D01*
X939283Y548250D01*
X939589Y545929D01*
X940484Y543767D01*
X941909Y541909D01*
X943766Y540485D01*
X945929Y539589D01*
X948250Y539283D01*
X950571Y539589D01*
X952733Y540485D01*
X954590Y541909D01*
X956015Y543767D01*
X956911Y545929D01*
X957216Y548250D01*
X956911Y550571D01*
X956015Y552733D01*
X954590Y554590D01*
X952733Y556015D01*
X950571Y556911D01*
X948250Y557217D01*
D02*
G37*
G36*
X1049850D02*
X1047529Y556911D01*
X1045366Y556015D01*
X1043509Y554590D01*
X1042084Y552733D01*
X1041189Y550571D01*
X1040883Y548250D01*
X1041189Y545929D01*
X1042084Y543767D01*
X1043509Y541909D01*
X1045366Y540485D01*
X1047529Y539589D01*
X1049850Y539283D01*
X1052170Y539589D01*
X1054333Y540485D01*
X1056190Y541909D01*
X1057615Y543767D01*
X1058511Y545929D01*
X1058816Y548250D01*
X1058511Y550571D01*
X1057615Y552733D01*
X1056190Y554590D01*
X1054333Y556015D01*
X1052170Y556911D01*
X1049850Y557217D01*
D02*
G37*
G36*
X908880Y558330D02*
X907497Y558148D01*
X905026Y557125D01*
X902904Y555496D01*
X901275Y553374D01*
X900251Y550902D01*
X900069Y549520D01*
X908880D01*
Y558330D01*
D02*
G37*
G36*
X911420Y558330D02*
Y549520D01*
X920230D01*
X920048Y550902D01*
X919025Y553374D01*
X917396Y555496D01*
X915274Y557125D01*
X912802Y558148D01*
X911420Y558330D01*
D02*
G37*
G36*
X857500Y550354D02*
X855834Y550022D01*
X854421Y549078D01*
X853477Y547666D01*
X853146Y546000D01*
X853477Y544334D01*
X854421Y542921D01*
X855834Y541978D01*
X857500Y541646D01*
X859166Y541978D01*
X860578Y542921D01*
X861522Y544334D01*
X861853Y546000D01*
X861522Y547666D01*
X860578Y549078D01*
X859166Y550022D01*
X857500Y550354D01*
D02*
G37*
G36*
X1100650Y557217D02*
X1098329Y556911D01*
X1096166Y556015D01*
X1094309Y554590D01*
X1092884Y552733D01*
X1091989Y550571D01*
X1091683Y548250D01*
X1091989Y545929D01*
X1092884Y543767D01*
X1094309Y541909D01*
X1096166Y540485D01*
X1098329Y539589D01*
X1100650Y539283D01*
X1102971Y539589D01*
X1105133Y540485D01*
X1106990Y541909D01*
X1108415Y543767D01*
X1109311Y545929D01*
X1109616Y548250D01*
X1109311Y550571D01*
X1108415Y552733D01*
X1106990Y554590D01*
X1105133Y556015D01*
X1102971Y556911D01*
X1100650Y557217D01*
D02*
G37*
G36*
X1134940Y557140D02*
X1117160D01*
Y539360D01*
X1134940D01*
Y557140D01*
D02*
G37*
G36*
X1098500Y537854D02*
X1096834Y537522D01*
X1095421Y536578D01*
X1094477Y535166D01*
X1094146Y533500D01*
X1094477Y531834D01*
X1095421Y530421D01*
X1096407Y529762D01*
X1096767Y528935D01*
X1096678Y528214D01*
X1095977Y527166D01*
X1095646Y525500D01*
X1095977Y523834D01*
X1096921Y522421D01*
X1098334Y521478D01*
X1100000Y521146D01*
X1101666Y521478D01*
X1103078Y522421D01*
X1104022Y523834D01*
X1104353Y525500D01*
X1104022Y527166D01*
X1103078Y528578D01*
X1102092Y529237D01*
X1101733Y530065D01*
X1101822Y530786D01*
X1102522Y531834D01*
X1102853Y533500D01*
X1102522Y535166D01*
X1101578Y536578D01*
X1100166Y537522D01*
X1098500Y537854D01*
D02*
G37*
G36*
X916000Y529854D02*
X914334Y529522D01*
X912921Y528578D01*
X911977Y527166D01*
X911646Y525500D01*
X911977Y523834D01*
X912921Y522421D01*
X914334Y521478D01*
X916000Y521146D01*
X917666Y521478D01*
X919078Y522421D01*
X920022Y523834D01*
X920353Y525500D01*
X920022Y527166D01*
X919078Y528578D01*
X917666Y529522D01*
X916000Y529854D01*
D02*
G37*
G36*
X586500Y529353D02*
X584834Y529022D01*
X583421Y528078D01*
X582477Y526666D01*
X582146Y525000D01*
X582477Y523334D01*
X583421Y521921D01*
X584834Y520978D01*
X586500Y520646D01*
X588166Y520978D01*
X589578Y521921D01*
X590522Y523334D01*
X590853Y525000D01*
X590522Y526666D01*
X589578Y528078D01*
X588166Y529022D01*
X586500Y529353D01*
D02*
G37*
G36*
X822700Y524054D02*
X821034Y523722D01*
X819621Y522778D01*
X818678Y521366D01*
X818346Y519700D01*
X818678Y518034D01*
X819621Y516622D01*
X821034Y515678D01*
X822700Y515346D01*
X824366Y515678D01*
X825778Y516622D01*
X826722Y518034D01*
X827053Y519700D01*
X826722Y521366D01*
X825778Y522778D01*
X824366Y523722D01*
X822700Y524054D01*
D02*
G37*
G36*
X733500Y525354D02*
X731834Y525022D01*
X730421Y524078D01*
X729477Y522666D01*
X729146Y521000D01*
X729477Y519334D01*
X730421Y517921D01*
X731834Y516978D01*
X733500Y516646D01*
X735166Y516978D01*
X736578Y517921D01*
X737522Y519334D01*
X737853Y521000D01*
X737522Y522666D01*
X736578Y524078D01*
X735166Y525022D01*
X733500Y525354D01*
D02*
G37*
G36*
X755500Y531853D02*
X753834Y531522D01*
X752421Y530578D01*
X751478Y529166D01*
X751146Y527500D01*
X751478Y525834D01*
X752421Y524421D01*
X753834Y523478D01*
X755500Y523146D01*
X757166Y523478D01*
X758578Y524421D01*
X759522Y525834D01*
X759853Y527500D01*
X759522Y529166D01*
X758578Y530578D01*
X757166Y531522D01*
X755500Y531853D01*
D02*
G37*
G36*
X428230Y539959D02*
X426879Y539781D01*
X424436Y538770D01*
X422339Y537160D01*
X420730Y535063D01*
X419718Y532621D01*
X419500Y530962D01*
X418219D01*
X418044Y532289D01*
X417160Y534423D01*
X415755Y536255D01*
X413923Y537660D01*
X411789Y538544D01*
X409500Y538845D01*
X407210Y538544D01*
X405077Y537660D01*
X403245Y536255D01*
X401839Y534423D01*
X400956Y532289D01*
X400654Y530000D01*
Y520000D01*
X400956Y517710D01*
X401839Y515577D01*
X403245Y513745D01*
X405077Y512339D01*
X407210Y511456D01*
X409500Y511154D01*
X411789Y511456D01*
X413923Y512339D01*
X415755Y513745D01*
X417160Y515577D01*
X418044Y517710D01*
X418219Y519038D01*
X419500D01*
X419718Y517379D01*
X420730Y514936D01*
X422339Y512839D01*
X424436Y511230D01*
X426879Y510218D01*
X428230Y510040D01*
Y525000D01*
Y539959D01*
D02*
G37*
G36*
X908880Y546980D02*
X900069D01*
X900251Y545598D01*
X901275Y543126D01*
X902904Y541004D01*
X905026Y539375D01*
X907497Y538351D01*
X908880Y538169D01*
Y546980D01*
D02*
G37*
G36*
X884750Y557217D02*
X882429Y556911D01*
X880266Y556015D01*
X878409Y554590D01*
X876984Y552733D01*
X876089Y550571D01*
X875783Y548250D01*
X876089Y545929D01*
X876984Y543767D01*
X878409Y541909D01*
X880266Y540485D01*
X881579Y539941D01*
X881673Y538527D01*
X880762Y537919D01*
X879818Y536506D01*
X879487Y534840D01*
X879818Y533174D01*
X880762Y531762D01*
X882174Y530818D01*
X883840Y530487D01*
X885506Y530818D01*
X886919Y531762D01*
X887862Y533174D01*
X888194Y534840D01*
X887862Y536506D01*
X886919Y537919D01*
X886458Y538227D01*
X886766Y539549D01*
X887070Y539589D01*
X889233Y540485D01*
X891090Y541909D01*
X892515Y543767D01*
X893411Y545929D01*
X893716Y548250D01*
X893411Y550571D01*
X892515Y552733D01*
X891090Y554590D01*
X889233Y556015D01*
X887070Y556911D01*
X884750Y557217D01*
D02*
G37*
G36*
X430770Y539959D02*
Y526270D01*
X439626D01*
Y530000D01*
X439281Y532621D01*
X438270Y535063D01*
X436660Y537160D01*
X434563Y538770D01*
X432121Y539781D01*
X430770Y539959D01*
D02*
G37*
G36*
X1075250Y557217D02*
X1072929Y556911D01*
X1070766Y556015D01*
X1068909Y554590D01*
X1067484Y552733D01*
X1066589Y550571D01*
X1066283Y548250D01*
X1066589Y545929D01*
X1067484Y543767D01*
X1068909Y541909D01*
X1070766Y540485D01*
X1072364Y539823D01*
X1072340Y538810D01*
X1072277Y538484D01*
X1070921Y537578D01*
X1069977Y536166D01*
X1069646Y534500D01*
X1069977Y532834D01*
X1070921Y531421D01*
X1072334Y530478D01*
X1074000Y530146D01*
X1075666Y530478D01*
X1077078Y531421D01*
X1078022Y532834D01*
X1078353Y534500D01*
X1078022Y536166D01*
X1077078Y537578D01*
X1076247Y538134D01*
X1076555Y539455D01*
X1077570Y539589D01*
X1079733Y540485D01*
X1081590Y541909D01*
X1083015Y543767D01*
X1083911Y545929D01*
X1084216Y548250D01*
X1083911Y550571D01*
X1083015Y552733D01*
X1081590Y554590D01*
X1079733Y556015D01*
X1077570Y556911D01*
X1075250Y557217D01*
D02*
G37*
G36*
X980499Y481853D02*
X978832Y481521D01*
X977420Y480578D01*
X976476Y479165D01*
X976145Y477499D01*
X976476Y475833D01*
X977420Y474421D01*
X978832Y473477D01*
X980499Y473146D01*
X982165Y473477D01*
X983577Y474421D01*
X984521Y475833D01*
X984852Y477499D01*
X984521Y479165D01*
X983577Y480578D01*
X982165Y481521D01*
X980499Y481853D01*
D02*
G37*
G36*
Y439853D02*
X978832Y439522D01*
X977420Y438578D01*
X976476Y437166D01*
X976145Y435500D01*
X976476Y433834D01*
X977420Y432421D01*
X978832Y431477D01*
X980499Y431146D01*
X982165Y431477D01*
X983577Y432421D01*
X984521Y433834D01*
X984852Y435500D01*
X984521Y437166D01*
X983577Y438578D01*
X982165Y439522D01*
X980499Y439853D01*
D02*
G37*
G36*
X911000Y441154D02*
X909334Y440822D01*
X907922Y439879D01*
X906978Y438466D01*
X906646Y436800D01*
X906978Y435134D01*
X907922Y433722D01*
X909334Y432778D01*
X911000Y432447D01*
X912666Y432778D01*
X914079Y433722D01*
X915022Y435134D01*
X915354Y436800D01*
X915022Y438466D01*
X914079Y439879D01*
X912666Y440822D01*
X911000Y441154D01*
D02*
G37*
G36*
X555500Y434353D02*
X553834Y434022D01*
X552421Y433078D01*
X551478Y431666D01*
X551146Y430000D01*
X551478Y428334D01*
X552421Y426921D01*
X553834Y425978D01*
X555500Y425646D01*
X557166Y425978D01*
X558578Y426921D01*
X559522Y428334D01*
X559853Y430000D01*
X559522Y431666D01*
X558578Y433078D01*
X557166Y434022D01*
X555500Y434353D01*
D02*
G37*
G36*
X1005000Y432354D02*
X1003334Y432022D01*
X1001921Y431078D01*
X1000977Y429666D01*
X1000646Y428000D01*
X1000977Y426334D01*
X1001921Y424921D01*
X1003334Y423978D01*
X1005000Y423646D01*
X1006666Y423978D01*
X1008078Y424921D01*
X1009022Y426334D01*
X1009353Y428000D01*
X1009022Y429666D01*
X1008078Y431078D01*
X1006666Y432022D01*
X1005000Y432354D01*
D02*
G37*
G36*
X449000Y432854D02*
X447334Y432522D01*
X445921Y431578D01*
X444977Y430166D01*
X444646Y428500D01*
X444977Y426834D01*
X445921Y425421D01*
X447334Y424478D01*
X449000Y424146D01*
X450666Y424478D01*
X452078Y425421D01*
X453022Y426834D01*
X453353Y428500D01*
X453022Y430166D01*
X452078Y431578D01*
X450666Y432522D01*
X449000Y432854D01*
D02*
G37*
G36*
X859000Y441356D02*
X857334Y441024D01*
X855921Y440081D01*
X854977Y438668D01*
X854646Y437002D01*
X854977Y435336D01*
X855921Y433924D01*
X857334Y432980D01*
X859000Y432649D01*
X860666Y432980D01*
X862078Y433924D01*
X863022Y435336D01*
X863353Y437002D01*
X863022Y438668D01*
X862078Y440081D01*
X860666Y441024D01*
X859000Y441356D01*
D02*
G37*
G36*
X668500Y448853D02*
X666834Y448522D01*
X665421Y447578D01*
X664477Y446166D01*
X664146Y444500D01*
X664477Y442834D01*
X665421Y441421D01*
X666834Y440478D01*
X668500Y440146D01*
X670166Y440478D01*
X671578Y441421D01*
X672522Y442834D01*
X672853Y444500D01*
X672522Y446166D01*
X671578Y447578D01*
X670166Y448522D01*
X668500Y448853D01*
D02*
G37*
G36*
X970499Y450353D02*
X968832Y450022D01*
X967420Y449078D01*
X966476Y447666D01*
X966145Y445999D01*
X966476Y444333D01*
X967420Y442921D01*
X968832Y441977D01*
X970499Y441646D01*
X972165Y441977D01*
X973577Y442921D01*
X974521Y444333D01*
X974852Y445999D01*
X974521Y447666D01*
X973577Y449078D01*
X972165Y450022D01*
X970499Y450353D01*
D02*
G37*
G36*
X1126300Y448354D02*
X1124634Y448022D01*
X1123221Y447078D01*
X1122278Y445666D01*
X1121946Y444000D01*
X1122278Y442334D01*
X1123221Y440921D01*
X1124634Y439978D01*
X1126300Y439646D01*
X1127966Y439978D01*
X1129378Y440921D01*
X1130322Y442334D01*
X1130654Y444000D01*
X1130322Y445666D01*
X1129378Y447078D01*
X1127966Y448022D01*
X1126300Y448354D01*
D02*
G37*
G36*
X633500Y443354D02*
X631834Y443022D01*
X630421Y442078D01*
X629478Y440666D01*
X629146Y439000D01*
X629478Y437334D01*
X630421Y435921D01*
X631834Y434978D01*
X633500Y434646D01*
X635166Y434978D01*
X636578Y435921D01*
X637522Y437334D01*
X637853Y439000D01*
X637522Y440666D01*
X636578Y442078D01*
X635166Y443022D01*
X633500Y443354D01*
D02*
G37*
G36*
X542000Y444854D02*
X540334Y444522D01*
X538921Y443578D01*
X537977Y442166D01*
X537646Y440500D01*
X537977Y438834D01*
X538921Y437421D01*
X540334Y436478D01*
X542000Y436146D01*
X543666Y436478D01*
X545078Y437421D01*
X546022Y438834D01*
X546353Y440500D01*
X546022Y442166D01*
X545078Y443578D01*
X543666Y444522D01*
X542000Y444854D01*
D02*
G37*
G36*
X933500Y418854D02*
X931834Y418522D01*
X930421Y417578D01*
X929477Y416166D01*
X929146Y414500D01*
X929477Y412834D01*
X930421Y411422D01*
X931834Y410478D01*
X933500Y410146D01*
X935166Y410478D01*
X936578Y411422D01*
X937522Y412834D01*
X937853Y414500D01*
X937522Y416166D01*
X936578Y417578D01*
X935166Y418522D01*
X933500Y418854D01*
D02*
G37*
G36*
X800500Y419854D02*
X798834Y419522D01*
X797421Y418578D01*
X796478Y417166D01*
X796146Y415500D01*
X796478Y413834D01*
X797421Y412421D01*
X798834Y411478D01*
X800500Y411146D01*
X802166Y411478D01*
X803578Y412421D01*
X804522Y413834D01*
X804853Y415500D01*
X804522Y417166D01*
X803578Y418578D01*
X802166Y419522D01*
X800500Y419854D01*
D02*
G37*
G36*
X888500Y418854D02*
X886834Y418522D01*
X885421Y417578D01*
X884477Y416166D01*
X884146Y414500D01*
X884477Y412834D01*
X885421Y411422D01*
X886834Y410478D01*
X888500Y410146D01*
X890166Y410478D01*
X891578Y411422D01*
X892522Y412834D01*
X892853Y414500D01*
X892522Y416166D01*
X891578Y417578D01*
X890166Y418522D01*
X888500Y418854D01*
D02*
G37*
G36*
X686500Y418354D02*
X684834Y418022D01*
X683421Y417078D01*
X682477Y415666D01*
X682146Y414000D01*
X682477Y412334D01*
X683421Y410921D01*
X684834Y409978D01*
X686500Y409646D01*
X688166Y409978D01*
X689578Y410921D01*
X690522Y412334D01*
X690853Y414000D01*
X690522Y415666D01*
X689578Y417078D01*
X688166Y418022D01*
X686500Y418354D01*
D02*
G37*
G36*
X980499Y418853D02*
X978832Y418522D01*
X977420Y417578D01*
X976476Y416166D01*
X976145Y414500D01*
X976476Y412834D01*
X977420Y411421D01*
X978832Y410477D01*
X980499Y410146D01*
X982165Y410477D01*
X983577Y411421D01*
X984521Y412834D01*
X984852Y414500D01*
X984521Y416166D01*
X983577Y417578D01*
X982165Y418522D01*
X980499Y418853D01*
D02*
G37*
G36*
X354500Y422354D02*
X352834Y422022D01*
X351421Y421078D01*
X350477Y419666D01*
X350146Y418000D01*
X350477Y416334D01*
X351421Y414921D01*
X352834Y413978D01*
X354500Y413646D01*
X356166Y413978D01*
X357578Y414921D01*
X358522Y416334D01*
X358853Y418000D01*
X358522Y419666D01*
X357578Y421078D01*
X356166Y422022D01*
X354500Y422354D01*
D02*
G37*
G36*
X858499Y428353D02*
X856833Y428022D01*
X855420Y427078D01*
X854476Y425666D01*
X854145Y423999D01*
X854476Y422333D01*
X855420Y420921D01*
X856833Y419977D01*
X858499Y419646D01*
X860165Y419977D01*
X861577Y420921D01*
X862521Y422333D01*
X862852Y423999D01*
X862521Y425666D01*
X861577Y427078D01*
X860165Y428022D01*
X858499Y428353D01*
D02*
G37*
G36*
X970499Y429353D02*
X968832Y429022D01*
X967420Y428078D01*
X966476Y426666D01*
X966145Y425000D01*
X966476Y423334D01*
X967420Y421921D01*
X968832Y420977D01*
X970499Y420646D01*
X972165Y420977D01*
X973577Y421921D01*
X974521Y423334D01*
X974852Y425000D01*
X974521Y426666D01*
X973577Y428078D01*
X972165Y429022D01*
X970499Y429353D01*
D02*
G37*
G36*
X1126300Y426154D02*
X1124634Y425822D01*
X1123221Y424879D01*
X1122278Y423466D01*
X1121946Y421800D01*
X1122278Y420134D01*
X1123221Y418722D01*
X1124634Y417778D01*
X1126300Y417446D01*
X1127966Y417778D01*
X1129378Y418722D01*
X1130322Y420134D01*
X1130654Y421800D01*
X1130322Y423466D01*
X1129378Y424879D01*
X1127966Y425822D01*
X1126300Y426154D01*
D02*
G37*
G36*
X668500Y422354D02*
X666834Y422022D01*
X665421Y421078D01*
X664477Y419666D01*
X664146Y418000D01*
X664477Y416334D01*
X665421Y414921D01*
X666834Y413978D01*
X668500Y413646D01*
X670166Y413978D01*
X671578Y414921D01*
X672522Y416334D01*
X672853Y418000D01*
X672522Y419666D01*
X671578Y421078D01*
X670166Y422022D01*
X668500Y422354D01*
D02*
G37*
G36*
X621500Y423354D02*
X619834Y423022D01*
X618421Y422078D01*
X617477Y420666D01*
X617146Y419000D01*
X617477Y417334D01*
X618421Y415921D01*
X619834Y414978D01*
X621500Y414646D01*
X623166Y414978D01*
X624578Y415921D01*
X625522Y417334D01*
X625853Y419000D01*
X625522Y420666D01*
X624578Y422078D01*
X623166Y423022D01*
X621500Y423354D01*
D02*
G37*
G36*
X774500Y468354D02*
X772834Y468022D01*
X771421Y467078D01*
X770478Y465666D01*
X770146Y464000D01*
X770478Y462334D01*
X771421Y460921D01*
X772834Y459978D01*
X774500Y459646D01*
X776166Y459978D01*
X777578Y460921D01*
X778522Y462334D01*
X778853Y464000D01*
X778522Y465666D01*
X777578Y467078D01*
X776166Y468022D01*
X774500Y468354D01*
D02*
G37*
G36*
X970499Y471353D02*
X968832Y471022D01*
X967420Y470078D01*
X966476Y468665D01*
X966145Y466999D01*
X966476Y465333D01*
X967420Y463921D01*
X968832Y462977D01*
X970499Y462646D01*
X972165Y462977D01*
X973577Y463921D01*
X974521Y465333D01*
X974852Y466999D01*
X974521Y468665D01*
X973577Y470078D01*
X972165Y471022D01*
X970499Y471353D01*
D02*
G37*
G36*
X730000Y467854D02*
X728334Y467522D01*
X726921Y466578D01*
X725977Y465166D01*
X725646Y463500D01*
X725977Y461834D01*
X726921Y460421D01*
X728334Y459478D01*
X730000Y459146D01*
X731666Y459478D01*
X733078Y460421D01*
X734022Y461834D01*
X734353Y463500D01*
X734022Y465166D01*
X733078Y466578D01*
X731666Y467522D01*
X730000Y467854D01*
D02*
G37*
G36*
X933500Y464854D02*
X931834Y464522D01*
X930421Y463578D01*
X929477Y462166D01*
X929146Y460500D01*
X929477Y458834D01*
X930421Y457421D01*
X931834Y456478D01*
X933500Y456146D01*
X935166Y456478D01*
X936578Y457421D01*
X937522Y458834D01*
X937853Y460500D01*
X937522Y462166D01*
X936578Y463578D01*
X935166Y464522D01*
X933500Y464854D01*
D02*
G37*
G36*
X859000Y467687D02*
X857334Y467356D01*
X855921Y466412D01*
X854977Y465000D01*
X854646Y463334D01*
X854977Y461668D01*
X855921Y460255D01*
X857334Y459312D01*
X859000Y458980D01*
X860666Y459312D01*
X862078Y460255D01*
X863022Y461668D01*
X863353Y463334D01*
X863022Y465000D01*
X862078Y466412D01*
X860666Y467356D01*
X859000Y467687D01*
D02*
G37*
G36*
X797525Y474828D02*
X795860Y474496D01*
X794447Y473553D01*
X793503Y472140D01*
X793172Y470474D01*
X793503Y468808D01*
X794447Y467396D01*
X795860Y466452D01*
X797525Y466120D01*
X799192Y466452D01*
X800604Y467396D01*
X801548Y468808D01*
X801879Y470474D01*
X801548Y472140D01*
X800604Y473553D01*
X799192Y474496D01*
X797525Y474828D01*
D02*
G37*
G36*
X622124Y480354D02*
X620458Y480022D01*
X619046Y479078D01*
X618102Y477666D01*
X617771Y476000D01*
X618102Y474334D01*
X619046Y472921D01*
X620458Y471978D01*
X622124Y471646D01*
X623790Y471978D01*
X625203Y472921D01*
X626146Y474334D01*
X626478Y476000D01*
X626146Y477666D01*
X625203Y479078D01*
X623790Y480022D01*
X622124Y480354D01*
D02*
G37*
G36*
X853500Y487354D02*
X851834Y487022D01*
X850421Y486078D01*
X849477Y484666D01*
X849146Y483000D01*
X849477Y481334D01*
X850421Y479921D01*
X851834Y478978D01*
X853500Y478646D01*
X853892Y478724D01*
X854003Y478667D01*
X854870Y477624D01*
X854646Y476500D01*
X854977Y474834D01*
X855921Y473421D01*
X857334Y472477D01*
X859000Y472146D01*
X860666Y472477D01*
X862078Y473421D01*
X863022Y474834D01*
X863353Y476500D01*
X863022Y478166D01*
X862078Y479578D01*
X860666Y480522D01*
X859000Y480853D01*
X858607Y480775D01*
X858496Y480832D01*
X857630Y481876D01*
X857853Y483000D01*
X857522Y484666D01*
X856578Y486078D01*
X855166Y487022D01*
X853500Y487354D01*
D02*
G37*
G36*
X586500Y480354D02*
X584834Y480022D01*
X583421Y479078D01*
X582477Y477666D01*
X582146Y476000D01*
X582477Y474334D01*
X583421Y472921D01*
X584834Y471978D01*
X586500Y471646D01*
X588166Y471978D01*
X589578Y472921D01*
X590522Y474334D01*
X590853Y476000D01*
X590522Y477666D01*
X589578Y479078D01*
X588166Y480022D01*
X586500Y480354D01*
D02*
G37*
G36*
X1005500Y475354D02*
X1003834Y475022D01*
X1002421Y474078D01*
X1001478Y472666D01*
X1001146Y471000D01*
X1001478Y469334D01*
X1002421Y467921D01*
X1003834Y466978D01*
X1005500Y466646D01*
X1007166Y466978D01*
X1008578Y467921D01*
X1009522Y469334D01*
X1009853Y471000D01*
X1009522Y472666D01*
X1008578Y474078D01*
X1007166Y475022D01*
X1005500Y475354D01*
D02*
G37*
G36*
X839500Y475854D02*
X837834Y475522D01*
X836421Y474578D01*
X835478Y473166D01*
X835146Y471500D01*
X835478Y469834D01*
X836421Y468421D01*
X837834Y467478D01*
X839500Y467146D01*
X841166Y467478D01*
X842578Y468421D01*
X843522Y469834D01*
X843853Y471500D01*
X843522Y473166D01*
X842578Y474578D01*
X841166Y475522D01*
X839500Y475854D01*
D02*
G37*
G36*
X980499Y460853D02*
X978832Y460522D01*
X977420Y459578D01*
X976476Y458166D01*
X976145Y456499D01*
X976476Y454833D01*
X977420Y453421D01*
X978832Y452477D01*
X980499Y452146D01*
X981583Y452361D01*
X982347Y451219D01*
X981977Y450666D01*
X981646Y449000D01*
X981977Y447334D01*
X982921Y445921D01*
X984334Y444978D01*
X986000Y444646D01*
X987666Y444978D01*
X989078Y445921D01*
X990022Y447334D01*
X990353Y449000D01*
X990022Y450666D01*
X989078Y452078D01*
X987666Y453022D01*
X986000Y453354D01*
X984915Y453138D01*
X984152Y454281D01*
X984521Y454833D01*
X984852Y456499D01*
X984521Y458166D01*
X983577Y459578D01*
X982165Y460522D01*
X980499Y460853D01*
D02*
G37*
G36*
X1005000Y453354D02*
X1003334Y453022D01*
X1001921Y452078D01*
X1000977Y450666D01*
X1000646Y449000D01*
X1000977Y447334D01*
X1001921Y445921D01*
X1003334Y444978D01*
X1005000Y444646D01*
X1006666Y444978D01*
X1008078Y445921D01*
X1009022Y447334D01*
X1009353Y449000D01*
X1009022Y450666D01*
X1008078Y452078D01*
X1006666Y453022D01*
X1005000Y453354D01*
D02*
G37*
G36*
X1077500Y452354D02*
X1075834Y452022D01*
X1074421Y451078D01*
X1073477Y449666D01*
X1073146Y448000D01*
X1073477Y446334D01*
X1074421Y444921D01*
X1075834Y443978D01*
X1077500Y443646D01*
X1079166Y443978D01*
X1080578Y444921D01*
X1081522Y446334D01*
X1081853Y448000D01*
X1081522Y449666D01*
X1080578Y451078D01*
X1079166Y452022D01*
X1077500Y452354D01*
D02*
G37*
G36*
X646999Y451353D02*
X645333Y451022D01*
X643921Y450078D01*
X642977Y448666D01*
X642645Y447000D01*
X642977Y445333D01*
X643921Y443921D01*
X645333Y442977D01*
X646999Y442646D01*
X648665Y442977D01*
X650078Y443921D01*
X651021Y445333D01*
X651353Y447000D01*
X651021Y448666D01*
X650078Y450078D01*
X648665Y451022D01*
X646999Y451353D01*
D02*
G37*
G36*
X746500Y451853D02*
X744834Y451522D01*
X743421Y450578D01*
X742477Y449166D01*
X742146Y447500D01*
X742477Y445834D01*
X743421Y444421D01*
X744834Y443478D01*
X746500Y443146D01*
X748166Y443478D01*
X749578Y444421D01*
X750522Y445834D01*
X750853Y447500D01*
X750522Y449166D01*
X749578Y450578D01*
X748166Y451522D01*
X746500Y451853D01*
D02*
G37*
G36*
X1029000Y453354D02*
X1027334Y453022D01*
X1025921Y452078D01*
X1024977Y450666D01*
X1024646Y449000D01*
X1024977Y447334D01*
X1025921Y445921D01*
X1027334Y444978D01*
X1029000Y444646D01*
X1030666Y444978D01*
X1032078Y445921D01*
X1033022Y447334D01*
X1033353Y449000D01*
X1033022Y450666D01*
X1032078Y452078D01*
X1030666Y453022D01*
X1029000Y453354D01*
D02*
G37*
G36*
X422500Y464353D02*
X420834Y464022D01*
X419421Y463078D01*
X418478Y461666D01*
X418146Y460000D01*
X418478Y458334D01*
X419421Y456921D01*
X420834Y455978D01*
X422500Y455646D01*
X424166Y455978D01*
X425578Y456921D01*
X426522Y458334D01*
X426853Y460000D01*
X426522Y461666D01*
X425578Y463078D01*
X424166Y464022D01*
X422500Y464353D01*
D02*
G37*
G36*
X888500Y464854D02*
X886834Y464522D01*
X885421Y463578D01*
X884477Y462166D01*
X884146Y460500D01*
X884477Y458834D01*
X885421Y457421D01*
X886834Y456478D01*
X888500Y456146D01*
X890166Y456478D01*
X891578Y457421D01*
X892522Y458834D01*
X892853Y460500D01*
X892522Y462166D01*
X891578Y463578D01*
X890166Y464522D01*
X888500Y464854D01*
D02*
G37*
G36*
X839000Y456353D02*
X837334Y456022D01*
X835921Y455078D01*
X834977Y453666D01*
X834646Y452000D01*
X834977Y450334D01*
X835921Y448921D01*
X837334Y447978D01*
X839000Y447646D01*
X840666Y447978D01*
X842078Y448921D01*
X843022Y450334D01*
X843353Y452000D01*
X843022Y453666D01*
X842078Y455078D01*
X840666Y456022D01*
X839000Y456353D01*
D02*
G37*
G36*
X859000Y454522D02*
X857334Y454190D01*
X855921Y453246D01*
X854977Y451834D01*
X854646Y450168D01*
X854977Y448502D01*
X855921Y447090D01*
X857334Y446146D01*
X859000Y445814D01*
X860666Y446146D01*
X862078Y447090D01*
X863022Y448502D01*
X863353Y450168D01*
X863022Y451834D01*
X862078Y453246D01*
X860666Y454190D01*
X859000Y454522D01*
D02*
G37*
G36*
X526000Y455854D02*
X524334Y455522D01*
X522921Y454578D01*
X521978Y453166D01*
X521646Y451500D01*
X521978Y449834D01*
X522921Y448421D01*
X524334Y447478D01*
X526000Y447146D01*
X527666Y447478D01*
X529078Y448421D01*
X530022Y449834D01*
X530353Y451500D01*
X530022Y453166D01*
X529078Y454578D01*
X527666Y455522D01*
X526000Y455854D01*
D02*
G37*
%LPD*%
D30*
X914000Y273000D02*
Y291000D01*
X508000Y303100D02*
X509950Y305050D01*
X508000Y303100D02*
X509000Y302100D01*
Y278000D02*
Y302100D01*
X339500Y255000D02*
Y565000D01*
X1174500D01*
Y255000D02*
Y565000D01*
X339500Y255000D02*
X1174500D01*
D31*
X864500Y306100D02*
X865550Y305050D01*
X576500Y409000D02*
X585500Y400000D01*
X576500Y409000D02*
Y443000D01*
X585500Y452000D01*
Y458000D01*
Y400000D02*
X735500D01*
X741500Y394000D01*
X585500Y393423D02*
Y400000D01*
Y393423D02*
X595500Y383423D01*
Y327000D02*
Y383423D01*
X1143500Y478000D02*
X1152500D01*
X1158500Y472000D01*
Y292000D02*
Y472000D01*
X1148500Y282000D02*
X1158500Y292000D01*
X1104500Y282000D02*
X1148500D01*
X1094150Y292350D02*
X1104500Y282000D01*
X1094150Y292350D02*
Y305050D01*
X741500Y394000D02*
X777500Y358000D01*
X1054500Y263000D02*
X1068750Y277250D01*
Y305050D01*
X864500Y306100D02*
X865500Y307100D01*
X777500Y272426D02*
X786926Y263000D01*
X777500Y272426D02*
Y358000D01*
X786926Y263000D02*
X1054500D01*
D34*
X884750Y548250D02*
D03*
X910150D02*
D03*
X999050D02*
D03*
X1024450D02*
D03*
X1049850D02*
D03*
X973650D02*
D03*
X948250D02*
D03*
X1100650D02*
D03*
X1075250D02*
D03*
X1094150Y305050D02*
D03*
X1068750D02*
D03*
X1043350D02*
D03*
X1017950D02*
D03*
X992550D02*
D03*
X1119550D02*
D03*
X1144950D02*
D03*
X890950D02*
D03*
X865550D02*
D03*
X840150D02*
D03*
X814750D02*
D03*
X789350D02*
D03*
X916350D02*
D03*
X941750D02*
D03*
X687750D02*
D03*
X662350D02*
D03*
X636950D02*
D03*
X611550D02*
D03*
X586150D02*
D03*
X713150D02*
D03*
X738550D02*
D03*
X484550D02*
D03*
X459150D02*
D03*
X433750D02*
D03*
X408350D02*
D03*
X382950D02*
D03*
X509950D02*
D03*
X535350D02*
D03*
D35*
X1126050Y548250D02*
D03*
X967150Y305050D02*
D03*
X763950D02*
D03*
X560750D02*
D03*
X357550D02*
D03*
D36*
X1084500Y422000D02*
D03*
X559500Y530000D02*
D03*
D37*
X369500Y525000D02*
D03*
X389500D02*
D03*
X409500D02*
D03*
X429500D02*
D03*
D38*
X1124500Y454000D02*
D03*
X1077500Y448000D02*
D03*
X1126300Y444000D02*
D03*
X1046500Y406000D02*
D03*
X1099500Y400000D02*
D03*
X1126300Y421800D02*
D03*
X1070500Y400000D02*
D03*
X1148500Y490000D02*
D03*
X1120500Y481000D02*
D03*
X1104500Y495000D02*
D03*
X1046500Y461000D02*
D03*
X1049500Y379000D02*
D03*
X980499Y414500D02*
D03*
X970499Y404000D02*
D03*
X910500Y336999D02*
D03*
X1005000Y449000D02*
D03*
X988500Y507500D02*
D03*
X685600Y332900D02*
D03*
X671500Y339000D02*
D03*
X838500Y513500D02*
D03*
X663500Y507000D02*
D03*
X565500Y339000D02*
D03*
X354500Y418000D02*
D03*
X350500Y379000D02*
D03*
X507500Y375000D02*
D03*
X555500Y430000D02*
D03*
X534500Y396000D02*
D03*
X534900Y350600D02*
D03*
X473500Y370000D02*
D03*
X489500Y398000D02*
D03*
X474500Y430000D02*
D03*
X439500Y410000D02*
D03*
X469500Y383000D02*
D03*
X422500Y392000D02*
D03*
X373500Y381000D02*
D03*
X422500Y350000D02*
D03*
X419500Y409000D02*
D03*
X422500Y460000D02*
D03*
X391500Y409000D02*
D03*
X916000Y525500D02*
D03*
X928500Y369500D02*
D03*
X857500Y404500D02*
D03*
X918620Y490500D02*
D03*
X954250Y500500D02*
D03*
X933500Y460500D02*
D03*
X946598Y471598D02*
D03*
X980499Y477499D02*
D03*
X916500Y359500D02*
D03*
X904500Y369500D02*
D03*
X876500Y387500D02*
D03*
X911000Y436800D02*
D03*
X933500Y414500D02*
D03*
X888500Y460500D02*
D03*
Y414500D02*
D03*
X859000Y437002D02*
D03*
X733500Y521000D02*
D03*
X745500Y373000D02*
D03*
X697000Y392500D02*
D03*
X782500Y392000D02*
D03*
X485500Y489000D02*
D03*
X735500Y473000D02*
D03*
X674500Y496000D02*
D03*
X687500D02*
D03*
X716500Y332000D02*
D03*
X671500Y350000D02*
D03*
X845500Y375500D02*
D03*
X855500Y347500D02*
D03*
X586312Y361812D02*
D03*
X621499Y362000D02*
D03*
X595500Y327000D02*
D03*
X585500Y400000D02*
D03*
Y458000D02*
D03*
X622124Y476000D02*
D03*
X586500D02*
D03*
X542500Y496800D02*
D03*
X621500Y419000D02*
D03*
X585500D02*
D03*
X686500Y414000D02*
D03*
X741500Y394000D02*
D03*
X1048490Y335000D02*
D03*
X1143500Y478000D02*
D03*
X1152500D02*
D03*
X789500Y343000D02*
D03*
X747500Y413000D02*
D03*
X783688Y367000D02*
D03*
X754500Y353000D02*
D03*
X651500Y393000D02*
D03*
X822700Y519700D02*
D03*
X1056498Y509999D02*
D03*
X449000Y428500D02*
D03*
X446500Y289000D02*
D03*
X516500Y370000D02*
D03*
X1005000Y395000D02*
D03*
X839500Y471500D02*
D03*
X968500Y337500D02*
D03*
X930500D02*
D03*
X887500Y342500D02*
D03*
X986500Y387000D02*
D03*
X883840Y534840D02*
D03*
X797525Y470474D02*
D03*
X700000Y332500D02*
D03*
X744700Y333799D02*
D03*
X732000Y332500D02*
D03*
X1029000Y449000D02*
D03*
X1005500Y471000D02*
D03*
X989500Y337000D02*
D03*
X715538Y375038D02*
D03*
X586500Y525000D02*
D03*
X755500Y527500D02*
D03*
X668500Y418000D02*
D03*
X526000Y451500D02*
D03*
X730000Y463500D02*
D03*
X1008500Y328500D02*
D03*
X949500Y337500D02*
D03*
X904000Y312500D02*
D03*
X914000Y291000D02*
D03*
X904000Y274000D02*
D03*
X914000Y273000D02*
D03*
X509000Y278000D02*
D03*
X517150Y397350D02*
D03*
X507500Y268500D02*
D03*
X522000Y268460D02*
D03*
X542000Y440500D02*
D03*
X774500Y464000D02*
D03*
X633500Y439000D02*
D03*
X641250Y506250D02*
D03*
X646999Y447000D02*
D03*
X763000Y489500D02*
D03*
X906000Y360165D02*
D03*
X1100000Y525500D02*
D03*
X934250Y500500D02*
D03*
X1074000Y534500D02*
D03*
X1098500Y533500D02*
D03*
X988500Y358500D02*
D03*
X980499Y393500D02*
D03*
X746500Y447500D02*
D03*
X839000Y452000D02*
D03*
X859000Y463334D02*
D03*
Y450168D02*
D03*
X668500Y444500D02*
D03*
X864776Y414197D02*
D03*
X858499Y423999D02*
D03*
X940500Y359500D02*
D03*
X964500D02*
D03*
X976500Y369500D02*
D03*
X951999Y369000D02*
D03*
X959998Y377000D02*
D03*
X970499Y383000D02*
D03*
Y466999D02*
D03*
X980499Y456499D02*
D03*
X1005000Y428000D02*
D03*
X980499Y435500D02*
D03*
X970499Y425000D02*
D03*
X986000Y449000D02*
D03*
X946002Y402002D02*
D03*
X970499Y445999D02*
D03*
X789500Y333500D02*
D03*
X705500Y372000D02*
D03*
X800500Y415500D02*
D03*
X801500Y357000D02*
D03*
X884500Y483500D02*
D03*
X903500Y484500D02*
D03*
X912500D02*
D03*
X853500Y483000D02*
D03*
X859000Y476500D02*
D03*
X857500Y546000D02*
D03*
X862500Y488500D02*
D03*
M02*
