G04*
G04 #@! TF.GenerationSoftware,Altium Limited,CircuitStudio,1.5.2 (30)*
G04*
G04 Layer_Color=128*
%FSLAX44Y44*%
%MOMM*%
G71*
G01*
G75*
%ADD30C,0.2540*%
%ADD76C,0.1270*%
D30*
X339500Y255000D02*
Y565000D01*
X1174500D01*
Y255000D02*
Y565000D01*
X339500Y255000D02*
X1174500D01*
D76*
X879750Y548250D02*
X889750D01*
X884750Y543250D02*
Y553250D01*
X905150Y548250D02*
X915150D01*
X910150Y543250D02*
Y553250D01*
X994050Y548250D02*
X1004050D01*
X999050Y543250D02*
Y553250D01*
X1019450Y548250D02*
X1029450D01*
X1024450Y543250D02*
Y553250D01*
X1044850Y548250D02*
X1054850D01*
X1049850Y543250D02*
Y553250D01*
X1121050Y548250D02*
X1131050D01*
X1126050Y543250D02*
Y553250D01*
X968650Y548250D02*
X978650D01*
X973650Y543250D02*
Y553250D01*
X943250Y548250D02*
X953250D01*
X948250Y543250D02*
Y553250D01*
X1095650Y548250D02*
X1105650D01*
X1100650Y543250D02*
Y553250D01*
X1070250Y548250D02*
X1080250D01*
X1075250Y543250D02*
Y553250D01*
X1069500Y422000D02*
X1099500D01*
X1084500Y407000D02*
Y437000D01*
X544500Y530000D02*
X574500D01*
X559500Y515000D02*
Y545000D01*
X1089150Y305050D02*
X1099150D01*
X1094150Y300050D02*
Y310050D01*
X1063750Y305050D02*
X1073750D01*
X1068750Y300050D02*
Y310050D01*
X1038350Y305050D02*
X1048350D01*
X1043350Y300050D02*
Y310050D01*
X1012950Y305050D02*
X1022950D01*
X1017950Y300050D02*
Y310050D01*
X987550Y305050D02*
X997550D01*
X992550Y300050D02*
Y310050D01*
X962150Y305050D02*
X972150D01*
X967150Y300050D02*
Y310050D01*
X1114550Y305050D02*
X1124550D01*
X1119550Y300050D02*
Y310050D01*
X1139950Y305050D02*
X1149950D01*
X1144950Y300050D02*
Y310050D01*
X885950Y305050D02*
X895950D01*
X890950Y300050D02*
Y310050D01*
X860550Y305050D02*
X870550D01*
X865550Y300050D02*
Y310050D01*
X835150Y305050D02*
X845150D01*
X840150Y300050D02*
Y310050D01*
X809750Y305050D02*
X819750D01*
X814750Y300050D02*
Y310050D01*
X784350Y305050D02*
X794350D01*
X789350Y300050D02*
Y310050D01*
X758950Y305050D02*
X768950D01*
X763950Y300050D02*
Y310050D01*
X911350Y305050D02*
X921350D01*
X916350Y300050D02*
Y310050D01*
X936750Y305050D02*
X946750D01*
X941750Y300050D02*
Y310050D01*
X682750Y305050D02*
X692750D01*
X687750Y300050D02*
Y310050D01*
X657350Y305050D02*
X667350D01*
X662350Y300050D02*
Y310050D01*
X631950Y305050D02*
X641950D01*
X636950Y300050D02*
Y310050D01*
X606550Y305050D02*
X616550D01*
X611550Y300050D02*
Y310050D01*
X581150Y305050D02*
X591150D01*
X586150Y300050D02*
Y310050D01*
X555750Y305050D02*
X565750D01*
X560750Y300050D02*
Y310050D01*
X708150Y305050D02*
X718150D01*
X713150Y300050D02*
Y310050D01*
X733550Y305050D02*
X743550D01*
X738550Y300050D02*
Y310050D01*
X479550Y305050D02*
X489550D01*
X484550Y300050D02*
Y310050D01*
X454150Y305050D02*
X464150D01*
X459150Y300050D02*
Y310050D01*
X428750Y305050D02*
X438750D01*
X433750Y300050D02*
Y310050D01*
X403350Y305050D02*
X413350D01*
X408350Y300050D02*
Y310050D01*
X377950Y305050D02*
X387950D01*
X382950Y300050D02*
Y310050D01*
X352550Y305050D02*
X362550D01*
X357550Y300050D02*
Y310050D01*
X504950Y305050D02*
X514950D01*
X509950Y300050D02*
Y310050D01*
X530350Y305050D02*
X540350D01*
X535350Y300050D02*
Y310050D01*
X365500Y525000D02*
X373500D01*
X369500Y521000D02*
Y529000D01*
X385500Y525000D02*
X393500D01*
X389500Y521000D02*
Y529000D01*
X405500Y525000D02*
X413500D01*
X409500Y521000D02*
Y529000D01*
X425500Y525000D02*
X433500D01*
X429500Y521000D02*
Y529000D01*
X1123000Y454000D02*
X1126000D01*
X1124500Y452500D02*
Y455500D01*
X1076000Y448000D02*
X1079000D01*
X1077500Y446500D02*
Y449500D01*
X1124800Y444000D02*
X1127800D01*
X1126300Y442500D02*
Y445500D01*
X1045000Y406000D02*
X1048000D01*
X1046500Y404500D02*
Y407500D01*
X1098000Y400000D02*
X1101000D01*
X1099500Y398500D02*
Y401500D01*
X1124800Y421800D02*
X1127800D01*
X1126300Y420300D02*
Y423300D01*
X1069000Y400000D02*
X1072000D01*
X1070500Y398500D02*
Y401500D01*
X1147000Y490000D02*
X1150000D01*
X1148500Y488500D02*
Y491500D01*
X1119000Y481000D02*
X1122000D01*
X1120500Y479500D02*
Y482500D01*
X1103000Y495000D02*
X1106000D01*
X1104500Y493500D02*
Y496500D01*
X1045000Y461000D02*
X1048000D01*
X1046500Y459500D02*
Y462500D01*
X1048000Y379000D02*
X1051000D01*
X1049500Y377500D02*
Y380500D01*
X978998Y414500D02*
X981999D01*
X980499Y413000D02*
Y416000D01*
X968998Y404000D02*
X971999D01*
X970499Y402500D02*
Y405500D01*
X909000Y336999D02*
X912000D01*
X910500Y335499D02*
Y338499D01*
X1003500Y449000D02*
X1006500D01*
X1005000Y447500D02*
Y450500D01*
X987000Y507500D02*
X990000D01*
X988500Y506000D02*
Y509000D01*
X684100Y332900D02*
X687100D01*
X685600Y331400D02*
Y334400D01*
X670000Y339000D02*
X673000D01*
X671500Y337500D02*
Y340500D01*
X837000Y513500D02*
X840000D01*
X838500Y512000D02*
Y515000D01*
X662000Y507000D02*
X665000D01*
X663500Y505500D02*
Y508500D01*
X564000Y339000D02*
X567000D01*
X565500Y337500D02*
Y340500D01*
X353000Y418000D02*
X356000D01*
X354500Y416500D02*
Y419500D01*
X349000Y379000D02*
X352000D01*
X350500Y377500D02*
Y380500D01*
X506000Y375000D02*
X509000D01*
X507500Y373500D02*
Y376500D01*
X554000Y430000D02*
X557000D01*
X555500Y428500D02*
Y431500D01*
X533000Y396000D02*
X536000D01*
X534500Y394500D02*
Y397500D01*
X533400Y350600D02*
X536400D01*
X534900Y349100D02*
Y352100D01*
X472000Y370000D02*
X475000D01*
X473500Y368500D02*
Y371500D01*
X488000Y398000D02*
X491000D01*
X489500Y396500D02*
Y399500D01*
X473000Y430000D02*
X476000D01*
X474500Y428500D02*
Y431500D01*
X438000Y410000D02*
X441000D01*
X439500Y408500D02*
Y411500D01*
X468000Y383000D02*
X471000D01*
X469500Y381500D02*
Y384500D01*
X421000Y392000D02*
X424000D01*
X422500Y390500D02*
Y393500D01*
X372000Y381000D02*
X375000D01*
X373500Y379500D02*
Y382500D01*
X421000Y350000D02*
X424000D01*
X422500Y348500D02*
Y351500D01*
X418000Y409000D02*
X421000D01*
X419500Y407500D02*
Y410500D01*
X421000Y460000D02*
X424000D01*
X422500Y458500D02*
Y461500D01*
X390000Y409000D02*
X393000D01*
X391500Y407500D02*
Y410500D01*
X914500Y525500D02*
X917500D01*
X916000Y524000D02*
Y527000D01*
X927000Y369500D02*
X930000D01*
X928500Y368000D02*
Y371000D01*
X856000Y404500D02*
X859000D01*
X857500Y403000D02*
Y406000D01*
X917120Y490500D02*
X920120D01*
X918620Y489000D02*
Y492000D01*
X952750Y500500D02*
X955750D01*
X954250Y499000D02*
Y502000D01*
X932000Y460500D02*
X935000D01*
X933500Y459000D02*
Y462000D01*
X945098Y471598D02*
X948098D01*
X946598Y470098D02*
Y473098D01*
X978998Y477499D02*
X981999D01*
X980499Y475999D02*
Y478999D01*
X915000Y359500D02*
X918000D01*
X916500Y358000D02*
Y361000D01*
X903000Y369500D02*
X906000D01*
X904500Y368000D02*
Y371000D01*
X875000Y387500D02*
X878000D01*
X876500Y386000D02*
Y389000D01*
X909500Y436800D02*
X912500D01*
X911000Y435300D02*
Y438300D01*
X932000Y414500D02*
X935000D01*
X933500Y413000D02*
Y416000D01*
X887000Y460500D02*
X890000D01*
X888500Y459000D02*
Y462000D01*
X887000Y414500D02*
X890000D01*
X888500Y413000D02*
Y416000D01*
X857500Y437002D02*
X860500D01*
X859000Y435502D02*
Y438502D01*
X732000Y521000D02*
X735000D01*
X733500Y519500D02*
Y522500D01*
X744000Y373000D02*
X747000D01*
X745500Y371500D02*
Y374500D01*
X695500Y392500D02*
X698500D01*
X697000Y391000D02*
Y394000D01*
X781000Y392000D02*
X784000D01*
X782500Y390500D02*
Y393500D01*
X484000Y489000D02*
X487000D01*
X485500Y487500D02*
Y490500D01*
X734000Y473000D02*
X737000D01*
X735500Y471500D02*
Y474500D01*
X673000Y496000D02*
X676000D01*
X674500Y494500D02*
Y497500D01*
X686000Y496000D02*
X689000D01*
X687500Y494500D02*
Y497500D01*
X715000Y332000D02*
X718000D01*
X716500Y330500D02*
Y333500D01*
X670000Y350000D02*
X673000D01*
X671500Y348500D02*
Y351500D01*
X844000Y375500D02*
X847000D01*
X845500Y374000D02*
Y377000D01*
X854000Y347500D02*
X857000D01*
X855500Y346000D02*
Y349000D01*
X584812Y361812D02*
X587812D01*
X586312Y360312D02*
Y363312D01*
X619999Y362000D02*
X622999D01*
X621499Y360500D02*
Y363500D01*
X594000Y327000D02*
X597000D01*
X595500Y325500D02*
Y328500D01*
X584000Y400000D02*
X587000D01*
X585500Y398500D02*
Y401500D01*
X584000Y458000D02*
X587000D01*
X585500Y456500D02*
Y459500D01*
X620624Y476000D02*
X623624D01*
X622124Y474500D02*
Y477500D01*
X585000Y476000D02*
X588000D01*
X586500Y474500D02*
Y477500D01*
X541000Y496800D02*
X544000D01*
X542500Y495300D02*
Y498300D01*
X620000Y419000D02*
X623000D01*
X621500Y417500D02*
Y420500D01*
X584000Y419000D02*
X587000D01*
X585500Y417500D02*
Y420500D01*
X685000Y414000D02*
X688000D01*
X686500Y412500D02*
Y415500D01*
X740000Y394000D02*
X743000D01*
X741500Y392500D02*
Y395500D01*
X1046990Y335000D02*
X1049990D01*
X1048490Y333500D02*
Y336500D01*
X1142000Y478000D02*
X1145000D01*
X1143500Y476500D02*
Y479500D01*
X1151000Y478000D02*
X1154000D01*
X1152500Y476500D02*
Y479500D01*
X788000Y343000D02*
X791000D01*
X789500Y341500D02*
Y344500D01*
X746000Y413000D02*
X749000D01*
X747500Y411500D02*
Y414500D01*
X782188Y367000D02*
X785188D01*
X783688Y365500D02*
Y368500D01*
X753000Y353000D02*
X756000D01*
X754500Y351500D02*
Y354500D01*
X650000Y393000D02*
X653000D01*
X651500Y391500D02*
Y394500D01*
X821200Y519700D02*
X824200D01*
X822700Y518200D02*
Y521200D01*
X1054998Y509999D02*
X1057998D01*
X1056498Y508499D02*
Y511499D01*
X447500Y428500D02*
X450500D01*
X449000Y427000D02*
Y430000D01*
X445000Y289000D02*
X448000D01*
X446500Y287500D02*
Y290500D01*
X515000Y370000D02*
X518000D01*
X516500Y368500D02*
Y371500D01*
X1003500Y395000D02*
X1006500D01*
X1005000Y393500D02*
Y396500D01*
X838000Y471500D02*
X841000D01*
X839500Y470000D02*
Y473000D01*
X967000Y337500D02*
X970000D01*
X968500Y336000D02*
Y339000D01*
X929000Y337500D02*
X932000D01*
X930500Y336000D02*
Y339000D01*
X886000Y342500D02*
X889000D01*
X887500Y341000D02*
Y344000D01*
X985000Y387000D02*
X988000D01*
X986500Y385500D02*
Y388500D01*
X882340Y534840D02*
X885340D01*
X883840Y533340D02*
Y536340D01*
X796025Y470474D02*
X799025D01*
X797525Y468974D02*
Y471974D01*
X698500Y332500D02*
X701500D01*
X700000Y331000D02*
Y334000D01*
X743200Y333799D02*
X746200D01*
X744700Y332299D02*
Y335299D01*
X730500Y332500D02*
X733500D01*
X732000Y331000D02*
Y334000D01*
X1027500Y449000D02*
X1030500D01*
X1029000Y447500D02*
Y450500D01*
X1004000Y471000D02*
X1007000D01*
X1005500Y469500D02*
Y472500D01*
X988000Y337000D02*
X991000D01*
X989500Y335500D02*
Y338500D01*
X714038Y375038D02*
X717038D01*
X715538Y373538D02*
Y376538D01*
X585000Y525000D02*
X588000D01*
X586500Y523500D02*
Y526500D01*
X754000Y527500D02*
X757000D01*
X755500Y526000D02*
Y529000D01*
X667000Y418000D02*
X670000D01*
X668500Y416500D02*
Y419500D01*
X524500Y451500D02*
X527500D01*
X526000Y450000D02*
Y453000D01*
X728500Y463500D02*
X731500D01*
X730000Y462000D02*
Y465000D01*
X1007000Y328500D02*
X1010000D01*
X1008500Y327000D02*
Y330000D01*
X948000Y337500D02*
X951000D01*
X949500Y336000D02*
Y339000D01*
X902500Y312500D02*
X905500D01*
X904000Y311000D02*
Y314000D01*
X912500Y291000D02*
X915500D01*
X914000Y289500D02*
Y292500D01*
X902500Y274000D02*
X905500D01*
X904000Y272500D02*
Y275500D01*
X912500Y273000D02*
X915500D01*
X914000Y271500D02*
Y274500D01*
X507500Y278000D02*
X510500D01*
X509000Y276500D02*
Y279500D01*
X515650Y397350D02*
X518650D01*
X517150Y395850D02*
Y398850D01*
X506000Y268500D02*
X509000D01*
X507500Y267000D02*
Y270000D01*
X520500Y268460D02*
X523500D01*
X522000Y266960D02*
Y269960D01*
X540500Y440500D02*
X543500D01*
X542000Y439000D02*
Y442000D01*
X773000Y464000D02*
X776000D01*
X774500Y462500D02*
Y465500D01*
X632000Y439000D02*
X635000D01*
X633500Y437500D02*
Y440500D01*
X639750Y506250D02*
X642750D01*
X641250Y504750D02*
Y507750D01*
X645499Y447000D02*
X648499D01*
X646999Y445499D02*
Y448499D01*
X761500Y489500D02*
X764500D01*
X763000Y488000D02*
Y491000D01*
X904500Y360165D02*
X907500D01*
X906000Y358665D02*
Y361665D01*
X1098500Y525500D02*
X1101500D01*
X1100000Y524000D02*
Y527000D01*
X932750Y500500D02*
X935750D01*
X934250Y499000D02*
Y502000D01*
X1072500Y534500D02*
X1075500D01*
X1074000Y533000D02*
Y536000D01*
X1097000Y533500D02*
X1100000D01*
X1098500Y532000D02*
Y535000D01*
X987000Y358500D02*
X990000D01*
X988500Y357000D02*
Y360000D01*
X978998Y393500D02*
X981999D01*
X980499Y392000D02*
Y395000D01*
X745000Y447500D02*
X748000D01*
X746500Y446000D02*
Y449000D01*
X837500Y452000D02*
X840500D01*
X839000Y450500D02*
Y453500D01*
X857500Y463334D02*
X860500D01*
X859000Y461834D02*
Y464834D01*
X857500Y450168D02*
X860500D01*
X859000Y448668D02*
Y451668D01*
X667000Y444500D02*
X670000D01*
X668500Y443000D02*
Y446000D01*
X863276Y414197D02*
X866276D01*
X864776Y412697D02*
Y415697D01*
X856999Y423999D02*
X859999D01*
X858499Y422500D02*
Y425499D01*
X939000Y359500D02*
X942000D01*
X940500Y358000D02*
Y361000D01*
X963000Y359500D02*
X966000D01*
X964500Y358000D02*
Y361000D01*
X975000Y369500D02*
X978000D01*
X976500Y368000D02*
Y371000D01*
X950499Y369000D02*
X953499D01*
X951999Y367500D02*
Y370500D01*
X958499Y377000D02*
X961498D01*
X959998Y375500D02*
Y378500D01*
X968998Y383000D02*
X971999D01*
X970499Y381500D02*
Y384500D01*
X968998Y466999D02*
X971999D01*
X970499Y465499D02*
Y468499D01*
X978998Y456499D02*
X981999D01*
X980499Y454999D02*
Y457999D01*
X1003500Y428000D02*
X1006500D01*
X1005000Y426500D02*
Y429500D01*
X978998Y435500D02*
X981999D01*
X980499Y434000D02*
Y437000D01*
X968998Y425000D02*
X971999D01*
X970499Y423500D02*
Y426500D01*
X984500Y449000D02*
X987500D01*
X986000Y447500D02*
Y450500D01*
X944502Y402002D02*
X947502D01*
X946002Y400502D02*
Y403502D01*
X968998Y445999D02*
X971999D01*
X970499Y444500D02*
Y447500D01*
X788000Y333500D02*
X791000D01*
X789500Y332000D02*
Y335000D01*
X704000Y372000D02*
X707000D01*
X705500Y370500D02*
Y373500D01*
X799000Y415500D02*
X802000D01*
X800500Y414000D02*
Y417000D01*
X800000Y357000D02*
X803000D01*
X801500Y355500D02*
Y358500D01*
X883000Y483500D02*
X886000D01*
X884500Y482000D02*
Y485000D01*
X902000Y484500D02*
X905000D01*
X903500Y483000D02*
Y486000D01*
X911000Y484500D02*
X914000D01*
X912500Y483000D02*
Y486000D01*
X852000Y483000D02*
X855000D01*
X853500Y481500D02*
Y484500D01*
X857500Y476500D02*
X860500D01*
X859000Y475000D02*
Y478000D01*
X856000Y546000D02*
X859000D01*
X857500Y544500D02*
Y547500D01*
X861000Y488500D02*
X864000D01*
X862500Y487000D02*
Y490000D01*
M02*
