G04*
G04 #@! TF.GenerationSoftware,Altium Limited,CircuitStudio,1.5.2 (30)*
G04*
G04 Layer_Color=15065295*
%FSLAX44Y44*%
%MOMM*%
G71*
G01*
G75*
%ADD30C,0.2540*%
%ADD32C,0.2500*%
%ADD39C,0.4000*%
%ADD40C,0.2030*%
%ADD41C,0.2000*%
%ADD42C,0.2032*%
%ADD43C,0.1000*%
%ADD44C,0.1524*%
%ADD45C,0.3810*%
%ADD46C,0.6350*%
%ADD47C,0.1778*%
%ADD48R,2.6000X0.7778*%
D30*
X584500Y540000D02*
Y555235D01*
X589578Y550157D01*
X594656Y555235D01*
Y540000D01*
X607352D02*
X602274D01*
X599735Y542539D01*
Y547617D01*
X602274Y550157D01*
X607352D01*
X609892Y547617D01*
Y545078D01*
X599735D01*
X614970Y540000D02*
X620048D01*
X617509D01*
Y555235D01*
X614970D01*
X630205Y550157D02*
X635283D01*
X637822Y547617D01*
Y540000D01*
X630205D01*
X627666Y542539D01*
X630205Y545078D01*
X637822D01*
X642901Y540000D02*
Y550157D01*
X650518D01*
X653058Y547617D01*
Y540000D01*
X658136D02*
X665753D01*
X668293Y542539D01*
X665753Y545078D01*
X660675D01*
X658136Y547617D01*
X660675Y550157D01*
X668293D01*
X675910Y540000D02*
X680989D01*
X683528Y542539D01*
Y547617D01*
X680989Y550157D01*
X675910D01*
X673371Y547617D01*
Y542539D01*
X675910Y540000D01*
X688606D02*
Y550157D01*
X696224D01*
X698763Y547617D01*
Y540000D01*
X719076Y555235D02*
X729233D01*
X724155D01*
Y540000D01*
X741929D02*
X736851D01*
X734311Y542539D01*
Y547617D01*
X736851Y550157D01*
X741929D01*
X744468Y547617D01*
Y545078D01*
X734311D01*
X759703Y550157D02*
X752086D01*
X749546Y547617D01*
Y542539D01*
X752086Y540000D01*
X759703D01*
X764781Y555235D02*
Y540000D01*
Y547617D01*
X767321Y550157D01*
X772399D01*
X774938Y547617D01*
Y540000D01*
X389656Y497696D02*
X387117Y500235D01*
X382039D01*
X379500Y497696D01*
Y495157D01*
X382039Y492617D01*
X387117D01*
X389656Y490078D01*
Y487539D01*
X387117Y485000D01*
X382039D01*
X379500Y487539D01*
X404892Y497696D02*
X402352Y500235D01*
X397274D01*
X394735Y497696D01*
Y487539D01*
X397274Y485000D01*
X402352D01*
X404892Y487539D01*
X409970Y500235D02*
X415048D01*
X412509D01*
Y485000D01*
X409970D01*
X415048D01*
X339500Y255000D02*
Y565000D01*
X1174500D01*
Y255000D02*
Y565000D01*
X339500Y255000D02*
X1174500D01*
D32*
X841209Y365328D02*
G03*
X841209Y365328I-2236J0D01*
G01*
X722300Y521000D02*
G03*
X722300Y521000I-1250J0D01*
G01*
X1126250Y340500D02*
G03*
X1126250Y340500I-1250J0D01*
G01*
X1085000Y388000D02*
G03*
X1085000Y388000I-1250J0D01*
G01*
D39*
X712500Y498000D02*
G03*
X712500Y498000I-2000J0D01*
G01*
X350000Y553000D02*
X448999D01*
X349500Y552500D02*
X350000Y553000D01*
X349500Y508500D02*
Y552500D01*
X448999Y553000D02*
X449500Y552500D01*
Y508500D02*
Y552500D01*
X350000Y508000D02*
X387000D01*
X349500Y508500D02*
X350000Y508000D01*
X412000D02*
X449000D01*
X449500Y508500D01*
D40*
X868671Y389370D02*
X898370Y359672D01*
X874328Y335630D02*
X898370Y359672D01*
X844630Y365328D02*
X874328Y335630D01*
X844630Y365328D02*
X868671Y389370D01*
X866000Y481800D02*
X946000D01*
X866000Y391800D02*
Y481800D01*
Y391800D02*
X956000D01*
Y471800D01*
X946000Y481800D02*
X956000Y471800D01*
D41*
X731640Y479966D02*
X751960D01*
X731640Y516034D02*
X751960D01*
X731640Y479966D02*
Y516034D01*
X751960Y479966D02*
Y516034D01*
X668500Y506000D02*
X718500D01*
X668500Y488000D02*
X718500D01*
Y506000D01*
X668500Y488000D02*
Y506000D01*
X1112250Y499550D02*
Y519550D01*
X1076250D02*
X1112250D01*
X1076250Y499550D02*
Y519550D01*
Y499550D02*
X1112250D01*
X464500Y390000D02*
X484500D01*
Y426000D01*
X464500D02*
X484500D01*
X464500Y390000D02*
Y426000D01*
X360340Y390966D02*
X380660D01*
X360340Y427034D02*
X380660D01*
X360340Y390966D02*
Y427034D01*
X380660Y390966D02*
Y427034D01*
X412500Y352000D02*
X432500D01*
Y388000D01*
X412500D02*
X432500D01*
X412500Y352000D02*
Y388000D01*
X911374Y510040D02*
Y530360D01*
X875306Y510040D02*
Y530360D01*
Y510040D02*
X911374D01*
X875306Y530360D02*
X911374D01*
X765040Y415066D02*
X785360D01*
X765040Y451134D02*
X785360D01*
X765040Y415066D02*
Y451134D01*
X785360Y415066D02*
Y451134D01*
X694100Y434100D02*
Y454100D01*
Y434100D02*
X730100D01*
Y454100D01*
X694100D02*
X730100D01*
X751100Y374000D02*
X771100D01*
Y410000D01*
X751100D02*
X771100D01*
X751100Y374000D02*
Y410000D01*
X694190Y411330D02*
Y431330D01*
Y411330D02*
X730190D01*
Y431330D01*
X694190D02*
X730190D01*
X524900Y390750D02*
X544900D01*
X524900Y354750D02*
Y390750D01*
Y354750D02*
X544900D01*
Y390750D01*
X1086840Y391034D02*
X1107160D01*
X1086840Y354966D02*
X1107160D01*
Y391034D01*
X1086840Y354966D02*
Y391034D01*
X1025000Y321800D02*
X1045000D01*
Y357800D01*
X1025000D02*
X1045000D01*
X1025000Y321800D02*
Y357800D01*
X1025000Y394000D02*
X1045000D01*
X1025000Y358000D02*
Y394000D01*
Y358000D02*
X1045000D01*
Y394000D01*
X1038130Y499550D02*
Y519550D01*
Y499550D02*
X1074130D01*
Y519550D01*
X1038130D02*
X1074130D01*
X1083500Y438000D02*
Y458000D01*
Y438000D02*
X1119500D01*
Y458000D01*
X1083500D02*
X1119500D01*
X911374Y488810D02*
Y509130D01*
X875306Y488810D02*
Y509130D01*
Y488810D02*
X911374D01*
X875306Y509130D02*
X911374D01*
X965466Y482340D02*
Y502660D01*
X1001534Y482340D02*
Y502660D01*
X965466D02*
X1001534D01*
X965466Y482340D02*
X1001534D01*
X831000Y426584D02*
X851320D01*
X831000Y390516D02*
X851320D01*
Y426584D01*
X831000Y390516D02*
Y426584D01*
X808500Y390584D02*
X828500D01*
Y426584D01*
X808500D02*
X828500D01*
X808500Y390584D02*
Y426584D01*
X808500Y470300D02*
X828500D01*
X808500Y434300D02*
Y470300D01*
Y434300D02*
X828500D01*
Y470300D01*
X979600Y319100D02*
X999600D01*
Y355100D01*
X979600D02*
X999600D01*
X979600Y319100D02*
Y355100D01*
X1022800Y418100D02*
Y438100D01*
X986800D02*
X1022800D01*
X986800Y418100D02*
Y438100D01*
Y418100D02*
X1022800D01*
X1112000Y370000D02*
Y383360D01*
Y370000D02*
X1112000Y370000D01*
X1138000D02*
Y383360D01*
X1112000Y370000D02*
X1138000D01*
X1081000Y372500D02*
Y379500D01*
X1050000Y372500D02*
Y379500D01*
X1081000D01*
X1050000Y372500D02*
X1081000D01*
X1130200Y411800D02*
Y431800D01*
Y411800D02*
X1166200D01*
Y431800D01*
X1130200D02*
X1166200D01*
X1114500Y500000D02*
Y520000D01*
Y500000D02*
X1150500D01*
Y520000D01*
X1114500D02*
X1150500D01*
X1023400Y460700D02*
Y480700D01*
X987400D02*
X1023400D01*
X987400Y460700D02*
Y480700D01*
Y460700D02*
X1023400D01*
X852640Y492166D02*
X872960D01*
X852640Y528234D02*
X872960D01*
X852640Y492166D02*
Y528234D01*
X872960Y492166D02*
Y528234D01*
X665240Y410034D02*
X685560D01*
X665240Y373966D02*
X685560D01*
Y410034D01*
X665240Y373966D02*
Y410034D01*
X404466Y448160D02*
X440534D01*
X404466Y427840D02*
X440534D01*
X404466D02*
Y448160D01*
X440534Y427840D02*
Y448160D01*
X1130000Y434000D02*
Y454000D01*
Y434000D02*
X1166000D01*
Y454000D01*
X1130000D02*
X1166000D01*
X828500Y475660D02*
Y511660D01*
X808500Y475660D02*
X828500D01*
X808500D02*
Y511660D01*
X828500D01*
D42*
X1100724Y488626D02*
Y494626D01*
X1092612D02*
X1100724D01*
Y466402D02*
Y472498D01*
X1092612Y466402D02*
X1100724D01*
X724245Y379406D02*
X732835D01*
X724245Y407854D02*
X732835D01*
X736645Y390945D02*
Y396315D01*
X418205Y394776D02*
X426795D01*
X418205Y423224D02*
X426795D01*
X430605Y406315D02*
Y411685D01*
X465976Y355924D02*
Y361924D01*
Y355924D02*
X474088D01*
X465976Y378052D02*
Y384148D01*
X474088D01*
X378024Y378076D02*
Y384076D01*
X369912D02*
X378024D01*
Y355852D02*
Y361948D01*
X369912Y355852D02*
X378024D01*
X571674Y378924D02*
X577674D01*
X571674Y370812D02*
Y378924D01*
X593802D02*
X599898D01*
Y370812D02*
Y378924D01*
X570924Y435924D02*
X576924D01*
X570924Y427812D02*
Y435924D01*
X593052D02*
X599148D01*
Y427812D02*
Y435924D01*
X607674Y378924D02*
X613674D01*
X607674Y370812D02*
Y378924D01*
X629802D02*
X635898D01*
Y370812D02*
Y378924D01*
X493426Y368205D02*
Y376795D01*
X521874Y368205D02*
Y376795D01*
X504965Y364395D02*
X510335D01*
X571674Y493424D02*
X577674D01*
X571674Y485312D02*
Y493424D01*
X593802D02*
X599898D01*
Y485312D02*
Y493424D01*
X607674D02*
X613674D01*
X607674Y485312D02*
Y493424D01*
X629802D02*
X635898D01*
Y485312D02*
Y493424D01*
X779624Y360476D02*
Y366476D01*
X771512D02*
X779624D01*
Y338252D02*
Y344348D01*
X771512Y338252D02*
X779624D01*
X1162224Y472705D02*
Y481295D01*
X1133776Y472705D02*
Y481295D01*
X1145315Y485105D02*
X1150685D01*
X457971Y488069D02*
X476513Y520327D01*
X457971Y488069D02*
X531885D01*
X506231Y502802D02*
X531885Y488069D01*
X499881Y500008D02*
X506231Y502802D01*
X497849Y497721D02*
X499881Y500008D01*
X497595Y494927D02*
X497849Y497721D01*
X496071Y493657D02*
X497595Y494927D01*
X493785Y493912D02*
X496071Y493657D01*
X492769Y500261D02*
X493785Y493912D01*
X492769Y500261D02*
X493785Y504580D01*
X496071Y507627D01*
X486673Y513215D02*
X496071Y507627D01*
X484895Y508135D02*
X486673Y513215D01*
X484895Y508135D02*
X486419Y504833D01*
X486673Y501531D01*
X487943Y496198D01*
X486673Y494420D02*
X487943Y496198D01*
X485403Y493912D02*
X486673Y494420D01*
X483879Y494674D02*
X485403Y493912D01*
X480069Y510168D02*
X483879Y494674D01*
X480069Y510168D02*
X480577Y512453D01*
X482609Y516264D01*
X476513Y520327D02*
X482609Y516264D01*
X521979Y520327D02*
X538489Y492388D01*
X513343Y506866D02*
X538489Y492388D01*
X513343Y506866D02*
X516137Y509660D01*
X516645Y513215D01*
X517153Y516009D01*
X519439Y519311D01*
X521979Y520327D01*
X479561Y525662D02*
X499500Y560000D01*
X479561Y525662D02*
X486165Y521852D01*
X488197Y523884D01*
X490483Y525662D01*
X506739Y525915D01*
X514105Y527186D01*
X517407Y528964D01*
X499500Y560000D02*
X517407Y528964D01*
X606924Y435924D02*
X612924D01*
X606924Y427812D02*
Y435924D01*
X629052D02*
X635148D01*
Y427812D02*
Y435924D01*
X802097Y493162D02*
Y501274D01*
X796002D02*
X802097D01*
X773874Y493162D02*
Y501274D01*
X779874D01*
D43*
X1057500Y465500D02*
Y471500D01*
Y465500D02*
X1075500D01*
Y471500D01*
X1057500Y489500D02*
Y495500D01*
X1075500D01*
Y489500D02*
Y495500D01*
X1130000Y489500D02*
Y495500D01*
X1112000D02*
X1130000D01*
X1112000Y489500D02*
Y495500D01*
X1130000Y465500D02*
Y471500D01*
X1112000Y465500D02*
X1130000D01*
X1112000D02*
Y471500D01*
X1055950Y489550D02*
Y495550D01*
X1037950D02*
X1055950D01*
X1037950Y489550D02*
Y495550D01*
X1055950Y465550D02*
Y471550D01*
X1037950Y465550D02*
X1055950D01*
X1037950D02*
Y471550D01*
X690700Y444700D02*
Y450700D01*
X672700D02*
X690700D01*
X672700Y444700D02*
Y450700D01*
X690700Y420700D02*
Y426700D01*
X672700Y420700D02*
X690700D01*
X672700D02*
Y426700D01*
X958400Y346100D02*
Y352100D01*
X940400D02*
X958400D01*
X940400Y346100D02*
Y352100D01*
X958400Y322100D02*
Y328100D01*
X940400Y322100D02*
X958400D01*
X940400D02*
Y328100D01*
X848500Y461000D02*
Y467000D01*
X830500D02*
X848500D01*
X830500Y461000D02*
Y467000D01*
X848500Y437000D02*
Y443000D01*
X830500Y437000D02*
X848500D01*
X830500D02*
Y443000D01*
X732190Y452330D02*
X738190D01*
X732190Y434330D02*
Y452330D01*
Y434330D02*
X738190D01*
X756190Y452330D02*
X762190D01*
Y434330D02*
Y452330D01*
X756190Y434330D02*
X762190D01*
X756190Y412330D02*
X762190D01*
Y430330D01*
X756190D02*
X762190D01*
X732190Y412330D02*
X738190D01*
X732190D02*
Y430330D01*
X738190D01*
X431500Y451000D02*
X437500D01*
Y469000D01*
X431500D02*
X437500D01*
X407500Y451000D02*
X413500D01*
X407500D02*
Y469000D01*
X413500D01*
X1055000Y417000D02*
X1061000D01*
Y435000D01*
X1055000D02*
X1061000D01*
X1031000Y417000D02*
X1037000D01*
X1031000D02*
Y435000D01*
X1037000D01*
X1031000Y415000D02*
X1037000D01*
X1031000Y397000D02*
Y415000D01*
Y397000D02*
X1037000D01*
X1055000Y415000D02*
X1061000D01*
Y397000D02*
Y415000D01*
X1055000Y397000D02*
X1061000D01*
X570750Y348400D02*
X576750D01*
X570750Y330400D02*
Y348400D01*
Y330400D02*
X576750D01*
X594750Y348400D02*
X600750D01*
Y330400D02*
Y348400D01*
X594750Y330400D02*
X600750D01*
X570000Y409400D02*
X576000D01*
X570000Y391400D02*
Y409400D01*
Y391400D02*
X576000D01*
X594000Y409400D02*
X600000D01*
Y391400D02*
Y409400D01*
X594000Y391400D02*
X600000D01*
X630750Y330400D02*
X636750D01*
Y348400D01*
X630750D02*
X636750D01*
X606750Y330400D02*
X612750D01*
X606750D02*
Y348400D01*
X612750D01*
X630000Y391400D02*
X636000D01*
Y409400D01*
X630000D02*
X636000D01*
X606000Y391400D02*
X612000D01*
X606000D02*
Y409400D01*
X612000D01*
X564750Y381400D02*
Y387400D01*
X546750D02*
X564750D01*
X546750Y381400D02*
Y387400D01*
X564750Y357400D02*
Y363400D01*
X546750Y357400D02*
X564750D01*
X546750D02*
Y363400D01*
X564750Y438250D02*
Y444250D01*
X546750D02*
X564750D01*
X546750Y438250D02*
Y444250D01*
X564750Y414250D02*
Y420250D01*
X546750Y414250D02*
X564750D01*
X546750D02*
Y420250D01*
X660750Y381400D02*
Y387400D01*
X642750D02*
X660750D01*
X642750Y381400D02*
Y387400D01*
X660750Y357400D02*
Y363400D01*
X642750Y357400D02*
X660750D01*
X642750D02*
Y363400D01*
X660000Y438250D02*
Y444250D01*
X642000D02*
X660000D01*
X642000Y438250D02*
Y444250D01*
X660000Y414250D02*
Y420250D01*
X642000Y414250D02*
X660000D01*
X642000D02*
Y420250D01*
X959600Y322100D02*
Y328100D01*
Y322100D02*
X977600D01*
Y328100D01*
X959600Y346100D02*
Y352100D01*
X977600D01*
Y346100D02*
Y352100D01*
X943100Y509400D02*
Y515400D01*
X925100D02*
X943100D01*
X925100Y509400D02*
Y515400D01*
X943100Y485400D02*
Y491400D01*
X925100Y485400D02*
X943100D01*
X925100D02*
Y491400D01*
X1013800Y397800D02*
X1019800D01*
Y415800D01*
X1013800D02*
X1019800D01*
X989800Y397800D02*
X995800D01*
X989800D02*
Y415800D01*
X995800D01*
X963100Y509400D02*
Y515400D01*
X945100D02*
X963100D01*
X945100Y509400D02*
Y515400D01*
X963100Y485400D02*
Y491400D01*
X945100Y485400D02*
X963100D01*
X945100D02*
Y491400D01*
X570750Y466900D02*
X576750D01*
X570750Y448900D02*
Y466900D01*
Y448900D02*
X576750D01*
X594750Y466900D02*
X600750D01*
Y448900D02*
Y466900D01*
X594750Y448900D02*
X600750D01*
X630750D02*
X636750D01*
Y466900D01*
X630750D02*
X636750D01*
X606750Y448900D02*
X612750D01*
X606750D02*
Y466900D01*
X612750D01*
X564750Y495900D02*
Y501900D01*
X546750D02*
X564750D01*
X546750Y495900D02*
Y501900D01*
X564750Y471900D02*
Y477900D01*
X546750Y471900D02*
X564750D01*
X546750D02*
Y477900D01*
X660750Y495900D02*
Y501900D01*
X642750D02*
X660750D01*
X642750Y495900D02*
Y501900D01*
X660750Y471900D02*
Y477900D01*
X642750Y471900D02*
X660750D01*
X642750D02*
Y477900D01*
X1014400Y440400D02*
X1020400D01*
Y458400D01*
X1014400D02*
X1020400D01*
X990400Y440400D02*
X996400D01*
X990400D02*
Y458400D01*
X996400D01*
X735700Y337798D02*
Y343798D01*
Y337798D02*
X753700D01*
Y343798D01*
X735700Y361798D02*
Y367798D01*
X753700D01*
Y361798D02*
Y367798D01*
X733900Y361800D02*
Y367800D01*
X715900D02*
X733900D01*
X715900Y361800D02*
Y367800D01*
X733900Y337800D02*
Y343800D01*
X715900Y337800D02*
X733900D01*
X715900D02*
Y343800D01*
X688000Y377000D02*
Y383000D01*
Y377000D02*
X706000D01*
Y383000D01*
X688000Y401000D02*
Y407000D01*
X706000D01*
Y401000D02*
Y407000D01*
X676600Y338000D02*
Y344000D01*
Y338000D02*
X694600D01*
Y344000D01*
X676600Y362000D02*
Y368000D01*
X694600D01*
Y362000D02*
Y368000D01*
X695800Y337800D02*
Y343800D01*
Y337800D02*
X713800D01*
Y343800D01*
X695800Y361800D02*
Y367800D01*
X713800D01*
Y361800D02*
Y367800D01*
X791800Y401000D02*
Y407000D01*
X773800D02*
X791800D01*
X773800Y401000D02*
Y407000D01*
X791800Y377000D02*
Y383000D01*
X773800Y377000D02*
X791800D01*
X773800D02*
Y383000D01*
X462500Y418000D02*
Y424000D01*
X444500D02*
X462500D01*
X444500Y418000D02*
Y424000D01*
X462500Y394000D02*
Y400000D01*
X444500Y394000D02*
X462500D01*
X444500D02*
Y400000D01*
X382500Y394000D02*
Y400000D01*
Y394000D02*
X400500D01*
Y400000D01*
X382500Y418000D02*
Y424000D01*
X400500D01*
Y418000D02*
Y424000D01*
X990000Y396000D02*
X996000D01*
X990000Y378000D02*
Y396000D01*
Y378000D02*
X996000D01*
X1014000Y396000D02*
X1020000D01*
Y378000D02*
Y396000D01*
X1014000Y378000D02*
X1020000D01*
X901750Y322100D02*
Y328100D01*
Y322100D02*
X919750D01*
Y328100D01*
X901750Y346100D02*
Y352100D01*
X919750D01*
Y346100D02*
Y352100D01*
X920950Y322100D02*
Y328100D01*
Y322100D02*
X938950D01*
Y328100D01*
X920950Y346100D02*
Y352100D01*
X938950D01*
Y346100D02*
Y352100D01*
X447500Y329453D02*
X453500D01*
Y347453D01*
X447500D02*
X453500D01*
X423500Y329453D02*
X429500D01*
X423500D02*
Y347453D01*
X429500D01*
X391039D02*
X397039D01*
X391039Y329453D02*
Y347453D01*
Y329453D02*
X397039D01*
X415039Y347453D02*
X421039D01*
Y329453D02*
Y347453D01*
X415039Y329453D02*
X421039D01*
X848500Y502500D02*
Y508500D01*
X830500D02*
X848500D01*
X830500Y502500D02*
Y508500D01*
X848500Y478500D02*
Y484500D01*
X830500Y478500D02*
X848500D01*
X830500D02*
Y484500D01*
X409039Y379000D02*
Y385000D01*
X391039D02*
X409039D01*
X391039Y379000D02*
Y385000D01*
X409039Y355000D02*
Y361000D01*
X391039Y355000D02*
X409039D01*
X391039D02*
Y361000D01*
X453500Y379000D02*
Y385000D01*
X435500D02*
X453500D01*
X435500Y379000D02*
Y385000D01*
X453500Y355000D02*
Y361000D01*
X435500Y355000D02*
X453500D01*
X435500D02*
Y361000D01*
D44*
X811692Y540000D02*
X812962D01*
X799500Y526792D02*
Y528062D01*
X786038Y540000D02*
X787308D01*
X799500Y552192D02*
Y553462D01*
X822500Y356192D02*
Y357462D01*
X834438Y344000D02*
X835708D01*
X822500Y330538D02*
Y331808D01*
X809038Y344000D02*
X810308D01*
X484500Y464192D02*
Y465462D01*
X496438Y452000D02*
X497708D01*
X484500Y438538D02*
Y439808D01*
X471038Y452000D02*
X472308D01*
X943258Y472614D02*
X946814D01*
Y400986D02*
Y404542D01*
X875186Y400986D02*
X878742D01*
X875186Y469058D02*
Y472614D01*
X946814Y469058D02*
Y472614D01*
X875186D02*
X878742D01*
X875186Y400986D02*
Y404542D01*
X943258Y400986D02*
X946814D01*
D45*
X531377Y499245D02*
X535441Y495690D01*
X522741Y490610D02*
X528075Y489339D01*
D46*
X505215Y494420D02*
X516899Y490863D01*
X496833Y490610D02*
X516899Y490863D01*
X470163Y494165D02*
X474989Y502547D01*
X477021Y490610D01*
X462543D02*
X477021D01*
X462543D02*
X478291Y516264D01*
X479053Y514486D01*
X477275Y510929D02*
X479053Y514486D01*
X477275Y510929D02*
X481593Y491118D01*
X488959D01*
X487943Y508898D02*
X491753Y507119D01*
X487943Y508898D02*
X489975Y504325D01*
X490229Y492896D01*
X493785Y490610D01*
X499881Y492896D01*
X501659Y496959D01*
X506231Y499245D01*
X522741Y490610D01*
X521979Y512707D02*
X531377Y499245D01*
X517661Y507119D02*
X531377Y499245D01*
X517661Y507119D02*
X520963Y516517D01*
X498357Y537599D02*
X505215Y536838D01*
X499119Y545981D02*
X505215Y536838D01*
X490991Y533027D02*
X499119Y545981D01*
X490991Y533027D02*
X511819Y532011D01*
X499627Y555379D02*
X511819Y532011D01*
X483371Y525915D02*
X499627Y555379D01*
X483371Y525915D02*
X485911Y525662D01*
X490483Y528709D01*
X513343Y529980D01*
D47*
X954450Y264050D02*
Y318050D01*
Y264050D02*
X1157150D01*
X954450Y318050D02*
X1157150D01*
Y264050D02*
Y318050D01*
X751250Y264050D02*
Y318050D01*
Y264050D02*
X953950D01*
X751250Y318050D02*
X953950D01*
Y264050D02*
Y318050D01*
X548050Y264050D02*
Y318050D01*
Y264050D02*
X750750D01*
X548050Y318050D02*
X750750D01*
Y264050D02*
Y318050D01*
X344850Y264050D02*
Y318050D01*
Y264050D02*
X547550D01*
X344850Y318050D02*
X547550D01*
Y264050D02*
Y318050D01*
D48*
X1125000Y374115D02*
D03*
M02*
