G04*
G04 #@! TF.GenerationSoftware,Altium Limited,CircuitStudio,1.5.2 (30)*
G04*
G04 Layer_Color=13948096*
%FSLAX44Y44*%
%MOMM*%
G71*
G01*
G75*
%ADD30C,0.2540*%
%ADD40C,0.2030*%
D30*
X1042483Y494684D02*
X1052480D01*
Y499682D01*
X1050814Y501348D01*
X1047482D01*
X1045815Y499682D01*
Y494684D01*
X1052480Y504680D02*
Y511345D01*
Y508013D01*
X1042483D01*
Y514677D02*
X1049148D01*
X1052480Y518009D01*
X1049148Y521342D01*
X1042483D01*
X1047482D01*
Y514677D01*
X1052480Y531339D02*
X1050814Y528006D01*
X1047482Y524674D01*
X1044149D01*
X1042483Y526340D01*
Y529672D01*
X1044149Y531339D01*
X1045815D01*
X1047482Y529672D01*
Y524674D01*
X940950Y494684D02*
X950947D01*
Y499682D01*
X949280Y501348D01*
X945948D01*
X944282Y499682D01*
Y494684D01*
Y498016D02*
X940950Y501348D01*
X949280Y511345D02*
X950947Y509679D01*
Y506347D01*
X949280Y504680D01*
X947614D01*
X945948Y506347D01*
Y509679D01*
X944282Y511345D01*
X942616D01*
X940950Y509679D01*
Y506347D01*
X942616Y504680D01*
X950947Y514677D02*
Y521342D01*
Y518009D01*
X940950D01*
X966333Y494684D02*
X976330D01*
Y499682D01*
X974664Y501348D01*
X971332D01*
X969665Y499682D01*
Y494684D01*
X976330Y504680D02*
Y511345D01*
Y508013D01*
X966333D01*
X976330Y514677D02*
X966333D01*
Y519676D01*
X967999Y521342D01*
X969665D01*
X971332Y519676D01*
Y514677D01*
Y519676D01*
X972998Y521342D01*
X974664D01*
X976330Y519676D01*
Y514677D01*
X966333Y524674D02*
Y528006D01*
Y526340D01*
X976330D01*
X974664Y524674D01*
X991717Y494684D02*
X1001713D01*
Y499682D01*
X1000047Y501348D01*
X996715D01*
X995049Y499682D01*
Y494684D01*
X1001713Y504680D02*
Y511345D01*
Y508013D01*
X991717D01*
X1001713Y514677D02*
X991717D01*
Y519676D01*
X993383Y521342D01*
X995049D01*
X996715Y519676D01*
Y514677D01*
Y519676D01*
X998381Y521342D01*
X1000047D01*
X1001713Y519676D01*
Y514677D01*
X1000047Y524674D02*
X1001713Y526340D01*
Y529672D01*
X1000047Y531339D01*
X993383D01*
X991717Y529672D01*
Y526340D01*
X993383Y524674D01*
X1000047D01*
X1017100Y494684D02*
X1027097D01*
Y499682D01*
X1025431Y501348D01*
X1022098D01*
X1020432Y499682D01*
Y494684D01*
X1027097Y504680D02*
Y511345D01*
Y508013D01*
X1017100D01*
Y514677D02*
X1023764D01*
X1027097Y518009D01*
X1023764Y521342D01*
X1017100D01*
X1022098D01*
Y514677D01*
X1027097Y524674D02*
Y531339D01*
X1025431D01*
X1018766Y524674D01*
X1017100D01*
X1077863Y494684D02*
X1067866D01*
Y499682D01*
X1069533Y501348D01*
X1076197D01*
X1077863Y499682D01*
Y494684D01*
X1072865Y504680D02*
Y511345D01*
X1103247Y494684D02*
X1093250D01*
Y499682D01*
X1094916Y501348D01*
X1101580D01*
X1103247Y499682D01*
Y494684D01*
X1098248Y504680D02*
Y511345D01*
X1101580Y508013D02*
X1094916D01*
X1128547Y495750D02*
X1121882D01*
X1118550Y499082D01*
X1121882Y502414D01*
X1128547D01*
Y505747D02*
X1120216D01*
X1118550Y507413D01*
Y510745D01*
X1120216Y512411D01*
X1128547D01*
X1126880Y522408D02*
X1128547Y520742D01*
Y517410D01*
X1126880Y515743D01*
X1125214D01*
X1123548Y517410D01*
Y520742D01*
X1121882Y522408D01*
X1120216D01*
X1118550Y520742D01*
Y517410D01*
X1120216Y515743D01*
X1128547Y525740D02*
X1118550D01*
Y530739D01*
X1120216Y532405D01*
X1121882D01*
X1123548Y530739D01*
Y525740D01*
Y530739D01*
X1125214Y532405D01*
X1126880D01*
X1128547Y530739D01*
Y525740D01*
X886280Y501348D02*
X887946Y499682D01*
Y496350D01*
X886280Y494684D01*
X879616D01*
X877950Y496350D01*
Y499682D01*
X879616Y501348D01*
X882948D01*
Y498016D01*
X877950Y504680D02*
X887946D01*
X877950Y511345D01*
X887946D01*
Y514677D02*
X877950D01*
Y519676D01*
X879616Y521342D01*
X886280D01*
X887946Y519676D01*
Y514677D01*
X915780Y494684D02*
X917446Y496350D01*
Y499682D01*
X915780Y501348D01*
X914114D01*
X912448Y499682D01*
Y498016D01*
Y499682D01*
X910782Y501348D01*
X909116D01*
X907450Y499682D01*
Y496350D01*
X909116Y494684D01*
X914114Y504680D02*
X907450Y508013D01*
X914114Y511345D01*
X915780Y514677D02*
X917446Y516343D01*
Y519676D01*
X915780Y521342D01*
X914114D01*
X912448Y519676D01*
Y518009D01*
Y519676D01*
X910782Y521342D01*
X909116D01*
X907450Y519676D01*
Y516343D01*
X909116Y514677D01*
X819343Y555235D02*
X829500D01*
Y540000D01*
X819343D01*
X829500Y547617D02*
X824421D01*
X814265D02*
X804108D01*
X799030Y555235D02*
Y540000D01*
X788873D01*
X781255D02*
X776177D01*
X773638Y542539D01*
Y547617D01*
X776177Y550157D01*
X781255D01*
X783794Y547617D01*
Y542539D01*
X781255Y540000D01*
X766020Y550157D02*
X760942D01*
X758403Y547617D01*
Y540000D01*
X766020D01*
X768559Y542539D01*
X766020Y545078D01*
X758403D01*
X743168Y555235D02*
Y540000D01*
X750785D01*
X753324Y542539D01*
Y547617D01*
X750785Y550157D01*
X743168D01*
X712698Y552696D02*
X715237Y555235D01*
X720315D01*
X722854Y552696D01*
Y542539D01*
X720315Y540000D01*
X715237D01*
X712698Y542539D01*
X707619Y540000D02*
Y555235D01*
X697462Y540000D01*
Y555235D01*
X692384D02*
X682227D01*
X687306D01*
Y540000D01*
X677149D02*
Y555235D01*
X669531D01*
X666992Y552696D01*
Y547617D01*
X669531Y545078D01*
X677149D01*
X672071D02*
X666992Y540000D01*
X661914Y555235D02*
Y540000D01*
X651757D01*
X624343D02*
X634500D01*
X624343Y550157D01*
Y552696D01*
X626882Y555235D01*
X631961D01*
X634500Y552696D01*
X619265D02*
X616726Y555235D01*
X611647D01*
X609108Y552696D01*
Y542539D01*
X611647Y540000D01*
X616726D01*
X619265Y542539D01*
Y552696D01*
X593873Y540000D02*
X604030D01*
X593873Y550157D01*
Y552696D01*
X596412Y555235D01*
X601490D01*
X604030Y552696D01*
X588795D02*
X586255Y555235D01*
X581177D01*
X578638Y552696D01*
Y542539D01*
X581177Y540000D01*
X586255D01*
X588795Y542539D01*
Y552696D01*
X339500Y255000D02*
Y565000D01*
X1174500D01*
Y255000D02*
Y565000D01*
X339500Y255000D02*
X1174500D01*
D40*
X936050Y560750D02*
X1138550D01*
X936050Y535750D02*
Y560750D01*
Y535750D02*
X1138550D01*
Y560750D01*
X926050Y535750D02*
Y560750D01*
X873550Y535750D02*
X926050D01*
X873550D02*
Y560750D01*
X926050D01*
X1175750Y535750D02*
Y593250D01*
X835750D02*
X1175750D01*
X835750Y535750D02*
Y593250D01*
Y535750D02*
X1175750D01*
M02*
