G04*
G04 #@! TF.GenerationSoftware,Altium Limited,CircuitStudio,1.5.2 (30)*
G04*
G04 Layer_Physical_Order=2*
G04 Layer_Color=16765976*
%FSLAX44Y44*%
%MOMM*%
G71*
G01*
G75*
%ADD30C,0.2540*%
%ADD34C,1.5240*%
%ADD35R,1.5240X1.5240*%
%ADD37O,1.5000X2.5000*%
%ADD38C,0.6000*%
G36*
X942626Y555140D02*
X941909Y554590D01*
X940484Y552733D01*
X939589Y550571D01*
X939283Y548250D01*
X939589Y545929D01*
X940373Y544035D01*
X935927Y539590D01*
X916500D01*
X915509Y539393D01*
X914669Y538831D01*
X893669Y517831D01*
X893107Y516991D01*
X892910Y516000D01*
Y429048D01*
X892802Y428948D01*
X891728Y428435D01*
X887831Y432331D01*
X886991Y432892D01*
X886000Y433090D01*
X862942D01*
X862370Y434360D01*
X863022Y435336D01*
X863353Y437002D01*
X863022Y438668D01*
X862078Y440081D01*
X860666Y441024D01*
X859000Y441356D01*
X857334Y441024D01*
X855921Y440081D01*
X854977Y438668D01*
X854646Y437002D01*
X854977Y435336D01*
X855630Y434360D01*
X855058Y433090D01*
X847572D01*
X841590Y439073D01*
Y448595D01*
X842078Y448921D01*
X843022Y450334D01*
X843353Y452000D01*
X843022Y453666D01*
X842078Y455078D01*
X840666Y456022D01*
X839000Y456353D01*
X837334Y456022D01*
X835921Y455078D01*
X834977Y453666D01*
X834646Y452000D01*
X834977Y450334D01*
X835921Y448921D01*
X836410Y448595D01*
Y438000D01*
X836607Y437009D01*
X837169Y436169D01*
X844669Y428669D01*
X845509Y428107D01*
X846500Y427910D01*
X853098D01*
X853790Y426640D01*
X853757Y426589D01*
X839573D01*
X829589Y436573D01*
Y512427D01*
X834202Y517040D01*
X835189Y516230D01*
X834477Y515166D01*
X834146Y513500D01*
X834477Y511834D01*
X835421Y510421D01*
X836834Y509478D01*
X838500Y509146D01*
X840166Y509478D01*
X841578Y510421D01*
X842522Y511834D01*
X842640Y512427D01*
X843910Y512302D01*
Y475834D01*
X844107Y474843D01*
X844669Y474003D01*
X854761Y463910D01*
X854646Y463334D01*
X854977Y461668D01*
X855921Y460255D01*
X857334Y459312D01*
X859000Y458980D01*
X860666Y459312D01*
X862078Y460255D01*
X863022Y461668D01*
X863353Y463334D01*
X863022Y465000D01*
X862078Y466412D01*
X860666Y467356D01*
X859000Y467687D01*
X858423Y467573D01*
X849090Y476907D01*
Y479629D01*
X850359Y480014D01*
X850421Y479921D01*
X851834Y478978D01*
X853500Y478646D01*
X853892Y478724D01*
X854003Y478667D01*
X854870Y477624D01*
X854646Y476500D01*
X854977Y474834D01*
X855921Y473421D01*
X857334Y472477D01*
X859000Y472146D01*
X860666Y472477D01*
X862078Y473421D01*
X863022Y474834D01*
X863353Y476500D01*
X863022Y478166D01*
X862078Y479578D01*
X860666Y480522D01*
X859000Y480853D01*
X858607Y480775D01*
X858496Y480832D01*
X857630Y481876D01*
X857853Y483000D01*
X857522Y484666D01*
X856578Y486078D01*
X855166Y487022D01*
X853500Y487354D01*
X851834Y487022D01*
X850421Y486078D01*
X850359Y485986D01*
X849090Y486371D01*
Y533927D01*
X856923Y541761D01*
X857500Y541646D01*
X859166Y541978D01*
X860578Y542921D01*
X861522Y544334D01*
X861853Y546000D01*
X861522Y547666D01*
X860578Y549078D01*
X859166Y550022D01*
X857500Y550354D01*
X855834Y550022D01*
X854778Y549317D01*
X853968Y550303D01*
X860075Y556410D01*
X876740D01*
X877230Y555140D01*
X875875Y553374D01*
X874851Y550902D01*
X874669Y549520D01*
X884750D01*
X894830D01*
X894648Y550902D01*
X893624Y553374D01*
X892269Y555140D01*
X892759Y556410D01*
X904095D01*
X904526Y555140D01*
X903809Y554590D01*
X902384Y552733D01*
X901489Y550571D01*
X901183Y548250D01*
X901489Y545929D01*
X902384Y543767D01*
X903809Y541909D01*
X905666Y540485D01*
X907829Y539589D01*
X910150Y539283D01*
X912470Y539589D01*
X914633Y540485D01*
X916490Y541909D01*
X917915Y543767D01*
X918811Y545929D01*
X919116Y548250D01*
X918811Y550571D01*
X917915Y552733D01*
X916490Y554590D01*
X915774Y555140D01*
X916205Y556410D01*
X942195D01*
X942626Y555140D01*
D02*
G37*
G36*
X854183Y548722D02*
X853477Y547666D01*
X853146Y546000D01*
X853261Y545423D01*
X844669Y536831D01*
X844107Y535991D01*
X843910Y535000D01*
Y514698D01*
X842640Y514573D01*
X842522Y515166D01*
X841578Y516578D01*
X840166Y517522D01*
X838500Y517854D01*
X836834Y517522D01*
X835769Y516811D01*
X834960Y517797D01*
X835741Y518579D01*
X836303Y519419D01*
X836500Y520410D01*
Y532835D01*
X853197Y549532D01*
X854183Y548722D01*
D02*
G37*
G36*
X854681Y560000D02*
X855167Y558826D01*
X832079Y535739D01*
X831517Y534898D01*
X831320Y533907D01*
Y521483D01*
X825169Y515331D01*
X824607Y514491D01*
X824410Y513500D01*
Y435500D01*
X824607Y434509D01*
X825169Y433669D01*
X836669Y422168D01*
X837509Y421607D01*
X838500Y421410D01*
X855094D01*
X855420Y420921D01*
X856833Y419977D01*
X858499Y419646D01*
X860165Y419977D01*
X861577Y420921D01*
X862521Y422333D01*
X862852Y423999D01*
X862521Y425666D01*
X861870Y426640D01*
X862444Y427910D01*
X884927D01*
X901910Y410927D01*
Y372905D01*
X901421Y372578D01*
X900478Y371166D01*
X900146Y369500D01*
X900478Y367834D01*
X901421Y366421D01*
X902834Y365477D01*
X903820Y365281D01*
X903984Y363954D01*
X902921Y363243D01*
X901977Y361831D01*
X901646Y360165D01*
X901977Y358499D01*
X902921Y357086D01*
X904334Y356143D01*
X906000Y355811D01*
X907666Y356143D01*
X909078Y357086D01*
X910022Y358499D01*
X910353Y360165D01*
X910239Y360741D01*
X911528Y362031D01*
X912514Y361221D01*
X912477Y361166D01*
X912146Y359500D01*
X912477Y357834D01*
X913421Y356421D01*
X914834Y355477D01*
X916500Y355146D01*
X918166Y355477D01*
X919578Y356421D01*
X920522Y357834D01*
X920853Y359500D01*
X920522Y361166D01*
X919578Y362578D01*
X918166Y363522D01*
X916500Y363853D01*
X914834Y363522D01*
X914502Y363300D01*
X913586Y364216D01*
X913892Y364674D01*
X914090Y365665D01*
Y413000D01*
X913892Y413991D01*
X913331Y414831D01*
X898090Y430073D01*
Y483302D01*
X899360Y483427D01*
X899477Y482834D01*
X900421Y481421D01*
X901834Y480478D01*
X903500Y480146D01*
X905166Y480478D01*
X906578Y481421D01*
X907294Y482493D01*
X907514Y482556D01*
X908486D01*
X908705Y482493D01*
X909421Y481421D01*
X910834Y480478D01*
X912500Y480146D01*
X914166Y480478D01*
X915578Y481421D01*
X916522Y482834D01*
X916853Y484500D01*
X916708Y485232D01*
X917788Y486312D01*
X918620Y486146D01*
X920286Y486478D01*
X921699Y487421D01*
X922642Y488834D01*
X922974Y490500D01*
X922642Y492166D01*
X921699Y493578D01*
X920286Y494522D01*
X918620Y494854D01*
X916954Y494522D01*
X915542Y493578D01*
X914598Y492166D01*
X914266Y490500D01*
X914412Y489768D01*
X913332Y488688D01*
X912500Y488854D01*
X910834Y488522D01*
X909421Y487578D01*
X908705Y486507D01*
X908486Y486444D01*
X907514D01*
X907294Y486507D01*
X906578Y487578D01*
X905166Y488522D01*
X903500Y488854D01*
X901834Y488522D01*
X900421Y487578D01*
X899477Y486166D01*
X899360Y485573D01*
X898090Y485698D01*
Y514927D01*
X910345Y527183D01*
X910680Y527153D01*
X911703Y525785D01*
X911646Y525500D01*
X911977Y523834D01*
X912921Y522421D01*
X914334Y521478D01*
X916000Y521146D01*
X917666Y521478D01*
X919078Y522421D01*
X920022Y523834D01*
X920353Y525500D01*
X920022Y527166D01*
X919078Y528578D01*
X917666Y529522D01*
X916000Y529854D01*
X915714Y529797D01*
X914347Y530820D01*
X914317Y531154D01*
X917572Y534410D01*
X937000D01*
X937991Y534607D01*
X938831Y535169D01*
X944035Y540373D01*
X945929Y539589D01*
X948250Y539283D01*
X950571Y539589D01*
X952733Y540485D01*
X954590Y541909D01*
X956015Y543767D01*
X956911Y545929D01*
X957216Y548250D01*
X956911Y550571D01*
X956015Y552733D01*
X954590Y554590D01*
X953874Y555140D01*
X954305Y556410D01*
X967595D01*
X968026Y555140D01*
X967309Y554590D01*
X965884Y552733D01*
X964989Y550571D01*
X964683Y548250D01*
X964989Y545929D01*
X965884Y543767D01*
X967309Y541909D01*
X969166Y540485D01*
X971329Y539589D01*
X973650Y539283D01*
X975971Y539589D01*
X978133Y540485D01*
X979990Y541909D01*
X981415Y543767D01*
X982311Y545929D01*
X982616Y548250D01*
X982311Y550571D01*
X981415Y552733D01*
X979990Y554590D01*
X979274Y555140D01*
X979705Y556410D01*
X992995D01*
X993426Y555140D01*
X992709Y554590D01*
X991284Y552733D01*
X990389Y550571D01*
X990083Y548250D01*
X990389Y545929D01*
X991284Y543767D01*
X992709Y541909D01*
X994566Y540485D01*
X996729Y539589D01*
X999050Y539283D01*
X1001370Y539589D01*
X1003533Y540485D01*
X1005390Y541909D01*
X1006815Y543767D01*
X1007711Y545929D01*
X1008016Y548250D01*
X1007711Y550571D01*
X1006815Y552733D01*
X1005390Y554590D01*
X1004674Y555140D01*
X1005105Y556410D01*
X1012627D01*
X1016573Y552464D01*
X1015789Y550571D01*
X1015483Y548250D01*
X1015789Y545929D01*
X1016684Y543767D01*
X1018109Y541909D01*
X1019966Y540485D01*
X1022129Y539589D01*
X1024450Y539283D01*
X1026770Y539589D01*
X1028933Y540485D01*
X1030790Y541909D01*
X1032215Y543767D01*
X1033111Y545929D01*
X1033416Y548250D01*
X1033111Y550571D01*
X1032215Y552733D01*
X1030790Y554590D01*
X1028933Y556015D01*
X1026770Y556911D01*
X1024450Y557217D01*
X1022129Y556911D01*
X1020235Y556127D01*
X1017536Y558826D01*
X1018022Y560000D01*
X1169500D01*
X1169500Y260898D01*
X1168602Y260000D01*
X344500Y260000D01*
Y286532D01*
X345398Y287430D01*
X375170D01*
Y296613D01*
X376440Y297239D01*
X377826Y296175D01*
X380298Y295152D01*
X381680Y294970D01*
Y305050D01*
Y315131D01*
X380298Y314949D01*
X377826Y313925D01*
X376440Y312861D01*
X375170Y313487D01*
Y322670D01*
X344500D01*
X344500Y559102D01*
X345398Y560000D01*
X854681Y560000D01*
D02*
G37*
%LPC*%
G36*
X1008500Y332854D02*
X1006834Y332522D01*
X1005421Y331578D01*
X1004477Y330166D01*
X1004146Y328500D01*
X1004477Y326834D01*
X1005421Y325421D01*
X1006834Y324478D01*
X1008500Y324146D01*
X1010166Y324478D01*
X1011578Y325421D01*
X1012522Y326834D01*
X1012853Y328500D01*
X1012522Y330166D01*
X1011578Y331578D01*
X1010166Y332522D01*
X1008500Y332854D01*
D02*
G37*
G36*
X595500Y331353D02*
X593834Y331022D01*
X592421Y330078D01*
X591478Y328666D01*
X591146Y327000D01*
X591478Y325334D01*
X592421Y323921D01*
X593834Y322978D01*
X595500Y322646D01*
X597166Y322978D01*
X598578Y323921D01*
X599522Y325334D01*
X599853Y327000D01*
X599522Y328666D01*
X598578Y330078D01*
X597166Y331022D01*
X595500Y331353D01*
D02*
G37*
G36*
X700000Y336853D02*
X698334Y336522D01*
X696921Y335578D01*
X695977Y334166D01*
X695646Y332500D01*
X695977Y330834D01*
X696921Y329421D01*
X698334Y328478D01*
X700000Y328146D01*
X701666Y328478D01*
X703078Y329421D01*
X704022Y330834D01*
X704353Y332500D01*
X704022Y334166D01*
X703078Y335578D01*
X701666Y336522D01*
X700000Y336853D01*
D02*
G37*
G36*
X685600Y337253D02*
X683934Y336922D01*
X682521Y335978D01*
X681578Y334566D01*
X681246Y332900D01*
X681578Y331234D01*
X682521Y329821D01*
X683934Y328877D01*
X685600Y328546D01*
X687266Y328877D01*
X688678Y329821D01*
X689622Y331234D01*
X689954Y332900D01*
X689622Y334566D01*
X688678Y335978D01*
X687266Y336922D01*
X685600Y337253D01*
D02*
G37*
G36*
X1146220Y315131D02*
Y306320D01*
X1155031D01*
X1154848Y307702D01*
X1153825Y310174D01*
X1152196Y312296D01*
X1150074Y313925D01*
X1147602Y314949D01*
X1146220Y315131D01*
D02*
G37*
G36*
X813480D02*
X812098Y314949D01*
X809626Y313925D01*
X807504Y312296D01*
X805875Y310174D01*
X804852Y307702D01*
X804669Y306320D01*
X813480D01*
Y315131D01*
D02*
G37*
G36*
X587420D02*
Y306320D01*
X596231D01*
X596049Y307702D01*
X595025Y310174D01*
X593396Y312296D01*
X591274Y313925D01*
X588802Y314949D01*
X587420Y315131D01*
D02*
G37*
G36*
X1143680D02*
X1142298Y314949D01*
X1139826Y313925D01*
X1137704Y312296D01*
X1136075Y310174D01*
X1135051Y307702D01*
X1134870Y306320D01*
X1143680D01*
Y315131D01*
D02*
G37*
G36*
X816020D02*
Y306320D01*
X824830D01*
X824649Y307702D01*
X823625Y310174D01*
X821996Y312296D01*
X819874Y313925D01*
X817402Y314949D01*
X816020Y315131D01*
D02*
G37*
G36*
X565500Y343354D02*
X563834Y343022D01*
X562421Y342078D01*
X561478Y340666D01*
X561146Y339000D01*
X561478Y337334D01*
X562421Y335921D01*
X563834Y334978D01*
X565500Y334646D01*
X567166Y334978D01*
X568578Y335921D01*
X569522Y337334D01*
X569853Y339000D01*
X569522Y340666D01*
X568578Y342078D01*
X567166Y343022D01*
X565500Y343354D01*
D02*
G37*
G36*
X373500Y385354D02*
X371834Y385022D01*
X370421Y384078D01*
X369478Y382666D01*
X369146Y381000D01*
X369478Y379334D01*
X370421Y377921D01*
X371834Y376978D01*
X373500Y376646D01*
X375166Y376978D01*
X376578Y377921D01*
X377522Y379334D01*
X377853Y381000D01*
X377522Y382666D01*
X376578Y384078D01*
X375166Y385022D01*
X373500Y385354D01*
D02*
G37*
G36*
X845500Y379854D02*
X843834Y379522D01*
X842421Y378578D01*
X841478Y377166D01*
X841146Y375500D01*
X841478Y373834D01*
X842421Y372421D01*
X843834Y371478D01*
X845500Y371146D01*
X847166Y371478D01*
X848578Y372421D01*
X849522Y373834D01*
X849853Y375500D01*
X849522Y377166D01*
X848578Y378578D01*
X847166Y379522D01*
X845500Y379854D01*
D02*
G37*
G36*
X774500Y468354D02*
X772834Y468022D01*
X771421Y467078D01*
X770478Y465666D01*
X770146Y464000D01*
X770478Y462334D01*
X771421Y460921D01*
X771910Y460595D01*
Y400000D01*
X772107Y399009D01*
X772669Y398169D01*
X778261Y392576D01*
X778146Y392000D01*
X778477Y390334D01*
X779421Y388921D01*
X780834Y387978D01*
X782500Y387646D01*
X784166Y387978D01*
X785578Y388921D01*
X786522Y390334D01*
X786853Y392000D01*
X786522Y393666D01*
X785578Y395078D01*
X784166Y396022D01*
X782500Y396353D01*
X781923Y396239D01*
X777089Y401073D01*
Y460595D01*
X777578Y460921D01*
X778522Y462334D01*
X778853Y464000D01*
X778522Y465666D01*
X777578Y467078D01*
X776166Y468022D01*
X774500Y468354D01*
D02*
G37*
G36*
X422500Y396353D02*
X420834Y396022D01*
X419421Y395078D01*
X418478Y393666D01*
X418146Y392000D01*
X418478Y390334D01*
X419421Y388921D01*
X420834Y387978D01*
X422500Y387646D01*
X424166Y387978D01*
X425578Y388921D01*
X426522Y390334D01*
X426853Y392000D01*
X426522Y393666D01*
X425578Y395078D01*
X424166Y396022D01*
X422500Y396353D01*
D02*
G37*
G36*
X715538Y379392D02*
X713872Y379060D01*
X712459Y378116D01*
X711516Y376704D01*
X711184Y375038D01*
X711516Y373372D01*
X712459Y371959D01*
X713872Y371016D01*
X715538Y370684D01*
X717204Y371016D01*
X718616Y371959D01*
X719560Y373372D01*
X719891Y375038D01*
X719560Y376704D01*
X718616Y378116D01*
X717204Y379060D01*
X715538Y379392D01*
D02*
G37*
G36*
X651500Y397354D02*
X649834Y397022D01*
X648421Y396078D01*
X647477Y394666D01*
X647146Y393000D01*
X647477Y391334D01*
X648421Y389921D01*
X649834Y388978D01*
X651500Y388646D01*
X653166Y388978D01*
X654578Y389921D01*
X655522Y391334D01*
X655853Y393000D01*
X655522Y394666D01*
X654578Y396078D01*
X653166Y397022D01*
X651500Y397354D01*
D02*
G37*
G36*
X855500Y351853D02*
X853834Y351522D01*
X852421Y350578D01*
X851478Y349166D01*
X851146Y347500D01*
X851478Y345834D01*
X852421Y344421D01*
X853834Y343478D01*
X855500Y343146D01*
X857166Y343478D01*
X858578Y344421D01*
X859522Y345834D01*
X859853Y347500D01*
X859522Y349166D01*
X858578Y350578D01*
X857166Y351522D01*
X855500Y351853D01*
D02*
G37*
G36*
X783688Y371353D02*
X782022Y371022D01*
X780609Y370078D01*
X779666Y368666D01*
X779334Y367000D01*
X779666Y365334D01*
X780609Y363921D01*
X782022Y362978D01*
X783688Y362646D01*
X785354Y362978D01*
X786766Y363921D01*
X787710Y365334D01*
X788042Y367000D01*
X787710Y368666D01*
X786766Y370078D01*
X785354Y371022D01*
X783688Y371353D01*
D02*
G37*
G36*
X542000Y444854D02*
X540334Y444522D01*
X538921Y443578D01*
X537977Y442166D01*
X537646Y440500D01*
X537977Y438834D01*
X538921Y437421D01*
X539410Y437095D01*
Y353822D01*
X538140Y353436D01*
X537979Y353678D01*
X536566Y354622D01*
X534900Y354953D01*
X533234Y354622D01*
X531822Y353678D01*
X530878Y352266D01*
X530546Y350600D01*
X530878Y348934D01*
X531822Y347521D01*
X533234Y346577D01*
X534900Y346246D01*
X536566Y346577D01*
X537979Y347521D01*
X538140Y347763D01*
X539410Y347378D01*
Y338500D01*
X539607Y337509D01*
X540168Y336669D01*
X558160Y318677D01*
Y313940D01*
X551860D01*
Y296160D01*
X569640D01*
Y313940D01*
X563340D01*
Y319750D01*
X563143Y320741D01*
X562581Y321581D01*
X544590Y339573D01*
Y437095D01*
X545078Y437421D01*
X546022Y438834D01*
X546353Y440500D01*
X546022Y442166D01*
X545078Y443578D01*
X543666Y444522D01*
X542000Y444854D01*
D02*
G37*
G36*
X1143680Y303780D02*
X1134870D01*
X1135051Y302398D01*
X1136075Y299926D01*
X1137704Y297804D01*
X1139826Y296175D01*
X1142298Y295152D01*
X1143680Y294970D01*
Y303780D01*
D02*
G37*
G36*
X824830D02*
X816020D01*
Y294970D01*
X817402Y295152D01*
X819874Y296175D01*
X821996Y297804D01*
X823625Y299926D01*
X824649Y302398D01*
X824830Y303780D01*
D02*
G37*
G36*
X611550Y314017D02*
X609229Y313711D01*
X607067Y312815D01*
X605210Y311390D01*
X603785Y309533D01*
X602889Y307371D01*
X602583Y305050D01*
X602889Y302729D01*
X603785Y300567D01*
X605210Y298710D01*
X607067Y297285D01*
X609229Y296389D01*
X611550Y296083D01*
X613871Y296389D01*
X616033Y297285D01*
X617891Y298710D01*
X619315Y300567D01*
X620211Y302729D01*
X620517Y305050D01*
X620211Y307371D01*
X619315Y309533D01*
X617891Y311390D01*
X616033Y312815D01*
X613871Y313711D01*
X611550Y314017D01*
D02*
G37*
G36*
X1155031Y303780D02*
X1146220D01*
Y294970D01*
X1147602Y295152D01*
X1150074Y296175D01*
X1152196Y297804D01*
X1153825Y299926D01*
X1154848Y302398D01*
X1155031Y303780D01*
D02*
G37*
G36*
X813480D02*
X804669D01*
X804852Y302398D01*
X805875Y299926D01*
X807504Y297804D01*
X809626Y296175D01*
X812098Y295152D01*
X813480Y294970D01*
Y303780D01*
D02*
G37*
G36*
X483280D02*
X474469D01*
X474651Y302398D01*
X475675Y299926D01*
X477304Y297804D01*
X479426Y296175D01*
X481898Y295152D01*
X483280Y294970D01*
Y303780D01*
D02*
G37*
G36*
X914000Y277353D02*
X912334Y277022D01*
X910921Y276078D01*
X909977Y274666D01*
X909646Y273000D01*
X909977Y271334D01*
X910921Y269921D01*
X912334Y268978D01*
X914000Y268646D01*
X915666Y268978D01*
X917078Y269921D01*
X918022Y271334D01*
X918353Y273000D01*
X918022Y274666D01*
X917078Y276078D01*
X915666Y277022D01*
X914000Y277353D01*
D02*
G37*
G36*
X596231Y303780D02*
X587420D01*
Y294970D01*
X588802Y295152D01*
X591274Y296175D01*
X593396Y297804D01*
X595025Y299926D01*
X596049Y302398D01*
X596231Y303780D01*
D02*
G37*
G36*
X584880D02*
X576069D01*
X576251Y302398D01*
X577275Y299926D01*
X578904Y297804D01*
X581026Y296175D01*
X583498Y295152D01*
X584880Y294970D01*
Y303780D01*
D02*
G37*
G36*
X636950Y314017D02*
X634629Y313711D01*
X632467Y312815D01*
X630610Y311390D01*
X629185Y309533D01*
X628289Y307371D01*
X627983Y305050D01*
X628289Y302729D01*
X629185Y300567D01*
X630610Y298710D01*
X632467Y297285D01*
X634629Y296389D01*
X636950Y296083D01*
X639271Y296389D01*
X641433Y297285D01*
X643290Y298710D01*
X644715Y300567D01*
X645611Y302729D01*
X645917Y305050D01*
X645611Y307371D01*
X644715Y309533D01*
X643290Y311390D01*
X641433Y312815D01*
X639271Y313711D01*
X636950Y314017D01*
D02*
G37*
G36*
X800500Y419854D02*
X798834Y419522D01*
X797421Y418578D01*
X796478Y417166D01*
X796146Y415500D01*
X796478Y413834D01*
X797421Y412421D01*
X797910Y412095D01*
Y370573D01*
X762119Y334781D01*
X761557Y333941D01*
X761360Y332950D01*
Y313940D01*
X755060D01*
Y296160D01*
X772840D01*
Y313940D01*
X766540D01*
Y331878D01*
X802331Y367669D01*
X802892Y368509D01*
X803090Y369500D01*
Y412095D01*
X803578Y412421D01*
X804522Y413834D01*
X804853Y415500D01*
X804522Y417166D01*
X803578Y418578D01*
X802166Y419522D01*
X800500Y419854D01*
D02*
G37*
G36*
X1119550Y314017D02*
X1117229Y313711D01*
X1115067Y312815D01*
X1113210Y311390D01*
X1111785Y309533D01*
X1110889Y307371D01*
X1110583Y305050D01*
X1110889Y302729D01*
X1111785Y300567D01*
X1113210Y298710D01*
X1115067Y297285D01*
X1117229Y296389D01*
X1119550Y296083D01*
X1121871Y296389D01*
X1124033Y297285D01*
X1125891Y298710D01*
X1127315Y300567D01*
X1128211Y302729D01*
X1128517Y305050D01*
X1128211Y307371D01*
X1127315Y309533D01*
X1125891Y311390D01*
X1124033Y312815D01*
X1121871Y313711D01*
X1119550Y314017D01*
D02*
G37*
G36*
X584880Y315131D02*
X583498Y314949D01*
X581026Y313925D01*
X578904Y312296D01*
X577275Y310174D01*
X576251Y307702D01*
X576069Y306320D01*
X584880D01*
Y315131D01*
D02*
G37*
G36*
X483280D02*
X481898Y314949D01*
X479426Y313925D01*
X477304Y312296D01*
X475675Y310174D01*
X474651Y307702D01*
X474469Y306320D01*
X483280D01*
Y315131D01*
D02*
G37*
G36*
X1094150Y314017D02*
X1091829Y313711D01*
X1089667Y312815D01*
X1087810Y311390D01*
X1086385Y309533D01*
X1085489Y307371D01*
X1085183Y305050D01*
X1085489Y302729D01*
X1086385Y300567D01*
X1087810Y298710D01*
X1089667Y297285D01*
X1091829Y296389D01*
X1094150Y296083D01*
X1096471Y296389D01*
X1098633Y297285D01*
X1100490Y298710D01*
X1101915Y300567D01*
X1102811Y302729D01*
X1103117Y305050D01*
X1102811Y307371D01*
X1101915Y309533D01*
X1100490Y311390D01*
X1098633Y312815D01*
X1096471Y313711D01*
X1094150Y314017D01*
D02*
G37*
G36*
X713150D02*
X710829Y313711D01*
X708667Y312815D01*
X706810Y311390D01*
X705385Y309533D01*
X704489Y307371D01*
X704183Y305050D01*
X704489Y302729D01*
X705385Y300567D01*
X706810Y298710D01*
X708667Y297285D01*
X710829Y296389D01*
X713150Y296083D01*
X715471Y296389D01*
X717633Y297285D01*
X719491Y298710D01*
X720915Y300567D01*
X721811Y302729D01*
X722117Y305050D01*
X721811Y307371D01*
X720915Y309533D01*
X719491Y311390D01*
X717633Y312815D01*
X715471Y313711D01*
X713150Y314017D01*
D02*
G37*
G36*
X663500Y511353D02*
X661834Y511022D01*
X660421Y510078D01*
X659477Y508666D01*
X659146Y507000D01*
X659477Y505334D01*
X659760Y504911D01*
Y313600D01*
X657867Y312815D01*
X656010Y311390D01*
X654585Y309533D01*
X653689Y307371D01*
X653383Y305050D01*
X653689Y302729D01*
X654585Y300567D01*
X656010Y298710D01*
X657867Y297285D01*
X660029Y296389D01*
X662350Y296083D01*
X664671Y296389D01*
X666833Y297285D01*
X668690Y298710D01*
X670115Y300567D01*
X671011Y302729D01*
X671317Y305050D01*
X671011Y307371D01*
X670115Y309533D01*
X669502Y310333D01*
X669383Y310487D01*
X669143Y311500D01*
X669282Y311623D01*
X670294Y311528D01*
X670545Y311292D01*
X670311Y311526D01*
X670557Y311280D01*
X678618Y303219D01*
X679064Y302921D01*
X679089Y302729D01*
X679985Y300567D01*
X681410Y298710D01*
X683267Y297285D01*
X685429Y296389D01*
X687750Y296083D01*
X690071Y296389D01*
X692233Y297285D01*
X694090Y298710D01*
X695515Y300567D01*
X696411Y302729D01*
X696717Y305050D01*
X696411Y307371D01*
X695515Y309533D01*
X694090Y311390D01*
X692233Y312815D01*
X690071Y313711D01*
X687750Y314017D01*
X685429Y313711D01*
X683267Y312815D01*
X681410Y311390D01*
X680610Y310348D01*
X678951Y310211D01*
X674090Y315073D01*
Y335595D01*
X674578Y335921D01*
X675522Y337334D01*
X675853Y339000D01*
X675522Y340666D01*
X674578Y342078D01*
X673166Y343022D01*
X671500Y343354D01*
X669834Y343022D01*
X668421Y342078D01*
X667477Y340666D01*
X667146Y339000D01*
X667477Y337334D01*
X668421Y335921D01*
X668910Y335595D01*
Y314000D01*
X669096Y313066D01*
X669096D01*
X669106Y313015D01*
X669107Y313009D01*
X669108Y313008D01*
X669209Y312833D01*
X668711Y311447D01*
X667939Y311968D01*
X667898Y311999D01*
D01*
X666833Y312815D01*
X664940Y313600D01*
Y502933D01*
X665166Y502978D01*
X666578Y503921D01*
X667522Y505334D01*
X667853Y507000D01*
X667522Y508666D01*
X666578Y510078D01*
X665166Y511022D01*
X663500Y511353D01*
D02*
G37*
G36*
X1068750Y314017D02*
X1066429Y313711D01*
X1064267Y312815D01*
X1062410Y311390D01*
X1060985Y309533D01*
X1060089Y307371D01*
X1059783Y305050D01*
X1060089Y302729D01*
X1060985Y300567D01*
X1062410Y298710D01*
X1064267Y297285D01*
X1066429Y296389D01*
X1068750Y296083D01*
X1071071Y296389D01*
X1073233Y297285D01*
X1075090Y298710D01*
X1076515Y300567D01*
X1077411Y302729D01*
X1077717Y305050D01*
X1077411Y307371D01*
X1076515Y309533D01*
X1075090Y311390D01*
X1073233Y312815D01*
X1071071Y313711D01*
X1068750Y314017D01*
D02*
G37*
G36*
X789500Y337854D02*
X787834Y337522D01*
X786421Y336578D01*
X785478Y335166D01*
X785146Y333500D01*
X785478Y331834D01*
X786421Y330421D01*
X786760Y330195D01*
Y313600D01*
X784867Y312815D01*
X783010Y311390D01*
X781585Y309533D01*
X780689Y307371D01*
X780383Y305050D01*
X780689Y302729D01*
X781585Y300567D01*
X783010Y298710D01*
X784867Y297285D01*
X787029Y296389D01*
X789350Y296083D01*
X791671Y296389D01*
X793833Y297285D01*
X795691Y298710D01*
X797115Y300567D01*
X798011Y302729D01*
X798317Y305050D01*
X798011Y307371D01*
X797115Y309533D01*
X795691Y311390D01*
X793833Y312815D01*
X791940Y313600D01*
Y329995D01*
X792578Y330421D01*
X793522Y331834D01*
X793853Y333500D01*
X793522Y335166D01*
X792578Y336578D01*
X791166Y337522D01*
X789500Y337854D01*
D02*
G37*
G36*
X741500Y398354D02*
X739834Y398022D01*
X738421Y397078D01*
X737477Y395666D01*
X737146Y394000D01*
X737477Y392334D01*
X738421Y390921D01*
X739834Y389978D01*
X741500Y389646D01*
X743166Y389978D01*
X744578Y390921D01*
X745522Y392334D01*
X745853Y394000D01*
X745522Y395666D01*
X744578Y397078D01*
X743166Y398022D01*
X741500Y398354D01*
D02*
G37*
G36*
X755500Y531853D02*
X753834Y531522D01*
X752421Y530578D01*
X751478Y529166D01*
X751146Y527500D01*
X751478Y525834D01*
X752421Y524421D01*
X752910Y524095D01*
Y372073D01*
X736719Y355881D01*
X736157Y355041D01*
X735960Y354050D01*
Y337786D01*
X734690Y337105D01*
X734589Y337173D01*
Y431927D01*
X745923Y443261D01*
X746500Y443146D01*
X748166Y443478D01*
X749578Y444421D01*
X750522Y445834D01*
X750853Y447500D01*
X750522Y449166D01*
X749578Y450578D01*
X748166Y451522D01*
X746500Y451853D01*
X744834Y451522D01*
X743421Y450578D01*
X742477Y449166D01*
X742146Y447500D01*
X742261Y446923D01*
X730169Y434831D01*
X729607Y433991D01*
X729410Y433000D01*
Y335905D01*
X728921Y335578D01*
X727978Y334166D01*
X727646Y332500D01*
X727978Y330834D01*
X728921Y329421D01*
X730334Y328478D01*
X732000Y328146D01*
X733666Y328478D01*
X734690Y329162D01*
X735960Y328629D01*
Y313600D01*
X734067Y312815D01*
X732210Y311390D01*
X730785Y309533D01*
X729889Y307371D01*
X729583Y305050D01*
X729889Y302729D01*
X730785Y300567D01*
X732210Y298710D01*
X734067Y297285D01*
X736229Y296389D01*
X738550Y296083D01*
X740871Y296389D01*
X743033Y297285D01*
X744891Y298710D01*
X746315Y300567D01*
X747211Y302729D01*
X747517Y305050D01*
X747211Y307371D01*
X746315Y309533D01*
X744891Y311390D01*
X743033Y312815D01*
X741140Y313600D01*
Y352977D01*
X757331Y369169D01*
X757892Y370009D01*
X758090Y371000D01*
X758090Y371000D01*
Y486877D01*
X759360Y487262D01*
X759921Y486421D01*
X761334Y485478D01*
X763000Y485146D01*
X764666Y485478D01*
X766078Y486421D01*
X767022Y487834D01*
X767353Y489500D01*
X767022Y491166D01*
X766078Y492578D01*
X764666Y493522D01*
X763000Y493853D01*
X761334Y493522D01*
X759921Y492578D01*
X759360Y491738D01*
X758090Y492123D01*
Y524095D01*
X758578Y524421D01*
X759522Y525834D01*
X759853Y527500D01*
X759522Y529166D01*
X758578Y530578D01*
X757166Y531522D01*
X755500Y531853D01*
D02*
G37*
G36*
X862500Y492854D02*
X860834Y492522D01*
X859421Y491578D01*
X858477Y490166D01*
X858146Y488500D01*
X858477Y486834D01*
X859421Y485421D01*
X860834Y484478D01*
X862500Y484146D01*
X864166Y484478D01*
X865578Y485421D01*
X866522Y486834D01*
X866853Y488500D01*
X866522Y490166D01*
X865578Y491578D01*
X864166Y492522D01*
X862500Y492854D01*
D02*
G37*
G36*
X1148500Y494353D02*
X1146834Y494022D01*
X1145421Y493078D01*
X1144477Y491666D01*
X1144146Y490000D01*
X1144477Y488334D01*
X1145421Y486921D01*
X1146834Y485978D01*
X1148500Y485646D01*
X1150166Y485978D01*
X1151578Y486921D01*
X1152522Y488334D01*
X1152853Y490000D01*
X1152522Y491666D01*
X1151578Y493078D01*
X1150166Y494022D01*
X1148500Y494353D01*
D02*
G37*
G36*
X370770Y539959D02*
Y525000D01*
Y510040D01*
X372121Y510218D01*
X374563Y511230D01*
X376660Y512839D01*
X378270Y514936D01*
X379281Y517379D01*
X379500Y519038D01*
X380781D01*
X380956Y517710D01*
X381839Y515577D01*
X383245Y513745D01*
X385077Y512339D01*
X386910Y511580D01*
Y504500D01*
X387107Y503509D01*
X387668Y502669D01*
X394669Y495669D01*
X395509Y495107D01*
X396500Y494910D01*
X487427D01*
X489040Y493297D01*
X488301Y492397D01*
X488260Y492347D01*
X488234Y492316D01*
X488230Y492311D01*
X487906Y492527D01*
Y492527D01*
X487166Y493022D01*
X485500Y493354D01*
X483834Y493022D01*
X482421Y492078D01*
X481478Y490666D01*
X481146Y489000D01*
X481478Y487334D01*
X481910Y486687D01*
Y418073D01*
X467668Y403831D01*
X467107Y402991D01*
X466910Y402000D01*
Y386405D01*
X466421Y386078D01*
X465477Y384666D01*
X465146Y383000D01*
X465477Y381334D01*
X466421Y379921D01*
X467834Y378978D01*
X469500Y378646D01*
X471166Y378978D01*
X472578Y379921D01*
X473522Y381334D01*
X473853Y383000D01*
X473522Y384666D01*
X472578Y386078D01*
X472090Y386405D01*
Y400927D01*
X486331Y415169D01*
X486892Y416009D01*
X487090Y417000D01*
Y484962D01*
X487166Y484978D01*
X488578Y485921D01*
X489522Y487334D01*
X489853Y489000D01*
X489522Y490666D01*
X489027Y491407D01*
X489027Y491407D01*
X488811Y491730D01*
X488816Y491735D01*
X488847Y491760D01*
X488897Y491801D01*
X489797Y492540D01*
X494910Y487427D01*
Y309907D01*
X493640Y309654D01*
X493425Y310174D01*
X491796Y312296D01*
X489674Y313925D01*
X487202Y314949D01*
X485820Y315131D01*
Y305050D01*
Y294970D01*
X487202Y295152D01*
X489674Y296175D01*
X491796Y297804D01*
X493425Y299926D01*
X493640Y300446D01*
X494910Y300193D01*
Y278500D01*
X495107Y277509D01*
X495668Y276669D01*
X503261Y269076D01*
X503146Y268500D01*
X503478Y266834D01*
X504421Y265421D01*
X505834Y264478D01*
X507500Y264146D01*
X509166Y264478D01*
X510578Y265421D01*
X511522Y266834D01*
X511853Y268500D01*
X511522Y270166D01*
X510578Y271578D01*
X509325Y272416D01*
X509295Y273056D01*
X509459Y273738D01*
X510666Y273978D01*
X512078Y274921D01*
X513022Y276334D01*
X513353Y278000D01*
X513022Y279666D01*
X512078Y281078D01*
X510666Y282022D01*
X509000Y282353D01*
X507334Y282022D01*
X505921Y281078D01*
X504977Y279666D01*
X504646Y278000D01*
X504703Y277714D01*
X503680Y276347D01*
X503345Y276317D01*
X500089Y279573D01*
Y302460D01*
X501289Y302729D01*
X502185Y300567D01*
X503610Y298710D01*
X505467Y297285D01*
X507629Y296389D01*
X509950Y296083D01*
X512271Y296389D01*
X514433Y297285D01*
X516291Y298710D01*
X517715Y300567D01*
X518180Y301688D01*
X519450Y301436D01*
Y271892D01*
X518921Y271538D01*
X517977Y270126D01*
X517646Y268460D01*
X517977Y266794D01*
X518921Y265381D01*
X520334Y264438D01*
X522000Y264106D01*
X523666Y264438D01*
X525078Y265381D01*
X526022Y266794D01*
X526353Y268460D01*
X526022Y270126D01*
X525078Y271538D01*
X524630Y271838D01*
Y330548D01*
X525803Y331034D01*
X532760Y324077D01*
Y313600D01*
X530867Y312815D01*
X529010Y311390D01*
X527585Y309533D01*
X526689Y307371D01*
X526383Y305050D01*
X526689Y302729D01*
X527585Y300567D01*
X529010Y298710D01*
X530867Y297285D01*
X533029Y296389D01*
X535350Y296083D01*
X537671Y296389D01*
X539833Y297285D01*
X541690Y298710D01*
X543115Y300567D01*
X544011Y302729D01*
X544317Y305050D01*
X544011Y307371D01*
X543115Y309533D01*
X541690Y311390D01*
X539833Y312815D01*
X537940Y313600D01*
Y325150D01*
X537743Y326141D01*
X537181Y326981D01*
X528590Y335573D01*
Y448095D01*
X529078Y448421D01*
X530022Y449834D01*
X530353Y451500D01*
X530022Y453166D01*
X529078Y454578D01*
X527666Y455522D01*
X526000Y455854D01*
X524334Y455522D01*
X522921Y454578D01*
X521978Y453166D01*
X521646Y451500D01*
X521978Y449834D01*
X522921Y448421D01*
X523410Y448095D01*
Y382911D01*
X522237Y382425D01*
X514090Y390573D01*
Y392912D01*
X515210Y393511D01*
X515484Y393328D01*
X517150Y392996D01*
X518816Y393328D01*
X520228Y394272D01*
X521172Y395684D01*
X521503Y397350D01*
X521172Y399016D01*
X520228Y400429D01*
X518816Y401372D01*
X517150Y401704D01*
X515484Y401372D01*
X515210Y401189D01*
X514090Y401788D01*
Y482500D01*
X513892Y483491D01*
X513331Y484331D01*
X491331Y506331D01*
X490491Y506893D01*
X489500Y507090D01*
X413073D01*
X412090Y508073D01*
Y511580D01*
X413923Y512339D01*
X415755Y513745D01*
X417160Y515577D01*
X418044Y517710D01*
X418345Y520000D01*
Y530000D01*
X418044Y532289D01*
X417160Y534423D01*
X415755Y536255D01*
X413923Y537660D01*
X411789Y538544D01*
X409500Y538845D01*
X407210Y538544D01*
X405077Y537660D01*
X403245Y536255D01*
X401839Y534423D01*
X400956Y532289D01*
X400654Y530000D01*
Y520000D01*
X400956Y517710D01*
X401839Y515577D01*
X403245Y513745D01*
X405077Y512339D01*
X406910Y511580D01*
Y507000D01*
X407107Y506009D01*
X407668Y505169D01*
X410168Y502669D01*
X411009Y502107D01*
X412000Y501910D01*
X488020D01*
X488434Y501360D01*
X487801Y500090D01*
X397573D01*
X392090Y505573D01*
Y511580D01*
X393923Y512339D01*
X395755Y513745D01*
X397160Y515577D01*
X398044Y517710D01*
X398345Y520000D01*
Y530000D01*
X398044Y532289D01*
X397160Y534423D01*
X395755Y536255D01*
X393923Y537660D01*
X391789Y538544D01*
X389500Y538845D01*
X387210Y538544D01*
X385077Y537660D01*
X383245Y536255D01*
X381839Y534423D01*
X380956Y532289D01*
X380781Y530962D01*
X379500D01*
X379281Y532621D01*
X378270Y535063D01*
X376660Y537160D01*
X374563Y538770D01*
X372121Y539781D01*
X370770Y539959D01*
D02*
G37*
G36*
X687500Y500354D02*
X685834Y500022D01*
X684421Y499078D01*
X683477Y497666D01*
X683146Y496000D01*
X683261Y495423D01*
X678360Y490522D01*
X677089Y491048D01*
Y492595D01*
X677578Y492921D01*
X678522Y494334D01*
X678853Y496000D01*
X678522Y497666D01*
X677578Y499078D01*
X676166Y500022D01*
X674500Y500354D01*
X672834Y500022D01*
X671421Y499078D01*
X670478Y497666D01*
X670146Y496000D01*
X670478Y494334D01*
X671421Y492921D01*
X671910Y492595D01*
Y354690D01*
X671500Y354353D01*
X669834Y354022D01*
X668421Y353078D01*
X667477Y351666D01*
X667146Y350000D01*
X667477Y348334D01*
X668421Y346921D01*
X669834Y345978D01*
X671500Y345646D01*
X673166Y345978D01*
X674578Y346921D01*
X675522Y348334D01*
X675853Y350000D01*
X675739Y350576D01*
X676331Y351169D01*
X676892Y352009D01*
X677089Y353000D01*
Y365952D01*
X678360Y366478D01*
X712261Y332576D01*
X712146Y332000D01*
X712477Y330334D01*
X713421Y328921D01*
X714834Y327978D01*
X716500Y327646D01*
X718166Y327978D01*
X719578Y328921D01*
X720522Y330334D01*
X720853Y332000D01*
X720522Y333666D01*
X719578Y335078D01*
X718166Y336022D01*
X716500Y336353D01*
X715923Y336239D01*
X682089Y370073D01*
Y409721D01*
X683360Y410359D01*
X683910Y409948D01*
Y377000D01*
X684107Y376009D01*
X684669Y375169D01*
X689669Y370169D01*
X690509Y369607D01*
X691500Y369410D01*
X702095D01*
X702421Y368921D01*
X703834Y367978D01*
X705500Y367646D01*
X707166Y367978D01*
X708578Y368921D01*
X709522Y370334D01*
X709853Y372000D01*
X709522Y373666D01*
X708578Y375078D01*
X707166Y376022D01*
X705500Y376353D01*
X703834Y376022D01*
X702421Y375078D01*
X702095Y374590D01*
X692572D01*
X689090Y378073D01*
Y410595D01*
X689578Y410921D01*
X690522Y412334D01*
X690853Y414000D01*
X690522Y415666D01*
X689578Y417078D01*
X688166Y418022D01*
X686500Y418354D01*
X684834Y418022D01*
X683421Y417078D01*
X683360Y416986D01*
X682089Y417371D01*
Y486927D01*
X686923Y491761D01*
X687500Y491646D01*
X689166Y491978D01*
X690578Y492921D01*
X691522Y494334D01*
X691853Y496000D01*
X691522Y497666D01*
X690578Y499078D01*
X689166Y500022D01*
X687500Y500354D01*
D02*
G37*
G36*
X1152500Y482354D02*
X1150834Y482022D01*
X1149421Y481078D01*
X1148705Y480007D01*
X1148486Y479944D01*
X1147514D01*
X1147294Y480007D01*
X1146578Y481078D01*
X1145166Y482022D01*
X1143500Y482354D01*
X1141834Y482022D01*
X1140421Y481078D01*
X1139477Y479666D01*
X1139146Y478000D01*
X1139477Y476334D01*
X1140421Y474921D01*
X1141834Y473978D01*
X1143500Y473646D01*
X1145166Y473978D01*
X1146578Y474921D01*
X1147294Y475993D01*
X1147514Y476056D01*
X1148486D01*
X1148705Y475993D01*
X1149421Y474921D01*
X1150834Y473978D01*
X1152500Y473646D01*
X1154166Y473978D01*
X1155578Y474921D01*
X1156522Y476334D01*
X1156853Y478000D01*
X1156522Y479666D01*
X1155578Y481078D01*
X1154166Y482022D01*
X1152500Y482354D01*
D02*
G37*
G36*
X839500Y475854D02*
X837834Y475522D01*
X836421Y474578D01*
X835478Y473166D01*
X835146Y471500D01*
X835478Y469834D01*
X836421Y468421D01*
X837834Y467478D01*
X839500Y467146D01*
X841166Y467478D01*
X842578Y468421D01*
X843522Y469834D01*
X843853Y471500D01*
X843522Y473166D01*
X842578Y474578D01*
X841166Y475522D01*
X839500Y475854D01*
D02*
G37*
G36*
X970499Y471353D02*
X968832Y471022D01*
X967420Y470078D01*
X966476Y468665D01*
X966145Y466999D01*
X966476Y465333D01*
X967420Y463921D01*
X968832Y462977D01*
X970499Y462646D01*
X972165Y462977D01*
X973577Y463921D01*
X974521Y465333D01*
X974852Y466999D01*
X974521Y468665D01*
X973577Y470078D01*
X972165Y471022D01*
X970499Y471353D01*
D02*
G37*
G36*
X946598Y475952D02*
X944932Y475620D01*
X943519Y474677D01*
X942576Y473264D01*
X942244Y471598D01*
X942576Y469932D01*
X943519Y468520D01*
X944932Y467576D01*
X946598Y467244D01*
X948264Y467576D01*
X949676Y468520D01*
X950620Y469932D01*
X950952Y471598D01*
X950620Y473264D01*
X949676Y474677D01*
X948264Y475620D01*
X946598Y475952D01*
D02*
G37*
G36*
X980499Y481853D02*
X978832Y481521D01*
X977420Y480578D01*
X976476Y479165D01*
X976145Y477499D01*
X976476Y475833D01*
X977420Y474421D01*
X978832Y473477D01*
X980499Y473146D01*
X982165Y473477D01*
X983577Y474421D01*
X984521Y475833D01*
X984852Y477499D01*
X984521Y479165D01*
X983577Y480578D01*
X982165Y481521D01*
X980499Y481853D01*
D02*
G37*
G36*
X735500Y477354D02*
X733834Y477022D01*
X732421Y476078D01*
X731478Y474666D01*
X731146Y473000D01*
X731478Y471334D01*
X732421Y469921D01*
X733834Y468978D01*
X735500Y468646D01*
X737166Y468978D01*
X738578Y469921D01*
X739522Y471334D01*
X739853Y473000D01*
X739522Y474666D01*
X738578Y476078D01*
X737166Y477022D01*
X735500Y477354D01*
D02*
G37*
G36*
X368230Y523730D02*
X359373D01*
Y520000D01*
X359718Y517379D01*
X360730Y514936D01*
X362339Y512839D01*
X364436Y511230D01*
X366879Y510218D01*
X368230Y510040D01*
Y523730D01*
D02*
G37*
G36*
X1049850Y557217D02*
X1047529Y556911D01*
X1045366Y556015D01*
X1043509Y554590D01*
X1042084Y552733D01*
X1041189Y550571D01*
X1040883Y548250D01*
X1041189Y545929D01*
X1042084Y543767D01*
X1043509Y541909D01*
X1045366Y540485D01*
X1047529Y539589D01*
X1049850Y539283D01*
X1052170Y539589D01*
X1054333Y540485D01*
X1056190Y541909D01*
X1057615Y543767D01*
X1058511Y545929D01*
X1058816Y548250D01*
X1058511Y550571D01*
X1057615Y552733D01*
X1056190Y554590D01*
X1054333Y556015D01*
X1052170Y556911D01*
X1049850Y557217D01*
D02*
G37*
G36*
X894830Y546980D02*
X886020D01*
Y538169D01*
X887402Y538351D01*
X889874Y539375D01*
X891996Y541004D01*
X893624Y543126D01*
X894648Y545598D01*
X894830Y546980D01*
D02*
G37*
G36*
X1075250Y557217D02*
X1072929Y556911D01*
X1070766Y556015D01*
X1068909Y554590D01*
X1067484Y552733D01*
X1066589Y550571D01*
X1066283Y548250D01*
X1066589Y545929D01*
X1067484Y543767D01*
X1068909Y541909D01*
X1070766Y540485D01*
X1072929Y539589D01*
X1075250Y539283D01*
X1077570Y539589D01*
X1079733Y540485D01*
X1081590Y541909D01*
X1083015Y543767D01*
X1083911Y545929D01*
X1084216Y548250D01*
X1083911Y550571D01*
X1083015Y552733D01*
X1081590Y554590D01*
X1079733Y556015D01*
X1077570Y556911D01*
X1075250Y557217D01*
D02*
G37*
G36*
X1134940Y557140D02*
X1117160D01*
Y539360D01*
X1134940D01*
Y557140D01*
D02*
G37*
G36*
X1100650Y557217D02*
X1098329Y556911D01*
X1096166Y556015D01*
X1094309Y554590D01*
X1092884Y552733D01*
X1091989Y550571D01*
X1091683Y548250D01*
X1091989Y545929D01*
X1092884Y543767D01*
X1094309Y541909D01*
X1096166Y540485D01*
X1098329Y539589D01*
X1100650Y539283D01*
X1102971Y539589D01*
X1105133Y540485D01*
X1106990Y541909D01*
X1108415Y543767D01*
X1109311Y545929D01*
X1109616Y548250D01*
X1109311Y550571D01*
X1108415Y552733D01*
X1106990Y554590D01*
X1105133Y556015D01*
X1102971Y556911D01*
X1100650Y557217D01*
D02*
G37*
G36*
X883480Y546980D02*
X874669D01*
X874851Y545598D01*
X875875Y543126D01*
X877504Y541004D01*
X879626Y539375D01*
X882097Y538351D01*
X883480Y538169D01*
Y546980D01*
D02*
G37*
G36*
X559500Y546349D02*
X556310Y546034D01*
X553243Y545104D01*
X550417Y543593D01*
X547939Y541560D01*
X545906Y539083D01*
X544395Y536256D01*
X543465Y533189D01*
X543151Y530000D01*
X543465Y526810D01*
X544395Y523744D01*
X545906Y520917D01*
X547939Y518440D01*
X550417Y516406D01*
X553243Y514896D01*
X556310Y513965D01*
X559500Y513651D01*
X562689Y513965D01*
X565756Y514896D01*
X568583Y516406D01*
X571060Y518440D01*
X573093Y520917D01*
X574604Y523744D01*
X575534Y526810D01*
X575849Y530000D01*
X575534Y533189D01*
X574604Y536256D01*
X573093Y539083D01*
X571060Y541560D01*
X568583Y543593D01*
X565756Y545104D01*
X562689Y546034D01*
X559500Y546349D01*
D02*
G37*
G36*
X429500Y538845D02*
X427210Y538544D01*
X425077Y537660D01*
X423245Y536255D01*
X421839Y534423D01*
X420956Y532289D01*
X420654Y530000D01*
Y520000D01*
X420956Y517710D01*
X421839Y515577D01*
X423245Y513745D01*
X425077Y512339D01*
X427210Y511456D01*
X429500Y511154D01*
X431789Y511456D01*
X433923Y512339D01*
X435755Y513745D01*
X437160Y515577D01*
X438044Y517710D01*
X438345Y520000D01*
Y530000D01*
X438044Y532289D01*
X437160Y534423D01*
X435755Y536255D01*
X433923Y537660D01*
X431789Y538544D01*
X429500Y538845D01*
D02*
G37*
G36*
X586500Y529353D02*
X584834Y529022D01*
X583421Y528078D01*
X582477Y526666D01*
X582146Y525000D01*
X582477Y523334D01*
X583421Y521921D01*
X584834Y520978D01*
X586500Y520646D01*
X588166Y520978D01*
X589578Y521921D01*
X590522Y523334D01*
X590853Y525000D01*
X590522Y526666D01*
X589578Y528078D01*
X588166Y529022D01*
X586500Y529353D01*
D02*
G37*
G36*
X368230Y539959D02*
X366879Y539781D01*
X364436Y538770D01*
X362339Y537160D01*
X360730Y535063D01*
X359718Y532621D01*
X359373Y530000D01*
Y526270D01*
X368230D01*
Y539959D01*
D02*
G37*
G36*
X1100000Y529854D02*
X1098334Y529522D01*
X1096921Y528578D01*
X1095977Y527166D01*
X1095646Y525500D01*
X1095977Y523834D01*
X1096921Y522421D01*
X1098334Y521478D01*
X1100000Y521146D01*
X1101666Y521478D01*
X1103078Y522421D01*
X1104022Y523834D01*
X1104353Y525500D01*
X1104022Y527166D01*
X1103078Y528578D01*
X1101666Y529522D01*
X1100000Y529854D01*
D02*
G37*
G36*
X474500Y434353D02*
X472834Y434022D01*
X471421Y433078D01*
X470477Y431666D01*
X470146Y430000D01*
X470477Y428334D01*
X471421Y426921D01*
X472834Y425978D01*
X474500Y425646D01*
X476166Y425978D01*
X477578Y426921D01*
X478522Y428334D01*
X478853Y430000D01*
X478522Y431666D01*
X477578Y433078D01*
X476166Y434022D01*
X474500Y434353D01*
D02*
G37*
G36*
X980499Y460853D02*
X978832Y460522D01*
X977420Y459578D01*
X977094Y459089D01*
X971999D01*
X971008Y458892D01*
X970168Y458331D01*
X963127Y451290D01*
X962566Y450450D01*
X962369Y449459D01*
Y441541D01*
X962566Y440550D01*
X963127Y439710D01*
X972188Y430650D01*
X972157Y430318D01*
X970786Y429296D01*
X970499Y429353D01*
X968832Y429022D01*
X967420Y428078D01*
X967094Y427589D01*
X954500D01*
X953509Y427392D01*
X952668Y426831D01*
X932669Y406831D01*
X932107Y405991D01*
X931910Y405000D01*
Y373884D01*
X930640Y373205D01*
X930166Y373522D01*
X928500Y373853D01*
X926834Y373522D01*
X925421Y372578D01*
X924477Y371166D01*
X924146Y369500D01*
X924477Y367834D01*
X925421Y366421D01*
X926834Y365477D01*
X928500Y365146D01*
X930166Y365477D01*
X930640Y365794D01*
X931910Y365116D01*
Y351073D01*
X928427Y347590D01*
X904500D01*
X903509Y347393D01*
X902669Y346831D01*
X890047Y334210D01*
X861332D01*
X860341Y334012D01*
X859501Y333451D01*
X849639Y323590D01*
X816572D01*
X804090Y336073D01*
Y353595D01*
X804578Y353921D01*
X805522Y355334D01*
X805853Y357000D01*
X805522Y358666D01*
X804578Y360078D01*
X803166Y361022D01*
X801500Y361353D01*
X799834Y361022D01*
X798421Y360078D01*
X797477Y358666D01*
X797146Y357000D01*
X797477Y355334D01*
X798421Y353921D01*
X798910Y353595D01*
Y335000D01*
X799107Y334009D01*
X799669Y333169D01*
X813669Y319169D01*
X814509Y318607D01*
X815500Y318410D01*
X848188D01*
X848674Y317237D01*
X844364Y312927D01*
X842471Y313711D01*
X840150Y314017D01*
X837829Y313711D01*
X835667Y312815D01*
X833810Y311390D01*
X832385Y309533D01*
X831489Y307371D01*
X831183Y305050D01*
X831489Y302729D01*
X832385Y300567D01*
X833810Y298710D01*
X835667Y297285D01*
X837829Y296389D01*
X840150Y296083D01*
X842471Y296389D01*
X844633Y297285D01*
X846490Y298710D01*
X847915Y300567D01*
X848811Y302729D01*
X849117Y305050D01*
X848811Y307371D01*
X848027Y309264D01*
X863983Y325220D01*
X880398D01*
X880884Y324047D01*
X869764Y312927D01*
X867871Y313711D01*
X865550Y314017D01*
X863229Y313711D01*
X861067Y312815D01*
X859210Y311390D01*
X857785Y309533D01*
X856889Y307371D01*
X856583Y305050D01*
X856889Y302729D01*
X857785Y300567D01*
X859210Y298710D01*
X861067Y297285D01*
X863229Y296389D01*
X865550Y296083D01*
X867871Y296389D01*
X870033Y297285D01*
X871890Y298710D01*
X873315Y300567D01*
X874211Y302729D01*
X874517Y305050D01*
X874211Y307371D01*
X873427Y309264D01*
X885573Y321410D01*
X892451D01*
X892978Y320140D01*
X890668Y317831D01*
X890107Y316991D01*
X889910Y316000D01*
Y313880D01*
X888629Y313711D01*
X886467Y312815D01*
X884610Y311390D01*
X883185Y309533D01*
X882289Y307371D01*
X881983Y305050D01*
X882289Y302729D01*
X883185Y300567D01*
X884610Y298710D01*
X886467Y297285D01*
X888629Y296389D01*
X890950Y296083D01*
X893271Y296389D01*
X895433Y297285D01*
X897290Y298710D01*
X898715Y300567D01*
X899611Y302729D01*
X899917Y305050D01*
X899611Y307371D01*
X898715Y309533D01*
X897290Y311390D01*
X895433Y312815D01*
X895089Y312958D01*
Y314927D01*
X897113Y316950D01*
X900688D01*
X901074Y315680D01*
X900921Y315578D01*
X899977Y314166D01*
X899646Y312500D01*
X899977Y310834D01*
X900921Y309421D01*
X901410Y309095D01*
Y277405D01*
X900921Y277078D01*
X899977Y275666D01*
X899646Y274000D01*
X899977Y272334D01*
X900921Y270921D01*
X902334Y269978D01*
X904000Y269646D01*
X905666Y269978D01*
X907078Y270921D01*
X908022Y272334D01*
X908353Y274000D01*
X908022Y275666D01*
X907078Y277078D01*
X906590Y277405D01*
Y302065D01*
X907859Y302317D01*
X908585Y300567D01*
X910010Y298710D01*
X911867Y297285D01*
X913596Y296568D01*
X913466Y295247D01*
X912334Y295022D01*
X910921Y294078D01*
X909977Y292666D01*
X909646Y291000D01*
X909977Y289334D01*
X910921Y287921D01*
X912334Y286978D01*
X914000Y286646D01*
X915666Y286978D01*
X917078Y287921D01*
X918022Y289334D01*
X918353Y291000D01*
X918022Y292666D01*
X917078Y294078D01*
X916670Y294351D01*
X916941Y295698D01*
X917526Y295811D01*
X921668Y291669D01*
X922509Y291107D01*
X923500Y290910D01*
X948500D01*
X949491Y291107D01*
X950331Y291669D01*
X955831Y297169D01*
X956392Y298009D01*
X956590Y299000D01*
Y312619D01*
X956990Y312894D01*
X958260Y312225D01*
Y296160D01*
X976040D01*
Y310278D01*
X1016140Y350378D01*
X1017410Y349851D01*
Y329073D01*
X999676Y311339D01*
X998890Y311390D01*
X997033Y312815D01*
X994871Y313711D01*
X992550Y314017D01*
X990229Y313711D01*
X988067Y312815D01*
X986210Y311390D01*
X984785Y309533D01*
X983889Y307371D01*
X983583Y305050D01*
X983889Y302729D01*
X984785Y300567D01*
X986210Y298710D01*
X988067Y297285D01*
X990229Y296389D01*
X992550Y296083D01*
X994871Y296389D01*
X997033Y297285D01*
X998891Y298710D01*
X1000315Y300567D01*
X1001211Y302729D01*
X1001517Y305050D01*
X1001423Y305761D01*
X1020237Y324574D01*
X1021410Y324088D01*
Y314382D01*
X1020563Y313817D01*
X1020140Y313728D01*
X1017950Y314017D01*
X1015629Y313711D01*
X1013467Y312815D01*
X1011610Y311390D01*
X1010185Y309533D01*
X1009289Y307371D01*
X1008983Y305050D01*
X1009289Y302729D01*
X1010185Y300567D01*
X1011610Y298710D01*
X1013467Y297285D01*
X1015629Y296389D01*
X1017950Y296083D01*
X1020271Y296389D01*
X1022433Y297285D01*
X1024290Y298710D01*
X1025715Y300567D01*
X1026611Y302729D01*
X1026917Y305050D01*
X1026611Y307371D01*
X1025827Y309264D01*
X1025831Y309268D01*
X1026392Y310109D01*
X1026590Y311100D01*
Y327452D01*
X1027859Y327978D01*
X1040760Y315077D01*
Y313600D01*
X1038867Y312815D01*
X1037010Y311390D01*
X1035585Y309533D01*
X1034689Y307371D01*
X1034383Y305050D01*
X1034689Y302729D01*
X1035585Y300567D01*
X1037010Y298710D01*
X1038867Y297285D01*
X1041029Y296389D01*
X1043350Y296083D01*
X1045671Y296389D01*
X1047833Y297285D01*
X1049690Y298710D01*
X1051115Y300567D01*
X1052011Y302729D01*
X1052317Y305050D01*
X1052011Y307371D01*
X1051115Y309533D01*
X1049690Y311390D01*
X1047833Y312815D01*
X1045940Y313600D01*
Y316150D01*
X1045743Y317141D01*
X1045181Y317981D01*
X1031089Y332073D01*
Y445261D01*
X1032078Y445921D01*
X1033022Y447334D01*
X1033353Y449000D01*
X1033022Y450666D01*
X1032078Y452078D01*
X1030666Y453022D01*
X1029000Y453354D01*
X1027334Y453022D01*
X1025921Y452078D01*
X1024977Y450666D01*
X1024646Y449000D01*
X1024977Y447334D01*
X1025910Y445938D01*
Y428548D01*
X1024640Y428022D01*
X1008331Y444331D01*
X1008158Y444447D01*
X1008079Y445901D01*
X1008108Y445966D01*
X1009022Y447334D01*
X1009353Y449000D01*
X1009022Y450666D01*
X1008078Y452078D01*
X1006666Y453022D01*
X1005000Y453354D01*
X1003334Y453022D01*
X1001921Y452078D01*
X1000977Y450666D01*
X1000646Y449000D01*
X1000977Y447334D01*
X1001628Y446360D01*
X1001054Y445090D01*
X989945D01*
X989371Y446360D01*
X990022Y447334D01*
X990353Y449000D01*
X990022Y450666D01*
X989078Y452078D01*
X987666Y453022D01*
X986000Y453354D01*
X984915Y453138D01*
X984152Y454281D01*
X984521Y454833D01*
X984852Y456499D01*
X984521Y458166D01*
X983577Y459578D01*
X982165Y460522D01*
X980499Y460853D01*
D02*
G37*
G36*
X633500Y443354D02*
X631834Y443022D01*
X630421Y442078D01*
X629478Y440666D01*
X629146Y439000D01*
X629478Y437334D01*
X630421Y435921D01*
X631834Y434978D01*
X633500Y434646D01*
X635166Y434978D01*
X636578Y435921D01*
X637522Y437334D01*
X637853Y439000D01*
X637522Y440666D01*
X636578Y442078D01*
X635166Y443022D01*
X633500Y443354D01*
D02*
G37*
G36*
X449000Y432854D02*
X447334Y432522D01*
X445921Y431578D01*
X444977Y430166D01*
X444646Y428500D01*
X444761Y427923D01*
X444569Y427732D01*
X444008Y426892D01*
X443811Y425900D01*
Y413520D01*
X442771Y413148D01*
X442541Y413103D01*
X441166Y414022D01*
X439500Y414353D01*
X437834Y414022D01*
X436421Y413078D01*
X435477Y411666D01*
X435146Y410000D01*
X435477Y408334D01*
X436421Y406921D01*
X437834Y405978D01*
X439500Y405646D01*
X441166Y405978D01*
X442541Y406896D01*
X442771Y406852D01*
X443811Y406480D01*
Y306472D01*
X442541Y306389D01*
X442411Y307371D01*
X441515Y309533D01*
X440090Y311390D01*
X438233Y312815D01*
X436071Y313711D01*
X433750Y314017D01*
X431429Y313711D01*
X429267Y312815D01*
X427410Y311390D01*
X426519Y310230D01*
X425114Y310485D01*
X424708Y311826D01*
X423071Y314887D01*
X420869Y317570D01*
X418187Y319771D01*
X415126Y321408D01*
X411804Y322415D01*
X408350Y322755D01*
X404896Y322415D01*
X401575Y321408D01*
X398513Y319771D01*
X395830Y317570D01*
X393629Y314887D01*
X392061Y311953D01*
X391226Y311676D01*
X390740Y311588D01*
X390196Y312296D01*
X388074Y313925D01*
X385602Y314949D01*
X384220Y315131D01*
Y305050D01*
Y294970D01*
X385602Y295152D01*
X388074Y296175D01*
X390196Y297804D01*
X390740Y298512D01*
X391226Y298424D01*
X392061Y298147D01*
X393629Y295214D01*
X395830Y292530D01*
X398513Y290329D01*
X401575Y288692D01*
X404896Y287685D01*
X408350Y287345D01*
X411804Y287685D01*
X415126Y288692D01*
X418187Y290329D01*
X420869Y292530D01*
X423071Y295214D01*
X424708Y298274D01*
X425114Y299615D01*
X426519Y299870D01*
X427410Y298710D01*
X429267Y297285D01*
X431429Y296389D01*
X433750Y296083D01*
X436071Y296389D01*
X438233Y297285D01*
X440090Y298710D01*
X441515Y300567D01*
X442411Y302729D01*
X442541Y303711D01*
X443811Y303628D01*
Y292339D01*
X443421Y292078D01*
X442477Y290666D01*
X442146Y289000D01*
X442477Y287334D01*
X443421Y285921D01*
X444834Y284978D01*
X446500Y284646D01*
X448166Y284978D01*
X449578Y285921D01*
X450522Y287334D01*
X450853Y289000D01*
X450522Y290666D01*
X449578Y292078D01*
X448990Y292471D01*
Y303330D01*
X449441Y304414D01*
X450254Y304467D01*
X450256Y304467D01*
X450260Y304467D01*
X450260Y304467D01*
X450260Y304466D01*
X450269Y304397D01*
Y304397D01*
X450489Y302729D01*
X451385Y300567D01*
X452810Y298710D01*
X454667Y297285D01*
X456829Y296389D01*
X459150Y296083D01*
X461471Y296389D01*
X463633Y297285D01*
X465490Y298710D01*
X466915Y300567D01*
X467811Y302729D01*
X468117Y305050D01*
X467811Y307371D01*
X466915Y309533D01*
X465490Y311390D01*
X463633Y312815D01*
X461471Y313711D01*
X459150Y314017D01*
X456829Y313711D01*
X454667Y312815D01*
X452810Y311390D01*
X451385Y309533D01*
X450489Y307371D01*
X450269Y305703D01*
Y305703D01*
X450260Y305634D01*
X450260Y305633D01*
X450260Y305633D01*
X450256Y305633D01*
X450254Y305633D01*
X449441Y305686D01*
X448990Y306770D01*
Y424138D01*
X449000Y424146D01*
X450666Y424478D01*
X452078Y425421D01*
X453022Y426834D01*
X453353Y428500D01*
X453022Y430166D01*
X452078Y431578D01*
X450666Y432522D01*
X449000Y432854D01*
D02*
G37*
G36*
X585500Y404353D02*
X583834Y404022D01*
X582421Y403078D01*
X581478Y401666D01*
X581146Y400000D01*
X581478Y398334D01*
X582421Y396921D01*
X583834Y395978D01*
X585500Y395646D01*
X587166Y395978D01*
X588578Y396921D01*
X589522Y398334D01*
X589853Y400000D01*
X589522Y401666D01*
X588578Y403078D01*
X587166Y404022D01*
X585500Y404353D01*
D02*
G37*
G36*
X1084500Y438349D02*
X1081310Y438034D01*
X1078243Y437104D01*
X1075417Y435593D01*
X1072940Y433560D01*
X1070906Y431083D01*
X1069396Y428256D01*
X1068465Y425189D01*
X1068151Y422000D01*
X1068465Y418810D01*
X1069396Y415743D01*
X1070906Y412917D01*
X1072940Y410440D01*
X1075417Y408406D01*
X1078243Y406896D01*
X1081310Y405965D01*
X1084500Y405651D01*
X1087689Y405965D01*
X1090756Y406896D01*
X1093583Y408406D01*
X1096060Y410440D01*
X1098093Y412917D01*
X1099604Y415743D01*
X1100534Y418810D01*
X1100848Y422000D01*
X1100534Y425189D01*
X1099604Y428256D01*
X1098093Y431083D01*
X1096060Y433560D01*
X1093583Y435593D01*
X1090756Y437104D01*
X1087689Y438034D01*
X1084500Y438349D01*
D02*
G37*
G36*
X864776Y418550D02*
X863110Y418219D01*
X861698Y417275D01*
X860754Y415863D01*
X860423Y414197D01*
X860754Y412531D01*
X861698Y411118D01*
X863110Y410175D01*
X864776Y409843D01*
X866442Y410175D01*
X867855Y411118D01*
X868799Y412531D01*
X869130Y414197D01*
X868799Y415863D01*
X867855Y417275D01*
X866442Y418219D01*
X864776Y418550D01*
D02*
G37*
G36*
X641250Y510603D02*
X639584Y510272D01*
X638171Y509328D01*
X637228Y507916D01*
X636896Y506250D01*
X637228Y504584D01*
X638171Y503171D01*
X638660Y502845D01*
Y453439D01*
X638857Y452448D01*
X639418Y451608D01*
X642875Y448152D01*
X642645Y447000D01*
X642977Y445333D01*
X643921Y443921D01*
X645333Y442977D01*
X646999Y442646D01*
X648665Y442977D01*
X650078Y443921D01*
X651021Y445333D01*
X651353Y447000D01*
X651021Y448666D01*
X650078Y450078D01*
X648665Y451022D01*
X646999Y451353D01*
X646999Y451353D01*
X643839Y454512D01*
Y502845D01*
X644328Y503171D01*
X645272Y504584D01*
X645603Y506250D01*
X645272Y507916D01*
X644328Y509328D01*
X642916Y510272D01*
X641250Y510603D01*
D02*
G37*
G36*
X585500Y462354D02*
X583834Y462022D01*
X582421Y461078D01*
X581478Y459666D01*
X581146Y458000D01*
X581478Y456334D01*
X582421Y454921D01*
X583834Y453978D01*
X585500Y453646D01*
X587166Y453978D01*
X588578Y454921D01*
X589522Y456334D01*
X589853Y458000D01*
X589522Y459666D01*
X588578Y461078D01*
X587166Y462022D01*
X585500Y462354D01*
D02*
G37*
G36*
X730000Y467854D02*
X728334Y467522D01*
X726921Y466578D01*
X726595Y466090D01*
X714500D01*
X713509Y465892D01*
X712669Y465331D01*
X695168Y447831D01*
X694607Y446991D01*
X694410Y446000D01*
Y395905D01*
X693921Y395578D01*
X692977Y394166D01*
X692646Y392500D01*
X692977Y390834D01*
X693921Y389421D01*
X695334Y388478D01*
X697000Y388146D01*
X698666Y388478D01*
X700078Y389421D01*
X701022Y390834D01*
X701353Y392500D01*
X701022Y394166D01*
X700078Y395578D01*
X699589Y395905D01*
Y444927D01*
X715573Y460910D01*
X726595D01*
X726921Y460421D01*
X728334Y459478D01*
X730000Y459146D01*
X731666Y459478D01*
X733078Y460421D01*
X734022Y461834D01*
X734353Y463500D01*
X734022Y465166D01*
X733078Y466578D01*
X731666Y467522D01*
X730000Y467854D01*
D02*
G37*
G36*
X1046500Y465354D02*
X1044834Y465022D01*
X1043421Y464078D01*
X1042477Y462666D01*
X1042146Y461000D01*
X1042477Y459334D01*
X1043421Y457921D01*
X1044834Y456978D01*
X1046500Y456646D01*
X1048166Y456978D01*
X1049578Y457921D01*
X1050522Y459334D01*
X1050853Y461000D01*
X1050522Y462666D01*
X1049578Y464078D01*
X1048166Y465022D01*
X1046500Y465354D01*
D02*
G37*
G36*
X859000Y454522D02*
X857334Y454190D01*
X855921Y453246D01*
X854977Y451834D01*
X854646Y450168D01*
X854977Y448502D01*
X855921Y447090D01*
X857334Y446146D01*
X859000Y445814D01*
X860666Y446146D01*
X862078Y447090D01*
X863022Y448502D01*
X863353Y450168D01*
X863022Y451834D01*
X862078Y453246D01*
X860666Y454190D01*
X859000Y454522D01*
D02*
G37*
G36*
X1124500Y458354D02*
X1122834Y458022D01*
X1121421Y457078D01*
X1120478Y455666D01*
X1120146Y454000D01*
X1120478Y452334D01*
X1121421Y450921D01*
X1122834Y449978D01*
X1124500Y449646D01*
X1126166Y449978D01*
X1127578Y450921D01*
X1128522Y452334D01*
X1128853Y454000D01*
X1128522Y455666D01*
X1127578Y457078D01*
X1126166Y458022D01*
X1124500Y458354D01*
D02*
G37*
%LPD*%
G36*
X1012410Y362700D02*
Y353973D01*
X972378Y313940D01*
X959281D01*
X959281Y313940D01*
X959266D01*
X959250D01*
X958721Y315137D01*
X959332Y315910D01*
X962888D01*
X963879Y316107D01*
X964719Y316669D01*
X1011237Y363186D01*
X1012410Y362700D01*
D02*
G37*
G36*
X508910Y481427D02*
Y389500D01*
X509107Y388509D01*
X509669Y387669D01*
X519450Y377887D01*
Y374511D01*
X518330Y373913D01*
X518166Y374022D01*
X516500Y374353D01*
X514834Y374022D01*
X513421Y373078D01*
X512477Y371666D01*
X512146Y370000D01*
X512477Y368334D01*
X513421Y366921D01*
X514834Y365978D01*
X516500Y365646D01*
X518166Y365978D01*
X518330Y366087D01*
X519450Y365489D01*
Y308664D01*
X518180Y308412D01*
X517715Y309533D01*
X516291Y311390D01*
X514433Y312815D01*
X512271Y313711D01*
X509950Y314017D01*
X507629Y313711D01*
X505467Y312815D01*
X503610Y311390D01*
X502185Y309533D01*
X501289Y307371D01*
X500089Y307640D01*
Y488452D01*
X500197Y488551D01*
X501272Y489065D01*
X508910Y481427D01*
D02*
G37*
G36*
X976668Y406169D02*
X977509Y405607D01*
X978500Y405410D01*
X997927D01*
X1002410Y400927D01*
Y398405D01*
X1001921Y398078D01*
X1000977Y396666D01*
X1000646Y395000D01*
X1000817Y394141D01*
X999647Y393516D01*
X997831Y395331D01*
X996991Y395892D01*
X996000Y396090D01*
X983904D01*
X983577Y396578D01*
X982165Y397522D01*
X980499Y397854D01*
X978832Y397522D01*
X977420Y396578D01*
X976476Y395166D01*
X976145Y393500D01*
X976201Y393216D01*
X975178Y391851D01*
X974840Y391822D01*
X973088Y393574D01*
Y400595D01*
X973577Y400921D01*
X974521Y402334D01*
X974852Y404000D01*
X974521Y405666D01*
X974439Y405788D01*
X975032Y407188D01*
X975554Y407283D01*
X976668Y406169D01*
D02*
G37*
G36*
X1004410Y381427D02*
Y369073D01*
X994097Y358759D01*
X992719Y359177D01*
X992522Y360166D01*
X991578Y361578D01*
X990166Y362522D01*
X988500Y362854D01*
X988055Y362765D01*
X987089Y363868D01*
Y378500D01*
X986892Y379491D01*
X986331Y380331D01*
X985015Y381647D01*
X985641Y382817D01*
X986500Y382646D01*
X988166Y382978D01*
X989578Y383921D01*
X990522Y385334D01*
X990853Y387000D01*
X990522Y388666D01*
X989871Y389640D01*
X990445Y390910D01*
X994927D01*
X1004410Y381427D01*
D02*
G37*
G36*
X982208Y420629D02*
X983049Y420067D01*
X984040Y419870D01*
X1007467D01*
X1012410Y414927D01*
Y407411D01*
X1011237Y406925D01*
X1001831Y416331D01*
X1000991Y416892D01*
X1000000Y417090D01*
X983904D01*
X983577Y417578D01*
X982165Y418522D01*
X980499Y418853D01*
X978832Y418522D01*
X977420Y417578D01*
X976476Y416166D01*
X976145Y414500D01*
X976188Y414282D01*
X975130Y413090D01*
X966000D01*
X965009Y412892D01*
X964168Y412331D01*
X950299Y398462D01*
X949399Y399201D01*
X949349Y399242D01*
X949318Y399267D01*
X949313Y399272D01*
X949529Y399595D01*
Y399595D01*
X950024Y400336D01*
X950356Y402002D01*
X950024Y403668D01*
X949080Y405081D01*
X947668Y406024D01*
X946002Y406356D01*
X944336Y406024D01*
X942923Y405081D01*
X941980Y403668D01*
X941648Y402002D01*
X941980Y400336D01*
X942923Y398924D01*
X944336Y397980D01*
X946002Y397649D01*
X947668Y397980D01*
X948409Y398475D01*
Y398475D01*
X948732Y398691D01*
X948737Y398686D01*
X948762Y398655D01*
X948803Y398605D01*
X949542Y397705D01*
X938668Y386831D01*
X938360Y386369D01*
X937089Y386754D01*
Y403927D01*
X955572Y422410D01*
X967094D01*
X967420Y421921D01*
X968832Y420977D01*
X970499Y420646D01*
X972165Y420977D01*
X973577Y421921D01*
X974521Y423334D01*
X974852Y425000D01*
X974795Y425288D01*
X975817Y426658D01*
X976148Y426689D01*
X982208Y420629D01*
D02*
G37*
G36*
X928262Y341140D02*
X927421Y340578D01*
X926478Y339166D01*
X926146Y337500D01*
X926261Y336923D01*
X919737Y330400D01*
X895221D01*
X894735Y331573D01*
X905573Y342410D01*
X909305D01*
X909430Y341140D01*
X908834Y341021D01*
X907421Y340078D01*
X906478Y338665D01*
X906146Y336999D01*
X906478Y335333D01*
X907421Y333921D01*
X908834Y332977D01*
X910500Y332646D01*
X912166Y332977D01*
X913578Y333921D01*
X914522Y335333D01*
X914853Y336999D01*
X914522Y338665D01*
X913578Y340078D01*
X912166Y341021D01*
X911569Y341140D01*
X911694Y342410D01*
X927877D01*
X928262Y341140D01*
D02*
G37*
G36*
X965178Y405648D02*
X966201Y404284D01*
X966145Y404000D01*
X966476Y402334D01*
X967420Y400921D01*
X967909Y400595D01*
Y392501D01*
X968106Y391510D01*
X968667Y390670D01*
X970739Y388598D01*
X970633Y388050D01*
X970239Y387302D01*
X968832Y387022D01*
X967420Y386078D01*
X966476Y384666D01*
X966145Y383000D01*
X966476Y381334D01*
X967420Y379921D01*
X968832Y378978D01*
X970499Y378646D01*
X972165Y378978D01*
X973577Y379921D01*
X974521Y381334D01*
X974801Y382741D01*
X975549Y383135D01*
X976096Y383241D01*
X981910Y377427D01*
Y370697D01*
X980640Y370572D01*
X980522Y371166D01*
X979578Y372578D01*
X978166Y373522D01*
X976500Y373853D01*
X974834Y373522D01*
X973421Y372578D01*
X972477Y371166D01*
X972146Y369500D01*
X972477Y367834D01*
X973421Y366421D01*
X974834Y365477D01*
X976500Y365146D01*
X978166Y365477D01*
X979578Y366421D01*
X980522Y367834D01*
X980640Y368428D01*
X981910Y368302D01*
Y364573D01*
X955097Y337759D01*
X953719Y338177D01*
X953522Y339166D01*
X952578Y340578D01*
X951166Y341522D01*
X949500Y341853D01*
X947834Y341522D01*
X946421Y340578D01*
X945478Y339166D01*
X945146Y337500D01*
X945261Y336923D01*
X934927Y326590D01*
X924911D01*
X924425Y327763D01*
X929923Y333261D01*
X930500Y333146D01*
X932166Y333478D01*
X933578Y334421D01*
X934522Y335834D01*
X934853Y337500D01*
X934739Y338076D01*
X961830Y365167D01*
X962391Y366007D01*
X962588Y366999D01*
Y373595D01*
X963077Y373921D01*
X964021Y375334D01*
X964352Y377000D01*
X964021Y378666D01*
X963077Y380078D01*
X961665Y381022D01*
X959998Y381353D01*
X958332Y381022D01*
X956920Y380078D01*
X955976Y378666D01*
X955645Y377000D01*
X955976Y375334D01*
X956920Y373921D01*
X957409Y373595D01*
Y370198D01*
X956139Y370073D01*
X956021Y370666D01*
X955077Y372078D01*
X953665Y373022D01*
X951999Y373353D01*
X950332Y373022D01*
X948920Y372078D01*
X947976Y370666D01*
X947645Y369000D01*
X947976Y367334D01*
X948920Y365921D01*
X950332Y364977D01*
X951999Y364646D01*
X952234Y364693D01*
X952860Y363522D01*
X938148Y348810D01*
X936977Y349436D01*
X937089Y350000D01*
Y355115D01*
X938360Y355794D01*
X938834Y355477D01*
X940500Y355146D01*
X942166Y355477D01*
X943578Y356421D01*
X944522Y357834D01*
X944853Y359500D01*
X944522Y361166D01*
X943578Y362578D01*
X943089Y362905D01*
Y383927D01*
X964840Y405678D01*
X965178Y405648D01*
D02*
G37*
G36*
X964193Y337734D02*
X964146Y337500D01*
X964477Y335834D01*
X965421Y334421D01*
X966834Y333478D01*
X967165Y333412D01*
X967534Y332196D01*
X963427Y328090D01*
X957000D01*
X956009Y327892D01*
X955169Y327331D01*
X941842Y314005D01*
X941750Y314017D01*
X939429Y313711D01*
X937267Y312815D01*
X935410Y311390D01*
X933985Y309533D01*
X933089Y307371D01*
X932783Y305050D01*
X933089Y302729D01*
X933985Y300567D01*
X935410Y298710D01*
X937169Y297360D01*
X937172Y297219D01*
X936366Y296090D01*
X924572D01*
X922645Y298017D01*
X922691Y298710D01*
X924115Y300567D01*
X925011Y302729D01*
X925317Y305050D01*
X925011Y307371D01*
X924115Y309533D01*
X922691Y311390D01*
X920833Y312815D01*
X918671Y313711D01*
X916350Y314017D01*
X914029Y313711D01*
X911867Y312815D01*
X910010Y311390D01*
X909091Y310193D01*
X908022Y310834D01*
X908353Y312500D01*
X908022Y314166D01*
X907078Y315578D01*
X906986Y315640D01*
X907371Y316910D01*
X940500D01*
X941491Y317107D01*
X942331Y317669D01*
X963022Y338360D01*
X964193Y337734D01*
D02*
G37*
G36*
X1017410Y421927D02*
Y419048D01*
X1016140Y418522D01*
X1010371Y424291D01*
X1009531Y424852D01*
X1008540Y425050D01*
X985113D01*
X980260Y429902D01*
X980364Y430444D01*
X980760Y431198D01*
X982165Y431477D01*
X983577Y432421D01*
X983904Y432910D01*
X1006427D01*
X1017410Y421927D01*
D02*
G37*
%LPC*%
G36*
X964500Y363853D02*
X962834Y363522D01*
X961421Y362578D01*
X960477Y361166D01*
X960146Y359500D01*
X960477Y357834D01*
X961421Y356421D01*
X962834Y355477D01*
X964500Y355146D01*
X966166Y355477D01*
X967578Y356421D01*
X968522Y357834D01*
X968853Y359500D01*
X968522Y361166D01*
X967578Y362578D01*
X966166Y363522D01*
X964500Y363853D01*
D02*
G37*
%LPD*%
D30*
X680450Y305050D02*
X687750D01*
X671500Y314000D02*
X680450Y305050D01*
X671500Y314000D02*
Y339000D01*
X469500Y383000D02*
Y402000D01*
X484500Y417000D01*
Y488000D02*
X485500Y489000D01*
X484500Y417000D02*
Y488000D01*
X679500Y369000D02*
X716500Y332000D01*
X679500Y369000D02*
Y488000D01*
X687500Y496000D01*
X686500Y377000D02*
Y414000D01*
X446400Y425900D02*
X449000Y428500D01*
X446400Y289099D02*
X446500Y289000D01*
X446400Y289099D02*
Y425900D01*
X774500Y400000D02*
Y464000D01*
Y400000D02*
X782500Y392000D01*
X697000Y392500D02*
Y446000D01*
X1043350Y305050D02*
Y316150D01*
X1028500Y331000D02*
X1043350Y316150D01*
X1028500Y449500D02*
X1029000Y449000D01*
X1017950Y305050D02*
X1024000Y311100D01*
X992550Y305050D02*
X997050D01*
X1020000Y328000D01*
X1007500Y435500D02*
X1020000Y423000D01*
X1028500Y331000D02*
Y449500D01*
X1024000Y311100D02*
Y425000D01*
X1020000Y328000D02*
Y423000D01*
X1000000Y414500D02*
X1011190Y403310D01*
X980499Y414500D02*
X1000000D01*
X941750Y305050D02*
Y310250D01*
X957000Y325500D01*
X865550Y305050D02*
X884500Y324000D01*
X840150Y305050D02*
X862910Y327810D01*
X763950Y305050D02*
Y332950D01*
X800500Y369500D01*
X738550Y305050D02*
Y354050D01*
X755500Y371000D01*
X755500Y371000D02*
X755500Y371000D01*
X671500Y350000D02*
X674500Y353000D01*
X535350Y305050D02*
Y325150D01*
X526000Y334500D02*
X535350Y325150D01*
X714500Y463500D02*
X730000D01*
X697000Y446000D02*
X714500Y463500D01*
X957000Y325500D02*
X964500D01*
X954000Y299000D02*
Y314500D01*
X958000Y318500D01*
X962888D01*
X890950Y305050D02*
X892500Y306600D01*
Y316000D01*
X896040Y319540D01*
X906294D01*
X906335Y319500D01*
X940500D01*
X916350Y300650D02*
Y305050D01*
X948500Y293500D02*
X954000Y299000D01*
X916350Y300650D02*
X923500Y293500D01*
X948500D01*
X904000Y274000D02*
Y312500D01*
X526000Y334500D02*
Y451500D01*
X511500Y389500D02*
X522040Y378960D01*
X511500Y389500D02*
Y482500D01*
X489500Y504500D02*
X511500Y482500D01*
X412000Y504500D02*
X489500D01*
X409500Y507000D02*
X412000Y504500D01*
X409500Y507000D02*
Y525000D01*
X497500Y278500D02*
X507500Y268500D01*
X497500Y278500D02*
Y488500D01*
X488500Y497500D02*
X497500Y488500D01*
X396500Y497500D02*
X488500D01*
X389500Y504500D02*
X396500Y497500D01*
X389500Y504500D02*
Y525000D01*
X522000Y268460D02*
X522040Y268500D01*
Y378960D01*
X560750Y305050D02*
Y319750D01*
X542000Y338500D02*
X560750Y319750D01*
X542000Y338500D02*
Y440500D01*
X839000Y438000D02*
X846500Y430500D01*
X886000D01*
X904500Y412000D01*
Y369500D02*
Y412000D01*
X662350Y505850D02*
X663500Y507000D01*
X662350Y305050D02*
Y505850D01*
X641250Y453439D02*
Y506250D01*
Y453439D02*
X647344Y447345D01*
X996000Y393500D02*
X1007000Y382500D01*
X980499Y393500D02*
X996000D01*
X970499Y392501D02*
Y404000D01*
Y392501D02*
X984500Y378500D01*
X940500Y319500D02*
X984500Y363500D01*
X1007000Y368000D02*
Y382500D01*
X1011190Y366802D02*
Y403310D01*
X964500Y325500D02*
X1007000Y368000D01*
X962888Y318500D02*
X1011190Y366802D01*
X1015000Y352900D02*
Y416000D01*
X967150Y305050D02*
X1015000Y352900D01*
X732000Y332500D02*
Y433000D01*
X755500Y371000D02*
Y527500D01*
X732000Y433000D02*
X746500Y447500D01*
X978500Y408000D02*
X999000D01*
X1005000Y402000D01*
Y395000D02*
Y402000D01*
X966000Y410500D02*
X976000D01*
X978500Y408000D01*
X839000Y438000D02*
Y452000D01*
X674500Y353000D02*
Y496000D01*
X827000Y435500D02*
X838500Y423999D01*
X858499D01*
X930500Y337500D02*
X959998Y366999D01*
X940500Y359500D02*
Y385000D01*
X984500Y363500D02*
Y378500D01*
X959998Y366999D02*
Y377000D01*
X971999Y456499D02*
X980499D01*
X1008540Y422460D02*
X1015000Y416000D01*
X984040Y422460D02*
X1008540D01*
X980499Y435500D02*
X1007500D01*
X1006500Y442500D02*
X1024000Y425000D01*
X964958Y449459D02*
X971999Y456499D01*
X964958Y441541D02*
Y449459D01*
X970499Y445999D02*
X973998Y442500D01*
X1006500D01*
X964958Y441541D02*
X984040Y422460D01*
X789350Y334350D02*
X789500Y334500D01*
Y333500D02*
Y334500D01*
X686500Y377000D02*
X691500Y372000D01*
X705500D01*
X940500Y385000D02*
X966000Y410500D01*
X954500Y425000D02*
X970499D01*
X934500Y405000D02*
X954500Y425000D01*
X934500Y350000D02*
Y405000D01*
X936000Y324000D02*
X949500Y337500D01*
X920810Y327810D02*
X930500Y337500D01*
X884500Y324000D02*
X936000D01*
X862910Y327810D02*
X920810D01*
X929500Y345000D02*
X934500Y350000D01*
X904500Y345000D02*
X929500D01*
X789350Y305050D02*
Y334350D01*
X800500Y369500D02*
Y415500D01*
X850712Y321000D02*
X861332Y331620D01*
X891120D01*
X904500Y345000D01*
X815500Y321000D02*
X850712D01*
X801500Y335000D02*
X815500Y321000D01*
X801500Y335000D02*
Y357000D01*
X906000Y360165D02*
X911500Y365665D01*
Y413000D01*
X1013700Y559000D02*
X1024450Y548250D01*
X937000Y537000D02*
X948250Y548250D01*
X916500Y537000D02*
X937000D01*
X895500Y429000D02*
X911500Y413000D01*
X895500Y429000D02*
Y516000D01*
X916500Y537000D01*
X827000Y435500D02*
Y513500D01*
X833910Y520410D01*
Y533907D01*
X859003Y559000D01*
X1013700D01*
X846500Y475834D02*
X859000Y463334D01*
X846500Y475834D02*
Y535000D01*
X857500Y546000D01*
X339500Y255000D02*
Y565000D01*
X1174500D01*
Y255000D02*
Y565000D01*
X339500Y255000D02*
X1174500D01*
D34*
X884750Y548250D02*
D03*
X1024450D02*
D03*
X948250D02*
D03*
X1043350Y305050D02*
D03*
X1017950D02*
D03*
X992550D02*
D03*
X1144950D02*
D03*
X890950D02*
D03*
X865550D02*
D03*
X840150D02*
D03*
X814750D02*
D03*
X789350D02*
D03*
X916350D02*
D03*
X941750D02*
D03*
X687750D02*
D03*
X662350D02*
D03*
X586150D02*
D03*
X738550D02*
D03*
X484550D02*
D03*
X382950D02*
D03*
X535350D02*
D03*
D35*
X967150D02*
D03*
X763950D02*
D03*
X560750D02*
D03*
D37*
X369500Y525000D02*
D03*
X389500D02*
D03*
X409500D02*
D03*
D38*
X1077500Y448000D02*
D03*
X1126300Y444000D02*
D03*
X1046500Y406000D02*
D03*
X1099500Y400000D02*
D03*
X1126300Y421800D02*
D03*
X1070500Y400000D02*
D03*
X1120500Y481000D02*
D03*
X1104500Y495000D02*
D03*
X1049500Y379000D02*
D03*
X980499Y414500D02*
D03*
X970499Y404000D02*
D03*
X988500Y507500D02*
D03*
X671500Y339000D02*
D03*
X663500Y507000D02*
D03*
X354500Y418000D02*
D03*
X350500Y379000D02*
D03*
X507500Y375000D02*
D03*
X555500Y430000D02*
D03*
X534500Y396000D02*
D03*
X473500Y370000D02*
D03*
X489500Y398000D02*
D03*
X469500Y383000D02*
D03*
X422500Y350000D02*
D03*
X419500Y409000D02*
D03*
X422500Y460000D02*
D03*
X391500Y409000D02*
D03*
X857500Y404500D02*
D03*
X954250Y500500D02*
D03*
X933500Y460500D02*
D03*
X904500Y369500D02*
D03*
X876500Y387500D02*
D03*
X911000Y436800D02*
D03*
X933500Y414500D02*
D03*
X888500Y460500D02*
D03*
Y414500D02*
D03*
X733500Y521000D02*
D03*
X745500Y373000D02*
D03*
X697000Y392500D02*
D03*
X782500Y392000D02*
D03*
X485500Y489000D02*
D03*
X674500Y496000D02*
D03*
X687500D02*
D03*
X716500Y332000D02*
D03*
X671500Y350000D02*
D03*
X586312Y361812D02*
D03*
X621499Y362000D02*
D03*
X622124Y476000D02*
D03*
X586500D02*
D03*
X542500Y496800D02*
D03*
X621500Y419000D02*
D03*
X585500D02*
D03*
X686500Y414000D02*
D03*
X1048490Y335000D02*
D03*
X789500Y343000D02*
D03*
X747500Y413000D02*
D03*
X754500Y353000D02*
D03*
X822700Y519700D02*
D03*
X1056498Y509999D02*
D03*
X449000Y428500D02*
D03*
X446500Y289000D02*
D03*
X1005000Y395000D02*
D03*
X930500Y337500D02*
D03*
X887500Y342500D02*
D03*
X883840Y534840D02*
D03*
X797525Y470474D02*
D03*
X744700Y333799D02*
D03*
X732000Y332500D02*
D03*
X1029000Y449000D02*
D03*
X1005500Y471000D02*
D03*
X989500Y337000D02*
D03*
X755500Y527500D02*
D03*
X668500Y418000D02*
D03*
X526000Y451500D02*
D03*
X730000Y463500D02*
D03*
X949500Y337500D02*
D03*
X904000Y312500D02*
D03*
Y274000D02*
D03*
X507500Y268500D02*
D03*
X522000Y268460D02*
D03*
X542000Y440500D02*
D03*
X774500Y464000D02*
D03*
X641250Y506250D02*
D03*
X646999Y447000D02*
D03*
X906000Y360165D02*
D03*
X934250Y500500D02*
D03*
X1074000Y534500D02*
D03*
X1098500Y533500D02*
D03*
X980499Y393500D02*
D03*
X746500Y447500D02*
D03*
X839000Y452000D02*
D03*
X859000Y463334D02*
D03*
X668500Y444500D02*
D03*
X858499Y423999D02*
D03*
X940500Y359500D02*
D03*
X959998Y377000D02*
D03*
X980499Y456499D02*
D03*
X1005000Y428000D02*
D03*
X980499Y435500D02*
D03*
X970499Y425000D02*
D03*
Y445999D02*
D03*
X789500Y333500D02*
D03*
X705500Y372000D02*
D03*
X800500Y415500D02*
D03*
X801500Y357000D02*
D03*
X884500Y483500D02*
D03*
X857500Y546000D02*
D03*
M02*
