G04*
G04 #@! TF.GenerationSoftware,Altium Limited,CircuitStudio,1.5.2 (30)*
G04*
G04 Layer_Color=16764230*
%FSLAX44Y44*%
%MOMM*%
G71*
G01*
G75*
%ADD30C,0.2540*%
%ADD73C,0.0000*%
D30*
X1071500Y480500D02*
G03*
X1071500Y480500I-5000J0D01*
G01*
X1126000D02*
G03*
X1126000Y480500I-5000J0D01*
G01*
X1051950Y480550D02*
G03*
X1051950Y480550I-5000J0D01*
G01*
X686700Y435700D02*
G03*
X686700Y435700I-5000J0D01*
G01*
X954400Y337100D02*
G03*
X954400Y337100I-5000J0D01*
G01*
X844500Y452000D02*
G03*
X844500Y452000I-5000J0D01*
G01*
X752190Y443330D02*
G03*
X752190Y443330I-5000J0D01*
G01*
X752190Y421330D02*
G03*
X752190Y421330I-5000J0D01*
G01*
X427500Y460000D02*
G03*
X427500Y460000I-5000J0D01*
G01*
X1051000Y426000D02*
G03*
X1051000Y426000I-5000J0D01*
G01*
Y406000D02*
G03*
X1051000Y406000I-5000J0D01*
G01*
X590750Y339400D02*
G03*
X590750Y339400I-5000J0D01*
G01*
X590000Y400400D02*
G03*
X590000Y400400I-5000J0D01*
G01*
X626750Y339400D02*
G03*
X626750Y339400I-5000J0D01*
G01*
X626000Y400400D02*
G03*
X626000Y400400I-5000J0D01*
G01*
X560750Y372400D02*
G03*
X560750Y372400I-5000J0D01*
G01*
Y429250D02*
G03*
X560750Y429250I-5000J0D01*
G01*
X656750Y372400D02*
G03*
X656750Y372400I-5000J0D01*
G01*
X656000Y429250D02*
G03*
X656000Y429250I-5000J0D01*
G01*
X973600Y337100D02*
G03*
X973600Y337100I-5000J0D01*
G01*
X939100Y500400D02*
G03*
X939100Y500400I-5000J0D01*
G01*
X1009800Y406800D02*
G03*
X1009800Y406800I-5000J0D01*
G01*
X959100Y500400D02*
G03*
X959100Y500400I-5000J0D01*
G01*
X590750Y457900D02*
G03*
X590750Y457900I-5000J0D01*
G01*
X626750D02*
G03*
X626750Y457900I-5000J0D01*
G01*
X560750Y486900D02*
G03*
X560750Y486900I-5000J0D01*
G01*
X656750D02*
G03*
X656750Y486900I-5000J0D01*
G01*
X1010400Y449400D02*
G03*
X1010400Y449400I-5000J0D01*
G01*
X749700Y352798D02*
G03*
X749700Y352798I-5000J0D01*
G01*
X729900Y352800D02*
G03*
X729900Y352800I-5000J0D01*
G01*
X702000Y392000D02*
G03*
X702000Y392000I-5000J0D01*
G01*
X690600Y353000D02*
G03*
X690600Y353000I-5000J0D01*
G01*
X709800Y352800D02*
G03*
X709800Y352800I-5000J0D01*
G01*
X787800Y392000D02*
G03*
X787800Y392000I-5000J0D01*
G01*
X458500Y409000D02*
G03*
X458500Y409000I-5000J0D01*
G01*
X396500D02*
G03*
X396500Y409000I-5000J0D01*
G01*
X1010000Y387000D02*
G03*
X1010000Y387000I-5000J0D01*
G01*
X915750Y337100D02*
G03*
X915750Y337100I-5000J0D01*
G01*
X934950D02*
G03*
X934950Y337100I-5000J0D01*
G01*
X443500Y338452D02*
G03*
X443500Y338452I-5000J0D01*
G01*
X411039D02*
G03*
X411039Y338452I-5000J0D01*
G01*
X844500Y493500D02*
G03*
X844500Y493500I-5000J0D01*
G01*
X405039Y370000D02*
G03*
X405039Y370000I-5000J0D01*
G01*
X449500D02*
G03*
X449500Y370000I-5000J0D01*
G01*
X1061500Y480500D02*
X1071500D01*
X1066500Y475500D02*
Y485500D01*
X1116000Y480500D02*
X1126000D01*
X1121000Y475500D02*
Y485500D01*
X1041950Y480550D02*
X1051950D01*
X1046950Y475550D02*
Y485550D01*
X676700Y435700D02*
X686700D01*
X681700Y430700D02*
Y440700D01*
X944400Y337100D02*
X954400D01*
X949400Y332100D02*
Y342100D01*
X834500Y452000D02*
X844500D01*
X839500Y447000D02*
Y457000D01*
X747190Y438330D02*
Y448330D01*
X742190Y443330D02*
X752190D01*
X747190Y416330D02*
Y426330D01*
X742190Y421330D02*
X752190D01*
X422500Y455000D02*
Y465000D01*
X417500Y460000D02*
X427500D01*
X1046000Y421000D02*
Y431000D01*
X1041000Y426000D02*
X1051000D01*
X1046000Y401000D02*
Y411000D01*
X1041000Y406000D02*
X1051000D01*
X585750Y334400D02*
Y344400D01*
X580750Y339400D02*
X590750D01*
X585000Y395400D02*
Y405400D01*
X580000Y400400D02*
X590000D01*
X621750Y334400D02*
Y344400D01*
X616750Y339400D02*
X626750D01*
X621000Y395400D02*
Y405400D01*
X616000Y400400D02*
X626000D01*
X550750Y372400D02*
X560750D01*
X555750Y367400D02*
Y377400D01*
X550750Y429250D02*
X560750D01*
X555750Y424250D02*
Y434250D01*
X646750Y372400D02*
X656750D01*
X651750Y367400D02*
Y377400D01*
X646000Y429250D02*
X656000D01*
X651000Y424250D02*
Y434250D01*
X963600Y337100D02*
X973600D01*
X968600Y332100D02*
Y342100D01*
X929100Y500400D02*
X939100D01*
X934100Y495400D02*
Y505400D01*
X1004800Y401800D02*
Y411800D01*
X999800Y406800D02*
X1009800D01*
X949100Y500400D02*
X959100D01*
X954100Y495400D02*
Y505400D01*
X585750Y452900D02*
Y462900D01*
X580750Y457900D02*
X590750D01*
X621750Y452900D02*
Y462900D01*
X616750Y457900D02*
X626750D01*
X550750Y486900D02*
X560750D01*
X555750Y481900D02*
Y491900D01*
X646750Y486900D02*
X656750D01*
X651750Y481900D02*
Y491900D01*
X1005400Y444400D02*
Y454400D01*
X1000400Y449400D02*
X1010400D01*
X739700Y352798D02*
X749700D01*
X744700Y347798D02*
Y357798D01*
X719900Y352800D02*
X729900D01*
X724900Y347800D02*
Y357800D01*
X692000Y392000D02*
X702000D01*
X697000Y387000D02*
Y397000D01*
X680600Y353000D02*
X690600D01*
X685600Y348000D02*
Y358000D01*
X699800Y352800D02*
X709800D01*
X704800Y347800D02*
Y357800D01*
X777800Y392000D02*
X787800D01*
X782800Y387000D02*
Y397000D01*
X448500Y409000D02*
X458500D01*
X453500Y404000D02*
Y414000D01*
X386500Y409000D02*
X396500D01*
X391500Y404000D02*
Y414000D01*
X1000000Y387000D02*
X1010000D01*
X1005000Y382000D02*
Y392000D01*
X910750Y332100D02*
Y342100D01*
X905750Y337100D02*
X915750D01*
X929950Y332100D02*
Y342100D01*
X924950Y337100D02*
X934950D01*
X433500Y338452D02*
X443500D01*
X438500Y333452D02*
Y343452D01*
X401039Y338452D02*
X411039D01*
X406039Y333452D02*
Y343452D01*
X839500Y488500D02*
Y498500D01*
X834500Y493500D02*
X844500D01*
X400039Y365000D02*
Y375000D01*
X395039Y370000D02*
X405039D01*
X444500Y365000D02*
Y375000D01*
X439500Y370000D02*
X449500D01*
X339500Y255000D02*
Y565000D01*
X1174500D01*
Y255000D02*
Y565000D01*
X339500Y255000D02*
X1174500D01*
D73*
X875186Y472614D02*
X946814D01*
Y400986D02*
Y472614D01*
X875186Y400986D02*
X946814D01*
X875186D02*
Y472614D01*
X936908Y400986D02*
X939956D01*
X932082D02*
X934876D01*
X927002D02*
X930050D01*
X921922D02*
X924970D01*
X917096D02*
X919890D01*
X912016D02*
X915064D01*
X906936D02*
X909984D01*
X902110D02*
X904904D01*
X897030D02*
X900078D01*
X891950D02*
X894998D01*
X887124D02*
X889918D01*
X882044D02*
X885092D01*
X875186Y407844D02*
Y410892D01*
Y412924D02*
Y415718D01*
Y417750D02*
Y420798D01*
Y422830D02*
Y425878D01*
Y427910D02*
Y430704D01*
Y432736D02*
Y435784D01*
Y437816D02*
Y440864D01*
Y442896D02*
Y445690D01*
Y447722D02*
Y450770D01*
Y452802D02*
Y455850D01*
Y457882D02*
Y460676D01*
Y462708D02*
Y465756D01*
X882044Y472614D02*
X885092D01*
X887124D02*
X889918D01*
X891950D02*
X894998D01*
X897030D02*
X900078D01*
X902110D02*
X904904D01*
X906936D02*
X909984D01*
X912016D02*
X915064D01*
X917096D02*
X919890D01*
X921922D02*
X924970D01*
X927002D02*
X930050D01*
X932082D02*
X934876D01*
X936908D02*
X939956D01*
X946814Y462708D02*
Y465756D01*
Y457882D02*
Y460676D01*
Y452802D02*
Y455850D01*
Y447722D02*
Y450770D01*
Y442896D02*
Y445690D01*
Y437816D02*
Y440864D01*
Y432736D02*
Y435784D01*
Y427910D02*
Y430704D01*
Y422830D02*
Y425878D01*
Y417750D02*
Y420798D01*
Y412924D02*
Y415718D01*
Y407844D02*
Y410892D01*
X934114Y472614D02*
X946814Y459914D01*
M02*
