G04*
G04 #@! TF.GenerationSoftware,Altium Limited,CircuitStudio,1.5.2 (30)*
G04*
G04 Layer_Color=11767835*
%FSLAX44Y44*%
%MOMM*%
G71*
G01*
G75*
%ADD10R,0.2540X0.2540*%
%ADD11R,0.9100X1.2200*%
%ADD12R,5.8000X6.2000*%
%ADD13R,1.6000X3.0000*%
%ADD14R,2.7500X7.8200*%
%ADD15R,0.9000X1.6000*%
%ADD16R,0.7000X1.3000*%
%ADD17R,0.8128X0.9144*%
%ADD18R,2.0000X0.6000*%
%ADD19R,4.2000X0.7000*%
%ADD20R,1.6000X1.3000*%
%ADD21R,1.2200X0.9100*%
%ADD22R,1.3000X0.7000*%
%ADD23R,2.4000X2.1600*%
%ADD24R,0.2540X0.2540*%
%ADD25R,0.9144X0.8128*%
%ADD29C,0.2500*%
%ADD30R,2.5400X2.5400*%
%ADD31C,2.5400*%
%ADD32C,6.0000*%
%ADD33O,2.5400X3.1750*%
%ADD34R,2.5400X2.5400*%
%ADD35C,4.0000*%
%ADD36C,2.0000*%
G04:AMPARAMS|DCode=37|XSize=2mm|YSize=4mm|CornerRadius=0.5mm|HoleSize=0mm|Usage=FLASHONLY|Rotation=180.000|XOffset=0mm|YOffset=0mm|HoleType=Round|Shape=RoundedRectangle|*
%AMROUNDEDRECTD37*
21,1,2.0000,3.0000,0,0,180.0*
21,1,1.0000,4.0000,0,0,180.0*
1,1,1.0000,-0.5000,1.5000*
1,1,1.0000,0.5000,1.5000*
1,1,1.0000,0.5000,-1.5000*
1,1,1.0000,-0.5000,-1.5000*
%
%ADD37ROUNDEDRECTD37*%
G04:AMPARAMS|DCode=38|XSize=2mm|YSize=4.5mm|CornerRadius=0.5mm|HoleSize=0mm|Usage=FLASHONLY|Rotation=0.000|XOffset=0mm|YOffset=0mm|HoleType=Round|Shape=RoundedRectangle|*
%AMROUNDEDRECTD38*
21,1,2.0000,3.5000,0,0,0.0*
21,1,1.0000,4.5000,0,0,0.0*
1,1,1.0000,0.5000,-1.7500*
1,1,1.0000,-0.5000,-1.7500*
1,1,1.0000,-0.5000,1.7500*
1,1,1.0000,0.5000,1.7500*
%
%ADD38ROUNDEDRECTD38*%
G04:AMPARAMS|DCode=39|XSize=2mm|YSize=4mm|CornerRadius=0.5mm|HoleSize=0mm|Usage=FLASHONLY|Rotation=90.000|XOffset=0mm|YOffset=0mm|HoleType=Round|Shape=RoundedRectangle|*
%AMROUNDEDRECTD39*
21,1,2.0000,3.0000,0,0,90.0*
21,1,1.0000,4.0000,0,0,90.0*
1,1,1.0000,1.5000,0.5000*
1,1,1.0000,1.5000,-0.5000*
1,1,1.0000,-1.5000,-0.5000*
1,1,1.0000,-1.5000,0.5000*
%
%ADD39ROUNDEDRECTD39*%
G04:AMPARAMS|DCode=40|XSize=2mm|YSize=2.5mm|CornerRadius=0.5mm|HoleSize=0mm|Usage=FLASHONLY|Rotation=0.000|XOffset=0mm|YOffset=0mm|HoleType=Round|Shape=RoundedRectangle|*
%AMROUNDEDRECTD40*
21,1,2.0000,1.5000,0,0,0.0*
21,1,1.0000,2.5000,0,0,0.0*
1,1,1.0000,0.5000,-0.7500*
1,1,1.0000,-0.5000,-0.7500*
1,1,1.0000,-0.5000,0.7500*
1,1,1.0000,0.5000,0.7500*
%
%ADD40ROUNDEDRECTD40*%
%ADD41O,2.0000X2.5000*%
%ADD42C,2.1000*%
%ADD43R,2.1000X2.1000*%
%ADD44C,1.5240*%
%ADD45C,1.7500*%
D10*
X1871000Y1828500D02*
D03*
X1877000D02*
D03*
X2248000Y1568500D02*
D03*
X2254000D02*
D03*
D11*
X2290350Y1946000D02*
D03*
X2257650D02*
D03*
D12*
X2350493Y1781490D02*
D03*
D13*
X2373393Y1709490D02*
D03*
X2327593D02*
D03*
D14*
X2255800Y1781500D02*
D03*
X2193200D02*
D03*
D15*
X2239000Y1841000D02*
D03*
X2210000D02*
D03*
D16*
X2798493Y2508997D02*
D03*
X2779493D02*
D03*
X2215500Y1568250D02*
D03*
X2234500D02*
D03*
D17*
X2797576Y2490588D02*
D03*
X2778424D02*
D03*
X2788076Y2469412D02*
D03*
X2412516Y1720078D02*
D03*
X2422168Y1698902D02*
D03*
X2403017D02*
D03*
D18*
X2819000Y2046000D02*
D03*
Y2056000D02*
D03*
Y2066000D02*
D03*
Y2076000D02*
D03*
Y2086000D02*
D03*
Y2096000D02*
D03*
Y2106000D02*
D03*
Y2116000D02*
D03*
Y2126000D02*
D03*
Y2136000D02*
D03*
Y2146000D02*
D03*
Y2156000D02*
D03*
Y2166000D02*
D03*
Y2176000D02*
D03*
Y2186000D02*
D03*
Y2196000D02*
D03*
Y2206000D02*
D03*
Y2216000D02*
D03*
Y2226000D02*
D03*
Y2236000D02*
D03*
D19*
X2840000Y2246000D02*
D03*
Y2036000D02*
D03*
D20*
X1739750Y2244000D02*
D03*
Y2225000D02*
D03*
X1777500Y2631500D02*
D03*
Y2650500D02*
D03*
D21*
X1916000Y1801650D02*
D03*
Y1834350D02*
D03*
D22*
X1769000Y1720500D02*
D03*
Y1701500D02*
D03*
X1746500Y1740500D02*
D03*
Y1721500D02*
D03*
X1893500Y1827750D02*
D03*
Y1808750D02*
D03*
X2297000Y1919500D02*
D03*
Y1900500D02*
D03*
X2298024Y1863528D02*
D03*
Y1882528D02*
D03*
D23*
X1644000Y2446000D02*
D03*
Y2410500D02*
D03*
D24*
X2221250Y1860750D02*
D03*
Y1866750D02*
D03*
D25*
X2258912Y1910424D02*
D03*
X2280088Y1920076D02*
D03*
Y1900924D02*
D03*
X2259936Y1872952D02*
D03*
X2281112Y1882604D02*
D03*
Y1863452D02*
D03*
D29*
X1601500Y1421000D02*
X2974500Y1421000D01*
Y2701000D01*
X1601500D02*
X2974500D01*
X1601500Y1421000D02*
Y2701000D01*
D30*
X2197698Y1504000D02*
D03*
D31*
X2248498D02*
D03*
X1644000Y2512700D02*
D03*
D32*
X2856500Y1510000D02*
D03*
Y2607000D02*
D03*
D33*
X1988948Y1501000D02*
D03*
X2059052D02*
D03*
Y1551000D02*
D03*
X1988948D02*
D03*
X2059052Y1601000D02*
D03*
X1988948D02*
D03*
X2386448Y1501000D02*
D03*
X2456552D02*
D03*
Y1551000D02*
D03*
X2386448D02*
D03*
X2456552Y1601000D02*
D03*
X2386448D02*
D03*
D34*
X1644000Y2563500D02*
D03*
D35*
X1876500Y2626000D02*
D03*
X2709000D02*
D03*
X1876500Y1591000D02*
D03*
X2709000D02*
D03*
X2846500Y1943000D02*
D03*
D36*
X2879500Y2456600D02*
D03*
Y2482000D02*
D03*
Y2507400D02*
D03*
D37*
X1679000Y2651000D02*
D03*
D38*
X1739000D02*
D03*
D39*
X1709000Y2604000D02*
D03*
D40*
X2051900Y1768000D02*
D03*
D41*
X2026500D02*
D03*
X2001100D02*
D03*
D42*
X2098400Y2171500D02*
D03*
Y2117100D02*
D03*
D43*
Y2062700D02*
D03*
D44*
X2282600Y2385250D02*
D03*
X2308000D02*
D03*
D45*
X1641500Y2300900D02*
D03*
Y2275500D02*
D03*
Y2250100D02*
D03*
Y2224700D02*
D03*
Y2199300D02*
D03*
Y2173900D02*
D03*
Y2148500D02*
D03*
Y2123100D02*
D03*
Y2097700D02*
D03*
Y2072300D02*
D03*
Y2046900D02*
D03*
Y2021500D02*
D03*
Y1970700D02*
D03*
Y1996100D02*
D03*
Y1691300D02*
D03*
Y1716700D02*
D03*
Y1767500D02*
D03*
Y1742100D02*
D03*
Y1843700D02*
D03*
Y1869100D02*
D03*
Y1818300D02*
D03*
Y1792900D02*
D03*
Y1894500D02*
D03*
Y1945300D02*
D03*
Y1919900D02*
D03*
Y1615100D02*
D03*
Y1640500D02*
D03*
Y1665900D02*
D03*
Y1589700D02*
D03*
Y1564300D02*
D03*
Y1538900D02*
D03*
Y1513500D02*
D03*
M02*
