G04*
G04 #@! TF.GenerationSoftware,Altium Limited,CircuitStudio,1.5.2 (30)*
G04*
G04 Layer_Physical_Order=1*
G04 Layer_Color=11767835*
%FSLAX44Y44*%
%MOMM*%
G71*
G01*
G75*
%ADD10R,0.2540X0.2540*%
%ADD11R,0.9100X1.2200*%
%ADD12R,5.8000X6.2000*%
%ADD13R,1.6000X3.0000*%
%ADD14R,2.7500X7.8200*%
%ADD15R,0.9000X1.6000*%
%ADD16R,0.7000X1.3000*%
%ADD17R,0.8128X0.9144*%
%ADD18R,2.0000X0.6000*%
%ADD19R,4.2000X0.7000*%
%ADD20R,1.6000X1.3000*%
%ADD21R,1.2200X0.9100*%
%ADD22R,1.3000X0.7000*%
%ADD23R,2.4000X2.1600*%
%ADD24R,0.2540X0.2540*%
%ADD25R,0.9144X0.8128*%
%ADD26C,0.2540*%
%ADD27C,0.5000*%
%ADD28C,0.7500*%
%ADD29C,0.2500*%
%ADD30R,2.5400X2.5400*%
%ADD31C,2.5400*%
%ADD32C,6.0000*%
%ADD33O,2.5400X3.1750*%
%ADD34R,2.5400X2.5400*%
%ADD35C,4.0000*%
%ADD36C,2.0000*%
G04:AMPARAMS|DCode=37|XSize=2mm|YSize=4mm|CornerRadius=0.5mm|HoleSize=0mm|Usage=FLASHONLY|Rotation=180.000|XOffset=0mm|YOffset=0mm|HoleType=Round|Shape=RoundedRectangle|*
%AMROUNDEDRECTD37*
21,1,2.0000,3.0000,0,0,180.0*
21,1,1.0000,4.0000,0,0,180.0*
1,1,1.0000,-0.5000,1.5000*
1,1,1.0000,0.5000,1.5000*
1,1,1.0000,0.5000,-1.5000*
1,1,1.0000,-0.5000,-1.5000*
%
%ADD37ROUNDEDRECTD37*%
G04:AMPARAMS|DCode=38|XSize=2mm|YSize=4.5mm|CornerRadius=0.5mm|HoleSize=0mm|Usage=FLASHONLY|Rotation=0.000|XOffset=0mm|YOffset=0mm|HoleType=Round|Shape=RoundedRectangle|*
%AMROUNDEDRECTD38*
21,1,2.0000,3.5000,0,0,0.0*
21,1,1.0000,4.5000,0,0,0.0*
1,1,1.0000,0.5000,-1.7500*
1,1,1.0000,-0.5000,-1.7500*
1,1,1.0000,-0.5000,1.7500*
1,1,1.0000,0.5000,1.7500*
%
%ADD38ROUNDEDRECTD38*%
G04:AMPARAMS|DCode=39|XSize=2mm|YSize=4mm|CornerRadius=0.5mm|HoleSize=0mm|Usage=FLASHONLY|Rotation=90.000|XOffset=0mm|YOffset=0mm|HoleType=Round|Shape=RoundedRectangle|*
%AMROUNDEDRECTD39*
21,1,2.0000,3.0000,0,0,90.0*
21,1,1.0000,4.0000,0,0,90.0*
1,1,1.0000,1.5000,0.5000*
1,1,1.0000,1.5000,-0.5000*
1,1,1.0000,-1.5000,-0.5000*
1,1,1.0000,-1.5000,0.5000*
%
%ADD39ROUNDEDRECTD39*%
G04:AMPARAMS|DCode=40|XSize=2mm|YSize=2.5mm|CornerRadius=0.5mm|HoleSize=0mm|Usage=FLASHONLY|Rotation=0.000|XOffset=0mm|YOffset=0mm|HoleType=Round|Shape=RoundedRectangle|*
%AMROUNDEDRECTD40*
21,1,2.0000,1.5000,0,0,0.0*
21,1,1.0000,2.5000,0,0,0.0*
1,1,1.0000,0.5000,-0.7500*
1,1,1.0000,-0.5000,-0.7500*
1,1,1.0000,-0.5000,0.7500*
1,1,1.0000,0.5000,0.7500*
%
%ADD40ROUNDEDRECTD40*%
%ADD41O,2.0000X2.5000*%
%ADD42C,2.1000*%
%ADD43R,2.1000X2.1000*%
%ADD44C,1.5240*%
%ADD45C,1.7500*%
%ADD46C,0.6000*%
G36*
X2104000Y1468500D02*
X1939000D01*
Y1626000D01*
X2104000D01*
Y1468500D01*
D02*
G37*
G36*
X2961500Y2681000D02*
X2961500Y1466898D01*
X2960602Y1466000D01*
X2112349Y1466000D01*
X2111403Y1467270D01*
X2111565Y1468500D01*
Y1626000D01*
X2111307Y1627958D01*
X2110551Y1629782D01*
X2109349Y1631349D01*
X2107782Y1632551D01*
X2105958Y1633307D01*
X2104000Y1633565D01*
X1939000D01*
X1937042Y1633307D01*
X1935217Y1632551D01*
X1933651Y1631349D01*
X1932449Y1629782D01*
X1931693Y1627958D01*
X1931435Y1626000D01*
Y1468500D01*
X1931597Y1467270D01*
X1930651Y1466000D01*
X1611500D01*
X1611500Y2680102D01*
X1612398Y2681000D01*
X2961500Y2681000D01*
D02*
G37*
%LPC*%
G36*
X1641500Y1956687D02*
X1638553Y1956299D01*
X1635806Y1955162D01*
X1633448Y1953352D01*
X1631638Y1950993D01*
X1630500Y1948247D01*
X1630112Y1945300D01*
X1630500Y1942353D01*
X1631638Y1939606D01*
X1633448Y1937248D01*
X1635806Y1935438D01*
X1638553Y1934300D01*
X1641500Y1933912D01*
X1644447Y1934300D01*
X1647194Y1935438D01*
X1649552Y1937248D01*
X1651362Y1939606D01*
X1652499Y1942353D01*
X1652887Y1945300D01*
X1652499Y1948247D01*
X1651362Y1950993D01*
X1649552Y1953352D01*
X1647194Y1955162D01*
X1644447Y1956299D01*
X1641500Y1956687D01*
D02*
G37*
G36*
X2073398Y2204590D02*
X2072407Y2204393D01*
X2071567Y2203831D01*
X2070669Y2202933D01*
X2070107Y2202093D01*
X2069910Y2201102D01*
X2069910Y2068737D01*
X2069173Y2067839D01*
X1908800D01*
X1906833Y2067448D01*
X1905166Y2066334D01*
X1654001Y1815168D01*
X1652614Y1815378D01*
X1652516Y1815479D01*
X1652887Y1818300D01*
X1652499Y1821247D01*
X1651362Y1823994D01*
X1649552Y1826352D01*
X1647194Y1828162D01*
X1644447Y1829299D01*
X1641500Y1829687D01*
X1638553Y1829299D01*
X1635806Y1828162D01*
X1633448Y1826352D01*
X1631638Y1823994D01*
X1630500Y1821247D01*
X1630112Y1818300D01*
X1630500Y1815353D01*
X1631638Y1812606D01*
X1633448Y1810248D01*
X1635806Y1808438D01*
X1638553Y1807300D01*
X1641500Y1806912D01*
X1644321Y1807284D01*
X1644422Y1807185D01*
X1644631Y1805799D01*
X1642932Y1804099D01*
X1641500Y1804287D01*
X1638553Y1803899D01*
X1635806Y1802762D01*
X1633448Y1800952D01*
X1631638Y1798593D01*
X1630500Y1795847D01*
X1630112Y1792900D01*
X1630500Y1789953D01*
X1631638Y1787206D01*
X1633448Y1784848D01*
X1633861Y1784530D01*
Y1775869D01*
X1633448Y1775552D01*
X1631638Y1773194D01*
X1630500Y1770447D01*
X1630112Y1767500D01*
X1630500Y1764553D01*
X1631638Y1761806D01*
X1633448Y1759448D01*
X1635806Y1757638D01*
X1638553Y1756500D01*
X1641500Y1756112D01*
X1644447Y1756500D01*
X1647194Y1757638D01*
X1649552Y1759448D01*
X1651362Y1761806D01*
X1652499Y1764553D01*
X1652887Y1767500D01*
X1652499Y1770447D01*
X1651362Y1773194D01*
X1649552Y1775552D01*
X1647194Y1777362D01*
X1644447Y1778499D01*
X1644139Y1778540D01*
Y1781860D01*
X1644447Y1781900D01*
X1647194Y1783038D01*
X1649552Y1784848D01*
X1651362Y1787206D01*
X1652499Y1789953D01*
X1652887Y1792900D01*
X1652499Y1795847D01*
X1651537Y1798170D01*
X1910928Y2057561D01*
X2069012D01*
X2069910Y2056663D01*
X2069910Y1741000D01*
X2070107Y1740009D01*
X2070669Y1739169D01*
X2071509Y1738607D01*
X2072500Y1738410D01*
X2215602Y1738410D01*
X2216593Y1738607D01*
X2217433Y1739169D01*
X2218331Y1740067D01*
X2218893Y1740907D01*
X2219090Y1741898D01*
Y1780096D01*
X2223997Y1785003D01*
X2224458Y1785048D01*
X2229910Y1779596D01*
Y1740898D01*
X2230107Y1739907D01*
X2230669Y1739067D01*
X2231567Y1738169D01*
X2232407Y1737607D01*
X2233398Y1737410D01*
X2391500Y1737410D01*
X2392491Y1737607D01*
X2393331Y1738169D01*
X2393892Y1739009D01*
X2394090Y1740000D01*
X2394090Y1827602D01*
X2393893Y1828593D01*
X2393331Y1829433D01*
X2392433Y1830331D01*
X2391593Y1830892D01*
X2390602Y1831090D01*
X2246938Y1831090D01*
X2246040Y1831988D01*
Y1834587D01*
X2391343D01*
X2406103Y1819827D01*
Y1727190D01*
X2405912D01*
Y1721377D01*
X2404642Y1720851D01*
X2391747Y1733747D01*
X2390486Y1734589D01*
X2389000Y1734884D01*
X1882585D01*
X1882396Y1735091D01*
X1881908Y1736062D01*
X1883396Y1737875D01*
X1885397Y1741617D01*
X1886628Y1745677D01*
X1887044Y1749900D01*
X1886628Y1754123D01*
X1885397Y1758183D01*
X1883396Y1761925D01*
X1880705Y1765205D01*
X1877425Y1767897D01*
X1873683Y1769897D01*
X1869623Y1771128D01*
X1865400Y1771544D01*
X1861177Y1771128D01*
X1857117Y1769897D01*
X1853375Y1767897D01*
X1850095Y1765205D01*
X1847404Y1761925D01*
X1845403Y1758183D01*
X1844172Y1754123D01*
X1843756Y1749900D01*
X1844172Y1745677D01*
X1845403Y1741617D01*
X1847404Y1737875D01*
X1850095Y1734595D01*
X1853375Y1731904D01*
X1857117Y1729903D01*
X1861177Y1728672D01*
X1865400Y1728256D01*
X1869623Y1728672D01*
X1873683Y1729903D01*
X1874608Y1730398D01*
X1875373Y1729367D01*
X1867141Y1721134D01*
X1861317D01*
X1861244Y1721244D01*
X1859411Y1722468D01*
X1857250Y1722898D01*
X1855088Y1722468D01*
X1853256Y1721244D01*
X1852031Y1719411D01*
X1851601Y1717250D01*
X1852031Y1715088D01*
X1853256Y1713256D01*
X1855088Y1712031D01*
X1857250Y1711601D01*
X1859411Y1712031D01*
X1861244Y1713256D01*
X1861317Y1713365D01*
X1862601D01*
X1862726Y1712095D01*
X1862088Y1711968D01*
X1860256Y1710744D01*
X1859031Y1708911D01*
X1858601Y1706750D01*
X1859031Y1704588D01*
X1860256Y1702756D01*
X1862088Y1701531D01*
X1864250Y1701101D01*
X1864327Y1701117D01*
X1864953Y1699946D01*
X1774891Y1609884D01*
X1652703D01*
X1651997Y1610941D01*
X1652499Y1612153D01*
X1652887Y1615100D01*
X1652499Y1618047D01*
X1651362Y1620793D01*
X1649552Y1623152D01*
X1647194Y1624962D01*
X1644447Y1626099D01*
X1641500Y1626487D01*
X1638553Y1626099D01*
X1635806Y1624962D01*
X1633448Y1623152D01*
X1631638Y1620793D01*
X1630500Y1618047D01*
X1630112Y1615100D01*
X1630500Y1612153D01*
X1631638Y1609406D01*
X1633448Y1607048D01*
X1635806Y1605238D01*
X1638553Y1604100D01*
X1641500Y1603712D01*
X1644447Y1604100D01*
X1644489Y1604118D01*
X1645353Y1603253D01*
X1645544Y1603126D01*
X1645668Y1601862D01*
X1644488Y1600682D01*
X1644447Y1600699D01*
X1641500Y1601087D01*
X1638553Y1600699D01*
X1635806Y1599562D01*
X1633448Y1597752D01*
X1631638Y1595394D01*
X1630500Y1592647D01*
X1630112Y1589700D01*
X1630500Y1586753D01*
X1631638Y1584006D01*
X1633448Y1581648D01*
X1635806Y1579838D01*
X1638553Y1578700D01*
X1641500Y1578312D01*
X1644447Y1578700D01*
X1647194Y1579838D01*
X1649552Y1581648D01*
X1651362Y1584006D01*
X1652499Y1586753D01*
X1652887Y1589700D01*
X1652499Y1592647D01*
X1651647Y1594705D01*
X1652439Y1595975D01*
X1778294D01*
X1779781Y1596271D01*
X1781041Y1597113D01*
X1886543Y1702615D01*
X2286391D01*
X2290298Y1698708D01*
X2290431Y1698038D01*
X2291656Y1696206D01*
X2293488Y1694981D01*
X2295650Y1694551D01*
X2297811Y1694981D01*
X2299644Y1696206D01*
X2300868Y1698038D01*
X2301298Y1700200D01*
X2300868Y1702361D01*
X2299644Y1704194D01*
X2299021Y1704610D01*
X2298978Y1704750D01*
X2299108Y1706080D01*
X2300494Y1707006D01*
X2301718Y1708838D01*
X2302148Y1711000D01*
X2301819Y1712655D01*
X2302619Y1713925D01*
X2317053D01*
Y1691950D01*
X2338133D01*
Y1705606D01*
X2346741D01*
X2346837Y1705542D01*
X2348998Y1705112D01*
X2351160Y1705542D01*
X2352992Y1706766D01*
X2354217Y1708599D01*
X2354647Y1710760D01*
X2354217Y1712922D01*
X2352992Y1714754D01*
X2351160Y1715979D01*
X2348998Y1716409D01*
X2346837Y1715979D01*
X2345004Y1714754D01*
X2344082Y1713375D01*
X2339031D01*
X2338133Y1714273D01*
Y1727030D01*
X2339368Y1727115D01*
X2387391D01*
X2388006Y1726500D01*
X2399132Y1715374D01*
Y1706014D01*
X2396413D01*
Y1691790D01*
X2399132D01*
Y1688051D01*
X2399022Y1687977D01*
X2397798Y1686145D01*
X2397368Y1683983D01*
X2397798Y1681822D01*
X2399022Y1679989D01*
X2400855Y1678765D01*
X2403017Y1678335D01*
X2405178Y1678765D01*
X2407011Y1679989D01*
X2408235Y1681822D01*
X2408665Y1683983D01*
X2408235Y1686145D01*
X2407011Y1687977D01*
X2406901Y1688051D01*
Y1691790D01*
X2409621D01*
Y1706014D01*
X2406901D01*
Y1712966D01*
X2419120D01*
Y1726500D01*
Y1727190D01*
X2418930D01*
Y1822483D01*
X2418442Y1824937D01*
X2417051Y1827018D01*
X2398535Y1845535D01*
X2396454Y1846925D01*
X2394000Y1847413D01*
X2246040D01*
Y1851540D01*
X2235464D01*
Y1854471D01*
X2250061Y1869067D01*
X2252824D01*
Y1866348D01*
X2267048D01*
Y1879556D01*
X2252824D01*
Y1876837D01*
X2248452D01*
X2246965Y1876541D01*
X2245705Y1875699D01*
X2231558Y1861552D01*
X2230385Y1862038D01*
Y1882681D01*
X2250843Y1903140D01*
X2251800Y1903820D01*
Y1903820D01*
X2251800Y1903820D01*
X2263615D01*
Y1887000D01*
X2263911Y1885513D01*
X2264753Y1884253D01*
X2269149Y1879857D01*
X2270409Y1879015D01*
X2271896Y1878719D01*
X2274000D01*
Y1876000D01*
X2288224D01*
Y1876000D01*
X2288984Y1876488D01*
X2307064D01*
Y1888568D01*
X2288984D01*
X2288224Y1889208D01*
Y1889208D01*
X2274000D01*
Y1887790D01*
X2272730Y1887264D01*
X2271384Y1888609D01*
Y1913607D01*
X2271706Y1913831D01*
X2272976Y1913472D01*
Y1913472D01*
X2287200D01*
X2287200Y1913472D01*
D01*
X2287960Y1913460D01*
Y1913460D01*
X2288465Y1913460D01*
X2306040D01*
Y1915615D01*
X2320291D01*
X2322868Y1913039D01*
X2322661Y1912000D01*
X2323091Y1909838D01*
X2324316Y1908006D01*
X2326148Y1906781D01*
X2328310Y1906351D01*
X2330471Y1906781D01*
X2332304Y1908006D01*
X2333528Y1909838D01*
X2333958Y1912000D01*
X2333528Y1914162D01*
X2332304Y1915994D01*
X2330471Y1917218D01*
X2329478Y1917416D01*
X2324647Y1922247D01*
X2324523Y1922330D01*
X2324523Y1923857D01*
X2325494Y1924506D01*
X2326718Y1926338D01*
X2327148Y1928500D01*
X2326718Y1930661D01*
X2325494Y1932494D01*
X2323661Y1933718D01*
X2321500Y1934148D01*
X2319338Y1933718D01*
X2317506Y1932494D01*
X2317433Y1932384D01*
X2261500D01*
X2260013Y1932089D01*
X2258753Y1931247D01*
X2220263Y1892757D01*
X2219090Y1893243D01*
X2219090Y1941217D01*
X2219988Y1942115D01*
X2250560D01*
Y1937360D01*
X2264740D01*
Y1954640D01*
X2250560D01*
Y1949884D01*
X2219090D01*
X2219090Y2202000D01*
X2218893Y2202991D01*
X2218331Y2203831D01*
X2217491Y2204393D01*
X2216500Y2204590D01*
X2073398Y2204590D01*
D02*
G37*
G36*
X1641500Y2007487D02*
X1638553Y2007099D01*
X1635806Y2005962D01*
X1633448Y2004152D01*
X1631638Y2001794D01*
X1630500Y1999047D01*
X1630112Y1996100D01*
X1630500Y1993153D01*
X1631638Y1990406D01*
X1633448Y1988048D01*
X1635806Y1986238D01*
X1638553Y1985100D01*
X1641500Y1984712D01*
X1644447Y1985100D01*
X1647194Y1986238D01*
X1649552Y1988048D01*
X1651362Y1990406D01*
X1652499Y1993153D01*
X1652887Y1996100D01*
X1652499Y1999047D01*
X1651362Y2001794D01*
X1649552Y2004152D01*
X1647194Y2005962D01*
X1644447Y2007099D01*
X1641500Y2007487D01*
D02*
G37*
G36*
Y1931287D02*
X1638553Y1930899D01*
X1635806Y1929762D01*
X1633448Y1927952D01*
X1631638Y1925594D01*
X1630500Y1922847D01*
X1630112Y1919900D01*
X1630500Y1916953D01*
X1631638Y1914206D01*
X1633448Y1911848D01*
X1635806Y1910038D01*
X1638553Y1908900D01*
X1641500Y1908512D01*
X1644447Y1908900D01*
X1647194Y1910038D01*
X1649552Y1911848D01*
X1651362Y1914206D01*
X1652499Y1916953D01*
X1652887Y1919900D01*
X1652499Y1922847D01*
X1651362Y1925594D01*
X1649552Y1927952D01*
X1647194Y1929762D01*
X1644447Y1930899D01*
X1641500Y1931287D01*
D02*
G37*
G36*
X2288224Y1870056D02*
Y1870056D01*
X2274000D01*
Y1856848D01*
X2288224D01*
Y1856848D01*
X2288984Y1857488D01*
X2307064D01*
Y1859567D01*
X2332885D01*
X2332958Y1859458D01*
X2334790Y1858233D01*
X2336952Y1857803D01*
X2339113Y1858233D01*
X2340946Y1859458D01*
X2342170Y1861290D01*
X2342600Y1863452D01*
X2342170Y1865613D01*
X2340946Y1867446D01*
X2339113Y1868670D01*
X2336952Y1869100D01*
X2334790Y1868670D01*
X2332958Y1867446D01*
X2332885Y1867336D01*
X2307064D01*
Y1869568D01*
X2288984D01*
X2288224Y1870056D01*
D02*
G37*
G36*
X1641500Y1905887D02*
X1638553Y1905499D01*
X1635806Y1904362D01*
X1633448Y1902552D01*
X1631638Y1900193D01*
X1630500Y1897447D01*
X1630112Y1894500D01*
X1630500Y1891553D01*
X1631638Y1888806D01*
X1633448Y1886448D01*
X1635806Y1884638D01*
X1638553Y1883500D01*
X1641500Y1883112D01*
X1644447Y1883500D01*
X1644489Y1883518D01*
X1648269Y1879737D01*
X1647430Y1878780D01*
X1647194Y1878962D01*
X1644447Y1880099D01*
X1641500Y1880487D01*
X1638553Y1880099D01*
X1635806Y1878962D01*
X1633448Y1877152D01*
X1631638Y1874794D01*
X1630500Y1872047D01*
X1630112Y1869100D01*
X1630500Y1866153D01*
X1631638Y1863406D01*
X1633448Y1861048D01*
X1635806Y1859238D01*
X1638553Y1858100D01*
X1641500Y1857712D01*
X1644447Y1858100D01*
X1647194Y1859238D01*
X1649552Y1861048D01*
X1651362Y1863406D01*
X1652499Y1866153D01*
X1652887Y1869100D01*
X1652499Y1872047D01*
X1651362Y1874794D01*
X1651180Y1875030D01*
X1652137Y1875869D01*
X1670615Y1857391D01*
Y1853067D01*
X1670506Y1852994D01*
X1669281Y1851162D01*
X1668851Y1849000D01*
X1669281Y1846838D01*
X1670506Y1845006D01*
X1672338Y1843781D01*
X1674500Y1843351D01*
X1676662Y1843781D01*
X1678494Y1845006D01*
X1679719Y1846838D01*
X1680148Y1849000D01*
X1679719Y1851162D01*
X1678494Y1852994D01*
X1678385Y1853067D01*
Y1859000D01*
X1678089Y1860487D01*
X1677247Y1861747D01*
X1650852Y1888142D01*
X1651362Y1888806D01*
X1652499Y1891553D01*
X1652887Y1894500D01*
X1652499Y1897447D01*
X1651362Y1900193D01*
X1649552Y1902552D01*
X1647194Y1904362D01*
X1644447Y1905499D01*
X1641500Y1905887D01*
D02*
G37*
G36*
X2287200Y1907528D02*
X2272976D01*
Y1894320D01*
X2286748D01*
X2287200Y1894320D01*
Y1894320D01*
X2287200Y1894320D01*
Y1894320D01*
X2287960Y1894460D01*
X2287960D01*
Y1894460D01*
X2287960Y1894460D01*
X2306040D01*
Y1896115D01*
X2344933D01*
X2345006Y1896006D01*
X2346838Y1894781D01*
X2349000Y1894351D01*
X2351161Y1894781D01*
X2352994Y1896006D01*
X2354218Y1897838D01*
X2354648Y1900000D01*
X2354218Y1902161D01*
X2352994Y1903994D01*
X2351161Y1905218D01*
X2349000Y1905648D01*
X2346838Y1905218D01*
X2345006Y1903994D01*
X2344933Y1903884D01*
X2306040D01*
Y1906540D01*
X2287960D01*
X2287200Y1907495D01*
Y1907528D01*
D02*
G37*
G36*
X2832500Y2044250D02*
X2819000D01*
X2805500D01*
Y2039500D01*
X2815500D01*
Y2037750D01*
X2838250D01*
Y2043000D01*
X2832500D01*
Y2044250D01*
D02*
G37*
G36*
X2864500Y2043000D02*
X2841750D01*
Y2037750D01*
X2864500D01*
Y2043000D01*
D02*
G37*
G36*
X1641500Y2083687D02*
X1638553Y2083299D01*
X1635806Y2082162D01*
X1633448Y2080352D01*
X1631638Y2077993D01*
X1630500Y2075247D01*
X1630112Y2072300D01*
X1630500Y2069353D01*
X1631638Y2066606D01*
X1633448Y2064248D01*
X1635806Y2062438D01*
X1638553Y2061300D01*
X1641500Y2060912D01*
X1644447Y2061300D01*
X1647194Y2062438D01*
X1649552Y2064248D01*
X1651362Y2066606D01*
X1652499Y2069353D01*
X1652887Y2072300D01*
X1652499Y2075247D01*
X1651362Y2077993D01*
X1649552Y2080352D01*
X1647194Y2082162D01*
X1644447Y2083299D01*
X1641500Y2083687D01*
D02*
G37*
G36*
Y2058287D02*
X1638553Y2057899D01*
X1635806Y2056762D01*
X1633448Y2054952D01*
X1631638Y2052594D01*
X1630500Y2049847D01*
X1630112Y2046900D01*
X1630500Y2043953D01*
X1631638Y2041206D01*
X1633448Y2038848D01*
X1635806Y2037038D01*
X1638553Y2035900D01*
X1641500Y2035512D01*
X1644447Y2035900D01*
X1647194Y2037038D01*
X1649552Y2038848D01*
X1651362Y2041206D01*
X1652499Y2043953D01*
X1652887Y2046900D01*
X1652499Y2049847D01*
X1651362Y2052594D01*
X1649552Y2054952D01*
X1647194Y2056762D01*
X1644447Y2057899D01*
X1641500Y2058287D01*
D02*
G37*
G36*
Y2032887D02*
X1638553Y2032499D01*
X1635806Y2031362D01*
X1633448Y2029552D01*
X1631638Y2027193D01*
X1630500Y2024447D01*
X1630112Y2021500D01*
X1630500Y2018553D01*
X1631638Y2015806D01*
X1633448Y2013448D01*
X1635806Y2011638D01*
X1638553Y2010500D01*
X1641500Y2010112D01*
X1644447Y2010500D01*
X1647194Y2011638D01*
X1649552Y2013448D01*
X1651362Y2015806D01*
X1652499Y2018553D01*
X1652887Y2021500D01*
X1652499Y2024447D01*
X1651362Y2027193D01*
X1649552Y2029552D01*
X1647194Y2031362D01*
X1644447Y2032499D01*
X1641500Y2032887D01*
D02*
G37*
G36*
X2838250Y2034250D02*
X2815500D01*
Y2029000D01*
X2838250D01*
Y2034250D01*
D02*
G37*
G36*
X2864500D02*
X2841750D01*
Y2029000D01*
X2864500D01*
Y2034250D01*
D02*
G37*
G36*
X2856500Y1542641D02*
X2851394Y1542239D01*
X2846413Y1541043D01*
X2841682Y1539083D01*
X2837314Y1536407D01*
X2833419Y1533080D01*
X2830093Y1529185D01*
X2827417Y1524818D01*
X2825457Y1520086D01*
X2824261Y1515106D01*
X2823859Y1510000D01*
X2824261Y1504894D01*
X2825457Y1499913D01*
X2827417Y1495181D01*
X2830093Y1490814D01*
X2833419Y1486920D01*
X2837314Y1483593D01*
X2841682Y1480917D01*
X2846413Y1478957D01*
X2851394Y1477761D01*
X2856500Y1477359D01*
X2861606Y1477761D01*
X2866586Y1478957D01*
X2871318Y1480917D01*
X2875685Y1483593D01*
X2879580Y1486920D01*
X2882907Y1490814D01*
X2885583Y1495181D01*
X2887543Y1499913D01*
X2888739Y1504894D01*
X2889141Y1510000D01*
X2888739Y1515106D01*
X2887543Y1520086D01*
X2885583Y1524818D01*
X2882907Y1529185D01*
X2879580Y1533080D01*
X2875685Y1536407D01*
X2871318Y1539083D01*
X2866586Y1541043D01*
X2861606Y1542239D01*
X2856500Y1542641D01*
D02*
G37*
G36*
X2429733Y1706974D02*
X2423918D01*
Y1700652D01*
X2429733D01*
Y1706974D01*
D02*
G37*
G36*
X2420419D02*
X2414604D01*
Y1700652D01*
X2420419D01*
Y1706974D01*
D02*
G37*
G36*
X1674000Y1809148D02*
X1671838Y1808718D01*
X1670006Y1807494D01*
X1668781Y1805661D01*
X1668351Y1803500D01*
X1668781Y1801338D01*
X1670006Y1799506D01*
X1671838Y1798281D01*
X1674000Y1797851D01*
X1676161Y1798281D01*
X1677994Y1799506D01*
X1678067Y1799615D01*
X1707391D01*
X1746701Y1760305D01*
X1746134Y1759076D01*
X1744338Y1758718D01*
X1742506Y1757494D01*
X1741281Y1755661D01*
X1740851Y1753500D01*
X1741281Y1751338D01*
X1742506Y1749506D01*
X1742615Y1749433D01*
Y1746540D01*
X1737460D01*
Y1734460D01*
X1755540D01*
Y1746540D01*
X1750385D01*
Y1749433D01*
X1750494Y1749506D01*
X1751718Y1751338D01*
X1752076Y1753134D01*
X1753305Y1753701D01*
X1765115Y1741891D01*
Y1726540D01*
X1759960D01*
Y1724384D01*
X1755540D01*
Y1727540D01*
X1737460D01*
Y1715460D01*
X1755540D01*
Y1716615D01*
X1759960D01*
Y1714460D01*
X1778040D01*
Y1726540D01*
X1772885D01*
Y1743500D01*
X1772589Y1744986D01*
X1771747Y1746247D01*
X1711747Y1806247D01*
X1710486Y1807089D01*
X1709000Y1807384D01*
X1678067D01*
X1677994Y1807494D01*
X1676161Y1808718D01*
X1674000Y1809148D01*
D02*
G37*
G36*
X1641500Y1728087D02*
X1638553Y1727699D01*
X1635806Y1726562D01*
X1633448Y1724752D01*
X1631638Y1722393D01*
X1630500Y1719647D01*
X1630112Y1716700D01*
X1630500Y1713753D01*
X1631638Y1711006D01*
X1633448Y1708648D01*
X1635806Y1706838D01*
X1638553Y1705700D01*
X1641500Y1705312D01*
X1644447Y1705700D01*
X1647194Y1706838D01*
X1649552Y1708648D01*
X1651362Y1711006D01*
X1652499Y1713753D01*
X1652887Y1716700D01*
X1652499Y1719647D01*
X1651362Y1722393D01*
X1649552Y1724752D01*
X1647194Y1726562D01*
X1644447Y1727699D01*
X1641500Y1728087D01*
D02*
G37*
G36*
X1783000Y1712500D02*
X1755000D01*
Y1690500D01*
X1783000D01*
Y1690874D01*
X1784270Y1691594D01*
X1786259Y1690770D01*
X1789000Y1690409D01*
X1791741Y1690770D01*
X1794295Y1691828D01*
X1796489Y1693511D01*
X1798172Y1695705D01*
X1799230Y1698259D01*
X1799590Y1701000D01*
X1799230Y1703741D01*
X1798172Y1706295D01*
X1796489Y1708488D01*
X1794295Y1710172D01*
X1791741Y1711230D01*
X1789000Y1711591D01*
X1786259Y1711230D01*
X1784270Y1710406D01*
X1783000Y1710880D01*
Y1712500D01*
D02*
G37*
G36*
X1641500Y1702687D02*
X1638553Y1702299D01*
X1635806Y1701162D01*
X1633448Y1699352D01*
X1631638Y1696994D01*
X1630500Y1694247D01*
X1630112Y1691300D01*
X1630500Y1688353D01*
X1631638Y1685606D01*
X1633448Y1683248D01*
X1635806Y1681438D01*
X1638553Y1680300D01*
X1641500Y1679912D01*
X1644447Y1680300D01*
X1647194Y1681438D01*
X1649552Y1683248D01*
X1651362Y1685606D01*
X1652499Y1688353D01*
X1652887Y1691300D01*
X1652499Y1694247D01*
X1651362Y1696994D01*
X1649552Y1699352D01*
X1647194Y1701162D01*
X1644447Y1702299D01*
X1641500Y1702687D01*
D02*
G37*
G36*
X2429733Y1697152D02*
X2423918D01*
Y1690830D01*
X2429733D01*
Y1697152D01*
D02*
G37*
G36*
X2420419D02*
X2414604D01*
Y1690830D01*
X2420419D01*
Y1697152D01*
D02*
G37*
G36*
X1914000Y1852345D02*
X1869000D01*
X1867855Y1852195D01*
X1866710Y1852044D01*
X1865827Y1851678D01*
X1864577Y1851160D01*
X1862745Y1849755D01*
X1812836Y1799845D01*
X1807220D01*
X1806795Y1800172D01*
X1804241Y1801230D01*
X1801500Y1801591D01*
X1798759Y1801230D01*
X1796205Y1800172D01*
X1794011Y1798488D01*
X1792328Y1796295D01*
X1791270Y1793741D01*
X1790909Y1791000D01*
X1791270Y1788259D01*
X1792328Y1785704D01*
X1794011Y1783511D01*
X1796205Y1781828D01*
X1798759Y1780770D01*
X1801500Y1780409D01*
X1804241Y1780770D01*
X1806795Y1781828D01*
X1807220Y1782154D01*
X1816500D01*
X1817496Y1782285D01*
X1818089Y1781082D01*
X1811891Y1774884D01*
X1798067D01*
X1797994Y1774994D01*
X1796161Y1776218D01*
X1794000Y1776648D01*
X1791838Y1776218D01*
X1790006Y1774994D01*
X1788781Y1773161D01*
X1788351Y1771000D01*
X1788781Y1768838D01*
X1790006Y1767006D01*
X1791838Y1765781D01*
X1794000Y1765351D01*
X1796161Y1765781D01*
X1797994Y1767006D01*
X1798067Y1767115D01*
X1813500D01*
X1814986Y1767411D01*
X1816247Y1768253D01*
X1872609Y1824615D01*
X1877000D01*
X1878486Y1824911D01*
X1879747Y1825753D01*
X1880589Y1827013D01*
X1880885Y1828500D01*
X1880589Y1829986D01*
X1879747Y1831247D01*
X1878486Y1832089D01*
X1877000Y1832384D01*
X1872190D01*
X1871664Y1833654D01*
X1872664Y1834654D01*
X1883500D01*
Y1829500D01*
X1893500D01*
Y1827750D01*
X1895250D01*
Y1820750D01*
X1903500D01*
Y1822300D01*
X1929600D01*
Y1825504D01*
X1946454D01*
X1947205Y1824928D01*
X1949759Y1823870D01*
X1952500Y1823509D01*
X1955241Y1823870D01*
X1957795Y1824928D01*
X1959989Y1826611D01*
X1961672Y1828804D01*
X1962730Y1831359D01*
X1963091Y1834100D01*
X1962730Y1836841D01*
X1961672Y1839395D01*
X1959989Y1841588D01*
X1957795Y1843272D01*
X1955241Y1844330D01*
X1952500Y1844690D01*
X1949759Y1844330D01*
X1947205Y1843272D01*
X1947106Y1843196D01*
X1929600D01*
Y1846400D01*
X1923294D01*
X1922255Y1847755D01*
X1920255Y1849755D01*
X1918423Y1851160D01*
X1917173Y1851678D01*
X1916289Y1852044D01*
X1915145Y1852195D01*
X1914000Y1852345D01*
D02*
G37*
G36*
X1891750Y1826000D02*
X1883500D01*
Y1820750D01*
X1891750D01*
Y1826000D01*
D02*
G37*
G36*
X1641500Y1855087D02*
X1638553Y1854699D01*
X1635806Y1853562D01*
X1633448Y1851752D01*
X1631638Y1849393D01*
X1630500Y1846647D01*
X1630112Y1843700D01*
X1630500Y1840753D01*
X1631638Y1838006D01*
X1633448Y1835648D01*
X1635806Y1833838D01*
X1638553Y1832700D01*
X1641500Y1832312D01*
X1644447Y1832700D01*
X1647194Y1833838D01*
X1649552Y1835648D01*
X1651362Y1838006D01*
X1652111Y1839815D01*
X1655925D01*
X1656852Y1839000D01*
X1657281Y1836838D01*
X1658506Y1835006D01*
X1660338Y1833781D01*
X1662500Y1833351D01*
X1664662Y1833781D01*
X1666494Y1835006D01*
X1667719Y1836838D01*
X1668148Y1839000D01*
X1667719Y1841162D01*
X1666494Y1842994D01*
X1664662Y1844218D01*
X1662500Y1844648D01*
X1662371Y1844623D01*
X1660547Y1846447D01*
X1659287Y1847289D01*
X1657800Y1847585D01*
X1652111D01*
X1651362Y1849393D01*
X1649552Y1851752D01*
X1647194Y1853562D01*
X1644447Y1854699D01*
X1641500Y1855087D01*
D02*
G37*
G36*
X2176006Y1692384D02*
X1894000D01*
X1892513Y1692089D01*
X1891253Y1691247D01*
X1768191Y1568185D01*
X1652111D01*
X1651362Y1569993D01*
X1649552Y1572352D01*
X1647194Y1574162D01*
X1644447Y1575299D01*
X1641500Y1575687D01*
X1638553Y1575299D01*
X1635806Y1574162D01*
X1633448Y1572352D01*
X1631638Y1569993D01*
X1630500Y1567247D01*
X1630112Y1564300D01*
X1630500Y1561353D01*
X1631638Y1558606D01*
X1633448Y1556248D01*
X1635806Y1554438D01*
X1638553Y1553300D01*
X1641500Y1552912D01*
X1644447Y1553300D01*
X1647194Y1554438D01*
X1649552Y1556248D01*
X1651362Y1558606D01*
X1652111Y1560415D01*
X1769110D01*
X1769636Y1559145D01*
X1732836Y1522346D01*
X1655197D01*
X1655077Y1522572D01*
X1653046Y1525046D01*
X1650572Y1527077D01*
X1647749Y1528586D01*
X1644685Y1529515D01*
X1641500Y1529828D01*
X1638314Y1529515D01*
X1635251Y1528586D01*
X1632428Y1527077D01*
X1629954Y1525046D01*
X1627923Y1522572D01*
X1626414Y1519749D01*
X1625485Y1516685D01*
X1625171Y1513500D01*
X1625485Y1510314D01*
X1626414Y1507251D01*
X1627923Y1504428D01*
X1629954Y1501954D01*
X1632428Y1499923D01*
X1635251Y1498414D01*
X1638314Y1497485D01*
X1641500Y1497171D01*
X1644685Y1497485D01*
X1647749Y1498414D01*
X1650572Y1499923D01*
X1653046Y1501954D01*
X1655077Y1504428D01*
X1655198Y1504654D01*
X1736500D01*
X1737645Y1504805D01*
X1738789Y1504956D01*
X1739673Y1505322D01*
X1740923Y1505839D01*
X1742755Y1507245D01*
X1902664Y1667154D01*
X2170336D01*
X2205654Y1631836D01*
Y1582250D01*
X2204500D01*
Y1554250D01*
X2207146D01*
X2207322Y1553827D01*
X2207839Y1552577D01*
X2209245Y1550745D01*
X2212982Y1547008D01*
Y1524200D01*
X2177498D01*
Y1483800D01*
X2217898D01*
Y1495915D01*
X2218923Y1496339D01*
X2220755Y1497745D01*
X2228083Y1505073D01*
X2228508Y1505628D01*
X2228975Y1506235D01*
X2230576Y1506430D01*
X2233204Y1503802D01*
X2233479Y1501012D01*
X2234350Y1498140D01*
X2235765Y1495492D01*
X2237670Y1493172D01*
X2239990Y1491267D01*
X2242638Y1489852D01*
X2245510Y1488981D01*
X2248498Y1488686D01*
X2251485Y1488981D01*
X2254358Y1489852D01*
X2257006Y1491267D01*
X2259326Y1493172D01*
X2261231Y1495492D01*
X2262646Y1498140D01*
X2263517Y1501012D01*
X2263812Y1504000D01*
X2263517Y1506988D01*
X2262646Y1509860D01*
X2261231Y1512508D01*
X2259326Y1514828D01*
X2257006Y1516733D01*
X2254358Y1518148D01*
X2251485Y1519019D01*
X2248498Y1519314D01*
X2245510Y1519019D01*
X2242638Y1518148D01*
X2239990Y1516733D01*
X2237670Y1514828D01*
X2237023Y1514040D01*
X2235753Y1514495D01*
Y1549063D01*
X2237247Y1550557D01*
X2238089Y1551817D01*
X2238385Y1553304D01*
Y1559210D01*
X2240540D01*
Y1564615D01*
X2254000D01*
X2255486Y1564911D01*
X2256747Y1565753D01*
X2257589Y1567013D01*
X2257885Y1568500D01*
X2257589Y1569986D01*
X2256747Y1571247D01*
X2255486Y1572089D01*
X2254000Y1572384D01*
X2240540D01*
Y1577290D01*
X2231655D01*
Y1636736D01*
X2231359Y1638223D01*
X2230517Y1639483D01*
X2178753Y1691247D01*
X2177493Y1692089D01*
X2176006Y1692384D01*
D02*
G37*
G36*
X1902540Y1814790D02*
X1884460D01*
Y1802710D01*
X1888419D01*
X1888752Y1801033D01*
X1889866Y1799366D01*
X1891216Y1798016D01*
X1892883Y1796902D01*
X1894850Y1796511D01*
X1907360D01*
Y1794560D01*
X1908361D01*
Y1771000D01*
X1908752Y1769034D01*
X1909866Y1767366D01*
X1937506Y1739726D01*
X1939173Y1738612D01*
X1941140Y1738221D01*
X2042860D01*
X2044827Y1738612D01*
X2046494Y1739726D01*
X2055534Y1748766D01*
X2056648Y1750434D01*
X2057039Y1752400D01*
Y1752913D01*
X2058868Y1753154D01*
X2060703Y1753914D01*
X2062278Y1755122D01*
X2063486Y1756698D01*
X2064246Y1758532D01*
X2064505Y1760500D01*
Y1775500D01*
X2064246Y1777468D01*
X2063486Y1779303D01*
X2062278Y1780878D01*
X2060703Y1782086D01*
X2058868Y1782846D01*
X2056900Y1783105D01*
X2046900D01*
X2044932Y1782846D01*
X2043098Y1782086D01*
X2041522Y1780878D01*
X2040634Y1780863D01*
X2038934Y1782934D01*
X2036270Y1785121D01*
X2033229Y1786746D01*
X2029931Y1787747D01*
X2026500Y1788085D01*
X2023069Y1787747D01*
X2019771Y1786746D01*
X2016730Y1785121D01*
X2014066Y1782934D01*
X2013534D01*
X2010869Y1785121D01*
X2007829Y1786746D01*
X2004531Y1787747D01*
X2001100Y1788085D01*
X1997669Y1787747D01*
X1994371Y1786746D01*
X1991331Y1785121D01*
X1988666Y1782934D01*
X1986479Y1780269D01*
X1984854Y1777229D01*
X1983853Y1773931D01*
X1983515Y1770500D01*
Y1765500D01*
X1983853Y1762069D01*
X1984854Y1758771D01*
X1986479Y1755730D01*
X1988666Y1753066D01*
X1991331Y1750879D01*
X1993407Y1749769D01*
X1993089Y1748499D01*
X1943268D01*
X1918639Y1773129D01*
Y1794560D01*
X1924640D01*
Y1808740D01*
X1907360D01*
Y1806789D01*
X1902540D01*
Y1814790D01*
D02*
G37*
G36*
X2599600Y1770037D02*
X2595671Y1769650D01*
X2591894Y1768504D01*
X2588412Y1766643D01*
X2585361Y1764139D01*
X2582857Y1761087D01*
X2580996Y1757606D01*
X2579850Y1753828D01*
X2579463Y1749900D01*
X2579850Y1745972D01*
X2580996Y1742194D01*
X2582857Y1738712D01*
X2585361Y1735661D01*
X2588412Y1733157D01*
X2591894Y1731296D01*
X2595671Y1730150D01*
X2599600Y1729763D01*
X2603528Y1730150D01*
X2607306Y1731296D01*
X2610787Y1733157D01*
X2613839Y1735661D01*
X2616343Y1738712D01*
X2618204Y1742194D01*
X2619350Y1745972D01*
X2619737Y1749900D01*
X2619350Y1753828D01*
X2618204Y1757606D01*
X2616343Y1761087D01*
X2613839Y1764139D01*
X2610787Y1766643D01*
X2607306Y1768504D01*
X2603528Y1769650D01*
X2599600Y1770037D01*
D02*
G37*
G36*
X1698500Y1830648D02*
X1696338Y1830219D01*
X1694506Y1828994D01*
X1693281Y1827162D01*
X1692852Y1825000D01*
X1693281Y1822838D01*
X1694406Y1821155D01*
X1694072Y1819885D01*
X1688972D01*
X1688719Y1821162D01*
X1687494Y1822994D01*
X1685662Y1824219D01*
X1683500Y1824648D01*
X1681338Y1824219D01*
X1679506Y1822994D01*
X1678281Y1821162D01*
X1677852Y1819000D01*
X1678281Y1816838D01*
X1679506Y1815006D01*
X1681338Y1813781D01*
X1683500Y1813351D01*
X1683629Y1813377D01*
X1683753Y1813253D01*
X1685013Y1812411D01*
X1686500Y1812115D01*
X1713641D01*
X1808377Y1717379D01*
X1808351Y1717250D01*
X1808781Y1715088D01*
X1810006Y1713256D01*
X1811838Y1712031D01*
X1814000Y1711601D01*
X1816161Y1712031D01*
X1816422Y1712206D01*
X1817613Y1711608D01*
X1817700Y1710660D01*
X1816531Y1708911D01*
X1816101Y1706750D01*
X1816531Y1704588D01*
X1817756Y1702756D01*
X1819588Y1701531D01*
X1821750Y1701101D01*
X1823911Y1701531D01*
X1825744Y1702756D01*
X1826968Y1704588D01*
X1827398Y1706750D01*
X1826968Y1708911D01*
X1825744Y1710744D01*
X1825634Y1710817D01*
Y1726566D01*
X1825388Y1727806D01*
X1825339Y1728053D01*
X1824497Y1729313D01*
X1726063Y1827747D01*
X1724802Y1828589D01*
X1723316Y1828885D01*
X1702567D01*
X1702494Y1828994D01*
X1700662Y1830219D01*
X1698500Y1830648D01*
D02*
G37*
G36*
X1641500Y1677287D02*
X1638553Y1676899D01*
X1635806Y1675762D01*
X1633448Y1673952D01*
X1631638Y1671593D01*
X1630500Y1668847D01*
X1630112Y1665900D01*
X1630500Y1662953D01*
X1631638Y1660206D01*
X1633448Y1657848D01*
X1635806Y1656038D01*
X1638553Y1654900D01*
X1641500Y1654512D01*
X1644447Y1654900D01*
X1647194Y1656038D01*
X1649552Y1657848D01*
X1651362Y1660206D01*
X1652499Y1662953D01*
X1652887Y1665900D01*
X1652499Y1668847D01*
X1651362Y1671593D01*
X1649552Y1673952D01*
X1647194Y1675762D01*
X1644447Y1676899D01*
X1641500Y1677287D01*
D02*
G37*
G36*
X2599600Y2505744D02*
X2595378Y2505328D01*
X2591317Y2504097D01*
X2587575Y2502097D01*
X2584295Y2499405D01*
X2581603Y2496125D01*
X2579603Y2492383D01*
X2578372Y2488323D01*
X2577956Y2484100D01*
X2578372Y2479877D01*
X2579603Y2475817D01*
X2581603Y2472075D01*
X2584295Y2468795D01*
X2587575Y2466104D01*
X2591317Y2464103D01*
X2595378Y2462872D01*
X2599600Y2462456D01*
X2603823Y2462872D01*
X2607883Y2464103D01*
X2611625Y2466104D01*
X2614905Y2468795D01*
X2617596Y2472075D01*
X2619597Y2475817D01*
X2620828Y2479877D01*
X2621244Y2484100D01*
X2620828Y2488323D01*
X2619597Y2492383D01*
X2617596Y2496125D01*
X2614905Y2499405D01*
X2611625Y2502097D01*
X2607883Y2504097D01*
X2603823Y2505328D01*
X2599600Y2505744D01*
D02*
G37*
G36*
X1865400D02*
X1861177Y2505328D01*
X1857117Y2504097D01*
X1853375Y2502097D01*
X1850095Y2499405D01*
X1847404Y2496125D01*
X1845403Y2492383D01*
X1844172Y2488323D01*
X1843756Y2484100D01*
X1844172Y2479877D01*
X1845403Y2475817D01*
X1847404Y2472075D01*
X1850095Y2468795D01*
X1853375Y2466104D01*
X1857117Y2464103D01*
X1861177Y2462872D01*
X1865400Y2462456D01*
X1869623Y2462872D01*
X1873683Y2464103D01*
X1877425Y2466104D01*
X1880705Y2468795D01*
X1883396Y2472075D01*
X1885397Y2475817D01*
X1886628Y2479877D01*
X1887044Y2484100D01*
X1886628Y2488323D01*
X1885397Y2492383D01*
X1883396Y2496125D01*
X1880705Y2499405D01*
X1877425Y2502097D01*
X1873683Y2504097D01*
X1869623Y2505328D01*
X1865400Y2505744D01*
D02*
G37*
G36*
X2785988Y2488838D02*
X2780174D01*
Y2482516D01*
X2785988D01*
Y2488838D01*
D02*
G37*
G36*
X2776674D02*
X2770860D01*
Y2482516D01*
X2776674D01*
Y2488838D01*
D02*
G37*
G36*
X2309750Y2396235D02*
Y2387000D01*
X2318985D01*
X2318834Y2388153D01*
X2317713Y2390858D01*
X2315931Y2393181D01*
X2313608Y2394963D01*
X2310903Y2396084D01*
X2309750Y2396235D01*
D02*
G37*
G36*
X2306250Y2396235D02*
X2305097Y2396084D01*
X2302392Y2394963D01*
X2300069Y2393181D01*
X2298287Y2390858D01*
X2297166Y2388153D01*
X2297014Y2387000D01*
X2306250D01*
Y2396235D01*
D02*
G37*
G36*
X2879500Y2520048D02*
X2876227Y2519617D01*
X2873176Y2518354D01*
X2870556Y2516344D01*
X2868546Y2513724D01*
X2867536Y2511285D01*
X2842900D01*
X2841660Y2511038D01*
X2841413Y2510989D01*
X2840153Y2510147D01*
X2803303Y2473297D01*
X2794680D01*
Y2476524D01*
X2781472D01*
Y2462300D01*
X2794680D01*
Y2465527D01*
X2804912D01*
X2806399Y2465823D01*
X2807659Y2466665D01*
X2844509Y2503515D01*
X2867536D01*
X2868546Y2501076D01*
X2870556Y2498456D01*
X2873176Y2496446D01*
X2875733Y2495387D01*
Y2494013D01*
X2873176Y2492954D01*
X2870556Y2490944D01*
X2868546Y2488324D01*
X2867283Y2485274D01*
X2866852Y2482000D01*
X2867283Y2478726D01*
X2868546Y2475676D01*
X2870556Y2473056D01*
X2873176Y2471046D01*
X2875733Y2469987D01*
Y2468613D01*
X2873176Y2467554D01*
X2870556Y2465544D01*
X2868546Y2462924D01*
X2867283Y2459874D01*
X2866852Y2456600D01*
X2867283Y2453326D01*
X2868546Y2450276D01*
X2870556Y2447656D01*
X2873176Y2445646D01*
X2876227Y2444383D01*
X2879500Y2443952D01*
X2882774Y2444383D01*
X2885824Y2445646D01*
X2888444Y2447656D01*
X2890454Y2450276D01*
X2891717Y2453326D01*
X2892148Y2456600D01*
X2891717Y2459874D01*
X2890454Y2462924D01*
X2888444Y2465544D01*
X2885824Y2467554D01*
X2883268Y2468613D01*
Y2469987D01*
X2885824Y2471046D01*
X2888444Y2473056D01*
X2890454Y2475676D01*
X2891717Y2478726D01*
X2892148Y2482000D01*
X2891717Y2485274D01*
X2890454Y2488324D01*
X2888444Y2490944D01*
X2885824Y2492954D01*
X2883268Y2494013D01*
Y2495387D01*
X2885824Y2496446D01*
X2888444Y2498456D01*
X2890454Y2501076D01*
X2891717Y2504126D01*
X2892148Y2507400D01*
X2891717Y2510674D01*
X2890454Y2513724D01*
X2888444Y2516344D01*
X2885824Y2518354D01*
X2882774Y2519617D01*
X2879500Y2520048D01*
D02*
G37*
G36*
X1644000Y2528014D02*
X1641012Y2527720D01*
X1638140Y2526848D01*
X1635492Y2525433D01*
X1633172Y2523528D01*
X1631267Y2521208D01*
X1629852Y2518560D01*
X1628981Y2515688D01*
X1628686Y2512700D01*
X1628981Y2509712D01*
X1629852Y2506840D01*
X1631267Y2504192D01*
X1633172Y2501871D01*
X1635492Y2499967D01*
X1638140Y2498552D01*
X1638861Y2498333D01*
Y2459340D01*
X1629460D01*
Y2432660D01*
X1658540D01*
Y2459340D01*
X1649139D01*
Y2498333D01*
X1649860Y2498552D01*
X1652508Y2499967D01*
X1654828Y2501871D01*
X1656733Y2504192D01*
X1658148Y2506840D01*
X1659019Y2509712D01*
X1659314Y2512700D01*
X1659019Y2515688D01*
X1658148Y2518560D01*
X1656733Y2521208D01*
X1654828Y2523528D01*
X1652508Y2525433D01*
X1649860Y2526848D01*
X1646988Y2527720D01*
X1644000Y2528014D01*
D02*
G37*
G36*
X1775750Y2629750D02*
X1766000D01*
Y2621500D01*
X1775750D01*
Y2629750D01*
D02*
G37*
G36*
X2856500Y2639641D02*
X2851394Y2639239D01*
X2846413Y2638043D01*
X2841682Y2636083D01*
X2837314Y2633407D01*
X2833419Y2630080D01*
X2830093Y2626186D01*
X2827417Y2621819D01*
X2825457Y2617086D01*
X2824261Y2612106D01*
X2823859Y2607000D01*
X2824261Y2601894D01*
X2825457Y2596913D01*
X2827417Y2592181D01*
X2830093Y2587814D01*
X2833419Y2583919D01*
X2837314Y2580593D01*
X2841682Y2577917D01*
X2846413Y2575957D01*
X2851394Y2574761D01*
X2856500Y2574359D01*
X2861606Y2574761D01*
X2866586Y2575957D01*
X2871318Y2577917D01*
X2875685Y2580593D01*
X2879580Y2583919D01*
X2882907Y2587814D01*
X2885583Y2592181D01*
X2887543Y2596913D01*
X2888739Y2601894D01*
X2889141Y2607000D01*
X2888739Y2612106D01*
X2887543Y2617086D01*
X2885583Y2621819D01*
X2882907Y2626186D01*
X2879580Y2630080D01*
X2875685Y2633407D01*
X2871318Y2636083D01*
X2866586Y2638043D01*
X2861606Y2639239D01*
X2856500Y2639641D01*
D02*
G37*
G36*
X1744000Y2676105D02*
X1734000D01*
X1732032Y2675846D01*
X1730197Y2675086D01*
X1728622Y2673878D01*
X1727414Y2672303D01*
X1726654Y2670468D01*
X1726395Y2668500D01*
Y2633500D01*
X1726654Y2631532D01*
X1727414Y2629697D01*
X1728622Y2628122D01*
X1730197Y2626914D01*
X1732032Y2626154D01*
X1734000Y2625895D01*
X1744000D01*
X1745968Y2626154D01*
X1747802Y2626914D01*
X1749378Y2628122D01*
X1750586Y2629697D01*
X1751346Y2631532D01*
X1751605Y2633500D01*
Y2645361D01*
X1766960D01*
Y2641500D01*
X1766000D01*
Y2633250D01*
X1777500D01*
X1789000D01*
Y2641500D01*
X1788040D01*
Y2659540D01*
X1766960D01*
Y2655639D01*
X1751605D01*
Y2668500D01*
X1751346Y2670468D01*
X1750586Y2672303D01*
X1749378Y2673878D01*
X1747802Y2675086D01*
X1745968Y2675846D01*
X1744000Y2676105D01*
D02*
G37*
G36*
X1789000Y2629750D02*
X1779250D01*
Y2621500D01*
X1789000D01*
Y2629750D01*
D02*
G37*
G36*
X2776674Y2498660D02*
X2770860D01*
Y2492338D01*
X2776674D01*
Y2498660D01*
D02*
G37*
G36*
X2804533Y2518037D02*
X2792453D01*
Y2508159D01*
X2792437Y2508080D01*
Y2497700D01*
X2790972D01*
Y2483476D01*
X2804180D01*
Y2497700D01*
X2802715D01*
Y2499957D01*
X2804533D01*
Y2518037D01*
D02*
G37*
G36*
X2785533D02*
X2773453D01*
Y2512882D01*
X2759497D01*
X2758010Y2512586D01*
X2756750Y2511744D01*
X2721753Y2476747D01*
X2720911Y2475487D01*
X2720615Y2474000D01*
Y2186067D01*
X2720506Y2185994D01*
X2719281Y2184162D01*
X2718852Y2182000D01*
X2719281Y2179838D01*
X2720506Y2178006D01*
X2720615Y2177933D01*
Y2109000D01*
X2720911Y2107513D01*
X2721753Y2106253D01*
X2774753Y2053253D01*
X2776013Y2052411D01*
X2777500Y2052115D01*
X2805500D01*
Y2047750D01*
X2819000D01*
X2832500D01*
Y2052500D01*
X2831540D01*
Y2060460D01*
Y2070460D01*
Y2080460D01*
Y2090460D01*
Y2099500D01*
X2832500D01*
Y2104250D01*
X2819000D01*
X2805500D01*
Y2099885D01*
X2777477D01*
X2759385Y2117977D01*
Y2119826D01*
X2760655Y2120352D01*
X2767753Y2113253D01*
X2769013Y2112411D01*
X2769260Y2112362D01*
X2770500Y2112115D01*
X2805500D01*
Y2107750D01*
X2819000D01*
X2832500D01*
Y2112500D01*
X2831540D01*
Y2120460D01*
Y2130460D01*
Y2139500D01*
X2832500D01*
Y2144250D01*
X2819000D01*
Y2147750D01*
X2832500D01*
Y2149500D01*
Y2154250D01*
X2819000D01*
X2805500D01*
Y2149500D01*
Y2145153D01*
X2804327Y2144667D01*
X2795123Y2153871D01*
X2795149Y2154000D01*
X2794719Y2156162D01*
X2793494Y2157994D01*
X2791662Y2159218D01*
X2789500Y2159648D01*
X2787655Y2159281D01*
X2786385Y2159992D01*
Y2165572D01*
X2787655Y2165906D01*
X2789338Y2164781D01*
X2791500Y2164351D01*
X2793661Y2164781D01*
X2795018Y2164161D01*
X2795281Y2162838D01*
X2796506Y2161006D01*
X2798338Y2159781D01*
X2800500Y2159352D01*
X2802662Y2159781D01*
X2804230Y2160829D01*
X2805165Y2160513D01*
X2805500Y2160267D01*
Y2157750D01*
X2819000D01*
X2832500D01*
Y2162500D01*
X2831540D01*
Y2170460D01*
Y2180460D01*
Y2190460D01*
Y2200460D01*
Y2209500D01*
X2832500D01*
Y2214250D01*
X2819000D01*
X2805500D01*
Y2209885D01*
X2789500D01*
X2788013Y2209589D01*
X2786753Y2208747D01*
X2771753Y2193747D01*
X2770911Y2192487D01*
X2770615Y2191000D01*
Y2139067D01*
X2770506Y2138994D01*
X2769281Y2137162D01*
X2768852Y2135000D01*
X2769281Y2132838D01*
X2770506Y2131006D01*
X2772338Y2129781D01*
X2774500Y2129352D01*
X2776190Y2129688D01*
X2776275Y2129646D01*
X2777146Y2128775D01*
X2777188Y2128690D01*
X2776852Y2127000D01*
X2777281Y2124838D01*
X2778506Y2123006D01*
X2780338Y2121781D01*
X2782500Y2121351D01*
X2784662Y2121781D01*
X2786494Y2123006D01*
X2787719Y2124838D01*
X2788148Y2127000D01*
X2787719Y2129162D01*
X2786494Y2130994D01*
X2786385Y2131067D01*
Y2134015D01*
X2787655Y2134400D01*
X2787753Y2134253D01*
X2798753Y2123253D01*
X2800013Y2122411D01*
X2801500Y2122115D01*
X2806460D01*
Y2120460D01*
Y2119885D01*
X2772109D01*
X2766194Y2125799D01*
Y2141821D01*
X2765899Y2143307D01*
X2765057Y2144568D01*
X2764384Y2145240D01*
Y2157931D01*
X2764494Y2158004D01*
X2765718Y2159836D01*
X2766148Y2161998D01*
X2765718Y2164160D01*
X2764494Y2165992D01*
X2762661Y2167216D01*
X2760500Y2167646D01*
X2758338Y2167216D01*
X2756505Y2165992D01*
X2755281Y2164160D01*
X2754851Y2161998D01*
X2755281Y2159836D01*
X2756505Y2158004D01*
X2756615Y2157931D01*
Y2145428D01*
X2755633Y2144622D01*
X2755500Y2144648D01*
X2753810Y2144312D01*
X2753725Y2144353D01*
X2752853Y2145225D01*
X2752812Y2145310D01*
X2753148Y2147000D01*
X2752719Y2149162D01*
X2751494Y2150994D01*
X2749662Y2152219D01*
X2747500Y2152648D01*
X2745338Y2152219D01*
X2743506Y2150994D01*
X2742281Y2149162D01*
X2741852Y2147000D01*
X2742281Y2144838D01*
X2743506Y2143006D01*
X2743615Y2142933D01*
Y2122992D01*
X2742345Y2122281D01*
X2740500Y2122648D01*
X2738338Y2122218D01*
X2736506Y2120994D01*
X2735281Y2119162D01*
X2735018Y2117839D01*
X2733661Y2117218D01*
X2731500Y2117648D01*
X2729655Y2117281D01*
X2728385Y2117992D01*
Y2177933D01*
X2728494Y2178006D01*
X2729719Y2179838D01*
X2730149Y2182000D01*
X2729719Y2184162D01*
X2728494Y2185994D01*
X2728385Y2186067D01*
Y2472391D01*
X2761106Y2505112D01*
X2773453D01*
Y2499957D01*
X2785533D01*
Y2518037D01*
D02*
G37*
G36*
X2785988Y2498660D02*
X2780174D01*
Y2492338D01*
X2785988D01*
Y2498660D01*
D02*
G37*
G36*
X2838250Y2244250D02*
X2815500D01*
Y2241540D01*
X2806460D01*
Y2241139D01*
X2794500D01*
X2792534Y2240748D01*
X2791980Y2240378D01*
X2790866Y2239634D01*
X2781371Y2230139D01*
X2773781D01*
X2773661Y2230219D01*
X2771500Y2230648D01*
X2769338Y2230219D01*
X2767506Y2228994D01*
X2766281Y2227162D01*
X2765851Y2225000D01*
X2766281Y2222838D01*
X2767506Y2221006D01*
X2769338Y2219781D01*
X2771500Y2219352D01*
X2773661Y2219781D01*
X2773781Y2219861D01*
X2783500D01*
X2785467Y2220252D01*
X2787133Y2221366D01*
X2791627Y2225860D01*
X2792970Y2225406D01*
X2793281Y2223838D01*
X2794506Y2222006D01*
X2796339Y2220781D01*
X2798500Y2220352D01*
X2800662Y2220781D01*
X2800781Y2220861D01*
X2805500D01*
Y2217750D01*
X2819000D01*
X2832500D01*
Y2222500D01*
X2831540D01*
Y2230460D01*
Y2239000D01*
X2838250D01*
Y2244250D01*
D02*
G37*
G36*
X1641500Y2210687D02*
X1638553Y2210299D01*
X1635806Y2209162D01*
X1633448Y2207352D01*
X1631638Y2204993D01*
X1630500Y2202247D01*
X1630112Y2199300D01*
X1630500Y2196353D01*
X1631638Y2193606D01*
X1633448Y2191248D01*
X1635806Y2189438D01*
X1638553Y2188300D01*
X1641500Y2187912D01*
X1644447Y2188300D01*
X1647194Y2189438D01*
X1649552Y2191248D01*
X1651362Y2193606D01*
X1652499Y2196353D01*
X1652887Y2199300D01*
X1652499Y2202247D01*
X1651362Y2204993D01*
X1649552Y2207352D01*
X1647194Y2209162D01*
X1644447Y2210299D01*
X1641500Y2210687D01*
D02*
G37*
G36*
X1738000Y2254000D02*
X1728250D01*
Y2245750D01*
X1738000D01*
Y2254000D01*
D02*
G37*
G36*
X2864500Y2244250D02*
X2841750D01*
Y2239000D01*
X2864500D01*
Y2244250D01*
D02*
G37*
G36*
X1641500Y2134487D02*
X1638553Y2134099D01*
X1635806Y2132962D01*
X1633448Y2131152D01*
X1631638Y2128793D01*
X1630500Y2126047D01*
X1630112Y2123100D01*
X1630500Y2120153D01*
X1631638Y2117406D01*
X1633448Y2115048D01*
X1635806Y2113238D01*
X1638553Y2112100D01*
X1641500Y2111712D01*
X1644447Y2112100D01*
X1647194Y2113238D01*
X1649552Y2115048D01*
X1651362Y2117406D01*
X1652499Y2120153D01*
X1652887Y2123100D01*
X1652499Y2126047D01*
X1651362Y2128793D01*
X1649552Y2131152D01*
X1647194Y2132962D01*
X1644447Y2134099D01*
X1641500Y2134487D01*
D02*
G37*
G36*
Y2109087D02*
X1638553Y2108699D01*
X1635806Y2107562D01*
X1633448Y2105752D01*
X1631638Y2103394D01*
X1630500Y2100647D01*
X1630112Y2097700D01*
X1630500Y2094753D01*
X1631638Y2092006D01*
X1633448Y2089648D01*
X1635806Y2087838D01*
X1638553Y2086700D01*
X1641500Y2086312D01*
X1644447Y2086700D01*
X1647194Y2087838D01*
X1649552Y2089648D01*
X1651362Y2092006D01*
X1652499Y2094753D01*
X1652887Y2097700D01*
X1652499Y2100647D01*
X1651362Y2103394D01*
X1649552Y2105752D01*
X1647194Y2107562D01*
X1644447Y2108699D01*
X1641500Y2109087D01*
D02*
G37*
G36*
Y2185287D02*
X1638553Y2184899D01*
X1635806Y2183762D01*
X1633448Y2181952D01*
X1631638Y2179594D01*
X1630500Y2176847D01*
X1630112Y2173900D01*
X1630500Y2170953D01*
X1631638Y2168206D01*
X1633448Y2165848D01*
X1635806Y2164038D01*
X1638553Y2162900D01*
X1641500Y2162512D01*
X1644447Y2162900D01*
X1647194Y2164038D01*
X1649552Y2165848D01*
X1651362Y2168206D01*
X1652499Y2170953D01*
X1652887Y2173900D01*
X1652499Y2176847D01*
X1651362Y2179594D01*
X1649552Y2181952D01*
X1647194Y2183762D01*
X1644447Y2184899D01*
X1641500Y2185287D01*
D02*
G37*
G36*
Y2159887D02*
X1638553Y2159499D01*
X1635806Y2158362D01*
X1633448Y2156552D01*
X1631638Y2154194D01*
X1630500Y2151447D01*
X1630112Y2148500D01*
X1630500Y2145553D01*
X1631638Y2142806D01*
X1633448Y2140448D01*
X1635806Y2138638D01*
X1638553Y2137500D01*
X1641500Y2137112D01*
X1644447Y2137500D01*
X1647194Y2138638D01*
X1649552Y2140448D01*
X1651362Y2142806D01*
X1652499Y2145553D01*
X1652887Y2148500D01*
X1652499Y2151447D01*
X1651362Y2154194D01*
X1649552Y2156552D01*
X1647194Y2158362D01*
X1644447Y2159499D01*
X1641500Y2159887D01*
D02*
G37*
G36*
Y2286887D02*
X1638553Y2286499D01*
X1635806Y2285362D01*
X1633448Y2283552D01*
X1631638Y2281194D01*
X1630500Y2278447D01*
X1630112Y2275500D01*
X1630500Y2272553D01*
X1631638Y2269806D01*
X1633448Y2267448D01*
X1635806Y2265638D01*
X1638553Y2264500D01*
X1641500Y2264112D01*
X1644447Y2264500D01*
X1647194Y2265638D01*
X1649552Y2267448D01*
X1651362Y2269806D01*
X1652499Y2272553D01*
X1652887Y2275500D01*
X1652499Y2278447D01*
X1651362Y2281194D01*
X1649552Y2283552D01*
X1647194Y2285362D01*
X1644447Y2286499D01*
X1641500Y2286887D01*
D02*
G37*
G36*
X2282600Y2395497D02*
X2279948Y2395148D01*
X2277476Y2394125D01*
X2275354Y2392496D01*
X2273725Y2390374D01*
X2272701Y2387902D01*
X2272352Y2385250D01*
X2272701Y2382598D01*
X2273725Y2380126D01*
X2275354Y2378004D01*
X2277476Y2376375D01*
X2278615Y2375903D01*
Y2266817D01*
X2278506Y2266744D01*
X2277281Y2264911D01*
X2276851Y2262750D01*
X2277281Y2260588D01*
X2278506Y2258756D01*
X2280338Y2257531D01*
X2282500Y2257101D01*
X2284662Y2257531D01*
X2286494Y2258756D01*
X2287718Y2260588D01*
X2288148Y2262750D01*
X2287718Y2264911D01*
X2286494Y2266744D01*
X2286384Y2266817D01*
Y2375820D01*
X2287724Y2376375D01*
X2289846Y2378004D01*
X2291475Y2380126D01*
X2292498Y2382598D01*
X2292848Y2385250D01*
X2292498Y2387902D01*
X2291475Y2390374D01*
X2289846Y2392496D01*
X2287724Y2394125D01*
X2285252Y2395148D01*
X2282600Y2395497D01*
D02*
G37*
G36*
X2306250Y2383500D02*
X2297014D01*
X2297166Y2382347D01*
X2298287Y2379642D01*
X2300069Y2377319D01*
X2302392Y2375536D01*
X2305097Y2374416D01*
X2306250Y2374264D01*
Y2383500D01*
D02*
G37*
G36*
X2318985D02*
X2309750D01*
Y2374264D01*
X2310903Y2374416D01*
X2313608Y2375536D01*
X2315931Y2377319D01*
X2317713Y2379642D01*
X2318834Y2382347D01*
X2318985Y2383500D01*
D02*
G37*
G36*
X1658540Y2423840D02*
X1629460D01*
Y2397160D01*
X1638861D01*
Y2388500D01*
X1639252Y2386533D01*
X1640366Y2384866D01*
X1669361Y2355871D01*
Y2262328D01*
X1654001Y2246968D01*
X1652614Y2247178D01*
X1652516Y2247279D01*
X1652887Y2250100D01*
X1652499Y2253047D01*
X1651362Y2255793D01*
X1649552Y2258152D01*
X1647194Y2259962D01*
X1644447Y2261099D01*
X1641500Y2261487D01*
X1638553Y2261099D01*
X1635806Y2259962D01*
X1633448Y2258152D01*
X1631638Y2255793D01*
X1630500Y2253047D01*
X1630112Y2250100D01*
X1630500Y2247153D01*
X1631638Y2244406D01*
X1633448Y2242048D01*
X1635806Y2240238D01*
X1638553Y2239100D01*
X1641500Y2238712D01*
X1644321Y2239084D01*
X1644422Y2238985D01*
X1644631Y2237599D01*
X1642932Y2235899D01*
X1641500Y2236087D01*
X1638553Y2235699D01*
X1635806Y2234562D01*
X1633448Y2232752D01*
X1631638Y2230394D01*
X1630500Y2227647D01*
X1630112Y2224700D01*
X1630500Y2221753D01*
X1631638Y2219006D01*
X1633448Y2216648D01*
X1635806Y2214838D01*
X1638553Y2213700D01*
X1641500Y2213312D01*
X1644447Y2213700D01*
X1647194Y2214838D01*
X1649552Y2216648D01*
X1651362Y2219006D01*
X1651592Y2219561D01*
X1729210D01*
Y2215960D01*
X1750290D01*
Y2234000D01*
X1751250D01*
Y2242250D01*
X1739750D01*
X1728250D01*
Y2234000D01*
X1729210D01*
Y2229839D01*
X1653202D01*
X1652676Y2231109D01*
X1678134Y2256566D01*
X1679247Y2258233D01*
X1679639Y2260200D01*
Y2358000D01*
X1679247Y2359966D01*
X1678134Y2361633D01*
X1649139Y2390628D01*
Y2397160D01*
X1658540D01*
Y2423840D01*
D02*
G37*
G36*
X1751250Y2254000D02*
X1741500D01*
Y2245750D01*
X1751250D01*
Y2254000D01*
D02*
G37*
G36*
X2864500Y2253000D02*
X2841750D01*
Y2247750D01*
X2864500D01*
Y2253000D01*
D02*
G37*
G36*
X2838250D02*
X2815500D01*
Y2247750D01*
X2838250D01*
Y2253000D01*
D02*
G37*
%LPD*%
G36*
X2216500Y2202000D02*
X2216500Y1854898D01*
X2215602Y1854000D01*
X2212500D01*
Y1841000D01*
Y1828000D01*
X2216500D01*
X2216500Y1741898D01*
X2215602Y1741000D01*
X2072500Y1741000D01*
X2072500Y2057561D01*
X2085360D01*
Y2049660D01*
X2111440D01*
Y2075740D01*
X2085360D01*
Y2067839D01*
X2073398D01*
X2072500Y2068737D01*
X2072500Y2201102D01*
X2073398Y2202000D01*
X2216500Y2202000D01*
D02*
G37*
G36*
X2391500Y1827602D02*
X2391500Y1740000D01*
X2233398Y1740000D01*
X2232500Y1740898D01*
X2232500Y1828500D01*
X2390602Y1828500D01*
X2391500Y1827602D01*
D02*
G37*
%LPC*%
G36*
X2098400Y2135187D02*
X2094871Y2134839D01*
X2091478Y2133810D01*
X2088351Y2132139D01*
X2085611Y2129890D01*
X2083361Y2127149D01*
X2081690Y2124022D01*
X2080660Y2120629D01*
X2080313Y2117100D01*
X2080660Y2113571D01*
X2081690Y2110178D01*
X2083361Y2107051D01*
X2085611Y2104310D01*
X2088351Y2102061D01*
X2091478Y2100390D01*
X2094871Y2099360D01*
X2098400Y2099013D01*
X2101929Y2099360D01*
X2105322Y2100390D01*
X2108449Y2102061D01*
X2111190Y2104310D01*
X2113439Y2107051D01*
X2115110Y2110178D01*
X2116140Y2113571D01*
X2116487Y2117100D01*
X2116140Y2120629D01*
X2115110Y2124022D01*
X2113439Y2127149D01*
X2111190Y2129890D01*
X2108449Y2132139D01*
X2105322Y2133810D01*
X2101929Y2134839D01*
X2098400Y2135187D01*
D02*
G37*
G36*
X2207500Y1838500D02*
X2200500D01*
Y1828000D01*
X2207500D01*
Y1838500D01*
D02*
G37*
G36*
Y1854000D02*
X2200500D01*
Y1843500D01*
X2207500D01*
Y1854000D01*
D02*
G37*
%LPD*%
D10*
X1871000Y1828500D02*
D03*
X1877000D02*
D03*
X2248000Y1568500D02*
D03*
X2254000D02*
D03*
D11*
X2290350Y1946000D02*
D03*
X2257650D02*
D03*
D12*
X2350493Y1781490D02*
D03*
D13*
X2373393Y1709490D02*
D03*
X2327593D02*
D03*
D14*
X2255800Y1781500D02*
D03*
X2193200D02*
D03*
D15*
X2239000Y1841000D02*
D03*
X2210000D02*
D03*
D16*
X2798493Y2508997D02*
D03*
X2779493D02*
D03*
X2215500Y1568250D02*
D03*
X2234500D02*
D03*
D17*
X2797576Y2490588D02*
D03*
X2778424D02*
D03*
X2788076Y2469412D02*
D03*
X2412516Y1720078D02*
D03*
X2422168Y1698902D02*
D03*
X2403017D02*
D03*
D18*
X2819000Y2046000D02*
D03*
Y2056000D02*
D03*
Y2066000D02*
D03*
Y2076000D02*
D03*
Y2086000D02*
D03*
Y2096000D02*
D03*
Y2106000D02*
D03*
Y2116000D02*
D03*
Y2126000D02*
D03*
Y2136000D02*
D03*
Y2146000D02*
D03*
Y2156000D02*
D03*
Y2166000D02*
D03*
Y2176000D02*
D03*
Y2186000D02*
D03*
Y2196000D02*
D03*
Y2206000D02*
D03*
Y2216000D02*
D03*
Y2226000D02*
D03*
Y2236000D02*
D03*
D19*
X2840000Y2246000D02*
D03*
Y2036000D02*
D03*
D20*
X1739750Y2244000D02*
D03*
Y2225000D02*
D03*
X1777500Y2631500D02*
D03*
Y2650500D02*
D03*
D21*
X1916000Y1801650D02*
D03*
Y1834350D02*
D03*
D22*
X1769000Y1720500D02*
D03*
Y1701500D02*
D03*
X1746500Y1740500D02*
D03*
Y1721500D02*
D03*
X1893500Y1827750D02*
D03*
Y1808750D02*
D03*
X2297000Y1919500D02*
D03*
Y1900500D02*
D03*
X2298024Y1863528D02*
D03*
Y1882528D02*
D03*
D23*
X1644000Y2446000D02*
D03*
Y2410500D02*
D03*
D24*
X2221250Y1860750D02*
D03*
Y1866750D02*
D03*
D25*
X2258912Y1910424D02*
D03*
X2280088Y1920076D02*
D03*
Y1900924D02*
D03*
X2259936Y1872952D02*
D03*
X2281112Y1882604D02*
D03*
Y1863452D02*
D03*
D26*
X2221828Y1511328D02*
Y1550672D01*
X2214500Y1504000D02*
X2221828Y1511328D01*
X2197698Y1504000D02*
X2214500D01*
X2238500D02*
X2248498D01*
X2231868Y1510632D02*
X2238500Y1504000D01*
X2231868Y1510632D02*
Y1550672D01*
X2233500Y1568500D02*
X2248000D01*
X2227770Y1571000D02*
Y1636736D01*
Y1571000D02*
X2230520Y1568250D01*
X2234500D01*
X2231868Y1550672D02*
X2234500Y1553304D01*
Y1568250D01*
X2215500Y1557000D02*
Y1568250D01*
Y1557000D02*
X2221828Y1550672D01*
X2176006Y1688500D02*
X2227770Y1636736D01*
X1639000Y1564300D02*
X1769800D01*
X1639000Y1513500D02*
X1736500D01*
X2214500Y1569802D02*
Y1635500D01*
X1899000Y1676000D02*
X2174000D01*
X2214500Y1635500D01*
X1736500Y1513500D02*
X1899000Y1676000D01*
X1894000Y1688500D02*
X2176006D01*
X1769800Y1564300D02*
X1894000Y1688500D01*
X1871000Y1828500D02*
X1877000D01*
X1869000Y1843500D02*
X1914000D01*
X1816500Y1791000D02*
X1869000Y1843500D01*
X1801500Y1791000D02*
X1816500D01*
X1746500Y1740500D02*
Y1753500D01*
X1794000Y1771000D02*
X1813500D01*
X1723316Y1825000D02*
X1821750Y1726566D01*
X1813500Y1771000D02*
X1871000Y1828500D01*
X1892750D02*
X1893500Y1827750D01*
X1877000Y1828500D02*
X1892750D01*
X2842900Y2507400D02*
X2879500D01*
X2804912Y2469412D02*
X2842900Y2507400D01*
X2788076Y2469412D02*
X2804912D01*
X2724500Y2474000D02*
X2759497Y2508997D01*
X2779493D01*
X2724500Y2182000D02*
Y2474000D01*
X2294300Y1700200D02*
X2295650D01*
X1639000Y1742100D02*
X1640100Y1741000D01*
X1656500D01*
X2248000Y1568500D02*
X2254000D01*
X2837500Y2046000D02*
X2838500Y2047000D01*
X2819000Y2046000D02*
X2837500D01*
X2840000Y2025500D02*
Y2036000D01*
X2724500Y2109000D02*
Y2182000D01*
Y2109000D02*
X2777500Y2056000D01*
X2731500Y2112000D02*
X2777500Y2066000D01*
Y2056000D02*
X2819000D01*
X2790500Y2137000D02*
Y2143000D01*
Y2137000D02*
X2801500Y2126000D01*
X2782500Y2127000D02*
Y2188000D01*
X2790500Y2196000D01*
X2801500Y2126000D02*
X2819000D01*
X2807500Y2136000D02*
X2819000D01*
X2789500Y2154000D02*
X2807500Y2136000D01*
X2777500Y2066000D02*
X2819000D01*
X2781500Y2076000D02*
X2819000D01*
X2775869Y2096000D02*
X2819000D01*
X2778684Y2086000D02*
X2819000D01*
X2770500Y2116000D02*
X2819000D01*
X2791500Y2170000D02*
Y2181000D01*
X2798500Y2176000D02*
Y2178000D01*
X2800500Y2165000D02*
X2801500Y2166000D01*
X2819000D01*
X2798500Y2176000D02*
X2819000D01*
X2798500Y2176000D02*
X2798500Y2176000D01*
X2791500Y2181000D02*
X2796500Y2186000D01*
X2819000D01*
X2790500Y2196000D02*
X2819000D01*
X2789500Y2206000D02*
X2819000D01*
X2774500Y2191000D02*
X2789500Y2206000D01*
X2774500Y2135000D02*
Y2191000D01*
X2747500Y2117184D02*
X2778684Y2086000D01*
X2740500Y2117000D02*
X2781500Y2076000D01*
X2755500Y2116368D02*
X2775869Y2096000D01*
X2747500Y2117184D02*
Y2147000D01*
X2755500Y2116368D02*
Y2139000D01*
X2760500Y2143631D02*
Y2161998D01*
Y2143631D02*
X2762310Y2141821D01*
Y2124190D02*
Y2141821D01*
Y2124190D02*
X2770500Y2116000D01*
X2210000Y1841000D02*
X2211270Y1839730D01*
X1639000Y1894500D02*
X1674500Y1859000D01*
Y1849000D02*
Y1859000D01*
X1639000Y1843700D02*
X1657800D01*
X1662500Y1839000D01*
X1683500Y1819000D02*
X1686500Y1816000D01*
X2282500Y2262750D02*
Y2385150D01*
X2221250Y1860750D02*
Y1866750D01*
X2233500Y1781500D02*
X2255800D01*
X2209000Y1946000D02*
X2257650D01*
X2193200Y1781500D02*
X2215000D01*
X2234000Y1841000D02*
X2239000D01*
X2226500Y1788500D02*
X2233500Y1781500D01*
X2215000D02*
X2221250Y1787750D01*
X2280088Y1920076D02*
X2296424D01*
X2281112Y1882604D02*
X2297948D01*
X2327593Y1709490D02*
Y1712170D01*
Y1709490D02*
X2347728D01*
X2348998Y1710760D01*
X2281112Y1863452D02*
X2336952D01*
X2231580Y1843420D02*
Y1856080D01*
Y1843420D02*
X2234000Y1841000D01*
X2210000D02*
X2220750D01*
X2221250Y1841500D01*
Y1787750D02*
Y1841500D01*
Y1860750D01*
X2231580Y1856080D02*
X2248452Y1872952D01*
X2259936D01*
X1639000Y1589700D02*
X1649160Y1599860D01*
X1778294D01*
X2403017Y1698902D02*
Y1716983D01*
X2280088Y1900924D02*
X2281012Y1900000D01*
X2328310Y1912000D02*
Y1913091D01*
X2281012Y1900000D02*
X2349000D01*
X2271896Y1882604D02*
X2281112D01*
X2267500Y1887000D02*
X2271896Y1882604D01*
X2267500Y1887000D02*
Y1916000D01*
X2271576Y1920076D01*
X2280088D01*
X2226500Y1788500D02*
Y1884290D01*
X2252634Y1910424D01*
X2258912D01*
X1698500Y1825000D02*
X1723316D01*
X1821750Y1706750D02*
Y1726566D01*
X1686500Y1816000D02*
X1715250D01*
X1814000Y1717250D01*
X2389000Y1731000D02*
X2403017Y1716983D01*
X1778294Y1599860D02*
X1884934Y1706500D01*
X2288000D01*
X1857250Y1717250D02*
X1868750D01*
X1864250Y1706750D02*
X1865434D01*
X2403017Y1683983D02*
Y1698902D01*
X2221250Y1866750D02*
Y1888250D01*
X2297000Y1919500D02*
X2321901D01*
X2328310Y1913091D01*
X2221250Y1888250D02*
X2261500Y1928500D01*
X2321500D01*
X2288000Y1706500D02*
X2294300Y1700200D01*
X1876494Y1717810D02*
X2321953D01*
X1865434Y1706750D02*
X1876494Y1717810D01*
X2321953D02*
X2327593Y1712170D01*
X1868750Y1717250D02*
X1882500Y1731000D01*
X2389000D01*
X2295920Y1711580D02*
X2296500Y1711000D01*
X1882080Y1711580D02*
X2295920D01*
X1639000Y1615100D02*
X1648100Y1606000D01*
X1776500D01*
X1882080Y1711580D01*
X1916000Y1834350D02*
X1952250D01*
X1952500Y1834100D01*
X1769000Y1701500D02*
X1788500D01*
X1789000Y1701000D01*
X1914000Y1843500D02*
X1916000Y1841500D01*
Y1834350D02*
Y1841500D01*
X1747500Y1720500D02*
X1769000D01*
Y1743500D01*
X1709000Y1803500D02*
X1769000Y1743500D01*
X1674000Y1803500D02*
X1709000D01*
X1746000Y1741000D02*
X1746500Y1740500D01*
X2254000Y1568500D02*
X2264000D01*
D27*
X1674500Y2260200D02*
Y2358000D01*
X1644000Y2388500D02*
X1674500Y2358000D01*
X1639300Y2225000D02*
X1674500Y2260200D01*
X1644000Y2388500D02*
Y2410500D01*
X2798500Y2226000D02*
X2817000D01*
X2771500Y2225000D02*
X2783500D01*
X2794500Y2236000D01*
X2819000D01*
X2762912Y2490588D02*
X2763500Y2490000D01*
X2762912Y2490588D02*
X2778424D01*
X2797576D02*
Y2508080D01*
X1639000Y1767500D02*
Y1792900D01*
X1743500Y2604000D02*
X1771000Y2631500D01*
X1709000Y2604000D02*
X1743500D01*
X1639000Y1792900D02*
X1908800Y2062700D01*
X1913500Y1771000D02*
Y1801650D01*
X1908800Y2062700D02*
X2098400D01*
X2051900Y1752400D02*
Y1768000D01*
X1739500Y2650500D02*
X1777500D01*
X1644000Y2446000D02*
Y2512700D01*
X1644000Y2512700D01*
X1639000Y2224700D02*
X1739450D01*
X1894850Y1801650D02*
X1913500D01*
X1893500Y1803000D02*
X1894850Y1801650D01*
X1893500Y1803000D02*
Y1808750D01*
X1913500Y1771000D02*
X1941140Y1743360D01*
X2042860D01*
X2051900Y1752400D01*
D28*
X2239000Y1841000D02*
X2394000D01*
X2412516Y1822483D01*
Y1720078D02*
Y1822483D01*
D29*
X1601500Y1421000D02*
X2974500Y1421000D01*
Y2701000D01*
X1601500D02*
X2974500D01*
X1601500Y1421000D02*
Y2701000D01*
D30*
X2197698Y1504000D02*
D03*
D31*
X2248498D02*
D03*
X1644000Y2512700D02*
D03*
D32*
X2856500Y1510000D02*
D03*
Y2607000D02*
D03*
D33*
X1988948Y1501000D02*
D03*
X2059052D02*
D03*
Y1551000D02*
D03*
X1988948D02*
D03*
X2059052Y1601000D02*
D03*
X1988948D02*
D03*
X2386448Y1501000D02*
D03*
X2456552D02*
D03*
Y1551000D02*
D03*
X2386448D02*
D03*
X2456552Y1601000D02*
D03*
X2386448D02*
D03*
D34*
X1644000Y2563500D02*
D03*
D35*
X1876500Y2626000D02*
D03*
X2709000D02*
D03*
X1876500Y1591000D02*
D03*
X2709000D02*
D03*
X2846500Y1943000D02*
D03*
D36*
X2879500Y2456600D02*
D03*
Y2482000D02*
D03*
Y2507400D02*
D03*
D37*
X1679000Y2651000D02*
D03*
D38*
X1739000D02*
D03*
D39*
X1709000Y2604000D02*
D03*
D40*
X2051900Y1768000D02*
D03*
D41*
X2026500D02*
D03*
X2001100D02*
D03*
D42*
X2098400Y2171500D02*
D03*
Y2117100D02*
D03*
D43*
Y2062700D02*
D03*
D44*
X2282600Y2385250D02*
D03*
X2308000D02*
D03*
D45*
X1641500Y2300900D02*
D03*
Y2275500D02*
D03*
Y2250100D02*
D03*
Y2224700D02*
D03*
Y2199300D02*
D03*
Y2173900D02*
D03*
Y2148500D02*
D03*
Y2123100D02*
D03*
Y2097700D02*
D03*
Y2072300D02*
D03*
Y2046900D02*
D03*
Y2021500D02*
D03*
Y1970700D02*
D03*
Y1996100D02*
D03*
Y1691300D02*
D03*
Y1716700D02*
D03*
Y1767500D02*
D03*
Y1742100D02*
D03*
Y1843700D02*
D03*
Y1869100D02*
D03*
Y1818300D02*
D03*
Y1792900D02*
D03*
Y1894500D02*
D03*
Y1945300D02*
D03*
Y1919900D02*
D03*
Y1615100D02*
D03*
Y1640500D02*
D03*
Y1665900D02*
D03*
Y1589700D02*
D03*
Y1564300D02*
D03*
Y1538900D02*
D03*
Y1513500D02*
D03*
D46*
X1746500Y1753500D02*
D03*
X1794000Y1771000D02*
D03*
X1801500Y1791000D02*
D03*
X2763500Y2490000D02*
D03*
X2295650Y1700200D02*
D03*
X2838500Y2047000D02*
D03*
X2840000Y2025500D02*
D03*
X2724500Y2182000D02*
D03*
X2731500Y2112000D02*
D03*
X2790500Y2143000D02*
D03*
X2791500Y2170000D02*
D03*
X2798500Y2178000D02*
D03*
X2789500Y2154000D02*
D03*
X2800500Y2165000D02*
D03*
X2782500Y2127000D02*
D03*
X2774500Y2135000D02*
D03*
X2740500Y2117000D02*
D03*
X2747500Y2147000D02*
D03*
X2755500Y2139000D02*
D03*
X2760500Y2161998D02*
D03*
X2771500Y2225000D02*
D03*
X2798500Y2226000D02*
D03*
X1674500Y1849000D02*
D03*
X1698500Y1825000D02*
D03*
X1662500Y1839000D02*
D03*
X1683500Y1819000D02*
D03*
X2282500Y2262750D02*
D03*
X1857250Y1717250D02*
D03*
X1864250Y1706750D02*
D03*
X2348998Y1710760D02*
D03*
X2349000Y1900000D02*
D03*
X2403017Y1683983D02*
D03*
X2336952Y1863452D02*
D03*
X1821750Y1706750D02*
D03*
X1814000Y1717250D02*
D03*
X2328310Y1912000D02*
D03*
X1952500Y1834100D02*
D03*
X2321500Y1928500D02*
D03*
X2296500Y1711000D02*
D03*
X1789000Y1701000D02*
D03*
X1674000Y1803500D02*
D03*
X2264000Y1568500D02*
D03*
M02*
