G04*
G04 #@! TF.GenerationSoftware,Altium Limited,CircuitStudio,1.5.2 (30)*
G04*
G04 Layer_Color=16764230*
%FSLAX44Y44*%
%MOMM*%
G71*
G01*
G75*
%ADD26C,0.2540*%
%ADD29C,0.2500*%
D26*
X2793993Y2508997D02*
G03*
X2793993Y2508997I-5000J0D01*
G01*
X1774000Y1711000D02*
G03*
X1774000Y1711000I-5000J0D01*
G01*
X2230000Y1568250D02*
G03*
X2230000Y1568250I-5000J0D01*
G01*
X1751500Y1731000D02*
G03*
X1751500Y1731000I-5000J0D01*
G01*
X1898500Y1818250D02*
G03*
X1898500Y1818250I-5000J0D01*
G01*
X2302000Y1910000D02*
G03*
X2302000Y1910000I-5000J0D01*
G01*
X2303024Y1873028D02*
G03*
X2303024Y1873028I-5000J0D01*
G01*
X2783993Y2508997D02*
X2793993D01*
X2788993Y2503997D02*
Y2513997D01*
X1764000Y1711000D02*
X1774000D01*
X1769000Y1706000D02*
Y1716000D01*
X2225000Y1563250D02*
Y1573250D01*
X2220000Y1568250D02*
X2230000D01*
X1741500Y1731000D02*
X1751500D01*
X1746500Y1726000D02*
Y1736000D01*
X1888500Y1818250D02*
X1898500D01*
X1893500Y1813250D02*
Y1823250D01*
X2292000Y1910000D02*
X2302000D01*
X2297000Y1905000D02*
Y1915000D01*
X2293024Y1873028D02*
X2303024D01*
X2298024Y1868028D02*
Y1878028D01*
D29*
X1601500Y1421000D02*
X2974500Y1421000D01*
Y2701000D01*
X1601500D02*
X2974500D01*
X1601500Y1421000D02*
Y2701000D01*
M02*
