G04*
G04 #@! TF.GenerationSoftware,Altium Limited,CircuitStudio,1.5.2 (30)*
G04*
G04 Layer_Physical_Order=2*
G04 Layer_Color=12500520*
%FSLAX44Y44*%
%MOMM*%
G71*
G01*
G75*
%ADD26C,0.2540*%
%ADD27C,0.5000*%
%ADD29C,0.2500*%
%ADD30R,2.5400X2.5400*%
%ADD31C,2.5400*%
%ADD32C,6.0000*%
%ADD33O,2.5400X3.1750*%
%ADD34R,2.5400X2.5400*%
%ADD35C,4.0000*%
%ADD36C,2.0000*%
G04:AMPARAMS|DCode=37|XSize=2mm|YSize=4mm|CornerRadius=0.5mm|HoleSize=0mm|Usage=FLASHONLY|Rotation=180.000|XOffset=0mm|YOffset=0mm|HoleType=Round|Shape=RoundedRectangle|*
%AMROUNDEDRECTD37*
21,1,2.0000,3.0000,0,0,180.0*
21,1,1.0000,4.0000,0,0,180.0*
1,1,1.0000,-0.5000,1.5000*
1,1,1.0000,0.5000,1.5000*
1,1,1.0000,0.5000,-1.5000*
1,1,1.0000,-0.5000,-1.5000*
%
%ADD37ROUNDEDRECTD37*%
G04:AMPARAMS|DCode=38|XSize=2mm|YSize=4.5mm|CornerRadius=0.5mm|HoleSize=0mm|Usage=FLASHONLY|Rotation=0.000|XOffset=0mm|YOffset=0mm|HoleType=Round|Shape=RoundedRectangle|*
%AMROUNDEDRECTD38*
21,1,2.0000,3.5000,0,0,0.0*
21,1,1.0000,4.5000,0,0,0.0*
1,1,1.0000,0.5000,-1.7500*
1,1,1.0000,-0.5000,-1.7500*
1,1,1.0000,-0.5000,1.7500*
1,1,1.0000,0.5000,1.7500*
%
%ADD38ROUNDEDRECTD38*%
G04:AMPARAMS|DCode=39|XSize=2mm|YSize=4mm|CornerRadius=0.5mm|HoleSize=0mm|Usage=FLASHONLY|Rotation=90.000|XOffset=0mm|YOffset=0mm|HoleType=Round|Shape=RoundedRectangle|*
%AMROUNDEDRECTD39*
21,1,2.0000,3.0000,0,0,90.0*
21,1,1.0000,4.0000,0,0,90.0*
1,1,1.0000,1.5000,0.5000*
1,1,1.0000,1.5000,-0.5000*
1,1,1.0000,-1.5000,-0.5000*
1,1,1.0000,-1.5000,0.5000*
%
%ADD39ROUNDEDRECTD39*%
G04:AMPARAMS|DCode=40|XSize=2mm|YSize=2.5mm|CornerRadius=0.5mm|HoleSize=0mm|Usage=FLASHONLY|Rotation=0.000|XOffset=0mm|YOffset=0mm|HoleType=Round|Shape=RoundedRectangle|*
%AMROUNDEDRECTD40*
21,1,2.0000,1.5000,0,0,0.0*
21,1,1.0000,2.5000,0,0,0.0*
1,1,1.0000,0.5000,-0.7500*
1,1,1.0000,-0.5000,-0.7500*
1,1,1.0000,-0.5000,0.7500*
1,1,1.0000,0.5000,0.7500*
%
%ADD40ROUNDEDRECTD40*%
%ADD41O,2.0000X2.5000*%
%ADD42C,2.1000*%
%ADD43R,2.1000X2.1000*%
%ADD44C,1.5240*%
%ADD45C,1.7500*%
%ADD46C,0.6000*%
G36*
X2104600Y1808406D02*
X2104600Y1468800D01*
X1937798Y1468800D01*
X1936900Y1469698D01*
X1936900Y1738302D01*
X1937798Y1739200D01*
X2014900Y1739200D01*
X2014900Y1820806D01*
X2022994Y1828900D01*
X2084106Y1828900D01*
X2104600Y1808406D01*
D02*
G37*
G36*
X2961500Y2680102D02*
X2961500Y1466000D01*
X2112776D01*
X2111963Y1467270D01*
X2112165Y1468800D01*
X2112165Y1805090D01*
X2112569Y1805378D01*
X2112657Y1805485D01*
X2112768Y1805570D01*
X2251998Y1944800D01*
X2252300Y1945193D01*
X2252651Y1945544D01*
X2252939Y1945920D01*
X2253187Y1946350D01*
X2253201Y1946367D01*
X2253209Y1946387D01*
X2253927Y1947630D01*
X2254299Y1949018D01*
X2254307Y1949038D01*
X2254310Y1949059D01*
X2254438Y1949538D01*
X2254500Y1950008D01*
Y1950504D01*
X2254565Y1950996D01*
X2254565Y2199106D01*
X2254500Y2199598D01*
Y2200094D01*
X2254438Y2200564D01*
X2254310Y2201043D01*
X2254307Y2201064D01*
X2254299Y2201084D01*
X2253927Y2202471D01*
X2253927Y2202471D01*
Y2202471D01*
X2253209Y2203715D01*
X2253201Y2203735D01*
X2253188Y2203752D01*
X2252939Y2204182D01*
X2252651Y2204558D01*
X2252300Y2204908D01*
X2251998Y2205302D01*
X2251802Y2205499D01*
X2251408Y2205800D01*
X2251058Y2206151D01*
X2250681Y2206440D01*
X2250252Y2206687D01*
X2250235Y2206701D01*
X2250215Y2206709D01*
X2248971Y2207427D01*
X2247584Y2207799D01*
X2247564Y2207807D01*
X2247543Y2207810D01*
X2247064Y2207938D01*
X2246594Y2208000D01*
X2246098D01*
X2245606Y2208065D01*
X2081496D01*
X2081004Y2208000D01*
X2080508D01*
X2080038Y2207938D01*
X2079559Y2207810D01*
X2079538Y2207807D01*
X2079518Y2207799D01*
X2078131Y2207427D01*
X2077505Y2207066D01*
X2076887Y2206709D01*
X2076867Y2206701D01*
X2076850Y2206687D01*
X2076420Y2206440D01*
X2076044Y2206151D01*
X2075694Y2205800D01*
X2075300Y2205499D01*
X2003401Y2133599D01*
X1931501Y2061700D01*
X1931200Y2061306D01*
X1930849Y2060956D01*
X1930560Y2060580D01*
X1930560Y2060580D01*
X1930560Y2060580D01*
X1930312Y2060150D01*
X1930299Y2060133D01*
X1930291Y2060113D01*
X1929935Y2059496D01*
X1929573Y2058869D01*
Y2058869D01*
X1929573Y2058869D01*
X1929201Y2057482D01*
X1929193Y2057462D01*
X1929190Y2057441D01*
X1929062Y2056962D01*
X1929000Y2056492D01*
Y2055996D01*
X1928935Y2055504D01*
X1928935Y1746898D01*
X1929193Y1744940D01*
X1929414Y1744406D01*
X1929948Y1743116D01*
X1930544Y1742339D01*
X1930349Y1742084D01*
X1929814Y1740794D01*
X1929593Y1740260D01*
X1929335Y1738302D01*
X1929335Y1469698D01*
X1929593Y1467740D01*
X1929814Y1467206D01*
X1929876Y1467056D01*
X1929171Y1466000D01*
X1612398D01*
X1611500Y1466898D01*
X1611500Y2233873D01*
X1612770Y2234259D01*
X1613366Y2233366D01*
X1625666Y2221066D01*
X1627333Y2219952D01*
X1629300Y2219561D01*
X1631408D01*
X1631638Y2219006D01*
X1633448Y2216648D01*
X1635806Y2214838D01*
X1638553Y2213700D01*
X1641500Y2213312D01*
X1644447Y2213700D01*
X1647194Y2214838D01*
X1647429Y2215018D01*
X1648268Y2214062D01*
X1644488Y2210282D01*
X1644447Y2210299D01*
X1641500Y2210687D01*
X1638553Y2210299D01*
X1635806Y2209162D01*
X1633448Y2207352D01*
X1631638Y2204993D01*
X1630500Y2202247D01*
X1630112Y2199300D01*
X1630500Y2196353D01*
X1631638Y2193606D01*
X1633448Y2191248D01*
X1635806Y2189438D01*
X1638553Y2188300D01*
X1641500Y2187912D01*
X1644447Y2188300D01*
X1647194Y2189438D01*
X1647429Y2189619D01*
X1648268Y2188662D01*
X1644488Y2184882D01*
X1644447Y2184899D01*
X1641500Y2185287D01*
X1638553Y2184899D01*
X1635806Y2183762D01*
X1633448Y2181952D01*
X1631638Y2179594D01*
X1630500Y2176847D01*
X1630112Y2173900D01*
X1630500Y2170953D01*
X1631638Y2168206D01*
X1633448Y2165848D01*
X1635806Y2164038D01*
X1638553Y2162900D01*
X1641500Y2162512D01*
X1644447Y2162900D01*
X1647194Y2164038D01*
X1647429Y2164218D01*
X1648268Y2163262D01*
X1644488Y2159482D01*
X1644447Y2159499D01*
X1641500Y2159887D01*
X1638553Y2159499D01*
X1635806Y2158362D01*
X1633448Y2156552D01*
X1631638Y2154194D01*
X1630500Y2151447D01*
X1630112Y2148500D01*
X1630500Y2145553D01*
X1631638Y2142806D01*
X1633448Y2140448D01*
X1635806Y2138638D01*
X1638553Y2137500D01*
X1641500Y2137112D01*
X1644447Y2137500D01*
X1647194Y2138638D01*
X1647429Y2138819D01*
X1648268Y2137862D01*
X1644488Y2134082D01*
X1644447Y2134099D01*
X1641500Y2134487D01*
X1638553Y2134099D01*
X1635806Y2132962D01*
X1633448Y2131152D01*
X1631638Y2128793D01*
X1630500Y2126047D01*
X1630112Y2123100D01*
X1630500Y2120153D01*
X1631638Y2117406D01*
X1633448Y2115048D01*
X1635806Y2113238D01*
X1638553Y2112100D01*
X1641500Y2111712D01*
X1644447Y2112100D01*
X1647194Y2113238D01*
X1647429Y2113418D01*
X1648268Y2112462D01*
X1644488Y2108682D01*
X1644447Y2108699D01*
X1641500Y2109087D01*
X1638553Y2108699D01*
X1635806Y2107562D01*
X1633448Y2105752D01*
X1631638Y2103394D01*
X1630500Y2100647D01*
X1630112Y2097700D01*
X1630500Y2094753D01*
X1631638Y2092006D01*
X1633448Y2089648D01*
X1635806Y2087838D01*
X1638553Y2086700D01*
X1641500Y2086312D01*
X1644447Y2086700D01*
X1647194Y2087838D01*
X1647429Y2088018D01*
X1648268Y2087062D01*
X1644488Y2083282D01*
X1644447Y2083299D01*
X1641500Y2083687D01*
X1638553Y2083299D01*
X1635806Y2082162D01*
X1633448Y2080352D01*
X1631638Y2077993D01*
X1630500Y2075247D01*
X1630112Y2072300D01*
X1630500Y2069353D01*
X1631638Y2066606D01*
X1633448Y2064248D01*
X1635806Y2062438D01*
X1638553Y2061300D01*
X1641500Y2060912D01*
X1644447Y2061300D01*
X1647194Y2062438D01*
X1647429Y2062619D01*
X1648268Y2061662D01*
X1644488Y2057882D01*
X1644447Y2057899D01*
X1641500Y2058287D01*
X1638553Y2057899D01*
X1635806Y2056762D01*
X1633448Y2054952D01*
X1631638Y2052594D01*
X1630500Y2049847D01*
X1630112Y2046900D01*
X1630500Y2043953D01*
X1631638Y2041206D01*
X1633448Y2038848D01*
X1635806Y2037038D01*
X1638553Y2035900D01*
X1641500Y2035512D01*
X1644447Y2035900D01*
X1647194Y2037038D01*
X1647429Y2037218D01*
X1648268Y2036262D01*
X1644488Y2032482D01*
X1644447Y2032499D01*
X1641500Y2032887D01*
X1638553Y2032499D01*
X1635806Y2031362D01*
X1633448Y2029552D01*
X1631638Y2027193D01*
X1630500Y2024447D01*
X1630112Y2021500D01*
X1630500Y2018553D01*
X1631638Y2015806D01*
X1633448Y2013448D01*
X1635806Y2011638D01*
X1638553Y2010500D01*
X1641500Y2010112D01*
X1644020Y2010444D01*
X1644614Y2009242D01*
X1642701Y2007329D01*
X1641500Y2007487D01*
X1638553Y2007099D01*
X1635806Y2005962D01*
X1633448Y2004152D01*
X1631638Y2001794D01*
X1630500Y1999047D01*
X1630112Y1996100D01*
X1630500Y1993153D01*
X1631638Y1990406D01*
X1633448Y1988048D01*
X1635806Y1986238D01*
X1638553Y1985100D01*
X1641500Y1984712D01*
X1644447Y1985100D01*
X1647194Y1986238D01*
X1649552Y1988048D01*
X1651362Y1990406D01*
X1652499Y1993153D01*
X1652887Y1996100D01*
X1652499Y1999047D01*
X1651362Y2001794D01*
X1649969Y2003609D01*
X1673362Y2027003D01*
X1674535Y2026517D01*
Y1986329D01*
X1644488Y1956282D01*
X1644447Y1956299D01*
X1641500Y1956687D01*
X1638553Y1956299D01*
X1635806Y1955162D01*
X1633448Y1953352D01*
X1631638Y1950993D01*
X1630500Y1948247D01*
X1630112Y1945300D01*
X1630500Y1942353D01*
X1631638Y1939606D01*
X1633448Y1937248D01*
X1635806Y1935438D01*
X1638553Y1934300D01*
X1641500Y1933912D01*
X1644447Y1934300D01*
X1647194Y1935438D01*
X1647429Y1935618D01*
X1648268Y1934662D01*
X1644488Y1930882D01*
X1644447Y1930899D01*
X1641500Y1931287D01*
X1638553Y1930899D01*
X1635806Y1929762D01*
X1633448Y1927952D01*
X1631638Y1925594D01*
X1630500Y1922847D01*
X1630112Y1919900D01*
X1630500Y1916953D01*
X1631638Y1914206D01*
X1633448Y1911848D01*
X1635806Y1910038D01*
X1638553Y1908900D01*
X1641500Y1908512D01*
X1644447Y1908900D01*
X1647194Y1910038D01*
X1649552Y1911848D01*
X1651362Y1914206D01*
X1652499Y1916953D01*
X1652887Y1919900D01*
X1652499Y1922847D01*
X1651362Y1925594D01*
X1650852Y1926258D01*
X1686247Y1961653D01*
X1687089Y1962913D01*
X1687385Y1964400D01*
Y2110391D01*
X1716247Y2139253D01*
X1717089Y2140513D01*
X1717385Y2142000D01*
Y2182549D01*
X1821191Y2286355D01*
X1855334D01*
X1855820Y2285182D01*
X1797283Y2226645D01*
X1796441Y2225385D01*
X1796145Y2223898D01*
Y1861123D01*
X1655607Y1720585D01*
X1652111D01*
X1651362Y1722393D01*
X1649552Y1724752D01*
X1647194Y1726562D01*
X1644447Y1727699D01*
X1641500Y1728087D01*
X1638553Y1727699D01*
X1635806Y1726562D01*
X1633448Y1724752D01*
X1631638Y1722393D01*
X1630500Y1719647D01*
X1630112Y1716700D01*
X1630500Y1713753D01*
X1631638Y1711006D01*
X1633448Y1708648D01*
X1635806Y1706838D01*
X1638553Y1705700D01*
X1641500Y1705312D01*
X1644447Y1705700D01*
X1647194Y1706838D01*
X1647429Y1707018D01*
X1648268Y1706062D01*
X1644488Y1702282D01*
X1644447Y1702299D01*
X1641500Y1702687D01*
X1638553Y1702299D01*
X1635806Y1701162D01*
X1633448Y1699352D01*
X1631638Y1696994D01*
X1630500Y1694247D01*
X1630112Y1691300D01*
X1630500Y1688353D01*
X1631638Y1685606D01*
X1633448Y1683248D01*
X1635806Y1681438D01*
X1638553Y1680300D01*
X1641500Y1679912D01*
X1644447Y1680300D01*
X1647194Y1681438D01*
X1647429Y1681618D01*
X1648268Y1680662D01*
X1644488Y1676882D01*
X1644447Y1676899D01*
X1641500Y1677287D01*
X1638553Y1676899D01*
X1635806Y1675762D01*
X1633448Y1673952D01*
X1631638Y1671593D01*
X1630500Y1668847D01*
X1630112Y1665900D01*
X1630500Y1662953D01*
X1631638Y1660206D01*
X1633448Y1657848D01*
X1635806Y1656038D01*
X1638553Y1654900D01*
X1641500Y1654512D01*
X1644447Y1654900D01*
X1647194Y1656038D01*
X1649552Y1657848D01*
X1651362Y1660206D01*
X1652499Y1662953D01*
X1652887Y1665900D01*
X1652499Y1668847D01*
X1651362Y1671593D01*
X1650852Y1672258D01*
X1661653Y1683059D01*
X1662495Y1684320D01*
X1662791Y1685806D01*
Y1697047D01*
X1814247Y1848503D01*
X1815089Y1849763D01*
X1815385Y1851250D01*
Y2217891D01*
X1868609Y2271115D01*
X2268641D01*
X2276877Y2262879D01*
X2276851Y2262750D01*
X2277281Y2260588D01*
X2278506Y2258756D01*
X2280338Y2257531D01*
X2282500Y2257101D01*
X2284662Y2257531D01*
X2286494Y2258756D01*
X2287718Y2260588D01*
X2288148Y2262750D01*
X2287718Y2264911D01*
X2286494Y2266744D01*
X2284662Y2267968D01*
X2282500Y2268398D01*
X2282371Y2268373D01*
X2275722Y2275022D01*
X2276208Y2276195D01*
X2436811D01*
X2596953Y2116053D01*
X2598214Y2115211D01*
X2598710Y2115112D01*
X2599809Y2114013D01*
X2601069Y2113171D01*
X2602556Y2112875D01*
X2724965D01*
X2725851Y2112000D01*
X2726281Y2109838D01*
X2727506Y2108006D01*
X2729338Y2106781D01*
X2731500Y2106351D01*
X2733661Y2106781D01*
X2735494Y2108006D01*
X2736719Y2109838D01*
X2736982Y2111161D01*
X2738338Y2111781D01*
X2740500Y2111351D01*
X2742662Y2111781D01*
X2744494Y2113006D01*
X2745719Y2114838D01*
X2746148Y2117000D01*
X2745719Y2119162D01*
X2744494Y2120994D01*
X2743340Y2121765D01*
X2743725Y2123035D01*
X2778486D01*
X2778506Y2123006D01*
X2780338Y2121781D01*
X2782500Y2121351D01*
X2784662Y2121781D01*
X2786494Y2123006D01*
X2787719Y2124838D01*
X2788148Y2127000D01*
X2787719Y2129162D01*
X2786494Y2130994D01*
X2784662Y2132218D01*
X2782500Y2132648D01*
X2780810Y2132312D01*
X2780725Y2132354D01*
X2779854Y2133225D01*
X2779812Y2133310D01*
X2780149Y2135000D01*
X2779719Y2137162D01*
X2778494Y2138994D01*
X2776662Y2140219D01*
X2774500Y2140648D01*
X2772338Y2140219D01*
X2770506Y2138994D01*
X2769281Y2137162D01*
X2769027Y2135885D01*
X2761492D01*
X2760782Y2137155D01*
X2761148Y2139000D01*
X2760719Y2141162D01*
X2759494Y2142994D01*
X2757662Y2144218D01*
X2755500Y2144648D01*
X2754909Y2144531D01*
X2753882Y2145463D01*
X2754131Y2146115D01*
X2781891D01*
X2784877Y2143129D01*
X2784851Y2143000D01*
X2785281Y2140838D01*
X2786506Y2139006D01*
X2788338Y2137781D01*
X2790500Y2137352D01*
X2792662Y2137781D01*
X2794494Y2139006D01*
X2795719Y2140838D01*
X2796148Y2143000D01*
X2795719Y2145162D01*
X2794494Y2146994D01*
X2792883Y2148070D01*
X2792706Y2148987D01*
X2792735Y2149499D01*
X2793494Y2150006D01*
X2794719Y2151838D01*
X2795149Y2154000D01*
X2794719Y2156162D01*
X2793494Y2157994D01*
X2793432Y2158035D01*
X2793818Y2159305D01*
X2798690D01*
X2799711Y2159508D01*
X2800500Y2159352D01*
X2802662Y2159781D01*
X2804494Y2161006D01*
X2805718Y2162838D01*
X2806148Y2165000D01*
X2805718Y2167162D01*
X2804494Y2168994D01*
X2802662Y2170219D01*
X2800500Y2170648D01*
X2798926Y2170335D01*
X2797630Y2171157D01*
X2797610Y2171266D01*
X2798500Y2172352D01*
X2800662Y2172781D01*
X2802494Y2174006D01*
X2803719Y2175838D01*
X2804149Y2178000D01*
X2803719Y2180162D01*
X2802494Y2181994D01*
X2800662Y2183219D01*
X2798500Y2183649D01*
X2796339Y2183219D01*
X2796153Y2183095D01*
X2734158D01*
X2732672Y2182799D01*
X2731411Y2181957D01*
X2731318Y2181863D01*
X2730067Y2182409D01*
X2729719Y2184162D01*
X2728494Y2185994D01*
X2726662Y2187218D01*
X2724500Y2187648D01*
X2722338Y2187218D01*
X2720506Y2185994D01*
X2719281Y2184162D01*
X2719178Y2183645D01*
X2627375D01*
X2467233Y2343787D01*
X2465973Y2344629D01*
X2464486Y2344924D01*
X1798540D01*
X1797053Y2344629D01*
X1795793Y2343787D01*
X1674281Y2222275D01*
X1658090D01*
X1656603Y2221979D01*
X1655343Y2221137D01*
X1652138Y2217932D01*
X1651181Y2218771D01*
X1651362Y2219006D01*
X1652499Y2221753D01*
X1652887Y2224700D01*
X1652499Y2227647D01*
X1651362Y2230394D01*
X1649552Y2232752D01*
X1647194Y2234562D01*
X1644447Y2235699D01*
X1641500Y2236087D01*
X1638553Y2235699D01*
X1635806Y2234562D01*
X1633448Y2232752D01*
X1632086Y2230977D01*
X1630518Y2230748D01*
X1622139Y2239128D01*
Y2312871D01*
X1676628Y2367361D01*
X1784935D01*
X1785421Y2366188D01*
X1699872Y2280639D01*
X1651591D01*
X1651362Y2281194D01*
X1649552Y2283552D01*
X1647194Y2285362D01*
X1644447Y2286499D01*
X1641500Y2286887D01*
X1638553Y2286499D01*
X1635806Y2285362D01*
X1633448Y2283552D01*
X1631638Y2281194D01*
X1630500Y2278447D01*
X1630112Y2275500D01*
X1630500Y2272553D01*
X1631638Y2269806D01*
X1633448Y2267448D01*
X1635806Y2265638D01*
X1638553Y2264500D01*
X1641500Y2264112D01*
X1644447Y2264500D01*
X1647194Y2265638D01*
X1649552Y2267448D01*
X1651362Y2269806D01*
X1651592Y2270361D01*
X1698935D01*
X1699421Y2269188D01*
X1685471Y2255239D01*
X1651591D01*
X1651362Y2255793D01*
X1649552Y2258152D01*
X1647194Y2259962D01*
X1644447Y2261099D01*
X1641500Y2261487D01*
X1638553Y2261099D01*
X1635806Y2259962D01*
X1633448Y2258152D01*
X1631638Y2255793D01*
X1630500Y2253047D01*
X1630112Y2250100D01*
X1630500Y2247153D01*
X1631638Y2244406D01*
X1633448Y2242048D01*
X1635806Y2240238D01*
X1638553Y2239100D01*
X1641500Y2238712D01*
X1644447Y2239100D01*
X1647194Y2240238D01*
X1649552Y2242048D01*
X1651362Y2244406D01*
X1651592Y2244961D01*
X1687600D01*
X1689566Y2245352D01*
X1691234Y2246466D01*
X1797048Y2352281D01*
X2635615D01*
X2766530Y2221366D01*
X2768197Y2220252D01*
X2768819Y2220129D01*
X2769338Y2219781D01*
X2771500Y2219352D01*
X2773661Y2219781D01*
X2775494Y2221006D01*
X2776719Y2222838D01*
X2777148Y2225000D01*
X2776719Y2227162D01*
X2776331Y2227741D01*
X2776930Y2228861D01*
X2787372D01*
X2794866Y2221366D01*
X2796534Y2220252D01*
X2798500Y2219861D01*
X2800467Y2220252D01*
X2802133Y2221366D01*
X2803248Y2223033D01*
X2803276Y2223176D01*
X2803719Y2223838D01*
X2804149Y2226000D01*
X2803719Y2228162D01*
X2802494Y2229994D01*
X2800662Y2231219D01*
X2799272Y2231495D01*
X2793134Y2237634D01*
X2791466Y2238748D01*
X2789500Y2239139D01*
X2773955D01*
X2646906Y2366188D01*
X2647392Y2367361D01*
X2753500D01*
X2755466Y2367752D01*
X2757133Y2368866D01*
X2865128Y2476861D01*
X2868055D01*
X2868546Y2475676D01*
X2870556Y2473056D01*
X2873176Y2471046D01*
X2875733Y2469987D01*
Y2468613D01*
X2873176Y2467554D01*
X2870556Y2465544D01*
X2868546Y2462924D01*
X2867283Y2459874D01*
X2866852Y2456600D01*
X2867283Y2453326D01*
X2868546Y2450276D01*
X2870556Y2447656D01*
X2873176Y2445646D01*
X2876227Y2444383D01*
X2879500Y2443952D01*
X2882774Y2444383D01*
X2885824Y2445646D01*
X2888444Y2447656D01*
X2890454Y2450276D01*
X2891717Y2453326D01*
X2892148Y2456600D01*
X2891717Y2459874D01*
X2890454Y2462924D01*
X2888444Y2465544D01*
X2885824Y2467554D01*
X2883268Y2468613D01*
Y2469987D01*
X2885824Y2471046D01*
X2888444Y2473056D01*
X2890454Y2475676D01*
X2891717Y2478726D01*
X2892148Y2482000D01*
X2891717Y2485274D01*
X2890454Y2488324D01*
X2888444Y2490944D01*
X2885824Y2492954D01*
X2883268Y2494013D01*
Y2495387D01*
X2885824Y2496446D01*
X2888444Y2498456D01*
X2890454Y2501076D01*
X2891717Y2504126D01*
X2892148Y2507400D01*
X2891717Y2510674D01*
X2890454Y2513724D01*
X2888444Y2516344D01*
X2885824Y2518354D01*
X2882774Y2519617D01*
X2879500Y2520048D01*
X2876227Y2519617D01*
X2873176Y2518354D01*
X2870556Y2516344D01*
X2868546Y2513724D01*
X2867283Y2510674D01*
X2866852Y2507400D01*
X2867283Y2504126D01*
X2868546Y2501076D01*
X2870556Y2498456D01*
X2873176Y2496446D01*
X2875733Y2495387D01*
Y2494013D01*
X2873176Y2492954D01*
X2870556Y2490944D01*
X2868546Y2488324D01*
X2868055Y2487139D01*
X2863000D01*
X2861034Y2486748D01*
X2859366Y2485634D01*
X2751371Y2377639D01*
X2317612D01*
X2317050Y2378778D01*
X2317713Y2379642D01*
X2318834Y2382347D01*
X2318985Y2383500D01*
X2308000D01*
X2297014D01*
X2297166Y2382347D01*
X2298287Y2379642D01*
X2298950Y2378778D01*
X2298388Y2377639D01*
X2291167D01*
X2290540Y2378909D01*
X2291475Y2380126D01*
X2292498Y2382598D01*
X2292848Y2385250D01*
X2292498Y2387902D01*
X2291475Y2390374D01*
X2289846Y2392496D01*
X2287724Y2394125D01*
X2285252Y2395148D01*
X2282600Y2395497D01*
X2279948Y2395148D01*
X2277476Y2394125D01*
X2275354Y2392496D01*
X2273725Y2390374D01*
X2272701Y2387902D01*
X2272352Y2385250D01*
X2272701Y2382598D01*
X2273725Y2380126D01*
X2274659Y2378909D01*
X2274033Y2377639D01*
X1674500D01*
X1672533Y2377247D01*
X1670866Y2376134D01*
X1613366Y2318634D01*
X1612770Y2317741D01*
X1611500Y2318126D01*
X1611500Y2681000D01*
X2960602D01*
X2961500Y2680102D01*
D02*
G37*
G36*
X2246076Y2200438D02*
X2246453Y2200149D01*
X2246649Y2199953D01*
X2246938Y2199576D01*
X2247000Y2199106D01*
X2247000Y1950996D01*
X2246938Y1950526D01*
X2246649Y1950149D01*
X2107419Y1810919D01*
X2105686Y1810982D01*
X2085937Y1830731D01*
X2085097Y1831293D01*
X2084106Y1831490D01*
X2022994Y1831490D01*
X2022003Y1831293D01*
X2021162Y1830731D01*
X2013069Y1822637D01*
X2012507Y1821797D01*
X2012310Y1820806D01*
X2012310Y1746000D01*
X1937398Y1746000D01*
X1936500Y1746898D01*
X1936500Y2055504D01*
X1936562Y2055974D01*
X1936850Y2056351D01*
X2008750Y2128250D01*
X2080649Y2200149D01*
X2081026Y2200438D01*
X2081496Y2200500D01*
X2245606D01*
X2246076Y2200438D01*
D02*
G37*
%LPC*%
G36*
X1865400Y1771544D02*
X1861177Y1771128D01*
X1857117Y1769897D01*
X1853375Y1767897D01*
X1850095Y1765205D01*
X1847404Y1761925D01*
X1845403Y1758183D01*
X1844172Y1754123D01*
X1843756Y1749900D01*
X1844172Y1745677D01*
X1845403Y1741617D01*
X1847404Y1737875D01*
X1850095Y1734595D01*
X1853375Y1731904D01*
X1857117Y1729903D01*
X1861177Y1728672D01*
X1865400Y1728256D01*
X1869623Y1728672D01*
X1873683Y1729903D01*
X1877425Y1731904D01*
X1880705Y1734595D01*
X1883396Y1737875D01*
X1885397Y1741617D01*
X1886628Y1745677D01*
X1887044Y1749900D01*
X1886628Y1754123D01*
X1885397Y1758183D01*
X1883396Y1761925D01*
X1880705Y1765205D01*
X1877425Y1767897D01*
X1873683Y1769897D01*
X1869623Y1771128D01*
X1865400Y1771544D01*
D02*
G37*
G36*
X1857250Y1722898D02*
X1855088Y1722468D01*
X1853256Y1721244D01*
X1853183Y1721134D01*
X1818067D01*
X1817994Y1721244D01*
X1816161Y1722468D01*
X1814000Y1722898D01*
X1811838Y1722468D01*
X1810006Y1721244D01*
X1808781Y1719411D01*
X1808351Y1717250D01*
X1808781Y1715088D01*
X1810006Y1713256D01*
X1811838Y1712031D01*
X1814000Y1711601D01*
X1816161Y1712031D01*
X1817994Y1713256D01*
X1818067Y1713365D01*
X1820101D01*
X1820226Y1712095D01*
X1819588Y1711968D01*
X1817756Y1710744D01*
X1816531Y1708911D01*
X1816101Y1706750D01*
X1816531Y1704588D01*
X1817756Y1702756D01*
X1819588Y1701531D01*
X1821750Y1701101D01*
X1823911Y1701531D01*
X1825744Y1702756D01*
X1825817Y1702865D01*
X1860183D01*
X1860256Y1702756D01*
X1862088Y1701531D01*
X1864250Y1701101D01*
X1866411Y1701531D01*
X1868244Y1702756D01*
X1869468Y1704588D01*
X1869898Y1706750D01*
X1869468Y1708911D01*
X1868244Y1710744D01*
X1866411Y1711968D01*
X1864250Y1712398D01*
X1862088Y1711968D01*
X1860256Y1710744D01*
X1860183Y1710634D01*
X1858899D01*
X1858774Y1711904D01*
X1859411Y1712031D01*
X1861244Y1713256D01*
X1862468Y1715088D01*
X1862898Y1717250D01*
X1862468Y1719411D01*
X1861244Y1721244D01*
X1859411Y1722468D01*
X1857250Y1722898D01*
D02*
G37*
G36*
X2349000Y1905648D02*
X2346838Y1905218D01*
X2345006Y1903994D01*
X2343781Y1902161D01*
X2343351Y1900000D01*
X2343781Y1897838D01*
X2345006Y1896006D01*
X2345113Y1895934D01*
Y1714828D01*
X2345004Y1714754D01*
X2343779Y1712922D01*
X2343350Y1710760D01*
X2343779Y1708599D01*
X2345004Y1706766D01*
X2346837Y1705542D01*
X2348998Y1705112D01*
X2351160Y1705542D01*
X2352992Y1706766D01*
X2354217Y1708599D01*
X2354647Y1710760D01*
X2354217Y1712922D01*
X2352992Y1714754D01*
X2352883Y1714828D01*
Y1895931D01*
X2352994Y1896006D01*
X2354218Y1897838D01*
X2354648Y1900000D01*
X2354218Y1902161D01*
X2352994Y1903994D01*
X2351161Y1905218D01*
X2349000Y1905648D01*
D02*
G37*
G36*
X2056900Y1783105D02*
X2046900D01*
X2044932Y1782846D01*
X2043098Y1782086D01*
X2041522Y1780878D01*
X2040314Y1779303D01*
X2039554Y1777468D01*
X2039295Y1775500D01*
Y1760500D01*
X2039554Y1758532D01*
X2040314Y1756698D01*
X2041522Y1755122D01*
X2043098Y1753914D01*
X2044932Y1753154D01*
X2046900Y1752895D01*
X2056900D01*
X2058868Y1753154D01*
X2060703Y1753914D01*
X2062278Y1755122D01*
X2063486Y1756698D01*
X2064246Y1758532D01*
X2064505Y1760500D01*
Y1775500D01*
X2064246Y1777468D01*
X2063486Y1779303D01*
X2062278Y1780878D01*
X2060703Y1782086D01*
X2058868Y1782846D01*
X2056900Y1783105D01*
D02*
G37*
G36*
X1641500Y1778887D02*
X1638553Y1778499D01*
X1635806Y1777362D01*
X1633448Y1775552D01*
X1631638Y1773194D01*
X1630500Y1770447D01*
X1630112Y1767500D01*
X1630500Y1764553D01*
X1631638Y1761806D01*
X1633448Y1759448D01*
X1635806Y1757638D01*
X1638553Y1756500D01*
X1641500Y1756112D01*
X1644447Y1756500D01*
X1647194Y1757638D01*
X1649552Y1759448D01*
X1651362Y1761806D01*
X1652499Y1764553D01*
X1652887Y1767500D01*
X1652499Y1770447D01*
X1651362Y1773194D01*
X1649552Y1775552D01*
X1647194Y1777362D01*
X1644447Y1778499D01*
X1641500Y1778887D01*
D02*
G37*
G36*
X2599600Y1770037D02*
X2595671Y1769650D01*
X2591894Y1768504D01*
X2588412Y1766643D01*
X2585361Y1764139D01*
X2582857Y1761087D01*
X2580996Y1757606D01*
X2579850Y1753828D01*
X2579463Y1749900D01*
X2579850Y1745972D01*
X2580996Y1742194D01*
X2582857Y1738712D01*
X2585361Y1735661D01*
X2588412Y1733157D01*
X2591894Y1731296D01*
X2595671Y1730150D01*
X2599600Y1729763D01*
X2603528Y1730150D01*
X2607306Y1731296D01*
X2610787Y1733157D01*
X2613839Y1735661D01*
X2616343Y1738712D01*
X2618204Y1742194D01*
X2619350Y1745972D01*
X2619737Y1749900D01*
X2619350Y1753828D01*
X2618204Y1757606D01*
X2616343Y1761087D01*
X2613839Y1764139D01*
X2610787Y1766643D01*
X2607306Y1768504D01*
X2603528Y1769650D01*
X2599600Y1770037D01*
D02*
G37*
G36*
X2248498Y1519314D02*
X2245510Y1519019D01*
X2242638Y1518148D01*
X2239990Y1516733D01*
X2237670Y1514828D01*
X2235765Y1512508D01*
X2234350Y1509860D01*
X2233479Y1506988D01*
X2233184Y1504000D01*
X2233479Y1501012D01*
X2234350Y1498140D01*
X2235765Y1495492D01*
X2237670Y1493172D01*
X2239990Y1491267D01*
X2242638Y1489852D01*
X2245510Y1488981D01*
X2248498Y1488686D01*
X2251485Y1488981D01*
X2254358Y1489852D01*
X2257006Y1491267D01*
X2259326Y1493172D01*
X2261231Y1495492D01*
X2262646Y1498140D01*
X2263517Y1501012D01*
X2263812Y1504000D01*
X2263517Y1506988D01*
X2262646Y1509860D01*
X2261231Y1512508D01*
X2259326Y1514828D01*
X2257006Y1516733D01*
X2254358Y1518148D01*
X2251485Y1519019D01*
X2248498Y1519314D01*
D02*
G37*
G36*
X1641500Y1529828D02*
X1638314Y1529515D01*
X1635251Y1528586D01*
X1632428Y1527077D01*
X1629954Y1525046D01*
X1627923Y1522572D01*
X1626414Y1519749D01*
X1625485Y1516685D01*
X1625171Y1513500D01*
X1625485Y1510314D01*
X1626414Y1507251D01*
X1627923Y1504428D01*
X1629954Y1501954D01*
X1632428Y1499923D01*
X1635251Y1498414D01*
X1638314Y1497485D01*
X1641500Y1497171D01*
X1644685Y1497485D01*
X1647749Y1498414D01*
X1650572Y1499923D01*
X1653046Y1501954D01*
X1655077Y1504428D01*
X1656586Y1507251D01*
X1657515Y1510314D01*
X1657829Y1513500D01*
X1657515Y1516685D01*
X1656586Y1519749D01*
X1655077Y1522572D01*
X1653046Y1525046D01*
X1650572Y1527077D01*
X1647749Y1528586D01*
X1644685Y1529515D01*
X1641500Y1529828D01*
D02*
G37*
G36*
X2856500Y1542641D02*
X2851394Y1542239D01*
X2846413Y1541043D01*
X2841682Y1539083D01*
X2837314Y1536407D01*
X2833419Y1533080D01*
X2830093Y1529185D01*
X2827417Y1524818D01*
X2825457Y1520086D01*
X2824261Y1515106D01*
X2823859Y1510000D01*
X2824261Y1504894D01*
X2825457Y1499913D01*
X2827417Y1495181D01*
X2830093Y1490814D01*
X2833419Y1486920D01*
X2837314Y1483593D01*
X2841682Y1480917D01*
X2846413Y1478957D01*
X2851394Y1477761D01*
X2856500Y1477359D01*
X2861606Y1477761D01*
X2866586Y1478957D01*
X2871318Y1480917D01*
X2875685Y1483593D01*
X2879580Y1486920D01*
X2882907Y1490814D01*
X2885583Y1495181D01*
X2887543Y1499913D01*
X2888739Y1504894D01*
X2889141Y1510000D01*
X2888739Y1515106D01*
X2887543Y1520086D01*
X2885583Y1524818D01*
X2882907Y1529185D01*
X2879580Y1533080D01*
X2875685Y1536407D01*
X2871318Y1539083D01*
X2866586Y1541043D01*
X2861606Y1542239D01*
X2856500Y1542641D01*
D02*
G37*
G36*
X2217898Y1524200D02*
X2177498D01*
Y1483800D01*
X2217898D01*
Y1524200D01*
D02*
G37*
G36*
X1641500Y1626487D02*
X1638553Y1626099D01*
X1635806Y1624962D01*
X1633448Y1623152D01*
X1631638Y1620793D01*
X1630500Y1618047D01*
X1630112Y1615100D01*
X1630500Y1612153D01*
X1631638Y1609406D01*
X1633448Y1607048D01*
X1635806Y1605238D01*
X1638553Y1604100D01*
X1641500Y1603712D01*
X1644447Y1604100D01*
X1647194Y1605238D01*
X1649552Y1607048D01*
X1651362Y1609406D01*
X1652499Y1612153D01*
X1652887Y1615100D01*
X1652499Y1618047D01*
X1651362Y1620793D01*
X1649552Y1623152D01*
X1647194Y1624962D01*
X1644447Y1626099D01*
X1641500Y1626487D01*
D02*
G37*
G36*
X2321500Y1934148D02*
X2319338Y1933718D01*
X2317506Y1932494D01*
X2316281Y1930661D01*
X2315851Y1928500D01*
X2316281Y1926338D01*
X2317506Y1924506D01*
X2317615Y1924433D01*
Y1732609D01*
X2300198Y1715192D01*
X2298661Y1716218D01*
X2296500Y1716648D01*
X2294338Y1716218D01*
X2292506Y1714994D01*
X2291281Y1713161D01*
X2290851Y1711000D01*
X2291281Y1708838D01*
X2292506Y1707006D01*
X2293129Y1706589D01*
X2293172Y1706449D01*
X2293042Y1705120D01*
X2291656Y1704194D01*
X2290431Y1702361D01*
X2290001Y1700200D01*
X2290431Y1698038D01*
X2291656Y1696206D01*
X2293488Y1694981D01*
X2295650Y1694551D01*
X2297811Y1694981D01*
X2299644Y1696206D01*
X2300018Y1696766D01*
X2301047Y1697453D01*
X2329327Y1725733D01*
X2330169Y1726993D01*
X2330465Y1728480D01*
Y1861159D01*
X2331733Y1861290D01*
X2332958Y1859458D01*
X2333067Y1859385D01*
Y1707048D01*
X2333363Y1705561D01*
X2334205Y1704301D01*
X2357270Y1681236D01*
X2358530Y1680394D01*
X2360016Y1680099D01*
X2398949D01*
X2399022Y1679989D01*
X2400855Y1678765D01*
X2403017Y1678335D01*
X2405178Y1678765D01*
X2407011Y1679989D01*
X2408235Y1681822D01*
X2408665Y1683983D01*
X2408235Y1686145D01*
X2407011Y1687977D01*
X2405178Y1689202D01*
X2403017Y1689632D01*
X2400855Y1689202D01*
X2399022Y1687977D01*
X2398949Y1687868D01*
X2361626D01*
X2340836Y1708657D01*
Y1859385D01*
X2340946Y1859458D01*
X2342170Y1861290D01*
X2342600Y1863452D01*
X2342170Y1865613D01*
X2340946Y1867446D01*
X2339113Y1868670D01*
X2336952Y1869100D01*
X2334790Y1868670D01*
X2332958Y1867446D01*
X2331733Y1865614D01*
X2330465Y1865745D01*
Y1906780D01*
X2330471Y1906781D01*
X2332304Y1908006D01*
X2333528Y1909838D01*
X2333958Y1912000D01*
X2333528Y1914162D01*
X2332304Y1915994D01*
X2330471Y1917218D01*
X2328310Y1917648D01*
X2326655Y1917319D01*
X2325385Y1918119D01*
Y1924433D01*
X2325494Y1924506D01*
X2326718Y1926338D01*
X2327148Y1928500D01*
X2326718Y1930661D01*
X2325494Y1932494D01*
X2323661Y1933718D01*
X2321500Y1934148D01*
D02*
G37*
G36*
X1641500Y1575687D02*
X1638553Y1575299D01*
X1635806Y1574162D01*
X1633448Y1572352D01*
X1631638Y1569993D01*
X1630500Y1567247D01*
X1630112Y1564300D01*
X1630500Y1561353D01*
X1631638Y1558606D01*
X1633448Y1556248D01*
X1635806Y1554438D01*
X1638553Y1553300D01*
X1641500Y1552912D01*
X1644447Y1553300D01*
X1647194Y1554438D01*
X1649552Y1556248D01*
X1651362Y1558606D01*
X1652499Y1561353D01*
X1652887Y1564300D01*
X1652499Y1567247D01*
X1651362Y1569993D01*
X1649552Y1572352D01*
X1647194Y1574162D01*
X1644447Y1575299D01*
X1641500Y1575687D01*
D02*
G37*
G36*
Y1601087D02*
X1638553Y1600699D01*
X1635806Y1599562D01*
X1633448Y1597752D01*
X1631638Y1595394D01*
X1630500Y1592647D01*
X1630112Y1589700D01*
X1630500Y1586753D01*
X1631638Y1584006D01*
X1633448Y1581648D01*
X1635806Y1579838D01*
X1638553Y1578700D01*
X1641500Y1578312D01*
X1644447Y1578700D01*
X1647194Y1579838D01*
X1649552Y1581648D01*
X1651362Y1584006D01*
X1652499Y1586753D01*
X1652887Y1589700D01*
X1652499Y1592647D01*
X1651362Y1595394D01*
X1649552Y1597752D01*
X1647194Y1599562D01*
X1644447Y1600699D01*
X1641500Y1601087D01*
D02*
G37*
G36*
X1801500Y1801591D02*
X1798759Y1801230D01*
X1796205Y1800172D01*
X1794011Y1798488D01*
X1792328Y1796295D01*
X1791270Y1793741D01*
X1790909Y1791000D01*
X1791270Y1788259D01*
X1792328Y1785704D01*
X1794011Y1783511D01*
X1796205Y1781828D01*
X1796924Y1781530D01*
Y1777120D01*
X1795654Y1776319D01*
X1794000Y1776648D01*
X1791838Y1776218D01*
X1790006Y1774994D01*
X1789933Y1774884D01*
X1764000D01*
X1762513Y1774589D01*
X1761253Y1773747D01*
X1746629Y1759123D01*
X1746500Y1759148D01*
X1744338Y1758718D01*
X1742506Y1757494D01*
X1741281Y1755661D01*
X1740851Y1753500D01*
X1741281Y1751338D01*
X1742506Y1749506D01*
X1744338Y1748281D01*
X1746500Y1747851D01*
X1748661Y1748281D01*
X1750494Y1749506D01*
X1751718Y1751338D01*
X1752148Y1753500D01*
X1752123Y1753629D01*
X1765609Y1767115D01*
X1789933D01*
X1790006Y1767006D01*
X1791838Y1765781D01*
X1794000Y1765351D01*
X1794057Y1765363D01*
X1794683Y1764192D01*
X1782745Y1752255D01*
X1781339Y1750423D01*
X1780898Y1749356D01*
X1780456Y1748289D01*
X1780305Y1747144D01*
X1780154Y1746000D01*
Y1706720D01*
X1779828Y1706295D01*
X1778770Y1703741D01*
X1778409Y1701000D01*
X1778770Y1698259D01*
X1779828Y1695705D01*
X1781511Y1693511D01*
X1783705Y1691828D01*
X1786259Y1690770D01*
X1789000Y1690409D01*
X1791741Y1690770D01*
X1794295Y1691828D01*
X1796489Y1693511D01*
X1798172Y1695705D01*
X1799230Y1698259D01*
X1799590Y1701000D01*
X1799230Y1703741D01*
X1798172Y1706295D01*
X1797846Y1706720D01*
Y1742336D01*
X1812025Y1756515D01*
X1812820Y1757552D01*
X1813430Y1758347D01*
X1813689Y1758972D01*
X1814314Y1760480D01*
X1814615Y1762770D01*
Y1786730D01*
X1814349Y1788753D01*
X1814314Y1789019D01*
X1814114Y1789503D01*
X1813430Y1791153D01*
X1812450Y1792430D01*
X1812025Y1792985D01*
X1811799Y1793210D01*
X1811730Y1793741D01*
X1810672Y1796295D01*
X1808989Y1798488D01*
X1806795Y1800172D01*
X1804241Y1801230D01*
X1801500Y1801591D01*
D02*
G37*
G36*
X2309750Y2396235D02*
Y2387000D01*
X2318985D01*
X2318834Y2388153D01*
X2317713Y2390858D01*
X2315931Y2393181D01*
X2313608Y2394963D01*
X2310903Y2396084D01*
X2309750Y2396235D01*
D02*
G37*
G36*
X2306250Y2396235D02*
X2305097Y2396084D01*
X2302392Y2394963D01*
X2300069Y2393181D01*
X2298287Y2390858D01*
X2297166Y2388153D01*
X2297014Y2387000D01*
X2306250D01*
Y2396235D01*
D02*
G37*
G36*
X2098400Y2189587D02*
X2094871Y2189240D01*
X2091478Y2188210D01*
X2088351Y2186539D01*
X2085611Y2184290D01*
X2083361Y2181549D01*
X2081690Y2178422D01*
X2080660Y2175029D01*
X2080313Y2171500D01*
X2080660Y2167971D01*
X2081690Y2164578D01*
X2083361Y2161451D01*
X2085611Y2158710D01*
X2088351Y2156461D01*
X2091478Y2154790D01*
X2094871Y2153760D01*
X2098400Y2153413D01*
X2101929Y2153760D01*
X2105322Y2154790D01*
X2108449Y2156461D01*
X2111190Y2158710D01*
X2113439Y2161451D01*
X2115110Y2164578D01*
X2116140Y2167971D01*
X2116487Y2171500D01*
X2116140Y2175029D01*
X2115110Y2178422D01*
X2113439Y2181549D01*
X2111190Y2184290D01*
X2108449Y2186539D01*
X2105322Y2188210D01*
X2101929Y2189240D01*
X2098400Y2189587D01*
D02*
G37*
G36*
X1865400Y2505744D02*
X1861177Y2505328D01*
X1857117Y2504097D01*
X1853375Y2502097D01*
X1850095Y2499405D01*
X1847404Y2496125D01*
X1845403Y2492383D01*
X1844172Y2488323D01*
X1843756Y2484100D01*
X1844172Y2479877D01*
X1845403Y2475817D01*
X1847404Y2472075D01*
X1850095Y2468795D01*
X1853375Y2466104D01*
X1857117Y2464103D01*
X1861177Y2462872D01*
X1865400Y2462456D01*
X1869623Y2462872D01*
X1873683Y2464103D01*
X1877425Y2466104D01*
X1880705Y2468795D01*
X1883396Y2472075D01*
X1885397Y2475817D01*
X1886628Y2479877D01*
X1887044Y2484100D01*
X1886628Y2488323D01*
X1885397Y2492383D01*
X1883396Y2496125D01*
X1880705Y2499405D01*
X1877425Y2502097D01*
X1873683Y2504097D01*
X1869623Y2505328D01*
X1865400Y2505744D01*
D02*
G37*
G36*
X2856500Y2639641D02*
X2851394Y2639239D01*
X2846413Y2638043D01*
X2841682Y2636083D01*
X2837314Y2633407D01*
X2833419Y2630080D01*
X2830093Y2626186D01*
X2827417Y2621819D01*
X2825457Y2617086D01*
X2824261Y2612106D01*
X2823859Y2607000D01*
X2824261Y2601894D01*
X2825457Y2596913D01*
X2827417Y2592181D01*
X2830093Y2587814D01*
X2833419Y2583919D01*
X2837314Y2580593D01*
X2841682Y2577917D01*
X2846413Y2575957D01*
X2851394Y2574761D01*
X2856500Y2574359D01*
X2861606Y2574761D01*
X2866586Y2575957D01*
X2871318Y2577917D01*
X2875685Y2580593D01*
X2879580Y2583919D01*
X2882907Y2587814D01*
X2885583Y2592181D01*
X2887543Y2596913D01*
X2888739Y2601894D01*
X2889141Y2607000D01*
X2888739Y2612106D01*
X2887543Y2617086D01*
X2885583Y2621819D01*
X2882907Y2626186D01*
X2879580Y2630080D01*
X2875685Y2633407D01*
X2871318Y2636083D01*
X2866586Y2638043D01*
X2861606Y2639239D01*
X2856500Y2639641D01*
D02*
G37*
G36*
X1744000Y2676105D02*
X1734000D01*
X1732032Y2675846D01*
X1730197Y2675086D01*
X1728622Y2673878D01*
X1727414Y2672303D01*
X1726654Y2670468D01*
X1726395Y2668500D01*
Y2633500D01*
X1726654Y2631532D01*
X1727414Y2629697D01*
X1728622Y2628122D01*
X1730197Y2626914D01*
X1732032Y2626154D01*
X1733861Y2625913D01*
Y2543629D01*
X1708071Y2517839D01*
X1658367D01*
X1658148Y2518560D01*
X1656733Y2521208D01*
X1654828Y2523528D01*
X1652508Y2525433D01*
X1649860Y2526848D01*
X1646988Y2527720D01*
X1644000Y2528014D01*
X1641012Y2527720D01*
X1638140Y2526848D01*
X1635492Y2525433D01*
X1633172Y2523528D01*
X1631267Y2521208D01*
X1629852Y2518560D01*
X1628981Y2515688D01*
X1628686Y2512700D01*
X1628981Y2509712D01*
X1629852Y2506840D01*
X1631267Y2504192D01*
X1633172Y2501871D01*
X1635492Y2499967D01*
X1638140Y2498552D01*
X1641012Y2497681D01*
X1644000Y2497386D01*
X1646988Y2497681D01*
X1649860Y2498552D01*
X1652508Y2499967D01*
X1654828Y2501871D01*
X1656733Y2504192D01*
X1658148Y2506840D01*
X1658367Y2507561D01*
X1710200D01*
X1712166Y2507952D01*
X1713834Y2509066D01*
X1742634Y2537866D01*
X1743748Y2539534D01*
X1744139Y2541500D01*
Y2625913D01*
X1745968Y2626154D01*
X1747802Y2626914D01*
X1749378Y2628122D01*
X1750586Y2629697D01*
X1751346Y2631532D01*
X1751605Y2633500D01*
Y2668500D01*
X1751346Y2670468D01*
X1750586Y2672303D01*
X1749378Y2673878D01*
X1747802Y2675086D01*
X1745968Y2675846D01*
X1744000Y2676105D01*
D02*
G37*
G36*
X2599600Y2505744D02*
X2595378Y2505328D01*
X2591317Y2504097D01*
X2587575Y2502097D01*
X2584295Y2499405D01*
X2581603Y2496125D01*
X2579603Y2492383D01*
X2578372Y2488323D01*
X2577956Y2484100D01*
X2578372Y2479877D01*
X2579603Y2475817D01*
X2581603Y2472075D01*
X2584295Y2468795D01*
X2587575Y2466104D01*
X2591317Y2464103D01*
X2595378Y2462872D01*
X2599600Y2462456D01*
X2603823Y2462872D01*
X2607883Y2464103D01*
X2611625Y2466104D01*
X2614905Y2468795D01*
X2617596Y2472075D01*
X2619597Y2475817D01*
X2620828Y2479877D01*
X2621244Y2484100D01*
X2620828Y2488323D01*
X2619597Y2492383D01*
X2617596Y2496125D01*
X2614905Y2499405D01*
X2611625Y2502097D01*
X2607883Y2504097D01*
X2603823Y2505328D01*
X2599600Y2505744D01*
D02*
G37*
G36*
X2116400Y2080700D02*
X2080400D01*
Y2044700D01*
X2116400D01*
Y2080700D01*
D02*
G37*
G36*
X1662500Y1844648D02*
X1660338Y1844218D01*
X1658506Y1842994D01*
X1657281Y1841162D01*
X1656852Y1839000D01*
X1657281Y1836838D01*
X1658506Y1835006D01*
X1660338Y1833781D01*
X1662500Y1833351D01*
X1662629Y1833377D01*
X1678061Y1817945D01*
X1678281Y1816838D01*
X1679506Y1815006D01*
X1681338Y1813781D01*
X1683500Y1813351D01*
X1685662Y1813781D01*
X1687494Y1815006D01*
X1688719Y1816838D01*
X1689149Y1819000D01*
X1688719Y1821162D01*
X1687494Y1822994D01*
X1685662Y1824219D01*
X1683500Y1824648D01*
X1682537Y1824457D01*
X1668123Y1838871D01*
X1668148Y1839000D01*
X1667719Y1841162D01*
X1666494Y1842994D01*
X1664662Y1844218D01*
X1662500Y1844648D01*
D02*
G37*
G36*
X1641500Y1829687D02*
X1638553Y1829299D01*
X1635806Y1828162D01*
X1633448Y1826352D01*
X1631638Y1823994D01*
X1630500Y1821247D01*
X1630112Y1818300D01*
X1630500Y1815353D01*
X1631638Y1812606D01*
X1633448Y1810248D01*
X1635806Y1808438D01*
X1638553Y1807300D01*
X1641500Y1806912D01*
X1644447Y1807300D01*
X1647194Y1808438D01*
X1649552Y1810248D01*
X1651362Y1812606D01*
X1652111Y1814415D01*
X1657591D01*
X1668377Y1803629D01*
X1668351Y1803500D01*
X1668781Y1801338D01*
X1670006Y1799506D01*
X1671838Y1798281D01*
X1674000Y1797851D01*
X1676161Y1798281D01*
X1677994Y1799506D01*
X1679218Y1801338D01*
X1679648Y1803500D01*
X1679218Y1805661D01*
X1677994Y1807494D01*
X1676161Y1808718D01*
X1674000Y1809148D01*
X1673871Y1809123D01*
X1661947Y1821047D01*
X1660686Y1821889D01*
X1659200Y1822184D01*
X1652111D01*
X1651362Y1823994D01*
X1649552Y1826352D01*
X1647194Y1828162D01*
X1644447Y1829299D01*
X1641500Y1829687D01*
D02*
G37*
G36*
Y1804287D02*
X1638553Y1803899D01*
X1635806Y1802762D01*
X1633448Y1800952D01*
X1631638Y1798593D01*
X1630500Y1795847D01*
X1630112Y1792900D01*
X1630500Y1789953D01*
X1631638Y1787206D01*
X1633448Y1784848D01*
X1635806Y1783038D01*
X1638553Y1781900D01*
X1641500Y1781512D01*
X1644447Y1781900D01*
X1647194Y1783038D01*
X1649552Y1784848D01*
X1651362Y1787206D01*
X1652499Y1789953D01*
X1652887Y1792900D01*
X1652499Y1795847D01*
X1651362Y1798593D01*
X1649552Y1800952D01*
X1647194Y1802762D01*
X1644447Y1803899D01*
X1641500Y1804287D01*
D02*
G37*
G36*
X1674500Y1854648D02*
X1672338Y1854218D01*
X1670506Y1852994D01*
X1669281Y1851162D01*
X1668851Y1849000D01*
X1669281Y1846838D01*
X1670506Y1845006D01*
X1672338Y1843781D01*
X1674500Y1843351D01*
X1674629Y1843377D01*
X1692877Y1825129D01*
X1692852Y1825000D01*
X1693281Y1822838D01*
X1694506Y1821006D01*
X1696338Y1819781D01*
X1698500Y1819352D01*
X1700662Y1819781D01*
X1702494Y1821006D01*
X1703719Y1822838D01*
X1704149Y1825000D01*
X1703719Y1827162D01*
X1702494Y1828994D01*
X1700662Y1830219D01*
X1698500Y1830648D01*
X1698371Y1830623D01*
X1680123Y1848871D01*
X1680148Y1849000D01*
X1679719Y1851162D01*
X1678494Y1852994D01*
X1676662Y1854218D01*
X1674500Y1854648D01*
D02*
G37*
G36*
X1641500Y1905887D02*
X1638553Y1905499D01*
X1635806Y1904362D01*
X1633448Y1902552D01*
X1631638Y1900193D01*
X1630500Y1897447D01*
X1630112Y1894500D01*
X1630500Y1891553D01*
X1631638Y1888806D01*
X1633448Y1886448D01*
X1635806Y1884638D01*
X1638553Y1883500D01*
X1641500Y1883112D01*
X1644447Y1883500D01*
X1647194Y1884638D01*
X1649552Y1886448D01*
X1651362Y1888806D01*
X1652499Y1891553D01*
X1652887Y1894500D01*
X1652499Y1897447D01*
X1651362Y1900193D01*
X1649552Y1902552D01*
X1647194Y1904362D01*
X1644447Y1905499D01*
X1641500Y1905887D01*
D02*
G37*
G36*
Y1880487D02*
X1638553Y1880099D01*
X1635806Y1878962D01*
X1633448Y1877152D01*
X1631638Y1874794D01*
X1630500Y1872047D01*
X1630112Y1869100D01*
X1630500Y1866153D01*
X1631638Y1863406D01*
X1633448Y1861048D01*
X1635806Y1859238D01*
X1638553Y1858100D01*
X1641500Y1857712D01*
X1644447Y1858100D01*
X1647194Y1859238D01*
X1649552Y1861048D01*
X1651362Y1863406D01*
X1652499Y1866153D01*
X1652887Y1869100D01*
X1652499Y1872047D01*
X1651362Y1874794D01*
X1649552Y1877152D01*
X1647194Y1878962D01*
X1644447Y1880099D01*
X1641500Y1880487D01*
D02*
G37*
G36*
Y1855087D02*
X1638553Y1854699D01*
X1635806Y1853562D01*
X1633448Y1851752D01*
X1631638Y1849393D01*
X1630500Y1846647D01*
X1630112Y1843700D01*
X1630500Y1840753D01*
X1631638Y1838006D01*
X1633448Y1835648D01*
X1635806Y1833838D01*
X1638553Y1832700D01*
X1641500Y1832312D01*
X1644447Y1832700D01*
X1647194Y1833838D01*
X1649552Y1835648D01*
X1651362Y1838006D01*
X1652499Y1840753D01*
X1652887Y1843700D01*
X1652499Y1846647D01*
X1651362Y1849393D01*
X1649552Y1851752D01*
X1647194Y1853562D01*
X1644447Y1854699D01*
X1641500Y1855087D01*
D02*
G37*
%LPD*%
D26*
X1801500Y1791000D02*
X1805770Y1786730D01*
Y1762770D02*
Y1786730D01*
X1789000Y1746000D02*
X1805770Y1762770D01*
X1789000Y1701000D02*
Y1746000D01*
X1746500Y1753500D02*
X1764000Y1771000D01*
X1794000D01*
X2326580Y1728480D02*
Y1910270D01*
X2295650Y1700200D02*
X2298300D01*
X2726740Y2116760D02*
X2731500Y2112000D01*
X2602556Y2116760D02*
X2726740D01*
X2604660Y2121840D02*
X2735660D01*
X2600516Y2118800D02*
X2602556Y2116760D01*
X2599700Y2118800D02*
X2600516D01*
X2782869Y2169000D02*
X2788679Y2163190D01*
X2762679Y2169000D02*
X2782869D01*
X2787370Y2174130D02*
X2791500Y2170000D01*
X2797290Y2179210D02*
X2798500Y2178000D01*
X2735941Y2159440D02*
X2740471Y2163970D01*
X2729628Y2174680D02*
X2734158Y2179210D01*
X2731732Y2169600D02*
X2736263Y2174130D01*
X2733837Y2164520D02*
X2738367Y2169050D01*
X2623662Y2174680D02*
X2729628D01*
X2621558Y2169600D02*
X2731732D01*
X2619453Y2164520D02*
X2733837D01*
X2617349Y2159440D02*
X2735941D01*
X2615245Y2154360D02*
X2738045D01*
X2613141Y2149280D02*
X2740149D01*
X2746701Y2144200D02*
X2747500Y2144998D01*
X2722260Y2179760D02*
X2724500Y2182000D01*
X2611037Y2144200D02*
X2746701D01*
X2625766Y2179760D02*
X2722260D01*
X2782420Y2126920D02*
X2782500Y2127000D01*
X2772460Y2132000D02*
X2774500Y2134040D01*
X2788679Y2163190D02*
X2798690D01*
X2800500Y2165000D01*
X1639000Y1996100D02*
Y1998134D01*
X2606764Y2126920D02*
X2782420D01*
X2608868Y2132000D02*
X2772460D01*
X2735660Y2121840D02*
X2740500Y2117000D01*
X2608932Y2139120D02*
X2755380D01*
X2747500Y2144998D02*
Y2147000D01*
X2740149Y2149280D02*
X2744679Y2153810D01*
X2750321D01*
X2738045Y2154360D02*
X2742575Y2158890D01*
X2752425D01*
X2740471Y2163970D02*
X2760525D01*
X2760575Y2163920D01*
X2755380Y2139120D02*
X2755500Y2139000D01*
X2760500Y2163844D02*
X2760575Y2163920D01*
X2760500Y2161998D02*
Y2163844D01*
X2738367Y2169050D02*
X2766450D01*
X2736263Y2174130D02*
X2787370D01*
X2734158Y2179210D02*
X2797290D01*
X2750321Y2153810D02*
X2754131Y2150000D01*
X2783500D01*
X2790500Y2143000D01*
X2752425Y2158890D02*
X2756235Y2155080D01*
X2788420D02*
X2789500Y2154000D01*
X2756235Y2155080D02*
X2788420D01*
X1639000Y2148500D02*
X1672860Y2182360D01*
X1639000Y2123100D02*
X1677940Y2162040D01*
X1639000Y1919900D02*
X1683500Y1964400D01*
Y2112000D01*
X1713500Y2142000D01*
X1639000Y1945300D02*
X1678420Y1984720D01*
Y2114104D01*
X1639000Y1998134D02*
X1673340Y2032474D01*
Y2116208D01*
X1639000Y2021500D02*
X1668260Y2050760D01*
Y2118313D01*
X1639000Y2046900D02*
X1663180Y2071080D01*
Y2120417D01*
X1639000Y2072300D02*
X1658100Y2091400D01*
Y2122521D01*
X1639000Y2097700D02*
X1653020Y2111720D01*
Y2124625D01*
X1678420Y2114104D02*
X1708420Y2144104D01*
X1673340Y2116208D02*
X1703340Y2146208D01*
X1668260Y2118313D02*
X1698260Y2148313D01*
X1663180Y2120417D02*
X1693180Y2150417D01*
X1658100Y2122521D02*
X1688100Y2152521D01*
X1653020Y2124625D02*
X1683020Y2154625D01*
X1639000Y1716700D02*
X1657216D01*
X1639000Y2173900D02*
X1667780Y2202680D01*
X1683020Y2154625D02*
Y2196783D01*
X1677940Y2162040D02*
Y2198887D01*
X1672860Y2182360D02*
Y2200992D01*
X1667780Y2202680D02*
Y2203096D01*
X1713500Y2142000D02*
Y2184158D01*
X1708420Y2144104D02*
Y2186262D01*
X1703340Y2146208D02*
Y2188367D01*
X1698260Y2148313D02*
Y2190471D01*
X1693180Y2150417D02*
Y2192575D01*
X1688100Y2152521D02*
Y2194679D01*
X1639000Y2199300D02*
X1658090Y2218390D01*
X1675890D01*
X1674500Y1849000D02*
X1698500Y1825000D01*
X1662500Y1839000D02*
X1682500Y1819000D01*
X1683500D01*
X1657216Y1716700D02*
X1800030Y1859514D01*
X1639000Y1691300D02*
X1805110Y1857410D01*
X1800030Y1859514D02*
Y2223898D01*
X1805110Y1857410D02*
Y2221794D01*
X1811500Y1851250D02*
Y2219500D01*
X1805110Y2221794D02*
X1863396Y2280080D01*
X1800030Y2223898D02*
X1861292Y2285160D01*
X1811500Y2219500D02*
X1867000Y2275000D01*
X2464486Y2341040D02*
X2625766Y2179760D01*
X1675890Y2218390D02*
X1798540Y2341040D01*
X2462382Y2335960D02*
X2623662Y2174680D01*
X1667780Y2203096D02*
X1800644Y2335960D01*
X2460278Y2330880D02*
X2621558Y2169600D01*
X1672860Y2200992D02*
X1802748Y2330880D01*
X2458174Y2325800D02*
X2619453Y2164520D01*
X1677940Y2198887D02*
X1804852Y2325800D01*
X2456069Y2320720D02*
X2617349Y2159440D01*
X1683020Y2196783D02*
X1806957Y2320720D01*
X2453965Y2315640D02*
X2615245Y2154360D01*
X1688100Y2194679D02*
X1809061Y2315640D01*
X2451861Y2310560D02*
X2613141Y2149280D01*
X1693180Y2192575D02*
X1811165Y2310560D01*
X2449757Y2305480D02*
X2611037Y2144200D01*
X1698260Y2190471D02*
X1813269Y2305480D01*
X2447653Y2300400D02*
X2608932Y2139120D01*
X1703340Y2188367D02*
X1815373Y2300400D01*
X2445549Y2295320D02*
X2608868Y2132000D01*
X1708420Y2186262D02*
X1817478Y2295320D01*
X2443444Y2290240D02*
X2606764Y2126920D01*
X1713500Y2184158D02*
X1819582Y2290240D01*
X1798540Y2341040D02*
X2464486D01*
X1800644Y2335960D02*
X2462382D01*
X1802748Y2330880D02*
X2460278D01*
X1804852Y2325800D02*
X2458174D01*
X1806957Y2320720D02*
X2456069D01*
X1809061Y2315640D02*
X2453965D01*
X1811165Y2310560D02*
X2451861D01*
X1813269Y2305480D02*
X2449757D01*
X1815373Y2300400D02*
X2447653D01*
X1817478Y2295320D02*
X2445549D01*
X1819582Y2290240D02*
X2443444D01*
X1863396Y2280080D02*
X2438420D01*
X2599700Y2118800D01*
X1861292Y2285160D02*
X2441340D01*
X2604660Y2121840D01*
X1867000Y2275000D02*
X2270250D01*
X2282500Y2262750D01*
X1639000Y1665900D02*
X1658906Y1685806D01*
Y1698656D01*
X1811500Y1851250D01*
X2348998Y1710760D02*
Y1899998D01*
X2349000Y1900000D01*
X1821750Y1706750D02*
X1864250D01*
X1814000Y1717250D02*
X1857250D01*
X2326580Y1910270D02*
X2328310Y1912000D01*
X2336952Y1707048D02*
Y1863452D01*
Y1707048D02*
X2360016Y1683983D01*
X2403017D01*
X2321500Y1731000D02*
Y1928500D01*
X2301500Y1711000D02*
X2321500Y1731000D01*
X2298300Y1700200D02*
X2326580Y1728480D01*
X2296500Y1711000D02*
X2301500D01*
X1659200Y1818300D02*
X1674000Y1803500D01*
X1641500Y1818300D02*
X1659200D01*
D27*
X2798500Y2225000D02*
Y2226000D01*
X2789500Y2234000D02*
X2798500Y2225000D01*
X1639000Y2250100D02*
X1687600D01*
X1639000Y2275500D02*
X1702000D01*
X1644000Y2512700D02*
X1710200D01*
X1739000Y2541500D01*
Y2651000D01*
X2770163Y2225000D02*
X2771500D01*
X2771826Y2234000D02*
X2789500D01*
X2640866Y2364960D02*
X2771826Y2234000D01*
X2637743Y2357420D02*
X2770163Y2225000D01*
X1617000Y2237000D02*
Y2315000D01*
Y2237000D02*
X1629300Y2224700D01*
X1639000D01*
X1617000Y2315000D02*
X1674500Y2372500D01*
X1702000Y2275500D02*
X1791460Y2364960D01*
X1687600Y2250100D02*
X1794920Y2357420D01*
X1791460Y2364960D02*
X2640866D01*
X1794920Y2357420D02*
X2637743D01*
X1674500Y2372500D02*
X2753500D01*
X2863000Y2482000D01*
X2879500D01*
D29*
X1601500Y1421000D02*
X2974500Y1421000D01*
Y2701000D01*
X1601500D02*
X2974500D01*
X1601500Y1421000D02*
Y2701000D01*
D30*
X2197698Y1504000D02*
D03*
D31*
X2248498D02*
D03*
X1644000Y2512700D02*
D03*
D32*
X2856500Y1510000D02*
D03*
Y2607000D02*
D03*
D33*
X1988948Y1501000D02*
D03*
X2059052D02*
D03*
Y1551000D02*
D03*
X1988948D02*
D03*
X2059052Y1601000D02*
D03*
X1988948D02*
D03*
X2386448Y1501000D02*
D03*
X2456552D02*
D03*
Y1551000D02*
D03*
X2386448D02*
D03*
X2456552Y1601000D02*
D03*
X2386448D02*
D03*
D34*
X1644000Y2563500D02*
D03*
D35*
X1876500Y2626000D02*
D03*
X2709000D02*
D03*
X1876500Y1591000D02*
D03*
X2709000D02*
D03*
X2846500Y1943000D02*
D03*
D36*
X2879500Y2456600D02*
D03*
Y2482000D02*
D03*
Y2507400D02*
D03*
D37*
X1679000Y2651000D02*
D03*
D38*
X1739000D02*
D03*
D39*
X1709000Y2604000D02*
D03*
D40*
X2051900Y1768000D02*
D03*
D41*
X2026500D02*
D03*
X2001100D02*
D03*
D42*
X2098400Y2171500D02*
D03*
Y2117100D02*
D03*
D43*
Y2062700D02*
D03*
D44*
X2282600Y2385250D02*
D03*
X2308000D02*
D03*
D45*
X1641500Y2300900D02*
D03*
Y2275500D02*
D03*
Y2250100D02*
D03*
Y2224700D02*
D03*
Y2199300D02*
D03*
Y2173900D02*
D03*
Y2148500D02*
D03*
Y2123100D02*
D03*
Y2097700D02*
D03*
Y2072300D02*
D03*
Y2046900D02*
D03*
Y2021500D02*
D03*
Y1970700D02*
D03*
Y1996100D02*
D03*
Y1691300D02*
D03*
Y1716700D02*
D03*
Y1767500D02*
D03*
Y1742100D02*
D03*
Y1843700D02*
D03*
Y1869100D02*
D03*
Y1818300D02*
D03*
Y1792900D02*
D03*
Y1894500D02*
D03*
Y1945300D02*
D03*
Y1919900D02*
D03*
Y1615100D02*
D03*
Y1640500D02*
D03*
Y1665900D02*
D03*
Y1589700D02*
D03*
Y1564300D02*
D03*
Y1538900D02*
D03*
Y1513500D02*
D03*
D46*
X1746500Y1753500D02*
D03*
X1794000Y1771000D02*
D03*
X1801500Y1791000D02*
D03*
X2763500Y2490000D02*
D03*
X2295650Y1700200D02*
D03*
X2838500Y2047000D02*
D03*
X2840000Y2025500D02*
D03*
X2724500Y2182000D02*
D03*
X2731500Y2112000D02*
D03*
X2790500Y2143000D02*
D03*
X2791500Y2170000D02*
D03*
X2798500Y2178000D02*
D03*
X2789500Y2154000D02*
D03*
X2800500Y2165000D02*
D03*
X2782500Y2127000D02*
D03*
X2774500Y2135000D02*
D03*
X2740500Y2117000D02*
D03*
X2747500Y2147000D02*
D03*
X2755500Y2139000D02*
D03*
X2760500Y2161998D02*
D03*
X2771500Y2225000D02*
D03*
X2798500Y2226000D02*
D03*
X1674500Y1849000D02*
D03*
X1698500Y1825000D02*
D03*
X1662500Y1839000D02*
D03*
X1683500Y1819000D02*
D03*
X2282500Y2262750D02*
D03*
X1857250Y1717250D02*
D03*
X1864250Y1706750D02*
D03*
X2348998Y1710760D02*
D03*
X2349000Y1900000D02*
D03*
X2403017Y1683983D02*
D03*
X2336952Y1863452D02*
D03*
X1821750Y1706750D02*
D03*
X1814000Y1717250D02*
D03*
X2328310Y1912000D02*
D03*
X1952500Y1834100D02*
D03*
X2321500Y1928500D02*
D03*
X2296500Y1711000D02*
D03*
X1789000Y1701000D02*
D03*
X1674000Y1803500D02*
D03*
X2264000Y1568500D02*
D03*
M02*
