M48
;Layer_Color=6321
;FILE_FORMAT=4:4
METRIC,LZ
;TYPE=PLATED
T1F00S00C0.3000
T3F00S00C0.7620
T4F00S00C1.0160
T5F00S00C1.0200
T6F00S00C1.1000
T7F00S00C1.2700
T8F00S00C1.4000
T9F00S00C1.9304
%
T01
X02264Y015685
X0186425Y0170675
X0185725Y0171725
X01814
X0182175Y0170675
X01789Y01701
X01794Y01771
X018015Y01791
X017465Y017535
X016985Y01825
X016835Y01819
X01674Y018035
X016745Y01849
X016625Y01839
X019525Y018341
X02336952Y01863452
X02349Y019
X0232831Y01912
X023215Y019285
X022965Y01711
X0229565Y017002
X02348998Y0171076
X02403017Y01683983
X0284Y020255
X028385Y02047
X027825Y02127
X027905Y02143
X027895Y02154
X027915Y0217
X028005Y02165
X027985Y02178
Y02226
X027715Y02225
X027605Y02161998
X027475Y02147
X027555Y02139
X027745Y02135
X027405Y02117
X027315Y02112
X027245Y02182
X022825Y0226275
X027635Y0249
T03
X022826Y0238525
X02308
T04
X016415Y015135
Y015389
Y015643
Y015897
Y016151
Y016405
Y016659
Y016913
Y017167
Y017421
Y017675
Y017929
Y018183
Y018437
Y018691
Y018945
Y019199
Y019453
Y019707
Y019961
Y020215
Y020469
Y020723
Y020977
Y021231
Y021485
Y021739
Y021993
Y022247
Y022501
Y022755
Y023009
T05
X028795Y024566
Y02482
Y025074
T06
X020011Y01768
X020265
X020519
T07
X02197698Y01504
X02248498
X01644Y025127
Y025635
T08
X020984Y020627
Y021171
Y021715
T09
X02386448Y01501
Y01551
X02456552
Y01501
X02059052
Y01551
X01988948
Y01501
Y01601
X02059052
X02386448
X02456552
M30
