G04*
G04 #@! TF.GenerationSoftware,Altium Limited,CircuitStudio,1.5.2 (1.5.2.30)*
G04*
G04 Layer_Physical_Order=2*
G04 Layer_Color=12500520*
%FSLAX44Y44*%
%MOMM*%
G71*
G01*
G75*
%ADD26C,0.2540*%
%ADD27C,0.5000*%
%ADD28C,0.2500*%
%ADD29C,1.7500*%
%ADD30C,6.0000*%
%ADD31O,2.5400X3.1750*%
%ADD32R,2.5400X2.5400*%
%ADD33C,2.5400*%
%ADD34C,4.0000*%
%ADD35C,2.0000*%
G04:AMPARAMS|DCode=36|XSize=2mm|YSize=4mm|CornerRadius=0.5mm|HoleSize=0mm|Usage=FLASHONLY|Rotation=180.000|XOffset=0mm|YOffset=0mm|HoleType=Round|Shape=RoundedRectangle|*
%AMROUNDEDRECTD36*
21,1,2.0000,3.0000,0,0,180.0*
21,1,1.0000,4.0000,0,0,180.0*
1,1,1.0000,-0.5000,1.5000*
1,1,1.0000,0.5000,1.5000*
1,1,1.0000,0.5000,-1.5000*
1,1,1.0000,-0.5000,-1.5000*
%
%ADD36ROUNDEDRECTD36*%
G04:AMPARAMS|DCode=37|XSize=2mm|YSize=4.5mm|CornerRadius=0.5mm|HoleSize=0mm|Usage=FLASHONLY|Rotation=0.000|XOffset=0mm|YOffset=0mm|HoleType=Round|Shape=RoundedRectangle|*
%AMROUNDEDRECTD37*
21,1,2.0000,3.5000,0,0,0.0*
21,1,1.0000,4.5000,0,0,0.0*
1,1,1.0000,0.5000,-1.7500*
1,1,1.0000,-0.5000,-1.7500*
1,1,1.0000,-0.5000,1.7500*
1,1,1.0000,0.5000,1.7500*
%
%ADD37ROUNDEDRECTD37*%
G04:AMPARAMS|DCode=38|XSize=2mm|YSize=4mm|CornerRadius=0.5mm|HoleSize=0mm|Usage=FLASHONLY|Rotation=90.000|XOffset=0mm|YOffset=0mm|HoleType=Round|Shape=RoundedRectangle|*
%AMROUNDEDRECTD38*
21,1,2.0000,3.0000,0,0,90.0*
21,1,1.0000,4.0000,0,0,90.0*
1,1,1.0000,1.5000,0.5000*
1,1,1.0000,1.5000,-0.5000*
1,1,1.0000,-1.5000,-0.5000*
1,1,1.0000,-1.5000,0.5000*
%
%ADD38ROUNDEDRECTD38*%
G04:AMPARAMS|DCode=39|XSize=2mm|YSize=2.5mm|CornerRadius=0.5mm|HoleSize=0mm|Usage=FLASHONLY|Rotation=0.000|XOffset=0mm|YOffset=0mm|HoleType=Round|Shape=RoundedRectangle|*
%AMROUNDEDRECTD39*
21,1,2.0000,1.5000,0,0,0.0*
21,1,1.0000,2.5000,0,0,0.0*
1,1,1.0000,0.5000,-0.7500*
1,1,1.0000,-0.5000,-0.7500*
1,1,1.0000,-0.5000,0.7500*
1,1,1.0000,0.5000,0.7500*
%
%ADD39ROUNDEDRECTD39*%
%ADD40O,2.0000X2.5000*%
%ADD41C,2.1000*%
%ADD42R,2.1000X2.1000*%
%ADD43C,1.5240*%
%ADD44R,2.5400X2.5400*%
%ADD45C,0.6000*%
G36*
X2961500Y2680102D02*
X2961500Y1468500D01*
X2107326D01*
X2106929Y1468794D01*
X2106334Y1469744D01*
X2106323Y1469801D01*
X2106332Y1469858D01*
X2106230Y1470295D01*
X2106146Y1470737D01*
X2106035Y1471012D01*
X2106031Y1471037D01*
X2105945Y1471249D01*
X2105997Y1471473D01*
X2105998Y1471535D01*
X2106017Y1471616D01*
X2106023Y1471833D01*
X2106032Y1471870D01*
X2106033Y1471907D01*
X2106033Y1471907D01*
X2106033Y1471907D01*
X2106040Y1471944D01*
Y1471981D01*
X2106082Y1472195D01*
Y1472413D01*
X2106090Y1472449D01*
Y1477116D01*
X2106090Y1737001D01*
X2106040Y1737251D01*
X2106040Y1737506D01*
X2105993Y1737742D01*
X2105993Y1737742D01*
X2105896Y1737977D01*
X2105893Y1737992D01*
X2105884Y1738004D01*
X2105805Y1738195D01*
X2105715Y1738413D01*
X2105712Y1738427D01*
X2105704Y1738440D01*
X2105607Y1738675D01*
X2105606Y1738676D01*
X2105473Y1738875D01*
X2105399Y1738949D01*
X2105444Y1739552D01*
X2105584Y1739939D01*
X2105856Y1740359D01*
X2107036Y1740848D01*
X2108043Y1741265D01*
X2110132Y1742868D01*
X2110132Y1742868D01*
X2111844Y1744580D01*
X2174133Y1682291D01*
Y1657527D01*
X2172834Y1654393D01*
X2172388Y1651000D01*
X2172834Y1647606D01*
X2174144Y1644444D01*
X2176228Y1641728D01*
X2178944Y1639644D01*
X2182106Y1638335D01*
X2185500Y1637888D01*
X2188893Y1638335D01*
X2192056Y1639644D01*
X2194772Y1641728D01*
X2196855Y1644444D01*
X2198165Y1647606D01*
X2198612Y1651000D01*
X2198165Y1654393D01*
X2196867Y1657527D01*
Y1687000D01*
X2196480Y1689942D01*
X2195344Y1692684D01*
X2193538Y1695038D01*
X2128555Y1760021D01*
Y1761291D01*
X2253777Y1886513D01*
X2254361Y1887274D01*
X2254491Y1887388D01*
X2254595Y1887544D01*
X2255031Y1888041D01*
X2255294Y1888435D01*
X2255371Y1888590D01*
X2255380Y1888602D01*
X2255397Y1888643D01*
X2255587Y1889028D01*
X2255954Y1889577D01*
X2256166Y1890203D01*
X2256459Y1890796D01*
X2256588Y1891445D01*
X2256725Y1891850D01*
X2256743Y1891891D01*
X2256745Y1891907D01*
X2256800Y1892070D01*
X2256893Y1892534D01*
X2256936Y1893194D01*
X2256972Y1893379D01*
X2256961Y1893551D01*
X2257086Y1894502D01*
Y2199998D01*
X2256969Y2200888D01*
X2256981Y2201077D01*
X2256936Y2201306D01*
X2256893Y2201965D01*
X2256809Y2202384D01*
X2256749Y2202563D01*
X2256743Y2202608D01*
X2256690Y2202735D01*
X2256597Y2203010D01*
X2256468Y2203659D01*
X2256175Y2204252D01*
X2255963Y2204877D01*
X2255596Y2205427D01*
X2255303Y2206021D01*
X2254867Y2206517D01*
X2254500Y2207067D01*
X2254003Y2207503D01*
X2253567Y2208000D01*
X2253017Y2208367D01*
X2252521Y2208803D01*
X2251927Y2209095D01*
X2251378Y2209463D01*
X2250752Y2209675D01*
X2250159Y2209968D01*
X2249510Y2210097D01*
X2249235Y2210190D01*
X2249108Y2210243D01*
X2249063Y2210249D01*
X2248884Y2210309D01*
X2248465Y2210392D01*
X2247806Y2210436D01*
X2247577Y2210481D01*
X2247388Y2210469D01*
X2246498Y2210586D01*
X2081502D01*
X2080551Y2210461D01*
X2080379Y2210472D01*
X2080194Y2210436D01*
X2079534Y2210392D01*
X2079071Y2210300D01*
X2078907Y2210245D01*
X2078891Y2210243D01*
X2078849Y2210225D01*
X2078445Y2210088D01*
X2077796Y2209959D01*
X2077203Y2209666D01*
X2076577Y2209454D01*
X2076028Y2209086D01*
X2075644Y2208897D01*
X2075602Y2208880D01*
X2075590Y2208871D01*
X2075435Y2208794D01*
X2075041Y2208531D01*
X2074544Y2208096D01*
X2074388Y2207991D01*
X2074274Y2207861D01*
X2073513Y2207277D01*
X1931933Y2065697D01*
X1930330Y2063608D01*
X1929322Y2061175D01*
X1928978Y2058565D01*
Y1794985D01*
X1929057Y1794387D01*
X1929050Y1793784D01*
X1929228Y1793087D01*
X1929322Y1792375D01*
X1929553Y1791817D01*
X1929702Y1791233D01*
X1930055Y1790606D01*
X1930330Y1789942D01*
X1930697Y1789464D01*
X1930993Y1788938D01*
X1931495Y1788424D01*
X1931933Y1787853D01*
X1932411Y1787486D01*
X1932833Y1787054D01*
X1934103Y1786057D01*
X1934438Y1785858D01*
X1934732Y1785600D01*
X1935252Y1785344D01*
X1935355Y1785265D01*
X1935632Y1785150D01*
X1936368Y1784714D01*
X1936744Y1784608D01*
X1936910Y1784527D01*
X1936910Y1573725D01*
X1936910Y1471901D01*
Y1471438D01*
X1936902Y1471410D01*
X1936888Y1471276D01*
X1936836Y1471151D01*
X1936830Y1471122D01*
X1936766Y1471003D01*
X1936624Y1470543D01*
X1936473Y1470085D01*
X1936474Y1470061D01*
X1936467Y1470038D01*
X1936492Y1469770D01*
X1936317Y1469350D01*
X1935525Y1468500D01*
X1612398D01*
X1611500Y1469398D01*
X1611500Y2233873D01*
X1612770Y2234259D01*
X1613366Y2233366D01*
X1625666Y2221066D01*
X1627333Y2219952D01*
X1628873Y2219646D01*
X1629138Y2219006D01*
X1630948Y2216648D01*
X1633306Y2214838D01*
X1636053Y2213701D01*
X1639000Y2213313D01*
X1641947Y2213701D01*
X1644694Y2214838D01*
X1647052Y2216648D01*
X1648862Y2219006D01*
X1649999Y2221753D01*
X1650387Y2224700D01*
X1649999Y2227647D01*
X1648862Y2230394D01*
X1647052Y2232752D01*
X1644694Y2234562D01*
X1641947Y2235699D01*
X1639000Y2236087D01*
X1636053Y2235699D01*
X1633306Y2234562D01*
X1630948Y2232752D01*
X1630478Y2232139D01*
X1629211Y2232056D01*
X1622139Y2239128D01*
Y2312871D01*
X1676628Y2367361D01*
X1784935D01*
X1785421Y2366188D01*
X1699872Y2280639D01*
X1649092D01*
X1648862Y2281194D01*
X1647052Y2283552D01*
X1644694Y2285362D01*
X1641947Y2286499D01*
X1639000Y2286887D01*
X1636053Y2286499D01*
X1633306Y2285362D01*
X1630948Y2283552D01*
X1629138Y2281194D01*
X1628001Y2278447D01*
X1627613Y2275500D01*
X1628001Y2272553D01*
X1629138Y2269806D01*
X1630948Y2267448D01*
X1633306Y2265638D01*
X1636053Y2264501D01*
X1639000Y2264113D01*
X1641947Y2264501D01*
X1644694Y2265638D01*
X1647052Y2267448D01*
X1648862Y2269806D01*
X1649092Y2270361D01*
X1698935D01*
X1699421Y2269188D01*
X1685471Y2255239D01*
X1649092D01*
X1648862Y2255794D01*
X1647052Y2258152D01*
X1644694Y2259962D01*
X1641947Y2261099D01*
X1639000Y2261487D01*
X1636053Y2261099D01*
X1633306Y2259962D01*
X1630948Y2258152D01*
X1629138Y2255794D01*
X1628001Y2253047D01*
X1627613Y2250100D01*
X1628001Y2247153D01*
X1629138Y2244406D01*
X1630948Y2242048D01*
X1633306Y2240238D01*
X1636053Y2239101D01*
X1639000Y2238713D01*
X1641947Y2239101D01*
X1644694Y2240238D01*
X1647052Y2242048D01*
X1648862Y2244406D01*
X1649092Y2244961D01*
X1687600D01*
X1689566Y2245352D01*
X1691234Y2246466D01*
X1797048Y2352281D01*
X2635615D01*
X2766530Y2221366D01*
X2768197Y2220252D01*
X2768819Y2220129D01*
X2769338Y2219781D01*
X2771500Y2219352D01*
X2773661Y2219781D01*
X2775494Y2221006D01*
X2776719Y2222838D01*
X2777148Y2225000D01*
X2776719Y2227162D01*
X2776331Y2227741D01*
X2776930Y2228861D01*
X2787372D01*
X2794866Y2221366D01*
X2796534Y2220252D01*
X2798500Y2219861D01*
X2800467Y2220252D01*
X2802133Y2221366D01*
X2803248Y2223033D01*
X2803276Y2223176D01*
X2803719Y2223838D01*
X2804149Y2226000D01*
X2803719Y2228162D01*
X2802494Y2229994D01*
X2800662Y2231219D01*
X2799272Y2231495D01*
X2793134Y2237634D01*
X2791466Y2238748D01*
X2789500Y2239139D01*
X2773955D01*
X2646906Y2366188D01*
X2647392Y2367361D01*
X2770000D01*
X2771966Y2367752D01*
X2773633Y2368866D01*
X2866804Y2462037D01*
X2867881Y2461318D01*
X2867283Y2459874D01*
X2866852Y2456600D01*
X2867283Y2453326D01*
X2868546Y2450276D01*
X2870556Y2447656D01*
X2873176Y2445646D01*
X2876227Y2444383D01*
X2879500Y2443952D01*
X2882774Y2444383D01*
X2885824Y2445646D01*
X2888444Y2447656D01*
X2890454Y2450276D01*
X2891717Y2453326D01*
X2892148Y2456600D01*
X2891717Y2459874D01*
X2890454Y2462924D01*
X2888444Y2465544D01*
X2885824Y2467554D01*
X2883268Y2468613D01*
Y2469987D01*
X2885824Y2471046D01*
X2888444Y2473056D01*
X2889600Y2473132D01*
X2910861Y2451871D01*
Y1820378D01*
X2744371Y1653889D01*
X2322531D01*
X2322411Y1653968D01*
X2320250Y1654398D01*
X2318088Y1653968D01*
X2316256Y1652744D01*
X2315031Y1650911D01*
X2314601Y1648750D01*
X2315031Y1646588D01*
X2316256Y1644756D01*
X2318088Y1643531D01*
X2320250Y1643101D01*
X2322411Y1643531D01*
X2322531Y1643611D01*
X2746500D01*
X2748466Y1644002D01*
X2750133Y1645116D01*
X2919633Y1814616D01*
X2920747Y1816283D01*
X2921139Y1818250D01*
Y2454000D01*
X2920747Y2455966D01*
X2919633Y2457633D01*
X2891633Y2485634D01*
X2891543Y2485694D01*
X2890454Y2488324D01*
X2888444Y2490944D01*
X2885824Y2492954D01*
X2883268Y2494013D01*
Y2495387D01*
X2885824Y2496446D01*
X2888444Y2498456D01*
X2890454Y2501076D01*
X2891717Y2504126D01*
X2892148Y2507400D01*
X2891717Y2510674D01*
X2890454Y2513724D01*
X2888444Y2516344D01*
X2885824Y2518354D01*
X2882774Y2519617D01*
X2879500Y2520048D01*
X2876227Y2519617D01*
X2873176Y2518354D01*
X2870556Y2516344D01*
X2868546Y2513724D01*
X2867283Y2510674D01*
X2866852Y2507400D01*
X2867283Y2504126D01*
X2868546Y2501076D01*
X2870556Y2498456D01*
X2873176Y2496446D01*
X2875733Y2495387D01*
Y2494013D01*
X2873176Y2492954D01*
X2870556Y2490944D01*
X2868546Y2488324D01*
X2867283Y2485274D01*
X2866852Y2482000D01*
X2867283Y2478726D01*
X2867774Y2477541D01*
X2767871Y2377639D01*
X2312684D01*
X2312253Y2378909D01*
X2313434Y2379815D01*
X2314656Y2381407D01*
X2315424Y2383261D01*
X2315518Y2383980D01*
X2308000D01*
X2300481D01*
X2300576Y2383261D01*
X2301344Y2381407D01*
X2302565Y2379815D01*
X2303747Y2378909D01*
X2303316Y2377639D01*
X2291167D01*
X2290540Y2378909D01*
X2291475Y2380126D01*
X2292498Y2382598D01*
X2292848Y2385250D01*
X2292498Y2387902D01*
X2291475Y2390374D01*
X2289846Y2392496D01*
X2287724Y2394125D01*
X2285252Y2395148D01*
X2282600Y2395497D01*
X2279948Y2395148D01*
X2277476Y2394125D01*
X2275354Y2392496D01*
X2273725Y2390374D01*
X2272701Y2387902D01*
X2272352Y2385250D01*
X2272701Y2382598D01*
X2273725Y2380126D01*
X2274659Y2378909D01*
X2274033Y2377639D01*
X1674500D01*
X1672533Y2377247D01*
X1670866Y2376134D01*
X1613366Y2318634D01*
X1612770Y2317741D01*
X1611500Y2318126D01*
X1611500Y2681000D01*
X2960602D01*
X2961500Y2680102D01*
D02*
G37*
G36*
X2246072Y2200469D02*
X2246653D01*
X2246917Y2200417D01*
X2246917Y2200417D01*
X2246917Y2200417D01*
X2246969Y2200153D01*
Y2199572D01*
X2247000Y2199337D01*
Y1895163D01*
X2246961Y1894868D01*
Y1894307D01*
X2246908Y1894038D01*
Y1894038D01*
X2246756Y1893811D01*
X2246359Y1893414D01*
X2246177Y1893177D01*
X2121423Y1768423D01*
X2121423Y1768423D01*
X2104712Y1751712D01*
X2104712Y1751712D01*
X2103467Y1750467D01*
X2102956Y1750075D01*
X2102775Y1750000D01*
X2093865D01*
X2018243Y1750000D01*
X2018007Y1750047D01*
X2017874Y1750136D01*
X2017874Y1750136D01*
X2017807Y1750180D01*
X2017270Y1750718D01*
X2017137Y1750917D01*
X2017118Y1751009D01*
X2017118Y1751009D01*
Y1751009D01*
X2017090Y1751153D01*
Y1759059D01*
X2017116Y1759158D01*
X2018278Y1759451D01*
X2018583Y1759390D01*
X2019368Y1758368D01*
X2021457Y1756765D01*
X2023889Y1755757D01*
X2025230Y1755581D01*
Y1768000D01*
Y1780419D01*
X2023889Y1780243D01*
X2021457Y1779235D01*
X2019368Y1777632D01*
X2018583Y1776610D01*
X2018278Y1776549D01*
X2017116Y1776842D01*
X2017090Y1776942D01*
Y1790257D01*
X2017040Y1790507D01*
X2017040Y1790762D01*
X2016993Y1790998D01*
X2016993Y1790998D01*
X2016895Y1791234D01*
X2016893Y1791248D01*
X2016884Y1791261D01*
X2016806Y1791451D01*
X2016715Y1791669D01*
X2016712Y1791684D01*
X2016704Y1791696D01*
X2016606Y1791931D01*
X2016606Y1791932D01*
X2016473Y1792131D01*
X2016293Y1792312D01*
X2016151Y1792524D01*
X2015844Y1792831D01*
X2015003Y1793392D01*
X2014012Y1793590D01*
X1941337D01*
X1941204Y1793655D01*
X1940878Y1793766D01*
X1940775Y1793827D01*
X1940258Y1794048D01*
X1939114Y1794946D01*
X1939072Y1794989D01*
X1939065Y1795049D01*
Y2057903D01*
X1939147Y2058530D01*
X1939532Y2059032D01*
X2080177Y2199677D01*
X2080414Y2199859D01*
X2080811Y2200256D01*
X2081038Y2200408D01*
X2081038Y2200408D01*
X2081038Y2200408D01*
X2081038Y2200408D01*
X2081039Y2200408D01*
X2081039Y2200408D01*
X2081039D01*
X2081307Y2200461D01*
X2081868D01*
X2082163Y2200500D01*
X2245837D01*
X2246072Y2200469D01*
D02*
G37*
G36*
X2014320Y1790692D02*
X2014453Y1790493D01*
X2014500Y1790257D01*
Y1776749D01*
X2014517Y1776665D01*
X2014505Y1776580D01*
X2014615Y1776172D01*
X2014697Y1775758D01*
X2014745Y1775687D01*
X2014767Y1775604D01*
X2014945Y1775372D01*
X2014283Y1773774D01*
X2013852Y1770500D01*
Y1765500D01*
X2014283Y1762226D01*
X2014945Y1760628D01*
X2014767Y1760396D01*
X2014745Y1760313D01*
X2014697Y1760242D01*
X2014615Y1759828D01*
X2014505Y1759420D01*
X2014517Y1759335D01*
X2014500Y1759251D01*
Y1750898D01*
Y1750898D01*
Y1750898D01*
X2014578Y1750504D01*
X2014697Y1749907D01*
X2014697Y1749907D01*
Y1749907D01*
X2014980Y1749484D01*
X2015258Y1749067D01*
X2015259D01*
Y1749067D01*
X2016157Y1748169D01*
X2016435Y1747982D01*
X2016997Y1747607D01*
X2017988Y1747410D01*
X2098270Y1747410D01*
X2098948Y1746140D01*
X2098783Y1745893D01*
X2098783Y1745893D01*
X2098297Y1744720D01*
X2098297Y1744720D01*
X2098165Y1744057D01*
X2098100Y1743729D01*
Y1743729D01*
Y1743729D01*
X2098165Y1743400D01*
X2098297Y1742738D01*
X2098858Y1741897D01*
X2098859D01*
Y1741897D01*
X2103320Y1737436D01*
X2103453Y1737237D01*
X2103500Y1737001D01*
X2103500Y1477116D01*
Y1472449D01*
X2103493Y1472413D01*
Y1472195D01*
X2103444Y1471983D01*
X2103443Y1471945D01*
X2103416Y1471828D01*
X2103408Y1471548D01*
X2103351Y1471274D01*
X2103393Y1471048D01*
X2103387Y1470818D01*
X2103486Y1470556D01*
X2103538Y1470281D01*
X2103744Y1469770D01*
X2103497Y1469111D01*
X2103145Y1468500D01*
X1939395D01*
X1939043Y1469770D01*
X1939188Y1470037D01*
X1939228Y1470166D01*
X1939303Y1470279D01*
X1939376Y1470645D01*
X1939486Y1471002D01*
X1939474Y1471137D01*
X1939500Y1471270D01*
Y1471270D01*
Y1471901D01*
X1939500Y1573725D01*
X1939500Y1789730D01*
X1940337Y1790865D01*
X1940655Y1791000D01*
X2014012D01*
X2014320Y1790692D01*
D02*
G37*
%LPC*%
G36*
X2071862Y1599730D02*
X2060322D01*
Y1585183D01*
X2062367Y1585452D01*
X2065457Y1586732D01*
X2068110Y1588767D01*
X2070145Y1591420D01*
X2071425Y1594510D01*
X2071862Y1597825D01*
Y1599730D01*
D02*
G37*
G36*
X2399258Y1599730D02*
X2387718D01*
Y1585183D01*
X2389763Y1585452D01*
X2392853Y1586732D01*
X2395506Y1588767D01*
X2397541Y1591420D01*
X2398821Y1594510D01*
X2399258Y1597825D01*
Y1599730D01*
D02*
G37*
G36*
X2001758Y1599730D02*
X1990218D01*
Y1585183D01*
X1992263Y1585452D01*
X1995353Y1586732D01*
X1998006Y1588767D01*
X2000041Y1591420D01*
X2001321Y1594510D01*
X2001758Y1597825D01*
Y1599730D01*
D02*
G37*
G36*
X2057782D02*
X2046242D01*
Y1597825D01*
X2046679Y1594510D01*
X2047959Y1591420D01*
X2049994Y1588767D01*
X2052647Y1586732D01*
X2055737Y1585452D01*
X2057782Y1585183D01*
Y1599730D01*
D02*
G37*
G36*
X1877770Y1610972D02*
Y1592270D01*
X1896472D01*
X1896211Y1594921D01*
X1895067Y1598691D01*
X1893210Y1602165D01*
X1890711Y1605211D01*
X1887665Y1607710D01*
X1884191Y1609567D01*
X1880421Y1610711D01*
X1877770Y1610972D01*
D02*
G37*
G36*
X2707730D02*
X2705079Y1610711D01*
X2701309Y1609567D01*
X2697835Y1607710D01*
X2694789Y1605211D01*
X2692290Y1602165D01*
X2690433Y1598691D01*
X2689290Y1594921D01*
X2689028Y1592270D01*
X2707730D01*
Y1610972D01*
D02*
G37*
G36*
X1875230D02*
X1872579Y1610711D01*
X1868809Y1609567D01*
X1865335Y1607710D01*
X1862289Y1605211D01*
X1859790Y1602165D01*
X1857933Y1598691D01*
X1856789Y1594921D01*
X1856528Y1592270D01*
X1875230D01*
Y1610972D01*
D02*
G37*
G36*
X2469362Y1599730D02*
X2457822D01*
Y1585183D01*
X2459867Y1585452D01*
X2462957Y1586732D01*
X2465610Y1588767D01*
X2467645Y1591420D01*
X2468925Y1594510D01*
X2469362Y1597825D01*
Y1599730D01*
D02*
G37*
G36*
X2710270Y1610972D02*
Y1592270D01*
X2728972D01*
X2728711Y1594921D01*
X2727567Y1598691D01*
X2725710Y1602165D01*
X2723210Y1605211D01*
X2720165Y1607710D01*
X2716691Y1609567D01*
X2712921Y1610711D01*
X2710270Y1610972D01*
D02*
G37*
G36*
X1896472Y1589730D02*
X1877770D01*
Y1571028D01*
X1880421Y1571289D01*
X1884191Y1572433D01*
X1887665Y1574290D01*
X1890711Y1576789D01*
X1893210Y1579835D01*
X1895067Y1583309D01*
X1896211Y1587079D01*
X1896472Y1589730D01*
D02*
G37*
G36*
X2707730D02*
X2689028D01*
X2689290Y1587079D01*
X2690433Y1583309D01*
X2692290Y1579835D01*
X2694789Y1576789D01*
X2697835Y1574290D01*
X2701309Y1572433D01*
X2705079Y1571289D01*
X2707730Y1571028D01*
Y1589730D01*
D02*
G37*
G36*
X2156500Y1654648D02*
X2154338Y1654218D01*
X2152506Y1652994D01*
X2151281Y1651162D01*
X2150851Y1649000D01*
X2151281Y1646838D01*
X2152506Y1645006D01*
X2154338Y1643781D01*
X2156500Y1643351D01*
X2156629Y1643377D01*
X2232753Y1567253D01*
X2234013Y1566411D01*
X2235500Y1566115D01*
X2327433D01*
X2327506Y1566006D01*
X2329338Y1564781D01*
X2331500Y1564352D01*
X2333662Y1564781D01*
X2335494Y1566006D01*
X2336718Y1567838D01*
X2337148Y1570000D01*
X2336718Y1572162D01*
X2335494Y1573994D01*
X2333662Y1575219D01*
X2331500Y1575648D01*
X2329338Y1575219D01*
X2327506Y1573994D01*
X2327433Y1573885D01*
X2237109D01*
X2162123Y1648871D01*
X2162149Y1649000D01*
X2161719Y1651162D01*
X2160494Y1652994D01*
X2158662Y1654218D01*
X2156500Y1654648D01*
D02*
G37*
G36*
X1875230Y1589730D02*
X1856528D01*
X1856789Y1587079D01*
X1857933Y1583309D01*
X1859790Y1579835D01*
X1862289Y1576789D01*
X1865335Y1574290D01*
X1868809Y1572433D01*
X1872579Y1571289D01*
X1875230Y1571028D01*
Y1589730D01*
D02*
G37*
G36*
X2728972D02*
X2710270D01*
Y1571028D01*
X2712921Y1571289D01*
X2716691Y1572433D01*
X2720165Y1574290D01*
X2723210Y1576789D01*
X2725710Y1579835D01*
X2727567Y1583309D01*
X2728711Y1587079D01*
X2728972Y1589730D01*
D02*
G37*
G36*
X2455282Y1599730D02*
X2443742D01*
Y1597825D01*
X2444179Y1594510D01*
X2445459Y1591420D01*
X2447494Y1588767D01*
X2450147Y1586732D01*
X2453237Y1585452D01*
X2455282Y1585183D01*
Y1599730D01*
D02*
G37*
G36*
X1987678Y1599730D02*
X1976138D01*
Y1597825D01*
X1976575Y1594510D01*
X1977855Y1591420D01*
X1979890Y1588767D01*
X1982543Y1586732D01*
X1985633Y1585452D01*
X1987678Y1585183D01*
Y1599730D01*
D02*
G37*
G36*
X1639000Y1601087D02*
X1636053Y1600699D01*
X1633306Y1599562D01*
X1630948Y1597752D01*
X1629138Y1595394D01*
X1628001Y1592647D01*
X1627613Y1589700D01*
X1628001Y1586753D01*
X1629138Y1584006D01*
X1630948Y1581648D01*
X1633306Y1579838D01*
X1636053Y1578701D01*
X1639000Y1578313D01*
X1641947Y1578701D01*
X1644694Y1579838D01*
X1647052Y1581648D01*
X1648862Y1584006D01*
X1649999Y1586753D01*
X1650387Y1589700D01*
X1649999Y1592647D01*
X1648862Y1595394D01*
X1647052Y1597752D01*
X1644694Y1599562D01*
X1641947Y1600699D01*
X1639000Y1601087D01*
D02*
G37*
G36*
X2385178Y1599730D02*
X2373638D01*
Y1597825D01*
X2374075Y1594510D01*
X2375355Y1591420D01*
X2377390Y1588767D01*
X2380043Y1586732D01*
X2383133Y1585452D01*
X2385178Y1585183D01*
Y1599730D01*
D02*
G37*
G36*
Y1616817D02*
X2383133Y1616548D01*
X2380043Y1615268D01*
X2377390Y1613233D01*
X2375355Y1610580D01*
X2374075Y1607490D01*
X2373638Y1604175D01*
Y1602270D01*
X2385178D01*
Y1616817D01*
D02*
G37*
G36*
X1647658Y1639230D02*
X1640270D01*
Y1631842D01*
X1641284Y1631975D01*
X1643413Y1632857D01*
X1645241Y1634259D01*
X1646643Y1636087D01*
X1647525Y1638216D01*
X1647658Y1639230D01*
D02*
G37*
G36*
X1637730Y1649158D02*
X1636716Y1649025D01*
X1634587Y1648143D01*
X1632759Y1646741D01*
X1631357Y1644913D01*
X1630475Y1642784D01*
X1630342Y1641770D01*
X1637730D01*
Y1649158D01*
D02*
G37*
G36*
X1730500Y1647648D02*
X1728338Y1647218D01*
X1726506Y1645994D01*
X1725281Y1644162D01*
X1724852Y1642000D01*
X1724944Y1641535D01*
X1724913Y1641488D01*
X1724617Y1640002D01*
Y1604066D01*
X1724507Y1603993D01*
X1723283Y1602161D01*
X1722853Y1599999D01*
X1723283Y1597838D01*
X1724507Y1596005D01*
X1726340Y1594781D01*
X1728502Y1594351D01*
X1730663Y1594781D01*
X1732496Y1596005D01*
X1733720Y1597838D01*
X1734150Y1599999D01*
X1734124Y1600128D01*
X1740112Y1606115D01*
X1746433D01*
X1746506Y1606006D01*
X1748338Y1604781D01*
X1750500Y1604352D01*
X1752662Y1604781D01*
X1754494Y1606006D01*
X1755719Y1607838D01*
X1756149Y1610000D01*
X1755719Y1612162D01*
X1754494Y1613994D01*
X1752662Y1615219D01*
X1750500Y1615648D01*
X1748338Y1615219D01*
X1746506Y1613994D01*
X1746433Y1613885D01*
X1738503D01*
X1737016Y1613589D01*
X1735756Y1612747D01*
X1733560Y1610551D01*
X1732386Y1611037D01*
Y1636727D01*
X1732662Y1636781D01*
X1734494Y1638006D01*
X1735719Y1639838D01*
X1736149Y1642000D01*
X1735719Y1644162D01*
X1734494Y1645994D01*
X1732662Y1647218D01*
X1730500Y1647648D01*
D02*
G37*
G36*
X1637730Y1639230D02*
X1630342D01*
X1630475Y1638216D01*
X1631357Y1636087D01*
X1632759Y1634259D01*
X1634587Y1632857D01*
X1636716Y1631975D01*
X1637730Y1631842D01*
Y1639230D01*
D02*
G37*
G36*
X1640270Y1649158D02*
Y1641770D01*
X1647658D01*
X1647525Y1642784D01*
X1646643Y1644913D01*
X1645241Y1646741D01*
X1643413Y1648143D01*
X1641284Y1649025D01*
X1640270Y1649158D01*
D02*
G37*
G36*
X1904500Y1713649D02*
X1902338Y1713219D01*
X1900506Y1711994D01*
X1900433Y1711885D01*
X1852567D01*
X1852494Y1711994D01*
X1850662Y1713219D01*
X1848500Y1713649D01*
X1846338Y1713219D01*
X1844506Y1711994D01*
X1843281Y1710162D01*
X1842852Y1708000D01*
X1843281Y1705838D01*
X1844506Y1704006D01*
X1846338Y1702781D01*
X1848500Y1702352D01*
X1850662Y1702781D01*
X1852494Y1704006D01*
X1852567Y1704115D01*
X1900433D01*
X1900506Y1704006D01*
X1902338Y1702781D01*
X1904500Y1702352D01*
X1906662Y1702781D01*
X1908494Y1704006D01*
X1909719Y1705838D01*
X1910148Y1708000D01*
X1909719Y1710162D01*
X1908494Y1711994D01*
X1906662Y1713219D01*
X1904500Y1713649D01*
D02*
G37*
G36*
X1865400Y1771544D02*
X1861177Y1771128D01*
X1857117Y1769897D01*
X1853375Y1767897D01*
X1850095Y1765205D01*
X1847404Y1761925D01*
X1845403Y1758183D01*
X1844172Y1754123D01*
X1843756Y1749900D01*
X1844172Y1745677D01*
X1845403Y1741617D01*
X1847404Y1737875D01*
X1850095Y1734595D01*
X1853375Y1731904D01*
X1857117Y1729903D01*
X1861177Y1728672D01*
X1865400Y1728256D01*
X1869623Y1728672D01*
X1873683Y1729903D01*
X1877425Y1731904D01*
X1880705Y1734595D01*
X1883396Y1737875D01*
X1885397Y1741617D01*
X1886628Y1745677D01*
X1887044Y1749900D01*
X1886628Y1754123D01*
X1885397Y1758183D01*
X1883396Y1761925D01*
X1880705Y1765205D01*
X1877425Y1767897D01*
X1873683Y1769897D01*
X1869623Y1771128D01*
X1865400Y1771544D01*
D02*
G37*
G36*
X1639000Y1677287D02*
X1636053Y1676899D01*
X1633306Y1675762D01*
X1630948Y1673952D01*
X1629138Y1671594D01*
X1628001Y1668847D01*
X1627613Y1665900D01*
X1628001Y1662953D01*
X1629138Y1660206D01*
X1630948Y1657848D01*
X1633306Y1656038D01*
X1636053Y1654901D01*
X1639000Y1654513D01*
X1641947Y1654901D01*
X1644694Y1656038D01*
X1647052Y1657848D01*
X1648862Y1660206D01*
X1649611Y1662015D01*
X1684500D01*
X1684506Y1662006D01*
X1686338Y1660781D01*
X1688500Y1660352D01*
X1690662Y1660781D01*
X1692494Y1662006D01*
X1693719Y1663838D01*
X1694149Y1666000D01*
X1693719Y1668162D01*
X1692494Y1669994D01*
X1690662Y1671219D01*
X1688500Y1671649D01*
X1686338Y1671219D01*
X1684506Y1669994D01*
X1684366Y1669785D01*
X1649611D01*
X1648862Y1671594D01*
X1647052Y1673952D01*
X1644694Y1675762D01*
X1641947Y1676899D01*
X1639000Y1677287D01*
D02*
G37*
G36*
X1783501Y1709647D02*
X1781340Y1709218D01*
X1779507Y1707993D01*
X1778283Y1706160D01*
X1778149Y1705487D01*
X1776854D01*
X1776720Y1706160D01*
X1775496Y1707993D01*
X1773663Y1709218D01*
X1771501Y1709647D01*
X1769340Y1709218D01*
X1767507Y1707993D01*
X1766283Y1706160D01*
X1765853Y1703999D01*
X1766283Y1701837D01*
X1767507Y1700005D01*
X1769340Y1698780D01*
X1771501Y1698350D01*
X1771631Y1698376D01*
X1804076Y1665931D01*
X1805336Y1665089D01*
X1806823Y1664793D01*
X1895433D01*
X1895506Y1664684D01*
X1897338Y1663459D01*
X1899500Y1663029D01*
X1901662Y1663459D01*
X1903494Y1664684D01*
X1904718Y1666516D01*
X1905148Y1668678D01*
X1904718Y1670840D01*
X1903494Y1672672D01*
Y1673224D01*
X1904718Y1675056D01*
X1905148Y1677218D01*
X1904718Y1679379D01*
X1903494Y1681212D01*
X1901662Y1682437D01*
X1899500Y1682866D01*
X1897338Y1682437D01*
X1895506Y1681212D01*
X1895433Y1681103D01*
X1812277D01*
X1789093Y1704287D01*
X1788720Y1706160D01*
X1787496Y1707993D01*
X1785663Y1709218D01*
X1783501Y1709647D01*
D02*
G37*
G36*
X2457822Y1616817D02*
Y1602270D01*
X2469362D01*
Y1604175D01*
X2468925Y1607490D01*
X2467645Y1610580D01*
X2465610Y1613233D01*
X2462957Y1615268D01*
X2459867Y1616548D01*
X2457822Y1616817D01*
D02*
G37*
G36*
X1987678Y1616817D02*
X1985633Y1616548D01*
X1982543Y1615268D01*
X1979890Y1613233D01*
X1977855Y1610580D01*
X1976575Y1607490D01*
X1976138Y1604175D01*
Y1602270D01*
X1987678D01*
Y1616817D01*
D02*
G37*
G36*
X2455282D02*
X2453237Y1616548D01*
X2450147Y1615268D01*
X2447494Y1613233D01*
X2445459Y1610580D01*
X2444179Y1607490D01*
X2443742Y1604175D01*
Y1602270D01*
X2455282D01*
Y1616817D01*
D02*
G37*
G36*
X2387718Y1616817D02*
Y1602270D01*
X2399258D01*
Y1604175D01*
X2398821Y1607490D01*
X2397541Y1610580D01*
X2395506Y1613233D01*
X2392853Y1615268D01*
X2389763Y1616548D01*
X2387718Y1616817D01*
D02*
G37*
G36*
X2057782Y1616817D02*
X2055737Y1616548D01*
X2052647Y1615268D01*
X2049994Y1613233D01*
X2047959Y1610580D01*
X2046679Y1607490D01*
X2046242Y1604175D01*
Y1602270D01*
X2057782D01*
Y1616817D01*
D02*
G37*
G36*
X1773500Y1644648D02*
X1771338Y1644219D01*
X1769506Y1642994D01*
X1768282Y1641162D01*
X1767852Y1639000D01*
X1767877Y1638871D01*
X1767753Y1638747D01*
X1766911Y1637487D01*
X1766615Y1636000D01*
Y1604067D01*
X1766506Y1603994D01*
X1765281Y1602162D01*
X1764852Y1600000D01*
X1765281Y1597838D01*
X1766506Y1596006D01*
X1768338Y1594781D01*
X1770500Y1594352D01*
X1772662Y1594781D01*
X1774494Y1596006D01*
X1775719Y1597838D01*
X1776149Y1600000D01*
X1776116Y1600166D01*
X1776247Y1600253D01*
X1781109Y1605115D01*
X1791802D01*
X1791875Y1605006D01*
X1793708Y1603781D01*
X1795869Y1603351D01*
X1798031Y1603781D01*
X1799863Y1605006D01*
X1801088Y1606838D01*
X1801518Y1609000D01*
X1801088Y1611162D01*
X1799863Y1612994D01*
X1798031Y1614218D01*
X1795869Y1614648D01*
X1793708Y1614218D01*
X1791875Y1612994D01*
X1791802Y1612885D01*
X1779500D01*
X1778013Y1612589D01*
X1776753Y1611747D01*
X1775558Y1610552D01*
X1774385Y1611038D01*
Y1633527D01*
X1775662Y1633781D01*
X1777494Y1635006D01*
X1778719Y1636838D01*
X1779149Y1639000D01*
X1778719Y1641162D01*
X1777494Y1642994D01*
X1775662Y1644219D01*
X1773500Y1644648D01*
D02*
G37*
G36*
X1639000Y1626487D02*
X1636053Y1626099D01*
X1633306Y1624962D01*
X1630948Y1623152D01*
X1629138Y1620794D01*
X1628001Y1618047D01*
X1627613Y1615100D01*
X1628001Y1612153D01*
X1629138Y1609406D01*
X1630948Y1607048D01*
X1633306Y1605238D01*
X1636053Y1604101D01*
X1639000Y1603713D01*
X1641947Y1604101D01*
X1644694Y1605238D01*
X1647052Y1607048D01*
X1648862Y1609406D01*
X1649999Y1612153D01*
X1650387Y1615100D01*
X1649999Y1618047D01*
X1648862Y1620794D01*
X1647052Y1623152D01*
X1644694Y1624962D01*
X1641947Y1626099D01*
X1639000Y1626487D01*
D02*
G37*
G36*
X1990218Y1616817D02*
Y1602270D01*
X2001758D01*
Y1604175D01*
X2001321Y1607490D01*
X2000041Y1610580D01*
X1998006Y1613233D01*
X1995353Y1615268D01*
X1992263Y1616548D01*
X1990218Y1616817D01*
D02*
G37*
G36*
X2060322D02*
Y1602270D01*
X2071862D01*
Y1604175D01*
X2071425Y1607490D01*
X2070145Y1610580D01*
X2068110Y1613233D01*
X2065457Y1615268D01*
X2062367Y1616548D01*
X2060322Y1616817D01*
D02*
G37*
G36*
X2385178Y1516817D02*
X2383133Y1516548D01*
X2380043Y1515268D01*
X2377390Y1513233D01*
X2375355Y1510580D01*
X2374075Y1507490D01*
X2373638Y1504175D01*
Y1502270D01*
X2385178D01*
Y1516817D01*
D02*
G37*
G36*
X2455282D02*
X2453237Y1516548D01*
X2450147Y1515268D01*
X2447494Y1513233D01*
X2445459Y1510580D01*
X2444179Y1507490D01*
X2443742Y1504175D01*
Y1502270D01*
X2455282D01*
Y1516817D01*
D02*
G37*
G36*
X2212938Y1519240D02*
X2182458D01*
Y1488760D01*
X2212938D01*
Y1519240D01*
D02*
G37*
G36*
X1647658Y1537630D02*
X1639000D01*
X1630342D01*
X1630475Y1536616D01*
X1631357Y1534487D01*
X1632759Y1532659D01*
X1633019Y1532460D01*
X1632792Y1531210D01*
X1631790Y1530907D01*
X1628533Y1529165D01*
X1625678Y1526822D01*
X1623335Y1523967D01*
X1621593Y1520710D01*
X1620521Y1517176D01*
X1620159Y1513500D01*
X1620521Y1509824D01*
X1621593Y1506290D01*
X1623335Y1503033D01*
X1625678Y1500178D01*
X1628533Y1497834D01*
X1631790Y1496093D01*
X1635324Y1495021D01*
X1639000Y1494659D01*
X1642676Y1495021D01*
X1646210Y1496093D01*
X1649467Y1497834D01*
X1652322Y1500178D01*
X1654666Y1503033D01*
X1656407Y1506290D01*
X1657479Y1509824D01*
X1657841Y1513500D01*
X1657479Y1517176D01*
X1656407Y1520710D01*
X1654666Y1523967D01*
X1652322Y1526822D01*
X1649467Y1529165D01*
X1646210Y1530907D01*
X1645208Y1531210D01*
X1644981Y1532460D01*
X1645241Y1532659D01*
X1646643Y1534487D01*
X1647525Y1536616D01*
X1647658Y1537630D01*
D02*
G37*
G36*
X2387718Y1516817D02*
Y1502270D01*
X2399258D01*
Y1504175D01*
X2398821Y1507490D01*
X2397541Y1510580D01*
X2395506Y1513233D01*
X2392853Y1515268D01*
X2389763Y1516548D01*
X2387718Y1516817D01*
D02*
G37*
G36*
X2057782Y1516817D02*
X2055737Y1516548D01*
X2052647Y1515268D01*
X2049994Y1513233D01*
X2047959Y1510580D01*
X2046679Y1507490D01*
X2046242Y1504175D01*
Y1502270D01*
X2057782D01*
Y1516817D01*
D02*
G37*
G36*
X1990218Y1516817D02*
Y1502270D01*
X2001758D01*
Y1504175D01*
X2001321Y1507490D01*
X2000041Y1510580D01*
X1998006Y1513233D01*
X1995353Y1515268D01*
X1992263Y1516548D01*
X1990218Y1516817D01*
D02*
G37*
G36*
X2457822D02*
Y1502270D01*
X2469362D01*
Y1504175D01*
X2468925Y1507490D01*
X2467645Y1510580D01*
X2465610Y1513233D01*
X2462957Y1515268D01*
X2459867Y1516548D01*
X2457822Y1516817D01*
D02*
G37*
G36*
X1987678Y1516817D02*
X1985633Y1516548D01*
X1982543Y1515268D01*
X1979890Y1513233D01*
X1977855Y1510580D01*
X1976575Y1507490D01*
X1976138Y1504175D01*
Y1502270D01*
X1987678D01*
Y1516817D01*
D02*
G37*
G36*
X2248498Y1519314D02*
X2245510Y1519019D01*
X2242638Y1518148D01*
X2239990Y1516733D01*
X2237670Y1514828D01*
X2235765Y1512508D01*
X2234350Y1509860D01*
X2233479Y1506988D01*
X2233184Y1504000D01*
X2233479Y1501012D01*
X2234350Y1498140D01*
X2235765Y1495492D01*
X2237670Y1493172D01*
X2239990Y1491267D01*
X2242638Y1489852D01*
X2245510Y1488981D01*
X2248498Y1488686D01*
X2251485Y1488981D01*
X2254358Y1489852D01*
X2257006Y1491267D01*
X2259326Y1493172D01*
X2261231Y1495492D01*
X2262646Y1498140D01*
X2263517Y1501012D01*
X2263812Y1504000D01*
X2263517Y1506988D01*
X2262646Y1509860D01*
X2261231Y1512508D01*
X2259326Y1514828D01*
X2257006Y1516733D01*
X2254358Y1518148D01*
X2251485Y1519019D01*
X2248498Y1519314D01*
D02*
G37*
G36*
X2455282Y1499730D02*
X2443742D01*
Y1497825D01*
X2444179Y1494510D01*
X2445459Y1491420D01*
X2447494Y1488767D01*
X2450147Y1486732D01*
X2453237Y1485452D01*
X2455282Y1485183D01*
Y1499730D01*
D02*
G37*
G36*
X1987678Y1499730D02*
X1976138D01*
Y1497825D01*
X1976575Y1494510D01*
X1977855Y1491420D01*
X1979890Y1488767D01*
X1982543Y1486732D01*
X1985633Y1485452D01*
X1987678Y1485183D01*
Y1499730D01*
D02*
G37*
G36*
X2856500Y1542641D02*
X2851394Y1542239D01*
X2846413Y1541043D01*
X2841682Y1539083D01*
X2837314Y1536407D01*
X2833419Y1533080D01*
X2830093Y1529185D01*
X2827417Y1524818D01*
X2825457Y1520086D01*
X2824261Y1515106D01*
X2823859Y1510000D01*
X2824261Y1504894D01*
X2825457Y1499913D01*
X2827417Y1495181D01*
X2830093Y1490814D01*
X2833419Y1486920D01*
X2837314Y1483593D01*
X2841682Y1480917D01*
X2846413Y1478957D01*
X2851394Y1477761D01*
X2856500Y1477359D01*
X2861606Y1477761D01*
X2866586Y1478957D01*
X2871318Y1480917D01*
X2875685Y1483593D01*
X2879580Y1486920D01*
X2882907Y1490814D01*
X2885583Y1495181D01*
X2887543Y1499913D01*
X2888739Y1504894D01*
X2889141Y1510000D01*
X2888739Y1515106D01*
X2887543Y1520086D01*
X2885583Y1524818D01*
X2882907Y1529185D01*
X2879580Y1533080D01*
X2875685Y1536407D01*
X2871318Y1539083D01*
X2866586Y1541043D01*
X2861606Y1542239D01*
X2856500Y1542641D01*
D02*
G37*
G36*
X2385178Y1499730D02*
X2373638D01*
Y1497825D01*
X2374075Y1494510D01*
X2375355Y1491420D01*
X2377390Y1488767D01*
X2380043Y1486732D01*
X2383133Y1485452D01*
X2385178Y1485183D01*
Y1499730D01*
D02*
G37*
G36*
X2057782Y1499730D02*
X2046242D01*
Y1497825D01*
X2046679Y1494510D01*
X2047959Y1491420D01*
X2049994Y1488767D01*
X2052647Y1486732D01*
X2055737Y1485452D01*
X2057782Y1485183D01*
Y1499730D01*
D02*
G37*
G36*
X2399258Y1499730D02*
X2387718D01*
Y1485183D01*
X2389763Y1485452D01*
X2392853Y1486732D01*
X2395506Y1488767D01*
X2397541Y1491420D01*
X2398821Y1494510D01*
X2399258Y1497825D01*
Y1499730D01*
D02*
G37*
G36*
X2469362D02*
X2457822D01*
Y1485183D01*
X2459867Y1485452D01*
X2462957Y1486732D01*
X2465610Y1488767D01*
X2467645Y1491420D01*
X2468925Y1494510D01*
X2469362Y1497825D01*
Y1499730D01*
D02*
G37*
G36*
X2001758Y1499730D02*
X1990218D01*
Y1485183D01*
X1992263Y1485452D01*
X1995353Y1486732D01*
X1998006Y1488767D01*
X2000041Y1491420D01*
X2001321Y1494510D01*
X2001758Y1497825D01*
Y1499730D01*
D02*
G37*
G36*
X2071862D02*
X2060322D01*
Y1485183D01*
X2062367Y1485452D01*
X2065457Y1486732D01*
X2068110Y1488767D01*
X2070145Y1491420D01*
X2071425Y1494510D01*
X2071862Y1497825D01*
Y1499730D01*
D02*
G37*
G36*
X2060322Y1516817D02*
Y1502270D01*
X2071862D01*
Y1504175D01*
X2071425Y1507490D01*
X2070145Y1510580D01*
X2068110Y1513233D01*
X2065457Y1515268D01*
X2062367Y1516548D01*
X2060322Y1516817D01*
D02*
G37*
G36*
X2387718Y1566817D02*
Y1552270D01*
X2399258D01*
Y1554175D01*
X2398821Y1557490D01*
X2397541Y1560580D01*
X2395506Y1563233D01*
X2392853Y1565268D01*
X2389763Y1566548D01*
X2387718Y1566817D01*
D02*
G37*
G36*
X2457822D02*
Y1552270D01*
X2469362D01*
Y1554175D01*
X2468925Y1557490D01*
X2467645Y1560580D01*
X2465610Y1563233D01*
X2462957Y1565268D01*
X2459867Y1566548D01*
X2457822Y1566817D01*
D02*
G37*
G36*
X2385178Y1566817D02*
X2383133Y1566548D01*
X2380043Y1565268D01*
X2377390Y1563233D01*
X2375355Y1560580D01*
X2374075Y1557490D01*
X2373638Y1554175D01*
Y1552270D01*
X2385178D01*
Y1566817D01*
D02*
G37*
G36*
X2455282D02*
X2453237Y1566548D01*
X2450147Y1565268D01*
X2447494Y1563233D01*
X2445459Y1560580D01*
X2444179Y1557490D01*
X2443742Y1554175D01*
Y1552270D01*
X2455282D01*
Y1566817D01*
D02*
G37*
G36*
X1987678D02*
X1985633Y1566548D01*
X1982543Y1565268D01*
X1979890Y1563233D01*
X1977855Y1560580D01*
X1976575Y1557490D01*
X1976138Y1554175D01*
Y1552270D01*
X1987678D01*
Y1566817D01*
D02*
G37*
G36*
X2060322Y1566817D02*
Y1552270D01*
X2071862D01*
Y1554175D01*
X2071425Y1557490D01*
X2070145Y1560580D01*
X2068110Y1563233D01*
X2065457Y1565268D01*
X2062367Y1566548D01*
X2060322Y1566817D01*
D02*
G37*
G36*
X1639000Y1575687D02*
X1636053Y1575299D01*
X1633306Y1574162D01*
X1630948Y1572352D01*
X1629138Y1569994D01*
X1628001Y1567247D01*
X1627613Y1564300D01*
X1628001Y1561353D01*
X1629138Y1558606D01*
X1630948Y1556248D01*
X1633306Y1554438D01*
X1636053Y1553301D01*
X1639000Y1552913D01*
X1641947Y1553301D01*
X1644694Y1554438D01*
X1647052Y1556248D01*
X1648862Y1558606D01*
X1649999Y1561353D01*
X1650387Y1564300D01*
X1649999Y1567247D01*
X1648862Y1569994D01*
X1647052Y1572352D01*
X1644694Y1574162D01*
X1641947Y1575299D01*
X1639000Y1575687D01*
D02*
G37*
G36*
X2057782Y1566817D02*
X2055737Y1566548D01*
X2052647Y1565268D01*
X2049994Y1563233D01*
X2047959Y1560580D01*
X2046679Y1557490D01*
X2046242Y1554175D01*
Y1552270D01*
X2057782D01*
Y1566817D01*
D02*
G37*
G36*
X1990218Y1566817D02*
Y1552270D01*
X2001758D01*
Y1554175D01*
X2001321Y1557490D01*
X2000041Y1560580D01*
X1998006Y1563233D01*
X1995353Y1565268D01*
X1992263Y1566548D01*
X1990218Y1566817D01*
D02*
G37*
G36*
X1640270Y1547558D02*
Y1540170D01*
X1647658D01*
X1647525Y1541184D01*
X1646643Y1543313D01*
X1645241Y1545141D01*
X1643413Y1546543D01*
X1641284Y1547425D01*
X1640270Y1547558D01*
D02*
G37*
G36*
X1987678Y1549730D02*
X1976138D01*
Y1547825D01*
X1976575Y1544510D01*
X1977855Y1541420D01*
X1979890Y1538767D01*
X1982543Y1536732D01*
X1985633Y1535452D01*
X1987678Y1535183D01*
Y1549730D01*
D02*
G37*
G36*
X2057782D02*
X2046242D01*
Y1547825D01*
X2046679Y1544510D01*
X2047959Y1541420D01*
X2049994Y1538767D01*
X2052647Y1536732D01*
X2055737Y1535452D01*
X2057782Y1535183D01*
Y1549730D01*
D02*
G37*
G36*
X2385178Y1549730D02*
X2373638D01*
Y1547825D01*
X2374075Y1544510D01*
X2375355Y1541420D01*
X2377390Y1538767D01*
X2380043Y1536732D01*
X2383133Y1535452D01*
X2385178Y1535183D01*
Y1549730D01*
D02*
G37*
G36*
X2455282D02*
X2443742D01*
Y1547825D01*
X2444179Y1544510D01*
X2445459Y1541420D01*
X2447494Y1538767D01*
X2450147Y1536732D01*
X2453237Y1535452D01*
X2455282Y1535183D01*
Y1549730D01*
D02*
G37*
G36*
X2001758Y1549730D02*
X1990218D01*
Y1535183D01*
X1992263Y1535452D01*
X1995353Y1536732D01*
X1998006Y1538767D01*
X2000041Y1541420D01*
X2001321Y1544510D01*
X2001758Y1547825D01*
Y1549730D01*
D02*
G37*
G36*
X2469362Y1549730D02*
X2457822D01*
Y1535183D01*
X2459867Y1535452D01*
X2462957Y1536732D01*
X2465610Y1538767D01*
X2467645Y1541420D01*
X2468925Y1544510D01*
X2469362Y1547825D01*
Y1549730D01*
D02*
G37*
G36*
X1637730Y1547558D02*
X1636716Y1547425D01*
X1634587Y1546543D01*
X1632759Y1545141D01*
X1631357Y1543313D01*
X1630475Y1541184D01*
X1630342Y1540170D01*
X1637730D01*
Y1547558D01*
D02*
G37*
G36*
X2071862Y1549730D02*
X2060322D01*
Y1535183D01*
X2062367Y1535452D01*
X2065457Y1536732D01*
X2068110Y1538767D01*
X2070145Y1541420D01*
X2071425Y1544510D01*
X2071862Y1547825D01*
Y1549730D01*
D02*
G37*
G36*
X2399258Y1549730D02*
X2387718D01*
Y1535183D01*
X2389763Y1535452D01*
X2392853Y1536732D01*
X2395506Y1538767D01*
X2397541Y1541420D01*
X2398821Y1544510D01*
X2399258Y1547825D01*
Y1549730D01*
D02*
G37*
G36*
X1744000Y2676105D02*
X1734000D01*
X1732032Y2675846D01*
X1730197Y2675086D01*
X1728622Y2673878D01*
X1727414Y2672303D01*
X1726654Y2670468D01*
X1726395Y2668500D01*
Y2633500D01*
X1726654Y2631532D01*
X1727414Y2629697D01*
X1728622Y2628122D01*
X1730197Y2626914D01*
X1732032Y2626154D01*
X1733861Y2625913D01*
Y2543629D01*
X1708071Y2517839D01*
X1658367D01*
X1658148Y2518560D01*
X1656733Y2521208D01*
X1654828Y2523528D01*
X1652508Y2525433D01*
X1649860Y2526848D01*
X1646988Y2527720D01*
X1644000Y2528014D01*
X1641012Y2527720D01*
X1638140Y2526848D01*
X1635492Y2525433D01*
X1633172Y2523528D01*
X1631267Y2521208D01*
X1629852Y2518560D01*
X1628981Y2515688D01*
X1628686Y2512700D01*
X1628981Y2509712D01*
X1629852Y2506840D01*
X1631267Y2504192D01*
X1633172Y2501871D01*
X1635492Y2499967D01*
X1638140Y2498552D01*
X1641012Y2497681D01*
X1644000Y2497386D01*
X1646988Y2497681D01*
X1649860Y2498552D01*
X1652508Y2499967D01*
X1654828Y2501871D01*
X1656733Y2504192D01*
X1658148Y2506840D01*
X1658367Y2507561D01*
X1710200D01*
X1712166Y2507952D01*
X1713834Y2509066D01*
X1742634Y2537866D01*
X1743748Y2539534D01*
X1744139Y2541500D01*
Y2625913D01*
X1745968Y2626154D01*
X1747802Y2626914D01*
X1749378Y2628122D01*
X1750586Y2629697D01*
X1751346Y2631532D01*
X1751605Y2633500D01*
Y2668500D01*
X1751346Y2670468D01*
X1750586Y2672303D01*
X1749378Y2673878D01*
X1747802Y2675086D01*
X1745968Y2675846D01*
X1744000Y2676105D01*
D02*
G37*
G36*
X1642730Y2562230D02*
X1631300D01*
Y2550800D01*
X1642730D01*
Y2562230D01*
D02*
G37*
G36*
X1865400Y2505744D02*
X1861177Y2505328D01*
X1857117Y2504097D01*
X1853375Y2502097D01*
X1850095Y2499405D01*
X1847404Y2496125D01*
X1845403Y2492383D01*
X1844172Y2488323D01*
X1843756Y2484100D01*
X1844172Y2479877D01*
X1845403Y2475817D01*
X1847404Y2472075D01*
X1850095Y2468795D01*
X1853375Y2466104D01*
X1857117Y2464103D01*
X1861177Y2462872D01*
X1865400Y2462456D01*
X1869623Y2462872D01*
X1873683Y2464103D01*
X1877425Y2466104D01*
X1880705Y2468795D01*
X1883396Y2472075D01*
X1885397Y2475817D01*
X1886628Y2479877D01*
X1887044Y2484100D01*
X1886628Y2488323D01*
X1885397Y2492383D01*
X1883396Y2496125D01*
X1880705Y2499405D01*
X1877425Y2502097D01*
X1873683Y2504097D01*
X1869623Y2505328D01*
X1865400Y2505744D01*
D02*
G37*
G36*
X2599600D02*
X2595378Y2505328D01*
X2591317Y2504097D01*
X2587575Y2502097D01*
X2584295Y2499405D01*
X2581603Y2496125D01*
X2579603Y2492383D01*
X2578372Y2488323D01*
X2577956Y2484100D01*
X2578372Y2479877D01*
X2579603Y2475817D01*
X2581603Y2472075D01*
X2584295Y2468795D01*
X2587575Y2466104D01*
X2591317Y2464103D01*
X2595378Y2462872D01*
X2599600Y2462456D01*
X2603823Y2462872D01*
X2607883Y2464103D01*
X2611625Y2466104D01*
X2614905Y2468795D01*
X2617596Y2472075D01*
X2619597Y2475817D01*
X2620828Y2479877D01*
X2621244Y2484100D01*
X2620828Y2488323D01*
X2619597Y2492383D01*
X2617596Y2496125D01*
X2614905Y2499405D01*
X2611625Y2502097D01*
X2607883Y2504097D01*
X2603823Y2505328D01*
X2599600Y2505744D01*
D02*
G37*
G36*
X1656700Y2562230D02*
X1645270D01*
Y2550800D01*
X1656700D01*
Y2562230D01*
D02*
G37*
G36*
X2788500Y2660663D02*
X2786339Y2660233D01*
X2784506Y2659008D01*
X2783281Y2657176D01*
X2782852Y2655014D01*
X2783281Y2652852D01*
X2784506Y2651020D01*
X2784615Y2650947D01*
Y2584067D01*
X2784506Y2583994D01*
X2783281Y2582162D01*
X2782852Y2580000D01*
X2783281Y2577838D01*
X2784506Y2576006D01*
X2786339Y2574781D01*
X2788500Y2574352D01*
X2790662Y2574781D01*
X2792494Y2576006D01*
X2793719Y2577838D01*
X2794149Y2580000D01*
X2793719Y2582162D01*
X2792494Y2583994D01*
X2792385Y2584067D01*
Y2650947D01*
X2792494Y2651020D01*
X2793719Y2652852D01*
X2794149Y2655014D01*
X2793719Y2657176D01*
X2792494Y2659008D01*
X2790662Y2660233D01*
X2788500Y2660663D01*
D02*
G37*
G36*
X2856500Y2639641D02*
X2851394Y2639239D01*
X2846413Y2638043D01*
X2841682Y2636083D01*
X2837314Y2633407D01*
X2833419Y2630080D01*
X2830093Y2626186D01*
X2827417Y2621819D01*
X2825457Y2617086D01*
X2824261Y2612106D01*
X2823859Y2607000D01*
X2824261Y2601894D01*
X2825457Y2596913D01*
X2827417Y2592181D01*
X2830093Y2587814D01*
X2833419Y2583919D01*
X2837314Y2580593D01*
X2841682Y2577917D01*
X2846413Y2575957D01*
X2851394Y2574761D01*
X2856500Y2574359D01*
X2861606Y2574761D01*
X2866586Y2575957D01*
X2871318Y2577917D01*
X2875685Y2580593D01*
X2879580Y2583919D01*
X2882907Y2587814D01*
X2885583Y2592181D01*
X2887543Y2596913D01*
X2888739Y2601894D01*
X2889141Y2607000D01*
X2888739Y2612106D01*
X2887543Y2617086D01*
X2885583Y2621819D01*
X2882907Y2626186D01*
X2879580Y2630080D01*
X2875685Y2633407D01*
X2871318Y2636083D01*
X2866586Y2638043D01*
X2861606Y2639239D01*
X2856500Y2639641D01*
D02*
G37*
G36*
X1642730Y2576200D02*
X1631300D01*
Y2564770D01*
X1642730D01*
Y2576200D01*
D02*
G37*
G36*
X1656700D02*
X1645270D01*
Y2564770D01*
X1656700D01*
Y2576200D01*
D02*
G37*
G36*
X2309270Y2392768D02*
Y2386520D01*
X2315518D01*
X2315424Y2387239D01*
X2314656Y2389093D01*
X2313434Y2390685D01*
X2311843Y2391906D01*
X2309989Y2392674D01*
X2309270Y2392768D01*
D02*
G37*
G36*
X2098400Y2192099D02*
X2094381Y2191703D01*
X2090517Y2190531D01*
X2086956Y2188628D01*
X2083834Y2186066D01*
X2081272Y2182944D01*
X2079369Y2179383D01*
X2078197Y2175519D01*
X2077801Y2171500D01*
X2078197Y2167481D01*
X2079369Y2163617D01*
X2081272Y2160056D01*
X2083834Y2156934D01*
X2086956Y2154372D01*
X2090517Y2152469D01*
X2094381Y2151297D01*
X2098400Y2150901D01*
X2102419Y2151297D01*
X2106283Y2152469D01*
X2109844Y2154372D01*
X2112966Y2156934D01*
X2115528Y2160056D01*
X2117431Y2163617D01*
X2118603Y2167481D01*
X2118999Y2171500D01*
X2118603Y2175519D01*
X2117431Y2179383D01*
X2115528Y2182944D01*
X2112966Y2186066D01*
X2109844Y2188628D01*
X2106283Y2190531D01*
X2102419Y2191703D01*
X2098400Y2192099D01*
D02*
G37*
G36*
X2464486Y2344924D02*
X1798540D01*
X1797053Y2344629D01*
X1795793Y2343787D01*
X1674281Y2222275D01*
X1658090D01*
X1656603Y2221979D01*
X1655343Y2221137D01*
X1643756Y2209550D01*
X1641947Y2210299D01*
X1639000Y2210687D01*
X1636053Y2210299D01*
X1633306Y2209162D01*
X1630948Y2207352D01*
X1629138Y2204994D01*
X1628001Y2202247D01*
X1627613Y2199300D01*
X1628001Y2196353D01*
X1629138Y2193606D01*
X1630948Y2191248D01*
X1633306Y2189438D01*
X1636053Y2188301D01*
X1639000Y2187913D01*
X1641947Y2188301D01*
X1644694Y2189438D01*
X1647052Y2191248D01*
X1648862Y2193606D01*
X1649999Y2196353D01*
X1650387Y2199300D01*
X1649999Y2202247D01*
X1649250Y2204056D01*
X1659699Y2214505D01*
X1672036D01*
X1672522Y2213332D01*
X1665033Y2205843D01*
X1664196Y2204590D01*
X1643756Y2184150D01*
X1641947Y2184899D01*
X1639000Y2185287D01*
X1636053Y2184899D01*
X1633306Y2183762D01*
X1630948Y2181952D01*
X1629138Y2179594D01*
X1628001Y2176847D01*
X1627613Y2173900D01*
X1628001Y2170953D01*
X1629138Y2168206D01*
X1630948Y2165848D01*
X1633306Y2164038D01*
X1636053Y2162901D01*
X1639000Y2162513D01*
X1641947Y2162901D01*
X1644694Y2164038D01*
X1647052Y2165848D01*
X1648862Y2168206D01*
X1649999Y2170953D01*
X1650387Y2173900D01*
X1649999Y2176847D01*
X1649250Y2178656D01*
X1667802Y2197208D01*
X1668975Y2196722D01*
Y2183969D01*
X1643756Y2158750D01*
X1641947Y2159499D01*
X1639000Y2159887D01*
X1636053Y2159499D01*
X1633306Y2158362D01*
X1630948Y2156552D01*
X1629138Y2154194D01*
X1628001Y2151447D01*
X1627613Y2148500D01*
X1628001Y2145553D01*
X1629138Y2142806D01*
X1630948Y2140448D01*
X1633306Y2138638D01*
X1636053Y2137501D01*
X1639000Y2137113D01*
X1641947Y2137501D01*
X1644694Y2138638D01*
X1647052Y2140448D01*
X1648862Y2142806D01*
X1649999Y2145553D01*
X1650387Y2148500D01*
X1649999Y2151447D01*
X1649250Y2153256D01*
X1672882Y2176888D01*
X1674055Y2176402D01*
Y2163649D01*
X1643756Y2133350D01*
X1641947Y2134099D01*
X1639000Y2134487D01*
X1636053Y2134099D01*
X1633306Y2132962D01*
X1630948Y2131152D01*
X1629138Y2128794D01*
X1628001Y2126047D01*
X1627613Y2123100D01*
X1628001Y2120153D01*
X1629138Y2117406D01*
X1630948Y2115048D01*
X1633306Y2113238D01*
X1636053Y2112101D01*
X1639000Y2111713D01*
X1641947Y2112101D01*
X1644694Y2113238D01*
X1647052Y2115048D01*
X1647865Y2116108D01*
X1649135Y2115677D01*
Y2113329D01*
X1643756Y2107950D01*
X1641947Y2108699D01*
X1639000Y2109087D01*
X1636053Y2108699D01*
X1633306Y2107562D01*
X1630948Y2105752D01*
X1629138Y2103394D01*
X1628001Y2100647D01*
X1627613Y2097700D01*
X1628001Y2094753D01*
X1629138Y2092006D01*
X1630948Y2089648D01*
X1633306Y2087838D01*
X1636053Y2086701D01*
X1639000Y2086313D01*
X1641947Y2086701D01*
X1644694Y2087838D01*
X1647052Y2089648D01*
X1648862Y2092006D01*
X1649999Y2094753D01*
X1650387Y2097700D01*
X1649999Y2100647D01*
X1649250Y2102456D01*
X1653042Y2106248D01*
X1654215Y2105762D01*
Y2093009D01*
X1643756Y2082550D01*
X1641947Y2083299D01*
X1639000Y2083687D01*
X1636053Y2083299D01*
X1633306Y2082162D01*
X1630948Y2080352D01*
X1629138Y2077994D01*
X1628001Y2075247D01*
X1627613Y2072300D01*
X1628001Y2069353D01*
X1629138Y2066606D01*
X1630948Y2064248D01*
X1633306Y2062438D01*
X1636053Y2061301D01*
X1639000Y2060913D01*
X1641947Y2061301D01*
X1644694Y2062438D01*
X1647052Y2064248D01*
X1648862Y2066606D01*
X1649999Y2069353D01*
X1650387Y2072300D01*
X1649999Y2075247D01*
X1649250Y2077056D01*
X1658122Y2085928D01*
X1659295Y2085442D01*
Y2072689D01*
X1643756Y2057150D01*
X1641947Y2057899D01*
X1639000Y2058287D01*
X1636053Y2057899D01*
X1633306Y2056762D01*
X1630948Y2054952D01*
X1629138Y2052594D01*
X1628001Y2049847D01*
X1627613Y2046900D01*
X1628001Y2043953D01*
X1629138Y2041206D01*
X1630948Y2038848D01*
X1633306Y2037038D01*
X1636053Y2035901D01*
X1639000Y2035513D01*
X1641947Y2035901D01*
X1644694Y2037038D01*
X1647052Y2038848D01*
X1648862Y2041206D01*
X1649999Y2043953D01*
X1650387Y2046900D01*
X1649999Y2049847D01*
X1649250Y2051656D01*
X1663202Y2065608D01*
X1664375Y2065122D01*
Y2052369D01*
X1643756Y2031750D01*
X1641947Y2032499D01*
X1639000Y2032887D01*
X1636053Y2032499D01*
X1633306Y2031362D01*
X1630948Y2029552D01*
X1629138Y2027194D01*
X1628001Y2024447D01*
X1627613Y2021500D01*
X1628001Y2018553D01*
X1629138Y2015806D01*
X1630948Y2013448D01*
X1633306Y2011638D01*
X1636053Y2010501D01*
X1639000Y2010113D01*
X1641947Y2010501D01*
X1644694Y2011638D01*
X1645964Y2012613D01*
X1646753Y2012350D01*
X1647208Y2011967D01*
X1647202Y2011830D01*
X1642318Y2006946D01*
X1641947Y2007099D01*
X1639000Y2007487D01*
X1636053Y2007099D01*
X1633306Y2005962D01*
X1630948Y2004152D01*
X1629138Y2001794D01*
X1628001Y1999047D01*
X1627613Y1996100D01*
X1628001Y1993153D01*
X1629138Y1990406D01*
X1630948Y1988048D01*
X1633306Y1986238D01*
X1636053Y1985101D01*
X1639000Y1984713D01*
X1641947Y1985101D01*
X1644694Y1986238D01*
X1647052Y1988048D01*
X1648862Y1990406D01*
X1649999Y1993153D01*
X1650387Y1996100D01*
X1649999Y1999047D01*
X1648862Y2001794D01*
X1648554Y2002195D01*
X1673362Y2027003D01*
X1674535Y2026517D01*
Y1986329D01*
X1643756Y1955550D01*
X1641947Y1956299D01*
X1639000Y1956687D01*
X1636053Y1956299D01*
X1633306Y1955162D01*
X1630948Y1953352D01*
X1629138Y1950994D01*
X1628001Y1948247D01*
X1627613Y1945300D01*
X1628001Y1942353D01*
X1629138Y1939606D01*
X1630948Y1937248D01*
X1633306Y1935438D01*
X1636053Y1934301D01*
X1639000Y1933913D01*
X1641947Y1934301D01*
X1644694Y1935438D01*
X1647052Y1937248D01*
X1648862Y1939606D01*
X1649999Y1942353D01*
X1650387Y1945300D01*
X1649999Y1948247D01*
X1649250Y1950056D01*
X1678442Y1979248D01*
X1679615Y1978762D01*
Y1966009D01*
X1643756Y1930150D01*
X1641947Y1930899D01*
X1639000Y1931287D01*
X1636053Y1930899D01*
X1633306Y1929762D01*
X1630948Y1927952D01*
X1629138Y1925594D01*
X1628001Y1922847D01*
X1627613Y1919900D01*
X1628001Y1916953D01*
X1629138Y1914206D01*
X1630948Y1911848D01*
X1633306Y1910038D01*
X1636053Y1908901D01*
X1639000Y1908513D01*
X1641947Y1908901D01*
X1644694Y1910038D01*
X1647052Y1911848D01*
X1648862Y1914206D01*
X1649999Y1916953D01*
X1650387Y1919900D01*
X1649999Y1922847D01*
X1649250Y1924656D01*
X1686247Y1961653D01*
X1687089Y1962913D01*
X1687385Y1964400D01*
Y2110391D01*
X1716247Y2139253D01*
X1717089Y2140513D01*
X1717385Y2142000D01*
Y2182549D01*
X1821191Y2286355D01*
X1855334D01*
X1855820Y2285182D01*
X1797283Y2226645D01*
X1796441Y2225385D01*
X1796145Y2223898D01*
Y1861123D01*
X1655607Y1720585D01*
X1649611D01*
X1648862Y1722394D01*
X1647052Y1724752D01*
X1644694Y1726562D01*
X1641947Y1727699D01*
X1639000Y1728087D01*
X1636053Y1727699D01*
X1633306Y1726562D01*
X1630948Y1724752D01*
X1629138Y1722394D01*
X1628001Y1719647D01*
X1627613Y1716700D01*
X1628001Y1713753D01*
X1629138Y1711006D01*
X1630948Y1708648D01*
X1633306Y1706838D01*
X1636053Y1705701D01*
X1639000Y1705313D01*
X1641947Y1705701D01*
X1644694Y1706838D01*
X1647052Y1708648D01*
X1648862Y1711006D01*
X1649611Y1712815D01*
X1653362D01*
X1653848Y1711642D01*
X1643756Y1701550D01*
X1641947Y1702299D01*
X1639000Y1702687D01*
X1636053Y1702299D01*
X1633306Y1701162D01*
X1630948Y1699352D01*
X1629138Y1696994D01*
X1628001Y1694247D01*
X1627613Y1691300D01*
X1628001Y1688353D01*
X1629138Y1685606D01*
X1630948Y1683248D01*
X1633306Y1681438D01*
X1636053Y1680301D01*
X1639000Y1679913D01*
X1641947Y1680301D01*
X1644694Y1681438D01*
X1647052Y1683248D01*
X1648862Y1685606D01*
X1649999Y1688353D01*
X1650387Y1691300D01*
X1649999Y1694247D01*
X1649250Y1696056D01*
X1754297Y1801103D01*
X1755283Y1800293D01*
X1754911Y1799737D01*
X1754615Y1798250D01*
Y1670067D01*
X1754506Y1669994D01*
X1753281Y1668162D01*
X1752852Y1666000D01*
X1753281Y1663838D01*
X1754506Y1662006D01*
X1756338Y1660781D01*
X1758500Y1660352D01*
X1760662Y1660781D01*
X1762494Y1662006D01*
X1763719Y1663838D01*
X1764149Y1666000D01*
X1763719Y1668162D01*
X1762494Y1669994D01*
X1762385Y1670067D01*
Y1796641D01*
X1814247Y1848503D01*
X1815089Y1849763D01*
X1815385Y1851250D01*
Y2217891D01*
X1868609Y2271115D01*
X2268641D01*
X2276877Y2262879D01*
X2276851Y2262750D01*
X2277281Y2260588D01*
X2278506Y2258756D01*
X2280338Y2257531D01*
X2282500Y2257101D01*
X2284662Y2257531D01*
X2286494Y2258756D01*
X2287718Y2260588D01*
X2288148Y2262750D01*
X2287718Y2264911D01*
X2286494Y2266744D01*
X2284662Y2267968D01*
X2282500Y2268398D01*
X2282371Y2268373D01*
X2275722Y2275022D01*
X2276208Y2276195D01*
X2436811D01*
X2596953Y2116053D01*
X2598214Y2115211D01*
X2598710Y2115112D01*
X2599809Y2114013D01*
X2601069Y2113171D01*
X2602556Y2112875D01*
X2724965D01*
X2725851Y2112000D01*
X2726281Y2109838D01*
X2727506Y2108006D01*
X2729338Y2106781D01*
X2731500Y2106351D01*
X2733661Y2106781D01*
X2735494Y2108006D01*
X2736719Y2109838D01*
X2736982Y2111161D01*
X2738338Y2111781D01*
X2740500Y2111351D01*
X2742662Y2111781D01*
X2744494Y2113006D01*
X2745719Y2114838D01*
X2746148Y2117000D01*
X2745719Y2119162D01*
X2744494Y2120994D01*
X2743340Y2121765D01*
X2743725Y2123035D01*
X2778486D01*
X2778506Y2123006D01*
X2780338Y2121781D01*
X2782500Y2121351D01*
X2784662Y2121781D01*
X2786494Y2123006D01*
X2787719Y2124838D01*
X2788148Y2127000D01*
X2787719Y2129162D01*
X2786494Y2130994D01*
X2784662Y2132218D01*
X2782500Y2132648D01*
X2780810Y2132312D01*
X2780725Y2132354D01*
X2779854Y2133225D01*
X2779812Y2133310D01*
X2780149Y2135000D01*
X2779719Y2137162D01*
X2778494Y2138994D01*
X2776662Y2140219D01*
X2774500Y2140648D01*
X2772338Y2140219D01*
X2770506Y2138994D01*
X2769281Y2137162D01*
X2769027Y2135885D01*
X2761492D01*
X2760782Y2137155D01*
X2761148Y2139000D01*
X2760719Y2141162D01*
X2759494Y2142994D01*
X2757662Y2144218D01*
X2755500Y2144648D01*
X2754909Y2144531D01*
X2753882Y2145463D01*
X2754131Y2146115D01*
X2781891D01*
X2784877Y2143129D01*
X2784851Y2143000D01*
X2785281Y2140838D01*
X2786506Y2139006D01*
X2788338Y2137781D01*
X2790500Y2137352D01*
X2792662Y2137781D01*
X2794494Y2139006D01*
X2795719Y2140838D01*
X2796148Y2143000D01*
X2795719Y2145162D01*
X2794494Y2146994D01*
X2792883Y2148070D01*
X2792706Y2148987D01*
X2792735Y2149499D01*
X2793494Y2150006D01*
X2794719Y2151838D01*
X2795149Y2154000D01*
X2794719Y2156162D01*
X2793494Y2157994D01*
X2793432Y2158035D01*
X2793818Y2159305D01*
X2798690D01*
X2799711Y2159508D01*
X2800500Y2159352D01*
X2802662Y2159781D01*
X2804494Y2161006D01*
X2805718Y2162838D01*
X2806148Y2165000D01*
X2805718Y2167162D01*
X2804494Y2168994D01*
X2802662Y2170219D01*
X2800500Y2170648D01*
X2798926Y2170335D01*
X2797630Y2171157D01*
X2797610Y2171266D01*
X2798500Y2172352D01*
X2800662Y2172781D01*
X2802494Y2174006D01*
X2803719Y2175838D01*
X2804149Y2178000D01*
X2803719Y2180162D01*
X2802494Y2181994D01*
X2800662Y2183219D01*
X2798500Y2183649D01*
X2796339Y2183219D01*
X2796153Y2183095D01*
X2734158D01*
X2732672Y2182799D01*
X2731411Y2181957D01*
X2731318Y2181863D01*
X2730067Y2182409D01*
X2729719Y2184162D01*
X2728494Y2185994D01*
X2726662Y2187218D01*
X2724500Y2187648D01*
X2722338Y2187218D01*
X2720506Y2185994D01*
X2719281Y2184162D01*
X2719178Y2183645D01*
X2627375D01*
X2467233Y2343787D01*
X2465973Y2344629D01*
X2464486Y2344924D01*
D02*
G37*
G36*
X2097130Y2127523D02*
X2095659Y2127330D01*
X2093105Y2126272D01*
X2090911Y2124589D01*
X2089228Y2122395D01*
X2088170Y2119841D01*
X2087977Y2118370D01*
X2097130D01*
Y2127523D01*
D02*
G37*
G36*
X2099670Y2127523D02*
Y2118370D01*
X2108823D01*
X2108630Y2119841D01*
X2107572Y2122395D01*
X2105889Y2124589D01*
X2103695Y2126272D01*
X2101141Y2127330D01*
X2099670Y2127523D01*
D02*
G37*
G36*
X1637730Y2299630D02*
X1630342D01*
X1630475Y2298616D01*
X1631357Y2296487D01*
X1632759Y2294659D01*
X1634587Y2293257D01*
X1636716Y2292375D01*
X1637730Y2292242D01*
Y2299630D01*
D02*
G37*
G36*
X1640270Y2309558D02*
Y2302170D01*
X1647658D01*
X1647525Y2303184D01*
X1646643Y2305313D01*
X1645241Y2307141D01*
X1643413Y2308543D01*
X1641284Y2309425D01*
X1640270Y2309558D01*
D02*
G37*
G36*
X2306730Y2392768D02*
X2306011Y2392674D01*
X2304157Y2391906D01*
X2302565Y2390685D01*
X2301344Y2389093D01*
X2300576Y2387239D01*
X2300481Y2386520D01*
X2306730D01*
Y2392768D01*
D02*
G37*
G36*
X1647658Y2299630D02*
X1640270D01*
Y2292242D01*
X1641284Y2292375D01*
X1643413Y2293257D01*
X1645241Y2294659D01*
X1646643Y2296487D01*
X1647525Y2298616D01*
X1647658Y2299630D01*
D02*
G37*
G36*
X1637730Y2309558D02*
X1636716Y2309425D01*
X1634587Y2308543D01*
X1632759Y2307141D01*
X1631357Y2305313D01*
X1630475Y2303184D01*
X1630342Y2302170D01*
X1637730D01*
Y2309558D01*
D02*
G37*
G36*
X1707730Y2602730D02*
X1688902D01*
Y2599000D01*
X1689290Y2597049D01*
X1690395Y2595395D01*
X1692049Y2594290D01*
X1694000Y2593902D01*
X1707730D01*
Y2602730D01*
D02*
G37*
G36*
X1877770Y2645972D02*
Y2627270D01*
X1896472D01*
X1896211Y2629921D01*
X1895067Y2633691D01*
X1893210Y2637165D01*
X1890711Y2640211D01*
X1887665Y2642710D01*
X1884191Y2644567D01*
X1880421Y2645710D01*
X1877770Y2645972D01*
D02*
G37*
G36*
X2707730D02*
X2705079Y2645710D01*
X2701309Y2644567D01*
X2697835Y2642710D01*
X2694789Y2640211D01*
X2692290Y2637165D01*
X2690433Y2633691D01*
X2689290Y2629921D01*
X2689028Y2627270D01*
X2707730D01*
Y2645972D01*
D02*
G37*
G36*
X2774770Y2622759D02*
Y2621270D01*
X2776259D01*
X2775663Y2622163D01*
X2774770Y2622759D01*
D02*
G37*
G36*
X1875230Y2645972D02*
X1872579Y2645710D01*
X1868809Y2644567D01*
X1865335Y2642710D01*
X1862289Y2640211D01*
X1859790Y2637165D01*
X1857933Y2633691D01*
X1856789Y2629921D01*
X1856528Y2627270D01*
X1875230D01*
Y2645972D01*
D02*
G37*
G36*
X2710270D02*
Y2627270D01*
X2728972D01*
X2728711Y2629921D01*
X2727567Y2633691D01*
X2725710Y2637165D01*
X2723210Y2640211D01*
X2720165Y2642710D01*
X2716691Y2644567D01*
X2712921Y2645710D01*
X2710270Y2645972D01*
D02*
G37*
G36*
X1677730Y2671098D02*
X1674000D01*
X1672049Y2670710D01*
X1670395Y2669605D01*
X1669290Y2667951D01*
X1668902Y2666000D01*
Y2652270D01*
X1677730D01*
Y2671098D01*
D02*
G37*
G36*
X1684000D02*
X1680270D01*
Y2652270D01*
X1689098D01*
Y2666000D01*
X1688710Y2667951D01*
X1687605Y2669605D01*
X1685951Y2670710D01*
X1684000Y2671098D01*
D02*
G37*
G36*
X1677730Y2649730D02*
X1668902D01*
Y2636000D01*
X1669290Y2634049D01*
X1670395Y2632395D01*
X1672049Y2631290D01*
X1674000Y2630902D01*
X1677730D01*
Y2649730D01*
D02*
G37*
G36*
X1689098D02*
X1680270D01*
Y2630902D01*
X1684000D01*
X1685951Y2631290D01*
X1687605Y2632395D01*
X1688710Y2634049D01*
X1689098Y2636000D01*
Y2649730D01*
D02*
G37*
G36*
X2772230Y2622759D02*
X2771337Y2622163D01*
X2770740Y2621270D01*
X2772230D01*
Y2622759D01*
D02*
G37*
G36*
X1724000Y2614098D02*
X1710270D01*
Y2605270D01*
X1729098D01*
Y2609000D01*
X1728710Y2610951D01*
X1727605Y2612605D01*
X1725951Y2613710D01*
X1724000Y2614098D01*
D02*
G37*
G36*
X1875230Y2624730D02*
X1856528D01*
X1856789Y2622079D01*
X1857933Y2618309D01*
X1859790Y2614835D01*
X1862289Y2611790D01*
X1865335Y2609290D01*
X1868809Y2607433D01*
X1872579Y2606289D01*
X1875230Y2606028D01*
Y2624730D01*
D02*
G37*
G36*
X1729098Y2602730D02*
X1710270D01*
Y2593902D01*
X1724000D01*
X1725951Y2594290D01*
X1727605Y2595395D01*
X1728710Y2597049D01*
X1729098Y2599000D01*
Y2602730D01*
D02*
G37*
G36*
X1707730Y2614098D02*
X1694000D01*
X1692049Y2613710D01*
X1690395Y2612605D01*
X1689290Y2610951D01*
X1688902Y2609000D01*
Y2605270D01*
X1707730D01*
Y2614098D01*
D02*
G37*
G36*
X1896472Y2624730D02*
X1877770D01*
Y2606028D01*
X1880421Y2606289D01*
X1884191Y2607433D01*
X1887665Y2609290D01*
X1890711Y2611790D01*
X1893210Y2614835D01*
X1895067Y2618309D01*
X1896211Y2622079D01*
X1896472Y2624730D01*
D02*
G37*
G36*
X2772230Y2618730D02*
X2770740D01*
X2771337Y2617837D01*
X2772230Y2617241D01*
Y2618730D01*
D02*
G37*
G36*
X2776259D02*
X2774770D01*
Y2617241D01*
X2775663Y2617837D01*
X2776259Y2618730D01*
D02*
G37*
G36*
X2707730Y2624730D02*
X2689028D01*
X2689290Y2622079D01*
X2690433Y2618309D01*
X2692290Y2614835D01*
X2694789Y2611790D01*
X2697835Y2609290D01*
X2701309Y2607433D01*
X2705079Y2606289D01*
X2707730Y2606028D01*
Y2624730D01*
D02*
G37*
G36*
X2728972D02*
X2710270D01*
Y2606028D01*
X2712921Y2606289D01*
X2716691Y2607433D01*
X2720165Y2609290D01*
X2723210Y2611790D01*
X2725710Y2614835D01*
X2727567Y2618309D01*
X2728711Y2622079D01*
X2728972Y2624730D01*
D02*
G37*
G36*
X2027770Y1780419D02*
Y1769270D01*
X2036586D01*
Y1770500D01*
X2036243Y1773111D01*
X2035235Y1775543D01*
X2033632Y1777632D01*
X2031543Y1779235D01*
X2029111Y1780243D01*
X2027770Y1780419D01*
D02*
G37*
G36*
X1639000Y1804287D02*
X1636053Y1803899D01*
X1633306Y1802762D01*
X1630948Y1800952D01*
X1629138Y1798594D01*
X1628001Y1795847D01*
X1627613Y1792900D01*
X1628001Y1789953D01*
X1629138Y1787206D01*
X1630948Y1784848D01*
X1633306Y1783038D01*
X1636053Y1781901D01*
X1639000Y1781513D01*
X1641947Y1781901D01*
X1644694Y1783038D01*
X1647052Y1784848D01*
X1648862Y1787206D01*
X1649999Y1789953D01*
X1650387Y1792900D01*
X1649999Y1795847D01*
X1648862Y1798594D01*
X1647052Y1800952D01*
X1644694Y1802762D01*
X1641947Y1803899D01*
X1639000Y1804287D01*
D02*
G37*
G36*
X1999830Y1780419D02*
X1998490Y1780243D01*
X1996057Y1779235D01*
X1993968Y1777632D01*
X1992365Y1775543D01*
X1991357Y1773111D01*
X1991014Y1770500D01*
Y1769270D01*
X1999830D01*
Y1780419D01*
D02*
G37*
G36*
X2002370D02*
Y1769270D01*
X2011186D01*
Y1770500D01*
X2010843Y1773111D01*
X2009835Y1775543D01*
X2008232Y1777632D01*
X2006143Y1779235D01*
X2003710Y1780243D01*
X2002370Y1780419D01*
D02*
G37*
G36*
X1639000Y1829687D02*
X1636053Y1829299D01*
X1633306Y1828162D01*
X1630948Y1826352D01*
X1629138Y1823994D01*
X1628001Y1821247D01*
X1627613Y1818300D01*
X1628001Y1815353D01*
X1629138Y1812606D01*
X1630948Y1810248D01*
X1633306Y1808438D01*
X1636053Y1807301D01*
X1639000Y1806913D01*
X1641947Y1807301D01*
X1644694Y1808438D01*
X1647052Y1810248D01*
X1647715Y1810291D01*
X1665877Y1792129D01*
X1665851Y1792000D01*
X1666281Y1789838D01*
X1667506Y1788006D01*
X1669338Y1786781D01*
X1671500Y1786351D01*
X1673662Y1786781D01*
X1675494Y1788006D01*
X1676718Y1789838D01*
X1677148Y1792000D01*
X1676718Y1794162D01*
X1675494Y1795994D01*
X1673662Y1797219D01*
X1671500Y1797648D01*
X1671371Y1797623D01*
X1650341Y1818653D01*
X1649999Y1821247D01*
X1648862Y1823994D01*
X1647052Y1826352D01*
X1644694Y1828162D01*
X1641947Y1829299D01*
X1639000Y1829687D01*
D02*
G37*
G36*
Y1855087D02*
X1636053Y1854699D01*
X1633306Y1853562D01*
X1630948Y1851752D01*
X1629138Y1849394D01*
X1628001Y1846647D01*
X1627613Y1843700D01*
X1628001Y1840753D01*
X1629138Y1838006D01*
X1630948Y1835648D01*
X1633306Y1833838D01*
X1636053Y1832701D01*
X1639000Y1832313D01*
X1641947Y1832701D01*
X1644694Y1833838D01*
X1647052Y1835648D01*
X1648862Y1838006D01*
X1649999Y1840753D01*
X1650387Y1843700D01*
X1649999Y1846647D01*
X1648862Y1849394D01*
X1647052Y1851752D01*
X1644694Y1853562D01*
X1641947Y1854699D01*
X1639000Y1855087D01*
D02*
G37*
G36*
Y1880487D02*
X1636053Y1880099D01*
X1633306Y1878962D01*
X1630948Y1877152D01*
X1629138Y1874794D01*
X1628001Y1872047D01*
X1627613Y1869100D01*
X1628001Y1866153D01*
X1629138Y1863406D01*
X1630948Y1861048D01*
X1633306Y1859238D01*
X1636053Y1858101D01*
X1639000Y1857713D01*
X1641947Y1858101D01*
X1644694Y1859238D01*
X1647052Y1861048D01*
X1648862Y1863406D01*
X1649611Y1865215D01*
X1684791D01*
X1709877Y1840129D01*
X1709852Y1840000D01*
X1710281Y1837838D01*
X1711506Y1836006D01*
X1713338Y1834781D01*
X1715500Y1834351D01*
X1717662Y1834781D01*
X1719494Y1836006D01*
X1720719Y1837838D01*
X1721149Y1840000D01*
X1720719Y1842162D01*
X1719494Y1843994D01*
X1717662Y1845219D01*
X1715500Y1845648D01*
X1715371Y1845623D01*
X1689147Y1871847D01*
X1687887Y1872689D01*
X1686400Y1872985D01*
X1649611D01*
X1648862Y1874794D01*
X1647052Y1877152D01*
X1644694Y1878962D01*
X1641947Y1880099D01*
X1639000Y1880487D01*
D02*
G37*
G36*
X1662500Y1844648D02*
X1660338Y1844218D01*
X1658506Y1842994D01*
X1657281Y1841162D01*
X1656852Y1839000D01*
X1657281Y1836838D01*
X1658506Y1835006D01*
X1660338Y1833781D01*
X1662500Y1833351D01*
X1662629Y1833377D01*
X1678061Y1817945D01*
X1678281Y1816838D01*
X1679506Y1815006D01*
X1681338Y1813781D01*
X1683500Y1813351D01*
X1685662Y1813781D01*
X1687494Y1815006D01*
X1688719Y1816838D01*
X1689149Y1819000D01*
X1688719Y1821162D01*
X1687494Y1822994D01*
X1685662Y1824219D01*
X1683500Y1824648D01*
X1682537Y1824457D01*
X1668123Y1838871D01*
X1668148Y1839000D01*
X1667719Y1841162D01*
X1666494Y1842994D01*
X1664662Y1844218D01*
X1662500Y1844648D01*
D02*
G37*
G36*
X1674500Y1854648D02*
X1672338Y1854218D01*
X1670506Y1852994D01*
X1669281Y1851162D01*
X1668851Y1849000D01*
X1669281Y1846838D01*
X1670506Y1845006D01*
X1672338Y1843781D01*
X1674500Y1843351D01*
X1674629Y1843377D01*
X1692877Y1825129D01*
X1692852Y1825000D01*
X1693281Y1822838D01*
X1694506Y1821006D01*
X1696338Y1819781D01*
X1698500Y1819352D01*
X1700662Y1819781D01*
X1702494Y1821006D01*
X1703719Y1822838D01*
X1704149Y1825000D01*
X1703719Y1827162D01*
X1702494Y1828994D01*
X1700662Y1830219D01*
X1698500Y1830648D01*
X1698371Y1830623D01*
X1680123Y1848871D01*
X1680148Y1849000D01*
X1679719Y1851162D01*
X1678494Y1852994D01*
X1676662Y1854218D01*
X1674500Y1854648D01*
D02*
G37*
G36*
X1639000Y1778887D02*
X1636053Y1778499D01*
X1633306Y1777362D01*
X1630948Y1775552D01*
X1629138Y1773194D01*
X1628001Y1770447D01*
X1627613Y1767500D01*
X1628001Y1764553D01*
X1629138Y1761806D01*
X1630948Y1759448D01*
X1633306Y1757638D01*
X1636053Y1756501D01*
X1639000Y1756113D01*
X1641947Y1756501D01*
X1644694Y1757638D01*
X1647052Y1759448D01*
X1648862Y1761806D01*
X1649999Y1764553D01*
X1650387Y1767500D01*
X1649999Y1770447D01*
X1648862Y1773194D01*
X1647052Y1775552D01*
X1644694Y1777362D01*
X1641947Y1778499D01*
X1639000Y1778887D01*
D02*
G37*
G36*
X1647658Y1740830D02*
X1640270D01*
Y1733442D01*
X1641284Y1733575D01*
X1643413Y1734457D01*
X1645241Y1735859D01*
X1646643Y1737687D01*
X1647525Y1739816D01*
X1647658Y1740830D01*
D02*
G37*
G36*
X1637730Y1750758D02*
X1636716Y1750625D01*
X1634587Y1749743D01*
X1632759Y1748341D01*
X1631357Y1746513D01*
X1630475Y1744384D01*
X1630342Y1743370D01*
X1637730D01*
Y1750758D01*
D02*
G37*
G36*
X2599600Y1770037D02*
X2595671Y1769650D01*
X2591894Y1768504D01*
X2588412Y1766643D01*
X2585361Y1764139D01*
X2582857Y1761087D01*
X2580996Y1757606D01*
X2579850Y1753828D01*
X2579463Y1749900D01*
X2579850Y1745972D01*
X2580996Y1742194D01*
X2582857Y1738712D01*
X2585361Y1735661D01*
X2588412Y1733157D01*
X2591894Y1731296D01*
X2595671Y1730150D01*
X2599600Y1729763D01*
X2603528Y1730150D01*
X2607306Y1731296D01*
X2610787Y1733157D01*
X2613839Y1735661D01*
X2616343Y1738712D01*
X2618204Y1742194D01*
X2619350Y1745972D01*
X2619737Y1749900D01*
X2619350Y1753828D01*
X2618204Y1757606D01*
X2616343Y1761087D01*
X2613839Y1764139D01*
X2610787Y1766643D01*
X2607306Y1768504D01*
X2603528Y1769650D01*
X2599600Y1770037D01*
D02*
G37*
G36*
X1637730Y1740830D02*
X1630342D01*
X1630475Y1739816D01*
X1631357Y1737687D01*
X1632759Y1735859D01*
X1634587Y1734457D01*
X1636716Y1733575D01*
X1637730Y1733442D01*
Y1740830D01*
D02*
G37*
G36*
X1640270Y1750758D02*
Y1743370D01*
X1647658D01*
X1647525Y1744384D01*
X1646643Y1746513D01*
X1645241Y1748341D01*
X1643413Y1749743D01*
X1641284Y1750625D01*
X1640270Y1750758D01*
D02*
G37*
G36*
X2011186Y1766730D02*
X2002370D01*
Y1755581D01*
X2003710Y1755757D01*
X2006143Y1756765D01*
X2008232Y1758368D01*
X2009835Y1760457D01*
X2010843Y1762890D01*
X2011186Y1765500D01*
Y1766730D01*
D02*
G37*
G36*
X2036586D02*
X2027770D01*
Y1755581D01*
X2029111Y1755757D01*
X2031543Y1756765D01*
X2033632Y1758368D01*
X2035235Y1760457D01*
X2036243Y1762890D01*
X2036586Y1765500D01*
Y1766730D01*
D02*
G37*
G36*
X2056900Y1783105D02*
X2046900D01*
X2044932Y1782846D01*
X2043098Y1782086D01*
X2041522Y1780878D01*
X2040314Y1779303D01*
X2039554Y1777468D01*
X2039295Y1775500D01*
Y1760500D01*
X2039554Y1758532D01*
X2040314Y1756698D01*
X2041522Y1755122D01*
X2043098Y1753914D01*
X2044932Y1753154D01*
X2046900Y1752895D01*
X2056900D01*
X2058868Y1753154D01*
X2060703Y1753914D01*
X2062278Y1755122D01*
X2063486Y1756698D01*
X2064246Y1758532D01*
X2064505Y1760500D01*
Y1775500D01*
X2064246Y1777468D01*
X2063486Y1779303D01*
X2062278Y1780878D01*
X2060703Y1782086D01*
X2058868Y1782846D01*
X2056900Y1783105D01*
D02*
G37*
G36*
X1999830Y1766730D02*
X1991014D01*
Y1765500D01*
X1991357Y1762890D01*
X1992365Y1760457D01*
X1993968Y1758368D01*
X1996057Y1756765D01*
X1998490Y1755757D01*
X1999830Y1755581D01*
Y1766730D01*
D02*
G37*
G36*
X1639000Y1905887D02*
X1636053Y1905499D01*
X1633306Y1904362D01*
X1630948Y1902552D01*
X1629138Y1900194D01*
X1628001Y1897447D01*
X1627613Y1894500D01*
X1628001Y1891553D01*
X1629138Y1888806D01*
X1630948Y1886448D01*
X1633306Y1884638D01*
X1636053Y1883501D01*
X1639000Y1883113D01*
X1641947Y1883501D01*
X1644694Y1884638D01*
X1647052Y1886448D01*
X1648862Y1888806D01*
X1649999Y1891553D01*
X1650387Y1894500D01*
X1649999Y1897447D01*
X1648862Y1900194D01*
X1647052Y1902552D01*
X1644694Y1904362D01*
X1641947Y1905499D01*
X1639000Y1905887D01*
D02*
G37*
G36*
X2118900Y2083200D02*
X2077900D01*
Y2042200D01*
X2118900D01*
Y2083200D01*
D02*
G37*
G36*
X2837230Y2045730D02*
X2835740D01*
X2836337Y2044837D01*
X2837230Y2044241D01*
Y2045730D01*
D02*
G37*
G36*
X2838730Y2028259D02*
X2837837Y2027663D01*
X2837241Y2026770D01*
X2838730D01*
Y2028259D01*
D02*
G37*
G36*
X2841270D02*
Y2026770D01*
X2842759D01*
X2842163Y2027663D01*
X2841270Y2028259D01*
D02*
G37*
G36*
X2841259Y2045730D02*
X2839770D01*
Y2044241D01*
X2840663Y2044837D01*
X2841259Y2045730D01*
D02*
G37*
G36*
X2097130Y2115830D02*
X2087977D01*
X2088170Y2114359D01*
X2089228Y2111805D01*
X2090911Y2109611D01*
X2093105Y2107928D01*
X2095659Y2106870D01*
X2097130Y2106676D01*
Y2115830D01*
D02*
G37*
G36*
X2108823D02*
X2099670D01*
Y2106677D01*
X2101141Y2106870D01*
X2103695Y2107928D01*
X2105889Y2109611D01*
X2107572Y2111805D01*
X2108630Y2114359D01*
X2108823Y2115830D01*
D02*
G37*
G36*
X2837230Y2049760D02*
X2836337Y2049163D01*
X2835740Y2048270D01*
X2837230D01*
Y2049760D01*
D02*
G37*
G36*
X2839770D02*
Y2048270D01*
X2841259D01*
X2840663Y2049163D01*
X2839770Y2049760D01*
D02*
G37*
G36*
X2842759Y2024230D02*
X2841270D01*
Y2022740D01*
X2842163Y2023337D01*
X2842759Y2024230D01*
D02*
G37*
G36*
X2845230Y1962972D02*
X2842579Y1962711D01*
X2838809Y1961567D01*
X2835335Y1959710D01*
X2832289Y1957211D01*
X2829790Y1954165D01*
X2827933Y1950691D01*
X2826790Y1946921D01*
X2826528Y1944270D01*
X2845230D01*
Y1962972D01*
D02*
G37*
G36*
X2847770D02*
Y1944270D01*
X2866472D01*
X2866211Y1946921D01*
X2865067Y1950691D01*
X2863210Y1954165D01*
X2860710Y1957211D01*
X2857665Y1959710D01*
X2854191Y1961567D01*
X2850421Y1962711D01*
X2847770Y1962972D01*
D02*
G37*
G36*
X2845230Y1941730D02*
X2826528D01*
X2826790Y1939079D01*
X2827933Y1935309D01*
X2829790Y1931835D01*
X2832289Y1928789D01*
X2835335Y1926290D01*
X2838809Y1924433D01*
X2842579Y1923289D01*
X2845230Y1923028D01*
Y1941730D01*
D02*
G37*
G36*
X2866472D02*
X2847770D01*
Y1923028D01*
X2850421Y1923289D01*
X2854191Y1924433D01*
X2857665Y1926290D01*
X2860710Y1928789D01*
X2863210Y1931835D01*
X2865067Y1935309D01*
X2866211Y1939079D01*
X2866472Y1941730D01*
D02*
G37*
G36*
X1637730Y1969430D02*
X1630342D01*
X1630475Y1968416D01*
X1631357Y1966287D01*
X1632759Y1964459D01*
X1634587Y1963057D01*
X1636716Y1962175D01*
X1637730Y1962042D01*
Y1969430D01*
D02*
G37*
G36*
X1640270Y1979358D02*
Y1971970D01*
X1647658D01*
X1647525Y1972984D01*
X1646643Y1975113D01*
X1645241Y1976941D01*
X1643413Y1978343D01*
X1641284Y1979225D01*
X1640270Y1979358D01*
D02*
G37*
G36*
X2838730Y2024230D02*
X2837241D01*
X2837837Y2023337D01*
X2838730Y2022740D01*
Y2024230D01*
D02*
G37*
G36*
X1647658Y1969430D02*
X1640270D01*
Y1962042D01*
X1641284Y1962175D01*
X1643413Y1963057D01*
X1645241Y1964459D01*
X1646643Y1966287D01*
X1647525Y1968416D01*
X1647658Y1969430D01*
D02*
G37*
G36*
X1637730Y1979358D02*
X1636716Y1979225D01*
X1634587Y1978343D01*
X1632759Y1976941D01*
X1631357Y1975113D01*
X1630475Y1972984D01*
X1630342Y1971970D01*
X1637730D01*
Y1979358D01*
D02*
G37*
%LPD*%
D26*
X2726740Y2116760D02*
X2731500Y2112000D01*
X2602556Y2116760D02*
X2726740D01*
X2604660Y2121840D02*
X2735660D01*
X2600516Y2118800D02*
X2602556Y2116760D01*
X2599700Y2118800D02*
X2600516D01*
X2782869Y2169000D02*
X2788679Y2163190D01*
X2762679Y2169000D02*
X2782869D01*
X2787370Y2174130D02*
X2791500Y2170000D01*
X2797290Y2179210D02*
X2798500Y2178000D01*
X2735941Y2159440D02*
X2740471Y2163970D01*
X2729628Y2174680D02*
X2734158Y2179210D01*
X2731732Y2169600D02*
X2736263Y2174130D01*
X2733837Y2164520D02*
X2738367Y2169050D01*
X2623662Y2174680D02*
X2729628D01*
X2621558Y2169600D02*
X2731732D01*
X2619453Y2164520D02*
X2733837D01*
X2617349Y2159440D02*
X2735941D01*
X2615245Y2154360D02*
X2738045D01*
X2613141Y2149280D02*
X2740149D01*
X2746701Y2144200D02*
X2747500Y2144998D01*
X2722260Y2179760D02*
X2724500Y2182000D01*
X2611037Y2144200D02*
X2746701D01*
X2625766Y2179760D02*
X2722260D01*
X2782420Y2126920D02*
X2782500Y2127000D01*
X2772460Y2132000D02*
X2774500Y2134040D01*
X2788679Y2163190D02*
X2798690D01*
X2800500Y2165000D01*
X1639000Y1996100D02*
Y1998134D01*
X2606764Y2126920D02*
X2782420D01*
X2608868Y2132000D02*
X2772460D01*
X2735660Y2121840D02*
X2740500Y2117000D01*
X2608932Y2139120D02*
X2755380D01*
X2747500Y2144998D02*
Y2147000D01*
X2740149Y2149280D02*
X2744679Y2153810D01*
X2750321D01*
X2738045Y2154360D02*
X2742575Y2158890D01*
X2752425D01*
X2740471Y2163970D02*
X2760525D01*
X2760575Y2163920D01*
X2755380Y2139120D02*
X2755500Y2139000D01*
X2760500Y2163844D02*
X2760575Y2163920D01*
X2760500Y2161998D02*
Y2163844D01*
X2738367Y2169050D02*
X2766450D01*
X2736263Y2174130D02*
X2787370D01*
X2734158Y2179210D02*
X2797290D01*
X2750321Y2153810D02*
X2754131Y2150000D01*
X2783500D01*
X2790500Y2143000D01*
X2752425Y2158890D02*
X2756235Y2155080D01*
X2788420D02*
X2789500Y2154000D01*
X2756235Y2155080D02*
X2788420D01*
X1639000Y2148500D02*
X1672860Y2182360D01*
X1639000Y2123100D02*
X1677940Y2162040D01*
X1639000Y1919900D02*
X1683500Y1964400D01*
Y2112000D01*
X1713500Y2142000D01*
X1639000Y1945300D02*
X1678420Y1984720D01*
Y2114104D01*
X1639000Y1998134D02*
X1673340Y2032474D01*
Y2116208D01*
X1639000Y2021500D02*
X1668260Y2050760D01*
Y2118313D01*
X1639000Y2046900D02*
X1663180Y2071080D01*
Y2120417D01*
X1639000Y2072300D02*
X1658100Y2091400D01*
Y2122521D01*
X1639000Y2097700D02*
X1653020Y2111720D01*
Y2124625D01*
X1678420Y2114104D02*
X1708420Y2144104D01*
X1673340Y2116208D02*
X1703340Y2146208D01*
X1668260Y2118313D02*
X1698260Y2148313D01*
X1663180Y2120417D02*
X1693180Y2150417D01*
X1658100Y2122521D02*
X1688100Y2152521D01*
X1653020Y2124625D02*
X1683020Y2154625D01*
X2788500Y2580000D02*
Y2655014D01*
X1639000Y1665900D02*
X1688400D01*
X1688500Y1666000D01*
X1639000Y1716700D02*
X1657216D01*
X1645200Y1818300D02*
X1671500Y1792000D01*
X1639000Y1818300D02*
X1645200D01*
X1639000Y2173900D02*
X1667780Y2202680D01*
X1683020Y2154625D02*
Y2196783D01*
X1677940Y2162040D02*
Y2198887D01*
X1672860Y2182360D02*
Y2200992D01*
X1667780Y2202680D02*
Y2203096D01*
X1713500Y2142000D02*
Y2184158D01*
X1708420Y2144104D02*
Y2186262D01*
X1703340Y2146208D02*
Y2188367D01*
X1698260Y2148313D02*
Y2190471D01*
X1693180Y2150417D02*
Y2192575D01*
X1688100Y2152521D02*
Y2194679D01*
X1639000Y2199300D02*
X1658090Y2218390D01*
X1675890D01*
X1848500Y1708000D02*
X1904500D01*
X1686400Y1869100D02*
X1715500Y1840000D01*
X1639000Y1869100D02*
X1686400D01*
X2156500Y1649000D02*
X2235500Y1570000D01*
X2331500D01*
X1738503Y1610000D02*
X1750500D01*
X1674500Y1849000D02*
X1698500Y1825000D01*
X1779500Y1609000D02*
X1795869D01*
X1773500Y1603000D02*
X1779500Y1609000D01*
X1770500Y1600000D02*
Y1636000D01*
X1773500Y1639000D01*
X1662500Y1839000D02*
X1682500Y1819000D01*
X1683500D01*
X1730500Y1601998D02*
X1738503Y1610000D01*
X1728502Y1599999D02*
Y1640002D01*
X1730500Y1642000D01*
X2026500Y1789000D02*
X2029500Y1792000D01*
X2026500Y1768000D02*
Y1789000D01*
X1657216Y1716700D02*
X1800030Y1859514D01*
X1639000Y1691300D02*
X1805110Y1857410D01*
X1758500Y1666000D02*
Y1798250D01*
X1811500Y1851250D01*
X1800030Y1859514D02*
Y2223898D01*
X1805110Y1857410D02*
Y2221794D01*
X1811500Y1851250D02*
Y2219500D01*
X1805110Y2221794D02*
X1863396Y2280080D01*
X1800030Y2223898D02*
X1861292Y2285160D01*
X1811500Y2219500D02*
X1867000Y2275000D01*
X2464486Y2341040D02*
X2625766Y2179760D01*
X1675890Y2218390D02*
X1798540Y2341040D01*
X2462382Y2335960D02*
X2623662Y2174680D01*
X1667780Y2203096D02*
X1800644Y2335960D01*
X2460278Y2330880D02*
X2621558Y2169600D01*
X1672860Y2200992D02*
X1802748Y2330880D01*
X2458174Y2325800D02*
X2619453Y2164520D01*
X1677940Y2198887D02*
X1804852Y2325800D01*
X2456069Y2320720D02*
X2617349Y2159440D01*
X1683020Y2196783D02*
X1806957Y2320720D01*
X2453965Y2315640D02*
X2615245Y2154360D01*
X1688100Y2194679D02*
X1809061Y2315640D01*
X2451861Y2310560D02*
X2613141Y2149280D01*
X1693180Y2192575D02*
X1811165Y2310560D01*
X2449757Y2305480D02*
X2611037Y2144200D01*
X1698260Y2190471D02*
X1813269Y2305480D01*
X2447653Y2300400D02*
X2608932Y2139120D01*
X1703340Y2188367D02*
X1815373Y2300400D01*
X2445549Y2295320D02*
X2608868Y2132000D01*
X1708420Y2186262D02*
X1817478Y2295320D01*
X2443444Y2290240D02*
X2606764Y2126920D01*
X1713500Y2184158D02*
X1819582Y2290240D01*
X1798540Y2341040D02*
X2464486D01*
X1800644Y2335960D02*
X2462382D01*
X1802748Y2330880D02*
X2460278D01*
X1804852Y2325800D02*
X2458174D01*
X1806957Y2320720D02*
X2456069D01*
X1809061Y2315640D02*
X2453965D01*
X1811165Y2310560D02*
X2451861D01*
X1813269Y2305480D02*
X2449757D01*
X1815373Y2300400D02*
X2447653D01*
X1817478Y2295320D02*
X2445549D01*
X1819582Y2290240D02*
X2443444D01*
X1863396Y2280080D02*
X2438420D01*
X2599700Y2118800D01*
X1861292Y2285160D02*
X2441340D01*
X2604660Y2121840D01*
X1867000Y2275000D02*
X2270250D01*
X2282500Y2262750D01*
X2029500Y1792000D02*
X2080500D01*
X2185500Y1687000D01*
Y1651000D02*
Y1687000D01*
X1806823Y1668678D02*
X1899500D01*
X1771501Y1703999D02*
X1806823Y1668678D01*
X1810668Y1677218D02*
X1899500D01*
X1782887Y1704999D02*
X1810668Y1677218D01*
X1782887Y1704999D02*
X1783501D01*
D27*
X2798500Y2225000D02*
Y2226000D01*
X2789500Y2234000D02*
X2798500Y2225000D01*
X1639000Y2250100D02*
X1687600D01*
X1639000Y2275500D02*
X1702000D01*
X1644000Y2512700D02*
X1710200D01*
X1739000Y2541500D01*
Y2651000D01*
X2879500Y2482000D02*
X2888000D01*
X2916000Y2454000D01*
Y1818250D02*
Y2454000D01*
X2746500Y1648750D02*
X2916000Y1818250D01*
X2320250Y1648750D02*
X2746500D01*
X2770163Y2225000D02*
X2771500D01*
X2771826Y2234000D02*
X2789500D01*
X2640866Y2364960D02*
X2771826Y2234000D01*
X2637743Y2357420D02*
X2770163Y2225000D01*
X2770000Y2372500D02*
X2879500Y2482000D01*
X1617000Y2237000D02*
Y2315000D01*
Y2237000D02*
X1629300Y2224700D01*
X1639000D01*
X1617000Y2315000D02*
X1674500Y2372500D01*
X1702000Y2275500D02*
X1791460Y2364960D01*
X1687600Y2250100D02*
X1794920Y2357420D01*
X1674500Y2372500D02*
X2770000D01*
X1791460Y2364960D02*
X2640866D01*
X1794920Y2357420D02*
X2637743D01*
D28*
X1601500Y1461000D02*
X2974500Y1461000D01*
Y2696000D01*
X1601500D02*
X2974500D01*
X1601500Y1461000D02*
Y2696000D01*
D29*
X1639000Y2250100D02*
D03*
Y2224700D02*
D03*
Y2199300D02*
D03*
Y2173900D02*
D03*
Y2148500D02*
D03*
Y2123100D02*
D03*
Y2097700D02*
D03*
Y1691300D02*
D03*
Y1716700D02*
D03*
Y1919900D02*
D03*
Y1945300D02*
D03*
Y1996100D02*
D03*
Y2021500D02*
D03*
Y2046900D02*
D03*
Y2072300D02*
D03*
Y2275500D02*
D03*
Y2300900D02*
D03*
Y1970700D02*
D03*
Y1767500D02*
D03*
Y1742100D02*
D03*
Y1843700D02*
D03*
Y1869100D02*
D03*
Y1818300D02*
D03*
Y1792900D02*
D03*
Y1894500D02*
D03*
Y1615100D02*
D03*
Y1640500D02*
D03*
Y1665900D02*
D03*
Y1589700D02*
D03*
Y1538900D02*
D03*
Y1564300D02*
D03*
Y1513500D02*
D03*
D30*
X2856500Y1510000D02*
D03*
Y2607000D02*
D03*
D31*
X1988948Y1501000D02*
D03*
X2059052D02*
D03*
Y1551000D02*
D03*
X1988948D02*
D03*
X2059052Y1601000D02*
D03*
X1988948D02*
D03*
X2386448Y1501000D02*
D03*
X2456552D02*
D03*
Y1551000D02*
D03*
X2386448D02*
D03*
X2456552Y1601000D02*
D03*
X2386448D02*
D03*
D32*
X1644000Y2563500D02*
D03*
D33*
Y2512700D02*
D03*
X2248498Y1504000D02*
D03*
D34*
X1876500Y2626000D02*
D03*
X2709000D02*
D03*
X1876500Y1591000D02*
D03*
X2709000D02*
D03*
X2846500Y1943000D02*
D03*
D35*
X2879500Y2456600D02*
D03*
Y2482000D02*
D03*
Y2507400D02*
D03*
D36*
X1679000Y2651000D02*
D03*
D37*
X1739000D02*
D03*
D38*
X1709000Y2604000D02*
D03*
D39*
X2051900Y1768000D02*
D03*
D40*
X2026500D02*
D03*
X2001100D02*
D03*
D41*
X2098400Y2171500D02*
D03*
Y2117100D02*
D03*
D42*
Y2062700D02*
D03*
D43*
X2282600Y2385250D02*
D03*
X2308000D02*
D03*
D44*
X2197698Y1504000D02*
D03*
D45*
X2838500Y2047000D02*
D03*
X2840000Y2025500D02*
D03*
X2724500Y2182000D02*
D03*
X2731500Y2112000D02*
D03*
X2790500Y2143000D02*
D03*
X2791500Y2170000D02*
D03*
X2798500Y2178000D02*
D03*
X2789500Y2154000D02*
D03*
X2800500Y2165000D02*
D03*
X2782500Y2127000D02*
D03*
X2774500Y2135000D02*
D03*
X2740500Y2117000D02*
D03*
X2747500Y2147000D02*
D03*
X2755500Y2139000D02*
D03*
X2760500Y2161998D02*
D03*
X2771500Y2225000D02*
D03*
X2798500Y2226000D02*
D03*
X2773500Y2620000D02*
D03*
X2788500Y2580000D02*
D03*
Y2655014D02*
D03*
X1671500Y1792000D02*
D03*
X2331500Y1570000D02*
D03*
X2156500Y1649000D02*
D03*
X1904500Y1708000D02*
D03*
X1848500D02*
D03*
X1715500Y1840000D02*
D03*
X1770500Y1600000D02*
D03*
X1728502Y1599999D02*
D03*
X1750500Y1610000D02*
D03*
X1674500Y1849000D02*
D03*
X1698500Y1825000D02*
D03*
X1795869Y1609000D02*
D03*
X1773500Y1639000D02*
D03*
X1662500Y1839000D02*
D03*
X1683500Y1819000D02*
D03*
X1730500Y1642000D02*
D03*
X1688500Y1666000D02*
D03*
X1758500D02*
D03*
X2320250Y1648750D02*
D03*
X2282500Y2262750D02*
D03*
X2185500Y1651000D02*
D03*
X1899500Y1668678D02*
D03*
X1771501Y1703999D02*
D03*
X1783501D02*
D03*
X1899500Y1677218D02*
D03*
M02*
