G04*
G04 #@! TF.GenerationSoftware,Altium Limited,CircuitStudio,1.5.2 (1.5.2.30)*
G04*
G04 Layer_Color=16764230*
%FSLAX44Y44*%
%MOMM*%
G71*
G01*
G75*
%ADD26C,0.2540*%
%ADD28C,0.2500*%
D26*
X2803993Y2638997D02*
G03*
X2803993Y2638997I-5000J0D01*
G01*
X1771500Y1731000D02*
G03*
X1771500Y1731000I-5000J0D01*
G01*
X2312500Y1570000D02*
G03*
X2312500Y1570000I-5000J0D01*
G01*
X1751500Y1731000D02*
G03*
X1751500Y1731000I-5000J0D01*
G01*
X2312500Y1550010D02*
G03*
X2312500Y1550010I-5000J0D01*
G01*
X1898500Y1818250D02*
G03*
X1898500Y1818250I-5000J0D01*
G01*
X2312500Y1664000D02*
G03*
X2312500Y1664000I-5000J0D01*
G01*
X1734500Y1583000D02*
G03*
X1734500Y1583000I-5000J0D01*
G01*
X1775500D02*
G03*
X1775500Y1583000I-5000J0D01*
G01*
X2793993Y2638997D02*
X2803993D01*
X2798993Y2633997D02*
Y2643997D01*
X1761500Y1731000D02*
X1771500D01*
X1766500Y1726000D02*
Y1736000D01*
X2307500Y1565000D02*
Y1575000D01*
X2302500Y1570000D02*
X2312500D01*
X1741500Y1731000D02*
X1751500D01*
X1746500Y1726000D02*
Y1736000D01*
X2307500Y1545010D02*
Y1555010D01*
X2302500Y1550010D02*
X2312500D01*
X1888500Y1818250D02*
X1898500D01*
X1893500Y1813250D02*
Y1823250D01*
X2307500Y1659000D02*
Y1669000D01*
X2302500Y1664000D02*
X2312500D01*
X1729500Y1578000D02*
Y1588000D01*
X1724500Y1583000D02*
X1734500D01*
X1770500Y1578000D02*
Y1588000D01*
X1765500Y1583000D02*
X1775500D01*
D28*
X1601500Y1461000D02*
X2974500Y1461000D01*
Y2696000D01*
X1601500D02*
X2974500D01*
X1601500Y1461000D02*
Y2696000D01*
M02*
