G04*
G04 #@! TF.GenerationSoftware,Altium Limited,CircuitStudio,1.5.2 (1.5.2.30)*
G04*
G04 Layer_Color=20142*
%FSLAX44Y44*%
%MOMM*%
G71*
G01*
G75*
%ADD28C,0.2500*%
%ADD50R,1.0160X1.1176*%
%ADD51R,1.1132X1.4232*%
%ADD52R,6.0032X6.4032*%
%ADD53R,1.8032X3.2032*%
%ADD54R,2.9532X8.0232*%
%ADD55R,1.1032X1.8032*%
%ADD56R,3.2032X1.3132*%
%ADD57O,3.2032X1.3132*%
%ADD58R,0.9032X1.5032*%
%ADD59R,2.2032X0.8032*%
%ADD60R,4.4032X0.9032*%
%ADD61R,1.8032X1.5032*%
%ADD62R,1.4232X1.1132*%
%ADD63R,1.5032X0.9032*%
%ADD64R,2.6032X2.3632*%
%ADD65C,1.9532*%
%ADD66C,6.2032*%
%ADD67O,2.7432X3.3782*%
%ADD68R,2.7432X2.7432*%
%ADD69C,2.7432*%
%ADD70C,4.2032*%
%ADD71C,2.2032*%
G04:AMPARAMS|DCode=72|XSize=2.2032mm|YSize=4.2032mm|CornerRadius=0.6016mm|HoleSize=0mm|Usage=FLASHONLY|Rotation=180.000|XOffset=0mm|YOffset=0mm|HoleType=Round|Shape=RoundedRectangle|*
%AMROUNDEDRECTD72*
21,1,2.2032,3.0000,0,0,180.0*
21,1,1.0000,4.2032,0,0,180.0*
1,1,1.2032,-0.5000,1.5000*
1,1,1.2032,0.5000,1.5000*
1,1,1.2032,0.5000,-1.5000*
1,1,1.2032,-0.5000,-1.5000*
%
%ADD72ROUNDEDRECTD72*%
G04:AMPARAMS|DCode=73|XSize=2.2032mm|YSize=4.7032mm|CornerRadius=0.6016mm|HoleSize=0mm|Usage=FLASHONLY|Rotation=0.000|XOffset=0mm|YOffset=0mm|HoleType=Round|Shape=RoundedRectangle|*
%AMROUNDEDRECTD73*
21,1,2.2032,3.5000,0,0,0.0*
21,1,1.0000,4.7032,0,0,0.0*
1,1,1.2032,0.5000,-1.7500*
1,1,1.2032,-0.5000,-1.7500*
1,1,1.2032,-0.5000,1.7500*
1,1,1.2032,0.5000,1.7500*
%
%ADD73ROUNDEDRECTD73*%
G04:AMPARAMS|DCode=74|XSize=2.2032mm|YSize=4.2032mm|CornerRadius=0.6016mm|HoleSize=0mm|Usage=FLASHONLY|Rotation=90.000|XOffset=0mm|YOffset=0mm|HoleType=Round|Shape=RoundedRectangle|*
%AMROUNDEDRECTD74*
21,1,2.2032,3.0000,0,0,90.0*
21,1,1.0000,4.2032,0,0,90.0*
1,1,1.2032,1.5000,0.5000*
1,1,1.2032,1.5000,-0.5000*
1,1,1.2032,-1.5000,-0.5000*
1,1,1.2032,-1.5000,0.5000*
%
%ADD74ROUNDEDRECTD74*%
G04:AMPARAMS|DCode=75|XSize=2.2032mm|YSize=2.7032mm|CornerRadius=0.6016mm|HoleSize=0mm|Usage=FLASHONLY|Rotation=0.000|XOffset=0mm|YOffset=0mm|HoleType=Round|Shape=RoundedRectangle|*
%AMROUNDEDRECTD75*
21,1,2.2032,1.5000,0,0,0.0*
21,1,1.0000,2.7032,0,0,0.0*
1,1,1.2032,0.5000,-0.7500*
1,1,1.2032,-0.5000,-0.7500*
1,1,1.2032,-0.5000,0.7500*
1,1,1.2032,0.5000,0.7500*
%
%ADD75ROUNDEDRECTD75*%
%ADD76O,2.2032X2.7032*%
%ADD77C,0.2032*%
%ADD78C,2.3032*%
%ADD79R,2.3032X2.3032*%
%ADD80C,1.7272*%
%ADD81R,2.7432X2.7432*%
%ADD82C,0.8032*%
D28*
X1601500Y1461000D02*
X2974500Y1461000D01*
Y2696000D01*
X1601500D02*
X2974500D01*
X1601500Y1461000D02*
Y2696000D01*
D50*
X1729424Y1621088D02*
D03*
X1739076Y1599912D02*
D03*
X1719924D02*
D03*
X1770924Y1621088D02*
D03*
X1780576Y1599912D02*
D03*
X1761424D02*
D03*
X2807576Y2620588D02*
D03*
X2788424D02*
D03*
X2798076Y2599412D02*
D03*
X2307424Y1645588D02*
D03*
X2317076Y1624412D02*
D03*
X2297924D02*
D03*
X2307424Y1608588D02*
D03*
X2317076Y1587412D02*
D03*
X2297924D02*
D03*
D51*
X2288100Y1911500D02*
D03*
X2255400D02*
D03*
D52*
X2515000Y1783000D02*
D03*
X2350493Y1781490D02*
D03*
X2435493D02*
D03*
D53*
X2537900Y1711000D02*
D03*
X2492100D02*
D03*
X2373393Y1709490D02*
D03*
X2327593D02*
D03*
X2458392D02*
D03*
X2412592D02*
D03*
D54*
X2255800Y1781500D02*
D03*
X2193200D02*
D03*
D55*
X2239000Y1841000D02*
D03*
X2210000D02*
D03*
D56*
X2185698Y1690250D02*
D03*
D57*
Y1639450D02*
D03*
X2258598Y1690250D02*
D03*
Y1639450D02*
D03*
Y1614050D02*
D03*
X2185698D02*
D03*
X2258598Y1588650D02*
D03*
X2185698D02*
D03*
D58*
X2808493Y2638997D02*
D03*
X2789493D02*
D03*
X2298000Y1570000D02*
D03*
X2317000D02*
D03*
Y1550010D02*
D03*
X2298000D02*
D03*
X2317000Y1664000D02*
D03*
X2298000D02*
D03*
X1720000Y1583000D02*
D03*
X1739000D02*
D03*
X1780000D02*
D03*
X1761000D02*
D03*
D59*
X2819000Y2046000D02*
D03*
Y2056000D02*
D03*
Y2066000D02*
D03*
Y2076000D02*
D03*
Y2086000D02*
D03*
Y2096000D02*
D03*
Y2106000D02*
D03*
Y2116000D02*
D03*
Y2126000D02*
D03*
Y2136000D02*
D03*
Y2146000D02*
D03*
Y2156000D02*
D03*
Y2166000D02*
D03*
Y2176000D02*
D03*
Y2186000D02*
D03*
Y2196000D02*
D03*
Y2206000D02*
D03*
Y2216000D02*
D03*
Y2226000D02*
D03*
Y2236000D02*
D03*
D60*
X2840000Y2246000D02*
D03*
Y2036000D02*
D03*
D61*
X1739750Y2244000D02*
D03*
Y2225000D02*
D03*
X1777500Y2631500D02*
D03*
Y2650500D02*
D03*
X1725510Y1739995D02*
D03*
Y1720994D02*
D03*
D62*
X1913500Y1801650D02*
D03*
Y1834350D02*
D03*
D63*
X1766500Y1740500D02*
D03*
Y1721500D02*
D03*
X1746500Y1721500D02*
D03*
Y1740500D02*
D03*
X1893500Y1827750D02*
D03*
Y1808750D02*
D03*
D64*
X1644000Y2446000D02*
D03*
Y2410500D02*
D03*
D65*
X1639000Y2250100D02*
D03*
Y2224700D02*
D03*
Y2199300D02*
D03*
Y2173900D02*
D03*
Y2148500D02*
D03*
Y2123100D02*
D03*
Y2097700D02*
D03*
Y1691300D02*
D03*
Y1716700D02*
D03*
Y1919900D02*
D03*
Y1945300D02*
D03*
Y1996100D02*
D03*
Y2021500D02*
D03*
Y2046900D02*
D03*
Y2072300D02*
D03*
Y2275500D02*
D03*
Y2300900D02*
D03*
Y1970700D02*
D03*
Y1767500D02*
D03*
Y1742100D02*
D03*
Y1843700D02*
D03*
Y1869100D02*
D03*
Y1818300D02*
D03*
Y1792900D02*
D03*
Y1894500D02*
D03*
Y1615100D02*
D03*
Y1640500D02*
D03*
Y1665900D02*
D03*
Y1589700D02*
D03*
Y1538900D02*
D03*
Y1564300D02*
D03*
Y1513500D02*
D03*
D66*
X2856500Y1510000D02*
D03*
Y2607000D02*
D03*
D67*
X1988948Y1501000D02*
D03*
X2059052D02*
D03*
Y1551000D02*
D03*
X1988948D02*
D03*
X2059052Y1601000D02*
D03*
X1988948D02*
D03*
X2386448Y1501000D02*
D03*
X2456552D02*
D03*
Y1551000D02*
D03*
X2386448D02*
D03*
X2456552Y1601000D02*
D03*
X2386448D02*
D03*
D68*
X1644000Y2563500D02*
D03*
D69*
Y2512700D02*
D03*
X2248498Y1504000D02*
D03*
D70*
X1876500Y2626000D02*
D03*
X2709000D02*
D03*
X1876500Y1591000D02*
D03*
X2709000D02*
D03*
X2846500Y1943000D02*
D03*
D71*
X2879500Y2456600D02*
D03*
Y2482000D02*
D03*
Y2507400D02*
D03*
D72*
X1679000Y2651000D02*
D03*
D73*
X1739000D02*
D03*
D74*
X1709000Y2604000D02*
D03*
D75*
X2051900Y1768000D02*
D03*
D76*
X2026500D02*
D03*
X2001100D02*
D03*
D77*
X1865400Y1749900D02*
D03*
X2599600D02*
D03*
Y2484100D02*
D03*
X1865400D02*
D03*
D78*
X2098400Y2171500D02*
D03*
Y2117100D02*
D03*
D79*
Y2062700D02*
D03*
D80*
X2282600Y2385250D02*
D03*
X2308000D02*
D03*
D81*
X2197698Y1504000D02*
D03*
D82*
X2838500Y2047000D02*
D03*
X2840000Y2025500D02*
D03*
X2724500Y2182000D02*
D03*
X2731500Y2112000D02*
D03*
X2790500Y2143000D02*
D03*
X2791500Y2170000D02*
D03*
X2798500Y2178000D02*
D03*
X2789500Y2154000D02*
D03*
X2800500Y2165000D02*
D03*
X2782500Y2127000D02*
D03*
X2774500Y2135000D02*
D03*
X2740500Y2117000D02*
D03*
X2747500Y2147000D02*
D03*
X2755500Y2139000D02*
D03*
X2760500Y2161998D02*
D03*
X2771500Y2225000D02*
D03*
X2798500Y2226000D02*
D03*
X2773500Y2620000D02*
D03*
X2788500Y2580000D02*
D03*
Y2655014D02*
D03*
X1671500Y1792000D02*
D03*
X2331500Y1570000D02*
D03*
X2156500Y1649000D02*
D03*
X1904500Y1708000D02*
D03*
X1848500D02*
D03*
X1715500Y1840000D02*
D03*
X1770500Y1600000D02*
D03*
X1728502Y1599999D02*
D03*
X1750500Y1610000D02*
D03*
X1674500Y1849000D02*
D03*
X1698500Y1825000D02*
D03*
X1795869Y1609000D02*
D03*
X1773500Y1639000D02*
D03*
X1662500Y1839000D02*
D03*
X1683500Y1819000D02*
D03*
X1730500Y1642000D02*
D03*
X1688500Y1666000D02*
D03*
X1758500D02*
D03*
X2320250Y1648750D02*
D03*
X2282500Y2262750D02*
D03*
X2185500Y1651000D02*
D03*
X1899500Y1668678D02*
D03*
X1771501Y1703999D02*
D03*
X1783501D02*
D03*
X1899500Y1677218D02*
D03*
M02*
