G04*
G04 #@! TF.GenerationSoftware,Altium Limited,CircuitStudio,1.5.2 (1.5.2.30)*
G04*
G04 Layer_Color=128*
%FSLAX44Y44*%
%MOMM*%
G71*
G01*
G75*
%ADD28C,0.2500*%
%ADD85C,0.1270*%
D28*
X1601500Y1461000D02*
X2974500Y1461000D01*
Y2696000D01*
X1601500D02*
X2974500D01*
X1601500Y1461000D02*
Y2696000D01*
D85*
X1633920Y2250100D02*
X1644080D01*
X1639000Y2245020D02*
Y2255180D01*
X1633920Y2224700D02*
X1644080D01*
X1639000Y2219620D02*
Y2229780D01*
X1633920Y2199300D02*
X1644080D01*
X1639000Y2194220D02*
Y2204380D01*
X1633920Y2173900D02*
X1644080D01*
X1639000Y2168820D02*
Y2178980D01*
X1633920Y2148500D02*
X1644080D01*
X1639000Y2143420D02*
Y2153580D01*
X1633920Y2123100D02*
X1644080D01*
X1639000Y2118020D02*
Y2128180D01*
X1633920Y2097700D02*
X1644080D01*
X1639000Y2092620D02*
Y2102780D01*
X1633920Y1691300D02*
X1644080D01*
X1639000Y1686220D02*
Y1696380D01*
X1633920Y1716700D02*
X1644080D01*
X1639000Y1711620D02*
Y1721780D01*
X1633920Y1919900D02*
X1644080D01*
X1639000Y1914820D02*
Y1924980D01*
X1633920Y1945300D02*
X1644080D01*
X1639000Y1940220D02*
Y1950380D01*
X1633920Y1996100D02*
X1644080D01*
X1639000Y1991020D02*
Y2001180D01*
X1633920Y2021500D02*
X1644080D01*
X1639000Y2016420D02*
Y2026580D01*
X1633920Y2046900D02*
X1644080D01*
X1639000Y2041820D02*
Y2051980D01*
X1633920Y2072300D02*
X1644080D01*
X1639000Y2067220D02*
Y2077380D01*
X1633920Y2275500D02*
X1644080D01*
X1639000Y2270420D02*
Y2280580D01*
X2841500Y1510000D02*
X2871500D01*
X2856500Y1495000D02*
Y1525000D01*
X2841500Y2607000D02*
X2871500D01*
X2856500Y2592000D02*
Y2622000D01*
X1633920Y2300900D02*
X1644080D01*
X1639000Y2295820D02*
Y2305980D01*
X1633920Y1970700D02*
X1644080D01*
X1639000Y1965620D02*
Y1975780D01*
X1633920Y1767500D02*
X1644080D01*
X1639000Y1762420D02*
Y1772580D01*
X1633920Y1742100D02*
X1644080D01*
X1639000Y1737020D02*
Y1747180D01*
X1633920Y1843700D02*
X1644080D01*
X1639000Y1838620D02*
Y1848780D01*
X1633920Y1869100D02*
X1644080D01*
X1639000Y1864020D02*
Y1874180D01*
X1633920Y1818300D02*
X1644080D01*
X1639000Y1813220D02*
Y1823380D01*
X1633920Y1792900D02*
X1644080D01*
X1639000Y1787820D02*
Y1797980D01*
X1633920Y1894500D02*
X1644080D01*
X1639000Y1889420D02*
Y1899580D01*
X1633920Y1615100D02*
X1644080D01*
X1639000Y1610020D02*
Y1620180D01*
X1633920Y1640500D02*
X1644080D01*
X1639000Y1635420D02*
Y1645580D01*
X1633920Y1665900D02*
X1644080D01*
X1639000Y1660820D02*
Y1670980D01*
X1633920Y1589700D02*
X1644080D01*
X1639000Y1584620D02*
Y1594780D01*
X1633920Y1538900D02*
X1644080D01*
X1639000Y1533820D02*
Y1543980D01*
X1979296Y1501000D02*
X1998600D01*
X1988948Y1491348D02*
Y1510652D01*
X2049400Y1501000D02*
X2068704D01*
X2059052Y1491348D02*
Y1510652D01*
X2049400Y1551000D02*
X2068704D01*
X2059052Y1541348D02*
Y1560652D01*
X1979296Y1551000D02*
X1998600D01*
X1988948Y1541348D02*
Y1560652D01*
X2049400Y1601000D02*
X2068704D01*
X2059052Y1591348D02*
Y1610652D01*
X1979296Y1601000D02*
X1998600D01*
X1988948Y1591348D02*
Y1610652D01*
X2376796Y1501000D02*
X2396100D01*
X2386448Y1491348D02*
Y1510652D01*
X2446900Y1501000D02*
X2466204D01*
X2456552Y1491348D02*
Y1510652D01*
X2446900Y1551000D02*
X2466204D01*
X2456552Y1541348D02*
Y1560652D01*
X2376796Y1551000D02*
X2396100D01*
X2386448Y1541348D02*
Y1560652D01*
X2446900Y1601000D02*
X2466204D01*
X2456552Y1591348D02*
Y1610652D01*
X2376796Y1601000D02*
X2396100D01*
X2386448Y1591348D02*
Y1610652D01*
X1637650Y2563500D02*
X1650350D01*
X1644000Y2557150D02*
Y2569850D01*
X1637650Y2512700D02*
X1650350D01*
X1644000Y2506350D02*
Y2519050D01*
X1856500Y2626000D02*
X1896500D01*
X1876500Y2606000D02*
Y2646000D01*
X2689000Y2626000D02*
X2729000D01*
X2709000Y2606000D02*
Y2646000D01*
X1856500Y1591000D02*
X1896500D01*
X1876500Y1571000D02*
Y1611000D01*
X2689000Y1591000D02*
X2729000D01*
X2709000Y1571000D02*
Y1611000D01*
X2826500Y1943000D02*
X2866500D01*
X2846500Y1923000D02*
Y1963000D01*
X2874400Y2456600D02*
X2884600D01*
X2879500Y2451500D02*
Y2461700D01*
X2874400Y2482000D02*
X2884600D01*
X2879500Y2476900D02*
Y2487100D01*
X2874400Y2507400D02*
X2884600D01*
X2879500Y2502300D02*
Y2512500D01*
X1675250Y2651000D02*
X1682750D01*
X1679000Y2647250D02*
Y2654750D01*
X1735250Y2651000D02*
X1742750D01*
X1739000Y2647250D02*
Y2654750D01*
X1705250Y2604000D02*
X1712750D01*
X1709000Y2600250D02*
Y2607750D01*
X1633920Y1564300D02*
X1644080D01*
X1639000Y1559220D02*
Y1569380D01*
X1633920Y1513500D02*
X1644080D01*
X1639000Y1508420D02*
Y1518580D01*
X2046400Y1768000D02*
X2057400D01*
X2051900Y1762500D02*
Y1773500D01*
X2021000Y1768000D02*
X2032000D01*
X2026500Y1762500D02*
Y1773500D01*
X1995600Y1768000D02*
X2006600D01*
X2001100Y1762500D02*
Y1773500D01*
X1846400Y1749900D02*
X1884400D01*
X1865400Y1730900D02*
Y1768900D01*
X2582100Y1749900D02*
X2617100D01*
X2599600Y1732400D02*
Y1767400D01*
X2580600Y2484100D02*
X2618600D01*
X2599600Y2465100D02*
Y2503100D01*
X1846400Y2484100D02*
X1884400D01*
X1865400Y2465100D02*
Y2503100D01*
X2091400Y2171500D02*
X2105400D01*
X2098400Y2164500D02*
Y2178500D01*
X2091400Y2117100D02*
X2105400D01*
X2098400Y2110100D02*
Y2124100D01*
X2091400Y2062700D02*
X2105400D01*
X2098400Y2055700D02*
Y2069700D01*
X2278790Y2385250D02*
X2286410D01*
X2282600Y2381440D02*
Y2389060D01*
X2304190Y2385250D02*
X2311810D01*
X2308000Y2381440D02*
Y2389060D01*
X2242148Y1504000D02*
X2254848D01*
X2248498Y1497650D02*
Y1510350D01*
X2191348Y1504000D02*
X2204048D01*
X2197698Y1497650D02*
Y1510350D01*
X2837000Y2047000D02*
X2840000D01*
X2838500Y2045500D02*
Y2048500D01*
X2838500Y2025500D02*
X2841500D01*
X2840000Y2024000D02*
Y2027000D01*
X2723000Y2182000D02*
X2726000D01*
X2724500Y2180500D02*
Y2183500D01*
X2730000Y2112000D02*
X2733000D01*
X2731500Y2110500D02*
Y2113500D01*
X2789000Y2143000D02*
X2792000D01*
X2790500Y2141500D02*
Y2144500D01*
X2790000Y2170000D02*
X2793000D01*
X2791500Y2168500D02*
Y2171500D01*
X2797000Y2178000D02*
X2800000D01*
X2798500Y2176500D02*
Y2179500D01*
X2788000Y2154000D02*
X2791000D01*
X2789500Y2152500D02*
Y2155500D01*
X2799000Y2165000D02*
X2802000D01*
X2800500Y2163500D02*
Y2166500D01*
X2781000Y2127000D02*
X2784000D01*
X2782500Y2125500D02*
Y2128500D01*
X2773000Y2135000D02*
X2776000D01*
X2774500Y2133500D02*
Y2136500D01*
X2739000Y2117000D02*
X2742000D01*
X2740500Y2115500D02*
Y2118500D01*
X2746000Y2147000D02*
X2749000D01*
X2747500Y2145500D02*
Y2148500D01*
X2754000Y2139000D02*
X2757000D01*
X2755500Y2137500D02*
Y2140500D01*
X2759000Y2161998D02*
X2762000D01*
X2760500Y2160498D02*
Y2163498D01*
X2770000Y2225000D02*
X2773000D01*
X2771500Y2223500D02*
Y2226500D01*
X2797000Y2226000D02*
X2800000D01*
X2798500Y2224500D02*
Y2227500D01*
X2772000Y2620000D02*
X2775000D01*
X2773500Y2618500D02*
Y2621500D01*
X2787000Y2580000D02*
X2790000D01*
X2788500Y2578500D02*
Y2581500D01*
X2787000Y2655014D02*
X2790000D01*
X2788500Y2653514D02*
Y2656514D01*
X1670000Y1792000D02*
X1673000D01*
X1671500Y1790500D02*
Y1793500D01*
X2330000Y1570000D02*
X2333000D01*
X2331500Y1568500D02*
Y1571500D01*
X2155000Y1649000D02*
X2158000D01*
X2156500Y1647500D02*
Y1650500D01*
X1903000Y1708000D02*
X1906000D01*
X1904500Y1706500D02*
Y1709500D01*
X1847000Y1708000D02*
X1850000D01*
X1848500Y1706500D02*
Y1709500D01*
X1714000Y1840000D02*
X1717000D01*
X1715500Y1838500D02*
Y1841500D01*
X1769000Y1600000D02*
X1772000D01*
X1770500Y1598500D02*
Y1601500D01*
X1727002Y1599999D02*
X1730002D01*
X1728502Y1598499D02*
Y1601499D01*
X1749000Y1610000D02*
X1752000D01*
X1750500Y1608500D02*
Y1611500D01*
X1673000Y1849000D02*
X1676000D01*
X1674500Y1847500D02*
Y1850500D01*
X1697000Y1825000D02*
X1700000D01*
X1698500Y1823500D02*
Y1826500D01*
X1794369Y1609000D02*
X1797369D01*
X1795869Y1607500D02*
Y1610500D01*
X1772000Y1639000D02*
X1775000D01*
X1773500Y1637500D02*
Y1640500D01*
X1661000Y1839000D02*
X1664000D01*
X1662500Y1837500D02*
Y1840500D01*
X1682000Y1819000D02*
X1685000D01*
X1683500Y1817500D02*
Y1820500D01*
X1729000Y1642000D02*
X1732000D01*
X1730500Y1640500D02*
Y1643500D01*
X1687000Y1666000D02*
X1690000D01*
X1688500Y1664500D02*
Y1667500D01*
X1757000Y1666000D02*
X1760000D01*
X1758500Y1664500D02*
Y1667500D01*
X2318750Y1648750D02*
X2321750D01*
X2320250Y1647250D02*
Y1650250D01*
X2281000Y2262750D02*
X2284000D01*
X2282500Y2261250D02*
Y2264250D01*
X2184000Y1651000D02*
X2187000D01*
X2185500Y1649500D02*
Y1652500D01*
X1898000Y1668678D02*
X1901000D01*
X1899500Y1667178D02*
Y1670178D01*
X1770002Y1703999D02*
X1773002D01*
X1771501Y1702499D02*
Y1705499D01*
X1782001Y1703999D02*
X1785002D01*
X1783501Y1702499D02*
Y1705499D01*
X1898000Y1677218D02*
X1901000D01*
X1899500Y1675718D02*
Y1678718D01*
M02*
