G04*
G04 #@! TF.GenerationSoftware,Altium Limited,CircuitStudio,1.5.2 (1.5.2.30)*
G04*
G04 Layer_Color=7318015*
%FSLAX44Y44*%
%MOMM*%
G71*
G01*
G75*
%ADD10R,0.2540X0.2540*%
%ADD11R,0.8128X0.9144*%
%ADD12R,0.9100X1.2200*%
%ADD13R,5.8000X6.2000*%
%ADD14R,1.6000X3.0000*%
%ADD15R,2.7500X7.8200*%
%ADD16R,0.9000X1.6000*%
%ADD17R,3.0000X1.1100*%
%ADD18O,3.0000X1.1100*%
%ADD19R,0.7000X1.3000*%
%ADD20R,2.0000X0.6000*%
%ADD21R,4.2000X0.7000*%
%ADD22R,1.6000X1.3000*%
%ADD23R,1.2200X0.9100*%
%ADD24R,1.3000X0.7000*%
%ADD25R,2.4000X2.1600*%
%ADD28C,0.2500*%
D10*
X1662500Y1741000D02*
D03*
X1656500D02*
D03*
D11*
X1729424Y1621088D02*
D03*
X1739076Y1599912D02*
D03*
X1719924D02*
D03*
X1770924Y1621088D02*
D03*
X1780576Y1599912D02*
D03*
X1761424D02*
D03*
X2807576Y2620588D02*
D03*
X2788424D02*
D03*
X2798076Y2599412D02*
D03*
X2307424Y1645588D02*
D03*
X2317076Y1624412D02*
D03*
X2297924D02*
D03*
X2307424Y1608588D02*
D03*
X2317076Y1587412D02*
D03*
X2297924D02*
D03*
D12*
X2288100Y1911500D02*
D03*
X2255400D02*
D03*
D13*
X2515000Y1783000D02*
D03*
X2350493Y1781490D02*
D03*
X2435493D02*
D03*
D14*
X2537900Y1711000D02*
D03*
X2492100D02*
D03*
X2373393Y1709490D02*
D03*
X2327593D02*
D03*
X2458392D02*
D03*
X2412592D02*
D03*
D15*
X2255800Y1781500D02*
D03*
X2193200D02*
D03*
D16*
X2239000Y1841000D02*
D03*
X2210000D02*
D03*
D17*
X2185698Y1690250D02*
D03*
D18*
Y1639450D02*
D03*
X2258598Y1690250D02*
D03*
Y1639450D02*
D03*
Y1614050D02*
D03*
X2185698D02*
D03*
X2258598Y1588650D02*
D03*
X2185698D02*
D03*
D19*
X2808493Y2638997D02*
D03*
X2789493D02*
D03*
X2298000Y1570000D02*
D03*
X2317000D02*
D03*
Y1550010D02*
D03*
X2298000D02*
D03*
X2317000Y1664000D02*
D03*
X2298000D02*
D03*
X1720000Y1583000D02*
D03*
X1739000D02*
D03*
X1780000D02*
D03*
X1761000D02*
D03*
D20*
X2819000Y2046000D02*
D03*
Y2056000D02*
D03*
Y2066000D02*
D03*
Y2076000D02*
D03*
Y2086000D02*
D03*
Y2096000D02*
D03*
Y2106000D02*
D03*
Y2116000D02*
D03*
Y2126000D02*
D03*
Y2136000D02*
D03*
Y2146000D02*
D03*
Y2156000D02*
D03*
Y2166000D02*
D03*
Y2176000D02*
D03*
Y2186000D02*
D03*
Y2196000D02*
D03*
Y2206000D02*
D03*
Y2216000D02*
D03*
Y2226000D02*
D03*
Y2236000D02*
D03*
D21*
X2840000Y2246000D02*
D03*
Y2036000D02*
D03*
D22*
X1739750Y2244000D02*
D03*
Y2225000D02*
D03*
X1777500Y2631500D02*
D03*
Y2650500D02*
D03*
X1725510Y1739995D02*
D03*
Y1720994D02*
D03*
D23*
X1913500Y1801650D02*
D03*
Y1834350D02*
D03*
D24*
X1766500Y1740500D02*
D03*
Y1721500D02*
D03*
X1746500Y1721500D02*
D03*
Y1740500D02*
D03*
X1893500Y1827750D02*
D03*
Y1808750D02*
D03*
D25*
X1644000Y2446000D02*
D03*
Y2410500D02*
D03*
D28*
X1601500Y1461000D02*
X2974500Y1461000D01*
Y2696000D01*
X1601500D02*
X2974500D01*
X1601500Y1461000D02*
Y2696000D01*
M02*
