G04*
G04 #@! TF.GenerationSoftware,Altium Limited,CircuitStudio,1.5.2 (1.5.2.30)*
G04*
G04 Layer_Color=15065295*
%FSLAX44Y44*%
%MOMM*%
G71*
G01*
G75*
%ADD10C,0.2540*%
%ADD11C,0.5000*%
%ADD38C,0.2030*%
%ADD39C,0.2000*%
%ADD40C,0.2500*%
G36*
X278065Y494877D02*
X278535Y494854D01*
X279005Y494807D01*
X279475Y494737D01*
X279874Y494666D01*
X279898D01*
X279945Y494642D01*
X280015D01*
X280109Y494595D01*
X280368Y494525D01*
X280697Y494408D01*
X281073Y494243D01*
X281472Y494032D01*
X281871Y493797D01*
X282247Y493491D01*
X282271Y493468D01*
X282294Y493444D01*
X282365Y493374D01*
X282459Y493303D01*
X282694Y493068D01*
X282976Y492739D01*
X283281Y492340D01*
X283610Y491870D01*
X283915Y491330D01*
X284174Y490719D01*
Y490695D01*
X284197Y490648D01*
X284244Y490554D01*
X284268Y490413D01*
X284338Y490249D01*
X284385Y490061D01*
X284432Y489850D01*
X284503Y489591D01*
X284573Y489333D01*
X284620Y489027D01*
X284738Y488369D01*
X284808Y487641D01*
X284832Y486842D01*
Y486819D01*
Y486772D01*
Y486654D01*
Y486537D01*
X284808Y486372D01*
Y486184D01*
X284785Y485738D01*
X284714Y485221D01*
X284644Y484681D01*
X284526Y484117D01*
X284385Y483553D01*
Y483529D01*
X284362Y483482D01*
X284338Y483412D01*
X284315Y483318D01*
X284221Y483060D01*
X284080Y482730D01*
X283939Y482355D01*
X283751Y481979D01*
X283516Y481579D01*
X283281Y481203D01*
X283258Y481156D01*
X283164Y481039D01*
X283023Y480874D01*
X282835Y480663D01*
X282623Y480428D01*
X282365Y480193D01*
X282106Y479935D01*
X281801Y479723D01*
X281754Y479700D01*
X281660Y479629D01*
X281495Y479535D01*
X281261Y479418D01*
X280979Y479277D01*
X280650Y479159D01*
X280274Y479018D01*
X279851Y478901D01*
X279804D01*
X279733Y478877D01*
X279663Y478854D01*
X279428Y478830D01*
X279099Y478783D01*
X278723Y478736D01*
X278277Y478689D01*
X277783Y478666D01*
X277243Y478642D01*
X271393D01*
Y494901D01*
X277642D01*
X278065Y494877D01*
D02*
G37*
G36*
X301208Y478642D02*
X298764D01*
X296861Y483576D01*
X290048D01*
X288286Y478642D01*
X286007D01*
X292209Y494901D01*
X294559D01*
X301208Y478642D01*
D02*
G37*
G36*
X262300Y495159D02*
X262465D01*
X262911Y495112D01*
X263404Y495042D01*
X263921Y494924D01*
X264485Y494784D01*
X265002Y494595D01*
X265026D01*
X265072Y494572D01*
X265143Y494525D01*
X265237Y494478D01*
X265472Y494361D01*
X265777Y494149D01*
X266130Y493914D01*
X266482Y493609D01*
X266811Y493256D01*
X267117Y492857D01*
Y492833D01*
X267140Y492810D01*
X267187Y492739D01*
X267234Y492669D01*
X267351Y492434D01*
X267492Y492128D01*
X267657Y491753D01*
X267774Y491306D01*
X267892Y490836D01*
X267939Y490319D01*
X265871Y490155D01*
Y490178D01*
Y490225D01*
X265848Y490296D01*
X265824Y490413D01*
X265754Y490672D01*
X265660Y491024D01*
X265519Y491400D01*
X265307Y491776D01*
X265049Y492128D01*
X264720Y492458D01*
X264673Y492481D01*
X264556Y492575D01*
X264321Y492716D01*
X264015Y492857D01*
X263616Y492998D01*
X263146Y493139D01*
X262558Y493233D01*
X261901Y493256D01*
X261572D01*
X261431Y493233D01*
X261243Y493209D01*
X260820Y493162D01*
X260350Y493068D01*
X259880Y492951D01*
X259434Y492763D01*
X259246Y492645D01*
X259058Y492528D01*
X259011Y492505D01*
X258917Y492411D01*
X258776Y492246D01*
X258635Y492058D01*
X258470Y491800D01*
X258329Y491518D01*
X258235Y491189D01*
X258188Y490813D01*
Y490766D01*
Y490672D01*
X258212Y490507D01*
X258259Y490319D01*
X258329Y490084D01*
X258447Y489850D01*
X258588Y489615D01*
X258799Y489380D01*
X258823Y489356D01*
X258940Y489286D01*
X259034Y489215D01*
X259128Y489168D01*
X259269Y489098D01*
X259434Y489004D01*
X259645Y488933D01*
X259880Y488839D01*
X260138Y488745D01*
X260444Y488628D01*
X260773Y488534D01*
X261149Y488416D01*
X261572Y488322D01*
X262042Y488205D01*
X262065D01*
X262159Y488181D01*
X262300Y488158D01*
X262465Y488111D01*
X262676Y488064D01*
X262934Y487993D01*
X263193Y487923D01*
X263475Y487852D01*
X264086Y487688D01*
X264673Y487523D01*
X264955Y487430D01*
X265213Y487336D01*
X265448Y487265D01*
X265636Y487171D01*
X265660D01*
X265707Y487148D01*
X265777Y487101D01*
X265871Y487054D01*
X266130Y486913D01*
X266435Y486725D01*
X266788Y486466D01*
X267140Y486184D01*
X267469Y485855D01*
X267751Y485503D01*
X267774Y485456D01*
X267868Y485339D01*
X267962Y485127D01*
X268103Y484845D01*
X268221Y484516D01*
X268338Y484117D01*
X268409Y483670D01*
X268432Y483200D01*
Y483177D01*
Y483153D01*
Y483083D01*
Y482989D01*
X268385Y482730D01*
X268338Y482402D01*
X268244Y482026D01*
X268127Y481626D01*
X267939Y481203D01*
X267680Y480757D01*
Y480733D01*
X267657Y480710D01*
X267539Y480569D01*
X267375Y480358D01*
X267140Y480123D01*
X266835Y479841D01*
X266459Y479535D01*
X266036Y479253D01*
X265542Y478995D01*
X265519D01*
X265472Y478971D01*
X265401Y478948D01*
X265307Y478901D01*
X265166Y478854D01*
X265002Y478783D01*
X264626Y478689D01*
X264180Y478572D01*
X263639Y478454D01*
X263052Y478384D01*
X262418Y478360D01*
X262042D01*
X261854Y478384D01*
X261642D01*
X261407Y478408D01*
X261125Y478431D01*
X260538Y478525D01*
X259927Y478619D01*
X259316Y478783D01*
X258729Y478995D01*
X258705D01*
X258658Y479018D01*
X258588Y479065D01*
X258494Y479112D01*
X258212Y479253D01*
X257883Y479465D01*
X257507Y479747D01*
X257108Y480076D01*
X256732Y480475D01*
X256379Y480921D01*
Y480945D01*
X256332Y480992D01*
X256309Y481062D01*
X256238Y481156D01*
X256191Y481274D01*
X256121Y481415D01*
X255956Y481767D01*
X255792Y482214D01*
X255651Y482707D01*
X255557Y483271D01*
X255510Y483858D01*
X257530Y484046D01*
Y484023D01*
Y483999D01*
X257554Y483929D01*
Y483835D01*
X257601Y483623D01*
X257672Y483318D01*
X257766Y483013D01*
X257859Y482660D01*
X258024Y482331D01*
X258188Y482026D01*
X258212Y482002D01*
X258282Y481908D01*
X258400Y481744D01*
X258588Y481579D01*
X258823Y481368D01*
X259081Y481156D01*
X259434Y480945D01*
X259810Y480757D01*
X259833D01*
X259857Y480733D01*
X259927Y480710D01*
X259998Y480686D01*
X260233Y480616D01*
X260538Y480522D01*
X260914Y480428D01*
X261337Y480358D01*
X261807Y480311D01*
X262323Y480287D01*
X262535D01*
X262770Y480311D01*
X263052Y480334D01*
X263381Y480381D01*
X263757Y480428D01*
X264133Y480522D01*
X264485Y480639D01*
X264532Y480663D01*
X264650Y480710D01*
X264814Y480804D01*
X265026Y480898D01*
X265237Y481062D01*
X265472Y481227D01*
X265707Y481415D01*
X265895Y481650D01*
X265918Y481673D01*
X265965Y481767D01*
X266036Y481885D01*
X266130Y482073D01*
X266224Y482261D01*
X266294Y482496D01*
X266341Y482754D01*
X266365Y483036D01*
Y483060D01*
Y483177D01*
X266341Y483318D01*
X266318Y483506D01*
X266247Y483694D01*
X266177Y483929D01*
X266059Y484164D01*
X265895Y484375D01*
X265871Y484399D01*
X265801Y484469D01*
X265707Y484563D01*
X265542Y484704D01*
X265354Y484845D01*
X265096Y485009D01*
X264790Y485174D01*
X264438Y485315D01*
X264415Y485339D01*
X264297Y485362D01*
X264109Y485433D01*
X263992Y485456D01*
X263827Y485503D01*
X263663Y485573D01*
X263451Y485620D01*
X263216Y485691D01*
X262934Y485761D01*
X262652Y485832D01*
X262323Y485926D01*
X261948Y486020D01*
X261548Y486114D01*
X261525D01*
X261454Y486137D01*
X261337Y486161D01*
X261196Y486208D01*
X261008Y486255D01*
X260796Y486302D01*
X260326Y486443D01*
X259810Y486607D01*
X259269Y486772D01*
X258799Y486936D01*
X258588Y487030D01*
X258400Y487124D01*
X258376D01*
X258353Y487148D01*
X258212Y487242D01*
X258000Y487359D01*
X257766Y487547D01*
X257484Y487758D01*
X257202Y488017D01*
X256920Y488322D01*
X256685Y488651D01*
X256661Y488698D01*
X256591Y488816D01*
X256497Y489004D01*
X256403Y489239D01*
X256309Y489544D01*
X256215Y489897D01*
X256144Y490272D01*
X256121Y490672D01*
Y490695D01*
Y490719D01*
Y490789D01*
Y490883D01*
X256168Y491118D01*
X256215Y491424D01*
X256285Y491776D01*
X256403Y492175D01*
X256567Y492575D01*
X256802Y492974D01*
Y492998D01*
X256826Y493021D01*
X256943Y493162D01*
X257108Y493350D01*
X257319Y493585D01*
X257601Y493844D01*
X257953Y494126D01*
X258376Y494384D01*
X258846Y494619D01*
X258870D01*
X258917Y494642D01*
X258987Y494666D01*
X259081Y494713D01*
X259199Y494760D01*
X259363Y494807D01*
X259716Y494901D01*
X260162Y494995D01*
X260679Y495089D01*
X261219Y495159D01*
X261830Y495183D01*
X262136D01*
X262300Y495159D01*
D02*
G37*
G36*
X289860Y455150D02*
X297871D01*
Y453224D01*
X287698D01*
Y469482D01*
X289860D01*
Y455150D01*
D02*
G37*
G36*
X278817Y469741D02*
X279028Y469717D01*
X279287Y469694D01*
X279545Y469670D01*
X279851Y469600D01*
X280485Y469459D01*
X281190Y469247D01*
X281542Y469106D01*
X281871Y468942D01*
X282200Y468730D01*
X282529Y468519D01*
X282553Y468495D01*
X282600Y468472D01*
X282694Y468401D01*
X282811Y468284D01*
X282929Y468166D01*
X283093Y468002D01*
X283258Y467814D01*
X283445Y467626D01*
X283633Y467391D01*
X283822Y467109D01*
X284033Y466827D01*
X284221Y466522D01*
X284385Y466169D01*
X284573Y465817D01*
X284714Y465441D01*
X284855Y465018D01*
X282741Y464525D01*
Y464548D01*
X282717Y464595D01*
X282670Y464689D01*
X282623Y464807D01*
X282576Y464948D01*
X282506Y465136D01*
X282318Y465512D01*
X282083Y465934D01*
X281801Y466357D01*
X281448Y466757D01*
X281073Y467109D01*
X281026Y467156D01*
X280885Y467250D01*
X280650Y467368D01*
X280344Y467532D01*
X279945Y467673D01*
X279498Y467814D01*
X278958Y467908D01*
X278371Y467932D01*
X278183D01*
X278065Y467908D01*
X277901D01*
X277713Y467884D01*
X277266Y467814D01*
X276773Y467720D01*
X276256Y467556D01*
X275716Y467321D01*
X275222Y467015D01*
X275199D01*
X275175Y466968D01*
X275011Y466851D01*
X274799Y466663D01*
X274541Y466381D01*
X274235Y466028D01*
X273954Y465629D01*
X273695Y465136D01*
X273460Y464595D01*
Y464572D01*
X273437Y464525D01*
X273413Y464454D01*
X273390Y464337D01*
X273343Y464196D01*
X273296Y464031D01*
X273225Y463632D01*
X273131Y463162D01*
X273037Y462645D01*
X272990Y462081D01*
X272967Y461470D01*
Y461447D01*
Y461376D01*
Y461259D01*
Y461118D01*
X272990Y460953D01*
Y460742D01*
X273014Y460507D01*
X273037Y460249D01*
X273108Y459685D01*
X273225Y459074D01*
X273366Y458463D01*
X273554Y457852D01*
Y457829D01*
X273578Y457782D01*
X273625Y457711D01*
X273672Y457594D01*
X273813Y457312D01*
X274024Y456983D01*
X274282Y456607D01*
X274611Y456208D01*
X274987Y455855D01*
X275434Y455526D01*
X275457D01*
X275504Y455503D01*
X275575Y455456D01*
X275669Y455409D01*
X275786Y455362D01*
X275927Y455291D01*
X276256Y455150D01*
X276679Y455009D01*
X277149Y454892D01*
X277666Y454798D01*
X278206Y454774D01*
X278371D01*
X278512Y454798D01*
X278676D01*
X278841Y454821D01*
X279263Y454915D01*
X279757Y455033D01*
X280250Y455221D01*
X280767Y455479D01*
X281026Y455620D01*
X281261Y455808D01*
X281284Y455831D01*
X281308Y455855D01*
X281378Y455925D01*
X281472Y455996D01*
X281566Y456114D01*
X281683Y456255D01*
X281824Y456395D01*
X281942Y456583D01*
X282083Y456795D01*
X282247Y457030D01*
X282388Y457265D01*
X282529Y457547D01*
X282647Y457852D01*
X282764Y458181D01*
X282882Y458534D01*
X282976Y458909D01*
X285137Y458369D01*
Y458345D01*
X285114Y458251D01*
X285067Y458111D01*
X284996Y457923D01*
X284926Y457711D01*
X284832Y457453D01*
X284714Y457171D01*
X284573Y456865D01*
X284244Y456208D01*
X283822Y455550D01*
X283563Y455221D01*
X283305Y454892D01*
X283023Y454610D01*
X282694Y454328D01*
X282670Y454304D01*
X282623Y454257D01*
X282506Y454210D01*
X282388Y454116D01*
X282200Y453999D01*
X282012Y453881D01*
X281754Y453764D01*
X281495Y453647D01*
X281190Y453506D01*
X280861Y453388D01*
X280509Y453271D01*
X280133Y453153D01*
X279733Y453059D01*
X279310Y453012D01*
X278864Y452965D01*
X278394Y452942D01*
X278136D01*
X277948Y452965D01*
X277736D01*
X277478Y452989D01*
X277196Y453036D01*
X276867Y453083D01*
X276186Y453200D01*
X275481Y453388D01*
X274776Y453647D01*
X274447Y453811D01*
X274118Y453999D01*
X274095Y454022D01*
X274048Y454046D01*
X273954Y454116D01*
X273860Y454210D01*
X273719Y454304D01*
X273554Y454445D01*
X273366Y454610D01*
X273178Y454798D01*
X272990Y455009D01*
X272779Y455221D01*
X272356Y455761D01*
X271957Y456395D01*
X271604Y457100D01*
Y457124D01*
X271557Y457194D01*
X271534Y457312D01*
X271463Y457453D01*
X271416Y457641D01*
X271346Y457876D01*
X271252Y458134D01*
X271181Y458416D01*
X271111Y458721D01*
X271017Y459074D01*
X270899Y459802D01*
X270805Y460625D01*
X270758Y461470D01*
Y461494D01*
Y461588D01*
Y461729D01*
X270782Y461893D01*
Y462128D01*
X270805Y462363D01*
X270829Y462669D01*
X270876Y462974D01*
X270993Y463655D01*
X271158Y464407D01*
X271393Y465159D01*
X271721Y465887D01*
X271745Y465911D01*
X271768Y465981D01*
X271815Y466075D01*
X271910Y466193D01*
X272003Y466357D01*
X272121Y466545D01*
X272426Y466968D01*
X272826Y467438D01*
X273296Y467908D01*
X273836Y468378D01*
X274470Y468777D01*
X274494Y468801D01*
X274564Y468824D01*
X274658Y468871D01*
X274776Y468942D01*
X274964Y469012D01*
X275152Y469083D01*
X275387Y469177D01*
X275645Y469271D01*
X275927Y469365D01*
X276233Y469459D01*
X276890Y469600D01*
X277642Y469717D01*
X278418Y469764D01*
X278653D01*
X278817Y469741D01*
D02*
G37*
G36*
X262300D02*
X262465D01*
X262911Y469694D01*
X263404Y469623D01*
X263921Y469506D01*
X264485Y469365D01*
X265002Y469177D01*
X265026D01*
X265072Y469153D01*
X265143Y469106D01*
X265237Y469059D01*
X265472Y468942D01*
X265777Y468730D01*
X266130Y468495D01*
X266482Y468190D01*
X266811Y467837D01*
X267117Y467438D01*
Y467415D01*
X267140Y467391D01*
X267187Y467321D01*
X267234Y467250D01*
X267351Y467015D01*
X267492Y466710D01*
X267657Y466334D01*
X267774Y465887D01*
X267892Y465418D01*
X267939Y464901D01*
X265871Y464736D01*
Y464760D01*
Y464807D01*
X265848Y464877D01*
X265824Y464995D01*
X265754Y465253D01*
X265660Y465606D01*
X265519Y465981D01*
X265307Y466357D01*
X265049Y466710D01*
X264720Y467039D01*
X264673Y467062D01*
X264556Y467156D01*
X264321Y467297D01*
X264015Y467438D01*
X263616Y467579D01*
X263146Y467720D01*
X262558Y467814D01*
X261901Y467837D01*
X261572D01*
X261431Y467814D01*
X261243Y467790D01*
X260820Y467743D01*
X260350Y467649D01*
X259880Y467532D01*
X259434Y467344D01*
X259246Y467227D01*
X259058Y467109D01*
X259011Y467086D01*
X258917Y466992D01*
X258776Y466827D01*
X258635Y466639D01*
X258470Y466381D01*
X258329Y466099D01*
X258235Y465770D01*
X258188Y465394D01*
Y465347D01*
Y465253D01*
X258212Y465089D01*
X258259Y464901D01*
X258329Y464666D01*
X258447Y464431D01*
X258588Y464196D01*
X258799Y463961D01*
X258823Y463937D01*
X258940Y463867D01*
X259034Y463796D01*
X259128Y463749D01*
X259269Y463679D01*
X259434Y463585D01*
X259645Y463514D01*
X259880Y463420D01*
X260138Y463326D01*
X260444Y463209D01*
X260773Y463115D01*
X261149Y462998D01*
X261572Y462904D01*
X262042Y462786D01*
X262065D01*
X262159Y462763D01*
X262300Y462739D01*
X262465Y462692D01*
X262676Y462645D01*
X262934Y462575D01*
X263193Y462504D01*
X263475Y462434D01*
X264086Y462269D01*
X264673Y462105D01*
X264955Y462011D01*
X265213Y461917D01*
X265448Y461846D01*
X265636Y461752D01*
X265660D01*
X265707Y461729D01*
X265777Y461682D01*
X265871Y461635D01*
X266130Y461494D01*
X266435Y461306D01*
X266788Y461047D01*
X267140Y460765D01*
X267469Y460437D01*
X267751Y460084D01*
X267774Y460037D01*
X267868Y459920D01*
X267962Y459708D01*
X268103Y459426D01*
X268221Y459097D01*
X268338Y458698D01*
X268409Y458251D01*
X268432Y457782D01*
Y457758D01*
Y457735D01*
Y457664D01*
Y457570D01*
X268385Y457312D01*
X268338Y456983D01*
X268244Y456607D01*
X268127Y456208D01*
X267939Y455785D01*
X267680Y455338D01*
Y455315D01*
X267657Y455291D01*
X267539Y455150D01*
X267375Y454939D01*
X267140Y454704D01*
X266835Y454422D01*
X266459Y454116D01*
X266036Y453834D01*
X265542Y453576D01*
X265519D01*
X265472Y453553D01*
X265401Y453529D01*
X265307Y453482D01*
X265166Y453435D01*
X265002Y453365D01*
X264626Y453271D01*
X264180Y453153D01*
X263639Y453036D01*
X263052Y452965D01*
X262418Y452942D01*
X262042D01*
X261854Y452965D01*
X261642D01*
X261407Y452989D01*
X261125Y453012D01*
X260538Y453106D01*
X259927Y453200D01*
X259316Y453365D01*
X258729Y453576D01*
X258705D01*
X258658Y453600D01*
X258588Y453647D01*
X258494Y453694D01*
X258212Y453834D01*
X257883Y454046D01*
X257507Y454328D01*
X257108Y454657D01*
X256732Y455056D01*
X256379Y455503D01*
Y455526D01*
X256332Y455573D01*
X256309Y455644D01*
X256238Y455738D01*
X256191Y455855D01*
X256121Y455996D01*
X255956Y456348D01*
X255792Y456795D01*
X255651Y457288D01*
X255557Y457852D01*
X255510Y458439D01*
X257530Y458628D01*
Y458604D01*
Y458581D01*
X257554Y458510D01*
Y458416D01*
X257601Y458204D01*
X257672Y457899D01*
X257766Y457594D01*
X257859Y457241D01*
X258024Y456912D01*
X258188Y456607D01*
X258212Y456583D01*
X258282Y456489D01*
X258400Y456325D01*
X258588Y456161D01*
X258823Y455949D01*
X259081Y455738D01*
X259434Y455526D01*
X259810Y455338D01*
X259833D01*
X259857Y455315D01*
X259927Y455291D01*
X259998Y455268D01*
X260233Y455197D01*
X260538Y455103D01*
X260914Y455009D01*
X261337Y454939D01*
X261807Y454892D01*
X262323Y454868D01*
X262535D01*
X262770Y454892D01*
X263052Y454915D01*
X263381Y454962D01*
X263757Y455009D01*
X264133Y455103D01*
X264485Y455221D01*
X264532Y455244D01*
X264650Y455291D01*
X264814Y455385D01*
X265026Y455479D01*
X265237Y455644D01*
X265472Y455808D01*
X265707Y455996D01*
X265895Y456231D01*
X265918Y456255D01*
X265965Y456348D01*
X266036Y456466D01*
X266130Y456654D01*
X266224Y456842D01*
X266294Y457077D01*
X266341Y457335D01*
X266365Y457617D01*
Y457641D01*
Y457758D01*
X266341Y457899D01*
X266318Y458087D01*
X266247Y458275D01*
X266177Y458510D01*
X266059Y458745D01*
X265895Y458956D01*
X265871Y458980D01*
X265801Y459050D01*
X265707Y459144D01*
X265542Y459285D01*
X265354Y459426D01*
X265096Y459591D01*
X264790Y459755D01*
X264438Y459896D01*
X264415Y459920D01*
X264297Y459943D01*
X264109Y460014D01*
X263992Y460037D01*
X263827Y460084D01*
X263663Y460155D01*
X263451Y460202D01*
X263216Y460272D01*
X262934Y460343D01*
X262652Y460413D01*
X262323Y460507D01*
X261948Y460601D01*
X261548Y460695D01*
X261525D01*
X261454Y460718D01*
X261337Y460742D01*
X261196Y460789D01*
X261008Y460836D01*
X260796Y460883D01*
X260326Y461024D01*
X259810Y461188D01*
X259269Y461353D01*
X258799Y461517D01*
X258588Y461611D01*
X258400Y461705D01*
X258376D01*
X258353Y461729D01*
X258212Y461823D01*
X258000Y461940D01*
X257766Y462128D01*
X257484Y462340D01*
X257202Y462598D01*
X256920Y462904D01*
X256685Y463232D01*
X256661Y463279D01*
X256591Y463397D01*
X256497Y463585D01*
X256403Y463820D01*
X256309Y464125D01*
X256215Y464478D01*
X256144Y464854D01*
X256121Y465253D01*
Y465276D01*
Y465300D01*
Y465370D01*
Y465465D01*
X256168Y465699D01*
X256215Y466005D01*
X256285Y466357D01*
X256403Y466757D01*
X256567Y467156D01*
X256802Y467556D01*
Y467579D01*
X256826Y467603D01*
X256943Y467743D01*
X257108Y467932D01*
X257319Y468166D01*
X257601Y468425D01*
X257953Y468707D01*
X258376Y468965D01*
X258846Y469200D01*
X258870D01*
X258917Y469224D01*
X258987Y469247D01*
X259081Y469294D01*
X259199Y469341D01*
X259363Y469388D01*
X259716Y469482D01*
X260162Y469576D01*
X260679Y469670D01*
X261219Y469741D01*
X261830Y469764D01*
X262136D01*
X262300Y469741D01*
D02*
G37*
G36*
X264039Y504343D02*
X261783D01*
X255487Y520602D01*
X257836D01*
X262065Y508784D01*
Y508760D01*
X262089Y508713D01*
X262112Y508643D01*
X262159Y508549D01*
X262183Y508408D01*
X262229Y508267D01*
X262347Y507914D01*
X262488Y507515D01*
X262629Y507069D01*
X262911Y506129D01*
Y506152D01*
X262934Y506199D01*
X262958Y506270D01*
X262981Y506364D01*
X263052Y506622D01*
X263169Y506975D01*
X263287Y507374D01*
X263428Y507820D01*
X263592Y508290D01*
X263780Y508784D01*
X268197Y520602D01*
X270382D01*
X264039Y504343D01*
D02*
G37*
G36*
X296814Y545715D02*
X297284Y545691D01*
X297754Y545645D01*
X298224Y545574D01*
X298623Y545504D01*
X298647D01*
X298694Y545480D01*
X298764D01*
X298858Y545433D01*
X299117Y545363D01*
X299446Y545245D01*
X299821Y545081D01*
X300221Y544869D01*
X300620Y544634D01*
X300996Y544329D01*
X301020Y544305D01*
X301043Y544282D01*
X301114Y544211D01*
X301208Y544141D01*
X301443Y543906D01*
X301725Y543577D01*
X302030Y543178D01*
X302359Y542708D01*
X302664Y542167D01*
X302923Y541556D01*
Y541533D01*
X302946Y541486D01*
X302993Y541392D01*
X303017Y541251D01*
X303087Y541087D01*
X303134Y540899D01*
X303181Y540687D01*
X303252Y540429D01*
X303322Y540170D01*
X303369Y539865D01*
X303487Y539207D01*
X303557Y538479D01*
X303581Y537680D01*
Y537656D01*
Y537609D01*
Y537492D01*
Y537374D01*
X303557Y537210D01*
Y537022D01*
X303534Y536576D01*
X303463Y536059D01*
X303393Y535518D01*
X303275Y534954D01*
X303134Y534390D01*
Y534367D01*
X303111Y534320D01*
X303087Y534249D01*
X303064Y534156D01*
X302970Y533897D01*
X302829Y533568D01*
X302688Y533192D01*
X302500Y532816D01*
X302265Y532417D01*
X302030Y532041D01*
X302007Y531994D01*
X301913Y531876D01*
X301772Y531712D01*
X301584Y531501D01*
X301372Y531266D01*
X301114Y531031D01*
X300855Y530772D01*
X300550Y530561D01*
X300503Y530537D01*
X300409Y530467D01*
X300245Y530373D01*
X300009Y530255D01*
X299728Y530114D01*
X299399Y529997D01*
X299023Y529856D01*
X298600Y529738D01*
X298553D01*
X298482Y529715D01*
X298412Y529691D01*
X298177Y529668D01*
X297848Y529621D01*
X297472Y529574D01*
X297026Y529527D01*
X296532Y529504D01*
X295992Y529480D01*
X290142D01*
Y545738D01*
X296391D01*
X296814Y545715D01*
D02*
G37*
G36*
X286523Y529480D02*
X284291D01*
X275786Y542238D01*
Y529480D01*
X273719D01*
Y545738D01*
X275927D01*
X284456Y532957D01*
Y545738D01*
X286523D01*
Y529480D01*
D02*
G37*
G36*
X264086Y545997D02*
X264274D01*
X264720Y545950D01*
X265213Y545880D01*
X265730Y545762D01*
X266294Y545621D01*
X266835Y545433D01*
X266858D01*
X266905Y545410D01*
X266975Y545386D01*
X267069Y545339D01*
X267328Y545198D01*
X267657Y545034D01*
X268009Y544799D01*
X268385Y544517D01*
X268738Y544211D01*
X269067Y543835D01*
X269114Y543788D01*
X269208Y543647D01*
X269349Y543436D01*
X269536Y543131D01*
X269725Y542755D01*
X269936Y542285D01*
X270147Y541768D01*
X270312Y541180D01*
X268362Y540664D01*
Y540687D01*
X268338Y540711D01*
X268315Y540781D01*
X268291Y540875D01*
X268221Y541087D01*
X268127Y541368D01*
X267986Y541697D01*
X267821Y542003D01*
X267657Y542332D01*
X267445Y542614D01*
X267422Y542637D01*
X267351Y542731D01*
X267211Y542849D01*
X267046Y543013D01*
X266835Y543201D01*
X266553Y543389D01*
X266247Y543577D01*
X265895Y543741D01*
X265848Y543765D01*
X265730Y543812D01*
X265519Y543882D01*
X265237Y543976D01*
X264908Y544047D01*
X264532Y544117D01*
X264109Y544164D01*
X263663Y544188D01*
X263404D01*
X263287Y544164D01*
X263146D01*
X262793Y544141D01*
X262394Y544070D01*
X261948Y544000D01*
X261525Y543882D01*
X261102Y543718D01*
X261055Y543694D01*
X260914Y543647D01*
X260726Y543530D01*
X260491Y543413D01*
X260209Y543225D01*
X259904Y543037D01*
X259622Y542802D01*
X259363Y542543D01*
X259340Y542520D01*
X259246Y542426D01*
X259128Y542261D01*
X258987Y542073D01*
X258823Y541838D01*
X258658Y541556D01*
X258494Y541251D01*
X258329Y540922D01*
Y540899D01*
X258306Y540852D01*
X258282Y540781D01*
X258235Y540664D01*
X258188Y540523D01*
X258141Y540358D01*
X258071Y540170D01*
X258024Y539959D01*
X257906Y539465D01*
X257812Y538901D01*
X257742Y538314D01*
X257719Y537656D01*
Y537633D01*
Y537562D01*
Y537445D01*
X257742Y537304D01*
Y537116D01*
X257766Y536881D01*
X257789Y536646D01*
X257812Y536387D01*
X257906Y535800D01*
X258024Y535189D01*
X258212Y534578D01*
X258447Y533991D01*
Y533968D01*
X258494Y533921D01*
X258517Y533850D01*
X258588Y533756D01*
X258752Y533498D01*
X259011Y533169D01*
X259316Y532816D01*
X259692Y532464D01*
X260138Y532135D01*
X260632Y531829D01*
X260655D01*
X260702Y531806D01*
X260773Y531759D01*
X260890Y531712D01*
X261008Y531665D01*
X261172Y531618D01*
X261548Y531477D01*
X262018Y531360D01*
X262535Y531242D01*
X263099Y531148D01*
X263686Y531125D01*
X263921D01*
X264062Y531148D01*
X264203D01*
X264556Y531195D01*
X264979Y531242D01*
X265425Y531336D01*
X265918Y531477D01*
X266412Y531642D01*
X266435D01*
X266482Y531665D01*
X266529Y531688D01*
X266623Y531735D01*
X266882Y531853D01*
X267164Y531994D01*
X267492Y532158D01*
X267845Y532346D01*
X268174Y532558D01*
X268456Y532793D01*
Y535847D01*
X263663D01*
Y537774D01*
X270570D01*
Y531735D01*
X270547Y531712D01*
X270500Y531688D01*
X270406Y531618D01*
X270288Y531524D01*
X270147Y531430D01*
X269983Y531313D01*
X269771Y531172D01*
X269560Y531031D01*
X269067Y530725D01*
X268503Y530396D01*
X267915Y530091D01*
X267281Y529832D01*
X267257D01*
X267211Y529809D01*
X267117Y529785D01*
X266999Y529738D01*
X266835Y529691D01*
X266647Y529621D01*
X266435Y529574D01*
X266224Y529527D01*
X265707Y529409D01*
X265119Y529292D01*
X264485Y529221D01*
X263827Y529198D01*
X263592D01*
X263428Y529221D01*
X263216D01*
X262958Y529245D01*
X262676Y529292D01*
X262370Y529315D01*
X261689Y529456D01*
X260961Y529621D01*
X260209Y529879D01*
X259833Y530020D01*
X259457Y530208D01*
X259434Y530232D01*
X259363Y530255D01*
X259269Y530326D01*
X259128Y530396D01*
X258964Y530514D01*
X258799Y530631D01*
X258353Y530960D01*
X257883Y531383D01*
X257390Y531900D01*
X256920Y532487D01*
X256497Y533169D01*
Y533192D01*
X256450Y533263D01*
X256403Y533357D01*
X256332Y533521D01*
X256262Y533686D01*
X256191Y533921D01*
X256097Y534156D01*
X256003Y534437D01*
X255909Y534743D01*
X255815Y535095D01*
X255745Y535448D01*
X255674Y535824D01*
X255557Y536646D01*
X255510Y537515D01*
Y537539D01*
Y537633D01*
Y537750D01*
X255534Y537915D01*
Y538126D01*
X255557Y538385D01*
X255604Y538643D01*
X255627Y538949D01*
X255698Y539277D01*
X255745Y539630D01*
X255933Y540382D01*
X256168Y541157D01*
X256497Y541932D01*
X256520Y541956D01*
X256544Y542026D01*
X256591Y542120D01*
X256685Y542261D01*
X256779Y542449D01*
X256896Y542637D01*
X257225Y543084D01*
X257624Y543601D01*
X258118Y544094D01*
X258682Y544587D01*
X259011Y544799D01*
X259340Y545010D01*
X259363Y545034D01*
X259434Y545057D01*
X259528Y545104D01*
X259669Y545175D01*
X259857Y545245D01*
X260068Y545339D01*
X260303Y545433D01*
X260585Y545527D01*
X260890Y545621D01*
X261219Y545691D01*
X261572Y545785D01*
X261948Y545856D01*
X262770Y545974D01*
X263193Y546021D01*
X263945D01*
X264086Y545997D01*
D02*
G37*
G36*
X296156Y520860D02*
X296368Y520837D01*
X296626Y520813D01*
X296885Y520790D01*
X297190Y520719D01*
X297824Y520578D01*
X298529Y520367D01*
X298882Y520226D01*
X299211Y520061D01*
X299540Y519850D01*
X299869Y519638D01*
X299892Y519615D01*
X299939Y519591D01*
X300033Y519521D01*
X300151Y519403D01*
X300268Y519286D01*
X300432Y519122D01*
X300597Y518933D01*
X300785Y518746D01*
X300973Y518511D01*
X301161Y518229D01*
X301372Y517947D01*
X301560Y517641D01*
X301725Y517289D01*
X301913Y516936D01*
X302054Y516561D01*
X302194Y516138D01*
X300080Y515644D01*
Y515668D01*
X300056Y515715D01*
X300009Y515809D01*
X299963Y515926D01*
X299916Y516067D01*
X299845Y516255D01*
X299657Y516631D01*
X299422Y517054D01*
X299140Y517477D01*
X298788Y517876D01*
X298412Y518229D01*
X298365Y518276D01*
X298224Y518370D01*
X297989Y518487D01*
X297684Y518652D01*
X297284Y518793D01*
X296838Y518933D01*
X296297Y519027D01*
X295710Y519051D01*
X295522D01*
X295404Y519027D01*
X295240D01*
X295052Y519004D01*
X294606Y518933D01*
X294112Y518840D01*
X293595Y518675D01*
X293055Y518440D01*
X292562Y518135D01*
X292538D01*
X292515Y518088D01*
X292350Y517970D01*
X292139Y517782D01*
X291880Y517500D01*
X291575Y517148D01*
X291293Y516749D01*
X291034Y516255D01*
X290800Y515715D01*
Y515691D01*
X290776Y515644D01*
X290753Y515574D01*
X290729Y515456D01*
X290682Y515315D01*
X290635Y515151D01*
X290564Y514751D01*
X290471Y514282D01*
X290377Y513765D01*
X290330Y513201D01*
X290306Y512590D01*
Y512566D01*
Y512496D01*
Y512378D01*
Y512238D01*
X290330Y512073D01*
Y511861D01*
X290353Y511627D01*
X290377Y511368D01*
X290447Y510804D01*
X290564Y510193D01*
X290706Y509582D01*
X290893Y508972D01*
Y508948D01*
X290917Y508901D01*
X290964Y508831D01*
X291011Y508713D01*
X291152Y508431D01*
X291363Y508102D01*
X291622Y507726D01*
X291951Y507327D01*
X292327Y506975D01*
X292773Y506646D01*
X292796D01*
X292843Y506622D01*
X292914Y506575D01*
X293008Y506528D01*
X293125Y506481D01*
X293266Y506411D01*
X293595Y506270D01*
X294018Y506129D01*
X294488Y506011D01*
X295005Y505917D01*
X295546Y505894D01*
X295710D01*
X295851Y505917D01*
X296015D01*
X296180Y505941D01*
X296603Y506035D01*
X297096Y506152D01*
X297589Y506340D01*
X298106Y506599D01*
X298365Y506740D01*
X298600Y506928D01*
X298623Y506951D01*
X298647Y506975D01*
X298717Y507045D01*
X298811Y507116D01*
X298905Y507233D01*
X299023Y507374D01*
X299164Y507515D01*
X299281Y507703D01*
X299422Y507914D01*
X299587Y508149D01*
X299728Y508384D01*
X299869Y508666D01*
X299986Y508972D01*
X300103Y509301D01*
X300221Y509653D01*
X300315Y510029D01*
X302477Y509488D01*
Y509465D01*
X302453Y509371D01*
X302406Y509230D01*
X302335Y509042D01*
X302265Y508831D01*
X302171Y508572D01*
X302054Y508290D01*
X301913Y507985D01*
X301584Y507327D01*
X301161Y506669D01*
X300902Y506340D01*
X300644Y506011D01*
X300362Y505729D01*
X300033Y505447D01*
X300009Y505424D01*
X299963Y505377D01*
X299845Y505330D01*
X299728Y505236D01*
X299540Y505118D01*
X299352Y505001D01*
X299093Y504883D01*
X298835Y504766D01*
X298529Y504625D01*
X298200Y504508D01*
X297848Y504390D01*
X297472Y504273D01*
X297073Y504179D01*
X296650Y504132D01*
X296203Y504085D01*
X295733Y504061D01*
X295475D01*
X295287Y504085D01*
X295076D01*
X294817Y504108D01*
X294535Y504155D01*
X294206Y504202D01*
X293525Y504320D01*
X292820Y504508D01*
X292115Y504766D01*
X291786Y504930D01*
X291457Y505118D01*
X291434Y505142D01*
X291387Y505165D01*
X291293Y505236D01*
X291199Y505330D01*
X291058Y505424D01*
X290893Y505565D01*
X290706Y505729D01*
X290518Y505917D01*
X290330Y506129D01*
X290118Y506340D01*
X289695Y506881D01*
X289296Y507515D01*
X288943Y508220D01*
Y508243D01*
X288896Y508314D01*
X288873Y508431D01*
X288802Y508572D01*
X288755Y508760D01*
X288685Y508995D01*
X288591Y509254D01*
X288521Y509535D01*
X288450Y509841D01*
X288356Y510193D01*
X288239Y510922D01*
X288144Y511744D01*
X288097Y512590D01*
Y512613D01*
Y512707D01*
Y512848D01*
X288121Y513013D01*
Y513248D01*
X288144Y513483D01*
X288168Y513788D01*
X288215Y514094D01*
X288333Y514775D01*
X288497Y515527D01*
X288732Y516279D01*
X289061Y517007D01*
X289084Y517030D01*
X289108Y517101D01*
X289155Y517195D01*
X289249Y517312D01*
X289343Y517477D01*
X289460Y517665D01*
X289766Y518088D01*
X290165Y518558D01*
X290635Y519027D01*
X291175Y519497D01*
X291810Y519897D01*
X291833Y519920D01*
X291904Y519944D01*
X291998Y519991D01*
X292115Y520061D01*
X292303Y520132D01*
X292491Y520202D01*
X292726Y520296D01*
X292985Y520390D01*
X293266Y520484D01*
X293572Y520578D01*
X294230Y520719D01*
X294982Y520837D01*
X295757Y520884D01*
X295992D01*
X296156Y520860D01*
D02*
G37*
G36*
X279757D02*
X279968Y520837D01*
X280227Y520813D01*
X280485Y520790D01*
X280791Y520719D01*
X281425Y520578D01*
X282130Y520367D01*
X282482Y520226D01*
X282811Y520061D01*
X283140Y519850D01*
X283469Y519638D01*
X283493Y519615D01*
X283540Y519591D01*
X283633Y519521D01*
X283751Y519403D01*
X283868Y519286D01*
X284033Y519122D01*
X284197Y518933D01*
X284385Y518746D01*
X284573Y518511D01*
X284761Y518229D01*
X284973Y517947D01*
X285161Y517641D01*
X285325Y517289D01*
X285513Y516936D01*
X285654Y516561D01*
X285795Y516138D01*
X283680Y515644D01*
Y515668D01*
X283657Y515715D01*
X283610Y515809D01*
X283563Y515926D01*
X283516Y516067D01*
X283445Y516255D01*
X283258Y516631D01*
X283023Y517054D01*
X282741Y517477D01*
X282388Y517876D01*
X282012Y518229D01*
X281965Y518276D01*
X281824Y518370D01*
X281589Y518487D01*
X281284Y518652D01*
X280885Y518793D01*
X280438Y518933D01*
X279898Y519027D01*
X279310Y519051D01*
X279123D01*
X279005Y519027D01*
X278841D01*
X278653Y519004D01*
X278206Y518933D01*
X277713Y518840D01*
X277196Y518675D01*
X276656Y518440D01*
X276162Y518135D01*
X276139D01*
X276115Y518088D01*
X275951Y517970D01*
X275739Y517782D01*
X275481Y517500D01*
X275175Y517148D01*
X274893Y516749D01*
X274635Y516255D01*
X274400Y515715D01*
Y515691D01*
X274377Y515644D01*
X274353Y515574D01*
X274329Y515456D01*
X274282Y515315D01*
X274235Y515151D01*
X274165Y514751D01*
X274071Y514282D01*
X273977Y513765D01*
X273930Y513201D01*
X273907Y512590D01*
Y512566D01*
Y512496D01*
Y512378D01*
Y512238D01*
X273930Y512073D01*
Y511861D01*
X273954Y511627D01*
X273977Y511368D01*
X274048Y510804D01*
X274165Y510193D01*
X274306Y509582D01*
X274494Y508972D01*
Y508948D01*
X274517Y508901D01*
X274564Y508831D01*
X274611Y508713D01*
X274752Y508431D01*
X274964Y508102D01*
X275222Y507726D01*
X275551Y507327D01*
X275927Y506975D01*
X276374Y506646D01*
X276397D01*
X276444Y506622D01*
X276514Y506575D01*
X276609Y506528D01*
X276726Y506481D01*
X276867Y506411D01*
X277196Y506270D01*
X277619Y506129D01*
X278089Y506011D01*
X278606Y505917D01*
X279146Y505894D01*
X279310D01*
X279451Y505917D01*
X279616D01*
X279780Y505941D01*
X280203Y506035D01*
X280697Y506152D01*
X281190Y506340D01*
X281707Y506599D01*
X281965Y506740D01*
X282200Y506928D01*
X282224Y506951D01*
X282247Y506975D01*
X282318Y507045D01*
X282412Y507116D01*
X282506Y507233D01*
X282623Y507374D01*
X282764Y507515D01*
X282882Y507703D01*
X283023Y507914D01*
X283187Y508149D01*
X283328Y508384D01*
X283469Y508666D01*
X283587Y508972D01*
X283704Y509301D01*
X283822Y509653D01*
X283915Y510029D01*
X286077Y509488D01*
Y509465D01*
X286054Y509371D01*
X286007Y509230D01*
X285936Y509042D01*
X285865Y508831D01*
X285772Y508572D01*
X285654Y508290D01*
X285513Y507985D01*
X285184Y507327D01*
X284761Y506669D01*
X284503Y506340D01*
X284244Y506011D01*
X283962Y505729D01*
X283633Y505447D01*
X283610Y505424D01*
X283563Y505377D01*
X283445Y505330D01*
X283328Y505236D01*
X283140Y505118D01*
X282952Y505001D01*
X282694Y504883D01*
X282435Y504766D01*
X282130Y504625D01*
X281801Y504508D01*
X281448Y504390D01*
X281073Y504273D01*
X280673Y504179D01*
X280250Y504132D01*
X279804Y504085D01*
X279334Y504061D01*
X279076D01*
X278888Y504085D01*
X278676D01*
X278418Y504108D01*
X278136Y504155D01*
X277807Y504202D01*
X277125Y504320D01*
X276420Y504508D01*
X275716Y504766D01*
X275387Y504930D01*
X275058Y505118D01*
X275034Y505142D01*
X274987Y505165D01*
X274893Y505236D01*
X274799Y505330D01*
X274658Y505424D01*
X274494Y505565D01*
X274306Y505729D01*
X274118Y505917D01*
X273930Y506129D01*
X273719Y506340D01*
X273296Y506881D01*
X272896Y507515D01*
X272544Y508220D01*
Y508243D01*
X272497Y508314D01*
X272473Y508431D01*
X272403Y508572D01*
X272356Y508760D01*
X272285Y508995D01*
X272191Y509254D01*
X272121Y509535D01*
X272050Y509841D01*
X271957Y510193D01*
X271839Y510922D01*
X271745Y511744D01*
X271698Y512590D01*
Y512613D01*
Y512707D01*
Y512848D01*
X271721Y513013D01*
Y513248D01*
X271745Y513483D01*
X271768Y513788D01*
X271815Y514094D01*
X271933Y514775D01*
X272097Y515527D01*
X272332Y516279D01*
X272661Y517007D01*
X272685Y517030D01*
X272708Y517101D01*
X272755Y517195D01*
X272849Y517312D01*
X272943Y517477D01*
X273061Y517665D01*
X273366Y518088D01*
X273766Y518558D01*
X274235Y519027D01*
X274776Y519497D01*
X275410Y519897D01*
X275434Y519920D01*
X275504Y519944D01*
X275598Y519991D01*
X275716Y520061D01*
X275904Y520132D01*
X276092Y520202D01*
X276327Y520296D01*
X276585Y520390D01*
X276867Y520484D01*
X277172Y520578D01*
X277830Y520719D01*
X278582Y520837D01*
X279357Y520884D01*
X279592D01*
X279757Y520860D01*
D02*
G37*
%LPC*%
G36*
X293337Y493209D02*
Y493186D01*
X293313Y493139D01*
Y493045D01*
X293266Y492951D01*
X293243Y492786D01*
X293196Y492622D01*
X293102Y492223D01*
X292985Y491753D01*
X292820Y491236D01*
X292656Y490672D01*
X292444Y490084D01*
X290682Y485339D01*
X296180D01*
X294488Y489803D01*
Y489826D01*
X294465Y489897D01*
X294418Y490014D01*
X294371Y490155D01*
X294300Y490319D01*
X294230Y490531D01*
X294159Y490766D01*
X294065Y491001D01*
X293877Y491541D01*
X293689Y492105D01*
X293501Y492669D01*
X293337Y493209D01*
D02*
G37*
G36*
X277313Y492974D02*
X273554D01*
Y480569D01*
X277407D01*
X277572Y480592D01*
X277924Y480616D01*
X278324Y480639D01*
X278746Y480686D01*
X279169Y480757D01*
X279522Y480851D01*
X279569Y480874D01*
X279686Y480898D01*
X279851Y480968D01*
X280062Y481062D01*
X280297Y481203D01*
X280532Y481344D01*
X280767Y481509D01*
X281002Y481697D01*
X281026Y481744D01*
X281119Y481838D01*
X281261Y482002D01*
X281425Y482237D01*
X281613Y482543D01*
X281824Y482895D01*
X282012Y483294D01*
X282177Y483741D01*
Y483764D01*
X282200Y483811D01*
X282224Y483882D01*
X282247Y483976D01*
X282271Y484093D01*
X282318Y484258D01*
X282365Y484422D01*
X282412Y484610D01*
X282482Y485080D01*
X282553Y485620D01*
X282600Y486231D01*
X282623Y486889D01*
Y486913D01*
Y487007D01*
Y487124D01*
X282600Y487312D01*
Y487523D01*
X282576Y487758D01*
X282553Y488040D01*
X282529Y488322D01*
X282412Y488957D01*
X282271Y489615D01*
X282059Y490225D01*
X281918Y490531D01*
X281777Y490789D01*
Y490813D01*
X281730Y490860D01*
X281683Y490930D01*
X281636Y491024D01*
X281448Y491259D01*
X281213Y491541D01*
X280908Y491847D01*
X280556Y492152D01*
X280156Y492411D01*
X279733Y492622D01*
X279686Y492645D01*
X279569Y492669D01*
X279357Y492739D01*
X279052Y492810D01*
X278676Y492857D01*
X278206Y492927D01*
X277924Y492951D01*
X277619D01*
X277313Y492974D01*
D02*
G37*
G36*
X296062Y543812D02*
X292303D01*
Y531407D01*
X296156D01*
X296321Y531430D01*
X296673Y531454D01*
X297073Y531477D01*
X297495Y531524D01*
X297918Y531595D01*
X298271Y531688D01*
X298318Y531712D01*
X298435Y531735D01*
X298600Y531806D01*
X298811Y531900D01*
X299046Y532041D01*
X299281Y532182D01*
X299516Y532346D01*
X299751Y532534D01*
X299775Y532581D01*
X299869Y532675D01*
X300009Y532840D01*
X300174Y533075D01*
X300362Y533380D01*
X300573Y533733D01*
X300761Y534132D01*
X300926Y534578D01*
Y534602D01*
X300949Y534649D01*
X300973Y534719D01*
X300996Y534813D01*
X301020Y534931D01*
X301067Y535095D01*
X301114Y535260D01*
X301161Y535448D01*
X301231Y535918D01*
X301302Y536458D01*
X301349Y537069D01*
X301372Y537727D01*
Y537750D01*
Y537844D01*
Y537962D01*
X301349Y538150D01*
Y538361D01*
X301325Y538596D01*
X301302Y538878D01*
X301278Y539160D01*
X301161Y539794D01*
X301020Y540452D01*
X300808Y541063D01*
X300667Y541368D01*
X300526Y541627D01*
Y541650D01*
X300479Y541697D01*
X300432Y541768D01*
X300385Y541862D01*
X300198Y542097D01*
X299963Y542379D01*
X299657Y542684D01*
X299305Y542990D01*
X298905Y543248D01*
X298482Y543460D01*
X298435Y543483D01*
X298318Y543507D01*
X298106Y543577D01*
X297801Y543647D01*
X297425Y543694D01*
X296955Y543765D01*
X296673Y543788D01*
X296368D01*
X296062Y543812D01*
D02*
G37*
%LPD*%
D10*
X757658Y489500D02*
G03*
X757658Y489500I-60208J0D01*
G01*
X342950Y394040D02*
Y754040D01*
X1142950D01*
Y394040D02*
Y754040D01*
X342950Y394040D02*
X1142950D01*
X315510Y554280D02*
Y549202D01*
Y551741D01*
X330745D01*
X328206Y554280D01*
D11*
X520610Y800870D02*
Y818370D01*
Y800870D02*
X970860D01*
X520610Y818370D02*
X970860D01*
Y800870D02*
Y818370D01*
X657110Y654170D02*
Y799670D01*
X520610Y654170D02*
X657110D01*
X520610D02*
Y799120D01*
X247950Y250000D02*
Y850000D01*
X1480000D01*
Y250000D02*
Y850000D01*
X247950Y250000D02*
X1480000D01*
D38*
X1228150Y780000D02*
Y805000D01*
X1178150D02*
X1228150D01*
X1178150Y780000D02*
Y805000D01*
Y780000D02*
X1228150D01*
X1425450Y679240D02*
X1450450D01*
X1425450Y629240D02*
Y679240D01*
Y629240D02*
X1450450D01*
Y679240D01*
D39*
X1219400Y635950D02*
X1248640D01*
X1219400Y588450D02*
Y635950D01*
Y501950D02*
X1245800D01*
X1219400D02*
Y549450D01*
X1315160Y635950D02*
X1344400D01*
Y588450D02*
Y635950D01*
X1318000Y501950D02*
X1344400D01*
Y549450D01*
D40*
X1437110Y556990D02*
Y567990D01*
Y579990D02*
X1444110Y567990D01*
X1437110Y579990D02*
Y590990D01*
X1458110Y527990D02*
Y619990D01*
X1418110Y527990D02*
X1458110D01*
X1418110D02*
Y619990D01*
X1458110D01*
X1235900Y723000D02*
Y763000D01*
Y723000D02*
X1327900D01*
Y763000D01*
X1235900D02*
X1327900D01*
X1264900Y742000D02*
X1275900D01*
X1287900Y749000D01*
Y742000D02*
X1298900D01*
M02*
