G04*
G04 #@! TF.GenerationSoftware,Altium Limited,CircuitStudio,1.5.2 (1.5.2.30)*
G04*
G04 Layer_Color=11767835*
%FSLAX44Y44*%
%MOMM*%
G71*
G01*
G75*
%ADD11C,0.5000*%
G04:AMPARAMS|DCode=12|XSize=1.524mm|YSize=2mm|CornerRadius=0.381mm|HoleSize=0mm|Usage=FLASHONLY|Rotation=270.000|XOffset=0mm|YOffset=0mm|HoleType=Round|Shape=RoundedRectangle|*
%AMROUNDEDRECTD12*
21,1,1.5240,1.2380,0,0,270.0*
21,1,0.7620,2.0000,0,0,270.0*
1,1,0.7620,-0.6190,-0.3810*
1,1,0.7620,-0.6190,0.3810*
1,1,0.7620,0.6190,0.3810*
1,1,0.7620,0.6190,-0.3810*
%
%ADD12ROUNDEDRECTD12*%
%ADD13C,3.1800*%
%ADD14C,1.2500*%
%ADD15R,1.7780X1.7780*%
%ADD16C,1.7780*%
%ADD17R,1.7780X1.7780*%
%ADD18C,6.0000*%
%ADD19C,3.6000*%
%ADD20C,1.5000*%
%ADD21R,1.5000X1.5000*%
%ADD22C,2.4000*%
%ADD23C,2.0000*%
%ADD24C,2.1000*%
D11*
X247950Y250000D02*
Y850000D01*
X1480000D01*
Y250000D02*
Y850000D01*
X247950Y250000D02*
X1480000D01*
D12*
X320510Y534280D02*
D03*
Y508880D02*
D03*
Y483480D02*
D03*
Y458080D02*
D03*
D13*
X1117950Y419040D02*
D03*
Y729040D02*
D03*
X367950D02*
D03*
Y419040D02*
D03*
D14*
X697450Y514500D02*
D03*
Y464500D02*
D03*
D15*
X1215650Y792500D02*
D03*
D16*
X1190250Y792500D02*
D03*
X1437950Y641340D02*
D03*
D17*
X1437950Y666740D02*
D03*
D18*
X1432790Y803720D02*
D03*
X288290Y806086D02*
D03*
X591610Y696170D02*
D03*
D19*
X1224900Y568950D02*
D03*
X1338900D02*
D03*
D20*
X1256900Y643950D02*
D03*
X1281900D02*
D03*
X1306900D02*
D03*
X1256900Y498950D02*
D03*
D21*
X1306900D02*
D03*
D22*
X1438110Y541990D02*
D03*
Y605990D02*
D03*
X1249900Y743000D02*
D03*
X1313900D02*
D03*
D23*
X918210Y788670D02*
D03*
X943610D02*
D03*
X867410D02*
D03*
X842010D02*
D03*
X816610D02*
D03*
X791210D02*
D03*
X765810D02*
D03*
X740410D02*
D03*
X715010D02*
D03*
X689610D02*
D03*
D24*
X1033200Y793540D02*
D03*
X1148200D02*
D03*
X1109867D02*
D03*
X1071533D02*
D03*
M02*
