G04*
G04 #@! TF.GenerationSoftware,Altium Limited,CircuitStudio,1.5.2 (1.5.2.30)*
G04*
G04 Layer_Color=11767835*
%FSLAX44Y44*%
%MOMM*%
G71*
G01*
G75*
%ADD11C,0.5000*%
G04:AMPARAMS|DCode=12|XSize=1.524mm|YSize=2mm|CornerRadius=0.381mm|HoleSize=0mm|Usage=FLASHONLY|Rotation=270.000|XOffset=0mm|YOffset=0mm|HoleType=Round|Shape=RoundedRectangle|*
%AMROUNDEDRECTD12*
21,1,1.5240,1.2380,0,0,270.0*
21,1,0.7620,2.0000,0,0,270.0*
1,1,0.7620,-0.6190,-0.3810*
1,1,0.7620,-0.6190,0.3810*
1,1,0.7620,0.6190,0.3810*
1,1,0.7620,0.6190,-0.3810*
%
%ADD12ROUNDEDRECTD12*%
%ADD13C,3.1800*%
%ADD14C,1.2500*%
%ADD15R,1.7780X1.7780*%
%ADD16C,1.7780*%
%ADD17R,1.7780X1.7780*%
%ADD18C,6.0000*%
%ADD19C,3.6000*%
%ADD20C,1.5000*%
%ADD21R,1.5000X1.5000*%
%ADD22C,2.4000*%
%ADD23C,2.0000*%
%ADD24C,2.1000*%
%ADD26R,1.3000X0.7000*%
%ADD27R,0.7000X1.3000*%
%ADD28R,1.6000X1.3000*%
%ADD29R,0.9144X0.8128*%
%ADD30R,0.6000X1.0000*%
%ADD31R,1.6000X0.9500*%
%ADD32R,0.6000X2.0000*%
%ADD33R,0.7000X4.2000*%
%ADD34R,1.5240X1.0000*%
%ADD35R,1.3000X1.6000*%
%ADD36O,1.4000X0.3500*%
%ADD37R,13.0000X14.0000*%
D11*
X247950Y250000D02*
Y850000D01*
X1480000D01*
Y250000D02*
Y850000D01*
X247950Y250000D02*
X1480000D01*
D12*
X320510Y534280D02*
D03*
Y508880D02*
D03*
Y483480D02*
D03*
Y458080D02*
D03*
D13*
X1117950Y419040D02*
D03*
Y729040D02*
D03*
X367950D02*
D03*
Y419040D02*
D03*
D14*
X697450Y514500D02*
D03*
Y464500D02*
D03*
D15*
X1215650Y792500D02*
D03*
D16*
X1190250Y792500D02*
D03*
X1437950Y641340D02*
D03*
D17*
X1437950Y666740D02*
D03*
D18*
X1432790Y803720D02*
D03*
X288290Y806086D02*
D03*
X591610Y696170D02*
D03*
D19*
X1224900Y568950D02*
D03*
X1338900D02*
D03*
D20*
X1256900Y643950D02*
D03*
X1281900D02*
D03*
X1306900D02*
D03*
X1256900Y498950D02*
D03*
D21*
X1306900D02*
D03*
D22*
X1438110Y541990D02*
D03*
Y605990D02*
D03*
X1249900Y743000D02*
D03*
X1313900D02*
D03*
D23*
X918210Y788670D02*
D03*
X943610D02*
D03*
X867410D02*
D03*
X842010D02*
D03*
X816610D02*
D03*
X791210D02*
D03*
X765810D02*
D03*
X740410D02*
D03*
X715010D02*
D03*
X689610D02*
D03*
D24*
X1033200Y793540D02*
D03*
X1148200D02*
D03*
X1109867D02*
D03*
X1071533D02*
D03*
D26*
X578950Y301540D02*
D03*
Y320540D02*
D03*
X579425Y377873D02*
D03*
Y396873D02*
D03*
X635925Y378521D02*
D03*
Y397521D02*
D03*
X579425Y339707D02*
D03*
Y358707D02*
D03*
X635925Y340501D02*
D03*
Y359501D02*
D03*
Y302482D02*
D03*
Y321482D02*
D03*
X420950Y373040D02*
D03*
Y392040D02*
D03*
X579425Y416040D02*
D03*
Y435040D02*
D03*
X635925Y416540D02*
D03*
Y435540D02*
D03*
X1249450Y697040D02*
D03*
Y678040D02*
D03*
X1351450Y698040D02*
D03*
Y679040D02*
D03*
X918950Y743540D02*
D03*
Y724540D02*
D03*
X1268450Y678040D02*
D03*
Y697040D02*
D03*
X1178720Y636900D02*
D03*
Y617900D02*
D03*
X1198450Y637040D02*
D03*
Y618040D02*
D03*
X1371450Y698040D02*
D03*
Y679040D02*
D03*
X397950Y493540D02*
D03*
Y474540D02*
D03*
X1381450Y600040D02*
D03*
Y581040D02*
D03*
X377950Y493540D02*
D03*
Y474540D02*
D03*
X1167450Y758540D02*
D03*
Y739540D02*
D03*
X715450Y315348D02*
D03*
Y296348D02*
D03*
X704950Y376848D02*
D03*
Y395848D02*
D03*
D27*
X469450Y504040D02*
D03*
X488450D02*
D03*
X470450Y469040D02*
D03*
X489450D02*
D03*
X732950Y293848D02*
D03*
X751950D02*
D03*
X722450Y396348D02*
D03*
X741450D02*
D03*
X751950Y313848D02*
D03*
X732950D02*
D03*
X722450Y376348D02*
D03*
X741450D02*
D03*
D28*
X792950Y396848D02*
D03*
Y377848D02*
D03*
X771450Y313848D02*
D03*
Y294848D02*
D03*
X377960Y533506D02*
D03*
Y514506D02*
D03*
D29*
X724038Y353424D02*
D03*
Y334272D02*
D03*
X702862Y343924D02*
D03*
X772862Y334272D02*
D03*
Y353424D02*
D03*
X794038Y343772D02*
D03*
X737862Y334272D02*
D03*
Y353424D02*
D03*
X759038Y343772D02*
D03*
X596362Y416511D02*
D03*
Y435662D02*
D03*
X617538Y426011D02*
D03*
X448538Y503616D02*
D03*
Y484464D02*
D03*
X427362Y494116D02*
D03*
X448538Y468616D02*
D03*
Y449464D02*
D03*
X427362Y459116D02*
D03*
X617538Y311452D02*
D03*
X596362Y321104D02*
D03*
Y301952D02*
D03*
X617538Y349638D02*
D03*
X596362Y359290D02*
D03*
Y340138D02*
D03*
X617538Y387824D02*
D03*
X596362Y397476D02*
D03*
Y378324D02*
D03*
D30*
X774950Y399850D02*
D03*
X755950D02*
D03*
Y373846D02*
D03*
X765450D02*
D03*
X774950D02*
D03*
D31*
X1032950Y811540D02*
D03*
Y775540D02*
D03*
X1147950D02*
D03*
Y811540D02*
D03*
X1109617Y775540D02*
D03*
Y811540D02*
D03*
X1071283Y775540D02*
D03*
Y811540D02*
D03*
D32*
X1027950Y550040D02*
D03*
X1017950D02*
D03*
X1007950D02*
D03*
X997950D02*
D03*
X987950D02*
D03*
X977950D02*
D03*
X967950D02*
D03*
X957950D02*
D03*
X947950D02*
D03*
X937950D02*
D03*
X927950D02*
D03*
X917950D02*
D03*
X907950D02*
D03*
X897950D02*
D03*
X887950D02*
D03*
X877950D02*
D03*
X867950D02*
D03*
X857950D02*
D03*
X847950D02*
D03*
X837950D02*
D03*
D33*
X827950Y529040D02*
D03*
X1037950D02*
D03*
D34*
X1228450Y695700D02*
D03*
Y675380D02*
D03*
X1330450Y696700D02*
D03*
Y676380D02*
D03*
X1157450Y636700D02*
D03*
Y616380D02*
D03*
X1402450Y599700D02*
D03*
Y579380D02*
D03*
X1188440Y758130D02*
D03*
Y737810D02*
D03*
X397950Y513880D02*
D03*
Y534200D02*
D03*
D35*
X806450Y731040D02*
D03*
X787450D02*
D03*
X511450Y430540D02*
D03*
X492450D02*
D03*
D36*
X501450Y411290D02*
D03*
Y404790D02*
D03*
Y398290D02*
D03*
Y391790D02*
D03*
Y385290D02*
D03*
Y378790D02*
D03*
Y372290D02*
D03*
Y365790D02*
D03*
X445450Y411290D02*
D03*
Y404790D02*
D03*
Y398290D02*
D03*
Y391790D02*
D03*
Y385290D02*
D03*
Y378790D02*
D03*
Y372290D02*
D03*
Y365790D02*
D03*
D37*
X1412450Y321290D02*
D03*
X315450D02*
D03*
M02*
