G04*
G04 #@! TF.GenerationSoftware,Altium Limited,CircuitStudio,1.5.2 (1.5.2.30)*
G04*
G04 Layer_Color=128*
%FSLAX44Y44*%
%MOMM*%
G71*
G01*
G75*
%ADD11C,0.5000*%
%ADD75C,0.1270*%
D11*
X247950Y250000D02*
Y850000D01*
X1480000D01*
Y250000D02*
Y850000D01*
X247950Y250000D02*
X1480000D01*
D75*
X315510Y534280D02*
X325510D01*
X320510Y529280D02*
Y539280D01*
X315510Y508880D02*
X325510D01*
X320510Y503880D02*
Y513880D01*
X315510Y483480D02*
X325510D01*
X320510Y478480D02*
Y488480D01*
X315510Y458080D02*
X325510D01*
X320510Y453080D02*
Y463080D01*
X1102050Y419040D02*
X1133850D01*
X1117950Y403140D02*
Y434940D01*
X1102050Y729040D02*
X1133850D01*
X1117950Y713140D02*
Y744940D01*
X352050Y729040D02*
X383850D01*
X367950Y713140D02*
Y744940D01*
X352050Y419040D02*
X383850D01*
X367950Y403140D02*
Y434940D01*
X694200Y514500D02*
X700700D01*
X697450Y511250D02*
Y517750D01*
X694200Y464500D02*
X700700D01*
X697450Y461250D02*
Y467750D01*
X1210570Y792500D02*
X1220730D01*
X1215650Y787420D02*
Y797580D01*
X1185170Y792500D02*
X1195330D01*
X1190250Y787420D02*
Y797580D01*
X1432870Y666740D02*
X1443030D01*
X1437950Y661660D02*
Y671820D01*
X1432870Y641340D02*
X1443030D01*
X1437950Y636260D02*
Y646420D01*
X1417790Y803720D02*
X1447790D01*
X1432790Y788720D02*
Y818720D01*
X273290Y806086D02*
X303290D01*
X288290Y791086D02*
Y821086D01*
X1211900Y568950D02*
X1237900D01*
X1224900Y555950D02*
Y581950D01*
X1251900Y643950D02*
X1261900D01*
X1256900Y638950D02*
Y648950D01*
X1276900Y643950D02*
X1286900D01*
X1281900Y638950D02*
Y648950D01*
X1301900Y643950D02*
X1311900D01*
X1306900Y638950D02*
Y648950D01*
X1251900Y498950D02*
X1261900D01*
X1256900Y493950D02*
Y503950D01*
X1301900Y498950D02*
X1311900D01*
X1306900Y493950D02*
Y503950D01*
X1325900Y568950D02*
X1351900D01*
X1338900Y555950D02*
Y581950D01*
X1432110Y541990D02*
X1444110D01*
X1438110Y535990D02*
Y547990D01*
X1432110Y605990D02*
X1444110D01*
X1438110Y599990D02*
Y611990D01*
X1243900Y743000D02*
X1255900D01*
X1249900Y737000D02*
Y749000D01*
X1307900Y743000D02*
X1319900D01*
X1313900Y737000D02*
Y749000D01*
X913210Y788670D02*
X923210D01*
X918210Y783670D02*
Y793670D01*
X938610Y788670D02*
X948610D01*
X943610Y783670D02*
Y793670D01*
X574110Y696170D02*
X609110D01*
X591610Y678670D02*
Y713670D01*
X862410Y788670D02*
X872410D01*
X867410Y783670D02*
Y793670D01*
X837010Y788670D02*
X847010D01*
X842010Y783670D02*
Y793670D01*
X811610Y788670D02*
X821610D01*
X816610Y783670D02*
Y793670D01*
X786210Y788670D02*
X796210D01*
X791210Y783670D02*
Y793670D01*
X760810Y788670D02*
X770810D01*
X765810Y783670D02*
Y793670D01*
X735410Y788670D02*
X745410D01*
X740410Y783670D02*
Y793670D01*
X710010Y788670D02*
X720010D01*
X715010Y783670D02*
Y793670D01*
X684610Y788670D02*
X694610D01*
X689610Y783670D02*
Y793670D01*
X1022200Y793540D02*
X1044200D01*
X1033200Y782540D02*
Y804540D01*
X1392450Y354540D02*
X1432450D01*
X1412450Y334540D02*
Y374540D01*
X295450Y354540D02*
X335450D01*
X315450Y334540D02*
Y374540D01*
X1137200Y793540D02*
X1159200D01*
X1148200Y782540D02*
Y804540D01*
X1098867Y793540D02*
X1120867D01*
X1109867Y782540D02*
Y804540D01*
X1060533Y793540D02*
X1082533D01*
X1071533Y782540D02*
Y804540D01*
X791450Y364848D02*
X794450D01*
X792950Y363348D02*
Y366348D01*
X674950Y367500D02*
X677950D01*
X676450Y366000D02*
Y369000D01*
X610449Y438540D02*
X613450D01*
X611950Y437040D02*
Y440040D01*
X610449Y402707D02*
X613450D01*
X611950Y401207D02*
Y404207D01*
X610449Y366873D02*
X613450D01*
X611950Y365373D02*
Y368373D01*
X610449Y331040D02*
X613450D01*
X611950Y329540D02*
Y332540D01*
X1040950Y302540D02*
X1043950D01*
X1042450Y301040D02*
Y304040D01*
X1040950Y416040D02*
X1043950D01*
X1042450Y414540D02*
Y417540D01*
X656450Y416540D02*
X659450D01*
X657950Y415040D02*
Y418040D01*
X1040950Y378207D02*
X1043950D01*
X1042450Y376707D02*
Y379707D01*
X656450Y379040D02*
X659450D01*
X657950Y377540D02*
Y380540D01*
X1040950Y340373D02*
X1043950D01*
X1042450Y338873D02*
Y341873D01*
X656450Y341540D02*
X659450D01*
X657950Y340040D02*
Y343040D01*
X656450Y304040D02*
X659450D01*
X657950Y302540D02*
Y305540D01*
X526450Y430540D02*
X529450D01*
X527950Y429040D02*
Y432040D01*
X499950Y354540D02*
X502950D01*
X501450Y353040D02*
Y356040D01*
X836450Y566040D02*
X839450D01*
X837950Y564540D02*
Y567540D01*
X1187950Y721040D02*
X1190950D01*
X1189450Y719540D02*
Y722540D01*
X990950Y611040D02*
X993950D01*
X992450Y609540D02*
Y612540D01*
X1126950Y637540D02*
X1129950D01*
X1128450Y636040D02*
Y639040D01*
X986450Y637540D02*
X989450D01*
X987950Y636040D02*
Y639040D01*
X951950Y695040D02*
X954950D01*
X953450Y693540D02*
Y696540D01*
X966450Y708540D02*
X969450D01*
X967950Y707040D02*
Y710040D01*
X1306950Y616540D02*
X1309950D01*
X1308450Y615040D02*
Y618040D01*
X1134950Y623540D02*
X1137950D01*
X1136450Y622040D02*
Y625040D01*
X1225950Y654540D02*
X1228950D01*
X1227450Y653040D02*
Y656040D01*
X1306950Y675540D02*
X1309950D01*
X1308450Y674040D02*
Y677040D01*
X1400950Y558540D02*
X1403950D01*
X1402450Y557040D02*
Y560040D01*
X418950Y514040D02*
X421950D01*
X420450Y512540D02*
Y515540D01*
X1016314Y514720D02*
X1019314D01*
X1017814Y513220D02*
Y516220D01*
X738450Y569540D02*
X741450D01*
X739950Y568040D02*
Y571040D01*
X912450Y580040D02*
X915450D01*
X913950Y578540D02*
Y581540D01*
X866950Y753540D02*
X869950D01*
X868450Y752040D02*
Y755040D01*
X891950Y810540D02*
X894950D01*
X893450Y809040D02*
Y812040D01*
X880450Y768540D02*
X883450D01*
X881950Y767040D02*
Y770040D01*
X854950Y738040D02*
X857950D01*
X856450Y736540D02*
Y739540D01*
X942450Y735040D02*
X945450D01*
X943950Y733540D02*
Y736540D01*
X886950Y449540D02*
X889950D01*
X888450Y448040D02*
Y451040D01*
X461450Y449040D02*
X464450D01*
X462950Y447540D02*
Y450540D01*
X461950Y485540D02*
X464950D01*
X463450Y484040D02*
Y487040D01*
X868950Y486040D02*
X871950D01*
X870450Y484540D02*
Y487540D01*
X826450Y565540D02*
X829450D01*
X827950Y564040D02*
Y567040D01*
X1037949Y560540D02*
X1040949D01*
X1039449Y559040D02*
Y562040D01*
X1006950Y579040D02*
X1009950D01*
X1008450Y577540D02*
Y580540D01*
X903450Y526040D02*
X906450D01*
X904950Y524540D02*
Y527540D01*
X942950Y580540D02*
X945950D01*
X944450Y579040D02*
Y582040D01*
X946950Y529040D02*
X949950D01*
X948450Y527540D02*
Y530540D01*
X1300450Y695540D02*
X1303450D01*
X1301950Y694040D02*
Y697040D01*
X1208450Y708540D02*
X1211450D01*
X1209950Y707040D02*
Y710040D01*
X1379950Y629040D02*
X1382950D01*
X1381450Y627540D02*
Y630540D01*
X781950Y350348D02*
X784950D01*
X783450Y348848D02*
Y351848D01*
X702950Y366848D02*
X705950D01*
X704450Y365348D02*
Y368348D01*
X747450Y353348D02*
X750450D01*
X748950Y351848D02*
Y354848D01*
X723950Y324348D02*
X726950D01*
X725450Y322848D02*
Y325848D01*
X754450Y385348D02*
X757450D01*
X755950Y383848D02*
Y386848D01*
X784450Y318000D02*
X787450D01*
X785950Y316500D02*
Y319500D01*
X801450Y515000D02*
X804450D01*
X802950Y513500D02*
Y516500D01*
X805950Y354500D02*
X808950D01*
X807450Y353000D02*
Y356000D01*
X464950Y366000D02*
X467950D01*
X466450Y364500D02*
Y367500D01*
X712949Y358500D02*
X715949D01*
X714449Y357000D02*
Y360000D01*
X691450Y367500D02*
X694450D01*
X692950Y366000D02*
Y369000D01*
X1007961Y768540D02*
X1010961D01*
X1009461Y767040D02*
Y770040D01*
M02*
