G04*
G04 #@! TF.GenerationSoftware,Altium Limited,CircuitStudio,1.5.2 (1.5.2.30)*
G04*
G04 Layer_Color=2752767*
%FSLAX44Y44*%
%MOMM*%
G71*
G01*
G75*
%ADD10C,0.2540*%
%ADD11C,0.5000*%
%ADD72C,0.0847*%
%ADD73C,0.3810*%
%ADD74C,0.4064*%
D10*
X1164823Y1328570D02*
Y1343805D01*
X1172440D01*
X1174980Y1341266D01*
Y1336187D01*
X1172440Y1333648D01*
X1164823D01*
X1169901D02*
X1174980Y1328570D01*
X1182597D02*
X1187676D01*
X1190215Y1331109D01*
Y1336187D01*
X1187676Y1338727D01*
X1182597D01*
X1180058Y1336187D01*
Y1331109D01*
X1182597Y1328570D01*
X1195293Y1338727D02*
Y1331109D01*
X1197832Y1328570D01*
X1205450D01*
Y1338727D01*
X1210528Y1328570D02*
Y1338727D01*
X1218146D01*
X1220685Y1336187D01*
Y1328570D01*
X1235920Y1343805D02*
Y1328570D01*
X1228302D01*
X1225763Y1331109D01*
Y1336187D01*
X1228302Y1338727D01*
X1235920D01*
X1164823Y1290470D02*
Y1305705D01*
X1172440D01*
X1174980Y1303166D01*
Y1298087D01*
X1172440Y1295548D01*
X1164823D01*
X1169901D02*
X1174980Y1290470D01*
X1182597D02*
X1187676D01*
X1190215Y1293009D01*
Y1298087D01*
X1187676Y1300627D01*
X1182597D01*
X1180058Y1298087D01*
Y1293009D01*
X1182597Y1290470D01*
X1195293Y1300627D02*
Y1293009D01*
X1197832Y1290470D01*
X1205450D01*
Y1300627D01*
X1210528Y1290470D02*
Y1300627D01*
X1218146D01*
X1220685Y1298087D01*
Y1290470D01*
X1235920Y1305705D02*
Y1290470D01*
X1228302D01*
X1225763Y1293009D01*
Y1298087D01*
X1228302Y1300627D01*
X1235920D01*
X1164823Y1252370D02*
Y1267605D01*
X1172440D01*
X1174980Y1265066D01*
Y1259987D01*
X1172440Y1257448D01*
X1164823D01*
X1169901D02*
X1174980Y1252370D01*
X1182597D02*
X1187676D01*
X1190215Y1254909D01*
Y1259987D01*
X1187676Y1262527D01*
X1182597D01*
X1180058Y1259987D01*
Y1254909D01*
X1182597Y1252370D01*
X1195293Y1262527D02*
Y1254909D01*
X1197832Y1252370D01*
X1205450D01*
Y1262527D01*
X1210528Y1252370D02*
Y1262527D01*
X1218146D01*
X1220685Y1259987D01*
Y1252370D01*
X1235920Y1267605D02*
Y1252370D01*
X1228302D01*
X1225763Y1254909D01*
Y1259987D01*
X1228302Y1262527D01*
X1235920D01*
X1164823Y1214270D02*
Y1229505D01*
X1172440D01*
X1174980Y1226966D01*
Y1221888D01*
X1172440Y1219348D01*
X1164823D01*
X1169901D02*
X1174980Y1214270D01*
X1182597D02*
X1187676D01*
X1190215Y1216809D01*
Y1221888D01*
X1187676Y1224427D01*
X1182597D01*
X1180058Y1221888D01*
Y1216809D01*
X1182597Y1214270D01*
X1195293Y1224427D02*
Y1216809D01*
X1197832Y1214270D01*
X1205450D01*
Y1224427D01*
X1210528Y1214270D02*
Y1224427D01*
X1218146D01*
X1220685Y1221888D01*
Y1214270D01*
X1235920Y1229505D02*
Y1214270D01*
X1228302D01*
X1225763Y1216809D01*
Y1221888D01*
X1228302Y1224427D01*
X1235920D01*
X1164823Y1176170D02*
Y1191405D01*
X1172440D01*
X1174980Y1188866D01*
Y1183788D01*
X1172440Y1181248D01*
X1164823D01*
X1169901D02*
X1174980Y1176170D01*
X1182597D02*
X1187676D01*
X1190215Y1178709D01*
Y1183788D01*
X1187676Y1186327D01*
X1182597D01*
X1180058Y1183788D01*
Y1178709D01*
X1182597Y1176170D01*
X1195293Y1186327D02*
Y1178709D01*
X1197832Y1176170D01*
X1205450D01*
Y1186327D01*
X1210528Y1176170D02*
Y1186327D01*
X1218146D01*
X1220685Y1183788D01*
Y1176170D01*
X1235920Y1191405D02*
Y1176170D01*
X1228302D01*
X1225763Y1178709D01*
Y1183788D01*
X1228302Y1186327D01*
X1235920D01*
X1164823Y1138070D02*
Y1153305D01*
X1172440D01*
X1174980Y1150766D01*
Y1145687D01*
X1172440Y1143148D01*
X1164823D01*
X1169901D02*
X1174980Y1138070D01*
X1182597D02*
X1187676D01*
X1190215Y1140609D01*
Y1145687D01*
X1187676Y1148227D01*
X1182597D01*
X1180058Y1145687D01*
Y1140609D01*
X1182597Y1138070D01*
X1195293Y1148227D02*
Y1140609D01*
X1197832Y1138070D01*
X1205450D01*
Y1148227D01*
X1210528Y1138070D02*
Y1148227D01*
X1218146D01*
X1220685Y1145687D01*
Y1138070D01*
X1235920Y1153305D02*
Y1138070D01*
X1228302D01*
X1225763Y1140609D01*
Y1145687D01*
X1228302Y1148227D01*
X1235920D01*
X1164823Y1099970D02*
Y1115205D01*
X1172440D01*
X1174980Y1112666D01*
Y1107588D01*
X1172440Y1105048D01*
X1164823D01*
X1169901D02*
X1174980Y1099970D01*
X1182597D02*
X1187676D01*
X1190215Y1102509D01*
Y1107588D01*
X1187676Y1110127D01*
X1182597D01*
X1180058Y1107588D01*
Y1102509D01*
X1182597Y1099970D01*
X1195293Y1110127D02*
Y1102509D01*
X1197832Y1099970D01*
X1205450D01*
Y1110127D01*
X1210528Y1099970D02*
Y1110127D01*
X1218146D01*
X1220685Y1107588D01*
Y1099970D01*
X1235920Y1115205D02*
Y1099970D01*
X1228302D01*
X1225763Y1102509D01*
Y1107588D01*
X1228302Y1110127D01*
X1235920D01*
X1164823Y1061870D02*
Y1077105D01*
X1172440D01*
X1174980Y1074566D01*
Y1069488D01*
X1172440Y1066948D01*
X1164823D01*
X1169901D02*
X1174980Y1061870D01*
X1182597D02*
X1187676D01*
X1190215Y1064409D01*
Y1069488D01*
X1187676Y1072027D01*
X1182597D01*
X1180058Y1069488D01*
Y1064409D01*
X1182597Y1061870D01*
X1195293Y1072027D02*
Y1064409D01*
X1197832Y1061870D01*
X1205450D01*
Y1072027D01*
X1210528Y1061870D02*
Y1072027D01*
X1218146D01*
X1220685Y1069488D01*
Y1061870D01*
X1235920Y1077105D02*
Y1061870D01*
X1228302D01*
X1225763Y1064409D01*
Y1069488D01*
X1228302Y1072027D01*
X1235920D01*
X1164823Y1023770D02*
Y1039005D01*
X1172440D01*
X1174980Y1036466D01*
Y1031387D01*
X1172440Y1028848D01*
X1164823D01*
X1169901D02*
X1174980Y1023770D01*
X1182597D02*
X1187676D01*
X1190215Y1026309D01*
Y1031387D01*
X1187676Y1033927D01*
X1182597D01*
X1180058Y1031387D01*
Y1026309D01*
X1182597Y1023770D01*
X1195293Y1033927D02*
Y1026309D01*
X1197832Y1023770D01*
X1205450D01*
Y1033927D01*
X1210528Y1023770D02*
Y1033927D01*
X1218146D01*
X1220685Y1031387D01*
Y1023770D01*
X1235920Y1039005D02*
Y1023770D01*
X1228302D01*
X1225763Y1026309D01*
Y1031387D01*
X1228302Y1033927D01*
X1235920D01*
X1164823Y985670D02*
Y1000905D01*
X1172440D01*
X1174980Y998366D01*
Y993288D01*
X1172440Y990748D01*
X1164823D01*
X1169901D02*
X1174980Y985670D01*
X1182597D02*
X1187676D01*
X1190215Y988209D01*
Y993288D01*
X1187676Y995827D01*
X1182597D01*
X1180058Y993288D01*
Y988209D01*
X1182597Y985670D01*
X1195293Y995827D02*
Y988209D01*
X1197832Y985670D01*
X1205450D01*
Y995827D01*
X1210528Y985670D02*
Y995827D01*
X1218146D01*
X1220685Y993288D01*
Y985670D01*
X1235920Y1000905D02*
Y985670D01*
X1228302D01*
X1225763Y988209D01*
Y993288D01*
X1228302Y995827D01*
X1235920D01*
X1164823Y947570D02*
Y962805D01*
X1172440D01*
X1174980Y960266D01*
Y955188D01*
X1172440Y952648D01*
X1164823D01*
X1169901D02*
X1174980Y947570D01*
X1182597D02*
X1187676D01*
X1190215Y950109D01*
Y955188D01*
X1187676Y957727D01*
X1182597D01*
X1180058Y955188D01*
Y950109D01*
X1182597Y947570D01*
X1195293Y957727D02*
Y950109D01*
X1197832Y947570D01*
X1205450D01*
Y957727D01*
X1210528Y947570D02*
Y957727D01*
X1218146D01*
X1220685Y955188D01*
Y947570D01*
X1235920Y962805D02*
Y947570D01*
X1228302D01*
X1225763Y950109D01*
Y955188D01*
X1228302Y957727D01*
X1235920D01*
X1036330Y1328570D02*
Y1343805D01*
X1046487Y1328570D01*
Y1343805D01*
X1051566Y1328570D02*
Y1343805D01*
X1059183D01*
X1061722Y1341266D01*
Y1336187D01*
X1059183Y1333648D01*
X1051566D01*
X1066801Y1343805D02*
X1076957D01*
X1071879D01*
Y1328570D01*
X1082036Y1343805D02*
Y1328570D01*
Y1336187D01*
X1092193D01*
Y1343805D01*
Y1328570D01*
X1036330Y1290470D02*
Y1305705D01*
X1043948D01*
X1046487Y1303166D01*
Y1298087D01*
X1043948Y1295548D01*
X1036330D01*
X1051566Y1305705D02*
X1061722D01*
X1056644D01*
Y1290470D01*
X1066801Y1305705D02*
Y1290470D01*
Y1298087D01*
X1076957D01*
Y1305705D01*
Y1290470D01*
X1036330Y1252370D02*
Y1267605D01*
X1043948D01*
X1046487Y1265066D01*
Y1259987D01*
X1043948Y1257448D01*
X1036330D01*
X1051566Y1267605D02*
X1061722D01*
X1056644D01*
Y1252370D01*
X1066801Y1267605D02*
Y1252370D01*
Y1259987D01*
X1076957D01*
Y1267605D01*
Y1252370D01*
X1036330Y1214270D02*
Y1229505D01*
X1046487Y1214270D01*
Y1229505D01*
X1051566Y1214270D02*
Y1229505D01*
X1059183D01*
X1061722Y1226966D01*
Y1221888D01*
X1059183Y1219348D01*
X1051566D01*
X1066801Y1229505D02*
X1076957D01*
X1071879D01*
Y1214270D01*
X1082036Y1229505D02*
Y1214270D01*
Y1221888D01*
X1092193D01*
Y1229505D01*
Y1214270D01*
X1036330Y1176170D02*
Y1191405D01*
X1046487Y1176170D01*
Y1191405D01*
X1051566Y1176170D02*
Y1191405D01*
X1059183D01*
X1061722Y1188866D01*
Y1183788D01*
X1059183Y1181248D01*
X1051566D01*
X1066801Y1191405D02*
X1076957D01*
X1071879D01*
Y1176170D01*
X1082036Y1191405D02*
Y1176170D01*
Y1183788D01*
X1092193D01*
Y1191405D01*
Y1176170D01*
X1036330Y1138070D02*
Y1153305D01*
X1043948D01*
X1046487Y1150766D01*
Y1145687D01*
X1043948Y1143148D01*
X1036330D01*
X1051566Y1153305D02*
X1061722D01*
X1056644D01*
Y1138070D01*
X1066801Y1153305D02*
Y1138070D01*
Y1145687D01*
X1076957D01*
Y1153305D01*
Y1138070D01*
X1036330Y1099970D02*
Y1115205D01*
X1043948D01*
X1046487Y1112666D01*
Y1107588D01*
X1043948Y1105048D01*
X1036330D01*
X1051566Y1115205D02*
X1061722D01*
X1056644D01*
Y1099970D01*
X1066801Y1115205D02*
Y1099970D01*
Y1107588D01*
X1076957D01*
Y1115205D01*
Y1099970D01*
X1036330Y1061870D02*
Y1077105D01*
X1046487Y1061870D01*
Y1077105D01*
X1051566Y1061870D02*
Y1077105D01*
X1059183D01*
X1061722Y1074566D01*
Y1069488D01*
X1059183Y1066948D01*
X1051566D01*
X1066801Y1077105D02*
X1076957D01*
X1071879D01*
Y1061870D01*
X1082036Y1077105D02*
Y1061870D01*
Y1069488D01*
X1092193D01*
Y1077105D01*
Y1061870D01*
X1036330Y1023770D02*
Y1039005D01*
X1046487Y1023770D01*
Y1039005D01*
X1051566Y1023770D02*
Y1039005D01*
X1059183D01*
X1061722Y1036466D01*
Y1031387D01*
X1059183Y1028848D01*
X1051566D01*
X1066801Y1039005D02*
X1076957D01*
X1071879D01*
Y1023770D01*
X1082036Y1039005D02*
Y1023770D01*
Y1031387D01*
X1092193D01*
Y1039005D01*
Y1023770D01*
X1036330Y985670D02*
Y1000905D01*
X1043948D01*
X1046487Y998366D01*
Y993288D01*
X1043948Y990748D01*
X1036330D01*
X1051566Y1000905D02*
X1061722D01*
X1056644D01*
Y985670D01*
X1066801Y1000905D02*
Y985670D01*
Y993288D01*
X1076957D01*
Y1000905D01*
Y985670D01*
X1036330Y947570D02*
Y962805D01*
X1043948D01*
X1046487Y960266D01*
Y955188D01*
X1043948Y952648D01*
X1036330D01*
X1051566Y962805D02*
X1061722D01*
X1056644D01*
Y947570D01*
X1066801Y962805D02*
Y947570D01*
Y955188D01*
X1076957D01*
Y962805D01*
Y947570D01*
X694547Y1341266D02*
X697086Y1343805D01*
X702165D01*
X704704Y1341266D01*
Y1338727D01*
X702165Y1336187D01*
X699625D01*
X702165D01*
X704704Y1333648D01*
Y1331109D01*
X702165Y1328570D01*
X697086D01*
X694547Y1331109D01*
X709782Y1328570D02*
Y1331109D01*
X712321D01*
Y1328570D01*
X709782D01*
X732635Y1343805D02*
X722478D01*
Y1336187D01*
X727556Y1338727D01*
X730096D01*
X732635Y1336187D01*
Y1331109D01*
X730096Y1328570D01*
X725017D01*
X722478Y1331109D01*
X737713Y1341266D02*
X740252Y1343805D01*
X745331D01*
X747870Y1341266D01*
Y1331109D01*
X745331Y1328570D01*
X740252D01*
X737713Y1331109D01*
Y1341266D01*
X752948D02*
X755487Y1343805D01*
X760566D01*
X763105Y1341266D01*
Y1331109D01*
X760566Y1328570D01*
X755487D01*
X752948Y1331109D01*
Y1341266D01*
X768183Y1328570D02*
Y1338727D01*
X770723D01*
X773262Y1336187D01*
Y1328570D01*
Y1336187D01*
X775801Y1338727D01*
X778340Y1336187D01*
Y1328570D01*
X783418D02*
Y1338727D01*
X785957D01*
X788497Y1336187D01*
Y1328570D01*
Y1336187D01*
X791036Y1338727D01*
X793575Y1336187D01*
Y1328570D01*
X818967D02*
X813888Y1333648D01*
Y1338727D01*
X818967Y1343805D01*
X826584Y1328570D02*
X831663D01*
X829124D01*
Y1343805D01*
X826584Y1341266D01*
X839280D02*
X841819Y1343805D01*
X846898D01*
X849437Y1341266D01*
Y1338727D01*
X846898Y1336187D01*
X844359D01*
X846898D01*
X849437Y1333648D01*
Y1331109D01*
X846898Y1328570D01*
X841819D01*
X839280Y1331109D01*
X854515Y1343805D02*
X864672D01*
Y1341266D01*
X854515Y1331109D01*
Y1328570D01*
X869750D02*
Y1331109D01*
X872290D01*
Y1328570D01*
X869750D01*
X882446Y1341266D02*
X884986Y1343805D01*
X890064D01*
X892603Y1341266D01*
Y1338727D01*
X890064Y1336187D01*
X892603Y1333648D01*
Y1331109D01*
X890064Y1328570D01*
X884986D01*
X882446Y1331109D01*
Y1333648D01*
X884986Y1336187D01*
X882446Y1338727D01*
Y1341266D01*
X884986Y1336187D02*
X890064D01*
X897681Y1341266D02*
X900221Y1343805D01*
X905299D01*
X907838Y1341266D01*
Y1331109D01*
X905299Y1328570D01*
X900221D01*
X897681Y1331109D01*
Y1341266D01*
X912916Y1328570D02*
Y1338727D01*
X915456D01*
X917995Y1336187D01*
Y1328570D01*
Y1336187D01*
X920534Y1338727D01*
X923073Y1336187D01*
Y1328570D01*
X928151D02*
X933230D01*
X930691D01*
Y1338727D01*
X928151D01*
X940847Y1328570D02*
X945926D01*
X943387D01*
Y1343805D01*
X940847D01*
X953543Y1328570D02*
X958622Y1333648D01*
Y1338727D01*
X953543Y1343805D01*
X694547Y1303166D02*
X697086Y1305705D01*
X702165D01*
X704704Y1303166D01*
Y1293009D01*
X702165Y1290470D01*
X697086D01*
X694547Y1293009D01*
Y1303166D01*
X709782Y1290470D02*
Y1293009D01*
X712321D01*
Y1290470D01*
X709782D01*
X732635Y1305705D02*
X727556Y1303166D01*
X722478Y1298087D01*
Y1293009D01*
X725017Y1290470D01*
X730096D01*
X732635Y1293009D01*
Y1295548D01*
X730096Y1298087D01*
X722478D01*
X747870Y1305705D02*
X737713D01*
Y1298087D01*
X742792Y1300627D01*
X745331D01*
X747870Y1298087D01*
Y1293009D01*
X745331Y1290470D01*
X740252D01*
X737713Y1293009D01*
X752948Y1303166D02*
X755487Y1305705D01*
X760566D01*
X763105Y1303166D01*
Y1293009D01*
X760566Y1290470D01*
X755487D01*
X752948Y1293009D01*
Y1303166D01*
X768183Y1290470D02*
Y1300627D01*
X770723D01*
X773262Y1298087D01*
Y1290470D01*
Y1298087D01*
X775801Y1300627D01*
X778340Y1298087D01*
Y1290470D01*
X783418D02*
Y1300627D01*
X785957D01*
X788497Y1298087D01*
Y1290470D01*
Y1298087D01*
X791036Y1300627D01*
X793575Y1298087D01*
Y1290470D01*
X818967D02*
X813888Y1295548D01*
Y1300627D01*
X818967Y1305705D01*
X836741Y1290470D02*
X826584D01*
X836741Y1300627D01*
Y1303166D01*
X834202Y1305705D01*
X829124D01*
X826584Y1303166D01*
X851976Y1305705D02*
X841819D01*
Y1298087D01*
X846898Y1300627D01*
X849437D01*
X851976Y1298087D01*
Y1293009D01*
X849437Y1290470D01*
X844359D01*
X841819Y1293009D01*
X857055Y1290470D02*
Y1293009D01*
X859594D01*
Y1290470D01*
X857055D01*
X879907Y1305705D02*
X869750D01*
Y1298087D01*
X874829Y1300627D01*
X877368D01*
X879907Y1298087D01*
Y1293009D01*
X877368Y1290470D01*
X872290D01*
X869750Y1293009D01*
X884986D02*
X887525Y1290470D01*
X892603D01*
X895142Y1293009D01*
Y1303166D01*
X892603Y1305705D01*
X887525D01*
X884986Y1303166D01*
Y1300627D01*
X887525Y1298087D01*
X895142D01*
X900221Y1290470D02*
Y1300627D01*
X902760D01*
X905299Y1298087D01*
Y1290470D01*
Y1298087D01*
X907838Y1300627D01*
X910377Y1298087D01*
Y1290470D01*
X915456D02*
X920534D01*
X917995D01*
Y1300627D01*
X915456D01*
X928151Y1290470D02*
X933230D01*
X930691D01*
Y1305705D01*
X928151D01*
X940847Y1290470D02*
X945926Y1295548D01*
Y1300627D01*
X940847Y1305705D01*
X704704Y1252370D02*
X694547D01*
X704704Y1262527D01*
Y1265066D01*
X702165Y1267605D01*
X697086D01*
X694547Y1265066D01*
X709782Y1252370D02*
Y1254909D01*
X712321D01*
Y1252370D01*
X709782D01*
X732635Y1267605D02*
X727556Y1265066D01*
X722478Y1259987D01*
Y1254909D01*
X725017Y1252370D01*
X730096D01*
X732635Y1254909D01*
Y1257448D01*
X730096Y1259987D01*
X722478D01*
X737713Y1265066D02*
X740252Y1267605D01*
X745331D01*
X747870Y1265066D01*
Y1254909D01*
X745331Y1252370D01*
X740252D01*
X737713Y1254909D01*
Y1265066D01*
X752948D02*
X755487Y1267605D01*
X760566D01*
X763105Y1265066D01*
Y1254909D01*
X760566Y1252370D01*
X755487D01*
X752948Y1254909D01*
Y1265066D01*
X768183Y1252370D02*
Y1262527D01*
X770723D01*
X773262Y1259987D01*
Y1252370D01*
Y1259987D01*
X775801Y1262527D01*
X778340Y1259987D01*
Y1252370D01*
X783418D02*
Y1262527D01*
X785957D01*
X788497Y1259987D01*
Y1252370D01*
Y1259987D01*
X791036Y1262527D01*
X793575Y1259987D01*
Y1252370D01*
X818967D02*
X813888Y1257448D01*
Y1262527D01*
X818967Y1267605D01*
X826584Y1252370D02*
X831663D01*
X829124D01*
Y1267605D01*
X826584Y1265066D01*
X839280D02*
X841819Y1267605D01*
X846898D01*
X849437Y1265066D01*
Y1254909D01*
X846898Y1252370D01*
X841819D01*
X839280Y1254909D01*
Y1265066D01*
X864672Y1252370D02*
X854515D01*
X864672Y1262527D01*
Y1265066D01*
X862133Y1267605D01*
X857055D01*
X854515Y1265066D01*
X869750Y1252370D02*
Y1254909D01*
X872290D01*
Y1252370D01*
X869750D01*
X882446Y1265066D02*
X884986Y1267605D01*
X890064D01*
X892603Y1265066D01*
Y1262527D01*
X890064Y1259987D01*
X887525D01*
X890064D01*
X892603Y1257448D01*
Y1254909D01*
X890064Y1252370D01*
X884986D01*
X882446Y1254909D01*
X907838Y1267605D02*
X902760Y1265066D01*
X897681Y1259987D01*
Y1254909D01*
X900221Y1252370D01*
X905299D01*
X907838Y1254909D01*
Y1257448D01*
X905299Y1259987D01*
X897681D01*
X912916Y1252370D02*
Y1262527D01*
X915456D01*
X917995Y1259987D01*
Y1252370D01*
Y1259987D01*
X920534Y1262527D01*
X923073Y1259987D01*
Y1252370D01*
X928151D02*
X933230D01*
X930691D01*
Y1262527D01*
X928151D01*
X940847Y1252370D02*
X945926D01*
X943387D01*
Y1267605D01*
X940847D01*
X953543Y1252370D02*
X958622Y1257448D01*
Y1262527D01*
X953543Y1267605D01*
X694547Y1226966D02*
X697086Y1229505D01*
X702165D01*
X704704Y1226966D01*
Y1224427D01*
X702165Y1221888D01*
X699625D01*
X702165D01*
X704704Y1219348D01*
Y1216809D01*
X702165Y1214270D01*
X697086D01*
X694547Y1216809D01*
X709782Y1214270D02*
Y1216809D01*
X712321D01*
Y1214270D01*
X709782D01*
X722478Y1226966D02*
X725017Y1229505D01*
X730096D01*
X732635Y1226966D01*
Y1216809D01*
X730096Y1214270D01*
X725017D01*
X722478Y1216809D01*
Y1226966D01*
X737713D02*
X740252Y1229505D01*
X745331D01*
X747870Y1226966D01*
Y1216809D01*
X745331Y1214270D01*
X740252D01*
X737713Y1216809D01*
Y1226966D01*
X752948D02*
X755487Y1229505D01*
X760566D01*
X763105Y1226966D01*
Y1216809D01*
X760566Y1214270D01*
X755487D01*
X752948Y1216809D01*
Y1226966D01*
X768183Y1214270D02*
Y1224427D01*
X770723D01*
X773262Y1221888D01*
Y1214270D01*
Y1221888D01*
X775801Y1224427D01*
X778340Y1221888D01*
Y1214270D01*
X783418D02*
Y1224427D01*
X785957D01*
X788497Y1221888D01*
Y1214270D01*
Y1221888D01*
X791036Y1224427D01*
X793575Y1221888D01*
Y1214270D01*
X818967D02*
X813888Y1219348D01*
Y1224427D01*
X818967Y1229505D01*
X826584Y1214270D02*
X831663D01*
X829124D01*
Y1229505D01*
X826584Y1226966D01*
X839280Y1214270D02*
X844359D01*
X841819D01*
Y1229505D01*
X839280Y1226966D01*
X851976D02*
X854515Y1229505D01*
X859594D01*
X862133Y1226966D01*
Y1224427D01*
X859594Y1221888D01*
X862133Y1219348D01*
Y1216809D01*
X859594Y1214270D01*
X854515D01*
X851976Y1216809D01*
Y1219348D01*
X854515Y1221888D01*
X851976Y1224427D01*
Y1226966D01*
X854515Y1221888D02*
X859594D01*
X867211Y1214270D02*
Y1216809D01*
X869750D01*
Y1214270D01*
X867211D01*
X879907D02*
X884986D01*
X882446D01*
Y1229505D01*
X879907Y1226966D01*
X892603Y1214270D02*
X897681D01*
X895142D01*
Y1229505D01*
X892603Y1226966D01*
X905299Y1214270D02*
Y1224427D01*
X907838D01*
X910377Y1221888D01*
Y1214270D01*
Y1221888D01*
X912916Y1224427D01*
X915456Y1221888D01*
Y1214270D01*
X920534D02*
X925612D01*
X923073D01*
Y1224427D01*
X920534D01*
X933230Y1214270D02*
X938308D01*
X935769D01*
Y1229505D01*
X933230D01*
X945926Y1214270D02*
X951004Y1219348D01*
Y1224427D01*
X945926Y1229505D01*
X702165Y1176170D02*
Y1191405D01*
X694547Y1183788D01*
X704704D01*
X709782Y1176170D02*
Y1178709D01*
X712321D01*
Y1176170D01*
X709782D01*
X722478Y1188866D02*
X725017Y1191405D01*
X730096D01*
X732635Y1188866D01*
Y1178709D01*
X730096Y1176170D01*
X725017D01*
X722478Y1178709D01*
Y1188866D01*
X737713D02*
X740252Y1191405D01*
X745331D01*
X747870Y1188866D01*
Y1178709D01*
X745331Y1176170D01*
X740252D01*
X737713Y1178709D01*
Y1188866D01*
X752948D02*
X755487Y1191405D01*
X760566D01*
X763105Y1188866D01*
Y1178709D01*
X760566Y1176170D01*
X755487D01*
X752948Y1178709D01*
Y1188866D01*
X768183Y1176170D02*
Y1186327D01*
X770723D01*
X773262Y1183788D01*
Y1176170D01*
Y1183788D01*
X775801Y1186327D01*
X778340Y1183788D01*
Y1176170D01*
X783418D02*
Y1186327D01*
X785957D01*
X788497Y1183788D01*
Y1176170D01*
Y1183788D01*
X791036Y1186327D01*
X793575Y1183788D01*
Y1176170D01*
X818967D02*
X813888Y1181248D01*
Y1186327D01*
X818967Y1191405D01*
X826584Y1176170D02*
X831663D01*
X829124D01*
Y1191405D01*
X826584Y1188866D01*
X849437Y1191405D02*
X839280D01*
Y1183788D01*
X844359Y1186327D01*
X846898D01*
X849437Y1183788D01*
Y1178709D01*
X846898Y1176170D01*
X841819D01*
X839280Y1178709D01*
X854515Y1191405D02*
X864672D01*
Y1188866D01*
X854515Y1178709D01*
Y1176170D01*
X869750D02*
Y1178709D01*
X872290D01*
Y1176170D01*
X869750D01*
X890064D02*
Y1191405D01*
X882446Y1183788D01*
X892603D01*
X897681Y1188866D02*
X900221Y1191405D01*
X905299D01*
X907838Y1188866D01*
Y1186327D01*
X905299Y1183788D01*
X907838Y1181248D01*
Y1178709D01*
X905299Y1176170D01*
X900221D01*
X897681Y1178709D01*
Y1181248D01*
X900221Y1183788D01*
X897681Y1186327D01*
Y1188866D01*
X900221Y1183788D02*
X905299D01*
X912916Y1176170D02*
Y1186327D01*
X915456D01*
X917995Y1183788D01*
Y1176170D01*
Y1183788D01*
X920534Y1186327D01*
X923073Y1183788D01*
Y1176170D01*
X928151D02*
X933230D01*
X930691D01*
Y1186327D01*
X928151D01*
X940847Y1176170D02*
X945926D01*
X943387D01*
Y1191405D01*
X940847D01*
X953543Y1176170D02*
X958622Y1181248D01*
Y1186327D01*
X953543Y1191405D01*
X694547Y1138070D02*
X699625D01*
X697086D01*
Y1153305D01*
X694547Y1150766D01*
X707243Y1138070D02*
Y1140609D01*
X709782D01*
Y1138070D01*
X707243D01*
X719939Y1150766D02*
X722478Y1153305D01*
X727556D01*
X730096Y1150766D01*
Y1140609D01*
X727556Y1138070D01*
X722478D01*
X719939Y1140609D01*
Y1150766D01*
X735174Y1138070D02*
X740252D01*
X737713D01*
Y1153305D01*
X735174Y1150766D01*
X758027Y1153305D02*
X752948Y1150766D01*
X747870Y1145687D01*
Y1140609D01*
X750409Y1138070D01*
X755487D01*
X758027Y1140609D01*
Y1143148D01*
X755487Y1145687D01*
X747870D01*
X763105Y1138070D02*
Y1148227D01*
X765644D01*
X768183Y1145687D01*
Y1138070D01*
Y1145687D01*
X770722Y1148227D01*
X773262Y1145687D01*
Y1138070D01*
X778340D02*
Y1148227D01*
X780879D01*
X783418Y1145687D01*
Y1138070D01*
Y1145687D01*
X785957Y1148227D01*
X788497Y1145687D01*
Y1138070D01*
X813888D02*
X808810Y1143148D01*
Y1148227D01*
X813888Y1153305D01*
X829124Y1138070D02*
Y1153305D01*
X821506Y1145687D01*
X831663D01*
X836741Y1150766D02*
X839280Y1153305D01*
X844359D01*
X846898Y1150766D01*
Y1140609D01*
X844359Y1138070D01*
X839280D01*
X836741Y1140609D01*
Y1150766D01*
X851976Y1138070D02*
Y1140609D01*
X854515D01*
Y1138070D01*
X851976D01*
X864672Y1150766D02*
X867211Y1153305D01*
X872290D01*
X874829Y1150766D01*
Y1140609D01*
X872290Y1138070D01*
X867211D01*
X864672Y1140609D01*
Y1150766D01*
X879907D02*
X882446Y1153305D01*
X887525D01*
X890064Y1150766D01*
Y1140609D01*
X887525Y1138070D01*
X882446D01*
X879907Y1140609D01*
Y1150766D01*
X895142Y1138070D02*
Y1148227D01*
X897681D01*
X900220Y1145687D01*
Y1138070D01*
Y1145687D01*
X902760Y1148227D01*
X905299Y1145687D01*
Y1138070D01*
X910377D02*
X915456D01*
X912916D01*
Y1148227D01*
X910377D01*
X923073Y1138070D02*
X928151D01*
X925612D01*
Y1153305D01*
X923073D01*
X935769Y1138070D02*
X940847Y1143148D01*
Y1148227D01*
X935769Y1153305D01*
X694547Y1099970D02*
X699625D01*
X697086D01*
Y1115205D01*
X694547Y1112666D01*
X707243Y1099970D02*
Y1102509D01*
X709782D01*
Y1099970D01*
X707243D01*
X730096D02*
X719939D01*
X730096Y1110127D01*
Y1112666D01*
X727556Y1115205D01*
X722478D01*
X719939Y1112666D01*
X735174D02*
X737713Y1115205D01*
X742792D01*
X745331Y1112666D01*
Y1102509D01*
X742792Y1099970D01*
X737713D01*
X735174Y1102509D01*
Y1112666D01*
X750409D02*
X752948Y1115205D01*
X758027D01*
X760566Y1112666D01*
Y1102509D01*
X758027Y1099970D01*
X752948D01*
X750409Y1102509D01*
Y1112666D01*
X765644Y1099970D02*
Y1110127D01*
X768183D01*
X770722Y1107588D01*
Y1099970D01*
Y1107588D01*
X773262Y1110127D01*
X775801Y1107588D01*
Y1099970D01*
X780879D02*
Y1110127D01*
X783418D01*
X785957Y1107588D01*
Y1099970D01*
Y1107588D01*
X788497Y1110127D01*
X791036Y1107588D01*
Y1099970D01*
X816428D02*
X811349Y1105048D01*
Y1110127D01*
X816428Y1115205D01*
X831663Y1099970D02*
Y1115205D01*
X824045Y1107588D01*
X834202D01*
X839280Y1115205D02*
X849437D01*
Y1112666D01*
X839280Y1102509D01*
Y1099970D01*
X854515D02*
Y1102509D01*
X857055D01*
Y1099970D01*
X854515D01*
X877368D02*
X867211D01*
X877368Y1110127D01*
Y1112666D01*
X874829Y1115205D01*
X869750D01*
X867211Y1112666D01*
X890064Y1099970D02*
Y1115205D01*
X882446Y1107588D01*
X892603D01*
X897681Y1099970D02*
Y1110127D01*
X900221D01*
X902760Y1107588D01*
Y1099970D01*
Y1107588D01*
X905299Y1110127D01*
X907838Y1107588D01*
Y1099970D01*
X912916D02*
X917995D01*
X915456D01*
Y1110127D01*
X912916D01*
X925612Y1099970D02*
X930691D01*
X928151D01*
Y1115205D01*
X925612D01*
X938308Y1099970D02*
X943387Y1105048D01*
Y1110127D01*
X938308Y1115205D01*
X704704Y1061870D02*
X694547D01*
X704704Y1072027D01*
Y1074566D01*
X702165Y1077105D01*
X697086D01*
X694547Y1074566D01*
X709782Y1061870D02*
Y1064409D01*
X712321D01*
Y1061870D01*
X709782D01*
X732635D02*
X722478D01*
X732635Y1072027D01*
Y1074566D01*
X730096Y1077105D01*
X725017D01*
X722478Y1074566D01*
X737713D02*
X740252Y1077105D01*
X745331D01*
X747870Y1074566D01*
Y1064409D01*
X745331Y1061870D01*
X740252D01*
X737713Y1064409D01*
Y1074566D01*
X752948D02*
X755487Y1077105D01*
X760566D01*
X763105Y1074566D01*
Y1064409D01*
X760566Y1061870D01*
X755487D01*
X752948Y1064409D01*
Y1074566D01*
X768183Y1061870D02*
Y1072027D01*
X770723D01*
X773262Y1069488D01*
Y1061870D01*
Y1069488D01*
X775801Y1072027D01*
X778340Y1069488D01*
Y1061870D01*
X783418D02*
Y1072027D01*
X785957D01*
X788497Y1069488D01*
Y1061870D01*
Y1069488D01*
X791036Y1072027D01*
X793575Y1069488D01*
Y1061870D01*
X818967D02*
X813888Y1066948D01*
Y1072027D01*
X818967Y1077105D01*
X826584Y1074566D02*
X829124Y1077105D01*
X834202D01*
X836741Y1074566D01*
Y1072027D01*
X834202Y1069488D01*
X836741Y1066948D01*
Y1064409D01*
X834202Y1061870D01*
X829124D01*
X826584Y1064409D01*
Y1066948D01*
X829124Y1069488D01*
X826584Y1072027D01*
Y1074566D01*
X829124Y1069488D02*
X834202D01*
X851976Y1077105D02*
X846898Y1074566D01*
X841819Y1069488D01*
Y1064409D01*
X844359Y1061870D01*
X849437D01*
X851976Y1064409D01*
Y1066948D01*
X849437Y1069488D01*
X841819D01*
X857055Y1061870D02*
Y1064409D01*
X859594D01*
Y1061870D01*
X857055D01*
X879907Y1077105D02*
X874829Y1074566D01*
X869750Y1069488D01*
Y1064409D01*
X872290Y1061870D01*
X877368D01*
X879907Y1064409D01*
Y1066948D01*
X877368Y1069488D01*
X869750D01*
X884986Y1061870D02*
X890064D01*
X887525D01*
Y1077105D01*
X884986Y1074566D01*
X897681Y1061870D02*
Y1072027D01*
X900221D01*
X902760Y1069488D01*
Y1061870D01*
Y1069488D01*
X905299Y1072027D01*
X907838Y1069488D01*
Y1061870D01*
X912916D02*
X917995D01*
X915456D01*
Y1072027D01*
X912916D01*
X925612Y1061870D02*
X930691D01*
X928151D01*
Y1077105D01*
X925612D01*
X938308Y1061870D02*
X943387Y1066948D01*
Y1072027D01*
X938308Y1077105D01*
X694547Y1036466D02*
X697086Y1039005D01*
X702165D01*
X704704Y1036466D01*
Y1033927D01*
X702165Y1031387D01*
X699625D01*
X702165D01*
X704704Y1028848D01*
Y1026309D01*
X702165Y1023770D01*
X697086D01*
X694547Y1026309D01*
X709782Y1023770D02*
Y1026309D01*
X712321D01*
Y1023770D01*
X709782D01*
X722478D02*
X727556D01*
X725017D01*
Y1039005D01*
X722478Y1036466D01*
X735174D02*
X737713Y1039005D01*
X742792D01*
X745331Y1036466D01*
Y1033927D01*
X742792Y1031387D01*
X745331Y1028848D01*
Y1026309D01*
X742792Y1023770D01*
X737713D01*
X735174Y1026309D01*
Y1028848D01*
X737713Y1031387D01*
X735174Y1033927D01*
Y1036466D01*
X737713Y1031387D02*
X742792D01*
X750409Y1036466D02*
X752948Y1039005D01*
X758027D01*
X760566Y1036466D01*
Y1026309D01*
X758027Y1023770D01*
X752948D01*
X750409Y1026309D01*
Y1036466D01*
X765644Y1023770D02*
Y1033927D01*
X768183D01*
X770722Y1031387D01*
Y1023770D01*
Y1031387D01*
X773262Y1033927D01*
X775801Y1031387D01*
Y1023770D01*
X780879D02*
Y1033927D01*
X783418D01*
X785957Y1031387D01*
Y1023770D01*
Y1031387D01*
X788497Y1033927D01*
X791036Y1031387D01*
Y1023770D01*
X816428D02*
X811349Y1028848D01*
Y1033927D01*
X816428Y1039005D01*
X824045Y1023770D02*
X829124D01*
X826584D01*
Y1039005D01*
X824045Y1036466D01*
X846898Y1023770D02*
X836741D01*
X846898Y1033927D01*
Y1036466D01*
X844359Y1039005D01*
X839280D01*
X836741Y1036466D01*
X862133Y1039005D02*
X851976D01*
Y1031387D01*
X857055Y1033927D01*
X859594D01*
X862133Y1031387D01*
Y1026309D01*
X859594Y1023770D01*
X854515D01*
X851976Y1026309D01*
X867211Y1023770D02*
Y1026309D01*
X869750D01*
Y1023770D01*
X867211D01*
X890064D02*
X879907D01*
X890064Y1033927D01*
Y1036466D01*
X887525Y1039005D01*
X882446D01*
X879907Y1036466D01*
X895142D02*
X897681Y1039005D01*
X902760D01*
X905299Y1036466D01*
Y1026309D01*
X902760Y1023770D01*
X897681D01*
X895142Y1026309D01*
Y1036466D01*
X910377Y1023770D02*
Y1033927D01*
X912916D01*
X915456Y1031387D01*
Y1023770D01*
Y1031387D01*
X917995Y1033927D01*
X920534Y1031387D01*
Y1023770D01*
X925612D02*
X930691D01*
X928151D01*
Y1033927D01*
X925612D01*
X938308Y1023770D02*
X943387D01*
X940847D01*
Y1039005D01*
X938308D01*
X951004Y1023770D02*
X956082Y1028848D01*
Y1033927D01*
X951004Y1039005D01*
X694547Y985670D02*
X699625D01*
X697086D01*
Y1000905D01*
X694547Y998366D01*
X707243Y985670D02*
Y988209D01*
X709782D01*
Y985670D01*
X707243D01*
X719939Y998366D02*
X722478Y1000905D01*
X727556D01*
X730096Y998366D01*
Y988209D01*
X727556Y985670D01*
X722478D01*
X719939Y988209D01*
Y998366D01*
X735174D02*
X737713Y1000905D01*
X742792D01*
X745331Y998366D01*
Y988209D01*
X742792Y985670D01*
X737713D01*
X735174Y988209D01*
Y998366D01*
X750409D02*
X752948Y1000905D01*
X758027D01*
X760566Y998366D01*
Y988209D01*
X758027Y985670D01*
X752948D01*
X750409Y988209D01*
Y998366D01*
X765644Y985670D02*
Y995827D01*
X768183D01*
X770722Y993288D01*
Y985670D01*
Y993288D01*
X773262Y995827D01*
X775801Y993288D01*
Y985670D01*
X780879D02*
Y995827D01*
X783418D01*
X785957Y993288D01*
Y985670D01*
Y993288D01*
X788497Y995827D01*
X791036Y993288D01*
Y985670D01*
X816428D02*
X811349Y990748D01*
Y995827D01*
X816428Y1000905D01*
X824045Y998366D02*
X826584Y1000905D01*
X831663D01*
X834202Y998366D01*
Y995827D01*
X831663Y993288D01*
X829124D01*
X831663D01*
X834202Y990748D01*
Y988209D01*
X831663Y985670D01*
X826584D01*
X824045Y988209D01*
X839280D02*
X841819Y985670D01*
X846898D01*
X849437Y988209D01*
Y998366D01*
X846898Y1000905D01*
X841819D01*
X839280Y998366D01*
Y995827D01*
X841819Y993288D01*
X849437D01*
X854515Y985670D02*
Y988209D01*
X857055D01*
Y985670D01*
X854515D01*
X867211Y998366D02*
X869750Y1000905D01*
X874829D01*
X877368Y998366D01*
Y995827D01*
X874829Y993288D01*
X872290D01*
X874829D01*
X877368Y990748D01*
Y988209D01*
X874829Y985670D01*
X869750D01*
X867211Y988209D01*
X882446Y1000905D02*
X892603D01*
Y998366D01*
X882446Y988209D01*
Y985670D01*
X897681D02*
Y995827D01*
X900221D01*
X902760Y993288D01*
Y985670D01*
Y993288D01*
X905299Y995827D01*
X907838Y993288D01*
Y985670D01*
X912916D02*
X917995D01*
X915456D01*
Y995827D01*
X912916D01*
X925612Y985670D02*
X930691D01*
X928151D01*
Y1000905D01*
X925612D01*
X938308Y985670D02*
X943387Y990748D01*
Y995827D01*
X938308Y1000905D01*
X694547Y960266D02*
X697086Y962805D01*
X702165D01*
X704704Y960266D01*
Y950109D01*
X702165Y947570D01*
X697086D01*
X694547Y950109D01*
Y960266D01*
X709782Y947570D02*
Y950109D01*
X712321D01*
Y947570D01*
X709782D01*
X722478Y960266D02*
X725017Y962805D01*
X730096D01*
X732635Y960266D01*
Y957727D01*
X730096Y955188D01*
X727556D01*
X730096D01*
X732635Y952648D01*
Y950109D01*
X730096Y947570D01*
X725017D01*
X722478Y950109D01*
X737713Y960266D02*
X740252Y962805D01*
X745331D01*
X747870Y960266D01*
Y950109D01*
X745331Y947570D01*
X740252D01*
X737713Y950109D01*
Y960266D01*
X752948D02*
X755487Y962805D01*
X760566D01*
X763105Y960266D01*
Y950109D01*
X760566Y947570D01*
X755487D01*
X752948Y950109D01*
Y960266D01*
X768183Y947570D02*
Y957727D01*
X770723D01*
X773262Y955188D01*
Y947570D01*
Y955188D01*
X775801Y957727D01*
X778340Y955188D01*
Y947570D01*
X783418D02*
Y957727D01*
X785957D01*
X788497Y955188D01*
Y947570D01*
Y955188D01*
X791036Y957727D01*
X793575Y955188D01*
Y947570D01*
X818967D02*
X813888Y952648D01*
Y957727D01*
X818967Y962805D01*
X826584Y947570D02*
X831663D01*
X829124D01*
Y962805D01*
X826584Y960266D01*
X839280Y947570D02*
X844359D01*
X841819D01*
Y962805D01*
X839280Y960266D01*
X851976Y947570D02*
Y950109D01*
X854515D01*
Y947570D01*
X851976D01*
X864672Y960266D02*
X867211Y962805D01*
X872290D01*
X874829Y960266D01*
Y957727D01*
X872290Y955188D01*
X874829Y952648D01*
Y950109D01*
X872290Y947570D01*
X867211D01*
X864672Y950109D01*
Y952648D01*
X867211Y955188D01*
X864672Y957727D01*
Y960266D01*
X867211Y955188D02*
X872290D01*
X879907Y947570D02*
X884986D01*
X882446D01*
Y962805D01*
X879907Y960266D01*
X892603Y947570D02*
Y957727D01*
X895142D01*
X897681Y955188D01*
Y947570D01*
Y955188D01*
X900220Y957727D01*
X902760Y955188D01*
Y947570D01*
X907838D02*
X912916D01*
X910377D01*
Y957727D01*
X907838D01*
X920534Y947570D02*
X925612D01*
X923073D01*
Y962805D01*
X920534D01*
X933230Y947570D02*
X938308Y952648D01*
Y957727D01*
X933230Y962805D01*
X517302Y909470D02*
X522381D01*
X519842D01*
Y924705D01*
X517302Y922166D01*
X529998D02*
X532537Y924705D01*
X537616D01*
X540155Y922166D01*
Y912009D01*
X537616Y909470D01*
X532537D01*
X529998Y912009D01*
Y922166D01*
X555390Y924705D02*
X550312Y922166D01*
X545233Y917087D01*
Y912009D01*
X547773Y909470D01*
X552851D01*
X555390Y912009D01*
Y914548D01*
X552851Y917087D01*
X545233D01*
X575704Y924705D02*
X585860D01*
X580782D01*
Y909470D01*
X593478D02*
X598556D01*
X601095Y912009D01*
Y917087D01*
X598556Y919627D01*
X593478D01*
X590939Y917087D01*
Y912009D01*
X593478Y909470D01*
X608713Y922166D02*
Y919627D01*
X606174D01*
X611252D01*
X608713D01*
Y912009D01*
X611252Y909470D01*
X621409Y919627D02*
X626487D01*
X629026Y917087D01*
Y909470D01*
X621409D01*
X618870Y912009D01*
X621409Y914548D01*
X629026D01*
X634105Y909470D02*
X639183D01*
X636644D01*
Y924705D01*
X634105D01*
X517302Y1328570D02*
X522381D01*
X519842D01*
Y1343805D01*
X517302Y1341266D01*
X527459Y1290470D02*
X517302D01*
X527459Y1300627D01*
Y1303166D01*
X524920Y1305705D01*
X519842D01*
X517302Y1303166D01*
X527459Y1252370D02*
X517302D01*
X527459Y1262527D01*
Y1265066D01*
X524920Y1267605D01*
X519842D01*
X517302Y1265066D01*
X527459Y1214270D02*
X517302D01*
X527459Y1224427D01*
Y1226966D01*
X524920Y1229505D01*
X519842D01*
X517302Y1226966D01*
X527459Y1176170D02*
X517302D01*
X527459Y1186327D01*
Y1188866D01*
X524920Y1191405D01*
X519842D01*
X517302Y1188866D01*
X524920Y1138070D02*
Y1153305D01*
X517302Y1145687D01*
X527459D01*
X524920Y1099970D02*
Y1115205D01*
X517302Y1107588D01*
X527459D01*
X524920Y1061870D02*
Y1077105D01*
X517302Y1069488D01*
X527459D01*
X524920Y1023770D02*
Y1039005D01*
X517302Y1031387D01*
X527459D01*
X517302Y985670D02*
X522381D01*
X519842D01*
Y1000905D01*
X517302Y998366D01*
X529998Y988209D02*
X532537Y985670D01*
X537616D01*
X540155Y988209D01*
Y998366D01*
X537616Y1000905D01*
X532537D01*
X529998Y998366D01*
Y995827D01*
X532537Y993288D01*
X540155D01*
X527459Y962805D02*
X522381Y960266D01*
X517302Y955188D01*
Y950109D01*
X519842Y947570D01*
X524920D01*
X527459Y950109D01*
Y952648D01*
X524920Y955188D01*
X517302D01*
X542694Y947570D02*
X532537D01*
X542694Y957727D01*
Y960266D01*
X540155Y962805D01*
X535077D01*
X532537Y960266D01*
D11*
X247950Y250000D02*
Y850000D01*
X1480000D01*
Y250000D02*
Y850000D01*
X247950Y250000D02*
X1480000D01*
D72*
X395954Y992020D02*
G03*
X395954Y992020I-6350J0D01*
G01*
X393414Y953920D02*
G03*
X393414Y953920I-3810J0D01*
G01*
X395954D02*
G03*
X395954Y953920I-6350J0D01*
G01*
X1012001Y768540D02*
G03*
X1012001Y768540I-2540J0D01*
G01*
X1013695D02*
G03*
X1013695Y768540I-4233J0D01*
G01*
X695490Y367500D02*
G03*
X695490Y367500I-2540J0D01*
G01*
X697183D02*
G03*
X697183Y367500I-4233J0D01*
G01*
X716989Y358500D02*
G03*
X716989Y358500I-2540J0D01*
G01*
X718682D02*
G03*
X718682Y358500I-4233J0D01*
G01*
X468990Y366000D02*
G03*
X468990Y366000I-2540J0D01*
G01*
X470683D02*
G03*
X470683Y366000I-4233J0D01*
G01*
X809990Y354500D02*
G03*
X809990Y354500I-2540J0D01*
G01*
X811683D02*
G03*
X811683Y354500I-4233J0D01*
G01*
X805490Y515000D02*
G03*
X805490Y515000I-2540J0D01*
G01*
X807183D02*
G03*
X807183Y515000I-4233J0D01*
G01*
X788490Y318000D02*
G03*
X788490Y318000I-2540J0D01*
G01*
X790183D02*
G03*
X790183Y318000I-4233J0D01*
G01*
X758490Y385348D02*
G03*
X758490Y385348I-2540J0D01*
G01*
X760183D02*
G03*
X760183Y385348I-4233J0D01*
G01*
X727990Y324348D02*
G03*
X727990Y324348I-2540J0D01*
G01*
X729683D02*
G03*
X729683Y324348I-4233J0D01*
G01*
X751490Y353348D02*
G03*
X751490Y353348I-2540J0D01*
G01*
X753183D02*
G03*
X753183Y353348I-4233J0D01*
G01*
X706990Y366848D02*
G03*
X706990Y366848I-2540J0D01*
G01*
X708683D02*
G03*
X708683Y366848I-4233J0D01*
G01*
X785990Y350348D02*
G03*
X785990Y350348I-2540J0D01*
G01*
X787683D02*
G03*
X787683Y350348I-4233J0D01*
G01*
X1383990Y629040D02*
G03*
X1383990Y629040I-2540J0D01*
G01*
X1385683D02*
G03*
X1385683Y629040I-4233J0D01*
G01*
X1212490Y708540D02*
G03*
X1212490Y708540I-2540J0D01*
G01*
X1214183D02*
G03*
X1214183Y708540I-4233J0D01*
G01*
X1304490Y695540D02*
G03*
X1304490Y695540I-2540J0D01*
G01*
X1306183D02*
G03*
X1306183Y695540I-4233J0D01*
G01*
X950990Y529040D02*
G03*
X950990Y529040I-2540J0D01*
G01*
X952683D02*
G03*
X952683Y529040I-4233J0D01*
G01*
X946990Y580540D02*
G03*
X946990Y580540I-2540J0D01*
G01*
X948683D02*
G03*
X948683Y580540I-4233J0D01*
G01*
X907490Y526040D02*
G03*
X907490Y526040I-2540J0D01*
G01*
X909183D02*
G03*
X909183Y526040I-4233J0D01*
G01*
X1010990Y579040D02*
G03*
X1010990Y579040I-2540J0D01*
G01*
X1012683D02*
G03*
X1012683Y579040I-4233J0D01*
G01*
X1041989Y560540D02*
G03*
X1041989Y560540I-2540J0D01*
G01*
X1043682D02*
G03*
X1043682Y560540I-4233J0D01*
G01*
X830490Y565540D02*
G03*
X830490Y565540I-2540J0D01*
G01*
X832183D02*
G03*
X832183Y565540I-4233J0D01*
G01*
X872990Y486040D02*
G03*
X872990Y486040I-2540J0D01*
G01*
X874683D02*
G03*
X874683Y486040I-4233J0D01*
G01*
X465990Y485540D02*
G03*
X465990Y485540I-2540J0D01*
G01*
X467683D02*
G03*
X467683Y485540I-4233J0D01*
G01*
X465490Y449040D02*
G03*
X465490Y449040I-2540J0D01*
G01*
X467183D02*
G03*
X467183Y449040I-4233J0D01*
G01*
X890990Y449540D02*
G03*
X890990Y449540I-2540J0D01*
G01*
X892683D02*
G03*
X892683Y449540I-4233J0D01*
G01*
X946490Y735040D02*
G03*
X946490Y735040I-2540J0D01*
G01*
X948183D02*
G03*
X948183Y735040I-4233J0D01*
G01*
X858990Y738040D02*
G03*
X858990Y738040I-2540J0D01*
G01*
X860683D02*
G03*
X860683Y738040I-4233J0D01*
G01*
X884490Y768540D02*
G03*
X884490Y768540I-2540J0D01*
G01*
X886183D02*
G03*
X886183Y768540I-4233J0D01*
G01*
X895990Y810540D02*
G03*
X895990Y810540I-2540J0D01*
G01*
X897683D02*
G03*
X897683Y810540I-4233J0D01*
G01*
X870990Y753540D02*
G03*
X870990Y753540I-2540J0D01*
G01*
X872683D02*
G03*
X872683Y753540I-4233J0D01*
G01*
X916490Y580040D02*
G03*
X916490Y580040I-2540J0D01*
G01*
X918183D02*
G03*
X918183Y580040I-4233J0D01*
G01*
X742490Y569540D02*
G03*
X742490Y569540I-2540J0D01*
G01*
X744183D02*
G03*
X744183Y569540I-4233J0D01*
G01*
X1020354Y514720D02*
G03*
X1020354Y514720I-2540J0D01*
G01*
X1022047D02*
G03*
X1022047Y514720I-4233J0D01*
G01*
X422990Y514040D02*
G03*
X422990Y514040I-2540J0D01*
G01*
X424683D02*
G03*
X424683Y514040I-4233J0D01*
G01*
X1404990Y558540D02*
G03*
X1404990Y558540I-2540J0D01*
G01*
X1406683D02*
G03*
X1406683Y558540I-4233J0D01*
G01*
X1310990Y675540D02*
G03*
X1310990Y675540I-2540J0D01*
G01*
X1312683D02*
G03*
X1312683Y675540I-4233J0D01*
G01*
X1229990Y654540D02*
G03*
X1229990Y654540I-2540J0D01*
G01*
X1231683D02*
G03*
X1231683Y654540I-4233J0D01*
G01*
X1138990Y623540D02*
G03*
X1138990Y623540I-2540J0D01*
G01*
X1140683D02*
G03*
X1140683Y623540I-4233J0D01*
G01*
X1310990Y616540D02*
G03*
X1310990Y616540I-2540J0D01*
G01*
X1312683D02*
G03*
X1312683Y616540I-4233J0D01*
G01*
X970490Y708540D02*
G03*
X970490Y708540I-2540J0D01*
G01*
X972183D02*
G03*
X972183Y708540I-4233J0D01*
G01*
X955990Y695040D02*
G03*
X955990Y695040I-2540J0D01*
G01*
X957683D02*
G03*
X957683Y695040I-4233J0D01*
G01*
X990490Y637540D02*
G03*
X990490Y637540I-2540J0D01*
G01*
X992183D02*
G03*
X992183Y637540I-4233J0D01*
G01*
X1130990D02*
G03*
X1130990Y637540I-2540J0D01*
G01*
X1132683D02*
G03*
X1132683Y637540I-4233J0D01*
G01*
X994990Y611040D02*
G03*
X994990Y611040I-2540J0D01*
G01*
X996683D02*
G03*
X996683Y611040I-4233J0D01*
G01*
X1191990Y721040D02*
G03*
X1191990Y721040I-2540J0D01*
G01*
X1193683D02*
G03*
X1193683Y721040I-4233J0D01*
G01*
X840490Y566040D02*
G03*
X840490Y566040I-2540J0D01*
G01*
X842183D02*
G03*
X842183Y566040I-4233J0D01*
G01*
X503990Y354540D02*
G03*
X503990Y354540I-2540J0D01*
G01*
X505683D02*
G03*
X505683Y354540I-4233J0D01*
G01*
X530490Y430540D02*
G03*
X530490Y430540I-2540J0D01*
G01*
X532183D02*
G03*
X532183Y430540I-4233J0D01*
G01*
X660490Y304040D02*
G03*
X660490Y304040I-2540J0D01*
G01*
X662183D02*
G03*
X662183Y304040I-4233J0D01*
G01*
X660490Y341540D02*
G03*
X660490Y341540I-2540J0D01*
G01*
X662183D02*
G03*
X662183Y341540I-4233J0D01*
G01*
X1044990Y340373D02*
G03*
X1044990Y340373I-2540J0D01*
G01*
X1046683D02*
G03*
X1046683Y340373I-4233J0D01*
G01*
X660490Y379040D02*
G03*
X660490Y379040I-2540J0D01*
G01*
X662183D02*
G03*
X662183Y379040I-4233J0D01*
G01*
X1044990Y378207D02*
G03*
X1044990Y378207I-2540J0D01*
G01*
X1046683D02*
G03*
X1046683Y378207I-4233J0D01*
G01*
X660490Y416540D02*
G03*
X660490Y416540I-2540J0D01*
G01*
X662183D02*
G03*
X662183Y416540I-4233J0D01*
G01*
X1044990Y416040D02*
G03*
X1044990Y416040I-2540J0D01*
G01*
X1046683D02*
G03*
X1046683Y416040I-4233J0D01*
G01*
X1044990Y302540D02*
G03*
X1044990Y302540I-2540J0D01*
G01*
X1046683D02*
G03*
X1046683Y302540I-4233J0D01*
G01*
X614490Y331040D02*
G03*
X614490Y331040I-2540J0D01*
G01*
X616183D02*
G03*
X616183Y331040I-4233J0D01*
G01*
X614490Y366873D02*
G03*
X614490Y366873I-2540J0D01*
G01*
X616183D02*
G03*
X616183Y366873I-4233J0D01*
G01*
X614490Y402707D02*
G03*
X614490Y402707I-2540J0D01*
G01*
X616183D02*
G03*
X616183Y402707I-4233J0D01*
G01*
X614490Y438540D02*
G03*
X614490Y438540I-2540J0D01*
G01*
X616183D02*
G03*
X616183Y438540I-4233J0D01*
G01*
X678990Y367500D02*
G03*
X678990Y367500I-2540J0D01*
G01*
X680683D02*
G03*
X680683Y367500I-4233J0D01*
G01*
X795490Y364848D02*
G03*
X795490Y364848I-2540J0D01*
G01*
X797183D02*
G03*
X797183Y364848I-4233J0D01*
G01*
X693843Y788670D02*
G03*
X693843Y788670I-4233J0D01*
G01*
X719243D02*
G03*
X719243Y788670I-4233J0D01*
G01*
X744643D02*
G03*
X744643Y788670I-4233J0D01*
G01*
X770043D02*
G03*
X770043Y788670I-4233J0D01*
G01*
X795443D02*
G03*
X795443Y788670I-4233J0D01*
G01*
X820843D02*
G03*
X820843Y788670I-4233J0D01*
G01*
X846243D02*
G03*
X846243Y788670I-4233J0D01*
G01*
X871643D02*
G03*
X871643Y788670I-4233J0D01*
G01*
X947843D02*
G03*
X947843Y788670I-4233J0D01*
G01*
X922443D02*
G03*
X922443Y788670I-4233J0D01*
G01*
X1311133Y498950D02*
G03*
X1311133Y498950I-4233J0D01*
G01*
X1261133D02*
G03*
X1261133Y498950I-4233J0D01*
G01*
X1311133Y643950D02*
G03*
X1311133Y643950I-4233J0D01*
G01*
X1286133D02*
G03*
X1286133Y643950I-4233J0D01*
G01*
X1261133D02*
G03*
X1261133Y643950I-4233J0D01*
G01*
X324743Y458080D02*
G03*
X324743Y458080I-4233J0D01*
G01*
Y483480D02*
G03*
X324743Y483480I-4233J0D01*
G01*
Y508880D02*
G03*
X324743Y508880I-4233J0D01*
G01*
Y534280D02*
G03*
X324743Y534280I-4233J0D01*
G01*
X383254Y1328570D02*
Y1331745D01*
X386429Y1334920D01*
X383254Y1338095D02*
X386429Y1334920D01*
X383254Y1338095D02*
Y1341270D01*
X386429D01*
X389604Y1338095D01*
X392779Y1341270D01*
X395954D01*
Y1338095D02*
Y1341270D01*
X392779Y1334920D02*
X395954Y1338095D01*
X392779Y1334920D02*
X395954Y1331745D01*
Y1328570D02*
Y1331745D01*
X392779Y1328570D02*
X395954D01*
X389604Y1331745D02*
X392779Y1328570D01*
X386429D02*
X389604Y1331745D01*
X383254Y1328570D02*
X386429D01*
X387699Y1294915D02*
X389604Y1293010D01*
X385794Y1294915D02*
X387699D01*
X385794D02*
X387699Y1296820D01*
X385794Y1298725D02*
X387699Y1296820D01*
X385794Y1298725D02*
X387699D01*
X389604Y1300630D01*
X391509Y1298725D01*
X393414D01*
X391509Y1296820D02*
X393414Y1298725D01*
X391509Y1296820D02*
X393414Y1294915D01*
X391509D02*
X393414D01*
X389604Y1293010D02*
X391509Y1294915D01*
X386429Y1293645D02*
X389604Y1290470D01*
X383254Y1293645D02*
X386429D01*
X383254D02*
X386429Y1296820D01*
X383254Y1299995D02*
X386429Y1296820D01*
X383254Y1299995D02*
X386429D01*
X389604Y1303170D01*
X392779Y1299995D01*
X395954D01*
X392779Y1296820D02*
X395954Y1299995D01*
X392779Y1296820D02*
X395954Y1293645D01*
X392779D02*
X395954D01*
X389604Y1290470D02*
X392779Y1293645D01*
X386429Y1255545D02*
X389604Y1252370D01*
X383254Y1255545D02*
X386429D01*
X383254D02*
X386429Y1258720D01*
X383254Y1261895D02*
X386429Y1258720D01*
X383254Y1261895D02*
X386429D01*
X389604Y1265070D01*
X392779Y1261895D01*
X395954D01*
X392779Y1258720D02*
X395954Y1261895D01*
X392779Y1258720D02*
X395954Y1255545D01*
X392779D02*
X395954D01*
X389604Y1252370D02*
X392779Y1255545D01*
X383254Y1214270D02*
X389604Y1217445D01*
X395954Y1214270D01*
X392779Y1220620D02*
X395954Y1214270D01*
X392779Y1220620D02*
X395954Y1226970D01*
X389604Y1223795D02*
X395954Y1226970D01*
X383254D02*
X389604Y1223795D01*
X383254Y1226970D02*
X386429Y1220620D01*
X383254Y1214270D02*
X386429Y1220620D01*
X385794Y1178710D02*
X393414D01*
Y1186330D01*
X385794D02*
X393414D01*
X385794Y1178710D02*
Y1186330D01*
X383254Y1176170D02*
X395954D01*
Y1188870D01*
X383254D02*
X395954D01*
X383254Y1176170D02*
Y1188870D01*
X389604Y1140610D02*
X393414Y1148230D01*
X385794D02*
X393414D01*
X385794D02*
X389604Y1140610D01*
Y1138070D02*
X395954Y1150770D01*
X383254D02*
X395954D01*
X383254D02*
X389604Y1138070D01*
Y1099970D02*
X395954Y1112670D01*
X383254D02*
X395954D01*
X383254D02*
X389604Y1099970D01*
X383254Y1068220D02*
X389604Y1061870D01*
X395954Y1068220D01*
X389604Y1074570D02*
X395954Y1068220D01*
X383254D02*
X389604Y1074570D01*
X383254Y1026945D02*
X386429D01*
X383254D02*
Y1033295D01*
X386429D01*
Y1036470D01*
X392779D01*
Y1033295D02*
Y1036470D01*
Y1033295D02*
X395954D01*
Y1026945D02*
Y1033295D01*
X392779Y1026945D02*
X395954D01*
X392779Y1023770D02*
Y1026945D01*
X386429Y1023770D02*
X392779D01*
X386429D02*
Y1026945D01*
X1067300Y793540D02*
X1071533Y789307D01*
X1075767Y793540D01*
X1071533Y797773D02*
X1075767Y793540D01*
X1067300D02*
X1071533Y797773D01*
X1105633Y793540D02*
X1109867Y789307D01*
X1114100Y793540D01*
X1109867Y797773D02*
X1114100Y793540D01*
X1105633D02*
X1109867Y797773D01*
X1143967Y793540D02*
X1148200Y789307D01*
X1152433Y793540D01*
X1148200Y797773D02*
X1152433Y793540D01*
X1143967D02*
X1148200Y797773D01*
X312910Y352000D02*
X317990D01*
Y357080D01*
X312910D02*
X317990D01*
X312910Y352000D02*
Y357080D01*
X311217Y350307D02*
X319683D01*
Y358773D01*
X311217D02*
X319683D01*
X311217Y350307D02*
Y358773D01*
X1409910Y352000D02*
X1414990D01*
Y357080D01*
X1409910D02*
X1414990D01*
X1409910Y352000D02*
Y357080D01*
X1408217Y350307D02*
X1416683D01*
Y358773D01*
X1408217D02*
X1416683D01*
X1408217Y350307D02*
Y358773D01*
X1028967Y793540D02*
X1033200Y789307D01*
X1037433Y793540D01*
X1033200Y797773D02*
X1037433Y793540D01*
X1028967D02*
X1033200Y797773D01*
X587377Y691937D02*
Y694053D01*
X589493Y696170D01*
X587377Y698287D02*
X589493Y696170D01*
X587377Y698287D02*
Y700403D01*
X589493D01*
X591610Y698287D01*
X593727Y700403D01*
X595843D01*
Y698287D02*
Y700403D01*
X593727Y696170D02*
X595843Y698287D01*
X593727Y696170D02*
X595843Y694053D01*
Y691937D02*
Y694053D01*
X593727Y691937D02*
X595843D01*
X591610Y694053D02*
X593727Y691937D01*
X589493D02*
X591610Y694053D01*
X587377Y691937D02*
X589493D01*
X1313900Y738767D02*
X1318133Y747233D01*
X1309667D02*
X1318133D01*
X1309667D02*
X1313900Y738767D01*
X1249900D02*
X1254133Y747233D01*
X1245667D02*
X1254133D01*
X1245667D02*
X1249900Y738767D01*
X1438110Y601757D02*
X1442343Y610223D01*
X1433877D02*
X1442343D01*
X1433877D02*
X1438110Y601757D01*
Y537757D02*
X1442343Y546223D01*
X1433877D02*
X1442343D01*
X1433877D02*
X1438110Y537757D01*
X1336783Y566833D02*
X1338900Y564717D01*
X1334667Y566833D02*
X1336783D01*
X1334667D02*
X1336783Y568950D01*
X1334667Y571067D02*
X1336783Y568950D01*
X1334667Y571067D02*
X1336783D01*
X1338900Y573183D01*
X1341017Y571067D01*
X1343133D01*
X1341017Y568950D02*
X1343133Y571067D01*
X1341017Y568950D02*
X1343133Y566833D01*
X1341017D02*
X1343133D01*
X1338900Y564717D02*
X1341017Y566833D01*
X1222783D02*
X1224900Y564717D01*
X1220667Y566833D02*
X1222783D01*
X1220667D02*
X1222783Y568950D01*
X1220667Y571067D02*
X1222783Y568950D01*
X1220667Y571067D02*
X1222783D01*
X1224900Y573183D01*
X1227017Y571067D01*
X1229133D01*
X1227017Y568950D02*
X1229133Y571067D01*
X1227017Y568950D02*
X1229133Y566833D01*
X1227017D02*
X1229133D01*
X1224900Y564717D02*
X1227017Y566833D01*
X284057Y801853D02*
X288290Y803970D01*
X292523Y801853D01*
X290407Y806086D02*
X292523Y801853D01*
X290407Y806086D02*
X292523Y810320D01*
X288290Y808203D02*
X292523Y810320D01*
X284057D02*
X288290Y808203D01*
X284057Y810320D02*
X286173Y806086D01*
X284057Y801853D02*
X286173Y806086D01*
X1428557Y799487D02*
X1432790Y801603D01*
X1437023Y799487D01*
X1434907Y803720D02*
X1437023Y799487D01*
X1434907Y803720D02*
X1437023Y807953D01*
X1432790Y805837D02*
X1437023Y807953D01*
X1428557D02*
X1432790Y805837D01*
X1428557Y807953D02*
X1430673Y803720D01*
X1428557Y799487D02*
X1430673Y803720D01*
X1437950Y638800D02*
X1440490Y643880D01*
X1435410D02*
X1440490D01*
X1435410D02*
X1437950Y638800D01*
Y637107D02*
X1442183Y645573D01*
X1433717D02*
X1442183D01*
X1433717D02*
X1437950Y637107D01*
X1437950Y664200D02*
X1440490Y669280D01*
X1435410D02*
X1440490D01*
X1435410D02*
X1437950Y664200D01*
Y662507D02*
X1442183Y670973D01*
X1433717D02*
X1442183D01*
X1433717D02*
X1437950Y662507D01*
X1190250Y789960D02*
X1192790Y795040D01*
X1187710D02*
X1192790D01*
X1187710D02*
X1190250Y789960D01*
Y788267D02*
X1194483Y796733D01*
X1186017D02*
X1194483D01*
X1186017D02*
X1190250Y788267D01*
X1215650Y789960D02*
X1218190Y795040D01*
X1213110D02*
X1218190D01*
X1213110D02*
X1215650Y789960D01*
Y788267D02*
X1219883Y796733D01*
X1211417D02*
X1219883D01*
X1211417D02*
X1215650Y788267D01*
X696180Y463230D02*
X697450Y461960D01*
X694910Y463230D02*
X696180D01*
X694910D02*
X696180Y464500D01*
X694910Y465770D02*
X696180Y464500D01*
X694910Y465770D02*
X696180D01*
X697450Y467040D01*
X698720Y465770D01*
X699990D01*
X698720Y464500D02*
X699990Y465770D01*
X698720Y464500D02*
X699990Y463230D01*
X698720D02*
X699990D01*
X697450Y461960D02*
X698720Y463230D01*
X695333Y462383D02*
X697450Y460267D01*
X693217Y462383D02*
X695333D01*
X693217D02*
X695333Y464500D01*
X693217Y466617D02*
X695333Y464500D01*
X693217Y466617D02*
X695333D01*
X697450Y468733D01*
X699566Y466617D01*
X701683D01*
X699566Y464500D02*
X701683Y466617D01*
X699566Y464500D02*
X701683Y462383D01*
X699566D02*
X701683D01*
X697450Y460267D02*
X699566Y462383D01*
X696180Y513230D02*
X697450Y511960D01*
X694910Y513230D02*
X696180D01*
X694910D02*
X696180Y514500D01*
X694910Y515770D02*
X696180Y514500D01*
X694910Y515770D02*
X696180D01*
X697450Y517040D01*
X698720Y515770D01*
X699990D01*
X698720Y514500D02*
X699990Y515770D01*
X698720Y514500D02*
X699990Y513230D01*
X698720D02*
X699990D01*
X697450Y511960D02*
X698720Y513230D01*
X695333Y512383D02*
X697450Y510267D01*
X693217Y512383D02*
X695333D01*
X693217D02*
X695333Y514500D01*
X693217Y516617D02*
X695333Y514500D01*
X693217Y516617D02*
X695333D01*
X697450Y518733D01*
X699566Y516617D01*
X701683D01*
X699566Y514500D02*
X701683Y516617D01*
X699566Y514500D02*
X701683Y512383D01*
X699566D02*
X701683D01*
X697450Y510267D02*
X699566Y512383D01*
X363717Y416923D02*
X365833D01*
X363717D02*
Y421157D01*
X365833D01*
Y423273D01*
X370067D01*
Y421157D02*
Y423273D01*
Y421157D02*
X372183D01*
Y416923D02*
Y421157D01*
X370067Y416923D02*
X372183D01*
X370067Y414807D02*
Y416923D01*
X365833Y414807D02*
X370067D01*
X365833D02*
Y416923D01*
X363717Y726923D02*
X365833D01*
X363717D02*
Y731157D01*
X365833D01*
Y733273D01*
X370067D01*
Y731157D02*
Y733273D01*
Y731157D02*
X372183D01*
Y726923D02*
Y731157D01*
X370067Y726923D02*
X372183D01*
X370067Y724807D02*
Y726923D01*
X365833Y724807D02*
X370067D01*
X365833D02*
Y726923D01*
X1113717D02*
X1115833D01*
X1113717D02*
Y731157D01*
X1115833D01*
Y733273D01*
X1120067D01*
Y731157D02*
Y733273D01*
Y731157D02*
X1122183D01*
Y726923D02*
Y731157D01*
X1120067Y726923D02*
X1122183D01*
X1120067Y724807D02*
Y726923D01*
X1115833Y724807D02*
X1120067D01*
X1115833D02*
Y726923D01*
X1113717Y416923D02*
X1115833D01*
X1113717D02*
Y421157D01*
X1115833D01*
Y423273D01*
X1120067D01*
Y421157D02*
Y423273D01*
Y421157D02*
X1122183D01*
Y416923D02*
Y421157D01*
X1120067Y416923D02*
X1122183D01*
X1120067Y414807D02*
Y416923D01*
X1115833Y414807D02*
X1120067D01*
X1115833D02*
Y416923D01*
D73*
X365950Y1355240D02*
X1351209D01*
X365950Y936140D02*
X1351209D01*
X365950Y898040D02*
X1351209D01*
Y1393340D01*
X365950D02*
X1351209D01*
X365950Y898040D02*
Y1393340D01*
X1153393Y898040D02*
Y1393340D01*
X1024901Y898040D02*
Y1393340D01*
X683117Y898040D02*
Y1393340D01*
X505872Y898040D02*
Y1393340D01*
D74*
X1164823Y1384952D02*
Y1366670D01*
Y1375811D01*
X1177011D01*
Y1384952D01*
Y1366670D01*
X1186152D02*
X1192246D01*
X1195293Y1369717D01*
Y1375811D01*
X1192246Y1378858D01*
X1186152D01*
X1183105Y1375811D01*
Y1369717D01*
X1186152Y1366670D01*
X1201387D02*
X1207481D01*
X1204434D01*
Y1384952D01*
X1201387D01*
X1225763Y1366670D02*
X1219669D01*
X1216622Y1369717D01*
Y1375811D01*
X1219669Y1378858D01*
X1225763D01*
X1228810Y1375811D01*
Y1372764D01*
X1216622D01*
X1253186Y1384952D02*
X1265374D01*
X1259280D01*
Y1366670D01*
X1271469Y1378858D02*
Y1369717D01*
X1274516Y1366670D01*
X1283656D01*
Y1363623D01*
X1280609Y1360576D01*
X1277562D01*
X1283656Y1366670D02*
Y1378858D01*
X1289751Y1360576D02*
Y1378858D01*
X1298892D01*
X1301939Y1375811D01*
Y1369717D01*
X1298892Y1366670D01*
X1289751D01*
X1317174D02*
X1311080D01*
X1308033Y1369717D01*
Y1375811D01*
X1311080Y1378858D01*
X1317174D01*
X1320221Y1375811D01*
Y1372764D01*
X1308033D01*
X1036330Y1366670D02*
Y1384952D01*
X1045472D01*
X1048519Y1381905D01*
Y1375811D01*
X1045472Y1372764D01*
X1036330D01*
X1054613Y1366670D02*
X1060707D01*
X1057660D01*
Y1384952D01*
X1054613D01*
X1072895Y1378858D02*
X1078989D01*
X1082036Y1375811D01*
Y1366670D01*
X1072895D01*
X1069848Y1369717D01*
X1072895Y1372764D01*
X1082036D01*
X1091177Y1381905D02*
Y1378858D01*
X1088130D01*
X1094224D01*
X1091177D01*
Y1369717D01*
X1094224Y1366670D01*
X1112506D02*
X1106412D01*
X1103365Y1369717D01*
Y1375811D01*
X1106412Y1378858D01*
X1112506D01*
X1115553Y1375811D01*
Y1372764D01*
X1103365D01*
X1133835Y1384952D02*
Y1366670D01*
X1124694D01*
X1121647Y1369717D01*
Y1375811D01*
X1124694Y1378858D01*
X1133835D01*
X706735Y1384952D02*
X694547D01*
Y1375811D01*
X700641D01*
X694547D01*
Y1366670D01*
X712829D02*
X718923D01*
X715876D01*
Y1378858D01*
X712829D01*
X728064Y1366670D02*
Y1378858D01*
X737205D01*
X740252Y1375811D01*
Y1366670D01*
X746346D02*
X752440D01*
X749393D01*
Y1378858D01*
X746346D01*
X761581Y1366670D02*
X770723D01*
X773770Y1369717D01*
X770723Y1372764D01*
X764628D01*
X761581Y1375811D01*
X764628Y1378858D01*
X773770D01*
X779864Y1384952D02*
Y1366670D01*
Y1375811D01*
X782911Y1378858D01*
X789005D01*
X792052Y1375811D01*
Y1366670D01*
X807287D02*
X801193D01*
X798146Y1369717D01*
Y1375811D01*
X801193Y1378858D01*
X807287D01*
X810334Y1375811D01*
Y1372764D01*
X798146D01*
X828616Y1384952D02*
Y1366670D01*
X819475D01*
X816428Y1369717D01*
Y1375811D01*
X819475Y1378858D01*
X828616D01*
X852992Y1384952D02*
Y1366670D01*
Y1375811D01*
X865180D01*
Y1384952D01*
Y1366670D01*
X874321D02*
X880415D01*
X883462Y1369717D01*
Y1375811D01*
X880415Y1378858D01*
X874321D01*
X871274Y1375811D01*
Y1369717D01*
X874321Y1366670D01*
X889556D02*
X895650D01*
X892603D01*
Y1384952D01*
X889556D01*
X913932Y1366670D02*
X907838D01*
X904791Y1369717D01*
Y1375811D01*
X907838Y1378858D01*
X913932D01*
X916979Y1375811D01*
Y1372764D01*
X904791D01*
X953543Y1381905D02*
X950496Y1384952D01*
X944402D01*
X941355Y1381905D01*
Y1378858D01*
X944402Y1375811D01*
X950496D01*
X953543Y1372764D01*
Y1369717D01*
X950496Y1366670D01*
X944402D01*
X941355Y1369717D01*
X959637Y1366670D02*
X965731D01*
X962684D01*
Y1378858D01*
X959637D01*
X974872D02*
X987060D01*
X974872Y1366670D01*
X987060D01*
X1002296D02*
X996201D01*
X993155Y1369717D01*
Y1375811D01*
X996201Y1378858D01*
X1002296D01*
X1005342Y1375811D01*
Y1372764D01*
X993155D01*
X517302Y1384952D02*
Y1366670D01*
Y1375811D01*
X529491D01*
Y1384952D01*
Y1366670D01*
X535584D02*
X541679D01*
X538632D01*
Y1378858D01*
X535584D01*
X553867Y1381905D02*
Y1378858D01*
X550820D01*
X556914D01*
X553867D01*
Y1369717D01*
X556914Y1366670D01*
X596525Y1381905D02*
X593478Y1384952D01*
X587384D01*
X584337Y1381905D01*
Y1369717D01*
X587384Y1366670D01*
X593478D01*
X596525Y1369717D01*
X605666Y1366670D02*
X611760D01*
X614807Y1369717D01*
Y1375811D01*
X611760Y1378858D01*
X605666D01*
X602619Y1375811D01*
Y1369717D01*
X605666Y1366670D01*
X620901Y1378858D02*
Y1369717D01*
X623948Y1366670D01*
X633089D01*
Y1378858D01*
X639183Y1366670D02*
Y1378858D01*
X648324D01*
X651371Y1375811D01*
Y1366670D01*
X660512Y1381905D02*
Y1378858D01*
X657465D01*
X663559D01*
X660512D01*
Y1369717D01*
X663559Y1366670D01*
X400998Y1381905D02*
X397951Y1384952D01*
X391857D01*
X388810Y1381905D01*
Y1378858D01*
X391857Y1375811D01*
X397951D01*
X400998Y1372764D01*
Y1369717D01*
X397951Y1366670D01*
X391857D01*
X388810Y1369717D01*
X407092Y1378858D02*
Y1369717D01*
X410139Y1366670D01*
X419280D01*
Y1363623D01*
X416233Y1360576D01*
X413186D01*
X419280Y1366670D02*
Y1378858D01*
X425374Y1366670D02*
Y1378858D01*
X428421D01*
X431468Y1375811D01*
Y1366670D01*
Y1375811D01*
X434515Y1378858D01*
X437562Y1375811D01*
Y1366670D01*
X443656Y1384952D02*
Y1366670D01*
X452797D01*
X455844Y1369717D01*
Y1372764D01*
Y1375811D01*
X452797Y1378858D01*
X443656D01*
X464985Y1366670D02*
X471079D01*
X474126Y1369717D01*
Y1375811D01*
X471079Y1378858D01*
X464985D01*
X461938Y1375811D01*
Y1369717D01*
X464985Y1366670D01*
X480220D02*
X486314D01*
X483267D01*
Y1384952D01*
X480220D01*
M02*
