G04*
G04 #@! TF.GenerationSoftware,Altium Limited,CircuitStudio,1.5.2 (1.5.2.30)*
G04*
G04 Layer_Color=20142*
%FSLAX44Y44*%
%MOMM*%
G71*
G01*
G75*
%ADD11C,0.5000*%
G04:AMPARAMS|DCode=41|XSize=1.7272mm|YSize=2.2032mm|CornerRadius=0.4826mm|HoleSize=0mm|Usage=FLASHONLY|Rotation=270.000|XOffset=0mm|YOffset=0mm|HoleType=Round|Shape=RoundedRectangle|*
%AMROUNDEDRECTD41*
21,1,1.7272,1.2380,0,0,270.0*
21,1,0.7620,2.2032,0,0,270.0*
1,1,0.9652,-0.6190,-0.3810*
1,1,0.9652,-0.6190,0.3810*
1,1,0.9652,0.6190,0.3810*
1,1,0.9652,0.6190,-0.3810*
%
%ADD41ROUNDEDRECTD41*%
%ADD42C,3.3832*%
%ADD43C,1.4532*%
%ADD44R,1.9812X1.9812*%
%ADD45C,1.9812*%
%ADD46R,1.9812X1.9812*%
%ADD47C,6.2032*%
%ADD48C,3.8032*%
%ADD49C,1.7032*%
%ADD50R,1.7032X1.7032*%
%ADD51C,2.6032*%
%ADD52C,2.2032*%
%ADD53C,2.3032*%
%ADD54C,0.2032*%
%ADD55C,0.8032*%
D11*
X247950Y250000D02*
Y850000D01*
X1480000D01*
Y250000D02*
Y850000D01*
X247950Y250000D02*
X1480000D01*
D41*
X320510Y534280D02*
D03*
Y508880D02*
D03*
Y483480D02*
D03*
Y458080D02*
D03*
D42*
X1117950Y419040D02*
D03*
Y729040D02*
D03*
X367950D02*
D03*
Y419040D02*
D03*
D43*
X697450Y514500D02*
D03*
Y464500D02*
D03*
D44*
X1215650Y792500D02*
D03*
D45*
X1190250Y792500D02*
D03*
X1437950Y641340D02*
D03*
D46*
X1437950Y666740D02*
D03*
D47*
X1432790Y803720D02*
D03*
X288290Y806086D02*
D03*
X591610Y696170D02*
D03*
D48*
X1224900Y568950D02*
D03*
X1338900D02*
D03*
D49*
X1256900Y643950D02*
D03*
X1281900D02*
D03*
X1306900D02*
D03*
X1256900Y498950D02*
D03*
D50*
X1306900D02*
D03*
D51*
X1438110Y541990D02*
D03*
Y605990D02*
D03*
X1249900Y743000D02*
D03*
X1313900D02*
D03*
D52*
X918210Y788670D02*
D03*
X943610D02*
D03*
X867410D02*
D03*
X842010D02*
D03*
X816610D02*
D03*
X791210D02*
D03*
X765810D02*
D03*
X740410D02*
D03*
X715010D02*
D03*
X689610D02*
D03*
D53*
X1033200Y793540D02*
D03*
X1148200D02*
D03*
X1109867D02*
D03*
X1071533D02*
D03*
D54*
X1412450Y321290D02*
D03*
X315450D02*
D03*
D55*
X792950Y364848D02*
D03*
X676450Y367500D02*
D03*
X611950Y438540D02*
D03*
Y402707D02*
D03*
Y366873D02*
D03*
Y331040D02*
D03*
X1042450Y302540D02*
D03*
Y416040D02*
D03*
X657950Y416540D02*
D03*
X1042450Y378207D02*
D03*
X657950Y379040D02*
D03*
X1042450Y340373D02*
D03*
X657950Y341540D02*
D03*
Y304040D02*
D03*
X527950Y430540D02*
D03*
X501450Y354540D02*
D03*
X837950Y566040D02*
D03*
X1189450Y721040D02*
D03*
X992450Y611040D02*
D03*
X1128450Y637540D02*
D03*
X987950D02*
D03*
X953450Y695040D02*
D03*
X967950Y708540D02*
D03*
X1308450Y616540D02*
D03*
X1136450Y623540D02*
D03*
X1227450Y654540D02*
D03*
X1308450Y675540D02*
D03*
X1402450Y558540D02*
D03*
X420450Y514040D02*
D03*
X1017814Y514720D02*
D03*
X739950Y569540D02*
D03*
X913950Y580040D02*
D03*
X868450Y753540D02*
D03*
X893450Y810540D02*
D03*
X881950Y768540D02*
D03*
X856450Y738040D02*
D03*
X943950Y735040D02*
D03*
X888450Y449540D02*
D03*
X462950Y449040D02*
D03*
X463450Y485540D02*
D03*
X870450Y486040D02*
D03*
X827950Y565540D02*
D03*
X1039449Y560540D02*
D03*
X1008450Y579040D02*
D03*
X904950Y526040D02*
D03*
X944450Y580540D02*
D03*
X948450Y529040D02*
D03*
X1301950Y695540D02*
D03*
X1209950Y708540D02*
D03*
X1381450Y629040D02*
D03*
X783450Y350348D02*
D03*
X704450Y366848D02*
D03*
X748950Y353348D02*
D03*
X725450Y324348D02*
D03*
X755950Y385348D02*
D03*
X785950Y318000D02*
D03*
X802950Y515000D02*
D03*
X807450Y354500D02*
D03*
X466450Y366000D02*
D03*
X714449Y358500D02*
D03*
X692950Y367500D02*
D03*
X1009461Y768540D02*
D03*
M02*
