G04*
G04 #@! TF.GenerationSoftware,Altium Limited,CircuitStudio,1.5.2 (1.5.2.30)*
G04*
G04 Layer_Physical_Order=1*
G04 Layer_Color=11767835*
%FSLAX44Y44*%
%MOMM*%
G71*
G01*
G75*
%ADD10C,0.2540*%
%ADD11C,0.5000*%
G04:AMPARAMS|DCode=12|XSize=1.524mm|YSize=2mm|CornerRadius=0.381mm|HoleSize=0mm|Usage=FLASHONLY|Rotation=270.000|XOffset=0mm|YOffset=0mm|HoleType=Round|Shape=RoundedRectangle|*
%AMROUNDEDRECTD12*
21,1,1.5240,1.2380,0,0,270.0*
21,1,0.7620,2.0000,0,0,270.0*
1,1,0.7620,-0.6190,-0.3810*
1,1,0.7620,-0.6190,0.3810*
1,1,0.7620,0.6190,0.3810*
1,1,0.7620,0.6190,-0.3810*
%
%ADD12ROUNDEDRECTD12*%
%ADD13C,3.1800*%
%ADD14C,1.2500*%
%ADD15R,1.7780X1.7780*%
%ADD16C,1.7780*%
%ADD17R,1.7780X1.7780*%
%ADD18C,6.0000*%
%ADD19C,3.6000*%
%ADD20C,1.5000*%
%ADD21R,1.5000X1.5000*%
%ADD22C,2.4000*%
%ADD23C,2.0000*%
%ADD24C,2.1000*%
%ADD25C,0.6000*%
G36*
X1467950Y259938D02*
X1467052Y259040D01*
X257950Y259040D01*
X257950Y791048D01*
X259196Y791295D01*
X259207Y791268D01*
X261883Y786901D01*
X265210Y783006D01*
X269104Y779680D01*
X273472Y777003D01*
X278204Y775043D01*
X283184Y773848D01*
X287020Y773546D01*
Y806086D01*
X288290D01*
Y807356D01*
X320831D01*
X320529Y811192D01*
X319333Y816173D01*
X317373Y820905D01*
X314697Y825272D01*
X311370Y829167D01*
X307476Y832493D01*
X303109Y835169D01*
X298377Y837129D01*
X295708Y837770D01*
X295859Y839040D01*
X1467950Y839040D01*
X1467950Y259938D01*
D02*
G37*
%LPC*%
G36*
X870450Y491138D02*
X868499Y490750D01*
X867569Y490128D01*
X465583D01*
X465401Y490250D01*
X463450Y490638D01*
X461499Y490250D01*
X459845Y489145D01*
X458740Y487491D01*
X458352Y485540D01*
X458740Y483589D01*
X459845Y481935D01*
X461499Y480830D01*
X463450Y480442D01*
X465401Y480830D01*
X465583Y480952D01*
X869950D01*
X870175Y480997D01*
X870450Y480942D01*
X872401Y481330D01*
X874055Y482435D01*
X875160Y484089D01*
X875548Y486040D01*
X875160Y487991D01*
X874055Y489645D01*
X872401Y490750D01*
X870450Y491138D01*
D02*
G37*
G36*
X326700Y518614D02*
X314320D01*
X312053Y518163D01*
X310131Y516879D01*
X308847Y514957D01*
X308396Y512690D01*
Y505070D01*
X308847Y502803D01*
X310131Y500881D01*
X312053Y499597D01*
X314320Y499146D01*
X326700D01*
X328967Y499597D01*
X330889Y500881D01*
X332173Y502803D01*
X332624Y505070D01*
Y512690D01*
X332173Y514957D01*
X330889Y516879D01*
X328967Y518163D01*
X326700Y518614D01*
D02*
G37*
G36*
X1255630Y497680D02*
X1246941D01*
X1247119Y496329D01*
X1248130Y493887D01*
X1249739Y491789D01*
X1251837Y490180D01*
X1254279Y489169D01*
X1255630Y488991D01*
Y497680D01*
D02*
G37*
G36*
X1308450Y621638D02*
X1306499Y621250D01*
X1304845Y620145D01*
X1303740Y618491D01*
X1303352Y616540D01*
X1303740Y614589D01*
X1303862Y614407D01*
Y508450D01*
X1297400D01*
Y489450D01*
X1316400D01*
Y508450D01*
X1313038D01*
Y614407D01*
X1313160Y614589D01*
X1313548Y616540D01*
X1313160Y618491D01*
X1312055Y620145D01*
X1310401Y621250D01*
X1308450Y621638D01*
D02*
G37*
G36*
X1255630Y508909D02*
X1254279Y508732D01*
X1251837Y507720D01*
X1249739Y506111D01*
X1248130Y504013D01*
X1247119Y501571D01*
X1246941Y500220D01*
X1255630D01*
Y508909D01*
D02*
G37*
G36*
X910346Y524770D02*
X899554D01*
X899731Y523878D01*
X900956Y522046D01*
X902788Y520821D01*
X904014Y520578D01*
X903888Y519308D01*
X805503D01*
X804901Y519710D01*
X802950Y520098D01*
X800999Y519710D01*
X800397Y519308D01*
X704160D01*
X703334Y520384D01*
X701610Y521706D01*
X699604Y522537D01*
X697450Y522821D01*
X695296Y522537D01*
X693289Y521706D01*
X691566Y520384D01*
X690740Y519308D01*
X421130D01*
X419374Y518959D01*
X419300Y518909D01*
X418499Y518750D01*
X416845Y517645D01*
X415740Y515991D01*
X415352Y514040D01*
X415740Y512089D01*
X416845Y510435D01*
X418499Y509330D01*
X420450Y508942D01*
X422401Y509330D01*
X423600Y510131D01*
X690403D01*
X691566Y508616D01*
X693289Y507294D01*
X695296Y506462D01*
X697450Y506179D01*
X699604Y506462D01*
X701610Y507294D01*
X703334Y508616D01*
X704497Y510131D01*
X801796D01*
X802950Y509902D01*
X804104Y510131D01*
X1015680D01*
X1015863Y510010D01*
X1017814Y509622D01*
X1019764Y510010D01*
X1021418Y511115D01*
X1022523Y512769D01*
X1022912Y514720D01*
X1022523Y516670D01*
X1021418Y518324D01*
X1019764Y519430D01*
X1017814Y519818D01*
X1015863Y519430D01*
X1015680Y519308D01*
X906012D01*
X905887Y520578D01*
X907112Y520821D01*
X908944Y522046D01*
X910169Y523878D01*
X910346Y524770D01*
D02*
G37*
G36*
X947180Y527770D02*
X943054D01*
X943232Y526878D01*
X944456Y525046D01*
X946288Y523821D01*
X947180Y523644D01*
Y527770D01*
D02*
G37*
G36*
X953846D02*
X949720D01*
Y523644D01*
X950612Y523821D01*
X952444Y525046D01*
X953669Y526878D01*
X953846Y527770D01*
D02*
G37*
G36*
X1258170Y508909D02*
Y500220D01*
X1266859D01*
X1266682Y501571D01*
X1265670Y504013D01*
X1264061Y506111D01*
X1261963Y507720D01*
X1259521Y508732D01*
X1258170Y508909D01*
D02*
G37*
G36*
X610680Y437270D02*
X606554D01*
X606731Y436378D01*
X607955Y434546D01*
X609788Y433321D01*
X610680Y433144D01*
Y437270D01*
D02*
G37*
G36*
X617345D02*
X613219D01*
Y433144D01*
X614111Y433321D01*
X615944Y434546D01*
X617168Y436378D01*
X617345Y437270D01*
D02*
G37*
G36*
X529220Y435936D02*
Y431810D01*
X533346D01*
X533169Y432702D01*
X531944Y434534D01*
X530112Y435759D01*
X529220Y435936D01*
D02*
G37*
G36*
X533346Y429270D02*
X529220D01*
Y425144D01*
X530112Y425322D01*
X531944Y426546D01*
X533169Y428378D01*
X533346Y429270D01*
D02*
G37*
G36*
X526680Y435936D02*
X525788Y435759D01*
X523956Y434534D01*
X522732Y432702D01*
X522554Y431810D01*
X526680D01*
Y435936D01*
D02*
G37*
G36*
X326700Y493214D02*
X314320D01*
X312053Y492763D01*
X310131Y491479D01*
X308847Y489557D01*
X308396Y487290D01*
Y479670D01*
X308847Y477403D01*
X310131Y475481D01*
X312053Y474197D01*
X314320Y473746D01*
X326700D01*
X328967Y474197D01*
X330889Y475481D01*
X332173Y477403D01*
X332624Y479670D01*
Y487290D01*
X332173Y489557D01*
X330889Y491479D01*
X328967Y492763D01*
X326700Y493214D01*
D02*
G37*
G36*
X1266859Y497680D02*
X1258170D01*
Y488991D01*
X1259521Y489169D01*
X1261963Y490180D01*
X1264061Y491789D01*
X1265670Y493887D01*
X1266682Y496329D01*
X1266859Y497680D01*
D02*
G37*
G36*
X697450Y472821D02*
X695296Y472537D01*
X693289Y471706D01*
X691566Y470384D01*
X690244Y468661D01*
X689412Y466654D01*
X689129Y464500D01*
X689412Y462346D01*
X690244Y460339D01*
X691566Y458616D01*
X693289Y457294D01*
X695296Y456462D01*
X697450Y456179D01*
X699604Y456462D01*
X701610Y457294D01*
X703334Y458616D01*
X704656Y460339D01*
X705488Y462346D01*
X705771Y464500D01*
X705488Y466654D01*
X704656Y468661D01*
X703334Y470384D01*
X701610Y471706D01*
X699604Y472537D01*
X697450Y472821D01*
D02*
G37*
G36*
X326700Y467814D02*
X314320D01*
X312053Y467363D01*
X310131Y466079D01*
X308847Y464157D01*
X308396Y461890D01*
Y454270D01*
X308847Y452003D01*
X310131Y450081D01*
X312053Y448797D01*
X314320Y448346D01*
X326700D01*
X328967Y448797D01*
X330889Y450081D01*
X332173Y452003D01*
X332624Y454270D01*
Y461890D01*
X332173Y464157D01*
X330889Y466079D01*
X328967Y467363D01*
X326700Y467814D01*
D02*
G37*
G36*
X888450Y454638D02*
X886499Y454250D01*
X886317Y454128D01*
X463450D01*
X463225Y454083D01*
X462950Y454138D01*
X460999Y453750D01*
X459345Y452645D01*
X458240Y450991D01*
X457852Y449040D01*
X458240Y447089D01*
X459345Y445435D01*
X460999Y444330D01*
X462950Y443942D01*
X464901Y444330D01*
X465831Y444952D01*
X608837D01*
X608988Y444742D01*
X608676Y443016D01*
X607955Y442534D01*
X606731Y440701D01*
X606554Y439810D01*
X617345D01*
X617168Y440701D01*
X615944Y442534D01*
X615223Y443016D01*
X614912Y444742D01*
X615062Y444952D01*
X886317D01*
X886499Y444830D01*
X888450Y444442D01*
X890401Y444830D01*
X892055Y445935D01*
X893160Y447589D01*
X893548Y449540D01*
X893160Y451491D01*
X892055Y453145D01*
X890401Y454250D01*
X888450Y454638D01*
D02*
G37*
G36*
X1223630Y567680D02*
X1204386D01*
X1204657Y564924D01*
X1205832Y561052D01*
X1207739Y557483D01*
X1210306Y554356D01*
X1213433Y551789D01*
X1217002Y549882D01*
X1220873Y548707D01*
X1223630Y548436D01*
Y567680D01*
D02*
G37*
G36*
X1337630D02*
X1318386D01*
X1318657Y564924D01*
X1319832Y561052D01*
X1321739Y557483D01*
X1324306Y554356D01*
X1327433Y551789D01*
X1331002Y549882D01*
X1334874Y548707D01*
X1337630Y548436D01*
Y567680D01*
D02*
G37*
G36*
X1436840Y556488D02*
X1434314Y556156D01*
X1430777Y554691D01*
X1427740Y552360D01*
X1425409Y549323D01*
X1423944Y545786D01*
X1423612Y543260D01*
X1436840D01*
Y556488D01*
D02*
G37*
G36*
X1439380D02*
Y543260D01*
X1452608D01*
X1452276Y545786D01*
X1450811Y549323D01*
X1448480Y552360D01*
X1445443Y554691D01*
X1441906Y556156D01*
X1439380Y556488D01*
D02*
G37*
G36*
X1245414Y567680D02*
X1226170D01*
Y548436D01*
X1228927Y548707D01*
X1232798Y549882D01*
X1236367Y551789D01*
X1239494Y554356D01*
X1242061Y557483D01*
X1243968Y561052D01*
X1245143Y564924D01*
X1245414Y567680D01*
D02*
G37*
G36*
X1407846Y557270D02*
X1403720D01*
Y553144D01*
X1404612Y553321D01*
X1406444Y554546D01*
X1407669Y556378D01*
X1407846Y557270D01*
D02*
G37*
G36*
X1038179Y559270D02*
X1034053D01*
X1034230Y558378D01*
X1035454Y556546D01*
X1037287Y555321D01*
X1038179Y555144D01*
Y559270D01*
D02*
G37*
G36*
X1359414Y567680D02*
X1340170D01*
Y548436D01*
X1342926Y548707D01*
X1346798Y549882D01*
X1350367Y551789D01*
X1353494Y554356D01*
X1356061Y557483D01*
X1357968Y561052D01*
X1359143Y564924D01*
X1359414Y567680D01*
D02*
G37*
G36*
X1401180Y557270D02*
X1397054D01*
X1397231Y556378D01*
X1398456Y554546D01*
X1400289Y553321D01*
X1401180Y553144D01*
Y557270D01*
D02*
G37*
G36*
X326700Y544564D02*
X321780D01*
Y535550D01*
X333174D01*
Y538090D01*
X332682Y540568D01*
X331278Y542668D01*
X329178Y544072D01*
X326700Y544564D01*
D02*
G37*
G36*
X903680Y531436D02*
X902788Y531259D01*
X900956Y530034D01*
X899731Y528202D01*
X899554Y527310D01*
X903680D01*
Y531436D01*
D02*
G37*
G36*
X906220D02*
Y527310D01*
X910346D01*
X910169Y528202D01*
X908944Y530034D01*
X907112Y531259D01*
X906220Y531436D01*
D02*
G37*
G36*
X319240Y533010D02*
X307846D01*
Y530470D01*
X308338Y527992D01*
X309742Y525892D01*
X311842Y524488D01*
X314320Y523996D01*
X319240D01*
Y533010D01*
D02*
G37*
G36*
X333174D02*
X321780D01*
Y523996D01*
X326700D01*
X329178Y524488D01*
X331278Y525892D01*
X332682Y527992D01*
X333174Y530470D01*
Y533010D01*
D02*
G37*
G36*
X1436840Y540720D02*
X1423612D01*
X1423944Y538194D01*
X1425409Y534657D01*
X1427740Y531620D01*
X1430777Y529289D01*
X1434314Y527824D01*
X1436840Y527492D01*
Y540720D01*
D02*
G37*
G36*
X949720Y534436D02*
Y530310D01*
X953846D01*
X953669Y531202D01*
X952444Y533034D01*
X950612Y534259D01*
X949720Y534436D01*
D02*
G37*
G36*
X319240Y544564D02*
X314320D01*
X311842Y544072D01*
X309742Y542668D01*
X308338Y540568D01*
X307846Y538090D01*
Y535550D01*
X319240D01*
Y544564D01*
D02*
G37*
G36*
X1452608Y540720D02*
X1439380D01*
Y527492D01*
X1441906Y527824D01*
X1445443Y529289D01*
X1448480Y531620D01*
X1450811Y534657D01*
X1452276Y538194D01*
X1452608Y540720D01*
D02*
G37*
G36*
X947180Y534436D02*
X946288Y534259D01*
X944456Y533034D01*
X943232Y531202D01*
X943054Y530310D01*
X947180D01*
Y534436D01*
D02*
G37*
G36*
X617345Y329770D02*
X613219D01*
Y325644D01*
X614111Y325821D01*
X615944Y327046D01*
X617168Y328878D01*
X617345Y329770D01*
D02*
G37*
G36*
X610680Y336436D02*
X609788Y336259D01*
X607955Y335034D01*
X606731Y333202D01*
X606554Y332310D01*
X610680D01*
Y336436D01*
D02*
G37*
G36*
X726720Y329744D02*
Y325618D01*
X730846D01*
X730668Y326509D01*
X729444Y328342D01*
X727611Y329566D01*
X726720Y329744D01*
D02*
G37*
G36*
X610680Y329770D02*
X606554D01*
X606731Y328878D01*
X607955Y327046D01*
X609788Y325821D01*
X610680Y325644D01*
Y329770D01*
D02*
G37*
G36*
X613219Y336436D02*
Y332310D01*
X617345D01*
X617168Y333202D01*
X615944Y335034D01*
X614111Y336259D01*
X613219Y336436D01*
D02*
G37*
G36*
X500180Y353270D02*
X496054D01*
X496231Y352378D01*
X497456Y350546D01*
X499288Y349322D01*
X500180Y349144D01*
Y353270D01*
D02*
G37*
G36*
X506846D02*
X502720D01*
Y349144D01*
X503612Y349322D01*
X505444Y350546D01*
X506669Y352378D01*
X506846Y353270D01*
D02*
G37*
G36*
X747680Y352078D02*
X743554D01*
X743731Y351186D01*
X744956Y349354D01*
X746788Y348129D01*
X747680Y347952D01*
Y352078D01*
D02*
G37*
G36*
X754346D02*
X750220D01*
Y347952D01*
X751112Y348129D01*
X752944Y349354D01*
X754168Y351186D01*
X754346Y352078D01*
D02*
G37*
G36*
X724180Y329744D02*
X723288Y329566D01*
X721456Y328342D01*
X720231Y326509D01*
X720054Y325618D01*
X724180D01*
Y329744D01*
D02*
G37*
G36*
X1412200Y400686D02*
X1406177Y400291D01*
X1400257Y399113D01*
X1394541Y397173D01*
X1389127Y394503D01*
X1384108Y391150D01*
X1379570Y387170D01*
X1375590Y382632D01*
X1372237Y377613D01*
X1369567Y372199D01*
X1367627Y366483D01*
X1366449Y360563D01*
X1366054Y354540D01*
X1366449Y348517D01*
X1367627Y342597D01*
X1369567Y336881D01*
X1372237Y331467D01*
X1375590Y326448D01*
X1379570Y321910D01*
X1384108Y317930D01*
X1389127Y314577D01*
X1394541Y311907D01*
X1400257Y309967D01*
X1406177Y308789D01*
X1412200Y308395D01*
X1418223Y308789D01*
X1424143Y309967D01*
X1429859Y311907D01*
X1435273Y314577D01*
X1440292Y317930D01*
X1444830Y321910D01*
X1448810Y326448D01*
X1452163Y331467D01*
X1454833Y336881D01*
X1456773Y342597D01*
X1457951Y348517D01*
X1458345Y354540D01*
X1457951Y360563D01*
X1456773Y366483D01*
X1454833Y372199D01*
X1452163Y377613D01*
X1448810Y382632D01*
X1444830Y387170D01*
X1440292Y391150D01*
X1435273Y394503D01*
X1429859Y397173D01*
X1424143Y399113D01*
X1418223Y400291D01*
X1412200Y400686D01*
D02*
G37*
G36*
X784680Y316730D02*
X780554D01*
X780731Y315838D01*
X781956Y314006D01*
X783788Y312781D01*
X784680Y312604D01*
Y316730D01*
D02*
G37*
G36*
X657950Y309138D02*
X655999Y308750D01*
X654345Y307645D01*
X653240Y305991D01*
X652852Y304040D01*
X653240Y302089D01*
X654345Y300435D01*
X655999Y299330D01*
X657950Y298942D01*
X659277Y299206D01*
X1038664D01*
X1038845Y298935D01*
X1040499Y297830D01*
X1042450Y297442D01*
X1044401Y297830D01*
X1046055Y298935D01*
X1047160Y300589D01*
X1047548Y302540D01*
X1047160Y304491D01*
X1046055Y306145D01*
X1044401Y307250D01*
X1042450Y307638D01*
X1040499Y307250D01*
X1038845Y306145D01*
X1038664Y305874D01*
X662683D01*
X662660Y305991D01*
X661555Y307645D01*
X659901Y308750D01*
X657950Y309138D01*
D02*
G37*
G36*
X315200Y400686D02*
X309177Y400291D01*
X303257Y399113D01*
X297541Y397173D01*
X292127Y394503D01*
X287108Y391150D01*
X282570Y387170D01*
X278590Y382632D01*
X275237Y377613D01*
X272567Y372199D01*
X270627Y366483D01*
X269449Y360563D01*
X269055Y354540D01*
X269449Y348517D01*
X270627Y342597D01*
X272567Y336881D01*
X275237Y331467D01*
X278590Y326448D01*
X282570Y321910D01*
X287108Y317930D01*
X292127Y314577D01*
X297541Y311907D01*
X303257Y309967D01*
X309177Y308789D01*
X315200Y308395D01*
X321223Y308789D01*
X327143Y309967D01*
X332859Y311907D01*
X338273Y314577D01*
X343292Y317930D01*
X347830Y321910D01*
X351810Y326448D01*
X355163Y331467D01*
X357833Y336881D01*
X359773Y342597D01*
X360951Y348517D01*
X361346Y354540D01*
X360951Y360563D01*
X359773Y366483D01*
X357833Y372199D01*
X355163Y377613D01*
X351810Y382632D01*
X347830Y387170D01*
X343292Y391150D01*
X338273Y394503D01*
X332859Y397173D01*
X327143Y399113D01*
X321223Y400291D01*
X315200Y400686D01*
D02*
G37*
G36*
X791346Y316730D02*
X787220D01*
Y312604D01*
X788111Y312781D01*
X789944Y314006D01*
X791169Y315838D01*
X791346Y316730D01*
D02*
G37*
G36*
X784680Y323396D02*
X783788Y323218D01*
X781956Y321994D01*
X780731Y320162D01*
X780554Y319270D01*
X784680D01*
Y323396D01*
D02*
G37*
G36*
X787220D02*
Y319270D01*
X791346D01*
X791169Y320162D01*
X789944Y321994D01*
X788111Y323218D01*
X787220Y323396D01*
D02*
G37*
G36*
X724180Y323078D02*
X720054D01*
X720231Y322186D01*
X721456Y320354D01*
X723288Y319129D01*
X724180Y318952D01*
Y323078D01*
D02*
G37*
G36*
X730846D02*
X726720D01*
Y318952D01*
X727611Y319129D01*
X729444Y320354D01*
X730668Y322186D01*
X730846Y323078D01*
D02*
G37*
G36*
X617345Y401437D02*
X613219D01*
Y397311D01*
X614111Y397488D01*
X615944Y398713D01*
X617168Y400545D01*
X617345Y401437D01*
D02*
G37*
G36*
X367950Y437027D02*
X364441Y436681D01*
X361067Y435658D01*
X357957Y433995D01*
X355232Y431758D01*
X352995Y429033D01*
X351333Y425923D01*
X350309Y422549D01*
X349963Y419040D01*
X350309Y415531D01*
X351333Y412157D01*
X352995Y409047D01*
X355232Y406322D01*
X357957Y404085D01*
X361067Y402422D01*
X364441Y401399D01*
X367950Y401053D01*
X371459Y401399D01*
X374833Y402422D01*
X377943Y404085D01*
X380668Y406322D01*
X382905Y409047D01*
X384567Y412157D01*
X385591Y415531D01*
X385937Y419040D01*
X385591Y422549D01*
X384567Y425923D01*
X382905Y429033D01*
X380668Y431758D01*
X377943Y433995D01*
X374833Y435658D01*
X371459Y436681D01*
X367950Y437027D01*
D02*
G37*
G36*
X757220Y390744D02*
Y386618D01*
X761346D01*
X761169Y387509D01*
X759944Y389342D01*
X758111Y390566D01*
X757220Y390744D01*
D02*
G37*
G36*
X610680Y401437D02*
X606554D01*
X606731Y400545D01*
X607955Y398713D01*
X609788Y397488D01*
X610680Y397311D01*
Y401437D01*
D02*
G37*
G36*
X1117950Y437027D02*
X1114441Y436681D01*
X1111067Y435658D01*
X1107957Y433995D01*
X1105232Y431758D01*
X1102995Y429033D01*
X1101332Y425923D01*
X1100309Y422549D01*
X1099963Y419040D01*
X1100309Y415531D01*
X1101332Y412157D01*
X1102995Y409047D01*
X1105232Y406322D01*
X1107957Y404085D01*
X1111067Y402422D01*
X1114441Y401399D01*
X1117950Y401053D01*
X1121459Y401399D01*
X1124833Y402422D01*
X1127943Y404085D01*
X1130668Y406322D01*
X1132905Y409047D01*
X1134567Y412157D01*
X1135591Y415531D01*
X1135937Y419040D01*
X1135591Y422549D01*
X1134567Y425923D01*
X1132905Y429033D01*
X1130668Y431758D01*
X1127943Y433995D01*
X1124833Y435658D01*
X1121459Y436681D01*
X1117950Y437027D01*
D02*
G37*
G36*
X657950Y421638D02*
X655999Y421250D01*
X654345Y420145D01*
X653240Y418491D01*
X652852Y416540D01*
X653240Y414589D01*
X654345Y412935D01*
X655999Y411830D01*
X657950Y411442D01*
X659901Y411830D01*
X661555Y412935D01*
X661736Y413206D01*
X1036806D01*
X1037174Y412960D01*
X1038450Y412706D01*
X1038639Y412743D01*
X1038845Y412435D01*
X1040499Y411330D01*
X1042450Y410942D01*
X1044401Y411330D01*
X1046055Y412435D01*
X1047160Y414089D01*
X1047548Y416040D01*
X1047160Y417991D01*
X1046055Y419645D01*
X1044401Y420750D01*
X1042450Y421138D01*
X1040499Y420750D01*
X1038904Y419684D01*
X1037950Y419874D01*
X661736D01*
X661555Y420145D01*
X659901Y421250D01*
X657950Y421638D01*
D02*
G37*
G36*
X526680Y429270D02*
X522554D01*
X522732Y428378D01*
X523956Y426546D01*
X525788Y425322D01*
X526680Y425144D01*
Y429270D01*
D02*
G37*
G36*
X610680Y408102D02*
X609788Y407925D01*
X607955Y406701D01*
X606731Y404868D01*
X606554Y403977D01*
X610680D01*
Y408102D01*
D02*
G37*
G36*
X613219D02*
Y403977D01*
X617345D01*
X617168Y404868D01*
X615944Y406701D01*
X614111Y407925D01*
X613219Y408102D01*
D02*
G37*
G36*
X754680Y390744D02*
X753788Y390566D01*
X751956Y389342D01*
X750731Y387509D01*
X750554Y386618D01*
X754680D01*
Y390744D01*
D02*
G37*
G36*
X500180Y359936D02*
X499288Y359759D01*
X497456Y358534D01*
X496231Y356702D01*
X496054Y355810D01*
X500180D01*
Y359936D01*
D02*
G37*
G36*
X502720D02*
Y355810D01*
X506846D01*
X506669Y356702D01*
X505444Y358534D01*
X503612Y359759D01*
X502720Y359936D01*
D02*
G37*
G36*
X747680Y358744D02*
X746788Y358566D01*
X744956Y357342D01*
X743731Y355509D01*
X743554Y354618D01*
X747680D01*
Y358744D01*
D02*
G37*
G36*
X750220D02*
Y354618D01*
X754346D01*
X754168Y355509D01*
X752944Y357342D01*
X751112Y358566D01*
X750220Y358744D01*
D02*
G37*
G36*
X794220Y370244D02*
Y366118D01*
X798346D01*
X798168Y367009D01*
X796944Y368842D01*
X795111Y370066D01*
X794220Y370244D01*
D02*
G37*
G36*
X692950Y372598D02*
X690999Y372210D01*
X689345Y371105D01*
X689164Y370834D01*
X680236D01*
X680055Y371105D01*
X678401Y372210D01*
X676450Y372598D01*
X674499Y372210D01*
X672845Y371105D01*
X671740Y369451D01*
X671352Y367500D01*
X671740Y365549D01*
X672845Y363895D01*
X674029Y363104D01*
X673644Y361834D01*
X616491D01*
X616094Y363104D01*
X617168Y364712D01*
X617345Y365603D01*
X606554D01*
X606731Y364712D01*
X607805Y363104D01*
X607408Y361834D01*
X605331D01*
X598807Y368357D01*
X597726Y369080D01*
X596450Y369334D01*
X470236D01*
X470055Y369605D01*
X468401Y370710D01*
X466450Y371098D01*
X464499Y370710D01*
X462845Y369605D01*
X461740Y367951D01*
X461352Y366000D01*
X461740Y364049D01*
X462845Y362395D01*
X464499Y361290D01*
X466450Y360902D01*
X468401Y361290D01*
X470055Y362395D01*
X470236Y362666D01*
X595069D01*
X601592Y356142D01*
X602674Y355420D01*
X603950Y355166D01*
X710663D01*
X710844Y354895D01*
X712498Y353790D01*
X714449Y353402D01*
X716400Y353790D01*
X718054Y354895D01*
X719159Y356549D01*
X719547Y358500D01*
X719159Y360451D01*
X718054Y362104D01*
X717845Y362244D01*
X718231Y363514D01*
X777917D01*
X784311Y357120D01*
X783685Y355950D01*
X783450Y355996D01*
X781288Y355566D01*
X779456Y354342D01*
X778231Y352509D01*
X778054Y351618D01*
X783450D01*
Y349078D01*
X778054D01*
X778231Y348186D01*
X779456Y346354D01*
X781288Y345129D01*
X781089Y343874D01*
X662404D01*
X661555Y345145D01*
X659901Y346250D01*
X657950Y346638D01*
X655999Y346250D01*
X654345Y345145D01*
X653240Y343491D01*
X652852Y341540D01*
X653240Y339589D01*
X654345Y337935D01*
X655999Y336830D01*
X657950Y336442D01*
X659901Y336830D01*
X660463Y337206D01*
X1038553D01*
X1038845Y336768D01*
X1040499Y335663D01*
X1042450Y335275D01*
X1044401Y335663D01*
X1046055Y336768D01*
X1047160Y338422D01*
X1047548Y340373D01*
X1047160Y342324D01*
X1046055Y343978D01*
X1044401Y345083D01*
X1042450Y345471D01*
X1040499Y345083D01*
X1038845Y343978D01*
X1038776Y343874D01*
X785811D01*
X785612Y345129D01*
X787444Y346354D01*
X788669Y348186D01*
X789099Y350348D01*
X789008Y350802D01*
X790151Y351566D01*
X790370Y351420D01*
X791646Y351166D01*
X803664D01*
X803845Y350895D01*
X805499Y349790D01*
X807450Y349402D01*
X809401Y349790D01*
X811055Y350895D01*
X812160Y352549D01*
X812548Y354500D01*
X812160Y356451D01*
X811055Y358105D01*
X809401Y359210D01*
X807450Y359598D01*
X805499Y359210D01*
X803845Y358105D01*
X803664Y357834D01*
X794134D01*
X793956Y358105D01*
X794546Y359517D01*
X795111Y359629D01*
X796944Y360854D01*
X798168Y362686D01*
X798346Y363578D01*
X792950D01*
Y364848D01*
X791680D01*
Y370244D01*
X790788Y370066D01*
X788956Y368842D01*
X787731Y367009D01*
X787386Y365271D01*
X786128Y364733D01*
X782420Y368441D01*
X781807Y369357D01*
X780726Y370080D01*
X779450Y370334D01*
X778686Y370182D01*
X708236D01*
X708055Y370453D01*
X706401Y371558D01*
X704450Y371946D01*
X702499Y371558D01*
X700845Y370453D01*
X699740Y368799D01*
X699352Y366848D01*
X699740Y364897D01*
X700845Y363243D01*
X701053Y363104D01*
X700668Y361834D01*
X695756D01*
X695371Y363104D01*
X696555Y363895D01*
X697660Y365549D01*
X698048Y367500D01*
X697660Y369451D01*
X696555Y371105D01*
X694901Y372210D01*
X692950Y372598D01*
D02*
G37*
G36*
X657950Y384138D02*
X655999Y383750D01*
X654345Y382645D01*
X653240Y380991D01*
X652852Y379040D01*
X653240Y377089D01*
X654345Y375435D01*
X655999Y374330D01*
X657950Y373942D01*
X659901Y374330D01*
X661555Y375435D01*
X661736Y375706D01*
X1038107D01*
X1038845Y374602D01*
X1040499Y373497D01*
X1042450Y373109D01*
X1044401Y373497D01*
X1046055Y374602D01*
X1047160Y376256D01*
X1047548Y378207D01*
X1047160Y380158D01*
X1046055Y381811D01*
X1044401Y382916D01*
X1042450Y383305D01*
X1040499Y382916D01*
X1039687Y382374D01*
X762037D01*
X761260Y383644D01*
X761346Y384078D01*
X750554D01*
X750640Y383644D01*
X749863Y382374D01*
X661736D01*
X661555Y382645D01*
X659901Y383750D01*
X657950Y384138D01*
D02*
G37*
G36*
X610680Y372269D02*
X609788Y372092D01*
X607955Y370867D01*
X606731Y369035D01*
X606554Y368143D01*
X610680D01*
Y372269D01*
D02*
G37*
G36*
X613219D02*
Y368143D01*
X617345D01*
X617168Y369035D01*
X615944Y370867D01*
X614111Y372092D01*
X613219Y372269D01*
D02*
G37*
G36*
X1044845Y559270D02*
X1040719D01*
Y555144D01*
X1041610Y555321D01*
X1043443Y556546D01*
X1044667Y558378D01*
X1044845Y559270D01*
D02*
G37*
G36*
X1194846Y719770D02*
X1190720D01*
Y715644D01*
X1191612Y715822D01*
X1193444Y717046D01*
X1194669Y718878D01*
X1194846Y719770D01*
D02*
G37*
G36*
X1188180Y726436D02*
X1187289Y726259D01*
X1185456Y725034D01*
X1184231Y723202D01*
X1184054Y722310D01*
X1188180D01*
Y726436D01*
D02*
G37*
G36*
X1117950Y747027D02*
X1114441Y746681D01*
X1111067Y745658D01*
X1107957Y743995D01*
X1105232Y741758D01*
X1102995Y739033D01*
X1101332Y735923D01*
X1100309Y732549D01*
X1099963Y729040D01*
X1100309Y725531D01*
X1101332Y722157D01*
X1102995Y719047D01*
X1105232Y716322D01*
X1107575Y714398D01*
X1107121Y713128D01*
X970083D01*
X969901Y713250D01*
X967950Y713638D01*
X965999Y713250D01*
X964345Y712145D01*
X963240Y710491D01*
X962852Y708540D01*
X963240Y706589D01*
X964345Y704935D01*
X965999Y703830D01*
X967950Y703442D01*
X969901Y703830D01*
X970083Y703952D01*
X1207817D01*
X1207999Y703830D01*
X1209950Y703442D01*
X1211901Y703830D01*
X1213555Y704935D01*
X1214660Y706589D01*
X1215048Y708540D01*
X1214660Y710491D01*
X1213555Y712145D01*
X1211901Y713250D01*
X1209950Y713638D01*
X1207999Y713250D01*
X1207817Y713128D01*
X1128779D01*
X1128325Y714398D01*
X1130668Y716322D01*
X1132905Y719047D01*
X1134567Y722157D01*
X1135591Y725531D01*
X1135937Y729040D01*
X1135591Y732549D01*
X1134567Y735923D01*
X1132905Y739033D01*
X1130668Y741758D01*
X1127943Y743995D01*
X1124833Y745658D01*
X1121459Y746681D01*
X1117950Y747027D01*
D02*
G37*
G36*
X1188180Y719770D02*
X1184054D01*
X1184231Y718878D01*
X1185456Y717046D01*
X1187289Y715822D01*
X1188180Y715644D01*
Y719770D01*
D02*
G37*
G36*
X1190720Y726436D02*
Y722310D01*
X1194846D01*
X1194669Y723202D01*
X1193444Y725034D01*
X1191612Y726259D01*
X1190720Y726436D01*
D02*
G37*
G36*
X1009461Y773638D02*
X1007511Y773250D01*
X1005857Y772145D01*
X1004752Y770491D01*
X1004363Y768540D01*
X1004752Y766589D01*
X1005857Y764935D01*
X1007511Y763830D01*
X1008056Y763721D01*
X1008746Y763261D01*
X1010501Y762912D01*
X1217489D01*
X1235968Y744433D01*
X1235779Y743000D01*
X1236260Y739345D01*
X1237671Y735939D01*
X1239915Y733015D01*
X1242840Y730771D01*
X1246245Y729360D01*
X1249900Y728879D01*
X1253555Y729360D01*
X1256961Y730771D01*
X1259885Y733015D01*
X1262129Y735939D01*
X1263540Y739345D01*
X1264021Y743000D01*
X1263540Y746655D01*
X1262129Y750060D01*
X1259885Y752985D01*
X1256961Y755229D01*
X1253555Y756639D01*
X1249900Y757121D01*
X1246245Y756639D01*
X1242840Y755229D01*
X1240186Y753193D01*
X1222634Y770744D01*
X1221146Y771739D01*
X1219390Y772088D01*
X1013104D01*
X1013066Y772145D01*
X1011412Y773250D01*
X1009461Y773638D01*
D02*
G37*
G36*
X856450Y743138D02*
X854499Y742750D01*
X852845Y741645D01*
X851740Y739991D01*
X851352Y738040D01*
X851740Y736089D01*
X852845Y734435D01*
X854499Y733330D01*
X854714Y733287D01*
X856206Y731796D01*
X857694Y730801D01*
X859450Y730452D01*
X941817D01*
X941999Y730330D01*
X943950Y729942D01*
X945901Y730330D01*
X947555Y731435D01*
X948660Y733089D01*
X949048Y735040D01*
X948660Y736991D01*
X947555Y738645D01*
X945901Y739750D01*
X943950Y740138D01*
X941999Y739750D01*
X941817Y739628D01*
X861350D01*
X861203Y739776D01*
X861160Y739991D01*
X860055Y741645D01*
X858401Y742750D01*
X856450Y743138D01*
D02*
G37*
G36*
X1312630Y741730D02*
X1299402D01*
X1299734Y739204D01*
X1301199Y735667D01*
X1303530Y732630D01*
X1306567Y730299D01*
X1310104Y728834D01*
X1312630Y728502D01*
Y741730D01*
D02*
G37*
G36*
X1328398D02*
X1315170D01*
Y728502D01*
X1317696Y728834D01*
X1321233Y730299D01*
X1324270Y732630D01*
X1326601Y735667D01*
X1328066Y739204D01*
X1328398Y741730D01*
D02*
G37*
G36*
X367950Y747027D02*
X364441Y746681D01*
X361067Y745658D01*
X357957Y743995D01*
X355232Y741758D01*
X352995Y739033D01*
X351333Y735923D01*
X350309Y732549D01*
X349963Y729040D01*
X350309Y725531D01*
X351333Y722157D01*
X352995Y719047D01*
X355232Y716322D01*
X357957Y714085D01*
X361067Y712422D01*
X364441Y711399D01*
X367950Y711053D01*
X371459Y711399D01*
X374833Y712422D01*
X377943Y714085D01*
X380668Y716322D01*
X382905Y719047D01*
X384567Y722157D01*
X385591Y725531D01*
X385937Y729040D01*
X385591Y732549D01*
X384567Y735923D01*
X382905Y739033D01*
X380668Y741758D01*
X377943Y743995D01*
X374833Y745658D01*
X371459Y746681D01*
X367950Y747027D01*
D02*
G37*
G36*
X1436680Y678170D02*
X1426520D01*
Y668010D01*
X1436680D01*
Y678170D01*
D02*
G37*
G36*
X1449380D02*
X1439220D01*
Y668010D01*
X1449380D01*
Y678170D01*
D02*
G37*
G36*
X1226180Y659936D02*
X1225288Y659759D01*
X1223456Y658534D01*
X1222232Y656702D01*
X1222054Y655810D01*
X1226180D01*
Y659936D01*
D02*
G37*
G36*
X1228720D02*
Y655810D01*
X1232846D01*
X1232669Y656702D01*
X1231444Y658534D01*
X1229612Y659759D01*
X1228720Y659936D01*
D02*
G37*
G36*
X1307180Y674270D02*
X1303054D01*
X1303232Y673378D01*
X1304456Y671546D01*
X1306288Y670322D01*
X1307180Y670144D01*
Y674270D01*
D02*
G37*
G36*
X1309720Y680936D02*
Y676810D01*
X1313846D01*
X1313669Y677702D01*
X1312444Y679534D01*
X1310612Y680759D01*
X1309720Y680936D01*
D02*
G37*
G36*
X1301950Y700638D02*
X1299999Y700250D01*
X1299069Y699628D01*
X955583D01*
X955401Y699750D01*
X953450Y700138D01*
X951499Y699750D01*
X949845Y698645D01*
X948740Y696991D01*
X948352Y695040D01*
X948740Y693089D01*
X949845Y691435D01*
X951499Y690330D01*
X953450Y689942D01*
X955401Y690330D01*
X955583Y690452D01*
X1301450D01*
X1301675Y690497D01*
X1301950Y690442D01*
X1303901Y690830D01*
X1305555Y691935D01*
X1306660Y693589D01*
X1307048Y695540D01*
X1306660Y697491D01*
X1305555Y699145D01*
X1303901Y700250D01*
X1301950Y700638D01*
D02*
G37*
G36*
X1313846Y674270D02*
X1309720D01*
Y670144D01*
X1310612Y670322D01*
X1312444Y671546D01*
X1313669Y673378D01*
X1313846Y674270D01*
D02*
G37*
G36*
X1307180Y680936D02*
X1306288Y680759D01*
X1304456Y679534D01*
X1303232Y677702D01*
X1303054Y676810D01*
X1307180D01*
Y680936D01*
D02*
G37*
G36*
X943610Y800774D02*
X940477Y800361D01*
X937558Y799152D01*
X935051Y797228D01*
X933128Y794722D01*
X931919Y791803D01*
X931626Y789574D01*
Y789574D01*
X931550Y789005D01*
X931543D01*
X931501D01*
X931428D01*
X930392D01*
X930319D01*
X930277D01*
X930270D01*
X930194Y789574D01*
D01*
X929901Y791803D01*
X928692Y794722D01*
X926768Y797228D01*
X924262Y799152D01*
X921343Y800361D01*
X918210Y800774D01*
X915077Y800361D01*
X912158Y799152D01*
X909651Y797228D01*
X907728Y794722D01*
X906519Y791803D01*
X906106Y788670D01*
X906519Y785537D01*
X907728Y782618D01*
X909651Y780111D01*
X912158Y778188D01*
X915077Y776979D01*
X918210Y776566D01*
X921343Y776979D01*
X924262Y778188D01*
X926768Y780111D01*
X928692Y782618D01*
X929901Y785537D01*
X930194Y787766D01*
Y787766D01*
X930270Y788335D01*
X930277D01*
X930319D01*
X930392D01*
X931428D01*
X931501D01*
X931543D01*
X931550D01*
X931626Y787766D01*
D01*
X931919Y785537D01*
X933128Y782618D01*
X935051Y780111D01*
X937558Y778188D01*
X940477Y776979D01*
X943610Y776566D01*
X946743Y776979D01*
X949662Y778188D01*
X952169Y780111D01*
X954092Y782618D01*
X955301Y785537D01*
X955714Y788670D01*
X955301Y791803D01*
X954092Y794722D01*
X952169Y797228D01*
X949662Y799152D01*
X946743Y800361D01*
X943610Y800774D01*
D02*
G37*
G36*
X815340Y801151D02*
X813336Y800887D01*
X810286Y799624D01*
X807666Y797614D01*
X805656Y794994D01*
X804393Y791944D01*
X804278Y791073D01*
X802997D01*
X802901Y791803D01*
X801692Y794722D01*
X799769Y797228D01*
X797262Y799152D01*
X794343Y800361D01*
X791210Y800774D01*
X788077Y800361D01*
X785158Y799152D01*
X782652Y797228D01*
X780728Y794722D01*
X779519Y791803D01*
X779225Y789574D01*
Y789574D01*
X779150Y789005D01*
X779143D01*
X779101D01*
X779028D01*
X777992D01*
X777918D01*
X777877D01*
X777870D01*
X777794Y789574D01*
D01*
X777501Y791803D01*
X776292Y794722D01*
X774369Y797228D01*
X771862Y799152D01*
X768943Y800361D01*
X765810Y800774D01*
X762677Y800361D01*
X759758Y799152D01*
X757252Y797228D01*
X755328Y794722D01*
X754119Y791803D01*
X753826Y789574D01*
Y789574D01*
X753750Y789005D01*
X753743D01*
X753701D01*
X753628D01*
X752592D01*
X752518D01*
X752477D01*
X752470D01*
X752394Y789574D01*
D01*
X752101Y791803D01*
X750892Y794722D01*
X748969Y797228D01*
X746462Y799152D01*
X743543Y800361D01*
X740410Y800774D01*
X737277Y800361D01*
X734358Y799152D01*
X731852Y797228D01*
X729928Y794722D01*
X728719Y791803D01*
X728426Y789574D01*
Y789574D01*
X728350Y789005D01*
X728343D01*
X728301D01*
X728228D01*
X727192D01*
X727119D01*
X727077D01*
X727070D01*
X726994Y789574D01*
D01*
X726701Y791803D01*
X725492Y794722D01*
X723568Y797228D01*
X721062Y799152D01*
X718143Y800361D01*
X715010Y800774D01*
X711877Y800361D01*
X708958Y799152D01*
X706451Y797228D01*
X704528Y794722D01*
X703319Y791803D01*
X703026Y789574D01*
Y789574D01*
X702950Y789005D01*
X702943D01*
X702902D01*
X702828D01*
X701792D01*
X701719D01*
X701677D01*
X701670D01*
X701594Y789574D01*
D01*
X701301Y791803D01*
X700092Y794722D01*
X698168Y797228D01*
X695662Y799152D01*
X692743Y800361D01*
X689610Y800774D01*
X686477Y800361D01*
X683558Y799152D01*
X681051Y797228D01*
X679128Y794722D01*
X677919Y791803D01*
X677506Y788670D01*
X677919Y785537D01*
X679128Y782618D01*
X681051Y780111D01*
X683558Y778188D01*
X686477Y776979D01*
X689610Y776566D01*
X692743Y776979D01*
X695662Y778188D01*
X698168Y780111D01*
X700092Y782618D01*
X701301Y785537D01*
X701594Y787766D01*
Y787766D01*
X701670Y788335D01*
X701677D01*
X701719D01*
X701792D01*
X702828D01*
X702902D01*
X702943D01*
X702950D01*
X703026Y787766D01*
D01*
X703319Y785537D01*
X704528Y782618D01*
X706451Y780111D01*
X708958Y778188D01*
X710422Y777582D01*
Y770480D01*
X710771Y768724D01*
X711766Y767236D01*
X728706Y750296D01*
X730194Y749301D01*
X731950Y748952D01*
X866317D01*
X866499Y748830D01*
X868450Y748442D01*
X870401Y748830D01*
X872055Y749935D01*
X873160Y751589D01*
X873548Y753540D01*
X873160Y755491D01*
X872055Y757145D01*
X870401Y758250D01*
X868450Y758638D01*
X866499Y758250D01*
X866317Y758128D01*
X733850D01*
X719598Y772381D01*
Y777582D01*
X721062Y778188D01*
X723568Y780111D01*
X725492Y782618D01*
X726701Y785537D01*
X726994Y787766D01*
Y787766D01*
X727070Y788335D01*
X727077D01*
X727119D01*
X727192D01*
X728228D01*
X728301D01*
X728343D01*
X728350D01*
X728426Y787766D01*
D01*
X728719Y785537D01*
X729928Y782618D01*
X731852Y780111D01*
X734358Y778188D01*
X737277Y776979D01*
X740410Y776566D01*
X743543Y776979D01*
X746462Y778188D01*
X748969Y780111D01*
X750892Y782618D01*
X752101Y785537D01*
X752394Y787766D01*
Y787766D01*
X752470Y788335D01*
X752477D01*
X752518D01*
X752592D01*
X753628D01*
X753701D01*
X753743D01*
X753750D01*
X753826Y787766D01*
D01*
X754119Y785537D01*
X755328Y782618D01*
X757252Y780111D01*
X759758Y778188D01*
X762677Y776979D01*
X765810Y776566D01*
X768943Y776979D01*
X771862Y778188D01*
X774369Y780111D01*
X776292Y782618D01*
X777501Y785537D01*
X777794Y787766D01*
Y787766D01*
X777870Y788335D01*
X777877D01*
X777918D01*
X777992D01*
X779028D01*
X779101D01*
X779143D01*
X779150D01*
X779225Y787766D01*
D01*
X779519Y785537D01*
X780728Y782618D01*
X782652Y780111D01*
X785158Y778188D01*
X786622Y777582D01*
Y776280D01*
X786971Y774524D01*
X787966Y773036D01*
X795966Y765036D01*
X797454Y764041D01*
X799210Y763692D01*
X880694D01*
X881950Y763442D01*
X883901Y763830D01*
X885555Y764935D01*
X886660Y766589D01*
X887048Y768540D01*
X886660Y770491D01*
X885555Y772145D01*
X883901Y773250D01*
X881950Y773638D01*
X879999Y773250D01*
X879428Y772868D01*
X801111D01*
X797018Y776961D01*
X797075Y777250D01*
X797446Y778329D01*
X799769Y780111D01*
X801692Y782618D01*
X802901Y785537D01*
X802997Y786267D01*
X804278D01*
X804393Y785396D01*
X805656Y782346D01*
X807666Y779726D01*
X810286Y777716D01*
X813336Y776453D01*
X815340Y776189D01*
Y788670D01*
Y801151D01*
D02*
G37*
G36*
X1227080Y791230D02*
X1216920D01*
Y781070D01*
X1227080D01*
Y791230D01*
D02*
G37*
G36*
X1190250Y803484D02*
X1187407Y803110D01*
X1184758Y802012D01*
X1182483Y800267D01*
X1180738Y797992D01*
X1179640Y795343D01*
X1179266Y792500D01*
X1179640Y789657D01*
X1180738Y787008D01*
X1182483Y784733D01*
X1184758Y782988D01*
X1187407Y781890D01*
X1190250Y781516D01*
X1193093Y781890D01*
X1195742Y782988D01*
X1198017Y784733D01*
X1199762Y787008D01*
X1200860Y789657D01*
X1201234Y792500D01*
X1200860Y795343D01*
X1199762Y797992D01*
X1198017Y800267D01*
X1195742Y802012D01*
X1193093Y803110D01*
X1190250Y803484D01*
D02*
G37*
G36*
X1214380Y803930D02*
X1204220D01*
Y793770D01*
X1214380D01*
Y803930D01*
D02*
G37*
G36*
X1434060Y836261D02*
Y804990D01*
X1465331D01*
X1465029Y808826D01*
X1463833Y813807D01*
X1461873Y818539D01*
X1459197Y822906D01*
X1455870Y826800D01*
X1451976Y830127D01*
X1447608Y832803D01*
X1442876Y834763D01*
X1437896Y835959D01*
X1434060Y836261D01*
D02*
G37*
G36*
X893450Y815638D02*
X891499Y815250D01*
X891317Y815128D01*
X848950D01*
X847194Y814779D01*
X845706Y813784D01*
X838766Y806844D01*
X837771Y805356D01*
X837422Y803600D01*
Y799758D01*
X835958Y799152D01*
X833452Y797228D01*
X831528Y794722D01*
X830319Y791803D01*
X830223Y791073D01*
X828942D01*
X828827Y791944D01*
X827564Y794994D01*
X825554Y797614D01*
X822934Y799624D01*
X819884Y800887D01*
X817880Y801151D01*
Y788670D01*
Y776189D01*
X819884Y776453D01*
X822934Y777716D01*
X825554Y779726D01*
X827564Y782346D01*
X828827Y785396D01*
X828942Y786267D01*
X830223D01*
X830319Y785537D01*
X831528Y782618D01*
X833452Y780111D01*
X835958Y778188D01*
X838877Y776979D01*
X842010Y776566D01*
X845143Y776979D01*
X848062Y778188D01*
X850568Y780111D01*
X852492Y782618D01*
X853701Y785537D01*
X853995Y787766D01*
Y787766D01*
X854070Y788335D01*
X854077D01*
X854118D01*
X854192D01*
X855228D01*
X855302D01*
X855343D01*
X855350D01*
X855425Y787766D01*
D01*
X855719Y785537D01*
X856928Y782618D01*
X858851Y780111D01*
X861358Y778188D01*
X864277Y776979D01*
X867410Y776566D01*
X870543Y776979D01*
X873462Y778188D01*
X875968Y780111D01*
X877892Y782618D01*
X879101Y785537D01*
X879514Y788670D01*
X879101Y791803D01*
X877892Y794722D01*
X875968Y797228D01*
X873462Y799152D01*
X870543Y800361D01*
X867410Y800774D01*
X864277Y800361D01*
X861358Y799152D01*
X858851Y797228D01*
X856928Y794722D01*
X855719Y791803D01*
X855425Y789574D01*
Y789574D01*
X855350Y789005D01*
X855343D01*
X855302D01*
X855228D01*
X854192D01*
X854118D01*
X854077D01*
X854070D01*
X853995Y789574D01*
D01*
X853701Y791803D01*
X852492Y794722D01*
X850568Y797228D01*
X848062Y799152D01*
X846598Y799758D01*
Y801700D01*
X850851Y805952D01*
X891317D01*
X891499Y805830D01*
X893450Y805442D01*
X895401Y805830D01*
X897055Y806935D01*
X898160Y808589D01*
X898548Y810540D01*
X898160Y812491D01*
X897055Y814145D01*
X895401Y815250D01*
X893450Y815638D01*
D02*
G37*
G36*
X1227080Y803930D02*
X1216920D01*
Y793770D01*
X1227080D01*
Y803930D01*
D02*
G37*
G36*
X1431520Y836261D02*
X1427684Y835959D01*
X1422704Y834763D01*
X1417971Y832803D01*
X1413604Y830127D01*
X1409710Y826800D01*
X1406383Y822906D01*
X1403707Y818539D01*
X1401747Y813807D01*
X1400551Y808826D01*
X1400249Y804990D01*
X1431520D01*
Y836261D01*
D02*
G37*
G36*
X1214380Y791230D02*
X1204220D01*
Y781070D01*
X1214380D01*
Y791230D01*
D02*
G37*
G36*
X1431520Y802450D02*
X1400249D01*
X1400551Y798614D01*
X1401747Y793633D01*
X1403707Y788902D01*
X1406383Y784534D01*
X1409710Y780640D01*
X1413604Y777313D01*
X1417971Y774637D01*
X1422704Y772677D01*
X1427684Y771481D01*
X1431520Y771179D01*
Y802450D01*
D02*
G37*
G36*
X1465331D02*
X1434060D01*
Y771179D01*
X1437896Y771481D01*
X1442876Y772677D01*
X1447608Y774637D01*
X1451976Y777313D01*
X1455870Y780640D01*
X1459197Y784534D01*
X1461873Y788902D01*
X1463833Y793633D01*
X1465029Y798614D01*
X1465331Y802450D01*
D02*
G37*
G36*
X1312630Y757498D02*
X1310104Y757166D01*
X1306567Y755701D01*
X1303530Y753370D01*
X1301199Y750333D01*
X1299734Y746796D01*
X1299402Y744270D01*
X1312630D01*
Y757498D01*
D02*
G37*
G36*
X1315170D02*
Y744270D01*
X1328398D01*
X1328066Y746796D01*
X1326601Y750333D01*
X1324270Y753370D01*
X1321233Y755701D01*
X1317696Y757166D01*
X1315170Y757498D01*
D02*
G37*
G36*
X320831Y804816D02*
X289560D01*
Y773546D01*
X293396Y773848D01*
X298377Y775043D01*
X303109Y777003D01*
X307476Y779680D01*
X311370Y783006D01*
X314697Y786901D01*
X317373Y791268D01*
X319333Y796000D01*
X320529Y800980D01*
X320831Y804816D01*
D02*
G37*
G36*
X1109867Y806652D02*
X1106473Y806205D01*
X1103311Y804895D01*
X1100595Y802812D01*
X1098511Y800096D01*
X1097201Y796934D01*
X1096755Y793540D01*
X1097201Y790146D01*
X1098511Y786984D01*
X1100595Y784268D01*
X1103311Y782185D01*
X1106473Y780875D01*
X1109867Y780428D01*
X1113260Y780875D01*
X1116423Y782185D01*
X1119138Y784268D01*
X1121222Y786984D01*
X1122532Y790146D01*
X1122979Y793540D01*
X1122532Y796934D01*
X1121222Y800096D01*
X1119138Y802812D01*
X1116423Y804895D01*
X1113260Y806205D01*
X1109867Y806652D01*
D02*
G37*
G36*
X1148200D02*
X1144806Y806205D01*
X1141644Y804895D01*
X1138928Y802812D01*
X1136844Y800096D01*
X1135535Y796934D01*
X1135088Y793540D01*
X1135535Y790146D01*
X1136844Y786984D01*
X1138928Y784268D01*
X1141644Y782185D01*
X1144806Y780875D01*
X1148200Y780428D01*
X1151594Y780875D01*
X1154756Y782185D01*
X1157472Y784268D01*
X1159556Y786984D01*
X1160865Y790146D01*
X1161312Y793540D01*
X1160865Y796934D01*
X1159556Y800096D01*
X1157472Y802812D01*
X1154756Y804895D01*
X1151594Y806205D01*
X1148200Y806652D01*
D02*
G37*
G36*
X1033200D02*
X1029806Y806205D01*
X1026644Y804895D01*
X1023928Y802812D01*
X1021844Y800096D01*
X1020535Y796934D01*
X1020088Y793540D01*
X1020535Y790146D01*
X1021844Y786984D01*
X1023928Y784268D01*
X1026644Y782185D01*
X1029806Y780875D01*
X1033200Y780428D01*
X1036594Y780875D01*
X1039756Y782185D01*
X1042472Y784268D01*
X1044556Y786984D01*
X1045865Y790146D01*
X1046312Y793540D01*
X1045865Y796934D01*
X1044556Y800096D01*
X1042472Y802812D01*
X1039756Y804895D01*
X1036594Y806205D01*
X1033200Y806652D01*
D02*
G37*
G36*
X1071533D02*
X1068140Y806205D01*
X1064977Y804895D01*
X1062262Y802812D01*
X1060178Y800096D01*
X1058868Y796934D01*
X1058421Y793540D01*
X1058868Y790146D01*
X1060178Y786984D01*
X1062262Y784268D01*
X1064977Y782185D01*
X1068140Y780875D01*
X1071533Y780428D01*
X1074927Y780875D01*
X1078089Y782185D01*
X1080805Y784268D01*
X1082889Y786984D01*
X1084199Y790146D01*
X1084645Y793540D01*
X1084199Y796934D01*
X1082889Y800096D01*
X1080805Y802812D01*
X1078089Y804895D01*
X1074927Y806205D01*
X1071533Y806652D01*
D02*
G37*
G36*
X1340170Y589464D02*
Y570220D01*
X1359414D01*
X1359143Y572977D01*
X1357968Y576848D01*
X1356061Y580417D01*
X1353494Y583544D01*
X1350367Y586111D01*
X1346798Y588018D01*
X1342926Y589193D01*
X1340170Y589464D01*
D02*
G37*
G36*
X1007180Y577770D02*
X1003054D01*
X1003231Y576878D01*
X1004456Y575046D01*
X1006288Y573821D01*
X1007180Y573644D01*
Y577770D01*
D02*
G37*
G36*
X1337630Y589464D02*
X1334874Y589193D01*
X1331002Y588018D01*
X1327433Y586111D01*
X1324306Y583544D01*
X1321739Y580417D01*
X1319832Y576848D01*
X1318657Y572977D01*
X1318386Y570220D01*
X1337630D01*
Y589464D01*
D02*
G37*
G36*
X1226170Y589464D02*
Y570220D01*
X1245414D01*
X1245143Y572977D01*
X1243968Y576848D01*
X1242061Y580417D01*
X1239494Y583544D01*
X1236367Y586111D01*
X1232798Y588018D01*
X1228927Y589193D01*
X1226170Y589464D01*
D02*
G37*
G36*
X1013846Y577770D02*
X1009720D01*
Y573644D01*
X1010612Y573821D01*
X1012444Y575046D01*
X1013669Y576878D01*
X1013846Y577770D01*
D02*
G37*
G36*
X949846Y579270D02*
X945720D01*
Y575144D01*
X946612Y575322D01*
X948444Y576546D01*
X949669Y578378D01*
X949846Y579270D01*
D02*
G37*
G36*
X1007180Y584436D02*
X1006288Y584259D01*
X1004456Y583034D01*
X1003231Y581202D01*
X1003054Y580310D01*
X1007180D01*
Y584436D01*
D02*
G37*
G36*
X913950Y585138D02*
X911999Y584750D01*
X911817Y584628D01*
X750450D01*
X748694Y584279D01*
X747206Y583284D01*
X738214Y574293D01*
X737999Y574250D01*
X736345Y573145D01*
X735240Y571491D01*
X734852Y569540D01*
X735240Y567589D01*
X736345Y565935D01*
X737999Y564830D01*
X739950Y564442D01*
X741901Y564830D01*
X743555Y565935D01*
X744660Y567589D01*
X744703Y567804D01*
X752350Y575452D01*
X911817D01*
X911999Y575330D01*
X913950Y574942D01*
X915901Y575330D01*
X917555Y576435D01*
X918660Y578089D01*
X919048Y580040D01*
X918660Y581991D01*
X917555Y583645D01*
X915901Y584750D01*
X913950Y585138D01*
D02*
G37*
G36*
X943180Y579270D02*
X939054D01*
X939231Y578378D01*
X940456Y576546D01*
X942288Y575322D01*
X943180Y575144D01*
Y579270D01*
D02*
G37*
G36*
X1223630Y589464D02*
X1220873Y589193D01*
X1217002Y588018D01*
X1213433Y586111D01*
X1210306Y583544D01*
X1207739Y580417D01*
X1205832Y576848D01*
X1204657Y572977D01*
X1204386Y570220D01*
X1223630D01*
Y589464D01*
D02*
G37*
G36*
X826680Y564270D02*
X822554D01*
X822731Y563378D01*
X823956Y561546D01*
X825788Y560321D01*
X826680Y560144D01*
Y564270D01*
D02*
G37*
G36*
X843346Y564770D02*
X839220D01*
Y560644D01*
X840112Y560821D01*
X841944Y562046D01*
X843168Y563879D01*
X843346Y564770D01*
D02*
G37*
G36*
X1401180Y563936D02*
X1400289Y563759D01*
X1398456Y562534D01*
X1397231Y560702D01*
X1397054Y559810D01*
X1401180D01*
Y563936D01*
D02*
G37*
G36*
X1403720D02*
Y559810D01*
X1407846D01*
X1407669Y560702D01*
X1406444Y562534D01*
X1404612Y563759D01*
X1403720Y563936D01*
D02*
G37*
G36*
X1038179Y565936D02*
X1037287Y565758D01*
X1035454Y564534D01*
X1034230Y562701D01*
X1034053Y561810D01*
X1038179D01*
Y565936D01*
D02*
G37*
G36*
X839220Y571436D02*
Y567310D01*
X843346D01*
X843168Y568202D01*
X841944Y570034D01*
X840112Y571259D01*
X839220Y571436D01*
D02*
G37*
G36*
X836680D02*
X835788Y571259D01*
X833956Y570034D01*
X833418Y569229D01*
X832148D01*
X831944Y569534D01*
X830112Y570759D01*
X829220Y570936D01*
Y565540D01*
Y560144D01*
X830112Y560321D01*
X831944Y561546D01*
X832482Y562351D01*
X833752D01*
X833956Y562046D01*
X835788Y560821D01*
X836680Y560644D01*
Y566040D01*
Y571436D01*
D02*
G37*
G36*
X1040719Y565936D02*
Y561810D01*
X1044845D01*
X1044667Y562701D01*
X1043443Y564534D01*
X1041610Y565758D01*
X1040719Y565936D01*
D02*
G37*
G36*
X826680Y570936D02*
X825788Y570759D01*
X823956Y569534D01*
X822731Y567702D01*
X822554Y566810D01*
X826680D01*
Y570936D01*
D02*
G37*
G36*
X664610Y813258D02*
X514610D01*
X512854Y812909D01*
X511366Y811914D01*
X510371Y810426D01*
X510022Y808670D01*
Y653670D01*
Y648670D01*
X510371Y646914D01*
X511366Y645426D01*
X512854Y644431D01*
X514610Y644082D01*
X664610D01*
X666366Y644431D01*
X667854Y645426D01*
X668849Y646914D01*
X669198Y648670D01*
Y808670D01*
X668849Y810426D01*
X667854Y811914D01*
X666366Y812909D01*
X664610Y813258D01*
D02*
G37*
G36*
X1280630Y653909D02*
X1279279Y653732D01*
X1276837Y652720D01*
X1274739Y651111D01*
X1273130Y649013D01*
X1272119Y646571D01*
X1271941Y645220D01*
X1280630D01*
Y653909D01*
D02*
G37*
G36*
X1256900Y653532D02*
X1254420Y653205D01*
X1252109Y652248D01*
X1250125Y650725D01*
X1248602Y648741D01*
X1247645Y646430D01*
X1247318Y643950D01*
X1247645Y641470D01*
X1248602Y639159D01*
X1250125Y637175D01*
X1252109Y635652D01*
X1254420Y634695D01*
X1256900Y634368D01*
X1259380Y634695D01*
X1261691Y635652D01*
X1263676Y637175D01*
X1265198Y639159D01*
X1266155Y641470D01*
X1266482Y643950D01*
X1266155Y646430D01*
X1265198Y648741D01*
X1263676Y650725D01*
X1261691Y652248D01*
X1259380Y653205D01*
X1256900Y653532D01*
D02*
G37*
G36*
X1128450Y642638D02*
X1126499Y642250D01*
X1126317Y642128D01*
X990083D01*
X989901Y642250D01*
X987950Y642638D01*
X985999Y642250D01*
X984345Y641145D01*
X983240Y639491D01*
X982852Y637540D01*
X983240Y635589D01*
X984345Y633935D01*
X985999Y632830D01*
X987950Y632442D01*
X989901Y632830D01*
X990083Y632952D01*
X1126317D01*
X1126499Y632830D01*
X1128450Y632442D01*
X1130401Y632830D01*
X1132055Y633935D01*
X1133160Y635589D01*
X1133548Y637540D01*
X1133160Y639491D01*
X1132055Y641145D01*
X1130401Y642250D01*
X1128450Y642638D01*
D02*
G37*
G36*
X1283170Y653910D02*
Y645220D01*
X1291859D01*
X1291682Y646571D01*
X1290670Y649013D01*
X1289061Y651111D01*
X1286963Y652720D01*
X1284521Y653732D01*
X1283170Y653910D01*
D02*
G37*
G36*
X1436680Y665470D02*
X1426520D01*
Y655310D01*
X1436680D01*
Y665470D01*
D02*
G37*
G36*
X1449380D02*
X1439220D01*
Y655310D01*
X1449380D01*
Y665470D01*
D02*
G37*
G36*
X1226180Y653270D02*
X1222054D01*
X1222232Y652378D01*
X1223456Y650546D01*
X1225288Y649322D01*
X1226180Y649144D01*
Y653270D01*
D02*
G37*
G36*
X1232846D02*
X1228720D01*
Y649144D01*
X1229612Y649322D01*
X1231444Y650546D01*
X1232669Y652378D01*
X1232846Y653270D01*
D02*
G37*
G36*
X1306900Y653532D02*
X1304420Y653205D01*
X1302109Y652248D01*
X1300125Y650725D01*
X1298602Y648741D01*
X1297645Y646430D01*
X1297318Y643950D01*
X1297645Y641470D01*
X1298602Y639159D01*
X1300125Y637175D01*
X1302109Y635652D01*
X1303929Y634898D01*
X1303676Y633628D01*
X1286535D01*
X1286283Y634898D01*
X1286963Y635180D01*
X1289061Y636789D01*
X1290670Y638887D01*
X1291682Y641329D01*
X1291859Y642680D01*
X1281900D01*
X1271941D01*
X1272119Y641329D01*
X1273130Y638887D01*
X1274739Y636789D01*
X1276837Y635180D01*
X1277779Y634790D01*
X1277649Y633469D01*
X1276694Y633279D01*
X1275206Y632284D01*
X1258550Y615628D01*
X994583D01*
X994401Y615750D01*
X992450Y616138D01*
X990499Y615750D01*
X988845Y614645D01*
X987740Y612991D01*
X987352Y611040D01*
X987740Y609089D01*
X988845Y607435D01*
X990499Y606330D01*
X992450Y605942D01*
X994401Y606330D01*
X994583Y606452D01*
X1260450D01*
X1262206Y606801D01*
X1263694Y607796D01*
X1280350Y624452D01*
X1379317D01*
X1379499Y624330D01*
X1381450Y623942D01*
X1383401Y624330D01*
X1385055Y625435D01*
X1386160Y627089D01*
X1386548Y629040D01*
X1386160Y630991D01*
X1385055Y632645D01*
X1383401Y633750D01*
X1381450Y634138D01*
X1379499Y633750D01*
X1379317Y633628D01*
X1310124D01*
X1309872Y634898D01*
X1311691Y635652D01*
X1313676Y637175D01*
X1315198Y639159D01*
X1316156Y641470D01*
X1316482Y643950D01*
X1316156Y646430D01*
X1315198Y648741D01*
X1313676Y650725D01*
X1311691Y652248D01*
X1309380Y653205D01*
X1306900Y653532D01*
D02*
G37*
G36*
X945720Y585936D02*
Y581810D01*
X949846D01*
X949669Y582702D01*
X948444Y584534D01*
X946612Y585759D01*
X945720Y585936D01*
D02*
G37*
G36*
X1438110Y620111D02*
X1434455Y619630D01*
X1431050Y618219D01*
X1428125Y615975D01*
X1425881Y613050D01*
X1424470Y609645D01*
X1423989Y605990D01*
X1424470Y602335D01*
X1425881Y598930D01*
X1428125Y596005D01*
X1431050Y593761D01*
X1434455Y592350D01*
X1438110Y591869D01*
X1441765Y592350D01*
X1445170Y593761D01*
X1448095Y596005D01*
X1450339Y598930D01*
X1451750Y602335D01*
X1452231Y605990D01*
X1451750Y609645D01*
X1450339Y613050D01*
X1448095Y615975D01*
X1445170Y618219D01*
X1441765Y619630D01*
X1438110Y620111D01*
D02*
G37*
G36*
X1009720Y584436D02*
Y580310D01*
X1013846D01*
X1013669Y581202D01*
X1012444Y583034D01*
X1010612Y584259D01*
X1009720Y584436D01*
D02*
G37*
G36*
X943180Y585936D02*
X942288Y585759D01*
X940456Y584534D01*
X939231Y582702D01*
X939054Y581810D01*
X943180D01*
Y585936D01*
D02*
G37*
G36*
X1135180Y622270D02*
X1131054D01*
X1131232Y621378D01*
X1132456Y619546D01*
X1134288Y618321D01*
X1135180Y618144D01*
Y622270D01*
D02*
G37*
G36*
X1137720Y628936D02*
Y624810D01*
X1141846D01*
X1141669Y625702D01*
X1140444Y627534D01*
X1138612Y628759D01*
X1137720Y628936D01*
D02*
G37*
G36*
X1437950Y652324D02*
X1435107Y651950D01*
X1432458Y650852D01*
X1430183Y649107D01*
X1428438Y646832D01*
X1427340Y644183D01*
X1426966Y641340D01*
X1427340Y638497D01*
X1428438Y635848D01*
X1430183Y633573D01*
X1432458Y631828D01*
X1435107Y630730D01*
X1437950Y630356D01*
X1440793Y630730D01*
X1443442Y631828D01*
X1445717Y633573D01*
X1447462Y635848D01*
X1448560Y638497D01*
X1448934Y641340D01*
X1448560Y644183D01*
X1447462Y646832D01*
X1445717Y649107D01*
X1443442Y650852D01*
X1440793Y651950D01*
X1437950Y652324D01*
D02*
G37*
G36*
X1141846Y622270D02*
X1137720D01*
Y618144D01*
X1138612Y618321D01*
X1140444Y619546D01*
X1141669Y621378D01*
X1141846Y622270D01*
D02*
G37*
G36*
X1135180Y628936D02*
X1134288Y628759D01*
X1132456Y627534D01*
X1131232Y625702D01*
X1131054Y624810D01*
X1135180D01*
Y628936D01*
D02*
G37*
%LPD*%
D10*
X603950Y358500D02*
X714449D01*
X596450Y366000D02*
X603950Y358500D01*
X466450Y366000D02*
X596450D01*
X779298Y366848D02*
X791646Y354500D01*
X779298Y366848D02*
X779450Y367000D01*
X791646Y354500D02*
X807450D01*
X676450Y367500D02*
X692950D01*
X611450Y435540D02*
X613450Y437539D01*
Y438540D01*
X611950Y368540D02*
X613449Y370040D01*
X656950Y340540D02*
X1042450D01*
X658950Y302540D02*
X1042450D01*
X657450Y304040D02*
X658950Y302540D01*
X1037950Y416540D02*
X1038450Y416040D01*
X657950Y416540D02*
X1037950D01*
X657950Y379040D02*
X1041450D01*
X704450Y366848D02*
X779298D01*
X715450Y358500D02*
X715450Y358500D01*
X714449Y358500D02*
X715450D01*
D11*
X463450Y449540D02*
X888450D01*
X462950Y449040D02*
X463450Y449540D01*
X992450Y611040D02*
X1260450D01*
X987950Y637540D02*
X1128450D01*
X1301450Y695040D02*
X1301950Y695540D01*
X953450Y695040D02*
X1301450D01*
X1209950Y708540D02*
X1209950Y708540D01*
X967950Y708540D02*
X1209950D01*
X1436660Y604540D02*
X1438110Y605990D01*
X1308450Y500500D02*
Y616540D01*
X1306900Y498950D02*
X1308450Y500500D01*
X420450Y514040D02*
X421130Y514720D01*
X715010Y770480D02*
Y788670D01*
X750450Y580040D02*
X913950D01*
X739950Y569540D02*
X750450Y580040D01*
X842010Y788670D02*
Y803600D01*
X848950Y810540D01*
X893450D01*
X715010Y770480D02*
X731950Y753540D01*
X868450D01*
X881690Y768280D02*
X881950Y768540D01*
X799210Y768280D02*
X881690D01*
X791210Y776280D02*
X799210Y768280D01*
X791210Y776280D02*
Y788670D01*
X856450Y738040D02*
X859450Y735040D01*
X943950D01*
X463450Y485540D02*
X869950D01*
X870450Y486040D01*
X1209950Y708540D02*
X1209950Y708540D01*
X1260450Y611040D02*
X1278450Y629040D01*
X1381450D01*
X421130Y514720D02*
X1017814D01*
X1009461Y768540D02*
X1010501Y767500D01*
X1219390D01*
X1243890Y743000D01*
X1249900D01*
X247950Y250000D02*
Y850000D01*
X1480000D01*
Y250000D02*
Y850000D01*
X247950Y250000D02*
X1480000D01*
D12*
X320510Y534280D02*
D03*
Y508880D02*
D03*
Y483480D02*
D03*
Y458080D02*
D03*
D13*
X1117950Y419040D02*
D03*
Y729040D02*
D03*
X367950D02*
D03*
Y419040D02*
D03*
D14*
X697450Y514500D02*
D03*
Y464500D02*
D03*
D15*
X1215650Y792500D02*
D03*
D16*
X1190250Y792500D02*
D03*
X1437950Y641340D02*
D03*
D17*
X1437950Y666740D02*
D03*
D18*
X1432790Y803720D02*
D03*
X288290Y806086D02*
D03*
X591610Y696170D02*
D03*
D19*
X1224900Y568950D02*
D03*
X1338900D02*
D03*
D20*
X1256900Y643950D02*
D03*
X1281900D02*
D03*
X1306900D02*
D03*
X1256900Y498950D02*
D03*
D21*
X1306900D02*
D03*
D22*
X1438110Y541990D02*
D03*
Y605990D02*
D03*
X1249900Y743000D02*
D03*
X1313900D02*
D03*
D23*
X918210Y788670D02*
D03*
X943610D02*
D03*
X867410D02*
D03*
X842010D02*
D03*
X816610D02*
D03*
X791210D02*
D03*
X765810D02*
D03*
X740410D02*
D03*
X715010D02*
D03*
X689610D02*
D03*
D24*
X1033200Y793540D02*
D03*
X1148200D02*
D03*
X1109867D02*
D03*
X1071533D02*
D03*
D25*
X792950Y364848D02*
D03*
X676450Y367500D02*
D03*
X611950Y438540D02*
D03*
Y402707D02*
D03*
Y366873D02*
D03*
Y331040D02*
D03*
X1042450Y302540D02*
D03*
Y416040D02*
D03*
X657950Y416540D02*
D03*
X1042450Y378207D02*
D03*
X657950Y379040D02*
D03*
X1042450Y340373D02*
D03*
X657950Y341540D02*
D03*
Y304040D02*
D03*
X527950Y430540D02*
D03*
X501450Y354540D02*
D03*
X837950Y566040D02*
D03*
X1189450Y721040D02*
D03*
X992450Y611040D02*
D03*
X1128450Y637540D02*
D03*
X987950D02*
D03*
X953450Y695040D02*
D03*
X967950Y708540D02*
D03*
X1308450Y616540D02*
D03*
X1136450Y623540D02*
D03*
X1227450Y654540D02*
D03*
X1308450Y675540D02*
D03*
X1402450Y558540D02*
D03*
X420450Y514040D02*
D03*
X1017814Y514720D02*
D03*
X739950Y569540D02*
D03*
X913950Y580040D02*
D03*
X868450Y753540D02*
D03*
X893450Y810540D02*
D03*
X881950Y768540D02*
D03*
X856450Y738040D02*
D03*
X943950Y735040D02*
D03*
X888450Y449540D02*
D03*
X462950Y449040D02*
D03*
X463450Y485540D02*
D03*
X870450Y486040D02*
D03*
X827950Y565540D02*
D03*
X1039449Y560540D02*
D03*
X1008450Y579040D02*
D03*
X904950Y526040D02*
D03*
X944450Y580540D02*
D03*
X948450Y529040D02*
D03*
X1301950Y695540D02*
D03*
X1209950Y708540D02*
D03*
X1381450Y629040D02*
D03*
X783450Y350348D02*
D03*
X704450Y366848D02*
D03*
X748950Y353348D02*
D03*
X725450Y324348D02*
D03*
X755950Y385348D02*
D03*
X785950Y318000D02*
D03*
X802950Y515000D02*
D03*
X807450Y354500D02*
D03*
X466450Y366000D02*
D03*
X714449Y358500D02*
D03*
X692950Y367500D02*
D03*
X1009461Y768540D02*
D03*
M02*
