G04*
G04 #@! TF.GenerationSoftware,Altium Limited,CircuitStudio,1.5.2 (1.5.2.30)*
G04*
G04 Layer_Color=8150272*
%FSLAX44Y44*%
%MOMM*%
G71*
G01*
G75*
%ADD11C,0.5000*%
G04:AMPARAMS|DCode=41|XSize=1.7272mm|YSize=2.2032mm|CornerRadius=0.4826mm|HoleSize=0mm|Usage=FLASHONLY|Rotation=270.000|XOffset=0mm|YOffset=0mm|HoleType=Round|Shape=RoundedRectangle|*
%AMROUNDEDRECTD41*
21,1,1.7272,1.2380,0,0,270.0*
21,1,0.7620,2.2032,0,0,270.0*
1,1,0.9652,-0.6190,-0.3810*
1,1,0.9652,-0.6190,0.3810*
1,1,0.9652,0.6190,0.3810*
1,1,0.9652,0.6190,-0.3810*
%
%ADD41ROUNDEDRECTD41*%
%ADD42C,3.3832*%
%ADD43C,1.4532*%
%ADD44R,1.9812X1.9812*%
%ADD45C,1.9812*%
%ADD46R,1.9812X1.9812*%
%ADD47C,6.2032*%
%ADD48C,3.8032*%
%ADD49C,1.7032*%
%ADD50R,1.7032X1.7032*%
%ADD51C,2.6032*%
%ADD52C,2.2032*%
%ADD53C,2.3032*%
%ADD55C,0.8032*%
%ADD56R,1.5032X0.9032*%
%ADD57R,0.9032X1.5032*%
%ADD58R,1.8032X1.5032*%
%ADD59R,1.1176X1.0160*%
%ADD60R,0.8032X1.2032*%
%ADD61R,1.8032X1.1532*%
%ADD62R,0.8032X2.2032*%
%ADD63R,0.9032X4.4032*%
%ADD64R,1.7272X1.2032*%
%ADD65R,1.5032X1.8032*%
%ADD66O,1.6032X0.5532*%
D11*
X247950Y250000D02*
Y850000D01*
X1480000D01*
Y250000D02*
Y850000D01*
X247950Y250000D02*
X1480000D01*
D41*
X320510Y534280D02*
D03*
Y508880D02*
D03*
Y483480D02*
D03*
Y458080D02*
D03*
D42*
X1117950Y419040D02*
D03*
Y729040D02*
D03*
X367950D02*
D03*
Y419040D02*
D03*
D43*
X697450Y514500D02*
D03*
Y464500D02*
D03*
D44*
X1215650Y792500D02*
D03*
D45*
X1190250Y792500D02*
D03*
X1437950Y641340D02*
D03*
D46*
X1437950Y666740D02*
D03*
D47*
X1432790Y803720D02*
D03*
X288290Y806086D02*
D03*
X591610Y696170D02*
D03*
D48*
X1224900Y568950D02*
D03*
X1338900D02*
D03*
D49*
X1256900Y643950D02*
D03*
X1281900D02*
D03*
X1306900D02*
D03*
X1256900Y498950D02*
D03*
D50*
X1306900D02*
D03*
D51*
X1438110Y541990D02*
D03*
Y605990D02*
D03*
X1249900Y743000D02*
D03*
X1313900D02*
D03*
D52*
X918210Y788670D02*
D03*
X943610D02*
D03*
X867410D02*
D03*
X842010D02*
D03*
X816610D02*
D03*
X791210D02*
D03*
X765810D02*
D03*
X740410D02*
D03*
X715010D02*
D03*
X689610D02*
D03*
D53*
X1033200Y793540D02*
D03*
X1148200D02*
D03*
X1109867D02*
D03*
X1071533D02*
D03*
D55*
X792950Y364848D02*
D03*
X676450Y367500D02*
D03*
X611950Y438540D02*
D03*
Y402707D02*
D03*
Y366873D02*
D03*
Y331040D02*
D03*
X1042450Y302540D02*
D03*
Y416040D02*
D03*
X657950Y416540D02*
D03*
X1042450Y378207D02*
D03*
X657950Y379040D02*
D03*
X1042450Y340373D02*
D03*
X657950Y341540D02*
D03*
Y304040D02*
D03*
X527950Y430540D02*
D03*
X501450Y354540D02*
D03*
X837950Y566040D02*
D03*
X1189450Y721040D02*
D03*
X992450Y611040D02*
D03*
X1128450Y637540D02*
D03*
X987950D02*
D03*
X953450Y695040D02*
D03*
X967950Y708540D02*
D03*
X1308450Y616540D02*
D03*
X1136450Y623540D02*
D03*
X1227450Y654540D02*
D03*
X1308450Y675540D02*
D03*
X1402450Y558540D02*
D03*
X420450Y514040D02*
D03*
X1017814Y514720D02*
D03*
X739950Y569540D02*
D03*
X913950Y580040D02*
D03*
X868450Y753540D02*
D03*
X893450Y810540D02*
D03*
X881950Y768540D02*
D03*
X856450Y738040D02*
D03*
X943950Y735040D02*
D03*
X888450Y449540D02*
D03*
X462950Y449040D02*
D03*
X463450Y485540D02*
D03*
X870450Y486040D02*
D03*
X827950Y565540D02*
D03*
X1039449Y560540D02*
D03*
X1008450Y579040D02*
D03*
X904950Y526040D02*
D03*
X944450Y580540D02*
D03*
X948450Y529040D02*
D03*
X1301950Y695540D02*
D03*
X1209950Y708540D02*
D03*
X1381450Y629040D02*
D03*
X783450Y350348D02*
D03*
X704450Y366848D02*
D03*
X748950Y353348D02*
D03*
X725450Y324348D02*
D03*
X755950Y385348D02*
D03*
X785950Y318000D02*
D03*
X802950Y515000D02*
D03*
X807450Y354500D02*
D03*
X466450Y366000D02*
D03*
X714449Y358500D02*
D03*
X692950Y367500D02*
D03*
X1009461Y768540D02*
D03*
D56*
X578950Y301540D02*
D03*
Y320540D02*
D03*
X579425Y377873D02*
D03*
Y396873D02*
D03*
X635925Y378521D02*
D03*
Y397521D02*
D03*
X579425Y339707D02*
D03*
Y358707D02*
D03*
X635925Y340501D02*
D03*
Y359501D02*
D03*
Y302482D02*
D03*
Y321482D02*
D03*
X420950Y373040D02*
D03*
Y392040D02*
D03*
X579425Y416040D02*
D03*
Y435040D02*
D03*
X635925Y416540D02*
D03*
Y435540D02*
D03*
X1249450Y697040D02*
D03*
Y678040D02*
D03*
X1351450Y698040D02*
D03*
Y679040D02*
D03*
X918950Y743540D02*
D03*
Y724540D02*
D03*
X1268450Y678040D02*
D03*
Y697040D02*
D03*
X1178720Y636900D02*
D03*
Y617900D02*
D03*
X1198450Y637040D02*
D03*
Y618040D02*
D03*
X1371450Y698040D02*
D03*
Y679040D02*
D03*
X397950Y493540D02*
D03*
Y474540D02*
D03*
X1381450Y600040D02*
D03*
Y581040D02*
D03*
X377950Y493540D02*
D03*
Y474540D02*
D03*
X1167450Y758540D02*
D03*
Y739540D02*
D03*
X715450Y315348D02*
D03*
Y296348D02*
D03*
X704950Y376848D02*
D03*
Y395848D02*
D03*
D57*
X469450Y504040D02*
D03*
X488450D02*
D03*
X470450Y469040D02*
D03*
X489450D02*
D03*
X732950Y293848D02*
D03*
X751950D02*
D03*
X722450Y396348D02*
D03*
X741450D02*
D03*
X751950Y313848D02*
D03*
X732950D02*
D03*
X722450Y376348D02*
D03*
X741450D02*
D03*
D58*
X792950Y396848D02*
D03*
Y377848D02*
D03*
X771450Y313848D02*
D03*
Y294848D02*
D03*
X377960Y533506D02*
D03*
Y514506D02*
D03*
D59*
X724038Y353424D02*
D03*
Y334272D02*
D03*
X702862Y343924D02*
D03*
X772862Y334272D02*
D03*
Y353424D02*
D03*
X794038Y343772D02*
D03*
X737862Y334272D02*
D03*
Y353424D02*
D03*
X759038Y343772D02*
D03*
X596362Y416511D02*
D03*
Y435662D02*
D03*
X617538Y426011D02*
D03*
X448538Y503616D02*
D03*
Y484464D02*
D03*
X427362Y494116D02*
D03*
X448538Y468616D02*
D03*
Y449464D02*
D03*
X427362Y459116D02*
D03*
X617538Y311452D02*
D03*
X596362Y321104D02*
D03*
Y301952D02*
D03*
X617538Y349638D02*
D03*
X596362Y359290D02*
D03*
Y340138D02*
D03*
X617538Y387824D02*
D03*
X596362Y397476D02*
D03*
Y378324D02*
D03*
D60*
X774950Y399850D02*
D03*
X755950D02*
D03*
Y373846D02*
D03*
X765450D02*
D03*
X774950D02*
D03*
D61*
X1032950Y811540D02*
D03*
Y775540D02*
D03*
X1147950D02*
D03*
Y811540D02*
D03*
X1109617Y775540D02*
D03*
Y811540D02*
D03*
X1071283Y775540D02*
D03*
Y811540D02*
D03*
D62*
X1027950Y550040D02*
D03*
X1017950D02*
D03*
X1007950D02*
D03*
X997950D02*
D03*
X987950D02*
D03*
X977950D02*
D03*
X967950D02*
D03*
X957950D02*
D03*
X947950D02*
D03*
X937950D02*
D03*
X927950D02*
D03*
X917950D02*
D03*
X907950D02*
D03*
X897950D02*
D03*
X887950D02*
D03*
X877950D02*
D03*
X867950D02*
D03*
X857950D02*
D03*
X847950D02*
D03*
X837950D02*
D03*
D63*
X827950Y529040D02*
D03*
X1037950D02*
D03*
D64*
X1228450Y695700D02*
D03*
Y675380D02*
D03*
X1330450Y696700D02*
D03*
Y676380D02*
D03*
X1157450Y636700D02*
D03*
Y616380D02*
D03*
X1402450Y599700D02*
D03*
Y579380D02*
D03*
X1188440Y758130D02*
D03*
Y737810D02*
D03*
X397950Y513880D02*
D03*
Y534200D02*
D03*
D65*
X806450Y731040D02*
D03*
X787450D02*
D03*
X511450Y430540D02*
D03*
X492450D02*
D03*
D66*
X501450Y411290D02*
D03*
Y404790D02*
D03*
Y398290D02*
D03*
Y391790D02*
D03*
Y385290D02*
D03*
Y378790D02*
D03*
Y372290D02*
D03*
Y365790D02*
D03*
X445450Y411290D02*
D03*
Y404790D02*
D03*
Y398290D02*
D03*
Y391790D02*
D03*
Y385290D02*
D03*
Y378790D02*
D03*
Y372290D02*
D03*
Y365790D02*
D03*
M02*
