G04*
G04 #@! TF.GenerationSoftware,Altium Limited,CircuitStudio,1.5.2 (1.5.2.30)*
G04*
G04 Layer_Color=13948096*
%FSLAX44Y44*%
%MOMM*%
G71*
G01*
G75*
%ADD10C,0.2540*%
%ADD11C,0.5000*%
%ADD39C,0.2000*%
%ADD40C,0.2500*%
%ADD67C,0.6000*%
%ADD68C,0.1000*%
%ADD69C,0.2032*%
D10*
X1019950Y765290D02*
X1045950D01*
Y767540D01*
X1019950Y765290D02*
Y767540D01*
X1134950Y765290D02*
Y767540D01*
X1160950Y765290D02*
Y767540D01*
X1134950Y765290D02*
X1160950D01*
X1096617D02*
Y767540D01*
X1122617Y765290D02*
Y767540D01*
X1096617Y765290D02*
X1122617D01*
X1058283D02*
Y767540D01*
X1084283Y765290D02*
Y767540D01*
X1058283Y765290D02*
X1084283D01*
D11*
X1032950Y756540D02*
Y764540D01*
X1147950Y756540D02*
Y764540D01*
X1109617Y756540D02*
Y764540D01*
X1071283Y756540D02*
Y764540D01*
X247950Y250000D02*
Y850000D01*
X1480000D01*
Y250000D02*
Y850000D01*
X247950Y250000D02*
X1480000D01*
D39*
X782790Y405382D02*
X803110D01*
X782790Y369314D02*
X803110D01*
X782790D02*
Y405382D01*
X803110Y369314D02*
Y405382D01*
X761290Y322382D02*
X781610D01*
X761290Y286314D02*
X781610D01*
X761290D02*
Y322382D01*
X781610Y286314D02*
Y322382D01*
X1345450Y250040D02*
Y394290D01*
X1479950D01*
X1345450Y250040D02*
X1479950D01*
Y394290D01*
X248450Y250040D02*
Y394290D01*
X382950D01*
X248450Y250040D02*
X382950D01*
Y394290D01*
X1238450Y667540D02*
Y703540D01*
X1218450D02*
X1238450D01*
X1218450Y667540D02*
Y703540D01*
Y667540D02*
X1238450D01*
X1340450Y668540D02*
Y704540D01*
X1320450D02*
X1340450D01*
X1320450Y668540D02*
Y704540D01*
Y668540D02*
X1340450D01*
X778916Y741200D02*
X814984D01*
X778916Y720880D02*
X814984D01*
Y741200D01*
X778916Y720880D02*
Y741200D01*
X1167450Y608540D02*
Y644540D01*
X1147450D02*
X1167450D01*
X1147450Y608540D02*
Y644540D01*
Y608540D02*
X1167450D01*
X1412450Y571540D02*
Y607540D01*
X1392450D02*
X1412450D01*
X1392450Y571540D02*
Y607540D01*
Y571540D02*
X1412450D01*
X1198440Y729970D02*
Y765970D01*
X1178440D02*
X1198440D01*
X1178440Y729970D02*
Y765970D01*
Y729970D02*
X1198440D01*
X367800Y505972D02*
Y542040D01*
X388120Y505972D02*
Y542040D01*
X367800D02*
X388120D01*
X367800Y505972D02*
X388120D01*
X387950Y506040D02*
Y542040D01*
Y506040D02*
X407950D01*
Y542040D01*
X387950D02*
X407950D01*
X490450Y363040D02*
Y414040D01*
X456450Y363040D02*
Y414040D01*
X490450D01*
X456450Y363040D02*
X490450D01*
X483916Y440700D02*
X519984D01*
X483916Y420380D02*
X519984D01*
Y440700D01*
X483916Y420380D02*
Y440700D01*
D40*
X502700Y418540D02*
G03*
X502700Y418540I-1250J0D01*
G01*
X1045950Y767540D02*
Y819540D01*
X1019950D02*
X1045950D01*
X1019950Y767540D02*
Y819540D01*
Y767540D02*
X1045950D01*
Y819540D01*
X1019950D02*
X1045950D01*
X1019950Y767540D02*
Y819540D01*
Y767540D02*
X1045950D01*
X1062950Y486540D02*
Y563290D01*
X803450Y486540D02*
X1062950D01*
X803450D02*
Y563290D01*
X1062950D01*
X1027950Y486790D02*
Y529540D01*
X837950D02*
X1027950D01*
X837950Y486790D02*
Y529540D01*
X1134950Y767540D02*
X1160950D01*
X1134950D02*
Y819540D01*
X1160950D01*
Y767540D02*
Y819540D01*
X1134950Y767540D02*
X1160950D01*
X1134950D02*
Y819540D01*
X1160950D01*
Y767540D02*
Y819540D01*
X1096617Y767540D02*
X1122617D01*
X1096617D02*
Y819540D01*
X1122617D01*
Y767540D02*
Y819540D01*
X1096617Y767540D02*
X1122617D01*
X1096617D02*
Y819540D01*
X1122617D01*
Y767540D02*
Y819540D01*
X1058283Y767540D02*
X1084283D01*
X1058283D02*
Y819540D01*
X1084283D01*
Y767540D02*
Y819540D01*
X1058283Y767540D02*
X1084283D01*
X1058283D02*
Y819540D01*
X1084283D01*
Y767540D02*
Y819540D01*
D67*
X483450Y404040D02*
G03*
X483450Y404040I-3000J0D01*
G01*
D68*
X587950Y296040D02*
Y302040D01*
X569950Y296040D02*
X587950D01*
X569950D02*
Y302040D01*
X587950Y320040D02*
Y326040D01*
X569950D02*
X587950D01*
X569950Y320040D02*
Y326040D01*
X588425Y372373D02*
Y378373D01*
X570425Y372373D02*
X588425D01*
X570425D02*
Y378373D01*
X588425Y396373D02*
Y402373D01*
X570425D02*
X588425D01*
X570425Y396373D02*
Y402373D01*
X644925Y373021D02*
Y379021D01*
X626925Y373021D02*
X644925D01*
X626925D02*
Y379021D01*
X644925Y397021D02*
Y403021D01*
X626925D02*
X644925D01*
X626925Y397021D02*
Y403021D01*
X588425Y334207D02*
Y340207D01*
X570425Y334207D02*
X588425D01*
X570425D02*
Y340207D01*
X588425Y358207D02*
Y364207D01*
X570425D02*
X588425D01*
X570425Y358207D02*
Y364207D01*
X644925Y335001D02*
Y341001D01*
X626925Y335001D02*
X644925D01*
X626925D02*
Y341001D01*
X644925Y359001D02*
Y365001D01*
X626925D02*
X644925D01*
X626925Y359001D02*
Y365001D01*
X644925Y296982D02*
Y302982D01*
X626925Y296982D02*
X644925D01*
X626925D02*
Y302982D01*
X644925Y320982D02*
Y326982D01*
X626925D02*
X644925D01*
X626925Y320982D02*
Y326982D01*
X429950Y367540D02*
Y373540D01*
X411950Y367540D02*
X429950D01*
X411950D02*
Y373540D01*
X429950Y391540D02*
Y397540D01*
X411950D02*
X429950D01*
X411950Y391540D02*
Y397540D01*
X588425Y410540D02*
Y416540D01*
X570425Y410540D02*
X588425D01*
X570425D02*
Y416540D01*
X588425Y434540D02*
Y440540D01*
X570425D02*
X588425D01*
X570425Y434540D02*
Y440540D01*
X644925Y411040D02*
Y417040D01*
X626925Y411040D02*
X644925D01*
X626925D02*
Y417040D01*
X644925Y435040D02*
Y441040D01*
X626925D02*
X644925D01*
X626925Y435040D02*
Y441040D01*
X1240450Y696540D02*
Y702540D01*
X1258450D01*
Y696540D02*
Y702540D01*
X1240450Y672540D02*
Y678540D01*
Y672540D02*
X1258450D01*
Y678540D01*
X1342450Y697540D02*
Y703540D01*
X1360450D01*
Y697540D02*
Y703540D01*
X1342450Y673540D02*
Y679540D01*
Y673540D02*
X1360450D01*
Y679540D01*
X909950Y743040D02*
Y749040D01*
X927950D01*
Y743040D02*
Y749040D01*
X909950Y719040D02*
Y725040D01*
Y719040D02*
X927950D01*
Y725040D01*
X1277450Y672540D02*
Y678540D01*
X1259450Y672540D02*
X1277450D01*
X1259450D02*
Y678540D01*
X1277450Y696540D02*
Y702540D01*
X1259450D02*
X1277450D01*
X1259450Y696540D02*
Y702540D01*
X1169720Y636400D02*
Y642400D01*
X1187720D01*
Y636400D02*
Y642400D01*
X1169720Y612400D02*
Y618400D01*
Y612400D02*
X1187720D01*
Y618400D01*
X1189450Y636540D02*
Y642540D01*
X1207450D01*
Y636540D02*
Y642540D01*
X1189450Y612540D02*
Y618540D01*
Y612540D02*
X1207450D01*
Y618540D01*
X1362450Y697540D02*
Y703540D01*
X1380450D01*
Y697540D02*
Y703540D01*
X1362450Y673540D02*
Y679540D01*
Y673540D02*
X1380450D01*
Y679540D01*
X388950Y493040D02*
Y499040D01*
X406950D01*
Y493040D02*
Y499040D01*
X388950Y469040D02*
Y475040D01*
Y469040D02*
X406950D01*
Y475040D01*
X1372450Y599540D02*
Y605540D01*
X1390450D01*
Y599540D02*
Y605540D01*
X1372450Y575540D02*
Y581540D01*
Y575540D02*
X1390450D01*
Y581540D01*
X463950Y495040D02*
X469950D01*
X463950D02*
Y513040D01*
X469950D01*
X487950Y495040D02*
X493950D01*
Y513040D01*
X487950D02*
X493950D01*
X368950Y493040D02*
Y499040D01*
X386950D01*
Y493040D02*
Y499040D01*
X368950Y469040D02*
Y475040D01*
Y469040D02*
X386950D01*
Y475040D01*
X464950Y460040D02*
X470950D01*
X464950D02*
Y478040D01*
X470950D01*
X488950Y460040D02*
X494950D01*
Y478040D01*
X488950D02*
X494950D01*
X1158450Y758040D02*
Y764040D01*
X1176450D01*
Y758040D02*
Y764040D01*
X1158450Y734040D02*
Y740040D01*
Y734040D02*
X1176450D01*
Y740040D01*
X706450Y314848D02*
Y320848D01*
X724450D01*
Y314848D02*
Y320848D01*
X706450Y290848D02*
Y296848D01*
Y290848D02*
X724450D01*
Y296848D01*
X727450Y284848D02*
X733450D01*
X727450D02*
Y302848D01*
X733450D01*
X751450Y284848D02*
X757450D01*
Y302848D01*
X751450D02*
X757450D01*
X713950Y371348D02*
Y377348D01*
X695950Y371348D02*
X713950D01*
X695950D02*
Y377348D01*
X713950Y395348D02*
Y401348D01*
X695950D02*
X713950D01*
X695950Y395348D02*
Y401348D01*
X716950Y387348D02*
X722950D01*
X716950D02*
Y405348D01*
X722950D01*
X740950Y387348D02*
X746950D01*
Y405348D01*
X740950D02*
X746950D01*
X751450Y322848D02*
X757450D01*
Y304848D02*
Y322848D01*
X751450Y304848D02*
X757450D01*
X727450Y322848D02*
X733450D01*
X727450Y304848D02*
Y322848D01*
Y304848D02*
X733450D01*
X716950Y367348D02*
X722950D01*
X716950D02*
Y385348D01*
X722950D01*
X740950Y367348D02*
X746950D01*
Y385348D01*
X740950D02*
X746950D01*
D69*
X706926Y329700D02*
X715038D01*
X706926D02*
Y335796D01*
Y357924D02*
X715038D01*
X706926Y351924D02*
Y357924D01*
X781862Y357996D02*
X789974D01*
Y351900D02*
Y357996D01*
X781862Y329772D02*
X789974D01*
Y335772D01*
X746862Y357996D02*
X754974D01*
Y351900D02*
Y357996D01*
X746862Y329772D02*
X754974D01*
Y335772D01*
X762765Y394953D02*
X768135D01*
X779674Y382553D02*
Y391143D01*
X751226Y382553D02*
Y391143D01*
X605362Y440234D02*
X613474D01*
Y434138D02*
Y440234D01*
X605362Y412010D02*
X613474D01*
Y418010D01*
X431426Y479892D02*
X439538D01*
X431426D02*
Y485988D01*
Y508116D02*
X439538D01*
X431426Y502116D02*
Y508116D01*
Y444892D02*
X439538D01*
X431426D02*
Y450988D01*
Y473116D02*
X439538D01*
X431426Y467116D02*
Y473116D01*
X613474Y297452D02*
Y303452D01*
X605362Y297452D02*
X613474D01*
Y319580D02*
Y325676D01*
X605362D02*
X613474D01*
Y335638D02*
Y341638D01*
X605362Y335638D02*
X613474D01*
Y357766D02*
Y363862D01*
X605362D02*
X613474D01*
Y373824D02*
Y379824D01*
X605362Y373824D02*
X613474D01*
Y395952D02*
Y402048D01*
X605362D02*
X613474D01*
M02*
