G04*
G04 #@! TF.GenerationSoftware,Altium Limited,CircuitStudio,1.5.2 (1.5.2.30)*
G04*
G04 Layer_Physical_Order=2*
G04 Layer_Color=12500520*
%FSLAX44Y44*%
%MOMM*%
G71*
G01*
G75*
%ADD10C,0.2540*%
%ADD11C,0.5000*%
G04:AMPARAMS|DCode=12|XSize=1.524mm|YSize=2mm|CornerRadius=0.381mm|HoleSize=0mm|Usage=FLASHONLY|Rotation=270.000|XOffset=0mm|YOffset=0mm|HoleType=Round|Shape=RoundedRectangle|*
%AMROUNDEDRECTD12*
21,1,1.5240,1.2380,0,0,270.0*
21,1,0.7620,2.0000,0,0,270.0*
1,1,0.7620,-0.6190,-0.3810*
1,1,0.7620,-0.6190,0.3810*
1,1,0.7620,0.6190,0.3810*
1,1,0.7620,0.6190,-0.3810*
%
%ADD12ROUNDEDRECTD12*%
%ADD13C,3.1800*%
%ADD14C,1.2500*%
%ADD15R,1.7780X1.7780*%
%ADD16C,1.7780*%
%ADD17R,1.7780X1.7780*%
%ADD18C,6.0000*%
%ADD19C,3.6000*%
%ADD20C,1.5000*%
%ADD21R,1.5000X1.5000*%
%ADD22C,2.4000*%
%ADD23C,2.0000*%
%ADD24C,2.1000*%
%ADD25C,0.6000*%
%ADD26R,1.3000X0.7000*%
%ADD27R,0.7000X1.3000*%
%ADD28R,1.6000X1.3000*%
%ADD29R,0.9144X0.8128*%
%ADD30R,0.6000X1.0000*%
%ADD31R,1.6000X0.9500*%
%ADD32R,0.6000X2.0000*%
%ADD33R,0.7000X4.2000*%
%ADD34R,1.5240X1.0000*%
%ADD35R,1.3000X1.6000*%
%ADD36O,1.4000X0.3500*%
%ADD37R,13.0000X14.0000*%
G36*
X1467950Y394188D02*
X1467052Y393290D01*
X1345450D01*
Y259040D01*
X383348Y259040D01*
X382450Y259938D01*
Y393290D01*
X257950D01*
X257950Y792459D01*
X259196Y792707D01*
X259690Y791514D01*
X262321Y787219D01*
X265593Y783389D01*
X269423Y780118D01*
X273717Y777486D01*
X278371Y775558D01*
X283269Y774383D01*
X288290Y773987D01*
X293311Y774383D01*
X298209Y775558D01*
X302863Y777486D01*
X307157Y780118D01*
X310987Y783389D01*
X314259Y787219D01*
X316890Y791514D01*
X318818Y796167D01*
X319994Y801065D01*
X320389Y806086D01*
X319994Y811108D01*
X318818Y816005D01*
X316890Y820659D01*
X314259Y824954D01*
X310987Y828784D01*
X307157Y832055D01*
X302863Y834687D01*
X298209Y836614D01*
X293311Y837790D01*
X293443Y839040D01*
X1467950Y839040D01*
X1467950Y394188D01*
D02*
G37*
%LPC*%
G36*
X1256900Y508532D02*
X1254420Y508205D01*
X1252109Y507248D01*
X1250125Y505726D01*
X1248602Y503741D01*
X1247645Y501430D01*
X1247318Y498950D01*
X1247645Y496470D01*
X1248602Y494159D01*
X1250125Y492175D01*
X1252109Y490652D01*
X1254420Y489695D01*
X1256900Y489368D01*
X1259380Y489695D01*
X1261691Y490652D01*
X1263676Y492175D01*
X1265198Y494159D01*
X1266155Y496470D01*
X1266482Y498950D01*
X1266155Y501430D01*
X1265198Y503741D01*
X1263676Y505726D01*
X1261691Y507248D01*
X1259380Y508205D01*
X1256900Y508532D01*
D02*
G37*
G36*
X490720Y478080D02*
Y470310D01*
X495490D01*
Y478080D01*
X490720D01*
D02*
G37*
G36*
X495490Y467770D02*
X490720D01*
Y460000D01*
X495490D01*
Y467770D01*
D02*
G37*
G36*
X494490Y502770D02*
X489720D01*
Y495000D01*
X494490D01*
Y502770D01*
D02*
G37*
G36*
X487180D02*
X482410D01*
Y495000D01*
X487180D01*
Y502770D01*
D02*
G37*
G36*
X1316400Y508450D02*
X1297400D01*
Y489450D01*
X1316400D01*
Y508450D01*
D02*
G37*
G36*
X587925Y440540D02*
X570925D01*
Y438374D01*
X558950D01*
X557674Y438120D01*
X556592Y437397D01*
X514319Y395124D01*
X511272D01*
X510593Y396394D01*
X510741Y396616D01*
X510821Y397020D01*
X501450D01*
X492079D01*
X492159Y396616D01*
X493107Y395197D01*
X492996Y393744D01*
X492668Y393253D01*
X492377Y391790D01*
X492668Y390327D01*
X492989Y389847D01*
X492377Y388476D01*
X491844Y388370D01*
X490762Y387648D01*
X489645Y386530D01*
X489044Y386410D01*
X487962Y385687D01*
X479552Y377278D01*
X478830Y376196D01*
X478576Y374921D01*
Y345659D01*
X478830Y344384D01*
X479552Y343302D01*
X504672Y318183D01*
X505754Y317460D01*
X507029Y317206D01*
X570450D01*
Y315040D01*
X587450D01*
Y326040D01*
X570450D01*
Y323874D01*
X508410D01*
X498252Y334033D01*
X498738Y335206D01*
X546950D01*
X548226Y335460D01*
X549308Y336183D01*
X568498Y355373D01*
X570925D01*
Y353207D01*
X587925D01*
Y364207D01*
X570925D01*
Y362041D01*
X567117D01*
X565841Y361787D01*
X564759Y361064D01*
X545569Y341874D01*
X496831D01*
X489784Y348921D01*
Y371659D01*
X491247Y373122D01*
X492418Y372496D01*
X492377Y372290D01*
X492668Y370827D01*
X493296Y369887D01*
X493418Y369040D01*
X493296Y368193D01*
X492668Y367253D01*
X492377Y365790D01*
X492668Y364327D01*
X493496Y363086D01*
X494737Y362258D01*
X496200Y361967D01*
X498116D01*
Y358326D01*
X497845Y358145D01*
X496740Y356491D01*
X496352Y354540D01*
X496740Y352589D01*
X497845Y350935D01*
X499499Y349830D01*
X501450Y349442D01*
X503401Y349830D01*
X505055Y350935D01*
X506160Y352589D01*
X506548Y354540D01*
X506160Y356491D01*
X505055Y358145D01*
X504784Y358326D01*
Y361967D01*
X506700D01*
X508163Y362258D01*
X509404Y363086D01*
X510232Y364327D01*
X510523Y365790D01*
X510232Y367253D01*
X509943Y367686D01*
X510622Y368956D01*
X518200D01*
X519476Y369210D01*
X520558Y369933D01*
X544164Y393539D01*
X570925D01*
Y391373D01*
X587925D01*
Y402373D01*
X570925D01*
Y400207D01*
X542783D01*
X541507Y399954D01*
X540426Y399231D01*
X516819Y375624D01*
X510622D01*
X509943Y376894D01*
X510232Y377327D01*
X510523Y378790D01*
X510232Y380253D01*
X509604Y381193D01*
X509482Y382040D01*
X509604Y382887D01*
X510232Y383827D01*
X510523Y385290D01*
X510232Y386753D01*
X509943Y387186D01*
X510622Y388456D01*
X515700D01*
X516976Y388710D01*
X518058Y389432D01*
X560331Y431706D01*
X570925D01*
Y429540D01*
X587925D01*
Y440540D01*
D02*
G37*
G36*
X519950Y440540D02*
X502950D01*
Y420540D01*
X519950D01*
Y427206D01*
X524164D01*
X524345Y426935D01*
X525999Y425830D01*
X527950Y425442D01*
X529901Y425830D01*
X531555Y426935D01*
X532660Y428589D01*
X533048Y430540D01*
X532660Y432491D01*
X531555Y434145D01*
X529901Y435250D01*
X527950Y435638D01*
X525999Y435250D01*
X524345Y434145D01*
X524164Y433874D01*
X519950D01*
Y440540D01*
D02*
G37*
G36*
X501490Y429270D02*
X493720D01*
Y420000D01*
X501490D01*
Y429270D01*
D02*
G37*
G36*
X644425Y441040D02*
X627425D01*
Y438874D01*
X625055D01*
X623779Y438620D01*
X622697Y437897D01*
X616874Y432075D01*
X610966D01*
Y419947D01*
X624110D01*
Y429880D01*
X626155Y431926D01*
X627425Y431529D01*
Y430040D01*
X644425D01*
Y441040D01*
D02*
G37*
G36*
X611950Y443638D02*
X609999Y443250D01*
X608345Y442145D01*
X608164Y441874D01*
X604950D01*
X604204Y441726D01*
X602934Y441726D01*
X602934Y441727D01*
X602934Y441726D01*
X589790D01*
Y429599D01*
X602934D01*
Y432500D01*
X603348Y432582D01*
X604430Y433305D01*
X606331Y435206D01*
X608164D01*
X608345Y434935D01*
X609999Y433830D01*
X611950Y433442D01*
X613900Y433830D01*
X615554Y434935D01*
X616659Y436589D01*
X617048Y438540D01*
X616659Y440491D01*
X615554Y442145D01*
X613900Y443250D01*
X611950Y443638D01*
D02*
G37*
G36*
X501490Y441080D02*
X493720D01*
Y431810D01*
X501490D01*
Y441080D01*
D02*
G37*
G36*
X491180D02*
X483410D01*
Y431810D01*
X491180D01*
Y441080D01*
D02*
G37*
G36*
X487180Y513080D02*
X482410D01*
Y505310D01*
X487180D01*
Y513080D01*
D02*
G37*
G36*
X1380180Y579770D02*
X1372410D01*
Y575000D01*
X1380180D01*
Y579770D01*
D02*
G37*
G36*
X1412070Y586380D02*
X1392830D01*
Y572380D01*
X1397862D01*
Y560673D01*
X1397740Y560491D01*
X1397352Y558540D01*
X1397740Y556589D01*
X1398845Y554935D01*
X1400499Y553830D01*
X1402450Y553442D01*
X1404401Y553830D01*
X1406055Y554935D01*
X1407160Y556589D01*
X1407548Y558540D01*
X1407160Y560491D01*
X1407038Y560673D01*
Y572380D01*
X1412070D01*
Y586380D01*
D02*
G37*
G36*
X1338900Y589047D02*
X1334979Y588661D01*
X1331209Y587517D01*
X1327735Y585660D01*
X1324689Y583161D01*
X1322190Y580115D01*
X1320333Y576641D01*
X1319189Y572871D01*
X1318803Y568950D01*
X1319189Y565029D01*
X1320333Y561259D01*
X1322190Y557785D01*
X1324689Y554739D01*
X1327735Y552240D01*
X1331209Y550383D01*
X1334979Y549239D01*
X1338900Y548853D01*
X1342821Y549239D01*
X1346591Y550383D01*
X1350065Y552240D01*
X1353111Y554739D01*
X1355610Y557785D01*
X1357467Y561259D01*
X1358611Y565029D01*
X1358997Y568950D01*
X1358611Y572871D01*
X1357467Y576641D01*
X1355610Y580115D01*
X1353111Y583161D01*
X1350065Y585660D01*
X1346591Y587517D01*
X1342821Y588661D01*
X1338900Y589047D01*
D02*
G37*
G36*
X1380180Y587080D02*
X1372410D01*
Y582310D01*
X1380180D01*
Y587080D01*
D02*
G37*
G36*
X893450Y815638D02*
X891499Y815250D01*
X889845Y814145D01*
X888740Y812491D01*
X888352Y810540D01*
X888740Y808589D01*
X888862Y808407D01*
Y715040D01*
X889211Y713284D01*
X890206Y711796D01*
X923362Y678640D01*
Y579888D01*
X923117Y579692D01*
X921415Y579954D01*
X921194Y580284D01*
X918194Y583284D01*
X916706Y584279D01*
X916563Y584307D01*
X915901Y584750D01*
X913950Y585138D01*
X911999Y584750D01*
X910345Y583645D01*
X909240Y581991D01*
X908852Y580040D01*
X909240Y578089D01*
X910345Y576435D01*
X911999Y575330D01*
X913362Y575059D01*
Y569389D01*
X913117Y569192D01*
X911415Y569454D01*
X911194Y569784D01*
X886038Y594940D01*
Y765659D01*
X886660Y766589D01*
X887048Y768540D01*
X886660Y770491D01*
X885555Y772145D01*
X883901Y773250D01*
X881950Y773638D01*
X879999Y773250D01*
X878345Y772145D01*
X877240Y770491D01*
X876852Y768540D01*
X877006Y767765D01*
X876862Y767040D01*
Y593040D01*
X877211Y591284D01*
X878206Y589796D01*
X903362Y564640D01*
Y563139D01*
X902950Y562040D01*
X901680Y562040D01*
X894220D01*
X892950Y562040D01*
X892950D01*
D01*
X891680Y562040D01*
X884220D01*
X882950Y562040D01*
X882950D01*
X881680Y562040D01*
X874220D01*
X872950Y562040D01*
X872538Y563139D01*
Y750659D01*
X873160Y751589D01*
X873548Y753540D01*
X873160Y755491D01*
X872055Y757145D01*
X870401Y758250D01*
X868450Y758638D01*
X866499Y758250D01*
X864845Y757145D01*
X863740Y755491D01*
X863352Y753540D01*
X863407Y753265D01*
X863362Y753040D01*
Y739249D01*
X862092Y738863D01*
X862044Y738934D01*
X861203Y739776D01*
X861160Y739991D01*
X860055Y741645D01*
X858401Y742750D01*
X856450Y743138D01*
X854499Y742750D01*
X852845Y741645D01*
X851740Y739991D01*
X851352Y738040D01*
X851740Y736089D01*
X852845Y734435D01*
X854212Y733522D01*
Y562060D01*
X852950Y562040D01*
X852950D01*
X851680Y562040D01*
X844220D01*
X842950Y562040D01*
X842538Y563139D01*
X842538Y563139D01*
Y563907D01*
X842660Y564089D01*
X843048Y566040D01*
X842660Y567991D01*
X841555Y569645D01*
X839901Y570750D01*
X839686Y570793D01*
X838694Y571784D01*
X837206Y572779D01*
X835450Y573128D01*
X830950D01*
X829194Y572779D01*
X827706Y571784D01*
X826214Y570293D01*
X825999Y570250D01*
X824345Y569145D01*
X823240Y567491D01*
X822852Y565540D01*
X823240Y563589D01*
X823362Y563407D01*
Y552040D01*
X822450D01*
Y506040D01*
X833450D01*
Y537142D01*
X834348Y538040D01*
X841680D01*
X842950Y538040D01*
X842950D01*
X844220Y538040D01*
X851680D01*
X852950Y538040D01*
X852950D01*
X854220Y538040D01*
X871680D01*
X872950Y538040D01*
X873362Y536941D01*
X873362Y536941D01*
Y495440D01*
X868714Y490793D01*
X868499Y490750D01*
X866845Y489645D01*
X865740Y487991D01*
X865352Y486040D01*
X865740Y484089D01*
X866845Y482435D01*
X868499Y481330D01*
X870450Y480942D01*
X872401Y481330D01*
X874055Y482435D01*
X875160Y484089D01*
X875203Y484304D01*
X881194Y490296D01*
X881415Y490626D01*
X883117Y490888D01*
X883362Y490692D01*
Y450040D01*
X883407Y449815D01*
X883352Y449540D01*
X883740Y447589D01*
X884845Y445935D01*
X886499Y444830D01*
X888450Y444442D01*
X890401Y444830D01*
X892055Y445935D01*
X893160Y447589D01*
X893548Y449540D01*
X893160Y451491D01*
X892538Y452421D01*
Y530192D01*
X892783Y530388D01*
X894485Y530126D01*
X894706Y529796D01*
X900197Y524304D01*
X900240Y524089D01*
X901345Y522435D01*
X902999Y521330D01*
X904950Y520942D01*
X906901Y521330D01*
X908555Y522435D01*
X909660Y524089D01*
X910048Y526040D01*
X909660Y527991D01*
X908555Y529645D01*
X906901Y530750D01*
X906686Y530793D01*
X902538Y534940D01*
Y536941D01*
X902950Y538040D01*
X904220Y538040D01*
X921680D01*
X922950Y538040D01*
X922950D01*
X924220Y538040D01*
X931680D01*
X932950Y538040D01*
X932950D01*
X934220Y538040D01*
X941680D01*
X942950Y538040D01*
X943362Y536941D01*
X943362Y536941D01*
Y529540D01*
X943407Y529315D01*
X943352Y529040D01*
X943740Y527089D01*
X944845Y525435D01*
X946499Y524330D01*
X948450Y523942D01*
X950401Y524330D01*
X952055Y525435D01*
X953160Y527089D01*
X953548Y529040D01*
X953160Y530991D01*
X952538Y531921D01*
Y537142D01*
X953436Y538040D01*
X961680D01*
X962950Y538040D01*
X962950D01*
X964220Y538040D01*
X971680D01*
X972950Y538040D01*
X972950D01*
X974220Y538040D01*
X981680D01*
X982950Y538040D01*
X982950D01*
D01*
X984220Y538040D01*
X991680D01*
X992950Y538040D01*
X992950D01*
D01*
X994220Y538040D01*
X1012410D01*
Y537500D01*
X1016626D01*
X1017112Y536327D01*
X1014569Y533784D01*
X1013575Y532295D01*
X1013225Y530540D01*
Y516853D01*
X1013104Y516670D01*
X1012716Y514720D01*
X1013104Y512769D01*
X1014209Y511115D01*
X1015863Y510010D01*
X1017814Y509622D01*
X1019764Y510010D01*
X1021418Y511115D01*
X1022523Y512769D01*
X1022912Y514720D01*
X1022523Y516670D01*
X1022402Y516853D01*
Y528639D01*
X1031180Y537417D01*
X1031242Y537416D01*
X1032450Y537025D01*
Y506040D01*
X1043450D01*
Y552040D01*
X1042538D01*
Y556591D01*
X1043054Y556935D01*
X1044159Y558589D01*
X1044547Y560540D01*
X1044159Y562491D01*
X1043054Y564145D01*
X1041400Y565250D01*
X1039449Y565638D01*
X1037498Y565250D01*
X1036835Y564807D01*
X1036694Y564779D01*
X1035205Y563784D01*
X1034706Y563284D01*
X1034127Y562419D01*
X1032950Y562040D01*
X1032950D01*
X1032950Y562040D01*
X1032950Y562040D01*
X1023490D01*
Y562580D01*
X1019220D01*
Y550040D01*
X1016680D01*
Y562580D01*
X1012538D01*
Y576159D01*
X1013160Y577089D01*
X1013548Y579040D01*
X1013160Y580991D01*
X1012055Y582645D01*
X1010401Y583750D01*
X1008450Y584138D01*
X1006499Y583750D01*
X1004845Y582645D01*
X1003740Y580991D01*
X1003458Y579574D01*
X1002188Y579699D01*
Y591790D01*
X1012706Y602307D01*
X1013700Y603796D01*
X1014050Y605551D01*
Y766407D01*
X1014171Y766589D01*
X1014559Y768540D01*
X1014171Y770491D01*
X1013066Y772145D01*
X1011412Y773250D01*
X1009461Y773638D01*
X1007511Y773250D01*
X1005857Y772145D01*
X1004752Y770491D01*
X1004363Y768540D01*
X1004752Y766589D01*
X1004873Y766407D01*
Y607452D01*
X994356Y596934D01*
X993808Y596115D01*
X992538Y596500D01*
Y604640D01*
X994186Y606287D01*
X994401Y606330D01*
X996055Y607435D01*
X997160Y609089D01*
X997548Y611040D01*
X997160Y612991D01*
X996055Y614645D01*
X994401Y615750D01*
X992450Y616138D01*
X990499Y615750D01*
X988845Y614645D01*
X987740Y612991D01*
X987697Y612776D01*
X984706Y609784D01*
X984485Y609454D01*
X982783Y609192D01*
X982538Y609388D01*
Y628139D01*
X987025Y632626D01*
X987950Y632442D01*
X989901Y632830D01*
X991555Y633935D01*
X992660Y635589D01*
X993048Y637540D01*
X992660Y639491D01*
X991555Y641145D01*
X989901Y642250D01*
X987950Y642638D01*
X985999Y642250D01*
X985817Y642128D01*
X985450D01*
X983694Y641779D01*
X982206Y640784D01*
X974706Y633284D01*
X974485Y632954D01*
X972783Y632692D01*
X972538Y632888D01*
Y706407D01*
X972660Y706589D01*
X973048Y708540D01*
X972660Y710491D01*
X971555Y712145D01*
X969901Y713250D01*
X967950Y713638D01*
X965999Y713250D01*
X964345Y712145D01*
X963240Y710491D01*
X962852Y708540D01*
X963240Y706589D01*
X963362Y706407D01*
Y693389D01*
X963117Y693192D01*
X961415Y693454D01*
X961194Y693784D01*
X958203Y696776D01*
X958160Y696991D01*
X957055Y698645D01*
X955401Y699750D01*
X953450Y700138D01*
X951499Y699750D01*
X949845Y698645D01*
X948740Y696991D01*
X948352Y695040D01*
X948740Y693089D01*
X949845Y691435D01*
X951499Y690330D01*
X951714Y690287D01*
X953362Y688640D01*
Y562938D01*
X952464Y562040D01*
X944220D01*
X942950Y562040D01*
X942538Y563139D01*
Y570639D01*
X947694Y575796D01*
X948689Y577284D01*
X948859Y578139D01*
X949160Y578589D01*
X949548Y580540D01*
X949160Y582491D01*
X948055Y584145D01*
X946401Y585250D01*
X944450Y585638D01*
X942499Y585250D01*
X940845Y584145D01*
X939740Y582491D01*
X939352Y580540D01*
X939370Y580449D01*
X934706Y575784D01*
X934485Y575454D01*
X932783Y575192D01*
X932538Y575388D01*
Y680540D01*
X932189Y682296D01*
X931194Y683784D01*
X898038Y716941D01*
Y808407D01*
X898160Y808589D01*
X898548Y810540D01*
X898160Y812491D01*
X897055Y814145D01*
X895401Y815250D01*
X893450Y815638D01*
D02*
G37*
G36*
X1390490Y579770D02*
X1382720D01*
Y575000D01*
X1390490D01*
Y579770D01*
D02*
G37*
G36*
X1224900Y589047D02*
X1220979Y588661D01*
X1217209Y587517D01*
X1213735Y585660D01*
X1210689Y583161D01*
X1208190Y580115D01*
X1206333Y576641D01*
X1205189Y572871D01*
X1204803Y568950D01*
X1205189Y565029D01*
X1206333Y561259D01*
X1208190Y557785D01*
X1210689Y554739D01*
X1213735Y552240D01*
X1217209Y550383D01*
X1220979Y549239D01*
X1224900Y548853D01*
X1228821Y549239D01*
X1232591Y550383D01*
X1236065Y552240D01*
X1239111Y554739D01*
X1241610Y557785D01*
X1243467Y561259D01*
X1244611Y565029D01*
X1244997Y568950D01*
X1244611Y572871D01*
X1243467Y576641D01*
X1241610Y580115D01*
X1239111Y583161D01*
X1236065Y585660D01*
X1232591Y587517D01*
X1228821Y588661D01*
X1224900Y589047D01*
D02*
G37*
G36*
X474950Y512540D02*
X463950D01*
Y508204D01*
X455110D01*
Y509680D01*
X441966D01*
Y497552D01*
X455110D01*
Y499028D01*
X463950D01*
Y495540D01*
X474950D01*
Y512540D01*
D02*
G37*
G36*
X697450Y522821D02*
X695296Y522537D01*
X693289Y521706D01*
X691566Y520384D01*
X690244Y518661D01*
X689412Y516654D01*
X689129Y514500D01*
X689412Y512346D01*
X690244Y510339D01*
X691566Y508616D01*
X693289Y507294D01*
X695296Y506462D01*
X697450Y506179D01*
X699604Y506462D01*
X701610Y507294D01*
X703334Y508616D01*
X704656Y510339D01*
X705488Y512346D01*
X705771Y514500D01*
X705488Y516654D01*
X704656Y518661D01*
X703334Y520384D01*
X701610Y521706D01*
X699604Y522537D01*
X697450Y522821D01*
D02*
G37*
G36*
X494490Y513080D02*
X489720D01*
Y505310D01*
X494490D01*
Y513080D01*
D02*
G37*
G36*
X1438110Y556111D02*
X1434455Y555630D01*
X1431050Y554219D01*
X1428125Y551975D01*
X1425881Y549050D01*
X1424470Y545645D01*
X1423989Y541990D01*
X1424470Y538335D01*
X1425881Y534930D01*
X1428125Y532005D01*
X1431050Y529761D01*
X1434455Y528350D01*
X1438110Y527869D01*
X1441765Y528350D01*
X1445170Y529761D01*
X1448095Y532005D01*
X1450339Y534930D01*
X1451750Y538335D01*
X1452231Y541990D01*
X1451750Y545645D01*
X1450339Y549050D01*
X1448095Y551975D01*
X1445170Y554219D01*
X1441765Y555630D01*
X1438110Y556111D01*
D02*
G37*
G36*
X326700Y544014D02*
X314320D01*
X312053Y543563D01*
X310131Y542279D01*
X308847Y540357D01*
X308396Y538090D01*
Y530470D01*
X308847Y528203D01*
X310131Y526281D01*
X312053Y524997D01*
X314320Y524546D01*
X326700D01*
X328967Y524997D01*
X330889Y526281D01*
X332173Y528203D01*
X332453Y529612D01*
X367960D01*
Y525006D01*
X387960D01*
Y526083D01*
X388330Y527200D01*
X407570D01*
Y541200D01*
X388330D01*
X387960Y542006D01*
Y542006D01*
X367960D01*
Y538788D01*
X332485D01*
X332173Y540357D01*
X330889Y542279D01*
X328967Y543563D01*
X326700Y544014D01*
D02*
G37*
G36*
X387960Y523006D02*
X367960D01*
Y518468D01*
X354790D01*
X353034Y518119D01*
X351546Y517124D01*
X347890Y513468D01*
X332469D01*
X332173Y514957D01*
X330889Y516879D01*
X328967Y518163D01*
X326700Y518614D01*
X314320D01*
X312053Y518163D01*
X310131Y516879D01*
X308847Y514957D01*
X308396Y512690D01*
Y505070D01*
X308847Y502803D01*
X310131Y500881D01*
X312053Y499597D01*
X314320Y499146D01*
X326700D01*
X328967Y499597D01*
X330889Y500881D01*
X332173Y502803D01*
X332469Y504292D01*
X349790D01*
X351546Y504641D01*
X353034Y505636D01*
X356690Y509292D01*
X367960D01*
Y506006D01*
X387960D01*
Y506006D01*
X388330Y506880D01*
X393362D01*
Y499040D01*
X389450D01*
Y498128D01*
X386450D01*
Y499040D01*
X369450D01*
Y488068D01*
X332469D01*
X332173Y489557D01*
X330889Y491479D01*
X328967Y492763D01*
X326700Y493214D01*
X314320D01*
X312053Y492763D01*
X310131Y491479D01*
X308847Y489557D01*
X308396Y487290D01*
Y479670D01*
X308847Y477403D01*
X310131Y475481D01*
X312053Y474197D01*
X314320Y473746D01*
X326700D01*
X328967Y474197D01*
X330889Y475481D01*
X332173Y477403D01*
X332469Y478892D01*
X346577D01*
X346924Y478281D01*
X347043Y477622D01*
X333404Y463983D01*
X332016Y464391D01*
X330889Y466079D01*
X328967Y467363D01*
X326700Y467814D01*
X314320D01*
X312053Y467363D01*
X310131Y466079D01*
X308847Y464157D01*
X308396Y461890D01*
Y454270D01*
X308847Y452003D01*
X310131Y450081D01*
X312053Y448797D01*
X314320Y448346D01*
X326700D01*
X328967Y448797D01*
X330889Y450081D01*
X332173Y452003D01*
X332469Y453492D01*
X333990D01*
X335746Y453841D01*
X337234Y454836D01*
X352351Y469952D01*
X369450D01*
Y469040D01*
X373362D01*
Y467040D01*
X373711Y465284D01*
X374706Y463796D01*
X382630Y455872D01*
X384118Y454877D01*
X385874Y454528D01*
X420790D01*
Y453052D01*
X432837D01*
X432837D01*
X433017Y453052D01*
X433061D01*
X433066D01*
X433067Y453052D01*
X433069Y453052D01*
X433071D01*
X433071D01*
X433072D01*
X433094Y452991D01*
X433110Y452946D01*
X433124Y452907D01*
X433145Y452850D01*
X433145Y452850D01*
X433315Y452380D01*
X432931Y451236D01*
X422593Y440897D01*
X421870Y439816D01*
X421616Y438540D01*
Y406540D01*
X421870Y405264D01*
X422593Y404183D01*
X428062Y398713D01*
X427576Y397540D01*
X412450D01*
Y386540D01*
X429450D01*
Y388456D01*
X436278D01*
X436957Y387186D01*
X436668Y386753D01*
X436377Y385290D01*
X436668Y383827D01*
X437296Y382887D01*
X437418Y382040D01*
X437296Y381193D01*
X436668Y380253D01*
X436377Y378790D01*
X436668Y377327D01*
X437496Y376087D01*
Y374994D01*
X436668Y373753D01*
X436377Y372290D01*
X436668Y370827D01*
X437296Y369887D01*
X437418Y369040D01*
X437296Y368193D01*
X436668Y367253D01*
X436377Y365790D01*
X436668Y364327D01*
X437496Y363086D01*
X438737Y362258D01*
X440200Y361967D01*
X450700D01*
X452163Y362258D01*
X452460Y362456D01*
X462804D01*
X462845Y362395D01*
X464499Y361290D01*
X466450Y360902D01*
X468401Y361290D01*
X470055Y362395D01*
X471160Y364049D01*
X471548Y366000D01*
X471160Y367951D01*
X470055Y369605D01*
X468401Y370710D01*
X466450Y371098D01*
X464499Y370710D01*
X462845Y369605D01*
X462524Y369124D01*
X454622D01*
X453943Y370394D01*
X454232Y370827D01*
X454523Y372290D01*
X454232Y373753D01*
X453404Y374994D01*
Y376087D01*
X454232Y377327D01*
X454523Y378790D01*
X454232Y380253D01*
X453604Y381193D01*
X453482Y382040D01*
X453604Y382887D01*
X454232Y383827D01*
X454523Y385290D01*
X454232Y386753D01*
X453404Y387994D01*
Y389086D01*
X454232Y390327D01*
X454523Y391790D01*
X454232Y393253D01*
X453604Y394193D01*
X453482Y395040D01*
X453604Y395887D01*
X454232Y396827D01*
X454523Y398290D01*
X454232Y399753D01*
X453404Y400994D01*
Y402086D01*
X454232Y403327D01*
X454523Y404790D01*
X454232Y406253D01*
X453904Y406744D01*
X453793Y408197D01*
X454741Y409616D01*
X454821Y410020D01*
X445450D01*
Y411290D01*
X444180D01*
Y415664D01*
X440200D01*
X438526Y415331D01*
X437107Y414383D01*
X436554Y413555D01*
X435284Y413941D01*
Y424159D01*
X442331Y431206D01*
X469950D01*
X471226Y431460D01*
X472308Y432183D01*
X482308Y442183D01*
X483030Y443264D01*
X483284Y444540D01*
Y458782D01*
X483410Y460000D01*
X484554Y460000D01*
X488180D01*
Y469040D01*
Y478080D01*
X484554D01*
X483410Y478080D01*
X483284Y479298D01*
Y482040D01*
X483030Y483316D01*
X482308Y484398D01*
X478808Y487897D01*
X477726Y488620D01*
X476450Y488874D01*
X467236D01*
X467055Y489145D01*
X465401Y490250D01*
X463450Y490638D01*
X461499Y490250D01*
X459845Y489145D01*
X459783Y489052D01*
X455110D01*
Y490528D01*
X441966D01*
Y478400D01*
X455110D01*
Y479876D01*
X462374D01*
X464130Y480225D01*
X464880Y480727D01*
X465401Y480830D01*
X467055Y481935D01*
X467236Y482206D01*
X475069D01*
X476616Y480659D01*
Y478534D01*
X475950Y477540D01*
X475346Y477540D01*
X464950D01*
Y473204D01*
X455110D01*
Y474680D01*
X441966D01*
Y462552D01*
X455110D01*
Y464028D01*
X464950D01*
Y460540D01*
X475346D01*
X475950Y460540D01*
X476616Y459546D01*
X476616Y459546D01*
Y445921D01*
X468569Y437874D01*
X440950D01*
X439674Y437620D01*
X438592Y436898D01*
X429593Y427897D01*
X429554Y427840D01*
X428284Y428225D01*
Y437159D01*
X437255Y446130D01*
X441966D01*
Y443400D01*
X455110D01*
Y444452D01*
X460817D01*
X460999Y444330D01*
X462950Y443942D01*
X464901Y444330D01*
X466555Y445435D01*
X467660Y447089D01*
X468048Y449040D01*
X467660Y450991D01*
X466555Y452645D01*
X464901Y453750D01*
X462950Y454138D01*
X460999Y453750D01*
X460817Y453628D01*
X455110D01*
Y455528D01*
X441966D01*
Y452798D01*
X435874D01*
X435509Y452725D01*
X434389Y453146D01*
X434063Y453408D01*
X434061Y453410D01*
X434057Y453413D01*
X434057Y453413D01*
X434055Y453414D01*
X433995Y453511D01*
X433992Y453516D01*
X433956Y453574D01*
X433945Y453590D01*
X433943Y453594D01*
X433934Y453609D01*
Y453623D01*
X433934Y453713D01*
Y453848D01*
Y453856D01*
X433934Y453963D01*
Y453965D01*
Y465180D01*
X420790D01*
Y463704D01*
X387775D01*
X383709Y467770D01*
X384235Y469040D01*
X386450D01*
Y478892D01*
X389450D01*
Y469040D01*
X406450D01*
Y469952D01*
X414450D01*
X416206Y470301D01*
X417694Y471296D01*
X430606Y484208D01*
X431601Y485696D01*
X431950Y487452D01*
Y488052D01*
X433934D01*
Y500180D01*
X420790D01*
Y488052D01*
X420790Y488052D01*
X420790D01*
X420360Y486939D01*
X412550Y479128D01*
X406450D01*
Y480040D01*
X402538D01*
Y480040D01*
X402189Y481796D01*
X401194Y483284D01*
X397754Y486724D01*
X397686Y486770D01*
X398071Y488040D01*
X406450D01*
Y499040D01*
X402538D01*
Y506880D01*
X407570D01*
Y509292D01*
X418691D01*
X420450Y508942D01*
X422401Y509330D01*
X424055Y510435D01*
X425160Y512089D01*
X425548Y514040D01*
X425160Y515991D01*
X424055Y517645D01*
X422401Y518750D01*
X420450Y519138D01*
X418499Y518750D01*
X418078Y518468D01*
X407570D01*
Y520880D01*
X388330D01*
X387960Y521997D01*
Y523006D01*
D02*
G37*
G36*
X491180Y429270D02*
X483410D01*
Y420000D01*
X491180D01*
Y429270D01*
D02*
G37*
G36*
X419680Y371770D02*
X411910D01*
Y367000D01*
X419680D01*
Y371770D01*
D02*
G37*
G36*
X697450Y472821D02*
X695296Y472537D01*
X693289Y471706D01*
X691566Y470384D01*
X690244Y468661D01*
X689412Y466654D01*
X689129Y464500D01*
X689412Y462346D01*
X690244Y460339D01*
X691566Y458616D01*
X693289Y457294D01*
X694116Y456951D01*
Y423381D01*
X674092Y403357D01*
X673370Y402276D01*
X673116Y401000D01*
Y371286D01*
X672845Y371105D01*
X671740Y369451D01*
X671352Y367500D01*
X671740Y365549D01*
X672845Y363895D01*
X674499Y362790D01*
X676450Y362402D01*
X678401Y362790D01*
X680055Y363895D01*
X681160Y365549D01*
X681548Y367500D01*
X681160Y369451D01*
X680055Y371105D01*
X679784Y371286D01*
Y399619D01*
X699807Y419642D01*
X700530Y420724D01*
X700784Y422000D01*
Y456951D01*
X701610Y457294D01*
X703334Y458616D01*
X704656Y460339D01*
X705488Y462346D01*
X705771Y464500D01*
X705488Y466654D01*
X704656Y468661D01*
X703334Y470384D01*
X701610Y471706D01*
X699604Y472537D01*
X697450Y472821D01*
D02*
G37*
G36*
X611950Y371971D02*
X609999Y371583D01*
X608345Y370478D01*
X607240Y368824D01*
X607170Y368475D01*
X604146Y365451D01*
X602934Y365354D01*
Y365354D01*
X602934Y365354D01*
X589790D01*
Y353226D01*
X602934D01*
Y356003D01*
X603976Y356210D01*
X605058Y356933D01*
X610240Y362115D01*
X611950Y361775D01*
X613900Y362163D01*
X615554Y363269D01*
X616659Y364922D01*
X617048Y366873D01*
X616659Y368824D01*
X615554Y370478D01*
X613900Y371583D01*
X611950Y371971D01*
D02*
G37*
G36*
X429990Y379080D02*
X422220D01*
Y374310D01*
X429990D01*
Y379080D01*
D02*
G37*
G36*
X419680D02*
X411910D01*
Y374310D01*
X419680D01*
Y379080D01*
D02*
G37*
G36*
X429990Y371770D02*
X422220D01*
Y367000D01*
X429990D01*
Y371770D01*
D02*
G37*
G36*
X644425Y365001D02*
X627425D01*
Y362835D01*
X621911D01*
X620635Y362581D01*
X620202Y362292D01*
X619554Y361859D01*
X615181Y357486D01*
X614458Y356404D01*
X614318Y355702D01*
X610966D01*
Y343574D01*
X624110D01*
Y355702D01*
X625187Y356167D01*
X627425D01*
Y354001D01*
X644425D01*
Y365001D01*
D02*
G37*
G36*
Y326982D02*
X627425D01*
Y324816D01*
X621392D01*
X620116Y324562D01*
X619034Y323839D01*
X615181Y319986D01*
X614458Y318904D01*
X614204Y317628D01*
Y317516D01*
X610966D01*
Y305388D01*
X624110D01*
Y317516D01*
X625118Y318148D01*
X627425D01*
Y315982D01*
X644425D01*
Y326982D01*
D02*
G37*
G36*
X657950Y309138D02*
X655999Y308750D01*
X654345Y307645D01*
X653240Y305991D01*
X653205Y305816D01*
X644425D01*
Y307982D01*
X627425D01*
Y296982D01*
X644425D01*
Y299148D01*
X655892D01*
X656404Y299250D01*
X657950Y298942D01*
X659901Y299330D01*
X661555Y300435D01*
X662660Y302089D01*
X663048Y304040D01*
X662660Y305991D01*
X661555Y307645D01*
X659901Y308750D01*
X657950Y309138D01*
D02*
G37*
G36*
X602934Y308016D02*
X589790D01*
Y304874D01*
X587450D01*
Y307040D01*
X570450D01*
Y296040D01*
X587450D01*
Y298206D01*
X589790D01*
Y295888D01*
X602934D01*
Y308016D01*
D02*
G37*
G36*
X657950Y346638D02*
X655999Y346250D01*
X654345Y345145D01*
X653470Y343835D01*
X644425D01*
Y346001D01*
X627425D01*
Y335001D01*
X644425D01*
Y337167D01*
X655495D01*
X655999Y336830D01*
X657950Y336442D01*
X659901Y336830D01*
X661555Y337935D01*
X662660Y339589D01*
X663048Y341540D01*
X662660Y343491D01*
X661555Y345145D01*
X659901Y346250D01*
X657950Y346638D01*
D02*
G37*
G36*
X602934Y346202D02*
X589790D01*
Y343041D01*
X587925D01*
Y345207D01*
X570925D01*
Y334207D01*
X587925D01*
Y336373D01*
X589790D01*
Y334074D01*
X602934D01*
Y346202D01*
D02*
G37*
G36*
X611950Y336138D02*
X609999Y335750D01*
X608345Y334645D01*
X607240Y332991D01*
X606880Y331186D01*
X602863Y327168D01*
X589790D01*
Y315040D01*
X602934D01*
Y318120D01*
X603871Y318746D01*
X611213Y326088D01*
X611950Y325942D01*
X613900Y326330D01*
X615554Y327435D01*
X616659Y329089D01*
X617048Y331040D01*
X616659Y332991D01*
X615554Y334645D01*
X613900Y335750D01*
X611950Y336138D01*
D02*
G37*
G36*
X602934Y384388D02*
X589790D01*
Y381207D01*
X587925D01*
Y383373D01*
X570925D01*
Y372373D01*
X587925D01*
Y374539D01*
X589790D01*
Y372260D01*
X602934D01*
Y384388D01*
D02*
G37*
G36*
X500180Y415664D02*
X496200D01*
X494526Y415331D01*
X493107Y414383D01*
X492159Y412964D01*
X492079Y412560D01*
X500180D01*
Y415664D01*
D02*
G37*
G36*
X644425Y422040D02*
X627425D01*
Y411040D01*
X644425D01*
Y413206D01*
X654164D01*
X654345Y412935D01*
X655999Y411830D01*
X657950Y411442D01*
X659901Y411830D01*
X661555Y412935D01*
X662660Y414589D01*
X663048Y416540D01*
X662660Y418491D01*
X661555Y420145D01*
X659901Y421250D01*
X657950Y421638D01*
X655999Y421250D01*
X654345Y420145D01*
X654164Y419874D01*
X644425D01*
Y422040D01*
D02*
G37*
G36*
X510821Y410020D02*
X501450D01*
X492079D01*
X492159Y409616D01*
X492547Y409036D01*
X493031Y408040D01*
X492547Y407044D01*
X492159Y406464D01*
X492079Y406060D01*
X501450D01*
X510821D01*
X510741Y406464D01*
X510353Y407044D01*
X509869Y408040D01*
X510353Y409036D01*
X510741Y409616D01*
X510821Y410020D01*
D02*
G37*
G36*
X602934Y422575D02*
X589790D01*
Y419374D01*
X587925D01*
Y421540D01*
X570925D01*
Y410540D01*
X587925D01*
Y412706D01*
X589790D01*
Y410447D01*
X602934D01*
Y422575D01*
D02*
G37*
G36*
X506700Y415664D02*
X502720D01*
Y412560D01*
X510821D01*
X510741Y412964D01*
X509793Y414383D01*
X508374Y415331D01*
X506700Y415664D01*
D02*
G37*
G36*
X450700D02*
X446720D01*
Y412560D01*
X454821D01*
X454741Y412964D01*
X453793Y414383D01*
X452374Y415331D01*
X450700Y415664D01*
D02*
G37*
G36*
X802950Y520098D02*
X800999Y519710D01*
X799345Y518605D01*
X798240Y516951D01*
X797852Y515000D01*
X798240Y513049D01*
X799345Y511395D01*
X799616Y511214D01*
Y405348D01*
X782950D01*
Y403986D01*
X781968Y403180D01*
X781948Y403184D01*
X779949D01*
Y406850D01*
X769950D01*
Y392850D01*
X779949D01*
Y395337D01*
X781219Y395863D01*
X782592Y394490D01*
X782950Y394252D01*
Y388348D01*
X802950D01*
X802950Y388348D01*
Y388348D01*
X802950Y388348D01*
X804116Y388097D01*
Y386599D01*
X802950Y386348D01*
X802846Y386348D01*
X782950D01*
Y369348D01*
X788532D01*
X788607Y369266D01*
X789095Y368078D01*
X788240Y366799D01*
X787852Y364848D01*
X788240Y362897D01*
X789345Y361243D01*
X790999Y360138D01*
X792950Y359750D01*
X794901Y360138D01*
X796555Y361243D01*
X797660Y362897D01*
X798048Y364848D01*
X797660Y366799D01*
X796805Y368078D01*
X797293Y369266D01*
X797368Y369348D01*
X802846D01*
X802950Y369348D01*
X804116Y369097D01*
Y358286D01*
X803845Y358105D01*
X802740Y356451D01*
X802352Y354500D01*
X802740Y352549D01*
X803845Y350895D01*
X805499Y349790D01*
X807450Y349402D01*
X809401Y349790D01*
X811055Y350895D01*
X812160Y352549D01*
X812548Y354500D01*
X812160Y356451D01*
X811055Y358105D01*
X810784Y358286D01*
Y394000D01*
X810530Y395276D01*
X809807Y396357D01*
X806959Y399206D01*
X806284Y399657D01*
Y511214D01*
X806555Y511395D01*
X807660Y513049D01*
X808048Y515000D01*
X807660Y516951D01*
X806555Y518605D01*
X804901Y519710D01*
X802950Y520098D01*
D02*
G37*
G36*
X510821Y403520D02*
X501450D01*
X492079D01*
X492159Y403116D01*
X492547Y402536D01*
X493031Y401540D01*
X492547Y400544D01*
X492159Y399964D01*
X492079Y399560D01*
X501450D01*
X510821D01*
X510741Y399964D01*
X510353Y400544D01*
X509869Y401540D01*
X510353Y402536D01*
X510741Y403116D01*
X510821Y403520D01*
D02*
G37*
G36*
X738450Y410682D02*
X699450D01*
X698174Y410428D01*
X697741Y410139D01*
X697092Y409705D01*
X684092Y396705D01*
X683370Y395624D01*
X683116Y394348D01*
Y334848D01*
X683370Y333572D01*
X684092Y332490D01*
X703592Y312990D01*
X704674Y312268D01*
X705950Y312014D01*
X706950D01*
Y309848D01*
X712116D01*
Y306348D01*
X712370Y305072D01*
X713092Y303990D01*
X714062Y303021D01*
X713576Y301848D01*
X706950D01*
Y290848D01*
X712116D01*
Y285348D01*
X712370Y284072D01*
X713092Y282990D01*
X718092Y277990D01*
X719174Y277268D01*
X720450Y277014D01*
X747950D01*
X749226Y277268D01*
X750307Y277990D01*
X754307Y281990D01*
X755030Y283072D01*
X755284Y284348D01*
Y285348D01*
X757450D01*
Y291514D01*
X761450D01*
Y286348D01*
X781450D01*
Y291514D01*
X786950D01*
X788226Y291768D01*
X789308Y292490D01*
X796395Y299578D01*
X797118Y300660D01*
X797372Y301936D01*
Y337708D01*
X800610D01*
Y349836D01*
X797357D01*
X797118Y351036D01*
X796395Y352117D01*
X782807Y365705D01*
X781726Y366428D01*
X781098Y366553D01*
X779949Y366846D01*
Y380846D01*
X760366D01*
X760288Y380932D01*
X759804Y382116D01*
X760660Y383397D01*
X761048Y385348D01*
X760660Y387299D01*
X759555Y388953D01*
X757901Y390058D01*
X755950Y390446D01*
X753999Y390058D01*
X752345Y388953D01*
X751240Y387299D01*
X750852Y385348D01*
X751240Y383397D01*
X752096Y382116D01*
X751612Y380932D01*
X751534Y380846D01*
X750950D01*
Y380678D01*
X749680Y379636D01*
X749450Y379682D01*
X746950D01*
Y384848D01*
X735950D01*
Y384848D01*
X734784Y385099D01*
Y387597D01*
X735950Y387848D01*
X735950Y387848D01*
X735950Y387848D01*
X746950D01*
Y393014D01*
X748450D01*
X749680Y393259D01*
X749734Y393265D01*
X750950Y392850D01*
Y392850D01*
X750950Y392850D01*
X760950D01*
Y406850D01*
X750950D01*
Y402985D01*
X750676Y402930D01*
X749595Y402208D01*
X748220Y400833D01*
X746950Y401359D01*
Y404848D01*
X744685D01*
X744530Y405624D01*
X743808Y406705D01*
X740807Y409705D01*
X739726Y410428D01*
X738450Y410682D01*
D02*
G37*
G36*
X644425Y403021D02*
X627425D01*
Y392021D01*
X626512Y391158D01*
X624110D01*
Y393888D01*
X610966D01*
Y381760D01*
X624110D01*
Y384490D01*
X626350D01*
X627425Y384021D01*
X627425Y383220D01*
Y373021D01*
X644425D01*
Y375187D01*
X654717D01*
X655999Y374330D01*
X657950Y373942D01*
X659901Y374330D01*
X661555Y375435D01*
X662660Y377089D01*
X663048Y379040D01*
X662660Y380991D01*
X661555Y382645D01*
X659901Y383750D01*
X657950Y384138D01*
X655999Y383750D01*
X654345Y382645D01*
X653817Y381855D01*
X644425D01*
Y384021D01*
X636213D01*
X635828Y385291D01*
X636092Y385467D01*
X638283Y387658D01*
X639006Y388740D01*
X639259Y390015D01*
Y392021D01*
X644425D01*
Y403021D01*
D02*
G37*
G36*
X1117950Y437027D02*
X1114441Y436681D01*
X1111067Y435658D01*
X1107957Y433995D01*
X1105232Y431758D01*
X1102995Y429033D01*
X1101332Y425923D01*
X1100309Y422549D01*
X1099963Y419040D01*
X1100309Y415531D01*
X1101332Y412157D01*
X1102995Y409047D01*
X1105232Y406322D01*
X1107957Y404085D01*
X1111067Y402422D01*
X1114441Y401399D01*
X1117950Y401053D01*
X1121459Y401399D01*
X1124833Y402422D01*
X1127943Y404085D01*
X1130668Y406322D01*
X1132905Y409047D01*
X1134567Y412157D01*
X1135591Y415531D01*
X1135937Y419040D01*
X1135591Y422549D01*
X1134567Y425923D01*
X1132905Y429033D01*
X1130668Y431758D01*
X1127943Y433995D01*
X1124833Y435658D01*
X1121459Y436681D01*
X1117950Y437027D01*
D02*
G37*
G36*
X367950D02*
X364441Y436681D01*
X361067Y435658D01*
X357957Y433995D01*
X355232Y431758D01*
X352995Y429033D01*
X351333Y425923D01*
X350309Y422549D01*
X349963Y419040D01*
X350309Y415531D01*
X351333Y412157D01*
X352995Y409047D01*
X355232Y406322D01*
X357957Y404085D01*
X361067Y402422D01*
X364441Y401399D01*
X367950Y401053D01*
X371459Y401399D01*
X374833Y402422D01*
X377943Y404085D01*
X380668Y406322D01*
X382905Y409047D01*
X384567Y412157D01*
X385591Y415531D01*
X385937Y419040D01*
X385591Y422549D01*
X384567Y425923D01*
X382905Y429033D01*
X380668Y431758D01*
X377943Y433995D01*
X374833Y435658D01*
X371459Y436681D01*
X367950Y437027D01*
D02*
G37*
G36*
X611950Y407805D02*
X609999Y407416D01*
X608345Y406311D01*
X607240Y404658D01*
X606852Y402707D01*
X606915Y402387D01*
X605338Y400810D01*
X602934D01*
Y403540D01*
X589790D01*
Y391412D01*
X602934D01*
Y394142D01*
X606719D01*
X607995Y394396D01*
X609077Y395119D01*
X611630Y397672D01*
X611950Y397609D01*
X613900Y397997D01*
X615554Y399102D01*
X616659Y400756D01*
X617048Y402707D01*
X616659Y404658D01*
X615554Y406311D01*
X613900Y407416D01*
X611950Y407805D01*
D02*
G37*
G36*
X796490Y741580D02*
X788720D01*
Y732310D01*
X796490D01*
Y741580D01*
D02*
G37*
G36*
X786180D02*
X778410D01*
Y732310D01*
X786180D01*
Y741580D01*
D02*
G37*
G36*
X1313900Y757121D02*
X1310245Y756639D01*
X1306840Y755229D01*
X1303915Y752985D01*
X1301671Y750060D01*
X1300260Y746655D01*
X1299779Y743000D01*
X1300260Y739345D01*
X1301671Y735939D01*
X1303915Y733015D01*
X1306840Y730771D01*
X1310245Y729360D01*
X1313900Y728879D01*
X1317555Y729360D01*
X1320960Y730771D01*
X1323885Y733015D01*
X1326129Y735939D01*
X1327540Y739345D01*
X1328021Y743000D01*
X1327540Y746655D01*
X1326129Y750060D01*
X1323885Y752985D01*
X1320960Y755229D01*
X1317555Y756639D01*
X1313900Y757121D01*
D02*
G37*
G36*
X1190250Y803484D02*
X1187407Y803110D01*
X1184758Y802012D01*
X1182483Y800267D01*
X1180738Y797992D01*
X1179640Y795343D01*
X1179266Y792500D01*
X1179640Y789657D01*
X1180738Y787008D01*
X1182483Y784733D01*
X1184758Y782988D01*
X1186062Y782447D01*
Y765130D01*
X1178820D01*
Y763128D01*
X1175950D01*
Y764040D01*
X1158950D01*
Y753040D01*
X1175950D01*
Y753952D01*
X1178820D01*
Y751130D01*
X1198060D01*
Y753542D01*
X1202419D01*
X1216206Y739756D01*
X1217694Y738761D01*
X1219450Y738412D01*
X1236647D01*
X1237671Y735939D01*
X1239915Y733015D01*
X1242840Y730771D01*
X1246245Y729360D01*
X1249900Y728879D01*
X1253555Y729360D01*
X1256961Y730771D01*
X1259885Y733015D01*
X1262129Y735939D01*
X1263540Y739345D01*
X1264021Y743000D01*
X1263540Y746655D01*
X1262129Y750060D01*
X1259885Y752985D01*
X1256961Y755229D01*
X1253555Y756639D01*
X1249900Y757121D01*
X1246245Y756639D01*
X1242840Y755229D01*
X1239915Y752985D01*
X1237671Y750060D01*
X1236647Y747588D01*
X1221350D01*
X1207564Y761374D01*
X1206076Y762369D01*
X1204320Y762718D01*
X1198060D01*
Y765130D01*
X1195238D01*
Y782779D01*
X1195742Y782988D01*
X1198017Y784733D01*
X1199762Y787008D01*
X1200860Y789657D01*
X1201234Y792500D01*
X1200860Y795343D01*
X1199762Y797992D01*
X1198017Y800267D01*
X1195742Y802012D01*
X1193093Y803110D01*
X1190250Y803484D01*
D02*
G37*
G36*
X1168720Y745580D02*
Y740810D01*
X1176490D01*
Y745580D01*
X1168720D01*
D02*
G37*
G36*
X1176490Y738270D02*
X1168720D01*
Y733500D01*
X1176490D01*
Y738270D01*
D02*
G37*
G36*
X927990Y730580D02*
X920220D01*
Y725810D01*
X927990D01*
Y730580D01*
D02*
G37*
G36*
Y723270D02*
X920220D01*
Y718500D01*
X927990D01*
Y723270D01*
D02*
G37*
G36*
X917680D02*
X909910D01*
Y718500D01*
X917680D01*
Y723270D01*
D02*
G37*
G36*
X1198060Y744810D02*
X1178820D01*
Y730810D01*
X1184862D01*
Y723173D01*
X1184740Y722991D01*
X1184352Y721040D01*
X1184740Y719089D01*
X1185845Y717435D01*
X1187499Y716330D01*
X1189450Y715942D01*
X1191401Y716330D01*
X1193055Y717435D01*
X1194160Y719089D01*
X1194548Y721040D01*
X1194160Y722991D01*
X1194038Y723173D01*
Y730810D01*
X1198060D01*
Y744810D01*
D02*
G37*
G36*
X917680Y730580D02*
X909910D01*
Y725810D01*
X917680D01*
Y730580D01*
D02*
G37*
G36*
X796490Y729770D02*
X788720D01*
Y720500D01*
X796490D01*
Y729770D01*
D02*
G37*
G36*
X786180D02*
X778410D01*
Y720500D01*
X786180D01*
Y729770D01*
D02*
G37*
G36*
X1158490Y810270D02*
X1147950D01*
X1137410D01*
Y804250D01*
X1138827D01*
X1139235Y803047D01*
X1138928Y802812D01*
X1136844Y800096D01*
X1135535Y796934D01*
X1135088Y793540D01*
X1135535Y790146D01*
X1136844Y786984D01*
X1138928Y784268D01*
X1139939Y783493D01*
X1139531Y782290D01*
X1137950D01*
Y768790D01*
X1144616D01*
Y766500D01*
X1144870Y765224D01*
X1145592Y764142D01*
X1150616Y759119D01*
Y696227D01*
X1081231Y626841D01*
X1079918Y627325D01*
X1079307Y628238D01*
X1060784Y646762D01*
Y741119D01*
X1091871Y772206D01*
X1099617D01*
Y768790D01*
X1119617D01*
Y782290D01*
X1118536D01*
X1118128Y783493D01*
X1119138Y784268D01*
X1121222Y786984D01*
X1122532Y790146D01*
X1122979Y793540D01*
X1122532Y796934D01*
X1121222Y800096D01*
X1119138Y802812D01*
X1118831Y803047D01*
X1119239Y804250D01*
X1120157D01*
Y810270D01*
X1109617D01*
X1099077D01*
Y804250D01*
X1100494D01*
X1100902Y803047D01*
X1100595Y802812D01*
X1098511Y800096D01*
X1097201Y796934D01*
X1096755Y793540D01*
X1097201Y790146D01*
X1098511Y786984D01*
X1100595Y784268D01*
X1101606Y783493D01*
X1101198Y782290D01*
X1099617D01*
Y778874D01*
X1090490D01*
X1089214Y778620D01*
X1088132Y777898D01*
X1082457Y772222D01*
X1081283Y772708D01*
Y782290D01*
X1080202D01*
X1079794Y783493D01*
X1080805Y784268D01*
X1082889Y786984D01*
X1084199Y790146D01*
X1084645Y793540D01*
X1084199Y796934D01*
X1082889Y800096D01*
X1080805Y802812D01*
X1080498Y803047D01*
X1080906Y804250D01*
X1081823D01*
Y810270D01*
X1071283D01*
X1060743D01*
Y804250D01*
X1062161D01*
X1062569Y803047D01*
X1062262Y802812D01*
X1060178Y800096D01*
X1058868Y796934D01*
X1058421Y793540D01*
X1058868Y790146D01*
X1060178Y786984D01*
X1062262Y784268D01*
X1063272Y783493D01*
X1062864Y782290D01*
X1061283D01*
Y768790D01*
X1064826D01*
X1065312Y767617D01*
X1050553Y752858D01*
X1049830Y751776D01*
X1049576Y750500D01*
Y646788D01*
X1048403Y646302D01*
X1036284Y658421D01*
Y768790D01*
X1042950D01*
Y782290D01*
X1041869D01*
X1041461Y783493D01*
X1042472Y784268D01*
X1044556Y786984D01*
X1045865Y790146D01*
X1046312Y793540D01*
X1045865Y796934D01*
X1044556Y800096D01*
X1042472Y802812D01*
X1042165Y803047D01*
X1042573Y804250D01*
X1043490D01*
Y810270D01*
X1032950D01*
X1022410D01*
Y804250D01*
X1023827D01*
X1024236Y803047D01*
X1023928Y802812D01*
X1021844Y800096D01*
X1020535Y796934D01*
X1020088Y793540D01*
X1020535Y790146D01*
X1021844Y786984D01*
X1023928Y784268D01*
X1024939Y783493D01*
X1024531Y782290D01*
X1022950D01*
Y768790D01*
X1029616D01*
Y657040D01*
X1029870Y655764D01*
X1030592Y654682D01*
X1064536Y620739D01*
Y442341D01*
X1043186Y420991D01*
X1042450Y421138D01*
X1040499Y420750D01*
X1039937Y420374D01*
X1038450D01*
X1037174Y420120D01*
X1036093Y419398D01*
X1035370Y418316D01*
X1035116Y417040D01*
X1035370Y415764D01*
X1036093Y414683D01*
X1037174Y413960D01*
X1037926Y413810D01*
X1038845Y412435D01*
X1040499Y411330D01*
X1042450Y410942D01*
X1044401Y411330D01*
X1046055Y412435D01*
X1047160Y414089D01*
X1047519Y415894D01*
X1067903Y436278D01*
X1069076Y435792D01*
Y408381D01*
X1043742Y383047D01*
X1042450Y383305D01*
X1040499Y382916D01*
X1038845Y381811D01*
X1037740Y380158D01*
X1037352Y378207D01*
X1037740Y376256D01*
X1038845Y374602D01*
X1040499Y373497D01*
X1042450Y373109D01*
X1044401Y373497D01*
X1046055Y374602D01*
X1047160Y376256D01*
X1047353Y377228D01*
X1072443Y402318D01*
X1073616Y401832D01*
Y376254D01*
X1042769Y345408D01*
X1042450Y345471D01*
X1040499Y345083D01*
X1038845Y343978D01*
X1037740Y342324D01*
X1037352Y340373D01*
X1037740Y338422D01*
X1038845Y336768D01*
X1040499Y335663D01*
X1042450Y335275D01*
X1044401Y335663D01*
X1046055Y336768D01*
X1047160Y338422D01*
X1047548Y340373D01*
X1047484Y340693D01*
X1076983Y370191D01*
X1078156Y369705D01*
Y342961D01*
X1042769Y307574D01*
X1042450Y307638D01*
X1040499Y307250D01*
X1038845Y306145D01*
X1037740Y304491D01*
X1037352Y302540D01*
X1037740Y300589D01*
X1038845Y298935D01*
X1040499Y297830D01*
X1042450Y297442D01*
X1044401Y297830D01*
X1046055Y298935D01*
X1047160Y300589D01*
X1047548Y302540D01*
X1047484Y302859D01*
X1083848Y339222D01*
X1084570Y340304D01*
X1084824Y341580D01*
Y621005D01*
X1156308Y692488D01*
X1157030Y693570D01*
X1157284Y694846D01*
Y733152D01*
X1158410Y733500D01*
X1158554Y733500D01*
X1166180D01*
Y739540D01*
Y745580D01*
X1158554D01*
X1158410Y745580D01*
X1157284Y745928D01*
Y760500D01*
X1157030Y761776D01*
X1156308Y762857D01*
X1151645Y767520D01*
X1152155Y768790D01*
X1157950D01*
Y782290D01*
X1156869D01*
X1156461Y783493D01*
X1157472Y784268D01*
X1159556Y786984D01*
X1160865Y790146D01*
X1161312Y793540D01*
X1160865Y796934D01*
X1159556Y800096D01*
X1157472Y802812D01*
X1157165Y803047D01*
X1157573Y804250D01*
X1158490D01*
Y810270D01*
D02*
G37*
G36*
X1070013Y818830D02*
X1060743D01*
Y812810D01*
X1070013D01*
Y818830D01*
D02*
G37*
G36*
X1120157D02*
X1110887D01*
Y812810D01*
X1120157D01*
Y818830D01*
D02*
G37*
G36*
X1043490D02*
X1034220D01*
Y812810D01*
X1043490D01*
Y818830D01*
D02*
G37*
G36*
X1158490D02*
X1149220D01*
Y812810D01*
X1158490D01*
Y818830D01*
D02*
G37*
G36*
X1081823D02*
X1072553D01*
Y812810D01*
X1081823D01*
Y818830D01*
D02*
G37*
G36*
X1146680D02*
X1137410D01*
Y812810D01*
X1146680D01*
Y818830D01*
D02*
G37*
G36*
X1108347D02*
X1099077D01*
Y812810D01*
X1108347D01*
Y818830D01*
D02*
G37*
G36*
X1226540Y803390D02*
X1204760D01*
Y781610D01*
X1226540D01*
Y803390D01*
D02*
G37*
G36*
X767080Y801151D02*
Y788670D01*
Y776189D01*
X769084Y776453D01*
X772134Y777716D01*
X774754Y779726D01*
X776764Y782346D01*
X778027Y785396D01*
X778142Y786267D01*
X779423D01*
X779519Y785537D01*
X780728Y782618D01*
X782652Y780111D01*
X785158Y778188D01*
X788077Y776979D01*
X791210Y776566D01*
X794343Y776979D01*
X797262Y778188D01*
X799769Y780111D01*
X801692Y782618D01*
X802901Y785537D01*
X803195Y787766D01*
Y787766D01*
X803270Y788335D01*
X803277D01*
X803318D01*
X803392D01*
X804428D01*
X804501D01*
X804543D01*
X804550D01*
X804625Y787766D01*
D01*
X804919Y785537D01*
X806128Y782618D01*
X808052Y780111D01*
X810558Y778188D01*
X812022Y777582D01*
Y763600D01*
X803206Y754784D01*
X802211Y753296D01*
X801862Y751540D01*
Y741040D01*
X797950D01*
Y721040D01*
X814950D01*
Y741040D01*
X811038D01*
Y749639D01*
X819854Y758456D01*
X820849Y759944D01*
X821198Y761700D01*
Y777582D01*
X822662Y778188D01*
X825169Y780111D01*
X827092Y782618D01*
X828301Y785537D01*
X828595Y787766D01*
Y787766D01*
X828670Y788335D01*
X828677D01*
X828718D01*
X828792D01*
X829828D01*
X829902D01*
X829943D01*
X829950D01*
X830025Y787766D01*
D01*
X830319Y785537D01*
X831528Y782618D01*
X833452Y780111D01*
X835958Y778188D01*
X838877Y776979D01*
X842010Y776566D01*
X845143Y776979D01*
X848062Y778188D01*
X850568Y780111D01*
X852492Y782618D01*
X853701Y785537D01*
X853995Y787766D01*
Y787766D01*
X854070Y788335D01*
X854077D01*
X854118D01*
X854192D01*
X855228D01*
X855302D01*
X855343D01*
X855350D01*
X855425Y787766D01*
D01*
X855719Y785537D01*
X856928Y782618D01*
X858851Y780111D01*
X861358Y778188D01*
X864277Y776979D01*
X867410Y776566D01*
X870543Y776979D01*
X873462Y778188D01*
X875968Y780111D01*
X877892Y782618D01*
X879101Y785537D01*
X879514Y788670D01*
X879101Y791803D01*
X877892Y794722D01*
X875968Y797228D01*
X873462Y799152D01*
X870543Y800361D01*
X867410Y800774D01*
X864277Y800361D01*
X861358Y799152D01*
X858851Y797228D01*
X856928Y794722D01*
X855719Y791803D01*
X855425Y789574D01*
Y789574D01*
X855350Y789005D01*
X855343D01*
X855302D01*
X855228D01*
X854192D01*
X854118D01*
X854077D01*
X854070D01*
X853995Y789574D01*
D01*
X853701Y791803D01*
X852492Y794722D01*
X850568Y797228D01*
X848062Y799152D01*
X845143Y800361D01*
X842010Y800774D01*
X838877Y800361D01*
X835958Y799152D01*
X833452Y797228D01*
X831528Y794722D01*
X830319Y791803D01*
X830025Y789574D01*
Y789574D01*
X829950Y789005D01*
X829943D01*
X829902D01*
X829828D01*
X828792D01*
X828718D01*
X828677D01*
X828670D01*
X828595Y789574D01*
D01*
X828301Y791803D01*
X827092Y794722D01*
X825169Y797228D01*
X822662Y799152D01*
X819743Y800361D01*
X816610Y800774D01*
X813477Y800361D01*
X810558Y799152D01*
X808052Y797228D01*
X806128Y794722D01*
X804919Y791803D01*
X804625Y789574D01*
Y789574D01*
X804550Y789005D01*
X804543D01*
X804501D01*
X804428D01*
X803392D01*
X803318D01*
X803277D01*
X803270D01*
X803195Y789574D01*
D01*
X802901Y791803D01*
X801692Y794722D01*
X799769Y797228D01*
X797262Y799152D01*
X794343Y800361D01*
X791210Y800774D01*
X788077Y800361D01*
X785158Y799152D01*
X782652Y797228D01*
X780728Y794722D01*
X779519Y791803D01*
X779423Y791073D01*
X778142D01*
X778027Y791944D01*
X776764Y794994D01*
X774754Y797614D01*
X772134Y799624D01*
X769084Y800887D01*
X767080Y801151D01*
D02*
G37*
G36*
X1432790Y835819D02*
X1427769Y835424D01*
X1422871Y834248D01*
X1418217Y832320D01*
X1413923Y829689D01*
X1410093Y826417D01*
X1406821Y822587D01*
X1404190Y818293D01*
X1402262Y813639D01*
X1401086Y808741D01*
X1400691Y803720D01*
X1401086Y798699D01*
X1402262Y793801D01*
X1404190Y789147D01*
X1406821Y784853D01*
X1410093Y781023D01*
X1413923Y777751D01*
X1418217Y775120D01*
X1422871Y773192D01*
X1427769Y772016D01*
X1432790Y771621D01*
X1437811Y772016D01*
X1442709Y773192D01*
X1447363Y775120D01*
X1451657Y777751D01*
X1455487Y781023D01*
X1458759Y784853D01*
X1461390Y789147D01*
X1463318Y793801D01*
X1464494Y798699D01*
X1464889Y803720D01*
X1464494Y808741D01*
X1463318Y813639D01*
X1461390Y818293D01*
X1458759Y822587D01*
X1455487Y826417D01*
X1451657Y829689D01*
X1447363Y832320D01*
X1442709Y834248D01*
X1437811Y835424D01*
X1432790Y835819D01*
D02*
G37*
G36*
X1031680Y818830D02*
X1022410D01*
Y812810D01*
X1031680D01*
Y818830D01*
D02*
G37*
G36*
X764540Y801151D02*
X762536Y800887D01*
X759486Y799624D01*
X756866Y797614D01*
X754856Y794994D01*
X753593Y791944D01*
X753478Y791073D01*
X752197D01*
X752101Y791803D01*
X750892Y794722D01*
X748969Y797228D01*
X746462Y799152D01*
X743543Y800361D01*
X740410Y800774D01*
X737277Y800361D01*
X734358Y799152D01*
X731852Y797228D01*
X729928Y794722D01*
X728719Y791803D01*
X728426Y789574D01*
Y789574D01*
X728350Y789005D01*
X728343D01*
X728301D01*
X728228D01*
X727192D01*
X727119D01*
X727077D01*
X727070D01*
X726994Y789574D01*
D01*
X726701Y791803D01*
X725492Y794722D01*
X723568Y797228D01*
X721062Y799152D01*
X718143Y800361D01*
X715010Y800774D01*
X711877Y800361D01*
X708958Y799152D01*
X706451Y797228D01*
X704528Y794722D01*
X703319Y791803D01*
X703026Y789574D01*
Y789574D01*
X702950Y789005D01*
X702943D01*
X702902D01*
X702828D01*
X701792D01*
X701719D01*
X701677D01*
X701670D01*
X701594Y789574D01*
D01*
X701301Y791803D01*
X700092Y794722D01*
X698168Y797228D01*
X695662Y799152D01*
X692743Y800361D01*
X689610Y800774D01*
X686477Y800361D01*
X683558Y799152D01*
X681051Y797228D01*
X679128Y794722D01*
X677919Y791803D01*
X677506Y788670D01*
X677919Y785537D01*
X679128Y782618D01*
X681051Y780111D01*
X683558Y778188D01*
X686477Y776979D01*
X689610Y776566D01*
X692743Y776979D01*
X695662Y778188D01*
X698168Y780111D01*
X700092Y782618D01*
X701301Y785537D01*
X701594Y787766D01*
Y787766D01*
X701670Y788335D01*
X701677D01*
X701719D01*
X701792D01*
X702828D01*
X702902D01*
X702943D01*
X702950D01*
X703026Y787766D01*
D01*
X703319Y785537D01*
X704528Y782618D01*
X706451Y780111D01*
X708958Y778188D01*
X711877Y776979D01*
X715010Y776566D01*
X718143Y776979D01*
X721062Y778188D01*
X723568Y780111D01*
X725492Y782618D01*
X726701Y785537D01*
X726994Y787766D01*
Y787766D01*
X727070Y788335D01*
X727077D01*
X727119D01*
X727192D01*
X728228D01*
X728301D01*
X728343D01*
X728350D01*
X728426Y787766D01*
D01*
X728719Y785537D01*
X729928Y782618D01*
X731852Y780111D01*
X734358Y778188D01*
X735822Y777582D01*
Y572361D01*
X735240Y571491D01*
X734852Y569540D01*
X735240Y567589D01*
X736345Y565935D01*
X737999Y564830D01*
X739950Y564442D01*
X741901Y564830D01*
X743555Y565935D01*
X744660Y567589D01*
X745048Y569540D01*
X744977Y569895D01*
X744998Y570000D01*
Y777582D01*
X746462Y778188D01*
X748969Y780111D01*
X750892Y782618D01*
X752101Y785537D01*
X752197Y786267D01*
X753478D01*
X753593Y785396D01*
X754856Y782346D01*
X756866Y779726D01*
X759486Y777716D01*
X762536Y776453D01*
X764540Y776189D01*
Y788670D01*
Y801151D01*
D02*
G37*
G36*
X943610Y800774D02*
X940477Y800361D01*
X937558Y799152D01*
X935051Y797228D01*
X933128Y794722D01*
X931919Y791803D01*
X931626Y789574D01*
Y789574D01*
X931550Y789005D01*
X931543D01*
X931501D01*
X931428D01*
X930392D01*
X930319D01*
X930277D01*
X930270D01*
X930194Y789574D01*
D01*
X929901Y791803D01*
X928692Y794722D01*
X926768Y797228D01*
X924262Y799152D01*
X921343Y800361D01*
X918210Y800774D01*
X915077Y800361D01*
X912158Y799152D01*
X909651Y797228D01*
X907728Y794722D01*
X906519Y791803D01*
X906106Y788670D01*
X906519Y785537D01*
X907728Y782618D01*
X909651Y780111D01*
X912158Y778188D01*
X914362Y777275D01*
Y749040D01*
X910450D01*
Y738040D01*
X927450D01*
Y749040D01*
X923538D01*
Y777888D01*
X924262Y778188D01*
X926768Y780111D01*
X928692Y782618D01*
X929901Y785537D01*
X930194Y787766D01*
Y787766D01*
X930270Y788335D01*
X930277D01*
X930319D01*
X930392D01*
X931428D01*
X931501D01*
X931543D01*
X931550D01*
X931626Y787766D01*
D01*
X931919Y785537D01*
X933128Y782618D01*
X935051Y780111D01*
X937558Y778188D01*
X939022Y777582D01*
Y735894D01*
X938852Y735040D01*
X939240Y733089D01*
X940345Y731435D01*
X941999Y730330D01*
X943950Y729942D01*
X945901Y730330D01*
X947555Y731435D01*
X948660Y733089D01*
X949048Y735040D01*
X948660Y736991D01*
X948198Y737682D01*
Y777582D01*
X949662Y778188D01*
X952169Y780111D01*
X954092Y782618D01*
X955301Y785537D01*
X955714Y788670D01*
X955301Y791803D01*
X954092Y794722D01*
X952169Y797228D01*
X949662Y799152D01*
X946743Y800361D01*
X943610Y800774D01*
D02*
G37*
G36*
X1117950Y747027D02*
X1114441Y746681D01*
X1111067Y745658D01*
X1107957Y743995D01*
X1105232Y741758D01*
X1102995Y739033D01*
X1101332Y735923D01*
X1100309Y732549D01*
X1099963Y729040D01*
X1100309Y725531D01*
X1101332Y722157D01*
X1102995Y719047D01*
X1105232Y716322D01*
X1107957Y714085D01*
X1111067Y712422D01*
X1114441Y711399D01*
X1117950Y711053D01*
X1121459Y711399D01*
X1124833Y712422D01*
X1127943Y714085D01*
X1130668Y716322D01*
X1132905Y719047D01*
X1134567Y722157D01*
X1135591Y725531D01*
X1135937Y729040D01*
X1135591Y732549D01*
X1134567Y735923D01*
X1132905Y739033D01*
X1130668Y741758D01*
X1127943Y743995D01*
X1124833Y745658D01*
X1121459Y746681D01*
X1117950Y747027D01*
D02*
G37*
G36*
X1167070Y643700D02*
X1147830D01*
Y642128D01*
X1130583D01*
X1130401Y642250D01*
X1128450Y642638D01*
X1126499Y642250D01*
X1124845Y641145D01*
X1123740Y639491D01*
X1123352Y637540D01*
X1123740Y635589D01*
X1124845Y633935D01*
X1126499Y632830D01*
X1128450Y632442D01*
X1130401Y632830D01*
X1130583Y632952D01*
X1147830D01*
Y629700D01*
X1167070D01*
Y632312D01*
X1170220D01*
Y631400D01*
X1187220D01*
Y642400D01*
X1170220D01*
Y641488D01*
X1167070D01*
Y643700D01*
D02*
G37*
G36*
X1207490Y643080D02*
X1199720D01*
Y638310D01*
X1207490D01*
Y643080D01*
D02*
G37*
G36*
X1197180D02*
X1189410D01*
Y638310D01*
X1197180D01*
Y643080D01*
D02*
G37*
G36*
X1448840Y677630D02*
X1427060D01*
Y655850D01*
X1448840D01*
Y677630D01*
D02*
G37*
G36*
X1238070Y682380D02*
X1218830D01*
Y668380D01*
X1223862D01*
Y658156D01*
X1223845Y658145D01*
X1222740Y656491D01*
X1222352Y654540D01*
X1222740Y652589D01*
X1223845Y650935D01*
X1225499Y649830D01*
X1227450Y649442D01*
X1229401Y649830D01*
X1231055Y650935D01*
X1232160Y652589D01*
X1232274Y653164D01*
X1232689Y653784D01*
X1233038Y655540D01*
Y668380D01*
X1238070D01*
Y682380D01*
D02*
G37*
G36*
X664610Y813258D02*
X514610D01*
X512854Y812909D01*
X511366Y811914D01*
X510371Y810426D01*
X510022Y808670D01*
Y653670D01*
Y648670D01*
X510371Y646914D01*
X511366Y645426D01*
X512854Y644431D01*
X514610Y644082D01*
X664610D01*
X666366Y644431D01*
X667854Y645426D01*
X668849Y646914D01*
X669198Y648670D01*
Y808670D01*
X668849Y810426D01*
X667854Y811914D01*
X666366Y812909D01*
X664610Y813258D01*
D02*
G37*
G36*
X1306900Y653532D02*
X1304420Y653205D01*
X1302109Y652248D01*
X1300125Y650725D01*
X1298602Y648741D01*
X1297645Y646430D01*
X1297318Y643950D01*
X1297645Y641470D01*
X1297729Y641267D01*
X1278950Y622488D01*
X1206950D01*
Y623540D01*
X1189950D01*
Y622488D01*
X1187220D01*
Y623400D01*
X1170220D01*
Y612400D01*
X1187220D01*
Y613312D01*
X1189950D01*
Y612540D01*
X1206950D01*
Y613312D01*
X1280850D01*
X1282606Y613661D01*
X1284094Y614656D01*
X1304217Y634779D01*
X1304420Y634695D01*
X1306900Y634368D01*
X1309380Y634695D01*
X1311691Y635652D01*
X1313676Y637175D01*
X1315198Y639159D01*
X1316156Y641470D01*
X1316482Y643950D01*
X1316156Y646430D01*
X1315198Y648741D01*
X1313676Y650725D01*
X1311691Y652248D01*
X1309380Y653205D01*
X1306900Y653532D01*
D02*
G37*
G36*
X1136450Y628638D02*
X1134499Y628250D01*
X1132845Y627145D01*
X1131740Y625491D01*
X1131352Y623540D01*
X1131740Y621589D01*
X1132845Y619935D01*
X1134499Y618830D01*
X1134714Y618787D01*
X1140366Y613136D01*
X1141854Y612141D01*
X1143610Y611792D01*
X1147830D01*
Y609380D01*
X1167070D01*
Y623380D01*
X1147830D01*
Y620968D01*
X1145510D01*
X1141203Y625276D01*
X1141160Y625491D01*
X1140055Y627145D01*
X1138401Y628250D01*
X1136450Y628638D01*
D02*
G37*
G36*
X1437950Y652324D02*
X1435107Y651950D01*
X1432458Y650852D01*
X1430183Y649107D01*
X1428438Y646832D01*
X1427340Y644183D01*
X1426966Y641340D01*
X1427340Y638497D01*
X1428438Y635848D01*
X1430183Y633573D01*
X1432458Y631828D01*
X1433522Y631387D01*
Y619243D01*
X1431050Y618219D01*
X1428125Y615975D01*
X1425881Y613050D01*
X1424470Y609645D01*
X1423989Y605990D01*
X1424043Y605583D01*
X1423205Y604628D01*
X1412070D01*
Y606700D01*
X1392830D01*
Y604628D01*
X1389950D01*
Y605540D01*
X1386038D01*
Y626907D01*
X1386160Y627089D01*
X1386548Y629040D01*
X1386160Y630991D01*
X1385055Y632645D01*
X1383401Y633750D01*
X1381450Y634138D01*
X1379499Y633750D01*
X1377845Y632645D01*
X1376740Y630991D01*
X1376352Y629040D01*
X1376740Y627089D01*
X1376862Y626907D01*
Y605540D01*
X1372950D01*
Y594540D01*
X1389950D01*
Y595452D01*
X1392830D01*
Y592700D01*
X1412070D01*
Y595452D01*
X1428846D01*
X1431050Y593761D01*
X1434455Y592350D01*
X1438110Y591869D01*
X1441765Y592350D01*
X1445170Y593761D01*
X1448095Y596005D01*
X1450339Y598930D01*
X1451750Y602335D01*
X1452231Y605990D01*
X1451750Y609645D01*
X1450339Y613050D01*
X1448095Y615975D01*
X1445170Y618219D01*
X1442698Y619243D01*
Y631520D01*
X1443442Y631828D01*
X1445717Y633573D01*
X1447462Y635848D01*
X1448560Y638497D01*
X1448934Y641340D01*
X1448560Y644183D01*
X1447462Y646832D01*
X1445717Y649107D01*
X1443442Y650852D01*
X1440793Y651950D01*
X1437950Y652324D01*
D02*
G37*
G36*
X1390490Y587080D02*
X1382720D01*
Y582310D01*
X1390490D01*
Y587080D01*
D02*
G37*
G36*
X1281900Y653532D02*
X1279420Y653205D01*
X1277109Y652248D01*
X1275125Y650725D01*
X1273602Y648741D01*
X1272645Y646430D01*
X1272318Y643950D01*
X1272645Y641470D01*
X1273602Y639159D01*
X1275125Y637175D01*
X1277109Y635652D01*
X1279420Y634695D01*
X1281900Y634368D01*
X1284380Y634695D01*
X1286691Y635652D01*
X1288676Y637175D01*
X1290198Y639159D01*
X1291156Y641470D01*
X1291482Y643950D01*
X1291156Y646430D01*
X1290198Y648741D01*
X1288676Y650725D01*
X1286691Y652248D01*
X1284380Y653205D01*
X1281900Y653532D01*
D02*
G37*
G36*
X1207490Y635770D02*
X1199720D01*
Y631000D01*
X1207490D01*
Y635770D01*
D02*
G37*
G36*
X1197180D02*
X1189410D01*
Y631000D01*
X1197180D01*
Y635770D01*
D02*
G37*
G36*
X1340070Y683380D02*
X1320830D01*
Y680968D01*
X1309290D01*
X1307534Y680619D01*
X1307187Y680387D01*
X1306499Y680250D01*
X1304845Y679145D01*
X1303740Y677491D01*
X1303352Y675540D01*
X1303740Y673589D01*
X1304845Y671935D01*
X1306499Y670830D01*
X1308450Y670442D01*
X1310401Y670830D01*
X1311840Y671792D01*
X1320830D01*
Y669380D01*
X1340070D01*
Y683380D01*
D02*
G37*
G36*
X1370180Y704080D02*
X1362410D01*
Y699310D01*
X1370180D01*
Y704080D01*
D02*
G37*
G36*
X1277490Y703080D02*
X1269720D01*
Y698310D01*
X1277490D01*
Y703080D01*
D02*
G37*
G36*
X1267180D02*
X1259410D01*
Y698310D01*
X1267180D01*
Y703080D01*
D02*
G37*
G36*
X367950Y747027D02*
X364441Y746681D01*
X361067Y745658D01*
X357957Y743995D01*
X355232Y741758D01*
X352995Y739033D01*
X351333Y735923D01*
X350309Y732549D01*
X349963Y729040D01*
X350309Y725531D01*
X351333Y722157D01*
X352995Y719047D01*
X355232Y716322D01*
X357957Y714085D01*
X361067Y712422D01*
X364441Y711399D01*
X367950Y711053D01*
X371459Y711399D01*
X374833Y712422D01*
X377943Y714085D01*
X380668Y716322D01*
X382905Y719047D01*
X384567Y722157D01*
X385591Y725531D01*
X385937Y729040D01*
X385591Y732549D01*
X384567Y735923D01*
X382905Y739033D01*
X380668Y741758D01*
X377943Y743995D01*
X374833Y745658D01*
X371459Y746681D01*
X367950Y747027D01*
D02*
G37*
G36*
X1340070Y703700D02*
X1320830D01*
Y700128D01*
X1304083D01*
X1303901Y700250D01*
X1301950Y700638D01*
X1299999Y700250D01*
X1298345Y699145D01*
X1297240Y697491D01*
X1296852Y695540D01*
X1297240Y693589D01*
X1298345Y691935D01*
X1299999Y690830D01*
X1301950Y690442D01*
X1303901Y690830D01*
X1304083Y690952D01*
X1320830D01*
Y689700D01*
X1340070D01*
Y692402D01*
X1340366Y692461D01*
X1341680Y693339D01*
X1342314Y693162D01*
X1342950Y692755D01*
Y692540D01*
X1359950D01*
Y703540D01*
X1342950D01*
Y703128D01*
X1340450D01*
X1340070Y703440D01*
Y703700D01*
D02*
G37*
G36*
X1380490Y704080D02*
X1372720D01*
Y699310D01*
X1380490D01*
Y704080D01*
D02*
G37*
G36*
Y696770D02*
X1372720D01*
Y692000D01*
X1380490D01*
Y696770D01*
D02*
G37*
G36*
X1267180Y695770D02*
X1259410D01*
Y691000D01*
X1267180D01*
Y695770D01*
D02*
G37*
G36*
X1379950Y684540D02*
X1362950D01*
Y683628D01*
X1359950D01*
Y684540D01*
X1342950D01*
Y673540D01*
X1346862D01*
Y661441D01*
X1306714Y621293D01*
X1306499Y621250D01*
X1304845Y620145D01*
X1303740Y618491D01*
X1303352Y616540D01*
X1303740Y614589D01*
X1304845Y612935D01*
X1306499Y611830D01*
X1308450Y611442D01*
X1310401Y611830D01*
X1312055Y612935D01*
X1313160Y614589D01*
X1313203Y614804D01*
X1354694Y656296D01*
X1355689Y657784D01*
X1356038Y659540D01*
Y673540D01*
X1359950D01*
Y674452D01*
X1362950D01*
Y673540D01*
X1379950D01*
Y684540D01*
D02*
G37*
G36*
X1276950Y683540D02*
X1259950D01*
Y682628D01*
X1257950D01*
Y683540D01*
X1240950D01*
Y672540D01*
X1244862D01*
Y665540D01*
X1245211Y663784D01*
X1246206Y662296D01*
X1252312Y656190D01*
Y652332D01*
X1252109Y652248D01*
X1250125Y650725D01*
X1248602Y648741D01*
X1247645Y646430D01*
X1247318Y643950D01*
X1247645Y641470D01*
X1248602Y639159D01*
X1250125Y637175D01*
X1252109Y635652D01*
X1254420Y634695D01*
X1256900Y634368D01*
X1259380Y634695D01*
X1261691Y635652D01*
X1263676Y637175D01*
X1265198Y639159D01*
X1266155Y641470D01*
X1266482Y643950D01*
X1266155Y646430D01*
X1265198Y648741D01*
X1263676Y650725D01*
X1261691Y652248D01*
X1261488Y652332D01*
Y658090D01*
X1261139Y659846D01*
X1260144Y661334D01*
X1254038Y667440D01*
Y672540D01*
X1257950D01*
Y673452D01*
X1259950D01*
Y672540D01*
X1276950D01*
Y683540D01*
D02*
G37*
G36*
X1370180Y696770D02*
X1362410D01*
Y692000D01*
X1370180D01*
Y696770D01*
D02*
G37*
G36*
X1209950Y713638D02*
X1207999Y713250D01*
X1206345Y712145D01*
X1205240Y710491D01*
X1204852Y708540D01*
X1205240Y706589D01*
X1206345Y704935D01*
X1207999Y703830D01*
X1209950Y703442D01*
X1211901Y703830D01*
X1212083Y703952D01*
X1218786D01*
X1218830Y702700D01*
X1218830Y702700D01*
X1218830Y702700D01*
Y688700D01*
X1238070D01*
Y692452D01*
X1240950D01*
Y691540D01*
X1257950D01*
Y702540D01*
X1240950D01*
Y701628D01*
X1238070D01*
Y702700D01*
X1232708D01*
X1232689Y702796D01*
X1231694Y704284D01*
X1224194Y711784D01*
X1222706Y712779D01*
X1220950Y713128D01*
X1212083D01*
X1211901Y713250D01*
X1209950Y713638D01*
D02*
G37*
G36*
X1277490Y695770D02*
X1269720D01*
Y691000D01*
X1277490D01*
Y695770D01*
D02*
G37*
%LPD*%
D10*
X722450Y366000D02*
Y376348D01*
X713450Y357000D02*
X722450Y366000D01*
X713450Y348848D02*
Y357000D01*
X792950Y364848D02*
Y373848D01*
X676450Y367500D02*
Y401000D01*
X697450Y422000D01*
X604950Y438540D02*
X613450D01*
X602072Y435662D02*
X604950Y438540D01*
X596362Y435662D02*
X602072D01*
X606719Y397476D02*
X611950Y402707D01*
X596362Y397476D02*
X606719D01*
X612200Y330790D02*
X612450Y331040D01*
X611200Y330790D02*
X612200D01*
X601514Y321104D02*
X611200Y330790D01*
X611116Y367707D02*
X611950Y368540D01*
X611116Y367706D02*
Y367707D01*
X602700Y359290D02*
X611116Y367706D01*
X635925Y390015D02*
Y397521D01*
X633734Y387824D02*
X635925Y390015D01*
X617538Y387824D02*
X633734D01*
X617538Y428023D02*
X625055Y435540D01*
X635925D01*
X617538Y426011D02*
Y428023D01*
X596362Y359290D02*
X602700D01*
X596362Y321104D02*
X601514D01*
X1042450Y302540D02*
X1081490Y341580D01*
X1052910Y643501D02*
Y750500D01*
X1076950Y374873D02*
Y625881D01*
X1057450Y645381D02*
X1076950Y625881D01*
X1072410Y407000D02*
Y624001D01*
X1052910Y643501D02*
X1072410Y624001D01*
X1067870Y440960D02*
Y622120D01*
X1032950Y657040D02*
X1067870Y622120D01*
X1032950Y657040D02*
Y775540D01*
X1081490Y622386D02*
X1153950Y694846D01*
X1081490Y341580D02*
Y622386D01*
X1043950Y417040D02*
X1067870Y440960D01*
X1038450Y417040D02*
X1043950D01*
X1044450Y379040D02*
X1072410Y407000D01*
X1041450Y379040D02*
X1044450D01*
X1042450Y340373D02*
X1076950Y374873D01*
X635925Y416540D02*
X657950D01*
X657431Y378521D02*
X657950Y379040D01*
X635925Y378521D02*
X657431D01*
X656911Y340501D02*
X656950Y340540D01*
X635925Y340501D02*
X656911D01*
X655892Y302482D02*
X657450Y304040D01*
X635925Y302482D02*
X655892D01*
X621911Y359501D02*
X635925D01*
X617538Y355128D02*
X621911Y359501D01*
X617538Y349638D02*
Y355128D01*
X621392Y321482D02*
X635925D01*
X617538Y317628D02*
X621392Y321482D01*
X617538Y311452D02*
Y317628D01*
X595950Y301540D02*
X596362Y301952D01*
X578950Y301540D02*
X595950D01*
X595891Y416040D02*
X596362Y416511D01*
X579425Y416040D02*
X595891D01*
X595911Y377873D02*
X596362Y378324D01*
X579425Y377873D02*
X595911D01*
X579425Y339707D02*
X595930D01*
X507029Y320540D02*
X578950D01*
X481910Y345659D02*
X507029Y320540D01*
X481910Y345659D02*
Y374921D01*
X490320Y383330D01*
X567117Y358707D02*
X579425D01*
X546950Y338540D02*
X567117Y358707D01*
X495450Y338540D02*
X546950D01*
X486450Y373040D02*
X492200Y378790D01*
X486450Y347540D02*
Y373040D01*
Y347540D02*
X495450Y338540D01*
X493120Y385290D02*
X501450D01*
X491160Y383330D02*
X493120Y385290D01*
X490320Y383330D02*
X491160D01*
X492200Y378790D02*
X501450D01*
X511450Y430540D02*
X527950D01*
X501450Y354540D02*
Y365790D01*
Y372290D02*
X518200D01*
X542783Y396873D01*
X579425D01*
X558950Y435040D02*
X579425D01*
X515700Y391790D02*
X558950Y435040D01*
X501450Y391790D02*
X515700D01*
X435700Y404790D02*
X445450D01*
X431950Y408540D02*
X435700Y404790D01*
X431950Y408540D02*
Y425540D01*
X463450Y485540D02*
X476450D01*
X479950Y482040D01*
Y444540D02*
Y482040D01*
X469950Y434540D02*
X479950Y444540D01*
X440950Y434540D02*
X469950D01*
X431950Y425540D02*
X440950Y434540D01*
X433200Y398290D02*
X445450D01*
X424950Y406540D02*
X433200Y398290D01*
X424950Y406540D02*
Y438540D01*
X435874Y449464D01*
X448538D01*
X417450Y392040D02*
X417700Y391790D01*
X445450D01*
X765450Y365348D02*
Y373846D01*
Y365348D02*
X767450Y363348D01*
X780450D01*
X794038Y349760D01*
Y343772D02*
Y349760D01*
X784950Y396848D02*
X792950D01*
X781948Y399850D02*
X784950Y396848D01*
X774950Y399850D02*
X781948D01*
X792950Y373848D02*
X794950Y375848D01*
X751952Y399850D02*
X755950D01*
X748450Y396348D02*
X751952Y399850D01*
X741450Y396348D02*
X748450D01*
X751952Y373846D02*
X755950D01*
X749450Y376348D02*
X751952Y373846D01*
X741450Y376348D02*
X749450D01*
X772862Y353424D02*
X780374D01*
X783450Y350348D01*
X737862Y334272D02*
X772862D01*
X759038Y343772D02*
X781026D01*
X784450Y340348D01*
Y328848D02*
Y340348D01*
X781450Y325848D02*
X784450Y328848D01*
X753950Y325848D02*
X781450D01*
X751950Y323848D02*
X753950Y325848D01*
X751950Y313848D02*
Y323848D01*
X752950Y294848D02*
X771450D01*
X715450Y315348D02*
X715450Y315348D01*
X730450Y303848D02*
X732950Y301348D01*
Y293848D02*
Y301348D01*
X715450Y306348D02*
Y315348D01*
Y306348D02*
X717950Y303848D01*
X730450D01*
X715450Y285348D02*
Y296348D01*
X751950Y284348D02*
Y293848D01*
X715450Y285348D02*
X720450Y280348D01*
X747950D01*
X751950Y284348D01*
X695950Y395848D02*
X704950D01*
Y367348D02*
Y376848D01*
X704450Y366848D02*
X704950Y367348D01*
X727950Y313848D02*
X732950D01*
X725220Y316578D02*
X727950Y313848D01*
X724038Y334272D02*
X725220Y333090D01*
Y316578D02*
Y333090D01*
X741450Y396348D02*
Y404348D01*
X738450Y407348D02*
X741450Y404348D01*
X737862Y353424D02*
X748874D01*
X748950Y353348D01*
X686450Y394348D02*
X699450Y407348D01*
X738450D01*
X686450Y334848D02*
Y394348D01*
Y334848D02*
X705950Y315348D01*
X715450D01*
X724038Y353424D02*
Y359436D01*
X726950Y362348D01*
X755450D02*
X759038Y358760D01*
Y343772D02*
Y358760D01*
X713450Y348848D02*
X718450Y343848D01*
X733950D01*
X737862Y339936D01*
Y334272D02*
Y339936D01*
X771450Y294848D02*
X786950D01*
X794038Y301936D01*
Y343772D01*
X722450Y396348D02*
X728450D01*
X731450Y393348D01*
Y362348D02*
Y393348D01*
X726950Y362348D02*
X731450D01*
X755450D01*
X755950Y373846D02*
Y385347D01*
X755950Y385348D02*
X755950Y385347D01*
X771450Y313848D02*
X781798D01*
X785950Y318000D01*
X802950Y396848D02*
Y515000D01*
X807450Y354500D02*
Y394000D01*
X804602Y396848D02*
X807450Y394000D01*
X792950Y396848D02*
X804602D01*
X445450Y365790D02*
X466240D01*
X466450Y366000D01*
X714297Y358348D02*
X714449Y358500D01*
X697450Y422000D02*
Y464500D01*
X692950Y392848D02*
X695950Y395848D01*
X692950Y368000D02*
Y392848D01*
Y368000D02*
X702862Y358088D01*
Y343924D02*
Y358088D01*
X1052910Y750500D02*
X1071283Y768873D01*
Y775540D01*
X1057450Y645381D02*
Y742500D01*
X1090490Y775540D01*
X1109617D01*
X1153950Y694846D02*
Y760500D01*
X1147950Y766500D02*
X1153950Y760500D01*
X1147950Y766500D02*
Y775540D01*
D11*
X619950Y376040D02*
Y376848D01*
X827950Y529040D02*
Y565540D01*
X837950Y550040D02*
Y566040D01*
X835450Y568540D02*
X837950Y566040D01*
X1188440Y758130D02*
X1204320D01*
X1167450Y758540D02*
X1188030D01*
X997600Y550390D02*
Y593690D01*
Y550390D02*
X997950Y550040D01*
X987950D02*
Y606540D01*
X992450Y611040D01*
X977950Y550040D02*
Y630040D01*
X985450Y637540D01*
X967950Y550040D02*
Y708540D01*
X967950Y708540D01*
X957950Y550040D02*
Y690540D01*
X1128450Y637540D02*
X1156610D01*
X985450D02*
X987950D01*
X953450Y695040D02*
X957950Y690540D01*
X397950Y474540D02*
X414450D01*
X427362Y487452D01*
Y494116D01*
X320510Y483480D02*
X394510D01*
X397950Y480040D01*
Y474540D02*
Y480040D01*
X385874Y459116D02*
X427362D01*
X377950Y467040D02*
X385874Y459116D01*
X377950Y467040D02*
Y474540D01*
X350450D02*
X377950D01*
X333990Y458080D02*
X350450Y474540D01*
X320510Y458080D02*
X333990D01*
X320510Y508880D02*
X349790D01*
X354790Y513880D01*
X320510Y534280D02*
X320590Y534200D01*
X397950D01*
X448538Y503616D02*
X467026D01*
X448538Y468616D02*
X470026D01*
X489450Y469040D02*
Y503040D01*
X918950Y743540D02*
Y787930D01*
X377950Y493540D02*
X397950D01*
Y513880D01*
X1351450Y659540D02*
Y679040D01*
X1308450Y616540D02*
X1351450Y659540D01*
Y679040D02*
X1371450D01*
X1157650Y636900D02*
X1178720D01*
X1280850Y617900D02*
X1306900Y643950D01*
X765810Y773180D02*
Y788670D01*
Y773180D02*
X787450Y751540D01*
Y731040D02*
Y751540D01*
X806450Y731040D02*
Y751540D01*
X816610Y761700D01*
Y788670D01*
X1256900Y643950D02*
Y658090D01*
X1249450Y665540D02*
X1256900Y658090D01*
X1249450Y665540D02*
Y678040D01*
X1268450D01*
X1371450Y698040D02*
Y707540D01*
X1268450Y697040D02*
Y704540D01*
X1276450Y712540D01*
X1366450D01*
X1371450Y707540D01*
X1178720Y617900D02*
X1280850D01*
X1143610Y616380D02*
X1157450D01*
X1136450Y623540D02*
X1143610Y616380D01*
X1136450Y623540D02*
Y623540D01*
X1228450Y655540D02*
Y675380D01*
X1227450Y654540D02*
X1228450Y655540D01*
X1309290Y676380D02*
X1330450D01*
X1308450Y675540D02*
X1309290Y676380D01*
X1402450Y558540D02*
Y579380D01*
X1188440Y737810D02*
X1189450Y736800D01*
Y721040D02*
Y736800D01*
X397950Y513880D02*
X420290D01*
X420450Y514040D01*
X354790Y513880D02*
X397950D01*
X1017814Y514720D02*
Y530540D01*
X740410Y570000D02*
Y788670D01*
X739950Y569540D02*
X740410Y570000D01*
X917950Y550040D02*
Y577040D01*
X914950Y580040D02*
X917950Y577040D01*
X913950Y580040D02*
X914950D01*
X927950Y550040D02*
Y680540D01*
X893450Y715040D02*
Y810540D01*
Y715040D02*
X927950Y680540D01*
X943610Y735380D02*
X943950Y735040D01*
X943610Y735380D02*
Y788670D01*
X887950Y450040D02*
Y550040D01*
Y450040D02*
X888450Y449540D01*
X448962Y449040D02*
X462950D01*
X448538Y449464D02*
X448962Y449040D01*
X448538Y484464D02*
X462374D01*
X463450Y485540D01*
X870450Y486040D02*
X877950Y493540D01*
Y550040D01*
X827950Y565540D02*
X830950Y568540D01*
X835450D01*
X1037950Y529040D02*
Y560040D01*
X1038450Y560540D01*
X1039449D01*
X1017814Y530540D02*
X1027950Y540676D01*
Y550040D01*
X1007950D02*
Y578540D01*
X1008450Y579040D01*
X937950Y550040D02*
Y572540D01*
X944450Y579040D01*
Y580540D01*
X907950Y550040D02*
Y566540D01*
X867950Y753040D02*
X868450Y753540D01*
X867950Y550040D02*
Y753040D01*
X881450Y593040D02*
X907950Y566540D01*
X881450Y593040D02*
Y767040D01*
X897950Y533040D02*
Y550040D01*
Y533040D02*
X904950Y526040D01*
X947950Y529540D02*
Y550040D01*
Y529540D02*
X948450Y529040D01*
X1301950Y695540D02*
X1329290D01*
X1330450Y696700D01*
X1228450Y697040D02*
X1249450D01*
X1209950Y708540D02*
X1220950D01*
X1228450Y701040D01*
Y695700D02*
Y701040D01*
X1381450Y600040D02*
Y629040D01*
Y600040D02*
X1432160D01*
X1330450Y696700D02*
X1338610D01*
X1340450Y698540D01*
X1350950D01*
X1351450Y698040D01*
X857950Y550040D02*
X858800Y550890D01*
Y735690D01*
X856450Y738040D02*
X858800Y735690D01*
X1190650Y760340D02*
Y794540D01*
X1188440Y758130D02*
X1190650Y760340D01*
X1438110Y605990D02*
Y641180D01*
X1437950Y641340D02*
X1438110Y641180D01*
X1204320Y758130D02*
X1219450Y743000D01*
X1249900D01*
X1009461Y605551D02*
Y768540D01*
X997600Y593690D02*
X1009461Y605551D01*
X247950Y250000D02*
Y850000D01*
X1480000D01*
Y250000D02*
Y850000D01*
X247950Y250000D02*
X1480000D01*
D12*
X320510Y534280D02*
D03*
Y508880D02*
D03*
Y483480D02*
D03*
Y458080D02*
D03*
D13*
X1117950Y419040D02*
D03*
Y729040D02*
D03*
X367950D02*
D03*
Y419040D02*
D03*
D14*
X697450Y514500D02*
D03*
Y464500D02*
D03*
D15*
X1215650Y792500D02*
D03*
D16*
X1190250Y792500D02*
D03*
X1437950Y641340D02*
D03*
D17*
X1437950Y666740D02*
D03*
D18*
X1432790Y803720D02*
D03*
X288290Y806086D02*
D03*
X591610Y696170D02*
D03*
D19*
X1224900Y568950D02*
D03*
X1338900D02*
D03*
D20*
X1256900Y643950D02*
D03*
X1281900D02*
D03*
X1306900D02*
D03*
X1256900Y498950D02*
D03*
D21*
X1306900D02*
D03*
D22*
X1438110Y541990D02*
D03*
Y605990D02*
D03*
X1249900Y743000D02*
D03*
X1313900D02*
D03*
D23*
X918210Y788670D02*
D03*
X943610D02*
D03*
X867410D02*
D03*
X842010D02*
D03*
X816610D02*
D03*
X791210D02*
D03*
X765810D02*
D03*
X740410D02*
D03*
X715010D02*
D03*
X689610D02*
D03*
D24*
X1033200Y793540D02*
D03*
X1148200D02*
D03*
X1109867D02*
D03*
X1071533D02*
D03*
D25*
X792950Y364848D02*
D03*
X676450Y367500D02*
D03*
X611950Y438540D02*
D03*
Y402707D02*
D03*
Y366873D02*
D03*
Y331040D02*
D03*
X1042450Y302540D02*
D03*
Y416040D02*
D03*
X657950Y416540D02*
D03*
X1042450Y378207D02*
D03*
X657950Y379040D02*
D03*
X1042450Y340373D02*
D03*
X657950Y341540D02*
D03*
Y304040D02*
D03*
X527950Y430540D02*
D03*
X501450Y354540D02*
D03*
X837950Y566040D02*
D03*
X1189450Y721040D02*
D03*
X992450Y611040D02*
D03*
X1128450Y637540D02*
D03*
X987950D02*
D03*
X953450Y695040D02*
D03*
X967950Y708540D02*
D03*
X1308450Y616540D02*
D03*
X1136450Y623540D02*
D03*
X1227450Y654540D02*
D03*
X1308450Y675540D02*
D03*
X1402450Y558540D02*
D03*
X420450Y514040D02*
D03*
X1017814Y514720D02*
D03*
X739950Y569540D02*
D03*
X913950Y580040D02*
D03*
X868450Y753540D02*
D03*
X893450Y810540D02*
D03*
X881950Y768540D02*
D03*
X856450Y738040D02*
D03*
X943950Y735040D02*
D03*
X888450Y449540D02*
D03*
X462950Y449040D02*
D03*
X463450Y485540D02*
D03*
X870450Y486040D02*
D03*
X827950Y565540D02*
D03*
X1039449Y560540D02*
D03*
X1008450Y579040D02*
D03*
X904950Y526040D02*
D03*
X944450Y580540D02*
D03*
X948450Y529040D02*
D03*
X1301950Y695540D02*
D03*
X1209950Y708540D02*
D03*
X1381450Y629040D02*
D03*
X783450Y350348D02*
D03*
X704450Y366848D02*
D03*
X748950Y353348D02*
D03*
X725450Y324348D02*
D03*
X755950Y385348D02*
D03*
X785950Y318000D02*
D03*
X802950Y515000D02*
D03*
X807450Y354500D02*
D03*
X466450Y366000D02*
D03*
X714449Y358500D02*
D03*
X692950Y367500D02*
D03*
X1009461Y768540D02*
D03*
D26*
X578950Y301540D02*
D03*
Y320540D02*
D03*
X579425Y377873D02*
D03*
Y396873D02*
D03*
X635925Y378521D02*
D03*
Y397521D02*
D03*
X579425Y339707D02*
D03*
Y358707D02*
D03*
X635925Y340501D02*
D03*
Y359501D02*
D03*
Y302482D02*
D03*
Y321482D02*
D03*
X420950Y373040D02*
D03*
Y392040D02*
D03*
X579425Y416040D02*
D03*
Y435040D02*
D03*
X635925Y416540D02*
D03*
Y435540D02*
D03*
X1249450Y697040D02*
D03*
Y678040D02*
D03*
X1351450Y698040D02*
D03*
Y679040D02*
D03*
X918950Y743540D02*
D03*
Y724540D02*
D03*
X1268450Y678040D02*
D03*
Y697040D02*
D03*
X1178720Y636900D02*
D03*
Y617900D02*
D03*
X1198450Y637040D02*
D03*
Y618040D02*
D03*
X1371450Y698040D02*
D03*
Y679040D02*
D03*
X397950Y493540D02*
D03*
Y474540D02*
D03*
X1381450Y600040D02*
D03*
Y581040D02*
D03*
X377950Y493540D02*
D03*
Y474540D02*
D03*
X1167450Y758540D02*
D03*
Y739540D02*
D03*
X715450Y315348D02*
D03*
Y296348D02*
D03*
X704950Y376848D02*
D03*
Y395848D02*
D03*
D27*
X469450Y504040D02*
D03*
X488450D02*
D03*
X470450Y469040D02*
D03*
X489450D02*
D03*
X732950Y293848D02*
D03*
X751950D02*
D03*
X722450Y396348D02*
D03*
X741450D02*
D03*
X751950Y313848D02*
D03*
X732950D02*
D03*
X722450Y376348D02*
D03*
X741450D02*
D03*
D28*
X792950Y396848D02*
D03*
Y377848D02*
D03*
X771450Y313848D02*
D03*
Y294848D02*
D03*
X377960Y533506D02*
D03*
Y514506D02*
D03*
D29*
X724038Y353424D02*
D03*
Y334272D02*
D03*
X702862Y343924D02*
D03*
X772862Y334272D02*
D03*
Y353424D02*
D03*
X794038Y343772D02*
D03*
X737862Y334272D02*
D03*
Y353424D02*
D03*
X759038Y343772D02*
D03*
X596362Y416511D02*
D03*
Y435662D02*
D03*
X617538Y426011D02*
D03*
X448538Y503616D02*
D03*
Y484464D02*
D03*
X427362Y494116D02*
D03*
X448538Y468616D02*
D03*
Y449464D02*
D03*
X427362Y459116D02*
D03*
X617538Y311452D02*
D03*
X596362Y321104D02*
D03*
Y301952D02*
D03*
X617538Y349638D02*
D03*
X596362Y359290D02*
D03*
Y340138D02*
D03*
X617538Y387824D02*
D03*
X596362Y397476D02*
D03*
Y378324D02*
D03*
D30*
X774950Y399850D02*
D03*
X755950D02*
D03*
Y373846D02*
D03*
X765450D02*
D03*
X774950D02*
D03*
D31*
X1032950Y811540D02*
D03*
Y775540D02*
D03*
X1147950D02*
D03*
Y811540D02*
D03*
X1109617Y775540D02*
D03*
Y811540D02*
D03*
X1071283Y775540D02*
D03*
Y811540D02*
D03*
D32*
X1027950Y550040D02*
D03*
X1017950D02*
D03*
X1007950D02*
D03*
X997950D02*
D03*
X987950D02*
D03*
X977950D02*
D03*
X967950D02*
D03*
X957950D02*
D03*
X947950D02*
D03*
X937950D02*
D03*
X927950D02*
D03*
X917950D02*
D03*
X907950D02*
D03*
X897950D02*
D03*
X887950D02*
D03*
X877950D02*
D03*
X867950D02*
D03*
X857950D02*
D03*
X847950D02*
D03*
X837950D02*
D03*
D33*
X827950Y529040D02*
D03*
X1037950D02*
D03*
D34*
X1228450Y695700D02*
D03*
Y675380D02*
D03*
X1330450Y696700D02*
D03*
Y676380D02*
D03*
X1157450Y636700D02*
D03*
Y616380D02*
D03*
X1402450Y599700D02*
D03*
Y579380D02*
D03*
X1188440Y758130D02*
D03*
Y737810D02*
D03*
X397950Y513880D02*
D03*
Y534200D02*
D03*
D35*
X806450Y731040D02*
D03*
X787450D02*
D03*
X511450Y430540D02*
D03*
X492450D02*
D03*
D36*
X501450Y411290D02*
D03*
Y404790D02*
D03*
Y398290D02*
D03*
Y391790D02*
D03*
Y385290D02*
D03*
Y378790D02*
D03*
Y372290D02*
D03*
Y365790D02*
D03*
X445450Y411290D02*
D03*
Y404790D02*
D03*
Y398290D02*
D03*
Y391790D02*
D03*
Y385290D02*
D03*
Y378790D02*
D03*
Y372290D02*
D03*
Y365790D02*
D03*
D37*
X1412450Y321290D02*
D03*
X315450D02*
D03*
M02*
